<?xml version="1.0" encoding="iso-8859-1"?>
<!-- Generator: Adobe Illustrator 25.0.0, SVG Export Plug-In . SVG Version: 6.00 Build 0)  -->
<svg version="1.1" id="Layer_1" xmlns="http://www.w3.org/2000/svg" xmlns:xlink="http://www.w3.org/1999/xlink" x="0px" y="0px"
	 viewBox="0 0 511.864 511.864" style="enable-background:new 0 0 511.864 511.864;" xml:space="preserve">
<g>
	<g>
		<g>
			<g>
				<polygon style="fill:#41CCB4;" points="420.593,467.827 411.432,447.051 388.859,449.506 402.272,431.184 388.859,412.863 
					411.432,415.317 420.593,394.541 429.754,415.317 452.327,412.863 438.915,431.184 452.327,449.506 429.754,447.051 				"/>
			</g>
			<g>
				<polygon style="fill:#FFCA21;" points="255.932,145.722 271.715,181.517 310.606,177.288 287.498,208.855 310.606,240.421 
					271.715,236.192 255.932,271.987 240.149,236.192 201.258,240.421 224.366,208.855 201.258,177.288 240.149,181.517 				"/>
				<polygon style="fill:#FFCA21;" points="255.932,145.722 271.715,181.517 310.606,177.288 287.498,208.855 310.606,240.421 
					271.715,236.192 255.932,271.987 240.149,236.192 201.258,240.421 224.366,208.855 201.258,177.288 240.149,181.517 				"/>
			</g>
			<g>
				<polygon style="fill:#EB67A5;" points="91.271,467.827 82.11,447.051 59.537,449.506 72.949,431.184 59.537,412.863 
					82.11,415.317 91.271,394.541 100.432,415.317 123.005,412.863 109.592,431.184 123.005,449.506 100.432,447.051 				"/>
			</g>
		</g>
		<g>
			<polygon style="fill:#F2BB0C;" points="310.606,177.288 271.715,181.518 255.932,145.722 255.932,271.987 271.715,236.192 
				310.606,240.421 287.498,208.855 			"/>
		</g>
		<g>
			<polygon style="fill:#0FBA9D;" points="452.327,412.863 429.754,415.317 420.593,394.541 420.593,467.827 429.754,447.051 
				452.327,449.506 438.915,431.184 			"/>
		</g>
		<g>
			<polygon style="fill:#E34D94;" points="123.005,412.863 100.432,415.317 91.271,394.541 91.271,467.827 100.432,447.051 
				123.005,449.506 109.592,431.184 			"/>
		</g>
	</g>
	<g>
		<path d="M365.254,423.685h-28.5c-9.697,0-9.697,15,0,15h28.5C374.952,438.685,374.952,423.685,365.254,423.685z"/>
		<path d="M504.432,423.685h-28.844c-9.697,0-9.697,15,0,15h28.844C514.129,438.685,514.129,423.685,504.432,423.685z"/>
		<path d="M455.252,476.54c-4.824-8.412-17.837-0.949-13.012,7.463l13.766,24.002c5.137,8.954,17.628,0.586,13.012-7.463
			L455.252,476.54z"/>
		<path d="M385.934,385.829c5.137,8.954,17.628,0.586,13.012-7.463l-13.766-24.002c-4.826-8.411-17.837-0.949-13.012,7.463
			L385.934,385.829z"/>
		<path d="M445.015,388.603c3.794,1.955,7.207,1.031,10.237-2.774l13.766-24.002c4.825-8.412-8.187-15.875-13.012-7.463
			l-13.766,24.002C440.18,381.959,441.422,386.543,445.015,388.603z"/>
		<path d="M396.171,473.765c-3.594-2.061-8.177-0.819-10.237,2.774l-13.766,24.002c-4.617,8.049,7.877,16.418,13.012,7.463
			l13.766-24.002C401.007,480.409,399.765,475.826,396.171,473.765z"/>
		<path d="M458.822,453.256c1.486-2.574,1.312-5.782-0.443-8.18l-10.169-13.891l10.169-13.892c4.092-5.59-1.109-12.522-6.862-11.886
			l-17.115,1.861l-6.946-15.752c-2.579-5.851-11.145-5.851-13.725,0l-6.946,15.752l-17.115-1.861
			c-5.752-0.634-10.957,6.293-6.862,11.886l10.169,13.892l-10.169,13.891c-4.1,5.6,1.114,12.512,6.862,11.886l17.115-1.861
			l6.946,15.752c2.579,5.851,11.145,5.851,13.725,0l6.946-15.752l17.115,1.861C454.471,457.284,457.336,455.83,458.822,453.256z
			 M432.863,435.615l3.365,4.596l-5.664-0.616c-3.242-0.356-6.354,1.439-7.673,4.43l-2.298,5.212l-2.298-5.212
			c-1.208-2.74-3.915-4.474-6.859-4.474c-0.27,0-0.542,0.014-0.814,0.044l-5.663,0.616l3.365-4.596c1.931-2.638,1.931-6.223,0-8.86
			l-3.365-4.597l5.664,0.616c3.24,0.356,6.354-1.438,7.673-4.43l2.298-5.212l2.298,5.212c1.318,2.991,4.427,4.784,7.673,4.43
			l5.664-0.616l-3.365,4.597C430.932,429.392,430.932,432.977,432.863,435.615z"/>
		<path d="M175.966,208.854c0-4.142-3.358-7.5-7.5-7.5H91.489c-9.697,0-9.697,15,0,15h76.977
			C172.608,216.354,175.966,212.997,175.966,208.854z"/>
		<path d="M427.875,208.854c0-4.142-3.358-7.5-7.5-7.5h-76.977c-4.142,0-7.5,3.358-7.5,7.5s3.358,7.5,7.5,7.5h76.977
			C424.517,216.354,427.875,212.997,427.875,208.854z"/>
		<path d="M338.16,357.828c5.274,0,9.219-6.554,6.478-11.27l-38.662-66.523c-4.872-8.385-17.842-0.847-12.969,7.537l38.662,66.523
			C333.061,356.491,335.576,357.828,338.16,357.828z"/>
		<path d="M203.783,134.051c5.179,8.913,17.637,0.493,12.969-7.537l-36.557-62.9c-4.873-8.384-17.842-0.847-12.969,7.537
			L203.783,134.051z"/>
		<path d="M297.828,136.767c3.791,1.977,7.209,1.072,10.253-2.716l36.557-62.9c4.873-8.384-8.096-15.92-12.969-7.537l-36.557,62.9
			C293.031,130.095,294.246,134.686,297.828,136.767z"/>
		<path d="M216.139,277.323c-3.58-2.08-8.171-0.866-10.253,2.716l-38.66,66.519c-4.668,8.03,7.789,16.45,12.969,7.537l38.66-66.519
			C220.936,283.995,219.721,279.405,216.139,277.323z"/>
		<path d="M255.932,37.249c4.142,0,7.5-3.358,7.5-7.5V7.273c0-9.697-15-9.697-15,0v22.477
			C248.432,33.892,251.79,37.249,255.932,37.249z"/>
		<path d="M255.932,123.683c4.142,0,7.5-3.358,7.5-7.5V58.412c0-9.697-15-9.697-15,0v57.771
			C248.432,120.325,251.79,123.683,255.932,123.683z"/>
		<path d="M255.932,380.46c-4.142,0-7.5,3.358-7.5,7.5v22.477c0,9.697,15,9.697,15,0V387.96
			C263.432,383.818,260.074,380.46,255.932,380.46z"/>
		<path d="M255.932,294.026c-4.142,0-7.5,3.358-7.5,7.5v57.771c0,9.697,15,9.697,15,0v-57.771
			C263.432,297.384,260.074,294.026,255.932,294.026z"/>
		<path d="M80.337,322.391c1.272,0,2.562-0.324,3.743-1.006l19.465-11.238c8.398-4.849,0.898-17.839-7.5-12.99L76.58,308.394
			C70.572,311.863,72.62,322.391,80.337,322.391z"/>
		<path d="M181.144,256.684c-2.071-3.588-6.659-4.817-10.245-2.745l-50.032,28.886c-8.624,4.978-0.533,17.629,7.5,12.99
			l50.032-28.886C181.986,264.858,183.215,260.271,181.144,256.684z"/>
		<path d="M410.021,132.047c1.272,0,2.562-0.324,3.743-1.006l19.465-11.238c8.398-4.848,0.898-17.839-7.5-12.99l-19.465,11.238
			C400.256,121.519,402.305,132.047,410.021,132.047z"/>
		<path d="M328.666,171.512c3.037,3.796,6.452,4.711,10.245,2.745l50.031-28.886c8.398-4.848,0.898-17.839-7.5-12.99l-50.031,28.886
			C327.824,163.338,326.595,167.925,328.666,171.512z"/>
		<path d="M408.574,298.169c-2.071,3.587-0.842,8.174,2.745,10.245l19.465,11.238c8.033,4.639,16.124-8.012,7.5-12.99
			l-19.465-11.238C415.231,293.352,410.644,294.582,408.574,298.169z"/>
		<path d="M390.24,295.089c7.716,0,9.766-10.528,3.757-13.997l-50.032-28.886c-8.397-4.851-15.898,8.142-7.5,12.99l50.032,28.886
			C387.678,294.765,388.968,295.089,390.24,295.089z"/>
		<path d="M81.634,118.07l19.465,11.238c8.033,4.639,16.124-8.012,7.5-12.99L89.134,105.08
			C80.736,100.231,73.236,113.222,81.634,118.07z"/>
		<path d="M125.922,143.64l50.031,28.886c8.033,4.639,16.124-8.012,7.5-12.99l-50.031-28.886
			C125.024,125.8,117.523,138.792,125.922,143.64z"/>
		<path d="M315.037,246.473c3.342-2.447,4.068-7.14,1.622-10.482l-19.865-27.136l19.865-27.136
			c4.091-5.589-1.108-12.523-6.862-11.886l-33.433,3.635l-13.568-30.771c-2.579-5.851-11.145-5.851-13.725,0l-13.568,30.771
			l-33.433-3.635c-5.753-0.635-10.956,6.294-6.862,11.886l19.865,27.136l-19.865,27.136c-4.1,5.601,1.114,12.511,6.862,11.886
			l33.433-3.635l13.568,30.771c2.579,5.851,11.145,5.851,13.725,0l15.783-35.795c3.913-8.873-9.813-14.924-13.725-6.052
			l-8.921,20.231l-8.921-20.231c-1.318-2.991-4.42-4.784-7.673-4.43l-21.981,2.39l13.061-17.841c1.931-2.638,1.931-6.223,0-8.86
			l-13.061-17.841l21.981,2.39c3.242,0.357,6.354-1.438,7.673-4.43l8.921-20.231l8.921,20.231c1.318,2.991,4.427,4.79,7.673,4.43
			l21.981-2.39l-13.061,17.841c-1.931,2.638-1.931,6.223,0,8.86l23.108,31.566C307.001,248.193,311.695,248.919,315.037,246.473z"/>
		<path d="M35.932,423.685h-28.5c-9.697,0-9.697,15,0,15h28.5C45.629,438.685,45.629,423.685,35.932,423.685z"/>
		<path d="M175.11,423.685h-28.844c-9.697,0-9.697,15,0,15h28.844C184.807,438.685,184.807,423.685,175.11,423.685z"/>
		<path d="M125.93,476.54c-4.825-8.411-17.837-0.949-13.012,7.463l13.766,24.002c5.137,8.954,17.628,0.586,13.012-7.463
			L125.93,476.54z"/>
		<path d="M56.612,385.829c5.137,8.954,17.628,0.586,13.012-7.463l-13.766-24.002c-4.826-8.411-17.837-0.949-13.012,7.463
			L56.612,385.829z"/>
		<path d="M115.693,388.603c3.794,1.955,7.207,1.031,10.237-2.774l13.766-24.002c4.825-8.412-8.188-15.875-13.012-7.463
			l-13.766,24.002C110.857,381.959,112.1,386.543,115.693,388.603z"/>
		<path d="M66.849,473.765c-3.593-2.061-8.177-0.819-10.237,2.774l-13.766,24.002c-4.617,8.049,7.877,16.418,13.012,7.463
			l13.766-24.002C71.684,480.409,70.442,475.826,66.849,473.765z"/>
		<path d="M129.5,453.256c1.486-2.574,1.312-5.782-0.443-8.18l-10.169-13.891l10.169-13.892c4.091-5.589-1.109-12.522-6.862-11.886
			l-17.115,1.861l-6.946-15.752c-2.579-5.851-11.145-5.851-13.725,0l-6.946,15.752l-17.115-1.861
			c-5.753-0.634-10.956,6.294-6.862,11.886l10.169,13.892l-10.169,13.891c-4.099,5.6,1.113,12.513,6.862,11.886l17.115-1.861
			l6.946,15.752c2.579,5.851,11.145,5.851,13.725,0l6.946-15.752l17.115,1.861C125.145,457.284,128.014,455.83,129.5,453.256z
			 M103.54,435.615l3.365,4.596l-5.663-0.616c-3.245-0.356-6.354,1.439-7.673,4.43l-2.298,5.212l-2.298-5.212
			c-1.208-2.74-3.915-4.474-6.859-4.474c-0.27,0-0.542,0.014-0.814,0.044l-5.664,0.616l3.365-4.596c1.931-2.638,1.931-6.223,0-8.86
			l-3.365-4.597l5.664,0.616c3.243,0.356,6.354-1.438,7.673-4.43l2.298-5.212l2.298,5.212c1.318,2.991,4.421,4.784,7.673,4.43
			l5.664-0.616l-3.365,4.597C101.609,429.392,101.609,432.977,103.54,435.615z"/>
	</g>
</g>
<g>
</g>
<g>
</g>
<g>
</g>
<g>
</g>
<g>
</g>
<g>
</g>
<g>
</g>
<g>
</g>
<g>
</g>
<g>
</g>
<g>
</g>
<g>
</g>
<g>
</g>
<g>
</g>
<g>
</g>
</svg>
