<?xml version="1.0" encoding="iso-8859-1"?>
<!-- Generator: Adobe Illustrator 25.0.0, SVG Export Plug-In . SVG Version: 6.00 Build 0)  -->
<svg version="1.1" id="Layer_1" xmlns="http://www.w3.org/2000/svg" xmlns:xlink="http://www.w3.org/1999/xlink" x="0px" y="0px"
	 viewBox="0 0 512.181 512.181" style="enable-background:new 0 0 512.181 512.181;" xml:space="preserve">
<g>
	<g>
		<g>
			<g>
				<path style="fill:#41CCB4;" d="M336.131,134.543c-0.291-2.271,2.664-3.374,3.948-1.479c0.023,0.033,0.045,0.067,0.068,0.1
					c17.102,25.206,38.171,42.438,47.059,38.49c6.135-2.726,4.858-14.834-2.146-30.363c-1.051-2.331,1.873-4.413,3.731-2.656
					l0.13,0.123c19.935,18.821,41.323,30.122,47.771,25.242c6.448-4.88-4.485-24.094-24.421-42.914l-0.057-0.054
					c-1.053-0.994,0.024-2.71,1.375-2.19c6.745,2.596,14.439,5.011,22.703,7.034c29.169,7.14,54.339,6.706,56.219-0.97
					s-20.244-19.688-49.413-26.828c-8.265-2.023-16.204-3.435-23.385-4.248c-1.439-0.163-1.601-2.183-0.208-2.578l0.076-0.021
					c26.375-7.484,44.947-19.475,41.482-26.782s-27.654-7.163-54.029,0.322l-0.173,0.049c-2.459,0.699-4.091-2.498-2.082-4.079
					C418.166,50.2,424.891,40.051,420.709,34.8c-6.059-7.608-32.705-2.056-59.517,12.401c-0.036,0.019-0.071,0.038-0.107,0.058
					c-2.014,1.088-4.126-1.256-2.818-3.135c6.764-9.725,8.981-17.941,4.845-21.352c-6.659-5.491-27.254,3.553-46.002,20.2
					c-13.678,12.146-51.528,20.815-52.763,29.003c-19.514,0.71,28.229,27.489,34.75,44.58c8.938,23.425,23.027,40.959,31.469,39.165
					C335.81,154.604,337.639,146.293,336.131,134.543z"/>
			</g>
			<g>
				<path style="fill:#41CCB4;" d="M181.615,155.719c8.442,1.795,22.531-15.74,31.469-39.165
					c6.521-17.091,45.693-34.183,43.006-42.014c-1.235-8.187-47.341-19.422-61.02-31.568c-18.747-16.647-39.343-25.691-46.002-20.2
					c-4.136,3.411-1.919,11.627,4.845,21.352c1.307,1.879-0.804,4.223-2.818,3.135c-0.036-0.019-0.071-0.038-0.107-0.058
					C124.178,32.744,97.531,27.192,91.472,34.8c-4.182,5.252,2.543,15.4,15.929,25.938c2.009,1.581,0.377,4.779-2.082,4.079
					l-0.173-0.049c-26.375-7.484-50.564-7.628-54.029-0.322C47.653,71.754,66.225,83.745,92.6,91.229l0.076,0.021
					c1.393,0.395,1.231,2.415-0.208,2.578c-7.181,0.813-15.121,2.225-23.385,4.248c-29.169,7.14-51.293,19.152-49.413,26.828
					c1.879,7.676,27.049,8.111,56.219,0.97c8.265-2.023,15.958-4.438,22.703-7.034c1.351-0.52,2.428,1.197,1.375,2.19l-0.057,0.054
					C79.973,139.906,69.04,159.12,75.488,164c6.448,4.88,27.836-6.421,47.771-25.242l0.13-0.123
					c1.858-1.756,4.782,0.326,3.731,2.656c-7.004,15.529-8.281,27.637-2.146,30.363c8.888,3.949,29.957-13.284,47.059-38.49
					c0.023-0.033,0.045-0.067,0.068-0.1c1.284-1.895,4.239-0.792,3.948,1.479C174.542,146.293,176.372,154.604,181.615,155.719z"/>
			</g>
		</g>
		<g>
			<circle style="fill:#FFCA21;" cx="256.091" cy="440.233" r="64.448"/>
			<g>
				<path style="fill:#FFCA21;" d="M98.549,444.011c0-204.053,70.534-369.471,157.541-369.471s157.541,165.418,157.541,369.471
					H98.549z"/>
				<path style="fill:#F2BB0C;" d="M256.091,74.54c-6.775,0-13.45,1.004-20,2.95c77.564,23.047,137.541,178.357,137.541,366.521h40
					C413.632,239.958,343.098,74.54,256.091,74.54z"/>
				<path style="fill:#FFE594;" d="M413.814,444.011H98.367c-12.505,0-22.643-10.138-22.643-22.643v0
					c0-12.505,10.138-22.643,22.643-22.643h315.447c12.505,0,22.643,10.138,22.643,22.643v0
					C436.457,433.873,426.32,444.011,413.814,444.011z"/>
				<path style="fill:#F7D877;" d="M413.814,398.725h-40c12.505,0,22.643,10.137,22.643,22.643v0
					c0,12.505-10.138,22.643-22.643,22.643h40c12.505,0,22.643-10.137,22.643-22.643v0
					C436.457,408.862,426.32,398.725,413.814,398.725z"/>
			</g>
		</g>
		<g>
			<g>
				<path style="fill:#EB67A5;" d="M231.861,77.44l-63.71,18.152c-0.376,0.078-0.752,0.148-1.127,0.208
					c-18.984,3.052-31.702-19.164-19.993-34.416l7.294-9.501l-7.294-9.501c-11.709-15.252,1.009-37.469,19.993-34.416
					c0.375,0.06,0.75,0.129,1.127,0.208l63.71,18.152V77.44z"/>
				<path style="fill:#EB67A5;" d="M280.32,26.325l63.71-18.152c0.376-0.078,0.752-0.148,1.127-0.208
					c18.984-3.052,31.702,19.164,19.993,34.416l-7.294,9.501l7.294,9.501c11.709,15.252-1.009,37.469-19.993,34.416
					c-0.375-0.06-0.75-0.129-1.127-0.208L280.32,77.44V26.325z"/>
			</g>
			<path style="fill:#F2A7D0;" d="M256.091,96.084L256.091,96.084c-20.965,0-37.961-16.995-37.961-37.96V45.64
				c0-20.965,16.995-37.96,37.96-37.96h0.001c20.965,0,37.96,16.995,37.96,37.96v12.484
				C294.051,79.089,277.056,96.084,256.091,96.084z"/>
			<path style="fill:#F294C7;" d="M256.091,7.681L256.091,7.681c-7.342,0-14.192,2.09-20,5.698
				c10.779,6.697,17.96,18.638,17.96,32.261v12.484c0,13.624-7.181,25.565-17.96,32.262c5.808,3.608,12.659,5.698,20,5.698h0.001
				c20.965,0,37.96-16.995,37.96-37.96V45.64C294.051,24.676,277.056,7.681,256.091,7.681z"/>
		</g>
	</g>
	<g>
		<path d="M483.028,104.699c-9.883-5.366-23.43-10.305-38.146-13.907c-0.404-0.099-0.807-0.196-1.209-0.292
			c14.16-6.484,21.676-13.408,24.055-18.654c1.622-3.577,1.662-7.345,0.113-10.612c-3.125-6.591-11.362-9.744-25.245-9.673
			c-5.903,0.035-12.543,0.68-19.523,1.871c3.308-4.211,5.749-8.709,6.265-13.149c0.444-3.817-0.511-7.329-2.762-10.155
			c-8.534-10.718-30.471-6.041-49.563,1.486c0.479-5.879-0.822-11.905-3.984-17.271c-6.055-10.277-17.066-15.577-28.744-13.824
			c-4.096,0.614-6.919,4.432-6.305,8.529c0.613,4.096,4.432,6.921,8.529,6.305c5.579-0.835,10.667,1.632,13.596,6.604
			c2.366,4.015,3.371,10.289-0.904,15.857c-2.431,3.167-4.863,6.335-7.294,9.502c-2.068,2.694-2.068,6.44,0,9.134l7.294,9.501
			c7.588,9.884-1.074,24.734-13.401,22.348l-47.426-13.513c2.042-5.163,3.176-10.781,3.176-16.661V45.641
			c0-5.881-1.135-11.498-3.177-16.662l10.925-3.113c3.983-1.135,6.293-5.285,5.158-9.268c-1.135-3.983-5.284-6.293-9.268-5.158
			l-14.937,4.256c-8.338-9.501-20.557-15.516-34.162-15.516c-13.604,0-25.823,6.015-34.161,15.516L170.206,0.96
			c-18.66-5.302-36.537,12.263-35.042,30.648c-19.067-7.516-41.02-12.202-49.559-1.48c-2.251,2.826-3.206,6.337-2.762,10.155
			c0.516,4.44,2.957,8.938,6.265,13.149c-6.98-1.191-13.62-1.835-19.523-1.871c-13.898-0.069-22.12,3.082-25.245,9.673
			c-1.549,3.267-1.509,7.035,0.113,10.612c2.378,5.244,9.887,12.163,24.061,18.652c-0.404,0.097-0.81,0.195-1.216,0.294
			c-14.715,3.602-28.262,8.541-38.146,13.907c-12.975,7.044-18.617,14.443-16.77,21.989c1.847,7.546,10.269,11.502,25.031,11.757
			c11.25,0.199,25.541-1.683,40.256-5.285c0.403-0.099,0.806-0.198,1.208-0.299c-9.563,12.292-13.031,21.903-12.718,27.655
			c0.213,3.921,1.918,7.283,4.802,9.465c5.817,4.402,14.602,3.393,26.858-3.083c5.218-2.757,10.81-6.396,16.452-10.677
			c-0.988,5.263-1.076,10.38,0.517,14.557c1.37,3.591,3.839,6.264,7.141,7.73c5.57,2.474,12.272,0.594,17.36-2.017
			c-24.84,56.724-41.681,131.634-46.684,215.292c-13.873,2.697-24.381,14.934-24.381,29.584c0,16.621,13.522,30.143,30.143,30.143
			h15.716c9.697,0,9.697-15,0-15H98.367c-8.35,0-15.143-6.793-15.143-15.144c0-8.35,6.793-15.143,15.143-15.143h315.447
			c8.35,0,15.143,6.793,15.143,15.143s-6.793,15.143-15.143,15.143H153.985c-9.697,0-9.697,15,0,15h31.037
			c5.434,34.543,35.382,60.67,71.069,60.67c35.666,0,65.609-25.84,71.067-60.67h86.656c16.621,0,30.143-13.522,30.143-30.144
			c0-14.65-10.508-26.886-24.381-29.584c-4.562-76.344-18.923-146.574-41.589-203.253c-1.637-4.094-3.312-8.083-5.016-11.987
			c5.069,2.583,11.743,4.424,17.28,1.965c3.302-1.467,5.771-4.14,7.141-7.73c1.593-4.176,1.505-9.293,0.517-14.557
			c5.642,4.281,11.232,7.919,16.452,10.677c12.255,6.476,21.041,7.484,26.858,3.083c2.883-2.182,4.588-5.543,4.801-9.465
			c0.313-5.75-3.151-15.354-12.725-27.657c0.403,0.101,0.809,0.202,1.214,0.301c14.715,3.603,29.007,5.473,40.256,5.286
			c14.762-0.255,23.183-4.21,25.03-11.757C501.644,119.142,496.002,111.743,483.028,104.699z M256.091,497.181
			c-27.434,0-50.577-19.504-55.827-45.67h111.66C306.666,477.882,283.517,497.181,256.091,497.181z M256.091,15.181
			c16.795,0,30.459,13.664,30.459,30.46v12.484c0,16.796-13.664,30.46-30.459,30.46h-0.001c-16.795,0-30.459-13.664-30.459-30.46
			V45.641C225.631,28.845,239.295,15.181,256.091,15.181z M152.118,21.88c2.998-5.027,8.512-7.527,14.263-6.414l47.426,13.512
			c-2.042,5.163-3.176,10.781-3.176,16.661v12.484c0,5.881,1.135,11.498,3.177,16.661l-47.426,13.512
			c-12.325,2.379-20.993-12.458-13.401-22.348l7.294-9.501c2.068-2.693,2.068-6.44,0-9.134l-7.294-9.501
			C148.679,32.212,149.715,25.91,152.118,21.88z M158.439,139.024c-13.816,17.417-25.655,24.968-29.831,25.655
			c-0.354-2.315,0.118-8.703,5.35-20.303c4.682-10.379-8.096-16.659-15.846-11.071c-16.077,15.178-30.432,22.822-36.585,24.151
			c1.691-5.308,8.879-17.084,23.588-30.971c6.864-6.478-0.403-18.037-9.217-14.644c-6.695,2.577-14.027,4.847-21.792,6.749
			c-22.601,5.533-38.577,5.485-45.143,4.04c5.155-4.314,19.302-11.736,41.904-17.269c7.763-1.9,15.315-3.273,22.446-4.081
			c9.465-1.072,10.427-14.688,1.335-17.267C75.251,78.51,63.446,71.388,59.495,67.462c6.072-1.665,22.335-1.514,43.607,4.522
			c9.382,1.64,17.856-10.119,8.938-17.139c-10.026-7.893-13.386-13.349-14.129-15.555c4.981-1.789,23.321,0.966,46.647,12.999
			l-3.476,4.528c-7.309,9.521-8.034,22.376-1.847,32.751c6.085,10.203,19.207,16.58,30.971,13.238l20.75-5.912
			c-11.6,11.234-22.493,25.406-32.508,42.121C158.445,139.018,158.441,139.021,158.439,139.024z M404.515,391.225H107.666
			c4.593-74.716,18.702-143.172,40.887-198.199c20.589-51.07,47.309-87.166,75.693-102.5c8.208,8.069,19.453,13.058,31.845,13.058
			s23.637-4.99,31.845-13.058c28.579,15.43,55.489,51.974,76.124,103.574C385.993,248.948,399.954,317.032,404.515,391.225z
			 M438.077,118.59c-7.767-1.902-15.099-4.172-21.796-6.75c-8.89-3.417-16.03,8.212-9.158,14.699
			c14.661,13.841,21.841,25.61,23.532,30.917c-6.154-1.33-20.508-8.973-36.575-24.142c-7.561-5.808-20.527,0.708-15.857,11.061
			c5.216,11.563,5.701,17.948,5.354,20.281c-3.438-0.659-13.572-6.114-27.239-22.446c-12.388-14.798-20.755-31.553-34.944-45.269
			l20.582,5.864c25.872,7.371,44.645-25.772,29.125-45.989l-3.475-4.526c23.344-12.035,41.666-14.789,46.646-13
			c-0.744,2.205-4.103,7.661-14.128,15.553c-8.948,7.04-0.517,18.52,8.939,17.14c21.269-6.036,37.532-6.186,43.604-4.521
			c-3.95,3.926-15.749,11.045-35.11,16.54c-8.958,2.389-7.875,16.239,1.293,17.279c7.127,0.807,14.679,2.18,22.446,4.081
			c22.602,5.532,36.75,12.955,41.904,17.268C476.655,124.075,460.679,124.123,438.077,118.59z"/>
		<path d="M145.87,294.755c-4.062-0.81-8.012,1.828-8.821,5.89c-3.997,20.054-6.857,39.776-8.504,58.62
			c-0.82,9.388,14.083,11.143,14.943,1.306c1.599-18.3,4.381-37.475,8.271-56.994C152.569,299.514,149.932,295.564,145.87,294.755z"
			/>
		<path d="M162.454,234.224c-3.92-1.336-8.181,0.753-9.52,4.673c-0.17,0.497-4.216,12.399-9.125,31.819
			c-2.311,9.144,12.137,13.19,14.543,3.676c4.745-18.771,8.738-30.531,8.777-30.648
			C168.466,239.824,166.373,235.562,162.454,234.224z"/>
	</g>
</g>
<g>
</g>
<g>
</g>
<g>
</g>
<g>
</g>
<g>
</g>
<g>
</g>
<g>
</g>
<g>
</g>
<g>
</g>
<g>
</g>
<g>
</g>
<g>
</g>
<g>
</g>
<g>
</g>
<g>
</g>
</svg>
