<?xml version="1.0" encoding="iso-8859-1"?>
<!-- Generator: Adobe Illustrator 25.0.0, SVG Export Plug-In . SVG Version: 6.00 Build 0)  -->
<svg version="1.1" id="Layer_1" xmlns="http://www.w3.org/2000/svg" xmlns:xlink="http://www.w3.org/1999/xlink" x="0px" y="0px"
	 viewBox="0 0 512 512" style="enable-background:new 0 0 512 512;" xml:space="preserve">
<g>
	<g>
		<g>
			<g>
				<rect x="195.999" y="155.557" style="fill:#EBF7FF;" width="119.957" height="348.943"/>
				<polygon style="fill:#B5C8FF;" points="315.957,155.557 346.187,192.298 346.187,503.802 315.957,503.802 				"/>
				<polygon style="fill:#B5C8FF;" points="196.043,155.557 165.813,192.298 165.813,503.802 196.043,503.802 				"/>
			</g>
			<g>
				<rect x="228.798" y="339.661" style="fill:#41CCB4;" width="54.404" height="69.728"/>
				<rect x="228.798" y="409.388" style="fill:#6B8DF2;" width="54.404" height="69.728"/>
				<rect x="228.798" y="269.422" style="fill:#F2A7D0;" width="54.404" height="70.239"/>
				<rect x="228.798" y="128.405" style="fill:#6B8DF2;" width="54.404" height="71.304"/>
				<rect x="228.798" y="199.183" style="fill:#FFCA21;" width="54.404" height="70.239"/>
			</g>
			<ellipse style="fill:#FFCA21;" cx="256" cy="61.145" rx="18.469" ry="18.536"/>
			<g>
				<rect x="414.803" y="155.557" style="fill:#EBF7FF;" width="89.697" height="348.943"/>
				<rect x="464.5" y="155.557" style="fill:#D9EDFA;" width="40" height="348.943"/>
				<rect x="399.906" y="343.152" style="fill:#F2A7D0;" width="104.594" height="111.216"/>
				<rect x="464.5" y="343.153" style="fill:#F294C7;" width="40" height="111.216"/>
			</g>
			<g>
				<g>
					<rect x="7.5" y="155.557" style="fill:#EBF7FF;" width="89.697" height="348.943"/>
				</g>
				<rect x="62.797" y="343.152" style="fill:#6B8DF2;" width="49.297" height="111.216"/>
				<polyline style="fill:#FFCA21;" points="7.5,454.368 33.649,454.368 33.649,343.152 7.5,343.152 				"/>
			</g>
		</g>
	</g>
	<g>
		<path d="M293.5,61.145c0,4.142,3.357,7.5,7.5,7.5h12c9.697,0,9.697-15,0-15h-12C296.857,53.645,293.5,57.003,293.5,61.145z"/>
		<path d="M287.819,36.709c1.924,0,3.848-0.736,5.313-2.207c2.265-1.685,6.563-6.519,8.485-8.517
			c6.882-7.153-3.452-18.653-10.627-10.587l-8.485,8.517C278.066,28.373,281.531,36.709,287.819,36.709z"/>
		<path d="M218.867,34.503c6.847,6.872,17.469-3.72,10.626-10.587l-8.485-8.517c-6.845-6.869-17.471,3.718-10.626,10.587
			L218.867,34.503z"/>
		<path d="M199,68.645h12c9.697,0,9.697-15,0-15h-12C189.303,53.645,189.303,68.645,199,68.645z"/>
		<path d="M218.867,87.528l-8.485,8.516c-6.843,6.868,3.779,17.459,10.626,10.587l8.485-8.516
			C236.338,91.245,225.711,80.657,218.867,87.528z"/>
		<path d="M282.525,87.509c-2.934,2.924-2.942,7.672-0.019,10.606l8.485,8.516c6.846,6.874,17.468-3.72,10.625-10.587l-8.485-8.516
			C290.208,84.593,285.459,84.585,282.525,87.509z"/>
		<path d="M504.533,335.653c-27.111-0.12-54.88-0.145-82.23-0.151V163.057H504.5c4.143,0,7.5-3.358,7.5-7.5s-3.357-7.5-7.5-7.5
			h-89.697c-4.143,0-7.5,3.358-7.5,7.5V335.5c-2.436,0-4.878,0-7.303,0c-4.129,0-7.481,3.337-7.5,7.466l-0.094,20.715
			c-0.042,9.414,14.956,9.956,15,0.068l0.06-13.249c32.319,0,64.693,0.152,97.035,0.152c4.126,0,7.48-3.336,7.499-7.467
			C512.019,339.044,508.675,335.671,504.533,335.653z"/>
		<path d="M504.42,461.868c0.027,0,0.055,0,0.082,0c4.104,0,7.454-3.305,7.498-7.42c0.044-4.142-3.278-7.536-7.42-7.58
			c-32.044-0.342-65.004-0.367-97.096-0.369l-0.078-37.325c-0.02-9.415-15.021-9.855-15,0.031l0.094,44.809
			c0.009,4.136,3.364,7.484,7.5,7.484c2.425,0,4.867,0,7.303,0V497h-53.615V192.298c0-1.738-0.604-3.423-1.708-4.765l-30.23-36.741
			c-1.731-2.104-4.437-3.069-7.059-2.618c-8.039-1.078-15.949,0.852-23.988,0.172v-19.941c0-4.142-3.357-7.5-7.5-7.5H263.5V86.07
			c10.673-3.235,18.469-13.182,18.469-24.925s-7.795-21.69-18.469-24.925V7.5c0-4.142-3.357-7.5-7.5-7.5c-4.142,0-7.5,3.358-7.5,7.5
			v28.72c-10.673,3.235-18.469,13.182-18.469,24.925s7.795,21.69,18.469,24.925v34.835h-19.702c-4.142,0-7.5,3.358-7.5,7.5v19.743
			c-7.794,0.162-15.596-0.414-23.384,0.153c-2.734-0.703-5.75,0.167-7.662,2.491l-30.23,36.741
			c-1.104,1.342-1.708,3.027-1.708,4.765V497h-53.616v-35.132h7.397c4.142,0,7.5-3.358,7.5-7.5V343.153c0-4.142-3.358-7.5-7.5-7.5
			h-7.397V155.557c0-4.142-3.358-7.5-7.5-7.5H7.5c-4.142,0-7.5,3.358-7.5,7.5s3.358,7.5,7.5,7.5h82.197v172.595h-26.9
			c-4.142,0-7.5,3.358-7.5,7.5v111.216c0,4.142,3.358,7.5,7.5,7.5h26.9V497H7.5c-4.142,0-7.5,3.358-7.5,7.5s3.358,7.5,7.5,7.5h497
			c4.143,0,7.5-3.358,7.5-7.5s-3.357-7.5-7.5-7.5h-82.197v-35.496C449.624,461.518,477.359,461.579,504.42,461.868z M245.031,61.145
			c0-6.085,4.92-11.036,10.969-11.036c6.048,0,10.969,4.951,10.969,11.036S262.048,72.181,256,72.181
			C249.952,72.181,245.031,67.23,245.031,61.145z M70.297,350.653h34.297v96.216H70.297V350.653z M338.688,497H323.5V176.529
			l15.188,18.458V497z M275.702,332.161h-39.404v-55.239h39.404V332.161z M236.298,347.161h39.404v54.728h-39.404V347.161z
			 M275.702,261.922h-39.404v-54.713h39.404V261.922z M236.298,416.888h39.404v54.728h-39.404V416.888z M275.702,135.905v55.778
			h-39.404v-55.778H275.702z M173.313,194.987L188.5,176.53l0,40.801c0,9.697,15,9.697,15,0l0-53.945c5.933,0,11.865,0,17.798,0
			v315.73c0,4.142,3.358,7.5,7.5,7.5h54.404c4.143,0,7.5-3.358,7.5-7.5v-315.73c5.892,0.33,11.859,0.017,17.755,0V497H203.5
			l0-234.303c0-9.697-15-9.697-15,0l0,234.303h-15.187V194.987z"/>
		<path d="M7.5,446.868c-4.142,0-7.5,3.358-7.5,7.5s3.358,7.5,7.5,7.5h26.148c4.142,0,7.5-3.358,7.5-7.5V343.153
			c0-4.142-3.358-7.5-7.5-7.5H7.5c-4.142,0-7.5,3.358-7.5,7.5s3.358,7.5,7.5,7.5h18.648v96.216H7.5z"/>
		<path d="M33,193.709h29.797c4.142,0,7.5-3.358,7.5-7.5s-3.358-7.5-7.5-7.5H33c-4.142,0-7.5,3.358-7.5,7.5
			S28.858,193.709,33,193.709z"/>
		<path d="M33,224.844h29.797c4.142,0,7.5-3.358,7.5-7.5s-3.358-7.5-7.5-7.5H33c-4.142,0-7.5,3.358-7.5,7.5
			S28.858,224.844,33,224.844z"/>
		<path d="M33,255.979h29.797c4.142,0,7.5-3.358,7.5-7.5s-3.358-7.5-7.5-7.5H33c-4.142,0-7.5,3.358-7.5,7.5
			S28.858,255.979,33,255.979z"/>
		<path d="M33,287.113h29.797c4.142,0,7.5-3.358,7.5-7.5s-3.358-7.5-7.5-7.5H33c-4.142,0-7.5,3.358-7.5,7.5
			S28.858,287.113,33,287.113z"/>
		<path d="M33,318.248h29.797c4.142,0,7.5-3.358,7.5-7.5s-3.358-7.5-7.5-7.5H33c-4.142,0-7.5,3.358-7.5,7.5
			S28.858,318.248,33,318.248z"/>
		<path d="M504.5,181.818h-52.297c-4.143,0-7.5,3.358-7.5,7.5s3.357,7.5,7.5,7.5H504.5c4.143,0,7.5-3.358,7.5-7.5
			S508.643,181.818,504.5,181.818z"/>
		<path d="M504.5,212.176h-52.297c-4.143,0-7.5,3.358-7.5,7.5s3.357,7.5,7.5,7.5H504.5c4.143,0,7.5-3.358,7.5-7.5
			S508.643,212.176,504.5,212.176z"/>
		<path d="M504.5,242.533h-52.297c-4.143,0-7.5,3.358-7.5,7.5s3.357,7.5,7.5,7.5H504.5c4.143,0,7.5-3.358,7.5-7.5
			S508.643,242.533,504.5,242.533z"/>
		<path d="M504.5,272.891h-52.297c-4.143,0-7.5,3.358-7.5,7.5s3.357,7.5,7.5,7.5H504.5c4.143,0,7.5-3.358,7.5-7.5
			S508.643,272.891,504.5,272.891z"/>
		<path d="M504.5,303.248h-52.297c-4.143,0-7.5,3.358-7.5,7.5s3.357,7.5,7.5,7.5H504.5c4.143,0,7.5-3.358,7.5-7.5
			S508.643,303.248,504.5,303.248z"/>
		<path d="M52.886,39.983c4.142,0,7.5-3.358,7.5-7.5V17.5c0-9.697-15-9.697-15,0v14.982C45.386,36.625,48.744,39.983,52.886,39.983z
			"/>
		<path d="M52.886,100.482c4.142,0,7.5-3.358,7.5-7.5V77.857c0-9.697-15-9.697-15,0v15.125
			C45.386,97.124,48.744,100.482,52.886,100.482z"/>
		<path d="M19.992,81.613c1.266,0,2.548-0.321,3.725-0.996l12.484-7.16c8.412-4.825,0.95-17.834-7.463-13.012l-12.484,7.16
			C10.231,71.06,12.256,81.613,19.992,81.613z"/>
		<path d="M73.311,51.032c1.266,0,2.548-0.321,3.725-0.996l12.484-7.16c8.412-4.825,0.949-17.836-7.463-13.012l-12.484,7.16
			C63.55,40.48,65.575,51.032,73.311,51.032z"/>
		<path d="M69.573,73.457l12.484,7.16c8.045,4.613,16.102-8.056,7.463-13.012l-12.484-7.16
			C68.624,55.621,61.161,68.632,69.573,73.457z"/>
		<path d="M16.253,42.877l12.484,7.16c8.045,4.613,16.102-8.056,7.463-13.012l-12.484-7.16
			C15.304,25.041,7.842,38.052,16.253,42.877z"/>
		<path d="M146.038,94.276c4.142,0,7.5-3.358,7.5-7.5V71.794c0-9.697-15-9.697-15,0v14.982
			C138.538,90.918,141.896,94.276,146.038,94.276z"/>
		<path d="M146.038,154.775c4.142,0,7.5-3.358,7.5-7.5V132.15c0-9.697-15-9.697-15,0v15.125
			C138.538,151.417,141.896,154.775,146.038,154.775z"/>
		<path d="M113.143,135.906c1.266,0,2.548-0.321,3.725-0.996l12.484-7.16c8.412-4.825,0.949-17.836-7.463-13.012l-12.484,7.16
			C103.382,125.354,105.408,135.906,113.143,135.906z"/>
		<path d="M166.462,105.325c1.266,0,2.548-0.321,3.725-0.996l12.484-7.16c8.412-4.825,0.949-17.836-7.463-13.012l-12.484,7.16
			C156.702,94.772,158.727,105.325,166.462,105.325z"/>
		<path d="M162.724,127.751l12.484,7.16c8.045,4.613,16.102-8.056,7.463-13.012l-12.484-7.16
			C161.774,109.916,154.312,122.926,162.724,127.751z"/>
		<path d="M109.405,97.17l12.484,7.16c8.045,4.613,16.102-8.056,7.463-13.012l-12.484-7.16
			C108.455,79.335,100.993,92.345,109.405,97.17z"/>
		<path d="M459.113,39.983c4.143,0,7.5-3.358,7.5-7.5V17.5c0-9.697-15-9.697-15,0v14.982
			C451.613,36.625,454.971,39.983,459.113,39.983z"/>
		<path d="M459.113,100.482c4.143,0,7.5-3.358,7.5-7.5V77.857c0-9.697-15-9.697-15,0v15.125
			C451.613,97.124,454.971,100.482,459.113,100.482z"/>
		<path d="M475.8,73.457l12.484,7.16c8.045,4.613,16.102-8.057,7.463-13.012l-12.484-7.16
			C474.85,55.622,467.388,68.633,475.8,73.457z"/>
		<path d="M422.48,42.877l12.484,7.16c8.045,4.613,16.102-8.057,7.463-13.012l-12.484-7.16
			C421.531,25.04,414.069,38.052,422.48,42.877z"/>
		<path d="M426.219,81.613c1.266,0,2.548-0.321,3.725-0.996l12.484-7.16c8.412-4.824,0.951-17.833-7.463-13.012l-12.484,7.16
			C416.458,71.06,418.484,81.613,426.219,81.613z"/>
		<path d="M479.538,51.032c1.266,0,2.548-0.321,3.725-0.996l12.484-7.16c8.412-4.824,0.951-17.834-7.463-13.012l-12.484,7.16
			C469.777,40.479,471.803,51.032,479.538,51.032z"/>
		<path d="M365.962,94.276c4.143,0,7.5-3.358,7.5-7.5V71.794c0-9.697-15-9.697-15,0v14.982
			C358.462,90.918,361.819,94.276,365.962,94.276z"/>
		<path d="M365.962,154.775c4.143,0,7.5-3.358,7.5-7.5V132.15c0-9.697-15-9.697-15,0v15.125
			C358.462,151.417,361.819,154.775,365.962,154.775z"/>
		<path d="M382.648,127.751l12.483,7.16c8.045,4.613,16.101-8.056,7.463-13.012l-12.483-7.16
			C381.7,109.914,374.237,122.926,382.648,127.751z"/>
		<path d="M329.329,97.17l12.484,7.16c8.045,4.613,16.102-8.057,7.463-13.012l-12.484-7.16
			C328.38,79.333,320.917,92.345,329.329,97.17z"/>
		<path d="M333.067,135.906c1.266,0,2.548-0.321,3.725-0.996l12.484-7.16c8.412-4.824,0.95-17.835-7.463-13.012l-12.484,7.16
			C323.306,125.353,325.333,135.906,333.067,135.906z"/>
		<path d="M386.387,105.325c1.266,0,2.549-0.321,3.725-0.996l12.483-7.16c8.411-4.825,0.948-17.838-7.463-13.012l-12.483,7.16
			C376.626,94.773,378.651,105.325,386.387,105.325z"/>
	</g>
</g>
<g>
</g>
<g>
</g>
<g>
</g>
<g>
</g>
<g>
</g>
<g>
</g>
<g>
</g>
<g>
</g>
<g>
</g>
<g>
</g>
<g>
</g>
<g>
</g>
<g>
</g>
<g>
</g>
<g>
</g>
</svg>
