<?xml version="1.0" encoding="iso-8859-1"?>
<!-- Generator: Adobe Illustrator 25.0.0, SVG Export Plug-In . SVG Version: 6.00 Build 0)  -->
<svg version="1.1" id="Layer_1" xmlns="http://www.w3.org/2000/svg" xmlns:xlink="http://www.w3.org/1999/xlink" x="0px" y="0px"
	 viewBox="0 0 511.148 511.148" style="enable-background:new 0 0 511.148 511.148;" xml:space="preserve">
<g>
	<g>
		<polygon style="fill:#F2A7D0;" points="467.978,258.024 255.574,442.332 43.17,258.024 255.574,105.392 		"/>
		<rect x="93.408" y="7.5" style="fill:#EBF7FF;" width="324.332" height="436.752"/>
		<rect x="377.74" y="7.5" style="fill:#D9EDFA;" width="40" height="436.752"/>
		
			<rect x="67.198" y="93.71" transform="matrix(-1.836970e-16 1 -1 -1.836970e-16 481.4498 -29.6981)" style="fill:#FFCA21;" width="376.752" height="264.332"/>
		<g>
			<polygon style="fill:#EB67A5;" points="255.574,381.016 149.372,442.332 43.17,503.648 43.17,381.016 43.17,258.385 
				149.372,319.701 			"/>
			<polygon style="fill:#EB67A5;" points="255.574,381.016 361.776,319.701 467.978,258.385 467.978,381.016 467.978,503.648 
				361.776,442.332 			"/>
		</g>
		<path style="fill:#F2A7D0;" d="M467.978,503.648H43.17l200.245-153.322c7.175-5.494,17.142-5.494,24.317,0L467.978,503.648z"/>
		<path style="fill:#F294C7;" d="M267.733,350.326c-7.175-5.494-17.142-5.494-24.317,0l-7.841,6.004l192.404,147.318h40
			L267.733,350.326z"/>
	</g>
	<g>
		<path d="M475.478,258.385c0-0.031-0.006-0.061-0.006-0.091c0.085-2.422-1.001-4.84-3.117-6.36l-47.115-33.856V7.5
			c0-4.142-3.357-7.5-7.5-7.5H93.408c-4.143,0-7.5,3.358-7.5,7.5v66.441c0,9.697,15,9.697,15,0V15H410.24v268.06l-15,8.66V37.5
			c0-4.142-3.357-7.5-7.5-7.5H123.408c-4.143,0-7.5,3.358-7.5,7.5v254.22l-15-8.66V112.933c0-9.697-15-9.697-15,0v105.145
			l-47.115,33.856c-2.115,1.521-3.202,3.938-3.117,6.36c0,0.031-0.006,0.061-0.006,0.091v245.263c0,4.064,3.429,7.5,7.5,7.5h424.809
			c4.078,0,7.5-3.429,7.5-7.5V258.385z M425.24,236.549l29.207,20.988l-29.207,16.863V236.549z M130.908,45H380.24v255.38
			l-94.297,54.443l-13.651-10.452c-9.844-7.537-23.594-7.536-33.436,0l-13.651,10.452l-94.297-54.443V45z M50.67,271.375
			l161.639,93.322L50.67,488.459V271.375z M85.908,274.399l-29.207-16.863l29.207-20.988V274.399z M65.302,496.148l182.674-139.867
			c4.475-3.426,10.723-3.426,15.197,0l94.81,72.592c3.29,2.519,7.998,1.893,10.515-1.396c2.518-3.289,1.894-7.997-1.396-10.515
			l-68.262-52.266l161.639-93.322v217.084l-61.709-47.249c-3.288-2.518-7.996-1.893-10.515,1.396
			c-2.518,3.289-1.894,7.997,1.396,10.515l56.196,43.027H65.302z"/>
		<path d="M215.479,207.9c3.496-1.092,5.756-4.334,5.756-8.333l-0.466-48.146c-0.092-9.421-15.096-9.736-15,0.146l0.254,26.213
			l-21.03-30.455c-4.091-5.923-13.672-2.937-13.672,4.262v49.732c0,9.697,15,9.697,15,0v-25.673l19.956,28.897
			C208.429,207.657,212.045,208.973,215.479,207.9z"/>
		<path d="M260.177,159.449c9.697,0,9.697-15,0-15h-20.802c-4.143,0-7.5,3.358-7.5,7.5v49.37c0,4.142,3.357,7.5,7.5,7.5h20.802
			c9.697,0,9.697-15,0-15h-13.302v-9.685h11.769c9.697,0,9.697-15,0-15h-11.769v-9.685H260.177z"/>
		<path d="M296.089,174.205l-4.78-24.166c-1.881-9.514-16.597-6.602-14.715,2.91l9.707,49.077c1.73,8.734,14.012,8.895,16.647,0.748
			l7.99-25.813l7.954,25.818c2.553,8.258,14.94,7.871,16.647-0.759l9.746-48.971c1.893-9.511-12.818-12.438-14.711-2.928
			l-4.792,24.076l-7.674-24.911c-2.043-6.631-12.74-6.973-14.472,0.53L296.089,174.205z"/>
		<path d="M288.755,230.88c-0.025-0.068-0.052-0.136-0.08-0.204c-1.336-3.25-4.468-5.348-7.98-5.348c-0.002,0-0.004,0-0.006,0
			c-3.516,0.002-6.647,2.105-7.98,5.359c-0.023,0.058-0.046,0.115-0.068,0.173l-18.709,49.123c-1.475,3.871,0.469,8.204,4.34,9.678
			c0.878,0.335,1.78,0.493,2.668,0.493c3.021,0,5.87-1.84,7.01-4.833l2.82-7.404h19.707l2.786,7.382
			c1.462,3.875,5.791,5.832,9.665,4.369c3.875-1.462,5.831-5.79,4.368-9.665L288.755,230.88z M276.48,262.919l4.185-10.989
			l4.147,10.989H276.48z"/>
		<path d="M236.434,289.926c4.143,0,7.5-3.358,7.5-7.5s-3.357-7.5-7.5-7.5h-13.303v-9.685h11.77c4.143,0,7.5-3.358,7.5-7.5
			s-3.357-7.5-7.5-7.5h-11.77v-9.685h13.303c4.143,0,7.5-3.358,7.5-7.5s-3.357-7.5-7.5-7.5h-20.803c-4.143,0-7.5,3.358-7.5,7.5
			v49.37c0,4.142,3.357,7.5,7.5,7.5H236.434z"/>
		<path d="M195.219,227.208c-3.472-2.259-8.117-1.278-10.377,2.194l-9.509,14.607l-9.625-14.742
			c-2.267-3.468-6.915-4.444-10.381-2.179c-3.468,2.265-4.444,6.912-2.18,10.38l14.69,22.497l-0.057,23.208
			c-0.01,4.142,3.34,7.508,7.481,7.519c0.007,0,0.013,0,0.019,0c4.134,0,7.49-3.346,7.5-7.481l0.057-23.236l14.575-22.39
			C199.672,234.114,198.69,229.468,195.219,227.208z"/>
		<path d="M324.799,225.329c-0.003,0-0.006,0-0.008,0c-0.003,0-0.005,0-0.008,0c-4.143,0-7.5,3.358-7.5,7.5v49.825
			c0,4.142,3.357,7.5,7.5,7.5s7.5-3.358,7.5-7.5V271.92l13.809,15.689c6.499,7.385,17.606-2.699,11.26-9.91l-11.409-12.963
			c7.774-3.031,13.279-10.38,13.279-18.958c0-11.275-9.502-20.449-21.182-20.449H324.799z M344.22,245.778
			c0,2.954-2.831,5.449-6.182,5.449c-1.361,0-3.515,0.008-5.689,0.018c-0.01-2.1-0.018-4.163-0.018-5.466
			c0-1.119-0.005-3.241-0.011-5.449h5.718C341.389,240.329,344.22,242.824,344.22,245.778z"/>
		<path d="M264.508,97.299c3.791,1.978,7.209,1.075,10.254-2.711l8.717-14.984c4.876-8.382-8.09-15.926-12.965-7.543l-8.717,14.984
			C259.714,90.625,260.927,95.216,264.508,97.299z"/>
		<path d="M213.18,120.137l16.989,0.007c9.429,0,9.435-14.996,0.006-15l-16.989-0.007
			C203.757,105.137,203.752,120.133,213.18,120.137z"/>
		<path d="M282.52,105.167c-9.695,0-9.699,14.997-0.003,15l15.444,0.006c9.429,0,9.435-14.996,0.006-15l-15.444-0.006
			C282.522,105.167,282.521,105.167,282.52,105.167z"/>
		<path d="M236.491,94.289c5.111,8.978,17.624,0.639,13.037-7.42l-8.404-14.765c-4.799-8.427-17.834-1.007-13.037,7.42
			L236.491,94.289z"/>
		<path d="M255.574,120.167c9.652,0,9.668-15,0-15C245.922,105.167,245.906,120.167,255.574,120.167z"/>
	</g>
</g>
<g>
</g>
<g>
</g>
<g>
</g>
<g>
</g>
<g>
</g>
<g>
</g>
<g>
</g>
<g>
</g>
<g>
</g>
<g>
</g>
<g>
</g>
<g>
</g>
<g>
</g>
<g>
</g>
<g>
</g>
</svg>
