<?xml version="1.0" encoding="iso-8859-1"?>
<!-- Generator: Adobe Illustrator 25.0.0, SVG Export Plug-In . SVG Version: 6.00 Build 0)  -->
<svg version="1.1" id="Layer_1" xmlns="http://www.w3.org/2000/svg" xmlns:xlink="http://www.w3.org/1999/xlink" x="0px" y="0px"
	 viewBox="0 0 512 512" style="enable-background:new 0 0 512 512;" xml:space="preserve">
<g>
	<g>
		<polygon style="fill:#FFCA21;" points="82.516,184.121 96.771,216.45 131.896,212.631 111.026,241.14 131.896,269.65 
			96.771,265.83 82.516,298.16 68.261,265.83 33.136,269.65 54.007,241.14 33.136,212.631 68.261,216.45 		"/>
		<polygon style="fill:#FFCA21;" points="197.963,390.461 212.218,422.791 247.343,418.971 226.473,447.481 247.343,475.99 
			212.218,472.171 197.963,504.5 183.708,472.171 148.583,475.99 169.453,447.481 148.583,418.971 183.708,422.791 		"/>
		<polygon style="fill:#FFCA21;" points="314.037,229.173 328.292,261.503 363.418,257.683 342.547,286.193 363.418,314.702 
			328.292,310.883 314.037,343.212 299.783,310.883 264.657,314.702 285.528,286.193 264.657,257.683 299.783,261.503 		"/>
		<polygon style="fill:#FFCA21;" points="429.037,346.206 443.292,378.535 478.418,374.716 457.547,403.225 478.418,431.735 
			443.292,427.915 429.037,460.245 414.783,427.915 379.657,431.735 400.528,403.225 379.657,374.716 414.783,378.535 		"/>
		<circle style="fill:#6B8DF2;" cx="82.516" cy="132.15" r="20.939"/>
		<g>
			<circle style="fill:#41CCB4;" cx="197.963" cy="332.687" r="20.939"/>
			<circle style="fill:#F2A7D0;" cx="197.963" cy="253.123" r="20.939"/>
			<circle style="fill:#6B8DF2;" cx="314.037" cy="173.559" r="20.939"/>
			<circle style="fill:#41CCB4;" cx="197.963" cy="173.559" r="20.939"/>
			<g>
				<circle style="fill:#41CCB4;" cx="429.484" cy="291.278" r="20.939"/>
				<circle style="fill:#F2A7D0;" cx="429.484" cy="211.714" r="20.939"/>
				<circle style="fill:#41CCB4;" cx="429.484" cy="132.15" r="20.939"/>
			</g>
		</g>
		<g>
			<polygon style="fill:#F2BB0C;" points="478.418,374.716 443.292,378.535 429.038,346.206 429.038,460.245 443.292,427.915 
				478.418,431.735 457.547,403.225 			"/>
		</g>
		<g>
			<polygon style="fill:#F2BB0C;" points="362.795,257.683 327.669,261.503 313.415,229.173 313.415,343.212 327.669,310.883 
				362.795,314.703 341.924,286.193 			"/>
		</g>
		<g>
			<polygon style="fill:#F2BB0C;" points="247.343,418.971 212.218,422.791 197.963,390.461 197.963,504.5 212.218,472.171 
				247.343,475.991 226.473,447.481 			"/>
		</g>
		<g>
			<polygon style="fill:#F2BB0C;" points="131.896,212.631 96.771,216.45 82.516,184.121 82.516,298.16 96.771,265.83 
				131.896,269.65 111.026,241.14 			"/>
		</g>
	</g>
	<path d="M509.72,2.115c-2.976-2.884-7.724-2.808-10.605,0.166C434.11,69.349,347.77,106.285,256,106.285S77.891,69.349,12.886,2.28
		C10.002-0.693,5.256-0.769,2.28,2.115C-0.694,4.998-0.768,9.746,2.114,12.72c22.048,22.748,46.455,42.173,72.901,58.116v34.3
		c-2.563,1.555-4.049,4.566-3.503,7.698c1.059,6.069,6.497,5.878,11.003,5.878c7.41,0,13.439,6.029,13.439,13.439
		s-6.029,13.439-13.439,13.439c-6.411,0-11.955-4.561-13.181-10.846c-0.794-4.065-4.722-6.717-8.798-5.925
		c-4.065,0.793-6.718,4.732-5.925,8.798c2.103,10.777,10.197,19.157,20.403,21.959v22.966l-11.402,25.859l-29.667-3.226
		c-2.945-0.325-5.82,1.132-7.306,3.706c-1.486,2.574-1.312,5.782,0.443,8.18l17.628,24.08l-17.628,24.08
		c-1.756,2.398-1.93,5.606-0.443,8.18c1.487,2.574,4.355,4.029,7.306,3.706l29.667-3.226l12.04,27.305
		c1.199,2.719,3.891,4.474,6.862,4.474s5.663-1.755,6.862-4.474l12.04-27.305l29.668,3.226c2.945,0.324,5.82-1.132,7.306-3.706
		c1.486-2.574,1.312-5.782-0.443-8.18l-17.628-24.08l17.628-24.08c1.756-2.398,1.93-5.606,0.443-8.18
		c-1.484-2.574-4.353-4.03-7.306-3.706l-29.668,3.226l-11.402-25.859v-22.963c12.053-3.3,20.939-14.343,20.939-27.428
		s-8.886-24.128-20.939-27.428V79.389c10.028,5.393,20.319,10.322,30.875,14.742c22.58,9.456,45.835,16.44,69.572,20.967v31.033
		c-12.053,3.3-20.939,14.343-20.939,27.428s8.886,24.128,20.939,27.427v24.708c-12.053,3.3-20.939,14.343-20.939,27.428
		c0,13.085,8.886,24.128,20.939,27.428v24.708c-12.053,3.3-20.939,14.343-20.939,27.428s8.886,24.128,20.939,27.428v28.767
		l-11.402,25.859l-29.668-3.226c-2.944-0.324-5.82,1.133-7.306,3.706c-1.486,2.574-1.312,5.782,0.443,8.18l17.628,24.079
		l-17.628,24.08c-1.756,2.398-1.93,5.606-0.443,8.18c1.485,2.574,4.363,4.03,7.306,3.706l29.668-3.226l12.04,27.306
		c1.199,2.719,3.891,4.474,6.862,4.474s5.663-1.755,6.862-4.474l12.04-27.306l29.667,3.226c2.946,0.326,5.82-1.132,7.306-3.706
		c1.486-2.574,1.312-5.782-0.443-8.18l-17.627-24.08l17.627-24.079c1.756-2.398,1.93-5.606,0.443-8.18
		c-1.485-2.574-4.354-4.029-7.306-3.706l-29.667,3.226l-11.402-25.859v-28.767c12.052-3.3,20.938-14.343,20.938-27.428
		s-8.886-24.128-20.938-27.428v-24.708c12.052-3.3,20.938-14.343,20.938-27.428c0-13.085-8.886-24.128-20.938-27.428v-24.709
		c12.052-3.3,20.938-14.342,20.938-27.427s-8.886-24.128-20.938-27.428V117.63c16.65,2.423,33.514,3.655,50.537,3.655
		s33.887-1.232,50.537-3.655v28.502c-12.052,3.3-20.938,14.343-20.938,27.428s8.886,24.128,20.938,27.427v26.607l-11.402,25.859
		l-29.667-3.226c-2.946-0.326-5.82,1.132-7.306,3.706c-1.486,2.574-1.312,5.782,0.443,8.18l17.627,24.079l-17.627,24.08
		c-1.756,2.398-1.93,5.606-0.443,8.18c1.487,2.574,4.358,4.033,7.306,3.706l29.667-3.226l12.04,27.306
		c1.199,2.719,3.891,4.474,6.862,4.474s5.663-1.755,6.862-4.474l12.04-27.306l29.668,3.226c2.945,0.324,5.82-1.133,7.306-3.706
		c1.486-2.574,1.312-5.782-0.443-8.18l-17.628-24.08l17.628-24.079c1.756-2.398,1.93-5.606,0.443-8.18
		c-1.485-2.574-4.35-4.026-7.306-3.706l-29.668,3.226l-11.402-25.859v-26.607c12.053-3.3,20.939-14.342,20.939-27.427
		s-8.886-24.128-20.939-27.428v-31.033c23.737-4.527,46.992-11.511,69.572-20.967c10.556-4.42,20.847-9.349,30.875-14.742v25.333
		c-12.053,3.3-20.939,14.343-20.939,27.428s8.886,24.128,20.939,27.428v24.708c-12.053,3.3-20.939,14.343-20.939,27.428
		s8.886,24.128,20.939,27.428v24.708c-12.053,3.3-20.939,14.343-20.939,27.428s8.886,24.128,20.939,27.428v24.906l-11.85,26.874
		l-29.667-3.226c-2.943-0.325-5.82,1.132-7.306,3.706c-1.486,2.574-1.312,5.782,0.443,8.18l17.627,24.08l-17.627,24.08
		c-1.756,2.398-1.93,5.606-0.443,8.18c1.487,2.574,4.356,4.03,7.306,3.706l29.667-3.226l12.04,27.306
		c1.199,2.719,3.891,4.474,6.862,4.474s5.663-1.755,6.862-4.474l12.04-27.306l29.668,3.226c4.121,0.446,7.818-2.528,8.267-6.645
		c0.448-4.118-2.527-7.819-6.646-8.267l-35.126-3.82c-3.242-0.356-6.354,1.439-7.673,4.43l-7.393,16.766l-7.393-16.766
		c-1.318-2.991-4.424-4.787-7.673-4.43l-18.216,1.981l10.823-14.785c1.931-2.638,1.931-6.223,0-8.86l-10.823-14.785l18.216,1.981
		c3.25,0.354,6.354-1.439,7.673-4.43l7.393-16.766l7.393,16.766c1.318,2.991,4.425,4.787,7.673,4.43l18.216-1.981l-10.823,14.785
		c-2.446,3.342-1.721,8.035,1.621,10.482c3.342,2.445,8.035,1.722,10.482-1.622l20.871-28.51c1.756-2.398,1.93-5.606,0.443-8.18
		c-1.485-2.574-4.351-4.029-7.306-3.706l-29.668,3.226l-10.955-24.845v-26.935c12.052-3.3,20.938-14.343,20.938-27.428
		s-8.886-24.128-20.938-27.428v-24.709c12.052-3.3,20.938-14.343,20.938-27.428s-8.886-24.128-20.938-27.428v-24.708
		c12.052-3.3,20.938-14.343,20.938-27.428s-8.886-24.128-20.938-27.428V70.836c26.446-15.942,50.853-35.368,72.901-58.116
		C512.769,9.746,512.695,4.998,509.72,2.115z M97.581,223.906l18.216-1.98l-10.823,14.785c-1.931,2.638-1.931,6.223,0,8.86
		l10.823,14.785l-18.216-1.981c-3.248-0.356-6.354,1.439-7.673,4.43l-7.393,16.766l-7.393-16.766
		c-1.208-2.74-3.915-4.474-6.859-4.474c-0.27,0-0.541,0.014-0.813,0.044l-18.215,1.981l10.823-14.785
		c1.931-2.638,1.931-6.223,0-8.86l-10.823-14.785l18.215,1.98c3.256,0.355,6.354-1.439,7.673-4.43l7.393-16.766l7.393,16.766
		C91.228,222.467,94.332,224.26,97.581,223.906z M213.029,430.247l18.216-1.98l-10.823,14.784c-1.931,2.638-1.931,6.223,0,8.86
		l10.823,14.785l-18.216-1.98c-3.24-0.352-6.354,1.439-7.673,4.43l-7.393,16.766l-7.393-16.766c-1.208-2.74-3.915-4.475-6.859-4.475
		c-0.27,0-0.541,0.015-0.813,0.044l-18.216,1.98l10.823-14.785c1.931-2.638,1.931-6.223,0-8.86l-10.823-14.784l18.216,1.98
		c3.252,0.36,6.354-1.439,7.673-4.43l7.393-16.766l7.393,16.766C206.675,428.808,209.787,430.606,213.029,430.247z M211.402,332.687
		c0,7.41-6.028,13.439-13.438,13.439s-13.439-6.029-13.439-13.439s6.029-13.439,13.439-13.439S211.402,325.277,211.402,332.687z
		 M211.402,253.123c0,7.41-6.028,13.439-13.438,13.439s-13.439-6.029-13.439-13.439c0-7.41,6.029-13.439,13.439-13.439
		S211.402,245.713,211.402,253.123z M211.402,173.559c0,7.41-6.028,13.438-13.438,13.438s-13.439-6.028-13.439-13.438
		s6.029-13.439,13.439-13.439S211.402,166.149,211.402,173.559z M329.103,268.959l18.216-1.98l-10.823,14.784
		c-1.931,2.638-1.931,6.223,0,8.86l10.823,14.785l-18.216-1.98c-3.243-0.351-6.354,1.439-7.673,4.43l-7.393,16.766l-7.393-16.766
		c-1.208-2.74-3.915-4.475-6.859-4.475c-0.27,0-0.541,0.015-0.813,0.044l-18.216,1.98l10.823-14.785c1.931-2.638,1.931-6.223,0-8.86
		l-10.823-14.784l18.216,1.98c3.25,0.354,6.354-1.439,7.673-4.43l7.393-16.766l7.393,16.766
		C322.748,267.52,325.859,269.313,329.103,268.959z M327.477,173.559c0,7.41-6.029,13.438-13.439,13.438
		s-13.438-6.028-13.438-13.438s6.028-13.439,13.438-13.439S327.477,166.149,327.477,173.559z M442.923,291.278
		c0,7.41-6.028,13.439-13.438,13.439s-13.439-6.029-13.439-13.439s6.029-13.439,13.439-13.439S442.923,283.868,442.923,291.278z
		 M442.923,211.714c0,7.41-6.028,13.439-13.438,13.439s-13.439-6.029-13.439-13.439s6.029-13.439,13.439-13.439
		S442.923,204.304,442.923,211.714z M442.923,132.15c0,7.41-6.028,13.439-13.438,13.439s-13.439-6.029-13.439-13.439
		s6.029-13.439,13.439-13.439S442.923,124.74,442.923,132.15z"/>
</g>
<g>
</g>
<g>
</g>
<g>
</g>
<g>
</g>
<g>
</g>
<g>
</g>
<g>
</g>
<g>
</g>
<g>
</g>
<g>
</g>
<g>
</g>
<g>
</g>
<g>
</g>
<g>
</g>
<g>
</g>
</svg>
