<?xml version="1.0" encoding="iso-8859-1"?>
<!-- Generator: Adobe Illustrator 25.0.0, SVG Export Plug-In . SVG Version: 6.00 Build 0)  -->
<svg version="1.1" id="Layer_1" xmlns="http://www.w3.org/2000/svg" xmlns:xlink="http://www.w3.org/1999/xlink" x="0px" y="0px"
	 viewBox="0 0 512 512" style="enable-background:new 0 0 512 512;" xml:space="preserve">
<g>
	<g>
		<g>
			<path style="fill:#6B8DF2;" d="M219.711,111.361c-44.036,0-79.862,35.73-79.862,79.648v83.094
				c0,39.384,28.817,72.163,66.523,78.516c-5.069,2.648-9.783,5.897-11.846,7.954c-4.768,4.756-4.768,12.466,0,17.222
				c4.768,4.756,12.5,4.756,17.268,0c0.128-0.127,0.26-0.265,0.397-0.412c4.088-4.406,10.951-4.406,15.04,0
				c0.137,0.147,0.269,0.285,0.397,0.412c4.768,4.756,12.5,4.756,17.268,0c4.768-4.756,4.768-12.466,0-17.222
				c-2.063-2.057-6.777-5.307-11.846-7.954c37.706-6.353,66.523-39.132,66.523-78.516V191.01
				C299.574,147.091,263.747,111.361,219.711,111.361z M244.045,274.104c0,13.381-10.916,24.268-24.334,24.268
				c-13.417,0-24.333-10.887-24.333-24.268V191.01c0-13.381,10.916-24.268,24.333-24.268c13.418,0,24.334,10.887,24.334,24.268
				V274.104z"/>
			<g>
				<path style="fill:#527BF2;" d="M219.711,111.362c-5.128,0-10.138,0.503-15,1.429c36.888,7.023,64.863,39.415,64.863,78.219
					v83.094c0,38.802-27.978,71.173-64.863,78.198c0.554,0.105,1.103,0.224,1.661,0.318c-0.559,0.292-1.113,0.593-1.661,0.897
					c4.415,2.454,8.35,5.227,10.185,7.057c3.746,3.736,4.536,9.29,2.396,13.808c3.472-0.849,7.288,0.144,9.939,3.001
					c0.137,0.147,0.269,0.285,0.397,0.412c4.768,4.756,12.5,4.756,17.268,0c4.768-4.756,4.768-12.466,0-17.222
					c-2.063-2.057-6.777-5.307-11.845-7.954c37.706-6.353,66.523-39.132,66.523-78.516V191.01
					C299.574,147.091,263.747,111.362,219.711,111.362z"/>
			</g>
			<path style="fill:#FFCA21;" d="M134.347,190.279c-0.118,0-0.237,0.001-0.356,0.002c-12.863,0.161-26.337,0.284-38.78,0.352
				c8.981-12.179,20.246-27.755,34.195-47.632c12.123-17.275,20.036-33.725,23.513-48.887c0.189-0.822,0.327-1.651,0.434-2.487
				l0.891-6.951c0.132-1.031,0.217-2.071,0.223-3.11C154.685,40.764,121.466,7.5,80.604,7.5c-35.216,0-65.697,24.989-72.478,59.418
				c-2.955,15.006,6.847,29.56,21.893,32.508c1.807,0.354,3.606,0.524,5.381,0.524c13.001-0.001,24.613-9.155,27.214-22.359
				c1.679-8.524,9.244-14.711,17.99-14.711c9.649,0,17.581,7.472,18.285,16.919l-0.415,3.235
				c-1.522,5.737-5.305,15.021-14.561,28.211c-28.449,40.539-45.417,62.698-54.533,74.603c-4.037,5.271-6.703,8.753-8.624,11.543
				c-2.407,3.495-9.732,14.133-5.514,27.811c2.711,8.79,9.631,15.801,18.512,18.753c3.361,1.118,5.984,1.988,32.676,2.145
				c-3.583,2.139-6.65,4.369-8.205,5.919c-4.768,4.756-4.768,12.466,0,17.222c4.768,4.756,12.5,4.756,17.268,0
				c0.02-0.02,0.041-0.041,0.062-0.062c4.348-4.396,11.362-4.396,15.71,0c0.021,0.021,0.041,0.042,0.062,0.062
				c4.768,4.756,12.5,4.756,17.268,0c4.768-4.756,4.768-12.466,0-17.222c-1.575-1.571-4.703-3.839-8.347-6.003
				c9.84-0.077,21.227-0.195,34.442-0.361c15.333-0.192,27.606-12.744,27.413-28.036
				C161.91,202.448,149.518,190.279,134.347,190.279z"/>
			<g>
				<path style="fill:#F2BB0C;" d="M124.467,81.566c-0.006,1.04-0.091,2.079-0.223,3.11l-0.891,6.951
					c-0.107,0.837-0.246,1.665-0.434,2.487c-3.478,15.162-11.39,31.612-23.513,48.887c-13.95,19.878-25.214,35.453-34.195,47.632
					c9.696-0.053,20.015-0.14,30.185-0.252c8.951-12.143,20.155-27.637,34.01-47.381c12.123-17.275,20.036-33.725,23.513-48.887
					c0.189-0.822,0.327-1.651,0.434-2.487l0.891-6.951c0.132-1.031,0.217-2.071,0.223-3.11C154.685,40.764,121.466,7.5,80.604,7.5
					c-5.102,0-10.099,0.54-14.945,1.542C99.319,16.021,124.658,45.914,124.467,81.566z"/>
				<path style="fill:#F2BB0C;" d="M134.347,190.279c-0.118,0-0.237,0-0.356,0.002c-8.503,0.107-17.268,0.196-25.831,0.264
					c13.381,1.838,23.767,13.197,23.942,27.076c0.193,15.292-12.08,27.844-27.413,28.036c-13.215,0.166-24.603,0.284-34.442,0.361
					c3.644,2.164,6.772,4.432,8.347,6.003c3.85,3.84,4.587,9.604,2.22,14.186c3.631-0.882,7.609,0.1,10.45,2.974
					c0.021,0.021,0.041,0.042,0.062,0.062c4.768,4.756,12.5,4.756,17.268,0c4.768-4.756,4.768-12.466,0-17.222
					c-1.575-1.571-4.703-3.839-8.347-6.003c9.84-0.077,21.227-0.195,34.442-0.361c15.333-0.192,27.606-12.744,27.413-28.036
					C161.91,202.448,149.518,190.279,134.347,190.279z"/>
			</g>
			<path style="fill:#F2A7D0;" d="M404.065,259.52c-0.118,0-0.237,0.001-0.356,0.002c-12.863,0.161-26.337,0.284-38.78,0.352
				c8.981-12.179,20.246-27.755,34.195-47.632c12.122-17.273,20.034-33.722,23.513-48.885c0.189-0.823,0.328-1.653,0.435-2.491
				l0.89-6.95c0.132-1.029,0.217-2.067,0.223-3.104c0.221-40.804-32.999-74.07-73.863-74.07c-35.216,0-65.697,24.989-72.478,59.418
				c-2.955,15.006,6.846,29.56,21.893,32.508c1.807,0.354,3.607,0.525,5.382,0.525c13.001-0.001,24.613-9.155,27.214-22.359
				c1.679-8.524,9.245-14.711,17.99-14.711c9.649,0,17.581,7.473,18.284,16.92l-0.414,3.234
				c-1.523,5.738-5.306,15.023-14.561,28.211c-28.449,40.539-45.417,62.698-54.533,74.603c-4.037,5.271-6.703,8.753-8.624,11.543
				c-2.407,3.496-9.732,14.134-5.514,27.811c2.711,8.79,9.631,15.801,18.512,18.754c3.444,1.145,6.126,2.031,34.701,2.155
				c-4.174,2.371-7.842,4.984-9.595,6.733c-4.768,4.756-4.768,12.466,0,17.222c4.768,4.756,12.5,4.756,17.268,0
				c0.128-0.128,0.26-0.265,0.397-0.412c4.088-4.406,10.951-4.406,15.04,0c0.137,0.147,0.269,0.285,0.397,0.412
				c4.768,4.756,12.5,4.756,17.268,0c4.768-4.756,4.768-12.466,0-17.222c-1.775-1.771-5.516-4.427-9.754-6.821
				c10.016-0.076,21.648-0.197,35.215-0.367c15.333-0.192,27.606-12.744,27.413-28.036
				C431.629,271.69,419.236,259.52,404.065,259.52z"/>
			<g>
				<path style="fill:#F294C7;" d="M394.185,150.812c-0.006,1.038-0.091,2.075-0.223,3.104l-0.89,6.95
					c-0.107,0.838-0.246,1.668-0.435,2.491c-3.479,15.163-11.391,31.612-23.513,48.885c-13.95,19.877-25.214,35.453-34.195,47.632
					c9.696-0.053,20.015-0.14,30.185-0.252c8.951-12.143,20.155-27.637,34.01-47.38c12.122-17.273,20.034-33.722,23.513-48.885
					c0.189-0.823,0.328-1.653,0.435-2.491l0.89-6.95c0.132-1.029,0.217-2.067,0.223-3.104c0.221-40.804-32.999-74.07-73.863-74.07
					c-5.102,0-10.099,0.54-14.945,1.542C369.038,85.263,394.378,115.158,394.185,150.812z"/>
				<path style="fill:#F294C7;" d="M404.065,259.521c-0.118,0-0.237,0.001-0.356,0.002c-8.503,0.107-17.268,0.196-25.83,0.264
					c13.381,1.838,23.767,13.197,23.942,27.076c0.193,15.292-12.081,27.844-27.413,28.036c-13.566,0.17-25.198,0.29-35.215,0.367
					c4.239,2.394,7.979,5.05,9.754,6.821c3.746,3.736,4.535,9.29,2.396,13.808c3.472-0.849,7.288,0.144,9.939,3.001
					c0.137,0.147,0.269,0.285,0.397,0.412c4.768,4.756,12.5,4.756,17.268,0c4.768-4.756,4.768-12.466,0-17.222
					c-1.775-1.771-5.516-4.427-9.754-6.821c10.016-0.076,21.648-0.197,35.215-0.367c15.333-0.192,27.606-12.744,27.413-28.036
					C431.629,271.689,419.236,259.521,404.065,259.521z"/>
			</g>
			<path style="fill:#41CCB4;" d="M501.024,249.406c-2.377-2.371-8.273-6.324-14.179-9.113c9.858-4.251,16.758-14.032,16.758-25.424
				V35.19c0-15.293-12.431-27.69-27.764-27.69h-38.507c-15.334,0-27.764,12.398-27.764,27.69s12.431,27.69,27.764,27.69h10.743
				v151.987c0,11.392,6.901,21.174,16.758,25.424c-5.906,2.789-11.802,6.743-14.179,9.113c-4.768,4.756-4.768,12.466,0,17.222
				c4.768,4.756,12.5,4.756,17.268,0c0.02-0.02,0.041-0.041,0.062-0.062c4.348-4.396,11.362-4.396,15.71,0
				c0.021,0.021,0.041,0.042,0.062,0.062c4.768,4.756,12.5,4.756,17.268,0C505.793,261.872,505.793,254.161,501.024,249.406z"/>
			<g>
				<path style="fill:#0FBA9D;" d="M501.024,249.406c-2.377-2.371-8.273-6.324-14.179-9.114c9.858-4.25,16.758-14.032,16.758-25.424
					V35.19c0-15.293-12.431-27.69-27.764-27.69h-30c15.334,0,27.764,12.397,27.764,27.69v179.677
					c0,9.778-5.091,18.357-12.764,23.284c1.267,0.813,2.597,1.538,3.994,2.141c-1.346,0.636-2.69,1.334-3.994,2.058
					c4.415,2.453,8.349,5.225,10.185,7.055c3.85,3.84,4.588,9.604,2.22,14.187c3.631-0.882,7.609,0.1,10.45,2.973
					c0.021,0.021,0.041,0.042,0.062,0.062c4.768,4.756,12.5,4.756,17.268,0C505.793,261.872,505.793,254.161,501.024,249.406z"/>
			</g>
		</g>
	</g>
	<g>
		<path d="M219.711,159.242c-17.553,0-31.833,14.251-31.833,31.768v83.095c0,17.517,14.28,31.768,31.833,31.768
			c17.553,0,31.834-14.251,31.834-31.768V191.01C251.545,173.493,237.264,159.242,219.711,159.242z M236.545,274.104
			c0,9.246-7.552,16.768-16.834,16.768c-9.282,0-16.833-7.522-16.833-16.768V191.01c0-9.246,7.551-16.768,16.833-16.768
			c9.282,0,16.834,7.522,16.834,16.768V274.104z"/>
		<path d="M404.065,252.021l-0.45,0.002c-7.865,0.099-15.918,0.183-23.83,0.249c8.071-11.112,16.606-23.077,25.479-35.72
			c11.277-16.068,26.285-40.361,26.422-65.698c0.112-20.826-7.719-40.688-22.05-55.927c-6.644-7.063-17.571,3.213-10.927,10.276
			c11.685,12.424,18.069,28.607,17.977,45.569c-0.114,21.13-13.581,42.744-23.7,57.163c-12.111,17.257-23.582,33.235-34.093,47.489
			c-3.824,5.184,0.508,12.019,6.077,11.951c12.483-0.069,25.912-0.191,38.801-0.353c25.646,0.221,26.91,40.047,0.542,40.377
			c-13.225,0.166-25.06,0.289-35.179,0.366c-7.506,0.058-10.168,10.339-3.631,14.03c4.281,2.418,7.218,4.674,8.146,5.601
			c4.337,4.325-2.824,10.751-6.871,6.397c-6.911-7.447-19.086-7.49-26.029-0.007c-4.165,4.46-11.176-2.103-6.878-6.391
			c0.914-0.911,3.8-3.134,8.003-5.522c6.53-3.709,3.839-13.989-3.671-14.021c-27.396-0.119-29.923-0.959-32.368-1.772
			c-15.41-5.123-17.616-22.955-9.188-35.194c1.809-2.626,34.595-45.444,63.12-86.091c8.058-11.482,13.331-21.776,15.671-30.596
			c3.967-14.967-10.963-29.578-25.119-29.578c-12.319,0-22.979,8.732-25.349,20.762c-4.969,25.222-44.83,17.92-39.771-7.775
			c6.091-30.923,33.478-53.367,65.12-53.367c5.971,0,11.936,0.813,17.73,2.417c9.344,2.59,13.348-11.869,4.002-14.456
			c-7.097-1.965-14.409-2.961-21.732-2.961c-34.553,0-64.952,21.857-76.465,53.444c-15.337-12.071-34.489-18.825-54.147-18.825
			c-22.659,0-44.153,8.648-60.521,24.351c-15.215,14.597-24.498,33.837-26.448,54.583c-7.484,0.092-15.133,0.171-22.674,0.234
			c8.068-11.109,16.602-23.073,25.478-35.721c11.278-16.07,26.287-40.365,26.422-65.703c0.116-21.697-8.275-42.147-23.629-57.583
			C122.93,8.532,102.426,0,80.604,0C41.814,0,8.239,27.534,0.767,65.469c-2.443,12.408,1.339,24.053,10.377,31.949
			c9.841,8.599,24.753,11.541,37.103,7.322c11.354-3.878,19.272-13.246,21.725-25.7c0.988-5.018,5.459-8.66,10.631-8.66
			c5.612,0,10.986,5.357,10.482,11.238c-1.392,4.951-4.838,13.243-13.312,25.319c-10.299,14.676-20.133,28.418-29.23,40.847
			c-5.728,7.825,6.375,16.682,12.104,8.859c9.155-12.508,19.048-26.333,29.404-41.09c8.06-11.485,13.333-21.78,15.671-30.597
			c3.951-14.97-10.95-29.577-25.119-29.577c-12.318,0-22.979,8.731-25.349,20.762c-1.807,9.175-7.445,12.897-11.856,14.404
			c-7.332,2.504-16.538,0.686-22.386-4.423c-3.513-3.069-7.324-8.641-5.528-17.755C21.575,37.444,48.961,15,80.604,15
			c17.8,0,34.527,6.961,47.1,19.602c12.517,12.584,19.358,29.249,19.264,46.924c-0.113,21.13-13.581,42.746-23.701,57.167
			c-12.116,17.265-23.586,33.242-34.092,47.489c-1.684,2.283-1.935,5.322-0.649,7.851c1.28,2.517,3.864,4.1,6.685,4.1
			c0.014,0,0.028,0,0.042,0c12.528-0.069,25.956-0.191,38.862-0.353c25.604,0.292,26.814,40.049,0.48,40.376
			c-12.92,0.163-24.497,0.284-34.407,0.361c-7.424,0.058-10.154,10.157-3.771,13.949c3.402,2.02,5.952,3.938,6.881,4.864
			c4.326,4.314-2.401,10.863-6.701,6.576c-3.522-3.562-8.206-5.523-13.187-5.523c0,0,0,0,0,0c-4.981,0-9.665,1.961-13.213,5.549
			c-4.283,4.269-10.986-2.3-6.675-6.601c0.943-0.941,3.398-2.787,6.753-4.791c6.374-3.805,3.621-13.895-3.801-13.939
			c-25.503-0.149-27.859-0.933-30.354-1.762c-6.587-2.19-11.712-7.367-13.711-13.848c-3.148-10.207,2.426-18.3,4.525-21.348
			c3.081-4.476,6.479-8.726,9.78-13.038c5.893-7.701-6.017-16.816-11.912-9.116c-3.454,4.513-6.998,8.964-10.223,13.647
			C6.752,204.5,4.563,216.032,8.074,227.413c3.423,11.1,12.138,19.945,23.313,23.661c3.333,1.107,6.159,1.841,17.168,2.228
			c-6.724,16.747,11.636,32.902,27.354,24.804v42.488c0,8.077,2.932,16.086,8.256,22.554c3.325,4.041,4.744,7.982,4.744,13.181
			c0,9.126-4.474,13.375-10.665,19.254c-6.833,6.489-15.335,14.564-15.335,30.132c0,15.568,8.502,23.645,15.334,30.134
			c6.192,5.881,10.666,10.13,10.666,19.259c0,9.128-4.474,13.377-10.665,19.258c-6.832,6.49-15.335,14.566-15.335,30.135
			c0,4.142,3.358,7.5,7.5,7.5s7.5-3.358,7.5-7.5c0-9.128,4.474-13.377,10.666-19.259c6.832-6.49,15.334-14.566,15.334-30.134
			s-8.503-23.645-15.335-30.135c-6.191-5.881-10.665-10.13-10.665-19.258c0-9.126,4.474-13.375,10.665-19.255
			c6.832-6.489,15.335-14.564,15.335-30.131c0-8.73-2.594-15.947-8.163-22.714c-3.119-3.789-4.837-8.414-4.837-13.021v-42.486
			c15.693,8.086,33.952-8.256,27.373-24.758c4.473-0.048,9.176-0.103,14.067-0.163v20.919c0,20.698,7.432,40.771,20.926,56.524
			c9.64,11.253,21.937,19.826,35.607,24.992c-15.063,15.781,4.299,40.841,23.329,31.039v32.72c0,8.076,2.932,16.086,8.256,22.554
			c3.325,4.041,4.744,7.982,4.744,13.181c0,9.126-4.474,13.375-10.665,19.254c-6.833,6.489-15.335,14.564-15.335,30.132
			c0,4.142,3.358,7.5,7.5,7.5s7.5-3.358,7.5-7.5c0-9.126,4.474-13.375,10.665-19.255c6.832-6.489,15.335-14.564,15.335-30.131
			c0-8.73-2.594-15.947-8.163-22.714c-3.119-3.789-4.837-8.414-4.837-13.021v-32.718c19.329,9.956,38.203-15.422,23.346-31.023
			c18.748-7.046,34.561-20.365,44.722-37.843c1.851,0.996,3.796,1.845,5.826,2.52c3.406,1.133,6.327,1.881,18.142,2.26
			c-7.446,16.391,10.741,33.982,27.016,25.598v19.455c0,5.874-2.022,11.631-5.848,16.649c-4.812,6.312-7.152,13.324-7.152,21.438
			c0,15.568,8.502,23.645,15.334,30.134c6.192,5.881,10.666,10.13,10.666,19.259c0,9.128-4.474,13.377-10.665,19.258
			c-6.832,6.49-15.335,14.566-15.335,30.135c0,4.142,3.358,7.5,7.5,7.5s7.5-3.358,7.5-7.5c0-9.128,4.474-13.377,10.666-19.259
			c6.832-6.49,15.334-14.566,15.334-30.134s-8.503-23.645-15.335-30.135c-6.191-5.881-10.665-10.13-10.665-19.258
			c0-4.901,1.22-8.592,4.08-12.343c5.836-7.653,8.92-16.555,8.92-25.744v-19.455c16.033,8.259,34.666-8.724,27.021-25.585
			c5.134-0.055,10.549-0.119,16.218-0.189C449.741,321.833,449.196,252.021,404.065,252.021z M339.691,148.283
			c0.988-5.018,5.459-8.661,10.631-8.661c5.612,0,10.985,5.358,10.482,11.238c-1.394,4.954-4.841,13.247-13.313,25.319
			c-17.585,25.058-30.764,43.063-40.418,55.973V191.01c0-4.824-0.411-9.614-1.198-14.334
			C322.344,176.321,336.498,164.495,339.691,148.283z M231.804,345.225c-6.941,1.169-8.464,10.785-2.226,14.043
			c4.905,2.562,8.813,5.412,10.022,6.617c4.336,4.326-2.833,10.757-6.871,6.397c-3.363-3.625-8.108-5.704-13.018-5.704
			s-9.655,2.079-13.029,5.715c-4.145,4.452-11.148-2.131-6.859-6.41c1.208-1.205,5.116-4.054,10.021-6.616
			c6.238-3.259,4.714-12.874-2.227-14.043c-16.646-2.805-31.9-11.455-42.951-24.355c-11.167-13.037-17.317-29.645-17.317-46.766
			v-23.419c4.549-1.799,8.711-4.542,12.23-8.141c6.582-6.731,10.14-15.616,10.021-25.018c-0.182-14.498-9.284-26.944-22.018-32.146
			c1.367-17.607,9.106-33.982,21.992-46.345c13.561-13.01,31.367-20.175,50.136-20.175c18.944,0,36.639,7.169,50.2,20.246
			c-0.544,7.752,1.479,15.422,5.884,21.98c3.571,5.316,8.409,9.466,14.048,12.151c1.475,5.783,2.231,11.744,2.231,17.771v60.917
			c-3.511,4.587-5.933,7.773-7.777,10.452c-7.826,11.363-10.014,22.895-6.504,34.276c1.267,4.107,3.261,7.902,5.833,11.246
			C273.091,327.663,254.043,341.478,231.804,345.225z"/>
		<path d="M506.321,271.938c10.419-10.393,5.116-24.942-5.493-32.234c6.462-6.475,10.276-15.343,10.276-24.836V35.19
			c0-19.404-15.82-35.19-35.265-35.19h-38.507c-19.445,0-35.264,15.786-35.264,35.19c0,19.404,15.819,35.19,35.264,35.19h3.243
			v144.487c0,9.493,3.814,18.361,10.275,24.835c-15.395,10.582-14.667,37.982,8.438,37.98c3.112,0,6.222-0.735,9.051-2.192v45.101
			c0,8.077,2.932,16.086,8.256,22.554c3.325,4.041,4.744,7.982,4.744,13.181c0,9.126-4.474,13.375-10.665,19.254
			c-6.833,6.489-15.335,14.564-15.335,30.132c0,15.568,8.502,23.645,15.334,30.134c6.192,5.881,10.666,10.13,10.666,19.259
			c0,9.128-4.474,13.377-10.665,19.258c-6.832,6.49-15.335,14.566-15.335,30.135c0,4.142,3.358,7.5,7.5,7.5s7.5-3.358,7.5-7.5
			c0-9.128,4.474-13.377,10.666-19.259c6.832-6.49,15.334-14.566,15.334-30.134s-8.503-23.645-15.335-30.135
			c-6.191-5.881-10.665-10.13-10.665-19.258c0-9.126,4.474-13.375,10.665-19.255c6.832-6.489,15.335-14.564,15.335-30.131
			c0-8.73-2.594-15.947-8.163-22.714c-3.119-3.789-4.837-8.414-4.837-13.021v-45.101
			C490.755,279.311,500.111,278.13,506.321,271.938z M462.616,261.327c-4.288,4.251-10.971-2.316-6.665-6.611
			c1.544-1.54,6.603-5.053,12.085-7.642c5.728-2.705,5.582-11.161-0.233-13.669c-7.428-3.203-12.228-10.479-12.228-18.537V62.88
			c0-4.142-3.358-7.5-7.5-7.5h-10.743c-11.174,0-20.264-9.057-20.264-20.19S426.158,15,437.332,15h38.507
			c11.174,0,20.265,9.058,20.265,20.19v179.677c0,8.058-4.8,15.334-12.228,18.537c-5.816,2.508-5.96,10.964-0.233,13.669
			c5.482,2.589,10.541,6.102,12.085,7.643c4.328,4.313-2.402,10.862-6.701,6.575c-3.523-3.562-8.207-5.523-13.188-5.522
			c-4.981,0-9.664,1.961-13.189,5.525C462.642,261.301,462.63,261.314,462.616,261.327z"/>
	</g>
</g>
<g>
</g>
<g>
</g>
<g>
</g>
<g>
</g>
<g>
</g>
<g>
</g>
<g>
</g>
<g>
</g>
<g>
</g>
<g>
</g>
<g>
</g>
<g>
</g>
<g>
</g>
<g>
</g>
<g>
</g>
</svg>
