<?xml version="1.0" encoding="iso-8859-1"?>
<!-- Generator: Adobe Illustrator 25.0.0, SVG Export Plug-In . SVG Version: 6.00 Build 0)  -->
<svg version="1.1" id="Layer_1" xmlns="http://www.w3.org/2000/svg" xmlns:xlink="http://www.w3.org/1999/xlink" x="0px" y="0px"
	 viewBox="0 0 512 512" style="enable-background:new 0 0 512 512;" xml:space="preserve">
<g>
	<g>
		<rect x="61.644" y="7.5" style="fill:#EBF7FF;" width="388.712" height="497"/>
		<rect x="410.356" y="7.5" style="fill:#D9EDFA;" width="40" height="497"/>
		<rect x="61.644" y="7.5" style="fill:#F2A7D0;" width="388.712" height="159.242"/>
		<rect x="410.356" y="7.5" style="fill:#F294C7;" width="40" height="159.242"/>
	</g>
	<g>
		<path d="M450.356,0H170.007c-9.697,0-9.697,15,0,15h272.849v144.242H69.144V15h60.901c9.697,0,9.697-15,0-15H61.644
			c-4.142,0-7.5,3.358-7.5,7.5v497c0,4.142,3.358,7.5,7.5,7.5h388.712c4.142,0,7.5-3.358,7.5-7.5v-66.355c0-9.697-15-9.697-15,0V497
			H69.144V174.242h373.712v221.456c0,9.697,15,9.697,15,0V7.5C457.856,3.358,454.498,0,450.356,0z"/>
		<path d="M354.982,441.284c4.142,0,7.5-3.358,7.5-7.5V230.633c0-4.142-3.358-7.5-7.5-7.5h-43.421c-4.142,0-7.5,3.358-7.5,7.5
			s3.358,7.5,7.5,7.5h35.921v195.651C347.482,437.926,350.84,441.284,354.982,441.284z"/>
		<path d="M260.483,282.198c0-32.799-26.684-59.482-59.482-59.482c-28.361,0-52.908,20.17-58.366,47.961
			c-0.798,4.064,1.85,8.006,5.914,8.805c4.063,0.798,8.006-1.85,8.805-5.914c4.08-20.774,22.437-35.852,43.647-35.852
			c24.528,0,44.482,19.955,44.482,44.482S225.528,326.68,201,326.68c-4.142,0-7.5,3.358-7.5,7.5s3.358,7.5,7.5,7.5
			c24.528,0,44.482,19.955,44.482,44.482S225.528,430.645,201,430.645c-24.11,0-44.482-20.387-44.482-44.482
			c0-4.142-3.358-7.5-7.5-7.5s-7.5,3.358-7.5,7.5c0,32.291,27.182,59.482,59.482,59.482c32.799,0,59.482-26.684,59.482-59.482
			c0-22.327-12.372-41.811-30.614-51.982C248.111,324.009,260.483,304.525,260.483,282.198z"/>
		<path d="M242.131,116.006l5.164-28.61l8.549,28.976c2.459,8.289,14.412,8.189,16.808-0.079l8.252-28.948l5.492,28.737
			c1.82,9.525,16.553,6.709,14.733-2.815l-10.439-54.62c-1.738-8.54-14.63-8.983-17.004-0.698l-9.553,33.511l-9.909-33.586
			c-2.489-8.501-15.38-7.551-17.015,0.954l-9.839,54.515C225.647,122.885,240.409,125.549,242.131,116.006z"/>
		<path d="M94.674,113.401c0,4.336,2.84,8.382,7.639,8.382c0.465-0.002,11.441-0.044,15.829-0.121
			c16.721-0.292,28.857-14.819,28.857-34.542c0-20.733-11.831-34.663-29.438-34.663h-15.386c-4.195,0-7.5,3.393-7.5,7.556V113.401z
			 M117.56,67.458c13.397,0,14.438,15.05,14.438,19.663c0,13.331-7.091,19.421-14.119,19.544c-1.88,0.033-5.094,0.06-8.121,0.08
			c-0.02-6.377-0.06-32.646-0.071-39.286H117.56z"/>
		<path d="M336.337,51.63h-16.261c-4.142,0-7.5,3.358-7.5,7.5v55.981c0,3.734,3.733,7.5,7.534,7.5c0,0,14.947-0.067,19.067-0.067
			c12.444,0,22.568-10.124,22.568-22.568c0-6.933-3.145-13.144-8.081-17.287c1.924-3.11,3.054-6.76,3.054-10.678
			C356.719,60.773,347.576,51.63,336.337,51.63z M327.576,66.63h8.761c2.967,0,5.381,2.414,5.381,5.381s-2.414,5.381-5.381,5.381
			c-2.92,0-5.841,0.017-8.761,0.015V66.63z M339.177,107.545c-2.146,0-7.218,0.018-11.601,0.035V92.419
			c3.867-0.016,7.734-0.016,11.601-0.011c4.173,0,7.568,3.395,7.568,7.568S343.351,107.545,339.177,107.545z"/>
		<path d="M192.803,66.63c4.107,0,8.067,1.208,11.451,3.495c3.433,2.318,8.095,1.416,10.414-2.016
			c2.319-3.433,1.416-8.095-2.016-10.414c-5.874-3.968-12.737-6.065-19.849-6.065c-19.57,0-35.491,15.921-35.491,35.491
			s15.921,35.491,35.491,35.491c8.976,0,17.584-3.671,23.38-10.583c2.662-3.174,2.247-7.904-0.927-10.566s-7.904-2.247-10.566,0.927
			c-2.834,3.38-7.559,5.221-11.887,5.221c-11.299,0-20.491-9.192-20.491-20.491S181.504,66.63,192.803,66.63z"/>
		<path d="M417.326,73.679c0-12.158-10.261-22.049-22.873-22.049h-14.876c-0.003,0-0.006,0-0.009,0s-0.006,0-0.009,0
			c-4.142,0-7.5,3.358-7.5,7.5v55.981c0,4.142,3.358,7.5,7.5,7.5s7.5-3.358,7.5-7.5v-14.516l17.137,19.471
			c6.498,7.385,17.607-2.699,11.26-9.91l-13.715-15.583C410.789,91.633,417.326,83.381,417.326,73.679z M394.454,80.728
			c-1.721,0-4.571,0.011-7.314,0.024c-0.02-4.707-0.033-9.415-0.039-14.122h7.353c4.268,0,7.873,3.228,7.873,7.049
			S398.721,80.728,394.454,80.728z"/>
	</g>
</g>
<g>
</g>
<g>
</g>
<g>
</g>
<g>
</g>
<g>
</g>
<g>
</g>
<g>
</g>
<g>
</g>
<g>
</g>
<g>
</g>
<g>
</g>
<g>
</g>
<g>
</g>
<g>
</g>
<g>
</g>
</svg>
