<?xml version="1.0" encoding="iso-8859-1"?>
<!-- Generator: Adobe Illustrator 25.0.0, SVG Export Plug-In . SVG Version: 6.00 Build 0)  -->
<svg version="1.1" id="Layer_1" xmlns="http://www.w3.org/2000/svg" xmlns:xlink="http://www.w3.org/1999/xlink" x="0px" y="0px"
	 viewBox="0 0 511.973 511.973" style="enable-background:new 0 0 511.973 511.973;" xml:space="preserve">
<g>
	<g>
		<g>
			<g>
				<g>
					<path style="fill:#6B8DF2;" d="M322.324,344.684c-9.993-4.255-18.141-12.699-21.678-23.893
						c-8.031-25.419,6.002-52.555,31.345-60.61c31.679-10.069,63.169,8.362,75.537,39.299c17.363,43.433-7.798,86.161-46.39,101.575
						c-55.253,22.069-107.819,0.756-134.866-71.078c-22.76-60.451,20.402-129.611,88.838-150.326
						c77.671-23.509,158.935,20.247,182.697,107.013c30.186,110.222-47.087,189.325-124.165,209.725
						c-112.284,29.718-196.557-22.373-247.266-159.915L67.06,178.966l70.324-26.636l88.888,177.647"/>
				</g>
				<g>
					<path style="fill:#527BF2;" d="M497.808,286.664c-21.522-78.586-90.215-121.889-160.687-111.887
						c55.067,7.896,103.289,48.361,120.687,111.887c30.186,110.222-47.087,189.325-124.165,209.725
						c-12.973,3.434-25.567,5.761-37.784,7.004c24.175,2.661,50.128,0.315,77.784-7.004
						C450.72,475.988,527.993,396.886,497.808,286.664z"/>
				</g>
				<polygon style="fill:#FFCA21;" points="137.384,152.33 67.06,178.966 7.502,20.781 42.664,7.463 66.474,70.703 107.592,92.808 
									"/>
				<path style="fill:#F2A7D0;" d="M86.76,231.289c25.599-9.696,54.187,3.258,63.854,28.933s-3.248,54.349-28.847,64.045
					L86.76,231.289z"/>
				<g>
					<path style="fill:#F2A7D0;" d="M227.292,332.551c-17.786,13.277-25.457,37.214-17.234,59.053
						c9.945,26.412,39.354,39.738,65.688,29.764c8.616-3.263,15.823-8.625,21.289-15.277
						C268.205,397.842,243.451,373.786,227.292,332.551z"/>
					<path style="fill:#F2A7D0;" d="M447.481,456.834c-11.639-22.911-38.845-33.858-63.387-24.562
						c-26.334,9.974-39.62,39.472-29.675,65.884c0.303,0.805,0.625,1.597,0.964,2.377c6.003-1.139,12.086-2.51,18.259-4.144
						C399.607,489.516,425.587,475.974,447.481,456.834z"/>
					<path style="fill:#F294C7;" d="M382.606,493.74c23.811-7.711,46.036-20.437,64.875-36.907
						c-4.549-8.955-11.483-16.071-19.699-20.876c-20.473,24.874-47.467,43.463-75.615,54.386c-1.55-7.551,2.413,10.34,3.297,10.172
						C364.622,498.775,373.733,496.614,382.606,493.74z"/>
					<path style="fill:#F2A7D0;" d="M407.288,356.424c6.967,0.427,14.133-0.567,21.087-3.201
						c26.334-9.974,39.62-39.472,29.675-65.884c-9.944-26.412-39.354-39.738-65.688-29.764c-5.088,1.927-9.683,4.59-13.723,7.811
						c12.631,7.321,22.96,19.264,28.888,34.093C415.523,319.479,414.485,339.322,407.288,356.424z"/>
					<path style="fill:#F2A7D0;" d="M291.098,254.738c26.334-9.974,39.62-39.472,29.675-65.884c-1.273-3.38-2.868-6.542-4.731-9.472
						c-0.31,0.092-0.621,0.175-0.931,0.269c-34.876,10.556-63.18,33.697-79.548,61.852
						C249.23,256.41,271.05,262.331,291.098,254.738z"/>
				</g>
			</g>
		</g>
	</g>
	<g>
		<path d="M505.041,284.683c-12.103-44.194-39.266-79.859-76.484-100.424c-34.992-19.335-75.678-23.6-114.676-12.059
			c-37.938,11.303-71.345,37.558-88.983,73.302c-6.634,13.444-10.584,27.428-11.812,41.36l-68.994-137.888c0,0,0,0,0,0s0,0,0,0
			l-29.792-59.522c-0.692-1.382-1.794-2.517-3.156-3.249l-38.64-20.773L49.683,4.821c-2.016-4.133-5.242-5.59-9.676-4.371
			L4.845,13.768c-3.868,1.465-5.82,5.785-4.362,9.656l36.579,97.153c3.416,9.075,17.455,3.79,14.038-5.285L17.158,25.144
			l21.135-8.005l21.163,56.207c0.639,1.697,1.871,3.105,3.468,3.963l39.025,20.98l25.011,49.97L71.431,169.29l-6.323-16.795
			c-3.417-9.075-17.455-3.79-14.038,5.285c22.752,60.43,45.6,120.826,68.27,181.287c25.671,69.629,60.506,118.886,103.539,146.404
			c27.572,17.631,58.585,26.469,92.675,26.468c69.73-0.002,139.048-33.378,174.518-94.987
			C512.767,377.531,517.943,331.793,505.041,284.683z M313.754,191.496c8.474,22.507-2.882,47.731-25.312,56.228
			c-14.927,5.655-31.376,2.701-43.327-7.42c15.654-24.001,39.767-42.258,66.755-51.697
			C313.235,187.918,313.863,188.881,313.754,191.496z M234.893,364.723c11.67,18.709,27.851,35.212,48.186,44.261
			c-12.395,8.925-29.236,10.637-43.183,4.336c-10.605-4.791-18.708-13.441-22.819-24.358c-5.633-14.961-2.493-31.698,7.484-43.583
			C227.586,351.996,231.045,358.535,234.893,364.723z M96.654,236.27c8.349-1.559,16.962-0.538,24.868,3.033
			c10.258,4.634,18.097,13.002,22.073,23.562c7.29,19.362-0.591,40.801-17.685,51.091L96.654,236.27z M386.751,439.285
			c5.058-1.916,10.262-2.829,15.388-2.829c14.03,0,27.466,6.846,35.661,18.738c-22.755,18.551-49.029,30.553-77.551,36.695
			C354.207,470.36,365.516,447.328,386.751,439.285z M477.071,409.468c-7.493,13.014-16.998,25.044-28.004,35.716
			c-15.294-20.774-42.783-29.34-67.629-19.927c-28.105,10.645-43.269,40.81-35.979,69.346c-43.265,6.49-81.69-0.788-114.501-21.769
			c-40.214-25.715-73.033-72.466-97.564-139.004l-2.139-5.681c24.813-13.345,36.586-43.457,26.378-70.569
			c-5.39-14.315-16.021-25.661-29.935-31.946c-11.565-5.225-24.242-6.415-36.386-3.55l-14.595-38.755l56.991-21.586l84.417,168.71
			c-17.287,16.002-23.524,41.381-15.085,63.794c5.524,14.672,16.42,26.3,30.681,32.743c22.152,10.006,48.886,4.922,65.847-12.501
			c20.089,4.612,42.022,2.45,64.353-6.469c20.874-8.337,38.411-24.343,48.115-43.914c0.02-0.041,0.039-0.082,0.059-0.122
			c6.465-0.183,12.815-1.428,18.938-3.747c5.716-2.166,11.033-5.198,15.804-9.013c8.697-6.958-4.07-19.536-10.904-10.714
			c0,0-13.089,6.975-17.974,7.846c7.837-29.422-2.225-63.028-25.742-82.593c22.563-10.393,50.096,1.057,58.814,24.218
			c2.511,6.668,3.347,13.625,2.487,20.678c-0.502,4.112,2.425,7.852,6.536,8.353c4.106,0.5,7.851-2.424,8.353-6.537
			c1.141-9.344-0.014-18.949-3.338-27.779c-5.523-14.672-16.42-26.3-30.682-32.743c-14.22-6.424-30.089-6.919-44.68-1.392
			c-4.119,1.56-8.027,3.576-11.678,6.005c-15.165-7.378-32.207-8.651-48.309-3.532c-29.237,9.292-45.488,40.702-36.226,70.017
			c4.062,12.857,13.5,23.257,25.891,28.533c3.809,1.622,8.215-0.151,9.839-3.962c1.623-3.811-0.151-8.216-3.962-9.839
			c-8.357-3.559-14.723-10.576-17.465-19.252c-6.774-21.441,5.099-44.411,26.466-51.203c47.435-15.073,81.027,39.066,68.367,80.023
			c-6.633,21.223-23.751,38.541-44.274,46.738c-42.354,16.915-83.538,2.998-108.203-33.393
			c-21.723-32.34-29.897-70.56-12.478-107.148c15.877,12.178,37.42,15.269,56.08,8.202c30.151-11.421,45.42-45.308,34.037-75.541
			c-0.247-0.656-0.521-1.302-0.792-1.949c32.357-7.339,65.493-2.793,94.302,13.125c33.646,18.591,58.247,51,69.272,91.257
			C502.396,331.811,497.727,373.591,477.071,409.468z"/>
		<path d="M378.625,151.246c0.402,0.001,40.603,0.493,72.695,29.346c7.131,6.41,17.292-4.625,10.029-11.154
			c-36.499-32.814-80.84-33.192-82.71-33.192C368.958,136.246,368.95,151.207,378.625,151.246z"/>
		<path d="M410.971,129.047c0.186,0.031,18.669,3.224,33.112,13.681c7.616,5.514,16.801-6.354,8.797-12.15
			c-17.381-12.583-38.568-16.182-39.462-16.329C403.866,112.675,401.422,127.446,410.971,129.047z"/>
		<path d="M100.792,343.539c-3.66-8.98-17.551-3.316-13.89,5.663l26.103,64.021c3.584,8.792,17.546,3.303,13.89-5.663
			L100.792,343.539z"/>
		<path d="M82.039,370.819c-3.66-8.98-17.551-3.316-13.89,5.663L81.2,408.493c3.584,8.792,17.546,3.303,13.89-5.663L82.039,370.819z
			"/>
	</g>
</g>
<g>
</g>
<g>
</g>
<g>
</g>
<g>
</g>
<g>
</g>
<g>
</g>
<g>
</g>
<g>
</g>
<g>
</g>
<g>
</g>
<g>
</g>
<g>
</g>
<g>
</g>
<g>
</g>
<g>
</g>
</svg>
