<?xml version="1.0" encoding="iso-8859-1"?>
<!-- Generator: Adobe Illustrator 25.0.0, SVG Export Plug-In . SVG Version: 6.00 Build 0)  -->
<svg version="1.1" id="Layer_1" xmlns="http://www.w3.org/2000/svg" xmlns:xlink="http://www.w3.org/1999/xlink" x="0px" y="0px"
	 viewBox="0 0 512.332 512.332" style="enable-background:new 0 0 512.332 512.332;" xml:space="preserve">
<g>
	<g>
		<g>
			<circle style="fill:#6B8DF2;" cx="295.935" cy="217.24" r="17.381"/>
			<g>
				<g>
					<path style="fill:#F2A7D0;" d="M125.402,315.601L9.096,431.898c-5.454,5.453,6.076,25.824,25.753,45.499
						c19.677,19.675,40.05,31.204,45.504,25.751l32.619-32.619L125.402,315.601z"/>
					<path style="fill:#F294C7;" d="M156.658,386.851L51.477,492.024c13.447,10.236,24.976,15.023,28.876,11.124l32.619-32.619
						L156.658,386.851z"/>
					<path style="fill:#FFCA21;" d="M165.125,275.882L41.715,399.279c-5.454,5.453,6.076,25.824,25.753,45.499
						c19.677,19.675,40.05,31.204,45.504,25.751l15.576-15.574l9.824-19.454l15.974-6.341l82.035-82.027L165.125,275.882z"/>
					<path style="fill:#F2BB0C;" d="M216.38,327.133L84.096,459.405c13.447,10.236,24.976,15.023,28.876,11.123l15.576-15.574
						l7.529-19.621l18.27-6.175l82.035-82.027L216.38,327.133z"/>
				</g>
				
					<ellipse transform="matrix(0.7071 -0.7071 0.7071 0.7071 -162.2766 232.8813)" style="fill:#EB67A5;" cx="199.951" cy="312.309" rx="13.965" ry="50.384"/>
			</g>
			<circle style="fill:#6B8DF2;" cx="385.585" cy="33.88" r="17.381"/>
			<circle style="fill:#6B8DF2;" cx="477.361" cy="126.403" r="17.381"/>
			<circle style="fill:#6B8DF2;" cx="319.777" cy="366.926" r="17.381"/>
			<polygon style="fill:#FFCA21;" points="475.15,250.219 456.804,240.203 438.136,249.609 442.011,229.099 427.28,214.287 
				448.021,211.627 457.584,193.067 466.528,211.932 487.17,215.274 471.956,229.593 			"/>
			<polygon style="fill:#FFCA21;" points="471.534,66.757 465.644,46.702 445.793,40.153 463.035,28.391 463.093,7.5 479.64,20.286 
				499.526,13.924 492.51,33.588 504.743,50.547 483.86,49.914 			"/>
			<polygon style="fill:#FFCA21;" points="389.581,464.142 371.234,454.126 352.567,463.532 356.442,443.022 341.71,428.21 
				362.451,425.55 372.015,406.99 380.958,425.855 401.6,429.197 386.387,443.516 			"/>
			<ellipse style="fill:#6B8DF2;" cx="144.908" cy="192.4" rx="17.414" ry="17.348"/>
			<polygon style="fill:#FFCA21;" points="261.845,37.331 271.88,55.642 262.456,74.273 283.006,70.406 297.848,85.108 
				300.512,64.408 319.109,54.863 300.207,45.937 296.858,25.335 282.511,40.519 			"/>
			<polygon style="fill:#FFCA21;" points="47.502,122.733 57.537,141.044 48.113,159.675 68.663,155.807 83.505,170.51 
				86.17,149.809 104.766,140.265 85.864,131.339 82.515,110.737 68.168,125.921 			"/>
		</g>
		<polygon style="fill:#FFFFFF;" points="136.224,363.064 140.941,341.433 161.436,333.056 142.319,321.886 140.717,300.25 
			111.634,329.367 111.547,329.538 99.891,348.361 121.922,346.162 		"/>
		<polygon style="fill:#FFFFFF;" points="99.891,437.37 121.762,440.801 128.549,454.955 154.347,429.159 147.623,422.454 
			151.612,400.675 131.901,410.756 112.423,400.232 115.918,422.095 		"/>
	</g>
	<g>
		<path d="M278.341,199.647c-9.512,9.51-9.533,25.655,0,35.187c9.5,9.499,25.666,9.52,35.188,0c9.512-9.51,9.533-25.655,0-35.187
			C303.827,189.947,288.04,189.947,278.341,199.647z M302.923,224.226c-3.852,3.853-10.121,3.854-13.977,0
			c-3.858-4.657-3.858-9.314,0-13.972c4.659-3.853,9.318-3.853,13.977,0C306.781,214.912,306.781,219.569,302.923,224.226z"/>
		<path d="M451.691,373.845c-2.432-0.626-3.159-1.697-5.093-4.988c-7.187-12.231-20.287-15.655-32.559-8.383
			c-5.4,3.201-8.798,2.34-11.979-3.076c-2.271-3.866-5.702-9.708-14.288-11.917c-4.017-1.034-8.101,1.383-9.133,5.394
			c-1.032,4.012,1.384,8.101,5.395,9.132c2.433,0.626,3.16,1.697,5.093,4.988c7.184,12.23,20.29,15.656,32.56,8.383
			c5.4-3.201,8.796-2.338,11.978,3.077c2.271,3.865,5.703,9.707,14.288,11.916c3.679,0.948,8.179-1.689,9.133-5.394
			C458.117,378.966,455.702,374.877,451.691,373.845z"/>
		<path d="M238.653,326.823c-5.188-9.166-13.543-19.711-23.525-29.692c-8.711-8.71-41.032-40.829-55.307-26.553L3.793,426.594
			c-21.865,21.861,59.258,104.466,81.862,81.857l102.924-102.916c6.859-6.856-3.749-17.464-10.605-10.607l-21.649,21.646
			l2.664-14.548c1.007-5.494-4.969-11.002-10.792-8.029l-16.201,8.286l-16.008-8.65c-5.755-3.105-11.852,2.269-10.972,7.783
			l2.873,17.97L94.717,431.94c-4.419,4.209-2.016,11.893,4.012,12.838l17.976,2.821l2.785,5.807l-10.971,10.97
			c-4.393-0.379-18.501-7.659-35.746-24.903c-17.245-17.243-24.526-31.35-24.904-35.74l48.475-48.47
			c1.292,0.695,2.777,1.023,4.294,0.872l18.107-1.807l11.755,13.891c4.118,4.867,11.785,2.571,13.054-3.247l3.876-17.778
			l16.846-6.886c5.649-2.309,6.215-10.339,0.946-13.418l-15.712-9.181l-1.077-14.532l10.298-10.297
			c11.171,24.332,36.331,49.483,60.642,60.651l-14.851,14.85c-6.858,6.857,3.749,17.464,10.605,10.607l25.75-25.748
			C247.724,345.939,242.828,334.198,238.653,326.823z M138.103,334.803c-2.285,0.934-3.964,2.933-4.49,5.344l-1.479,6.784
			l-4.485-5.301c-1.434-1.693-3.531-2.655-5.725-2.655c-0.248,0-0.497,0.012-0.746,0.037l-6.908,0.689l3.201-5.169l16.979-17.049
			l0.391,5.269c0.183,2.461,1.564,4.676,3.695,5.921l5.994,3.502L138.103,334.803z M128.524,437.559
			c-1.067-2.226-3.161-3.784-5.601-4.167l-6.859-1.077l5.027-4.791c1.787-1.703,2.622-4.176,2.232-6.613l-1.097-6.857l6.107,3.3
			c2.174,1.174,4.782,1.203,6.98,0.079l6.182-3.162l-1.251,6.831c-0.558,3.043,1.263,6.18,3.486,8.063l-12.999,12.998
			L128.524,437.559z M62.166,450.082c10.036,10.036,21.564,20.058,34.6,26.047l-20.869,20.867
			c-4.392-0.379-18.5-7.659-35.746-24.902c-17.244-17.244-24.525-31.35-24.904-35.74l20.876-20.874
			C42.078,428.45,52.158,440.075,62.166,450.082z M195.378,316.88c-14.988-14.987-22.45-27.606-24.395-33.534
			c5.929,1.943,18.549,9.404,33.539,24.393c14.989,14.987,22.45,27.606,24.396,33.534
			C222.989,339.329,210.368,331.868,195.378,316.88z"/>
		<path d="M437.014,319.862c9.116,3.308,14.234-10.79,5.119-14.1c-85.13-30.909-151.724-6.873-183.842,10.206
			c-8.382,4.457-1.335,17.695,7.043,13.244C295.253,313.303,357.34,290.934,437.014,319.862z"/>
		<path d="M266.505,245.734c-2.93-2.929-7.679-2.93-10.606-0.001l-14.078,14.076c-6.858,6.856,3.75,17.465,10.605,10.607
			l14.078-14.076C269.434,253.412,269.434,248.663,266.505,245.734z"/>
		<path d="M320.745,191.488c3.535,2.93,7.07,2.932,10.606,0.004L435.437,87.494c2.931-2.928,2.933-7.677,0.005-10.607
			c-2.928-2.93-7.677-2.932-10.606-0.004L320.75,180.881C317.819,183.809,317.817,188.558,320.745,191.488z"/>
		<path d="M367.991,51.474c4.851,4.85,11.222,7.275,17.594,7.275s12.743-2.425,17.594-7.275c9.512-9.51,9.533-25.655,0-35.187
			c-6.012-6.012-14.577-8.519-22.91-6.699c-4.048,0.882-6.612,4.878-5.73,8.926c0.884,4.047,4.882,6.615,8.926,5.729
			c3.322-0.722,6.725,0.268,9.109,2.651c3.858,4.657,3.858,9.314,0,13.972c-3.853,3.854-10.123,3.853-13.976,0
			c-0.907-0.907-1.62-1.97-2.119-3.162c-1.603-3.82-5.997-5.618-9.816-4.017c-3.82,1.602-5.619,5.997-4.018,9.817
			C363.901,46.501,365.699,49.182,367.991,51.474z"/>
		<path d="M494.955,108.81c-9.701-9.7-25.486-9.699-35.188,0c-9.511,9.51-9.533,25.655,0,35.187c9.5,9.499,25.667,9.52,35.188,0
			C504.467,134.486,504.488,118.341,494.955,108.81z M484.35,133.389c-3.853,3.853-10.122,3.854-13.977,0
			c-3.858-4.657-3.858-9.315,0-13.972c4.659-3.853,9.318-3.853,13.977,0C488.208,124.074,488.208,128.732,484.35,133.389z"/>
		<path d="M344.659,366.926c0-6.646-2.588-12.894-7.288-17.593c-9.701-9.7-25.486-9.7-35.188,0c-9.511,9.51-9.533,25.655,0,35.187
			c4.851,4.85,11.222,7.275,17.594,7.275s12.743-2.425,17.594-7.275C342.071,379.82,344.659,373.572,344.659,366.926z
			 M326.766,373.912c-3.853,3.853-10.122,3.855-13.977,0c-3.858-4.657-3.858-9.314,0-13.972c4.659-3.853,9.318-3.853,13.977,0
			C330.624,364.598,330.624,369.255,326.766,373.912z"/>
		<path d="M329.84,269.291c2.208-1.206,3.474-0.92,7.144,0.161c13.726,4.043,25.471-2.258,29.493-16.134
			c1.747-6.032,4.826-7.692,10.845-5.919c4.304,1.268,10.807,3.184,18.579-1.066c3.635-1.987,4.97-6.544,2.983-10.178
			c-1.988-3.635-6.546-4.971-10.179-2.983c-2.206,1.205-3.473,0.921-7.145-0.161c-13.603-4.006-25.519,2.424-29.492,16.133
			c-1.747,6.032-4.827,7.694-10.845,5.92c-4.303-1.268-10.805-3.184-18.579,1.066C314.135,260.781,321.332,273.944,329.84,269.291z"
			/>
		<path d="M488.368,207.87l-16.752-2.712l-7.255-15.304c-2.61-5.502-10.652-5.643-13.444-0.223l-7.759,15.058l-16.833,2.159
			c-6.057,0.777-8.669,8.397-4.364,12.728l11.947,12.013l-3.142,16.628c-1.037,5.485,4.905,11.031,10.744,8.09l15.153-7.635
			l14.893,8.13c5.333,2.912,11.939-1.7,11.006-7.731l-2.591-16.723l12.339-11.613C496.757,216.55,494.396,208.846,488.368,207.87z
			 M466.816,224.132c-1.8,1.694-2.649,4.167-2.271,6.609l0.87,5.618l-5.017-2.739c-1.119-0.611-2.355-0.917-3.594-0.917
			c-1.155,0-2.312,0.267-3.375,0.802l-5.104,2.571l1.055-5.584c0.459-2.429-0.308-4.928-2.051-6.681l-3.999-4.021l5.645-0.724
			c2.446-0.313,4.583-1.811,5.713-4.003l2.616-5.078l2.446,5.161c1.058,2.229,3.144,3.796,5.579,4.191l5.616,0.909L466.816,224.132z
			"/>
		<path d="M443.443,47.276l16.113,5.316l4.781,16.279c1.661,5.652,9.431,7.529,13.249,2.315l9.993-13.656l16.937,0.513
			c5.583,0.171,10.139-6.574,6.31-11.884l-9.928-13.763l5.691-15.953c2.197-6.154-4.037-11.362-9.349-9.664l-16.134,5.162
			L467.679,1.565c-5.18-4.004-12.071,0.33-12.086,5.914l-0.047,16.941l-13.979,9.537C436.527,37.396,437.65,45.364,443.443,47.276z
			 M467.262,34.587c2.042-1.393,3.267-3.703,3.273-6.175l0.016-5.671l4.503,3.479c1.953,1.508,4.52,1.96,6.871,1.209l5.441-1.741
			l-1.919,5.379c-0.829,2.324-0.463,4.906,0.98,6.908l3.328,4.614l-5.669-0.172c-2.43-0.073-4.819,1.072-6.279,3.067l-3.357,4.588
			l-1.61-5.484c-0.694-2.364-2.506-4.236-4.847-5.009l-5.427-1.791L467.262,34.587z"/>
		<path d="M402.799,421.793l-16.752-2.712l-7.255-15.305c-2.61-5.502-10.652-5.643-13.444-0.222l-7.759,15.057l-16.833,2.159
			c-6.057,0.777-8.669,8.397-4.364,12.728l11.947,12.013l-3.142,16.628c-1.037,5.484,4.905,11.032,10.744,8.09l15.153-7.635
			l14.893,8.13c5.333,2.91,11.939-1.699,11.006-7.731l-2.591-16.723l12.338-11.612C411.187,430.473,408.826,422.771,402.799,421.793
			z M381.246,438.055c-1.8,1.694-2.649,4.167-2.271,6.609l0.87,5.618l-5.017-2.739c-1.119-0.611-2.355-0.917-3.594-0.917
			c-1.155,0-2.312,0.267-3.375,0.802L362.756,450l1.055-5.584c0.459-2.429-0.308-4.928-2.051-6.681l-3.999-4.021l5.645-0.724
			c2.446-0.313,4.583-1.811,5.713-4.004l2.616-5.078l2.446,5.161c1.058,2.229,3.143,3.796,5.578,4.191l5.617,0.909L381.246,438.055z
			"/>
		<path d="M417.591,172.305c9.652,0,9.668-15,0-15C407.939,157.305,407.923,172.305,417.591,172.305z"/>
		<path d="M504.998,272.617c-9.652,0-9.668,15,0,15C514.65,287.617,514.666,272.617,504.998,272.617z"/>
		<path d="M232.242,15c9.652,0,9.668-15,0-15C222.59,0,222.574,15,232.242,15z"/>
		<path d="M477.004,318.643c-9.652,0-9.668,15,0,15C486.656,333.643,486.672,318.643,477.004,318.643z"/>
		<path d="M135.379,78.755c5.409,3.164,6.289,6.529,3.084,11.917c-7.257,12.197-3.92,25.325,8.398,32.533
			c3.298,1.93,4.37,2.655,4.995,5.075c0.874,3.381,3.919,5.625,7.257,5.625c4.419,0,8.396-5.008,7.267-9.378
			c-2.217-8.577-8.069-12.002-11.943-14.268c-5.408-3.165-6.288-6.529-3.083-11.917c7.257-12.198,3.92-25.324-8.398-32.533
			c-3.297-1.93-4.37-2.655-4.995-5.075c-1.036-4.01-5.121-6.422-9.138-5.386c-4.011,1.036-6.422,5.127-5.386,9.138
			C125.652,73.063,131.506,76.489,135.379,78.755z"/>
		<path d="M192.081,75.407c28.665,78.636,6.892,140.222-8.639,169.935c-4.379,8.377,8.842,15.464,13.293,6.948
			c16.676-31.903,40.076-97.973,9.439-182.02C202.852,61.159,188.762,66.296,192.081,75.407z"/>
		<path d="M144.908,217.233c6.376,0,12.753-2.417,17.606-7.253c9.535-9.497,9.556-25.641,0-35.161
			c-9.707-9.671-25.506-9.671-35.213,0c-9.534,9.498-9.557,25.641,0,35.161C132.156,214.816,138.532,217.233,144.908,217.233z
			 M137.888,185.447c4.68-3.856,9.361-3.856,14.041,0c3.858,4.636,3.858,9.271,0,13.907c-3.87,3.856-10.169,3.856-14.041,0
			C134.03,194.718,134.03,190.082,137.888,185.447z"/>
		<path d="M242.754,182.339c-1.993,3.631-0.666,8.19,2.966,10.184c3.802,1.884,7.197,0.895,10.183-2.966
			c4.267-7.772,2.344-14.272,1.071-18.573c-1.779-6.015-0.085-9.058,5.936-10.796c13.629-3.932,20.212-15.772,16.161-29.462
			c-1.08-3.652-1.364-4.912-0.163-7.101c1.992-3.631,0.664-8.19-2.967-10.183c-3.631-1.994-8.189-0.665-10.184,2.966
			c-4.265,7.771-2.342,14.271-1.07,18.572c1.779,6.015,0.085,9.059-5.936,10.796c-13.631,3.932-20.209,15.77-16.161,29.462
			C243.67,178.891,243.955,180.15,242.754,182.339z"/>
		<path d="M263.404,55.782l-7.641,15.106c-2.955,5.842,2.595,11.784,8.08,10.756l16.681-3.14l12.045,11.932
			c4.457,4.416,11.949,1.595,12.717-4.371l2.161-16.787l15.087-7.743c5.433-2.789,5.301-10.847-0.223-13.454l-15.335-7.241
			l-2.715-16.708c-0.979-6.019-8.666-8.38-12.854-3.948l-11.644,12.322l-16.775-2.587c-5.518-0.852-10.866,5.278-7.721,11.017
			L263.404,55.782z M281.367,47.931c2.439,0.377,4.901-0.469,6.595-2.261l3.927-4.156l0.914,5.626
			c0.396,2.438,1.968,4.524,4.201,5.579l5.134,2.424l-5.05,2.592c-2.197,1.128-3.698,3.265-4.014,5.715l-0.728,5.651l-4.062-4.024
			c-1.417-1.404-3.32-2.172-5.278-2.172c-0.461,0-0.926,0.042-1.388,0.129l-5.606,1.055l2.561-5.063
			c1.116-2.207,1.073-4.821-0.115-6.99l-2.727-4.975L281.367,47.931z"/>
		<path d="M49.062,141.184l-7.641,15.106c-2.953,5.837,2.594,11.789,8.08,10.756l16.681-3.14l12.045,11.932
			c4.457,4.416,11.949,1.595,12.717-4.371l2.161-16.787l15.087-7.743c5.433-2.789,5.301-10.847-0.223-13.454l-15.335-7.242
			l-2.715-16.707c-0.979-6.018-8.667-8.382-12.854-3.948l-11.644,12.322l-16.775-2.587c-5.518-0.853-10.864,5.281-7.721,11.017
			L49.062,141.184z M67.024,133.333c2.437,0.376,4.902-0.469,6.595-2.261l3.927-4.156l0.914,5.625
			c0.396,2.438,1.968,4.524,4.201,5.579l5.135,2.425l-5.051,2.592c-2.197,1.128-3.698,3.265-4.014,5.715l-0.728,5.651l-4.062-4.024
			c-1.417-1.404-3.32-2.172-5.278-2.172c-0.461,0-0.926,0.042-1.388,0.129l-5.606,1.055l2.561-5.063
			c1.116-2.207,1.073-4.821-0.115-6.99l-2.727-4.975L67.024,133.333z"/>
		<path d="M347.693,102.5c9.652,0,9.668-15,0-15C338.041,87.5,338.025,102.5,347.693,102.5z"/>
		<path d="M185.063,42.269c9.652,0,9.668-15,0-15C175.411,27.269,175.395,42.269,185.063,42.269z"/>
	</g>
</g>
<g>
</g>
<g>
</g>
<g>
</g>
<g>
</g>
<g>
</g>
<g>
</g>
<g>
</g>
<g>
</g>
<g>
</g>
<g>
</g>
<g>
</g>
<g>
</g>
<g>
</g>
<g>
</g>
<g>
</g>
</svg>
