<?xml version="1.0" encoding="iso-8859-1"?>
<!-- Generator: Adobe Illustrator 25.0.0, SVG Export Plug-In . SVG Version: 6.00 Build 0)  -->
<svg version="1.1" id="Layer_1" xmlns="http://www.w3.org/2000/svg" xmlns:xlink="http://www.w3.org/1999/xlink" x="0px" y="0px"
	 viewBox="0 0 512 512" style="enable-background:new 0 0 512 512;" xml:space="preserve">
<g>
	<g>
		<g>
			<g>
				<polygon style="fill:#EBF7FF;" points="353.037,504.5 79.178,504.5 79.178,7.5 432.822,7.5 432.822,424.715 				"/>
				<polygon style="fill:#D9EDFA;" points="392.822,7.5 392.822,424.715 392.876,464.661 432.822,424.715 432.822,7.5 				"/>
				<polygon style="fill:#B5C8FF;" points="353.037,504.5 353.037,424.715 432.822,424.715 				"/>
			</g>
		</g>
		<polygon style="fill:#FFCA21;" points="432.822,129.86 256,193.508 79.178,129.86 79.178,7.5 432.822,7.5 		"/>
		<g>
			<polygon style="fill:#F2BB0C;" points="392.822,7.5 392.822,144.258 432.822,129.86 432.822,7.5 			"/>
		</g>
		<g>
			<circle style="fill:#FFCA21;" cx="143.374" cy="251.15" r="13.811"/>
		</g>
		<g>
			<circle style="fill:#FFCA21;" cx="143.374" cy="311.657" r="13.811"/>
		</g>
		<g>
			<circle style="fill:#FFCA21;" cx="143.374" cy="372.165" r="13.811"/>
		</g>
		<g>
			<g>
				<circle style="fill:#FFCA21;" cx="143.374" cy="432.672" r="13.811"/>
			</g>
		</g>
	</g>
	<g>
		<path d="M432.822,329.543c4.143,0,7.5-3.358,7.5-7.5V7.5c0-4.142-3.357-7.5-7.5-7.5H79.178c-4.143,0-7.5,3.358-7.5,7.5v497
			c0,4.142,3.357,7.5,7.5,7.5h273.859c1.968,0,3.912-0.807,5.304-2.197l79.785-79.785c1.388-1.388,2.196-3.341,2.196-5.303V361.94
			c0-9.697-15-9.697-15,0v55.275h-72.285c-4.143,0-7.5,3.358-7.5,7.5V497H86.678V140.531l72.074,25.944
			c8.782,3.164,14.152-10.848,5.08-14.113l-77.154-27.772V15h338.645v109.589L256,185.537l-58.815-21.17
			c-9.123-3.286-14.205,10.829-5.08,14.113l61.355,22.085c1.693,0.591,3.387,0.591,5.08,0l166.782-60.034v181.512
			C425.322,326.185,428.68,329.543,432.822,329.543z M360.537,432.215h54.179l-27.089,27.089l-27.089,27.089V432.215z"/>
		<path d="M351.529,123.316c4.143,0,7.5-3.358,7.5-7.5V53.01c0-4.142-3.357-7.5-7.5-7.5h-13.425c-4.143,0-7.5,3.358-7.5,7.5
			s3.357,7.5,7.5,7.5h5.925v55.307C344.029,119.958,347.387,123.316,351.529,123.316z"/>
		<path d="M179.179,79.926c-9.945,14.211-15.879,21.979-19.066,26.153c-3.894,5.098-5.848,7.656-4.576,11.79
			c0.75,2.438,2.594,4.307,5.062,5.129c0.981,0.327,1.924,0.641,14.298,0.641c4.79,0,11.292-0.047,20.172-0.159
			c4.143-0.052,7.458-3.452,7.405-7.594c-0.051-4.11-3.398-7.406-7.497-7.406c-0.032,0-0.064,0-0.096,0
			c-6.056,0.076-12.47,0.127-17.886,0.141c3.454-4.63,8.177-11.099,14.474-20.096c3.815-5.45,8.344-13.206,8.344-20.365
			c0-12.997-10.574-23.571-23.571-23.571c-11.237,0-20.964,7.995-23.129,19.01c-0.799,4.064,1.849,8.007,5.913,8.806
			c4.066,0.798,8.007-1.849,8.806-5.913c0.786-4,4.323-6.902,8.41-6.902c4.591,0,8.351,3.628,8.562,8.167
			C183.876,72.267,181.856,76.102,179.179,79.926z"/>
		<path d="M318.337,72.285c3.231-13.981-9.127-27.695-23.066-27.695c-11.238,0-20.966,7.995-23.129,19.011
			c-0.798,4.064,1.85,8.006,5.914,8.805c4.076,0.798,8.008-1.85,8.805-5.914c0.785-3.999,4.322-6.901,8.41-6.901
			c4.591,0,8.35,3.628,8.561,8.167c-0.926,4.509-2.946,8.344-5.622,12.168c-9.943,14.208-15.877,21.977-19.064,26.15
			c-3.896,5.1-5.85,7.659-4.578,11.793c0.75,2.438,2.594,4.79,5.06,5.612c0.982,0.327,25.595,0.111,34.471,0
			c4.143-0.052,7.458-3.452,7.405-7.594c-0.051-4.11-3.398-7.406-7.497-7.406c-0.032,0-0.064,0-0.096,0
			c-6.056,0.076-12.47,0.127-17.886,0.141c3.454-4.63,8.178-11.099,14.475-20.096C314.54,82.751,317.177,77.287,318.337,72.285z"/>
		<path d="M262.899,98.936V69.89c0-14.15-11.512-25.662-25.662-25.662S211.575,55.74,211.575,69.89v29.046
			c0,14.15,11.512,25.662,25.662,25.662S262.899,113.086,262.899,98.936z M226.575,98.936V69.89c0-5.879,4.783-10.662,10.662-10.662
			s10.662,4.783,10.662,10.662v29.046c0,5.879-4.783,10.662-10.662,10.662S226.575,104.815,226.575,98.936z"/>
		<path d="M143.374,229.839c-11.751,0-21.311,9.56-21.311,21.311c0,11.751,9.56,21.311,21.311,21.311s21.311-9.56,21.311-21.311
			C164.685,239.399,155.125,229.839,143.374,229.839z M143.374,257.46c-3.479,0-6.311-2.831-6.311-6.311
			c0-3.479,2.831-6.311,6.311-6.311s6.311,2.831,6.311,6.311C149.685,254.629,146.854,257.46,143.374,257.46z"/>
		<path d="M380.084,243.057H187.707c-4.143,0-7.5,3.358-7.5,7.5s3.357,7.5,7.5,7.5h192.377c4.143,0,7.5-3.358,7.5-7.5
			S384.227,243.057,380.084,243.057z"/>
		<path d="M143.374,290.347c-11.751,0-21.311,9.56-21.311,21.311s9.56,21.311,21.311,21.311s21.311-9.56,21.311-21.311
			S155.125,290.347,143.374,290.347z M143.374,317.968c-3.479,0-6.311-2.831-6.311-6.311s2.831-6.311,6.311-6.311
			s6.311,2.831,6.311,6.311S146.854,317.968,143.374,317.968z"/>
		<path d="M380.084,303.564H187.707c-4.143,0-7.5,3.358-7.5,7.5s3.357,7.5,7.5,7.5h192.377c4.143,0,7.5-3.358,7.5-7.5
			S384.227,303.564,380.084,303.564z"/>
		<path d="M143.374,350.854c-11.751,0-21.311,9.56-21.311,21.311c0,11.75,9.56,21.311,21.311,21.311s21.311-9.56,21.311-21.311
			C164.685,360.414,155.125,350.854,143.374,350.854z M143.374,378.476c-3.479,0-6.311-2.831-6.311-6.311
			c0-3.48,2.831-6.311,6.311-6.311s6.311,2.831,6.311,6.311C149.685,375.645,146.854,378.476,143.374,378.476z"/>
		<path d="M387.584,371.572c0-4.142-3.357-7.5-7.5-7.5H187.707c-4.143,0-7.5,3.358-7.5,7.5s3.357,7.5,7.5,7.5h192.377
			C384.227,379.072,387.584,375.714,387.584,371.572z"/>
		<path d="M143.374,411.362c-11.751,0-21.311,9.56-21.311,21.311s9.56,21.311,21.311,21.311s21.311-9.56,21.311-21.311
			S155.125,411.362,143.374,411.362z M143.374,438.983c-3.479,0-6.311-2.831-6.311-6.311s2.831-6.311,6.311-6.311
			s6.311,2.831,6.311,6.311S146.854,438.983,143.374,438.983z"/>
		<path d="M187.707,424.58c-4.143,0-7.5,3.358-7.5,7.5s3.357,7.5,7.5,7.5H308c4.143,0,7.5-3.358,7.5-7.5s-3.357-7.5-7.5-7.5H187.707
			z"/>
	</g>
</g>
<g>
</g>
<g>
</g>
<g>
</g>
<g>
</g>
<g>
</g>
<g>
</g>
<g>
</g>
<g>
</g>
<g>
</g>
<g>
</g>
<g>
</g>
<g>
</g>
<g>
</g>
<g>
</g>
<g>
</g>
</svg>
