<?xml version="1.0" encoding="iso-8859-1"?>
<!-- Generator: Adobe Illustrator 25.0.0, SVG Export Plug-In . SVG Version: 6.00 Build 0)  -->
<svg version="1.1" id="Layer_1" xmlns="http://www.w3.org/2000/svg" xmlns:xlink="http://www.w3.org/1999/xlink" x="0px" y="0px"
	 viewBox="0 0 511.376 511.376" style="enable-background:new 0 0 511.376 511.376;" xml:space="preserve">
<g>
	<g>
		<polygon style="fill:#FFE594;" points="95.126,418.891 255.709,51.84 415.119,419.618 		"/>
		<polygon style="fill:#F7D877;" points="375.079,419.527 415.119,419.618 255.709,51.84 235.616,97.768 		"/>
		<g>
			<polygon style="fill:#F2A7D0;" points="209.331,194.032 244.476,201.688 229.209,169.291 247.391,138.418 215.992,142.312 
				182.992,217.741 183.066,218.482 			"/>
			<polygon style="fill:#F2A7D0;" points="156.725,341.476 192.703,341.595 213.001,371.135 224.232,337.145 258.756,327.077 
				229.72,305.951 230.759,270.188 201.582,291.122 167.7,279.088 178.704,313.151 			"/>
			<polygon style="fill:#F2A7D0;" points="295.357,455.812 320.882,430.597 356.239,437.212 340.012,405.28 357.265,373.884 
				321.711,379.364 297.017,353.345 291.271,388.663 258.756,403.979 290.758,420.327 			"/>
			<polygon style="fill:#F2A7D0;" points="268.713,233.843 296.424,256.661 293.231,292.298 323.617,273.141 358.052,287.741 
				355.059,280.759 316.946,192.828 303.781,225.85 			"/>
		</g>
		<g>
			<path style="fill:#41CCB4;" d="M295.316,41.762c0,6.362-10.059,10.11-13.046,15.249c-3.084,5.307-1.408,15.789-6.741,18.861
				c-5.174,2.98-13.43-3.592-19.84-3.592c-6.41,0-14.665,6.572-19.84,3.592c-5.333-3.072-3.657-13.554-6.741-18.861
				c-2.987-5.139-13.046-8.887-13.046-15.249c0-6.362,10.059-10.11,13.046-15.249c3.084-5.307,1.408-15.789,6.741-18.861
				c5.174-2.98,13.43,3.592,19.84,3.592c6.41,0,14.665-6.572,19.84-3.592c5.333,3.072,3.657,13.554,6.741,18.861
				C285.256,31.652,295.316,35.399,295.316,41.762z"/>
			<g>
				<path style="fill:#0FBA9D;" d="M282.27,26.513c-3.084-5.307-1.408-15.789-6.741-18.861c-5.174-2.98-13.43,3.592-19.84,3.592
					c-2.662,0-5.642-1.133-8.588-2.246c3.429,4.081,2.44,12.819,5.169,17.515c2.987,5.139,13.046,8.887,13.046,15.249
					c0,6.362-10.059,10.11-13.046,15.249c-2.729,4.696-1.74,13.434-5.169,17.515c2.946-1.112,5.926-2.246,8.588-2.246
					c6.41,0,14.665,6.573,19.84,3.592c5.333-3.072,3.657-13.554,6.741-18.861c2.987-5.139,13.046-8.887,13.046-15.249
					C295.316,35.399,285.256,31.652,282.27,26.513z"/>
			</g>
			<path style="fill:none;" d="M295.316,41.762c0,6.362-10.059,10.11-13.046,15.249c-3.084,5.307-1.408,15.789-6.741,18.861
				c-5.174,2.98-13.43-3.592-19.84-3.592c-6.41,0-14.665,6.572-19.84,3.592c-5.333-3.072-3.657-13.554-6.741-18.861
				c-2.987-5.139-13.046-8.887-13.046-15.249c0-6.362,10.059-10.11,13.046-15.249c3.084-5.307,1.408-15.789,6.741-18.861
				c5.174-2.98,13.43,3.592,19.84,3.592c6.41,0,14.665-6.572,19.84-3.592c5.333,3.072,3.657,13.554,6.741,18.861
				C285.256,31.652,295.316,35.399,295.316,41.762z"/>
		</g>
		<path style="fill:#41CCB4;" d="M405.73,404.712c-12.44-0.896-23.994,2.748-33.171,9.433c-4.302,3.133-10.124,2.978-14.44-0.135
			c-8.222-5.932-18.333-9.432-29.268-9.432c-10.935,0-21.045,3.5-29.267,9.431c-4.386,3.164-10.243,3.164-14.628,0
			c-8.222-5.931-18.332-9.431-29.267-9.431c-10.935,0-21.045,3.5-29.267,9.431c-4.386,3.164-10.243,3.164-14.628,0
			c-8.222-5.931-18.332-9.431-29.267-9.431c-10.935,0-21.045,3.5-29.268,9.432c-4.316,3.114-10.139,3.268-14.44,0.135
			c-9.177-6.684-20.731-10.329-33.171-9.433c-25.161,1.813-45.218,22.516-46.173,47.584c-1.079,28.3,21.672,51.579,49.89,51.579
			c10.935,0,21.045-3.5,29.267-9.431c4.386-3.164,10.243-3.164,14.628,0c8.222,5.931,18.332,9.431,29.267,9.431
			s21.045-3.5,29.267-9.431c4.386-3.164,10.243-3.164,14.628,0c8.222,5.931,18.332,9.431,29.267,9.431
			c10.935,0,21.045-3.5,29.267-9.431c4.386-3.164,10.243-3.164,14.628,0c8.222,5.931,18.332,9.431,29.267,9.431
			c10.935,0,21.045-3.5,29.267-9.431c4.386-3.164,10.243-3.164,14.628,0c8.222,5.931,18.332,9.431,29.267,9.431
			c28.218,0,50.968-23.28,49.89-51.58C450.947,427.228,430.891,406.525,405.73,404.712z"/>
		<g>
			<path style="fill:#0FBA9D;" d="M451.903,452.296c-0.956-25.068-21.012-45.772-46.173-47.584
				c-8.484-0.611-16.555,0.893-23.742,4.03c17.058,7.47,29.177,24.207,29.915,43.554c0.807,21.162-11.713,39.513-29.878,47.426
				c6.121,2.666,12.878,4.154,19.988,4.154C430.231,503.876,452.982,480.597,451.903,452.296z"/>
		</g>
	</g>
	<g>
		<path d="M459.398,452.011c-0.533-13.98-6.258-27.28-16.121-37.449c-8.004-8.253-18.171-13.861-29.206-16.22L277.484,83.218
			c7.091-2.797,8.96-10.159,10.008-16.885c0.875-5.61,1.387-6.093,5.274-9.165c12.163-9.615,12.38-21.029,0-30.814
			c-3.886-3.073-4.399-3.553-5.273-9.165c-2.299-14.746-11.46-20.649-25.937-15.181c-3.911,2.313-7.822,2.313-11.733,0
			c-14.638-5.527-23.685,0.726-25.937,15.182c-0.875,5.612-1.387,6.092-5.274,9.165c-12.164,9.615-12.378,21.028,0,30.814
			c3.886,3.072,4.4,3.553,5.273,9.165c1.042,6.684,2.89,14.035,9.919,16.865c-8.986,20.54-17.973,41.081-26.959,61.621
			c-4.439,10.147,10.026,13.36,14.451,4.393l11.904-1.476l-10.453,17.749c-1.259,2.138-1.379,4.759-0.322,7.003l8.781,18.633
			l-20.278-4.417c-2.96-0.303-5.336,0.44-7.128,2.231c0.89-3.495-0.843-7.22-4.255-8.714c-3.795-1.661-8.217,0.07-9.878,3.864
			l-93.896,214.62c-10.44,2.537-20.04,7.989-27.671,15.856c-9.862,10.168-15.587,23.468-16.12,37.449
			c-0.596,15.642,5.054,30.467,15.911,41.745c10.938,11.362,25.667,17.62,41.474,17.62c12.178,0,23.816-3.751,33.655-10.848
			c1.778-1.283,4.076-1.282,5.853,0c9.839,7.097,21.477,10.848,33.655,10.848c12.178,0,23.815-3.751,33.655-10.848
			c1.778-1.283,4.075-1.282,5.853,0c9.839,7.097,21.477,10.848,33.654,10.848c12.178,0,23.816-3.751,33.655-10.849
			c1.777-1.282,4.074-1.282,5.853,0c9.839,7.097,21.477,10.848,33.654,10.848c12.178,0,23.816-3.751,33.655-10.848
			c1.777-1.283,4.075-1.283,5.853,0c9.839,7.097,21.477,10.848,33.654,10.848c10.2,0,20.235-2.712,29.02-7.842
			c8.374-4.891,0.81-17.841-7.564-12.953c-6.492,3.791-13.911,5.795-21.455,5.795c-9.008,0-17.611-2.771-24.879-8.013
			c-7-5.049-16.406-5.049-23.404,0c-7.268,5.242-15.871,8.013-24.879,8.013c-9.008,0-17.611-2.771-24.878-8.013
			c-7.001-5.05-16.406-5.05-23.404,0c-7.268,5.242-15.871,8.013-24.879,8.013c-9.008,0-17.611-2.771-24.879-8.013
			c-7-5.051-16.405-5.051-23.404,0c-7.268,5.242-15.871,8.013-24.879,8.013c-9.008,0-17.612-2.771-24.879-8.013
			c-7-5.049-16.405-5.049-23.404,0c-7.268,5.242-15.871,8.013-24.879,8.013c-11.692,0-22.583-4.625-30.667-13.023
			c-8.002-8.313-12.167-19.241-11.728-30.771c0.805-21.122,18.031-38.863,39.217-40.39c10.101-0.731,20.123,2.119,28.217,8.015
			c6.87,5.003,16.211,4.958,23.244-0.115c7.268-5.243,15.872-8.014,24.88-8.014c9.008,0,17.611,2.771,24.879,8.013
			c7,5.049,16.405,5.049,23.403,0c7.269-5.243,15.872-8.014,24.88-8.014c9.008,0,17.612,2.771,24.879,8.013
			c6.999,5.049,16.404,5.049,23.404,0c7.268-5.243,15.871-8.014,24.879-8.014c9.009,0,17.613,2.771,24.88,8.014
			c7.033,5.073,16.373,5.119,23.244,0.114c8.094-5.896,18.116-8.744,28.215-8.014c21.186,1.526,38.413,19.268,39.218,40.39
			c0.143,3.753-0.212,7.504-1.057,11.147c-2.188,9.447,12.424,12.834,14.613,3.386C459.11,462.176,459.591,457.093,459.398,452.011z
			 M301.191,250.872l-15.921-13.11l20.178-4.599c2.405-0.548,4.387-2.244,5.3-4.535l6.427-16.119l26.421,60.957l-17.051-7.229
			c-2.261-0.958-4.85-0.749-6.928,0.561l-17.563,11.073l1.84-20.539C304.114,254.864,303.103,252.446,301.191,250.872z
			 M227.914,45.402c-1.377-1.213-2.753-2.427-4.13-3.64c1.376-1.213,2.753-2.426,4.129-3.639
			c6.596-5.213,9.498-10.318,10.792-18.622c0.34-1.681,0.68-3.363,1.02-5.044c1.599,0.528,3.199,1.057,4.798,1.585
			c8.085,3.053,14.244,3.053,22.329,0c1.599-0.528,3.199-1.057,4.798-1.585c0.34,1.681,0.68,3.363,1.02,5.044
			c1.295,8.305,4.196,13.408,10.792,18.622c1.376,1.213,2.753,2.426,4.129,3.64c-1.376,1.213-2.753,2.426-4.129,3.64
			c-6.596,5.214-9.498,10.317-10.792,18.622c-0.232,1.491-0.592,3.797-1.02,5.044c-5.566-1.121-10.078-4.287-15.963-4.287
			c-5.359,0-10.964,2.636-15.963,4.287c-0.34-1.681-0.68-3.363-1.02-5.044C237.411,55.718,234.51,50.616,227.914,45.402z
			 M295.196,407.926c-1.777,1.282-4.075,1.283-5.853,0c-3.02-2.178-6.211-4.038-9.533-5.574l14.656-6.904
			c2.236-1.054,3.81-3.141,4.207-5.581l3.317-20.388l14.281,15.047c1.693,1.784,4.151,2.622,6.583,2.25l20.505-3.161l-7.621,13.87
			C321.597,395.81,306.76,399.586,295.196,407.926z M368.143,408.083c-1.614,1.175-3.878,1.112-5.636-0.155
			c-3.697-2.667-7.648-4.861-11.786-6.562l13.117-23.87c3.155-5.741-2.197-11.872-7.715-11.024l-31.673,4.882l-21.992-23.171
			c-4.193-4.416-11.864-2.053-12.843,3.958l-5.112,31.421L255.8,397.081c-0.037,0-0.074-0.002-0.112-0.002
			c-12.178,0-23.815,3.751-33.655,10.848c-1.777,1.283-4.075,1.282-5.853,0c-9.839-7.097-21.477-10.848-33.654-10.848
			c-12.179,0-23.817,3.751-33.656,10.849c-1.758,1.268-4.024,1.33-5.637,0.155c-8.885-6.472-19.471-10.229-30.427-10.893
			l48.99-111.978l8.552,26.473L150.8,336.879c-4.017,5.176,0.312,12.08,5.9,12.098l32.047,0.105l18.072,26.301
			c3.675,5.348,11.468,3.657,13.302-1.895l9.994-30.247l30.74-8.965c5.871-1.713,7.258-9.666,2.312-13.265l-25.837-18.797
			l0.924-31.808c0.161-5.573-6.564-10.119-11.869-6.312l-25.99,18.647c-9.668-3.434-28.397-9.519-32.646-11.137l21.123-48.282
			l22.696-21.127l31.311,6.82c5.457,1.189,11.169-4.606,8.381-10.525l-13.577-28.81l16.169-27.457
			c3.322-5.641-1.841-11.939-7.386-11.249l-18.18,2.255l22.839-52.203c3.014-1.654,6.03-1.663,9.047-0.029l48.59,112.103
			l-10.49,26.311l-31.228,7.118c-5.962,1.359-7.823,9.215-3.101,13.102l24.655,20.302l-2.839,31.694
			c-0.544,6.071,6.311,10.265,11.47,7.013l27.068-17.065l27.948,11.849l45.021,103.869
			C386.778,398.169,376.676,401.868,368.143,408.083z M185.841,310.845l-6.333-19.605l19.563,6.949
			c2.315,0.821,4.886,0.458,6.882-0.974l16.868-12.102l-0.599,20.62c-0.072,2.475,1.083,4.826,3.084,6.283l16.684,12.138
			l-19.858,5.792c-2.369,0.691-4.247,2.504-5.021,4.847l-6.489,19.637l-11.738-17.082c-1.394-2.029-3.695-3.244-6.156-3.252
			l-20.729-0.068l12.63-16.278C186.15,315.79,186.604,313.205,185.841,310.845z"/>
		<path d="M98.561,452.524c0-4.142-3.358-7.5-7.5-7.5s-7.5,3.358-7.5,7.5c0,14.785,12.077,26.814,26.921,26.814
			c4.142,0,7.5-3.358,7.5-7.5s-3.358-7.5-7.5-7.5C103.909,464.338,98.561,459.038,98.561,452.524z"/>
	</g>
</g>
<g>
</g>
<g>
</g>
<g>
</g>
<g>
</g>
<g>
</g>
<g>
</g>
<g>
</g>
<g>
</g>
<g>
</g>
<g>
</g>
<g>
</g>
<g>
</g>
<g>
</g>
<g>
</g>
<g>
</g>
</svg>
