<?xml version="1.0" encoding="iso-8859-1"?>
<!-- Generator: Adobe Illustrator 25.0.0, SVG Export Plug-In . SVG Version: 6.00 Build 0)  -->
<svg version="1.1" id="Layer_1" xmlns="http://www.w3.org/2000/svg" xmlns:xlink="http://www.w3.org/1999/xlink" x="0px" y="0px"
	 viewBox="0 0 512.167 512.167" style="enable-background:new 0 0 512.167 512.167;" xml:space="preserve">
<g>
	<g>
		<path style="fill:#F2A7D0;" d="M31.41,318.903c-4.263,1.578-9.127,1.524-13.577-0.538c-8.862-4.106-12.717-14.618-8.61-23.48
			l88.473-187.966c17.945-38.731,65.562-54.26,102.861-33.213l17.348,10.013c19.842,10.67,1.442,41.757-17.194,30.312l-16.161-9.29
			c-19.543-11.027-45.197-3.596-54.763,17.048L41.313,309.754C39.269,314.166,35.636,317.338,31.41,318.903z"/>
		<path style="fill:#F2A7D0;" d="M480.749,318.903c4.263,1.578,9.127,1.524,13.577-0.538c8.862-4.106,12.717-14.618,8.611-23.48
			l-88.473-187.966c-17.945-38.731-65.562-54.26-102.861-33.213l-17.348,10.013c-19.842,10.67-1.442,41.757,17.194,30.312
			l16.161-9.29c19.543-11.027,45.197-3.596,54.763,17.048l88.473,187.966C472.89,314.166,476.523,317.338,480.749,318.903z"/>
		<g>
			<g>
				<g>
					<path style="fill:#EB67A5;" d="M150.623,219.854l22.159,45.175c3.053,6.224,8.954,10.537,15.78,11.535l49.549,7.244
						c17.19,2.513,24.054,23.768,11.615,35.967l-35.854,35.164c-4.94,4.844-7.194,11.824-6.027,18.664l8.464,49.652
						c2.936,17.226-15.034,30.362-30.409,22.229l-44.318-23.442c-6.106-3.23-13.4-3.23-19.505,0l-44.318,23.442
						c-15.375,8.133-33.346-5.003-30.409-22.229l8.464-49.652c1.166-6.84-1.088-13.82-6.027-18.664l-35.854-35.164
						c-12.439-12.199-5.575-33.454,11.615-35.967l49.549-7.244c6.826-0.998,12.727-5.312,15.78-11.535l22.159-45.175
						C120.723,204.181,142.936,204.181,150.623,219.854z"/>
					<g>
						<path style="fill:#E34D94;" d="M249.727,319.776c12.439-12.199,5.575-33.454-11.615-35.967l-49.549-7.244
							c-6.826-0.998-12.727-5.312-15.78-11.535l-22.159-45.175c-7.688-15.673-29.9-15.673-37.588,0l-9.31,18.98l21.474,43.778
							c3.053,6.224,33.897,101.735,35.063,108.575l7.632,44.773l18.006,9.524c15.375,8.133,33.346-5.003,30.409-22.229
							l-8.464-49.652c-1.166-6.84,1.088-13.82,6.027-18.665L249.727,319.776z"/>
					</g>
					<path style="fill:#EBF7FF;" d="M89.918,379.489c3.092-18.136-2.881-36.634-15.978-49.48l-16.058-15.748l22.19-3.244
						c18.099-2.646,33.737-14.077,41.833-30.58l9.925-20.232l9.924,20.231c8.094,16.502,23.733,27.935,41.834,30.581l22.19,3.244
						l-16.057,15.747c-13.099,12.846-19.072,31.345-15.979,49.482l3.79,22.234l-19.847-10.498
						c-7.943-4.201-16.883-6.421-25.855-6.421c-8.972,0-17.912,2.22-25.854,6.421l-19.848,10.499L89.918,379.489z"/>
				</g>
				<g>
					<path style="fill:#EB67A5;" d="M399.123,219.854l22.159,45.175c3.053,6.224,8.954,10.537,15.78,11.535l49.549,7.244
						c17.19,2.513,24.054,23.768,11.615,35.967l-35.854,35.164c-4.94,4.844-7.194,11.824-6.027,18.664l8.464,49.652
						c2.936,17.226-15.034,30.362-30.409,22.229l-44.318-23.442c-6.106-3.23-13.4-3.23-19.505,0l-44.318,23.442
						c-15.375,8.133-33.346-5.003-30.409-22.229l8.464-49.652c1.166-6.84-1.088-13.82-6.027-18.664l-35.854-35.164
						c-12.439-12.199-5.575-33.454,11.615-35.967l49.549-7.244c6.826-0.998,12.727-5.312,15.78-11.535l22.159-45.175
						C369.223,204.181,391.436,204.181,399.123,219.854z"/>
					<g>
						<path style="fill:#E34D94;" d="M498.228,319.776c12.439-12.199,5.575-33.454-11.615-35.967l-49.549-7.244
							c-6.826-0.998-12.727-5.312-15.78-11.535l-22.159-45.175c-7.688-15.673-29.9-15.673-37.588,0l-9.31,18.98l21.474,43.778
							c3.053,6.224,33.897,101.735,35.063,108.575l7.632,44.773l18.006,9.524c15.375,8.133,33.346-5.003,30.409-22.229
							l-8.464-49.652c-1.166-6.84,1.088-13.82,6.027-18.665L498.228,319.776z"/>
					</g>
					<path style="fill:#EBF7FF;" d="M338.418,379.489c3.091-18.137-2.882-36.633-15.977-49.478l-16.059-15.749l22.19-3.244
						c18.099-2.646,33.738-14.078,41.833-30.58l9.925-20.232l9.924,20.231c8.094,16.502,23.733,27.935,41.834,30.581l22.19,3.244
						l-16.057,15.748c-13.097,12.845-19.07,31.342-15.979,49.478l3.791,22.237l-19.847-10.498
						c-7.943-4.201-16.883-6.421-25.854-6.421c-8.972,0-17.912,2.22-25.854,6.421l-19.849,10.499L338.418,379.489z"/>
				</g>
			</g>
		</g>
	</g>
	<g>
		<path d="M206.862,306.84c-14.849-2.171-30.973-2.804-43.526-11.978c-12.572-9.188-18.148-24.453-24.773-37.96
			c-2.694-5.494-10.772-5.493-13.467,0c-6.628,13.511-12.192,28.764-24.775,37.96c-12.541,9.165-28.682,9.808-43.525,11.978
			c-6.026,0.881-8.513,8.512-4.167,12.776c11.898,11.668,25.016,22.258,29.127,39.223c3.323,13.715-0.704,28.024-3.023,41.625
			c-0.939,5.506,5.114,10.95,10.9,7.89c13.252-7.009,26.661-16.049,42.195-16.049c15.52,0,28.948,9.042,42.195,16.049
			c5.373,2.84,11.927-1.866,10.9-7.89c-2.537-14.881-6.935-30.517-2.131-45.389c4.793-14.838,17.479-24.911,28.234-35.459
			C215.376,315.352,212.887,307.721,206.862,306.84z M184.469,324.654c-17.683,17.343-20.876,39.94-16.889,63.322
			c-23.978-13.34-47.498-13.285-71.5,0c5.272-26.797-2.216-49.666-22.149-68.481c27.313-3.404,46.246-17.342,57.899-42.259
			c11.597,24.952,30.604,38.796,57.9,42.259L184.469,324.654z"/>
		<path d="M503.479,325.13c8.254-8.095,11.258-22.786,6.243-33.439l-88.453-187.925c-9.459-20.416-27.245-36.106-48.797-43.047
			c-21.489-6.922-45.019-4.569-64.618,6.491l-17.258,9.961c-27.462,14.923-2.621,59.911,24.677,43.312l16.022-9.21
			c15.669-8.84,36.696-2.683,44.292,13.71l68.246,144.992c-6.09,0.038-12.985-2.474-15.817-8.248l-22.159-45.175
			c-4.826-9.839-14.608-15.952-25.527-15.952s-20.701,6.112-25.527,15.952l-22.159,45.175c-1.964,4.004-5.751,6.776-10.132,7.417
			l-49.549,7.244c-6.653,0.972-12.547,4.185-16.882,8.945c-4.336-4.76-10.23-7.973-16.882-8.945l-49.549-7.244
			c-4.38-0.641-8.168-3.413-10.132-7.417l-22.159-45.175c0-8.095-16.125-14.622-21.569-15.397
			c-11.964-1.703-24.06,4.335-29.486,15.397l-22.159,45.175c-2.832,5.774-9.727,8.287-15.817,8.248l68.265-145.032
			c7.57-16.336,28.605-22.51,44.221-13.699l16.073,9.239c26.975,16.403,52.427-28.233,24.678-43.312l-17.321-9.997
			c-19.536-11.023-43.066-13.375-64.555-6.455C118.135,67.66,100.35,83.35,90.89,103.766c-4.076,8.799,9.533,15.104,13.61,6.306
			c7.705-16.629,22.206-29.413,39.785-35.075c17.774-5.726,36.45-3.863,52.521,5.205l17.348,10.013
			c9.977,5.776,1.286,23.62-9.707,17.314l-16.213-9.319c-23.006-12.983-54.03-3.796-65.235,20.386L50.523,272.577l-24.175,3.534
			l62.157-132.058c4.13-8.773-9.444-15.164-13.571-6.388L2.437,291.691c-5.021,10.667-1.963,25.391,6.243,33.439l35.854,35.164
			c3.187,3.125,4.639,7.629,3.885,12.049l-8.464,49.652c-3.889,22.819,20.735,41.001,41.31,30.119l44.319-23.443
			c3.911-2.069,8.58-2.069,12.491,0l44.319,23.443c20.538,10.863,45.197-7.309,41.31-30.119l-8.464-49.652
			c-0.753-4.42,0.699-8.924,3.885-12.049l35.854-35.164c0.734-1.543,1.467-1.543,2.201,0l35.854,35.163
			c3.186,3.125,4.639,7.63,3.885,12.05l-8.464,49.651c-3.889,22.818,20.734,41.002,41.31,30.12l44.318-23.443
			c3.911-2.068,8.581-2.069,12.492,0l44.318,23.442c20.539,10.863,45.197-7.31,41.309-30.12l-0.899-5.274
			c-1.63-9.559-16.417-7.037-14.786,2.521l0.899,5.273c1.844,10.814-9.696,19.531-19.509,14.339l-44.318-23.442
			c-8.303-4.393-18.217-4.392-26.52,0l-44.318,23.442c-9.813,5.191-21.353-3.525-19.509-14.339l8.464-49.651
			c1.579-9.264-1.475-18.714-8.169-25.28l-35.854-35.163c-7.847-7.697-3.508-21.59,7.449-23.192l49.549-7.244
			c9.275-1.356,17.286-7.208,21.429-15.653l22.159-45.174c2.321-4.732,6.83-7.558,12.061-7.558s9.739,2.826,12.061,7.558
			l22.159,45.175c4.143,8.446,12.153,14.297,21.429,15.653c16.516,2.415,33.033,4.829,49.549,7.244
			c10.956,1.602,15.296,15.495,7.449,23.192l-35.855,35.163c-7.639,7.493-10.319,19.064-7.17,30.954
			c2.483,9.375,16.983,5.534,14.5-3.84c-1.351-5.101-1.227-12.089,3.174-16.405L503.479,325.13z M244.476,314.421l-35.854,35.164
			c-6.694,6.565-9.749,16.015-8.169,25.279l8.464,49.652c1.844,10.813-9.696,19.532-19.509,14.339l-44.319-23.443
			c-8.231-4.353-18.288-4.353-26.519,0l-44.319,23.443c-9.813,5.191-21.353-3.524-19.509-14.339l8.464-49.652
			c1.579-9.264-1.475-18.713-8.169-25.279l-35.854-35.164c-7.848-7.697-3.507-21.589,7.449-23.192l49.549-7.244
			c9.275-1.356,17.286-7.208,21.429-15.653l22.159-45.174c4.862-9.912,19.259-9.912,24.121,0l22.159,45.175
			c4.143,8.446,12.153,14.297,21.429,15.653l49.549,7.244C247.983,292.831,252.324,306.724,244.476,314.421z M461.636,272.577
			l-72.458-153.942c-11.23-24.234-42.245-33.41-65.306-20.397l-16.161,9.29c-10.993,6.306-19.684-11.538-9.707-17.314l17.285-9.977
			c16.136-9.104,34.81-10.966,52.585-5.241c17.58,5.662,32.081,18.446,39.804,35.116l78.133,165.999L461.636,272.577z"/>
		<path d="M459.529,319.616c4.347-4.264,1.859-11.895-4.167-12.775c-14.849-2.171-30.973-2.804-43.526-11.978
			c-12.572-9.188-18.148-24.454-24.774-37.96c-2.695-5.493-10.772-5.493-13.467,0c-6.628,13.511-12.191,28.764-24.774,37.96
			c-12.542,9.165-28.682,9.808-43.525,11.978c-6.025,0.881-8.514,8.512-4.167,12.775c11.898,11.669,25.015,22.259,29.126,39.224
			c3.323,13.716-0.703,28.022-3.022,41.624c-1.027,6.023,5.527,10.731,10.9,7.89c13.252-7.009,26.662-16.049,42.195-16.049
			c15.52,0,28.948,9.043,42.195,16.049c5.787,3.06,11.839-2.384,10.9-7.89c-2.537-14.882-6.935-30.517-2.13-45.39
			C436.088,340.237,448.773,330.164,459.529,319.616z M432.969,324.654c-17.315,16.982-21.261,40.33-16.889,63.322
			c-23.978-13.34-47.497-13.284-71.5,0c5.272-26.798-2.219-49.666-22.15-68.481c27.312-3.404,46.248-17.34,57.9-42.259
			c11.599,24.951,30.602,38.795,57.9,42.259L432.969,324.654z"/>
	</g>
</g>
<g>
</g>
<g>
</g>
<g>
</g>
<g>
</g>
<g>
</g>
<g>
</g>
<g>
</g>
<g>
</g>
<g>
</g>
<g>
</g>
<g>
</g>
<g>
</g>
<g>
</g>
<g>
</g>
<g>
</g>
</svg>
