<?xml version="1.0" encoding="iso-8859-1"?>
<!-- Generator: Adobe Illustrator 25.0.0, SVG Export Plug-In . SVG Version: 6.00 Build 0)  -->
<svg version="1.1" id="Layer_1" xmlns="http://www.w3.org/2000/svg" xmlns:xlink="http://www.w3.org/1999/xlink" x="0px" y="0px"
	 viewBox="0 0 511.417 511.417" style="enable-background:new 0 0 511.417 511.417;" xml:space="preserve">
<g>
	<g>
		<g>
			
				<ellipse transform="matrix(0.9982 -0.0608 0.0608 0.9982 -12.0265 22.8214)" style="fill:#41CCB4;" cx="369.28" cy="209.184" rx="74.034" ry="73.199"/>
			<path style="fill:#0FBA9D;" d="M409.832,147.887c-18.565-11.994-40.566-14.653-60.39-9.181c7.055,1.967,13.931,5.008,20.39,9.181
				c34.207,22.099,43.78,67.458,21.384,101.312c-10.241,15.48-25.398,25.855-42.099,30.465c30.308,8.449,63.932-3.003,82.099-30.465
				C453.613,215.345,444.039,169.986,409.832,147.887z"/>
			
				<ellipse transform="matrix(0.9982 -0.0608 0.0608 0.9982 -25.9167 9.7437)" style="fill:#1E9E88;" cx="147.274" cy="431.066" rx="74.034" ry="73.199"/>
			
				<ellipse transform="matrix(0.9982 -0.0608 0.0608 0.9982 -18.7111 9.2128)" style="fill:#A1FFE6;" cx="142.147" cy="312.307" rx="74.034" ry="73.199"/>
			
				<ellipse transform="matrix(0.9982 -0.0608 0.0608 0.9982 -19.5826 22.8848)" style="fill:#A1FFE6;" cx="366.544" cy="333.473" rx="74.034" ry="73.199"/>
			<path style="fill:#7DF5D5;" d="M407.096,272.175c-18.565-11.994-40.566-14.653-60.39-9.181c7.055,1.967,13.931,5.008,20.39,9.181
				c34.207,22.099,43.781,67.458,21.384,101.312c-10.241,15.48-25.398,25.855-42.099,30.465
				c30.308,8.449,63.932-3.003,82.099-30.465C450.877,339.633,441.303,294.275,407.096,272.175z"/>
			
				<ellipse transform="matrix(0.9982 -0.0608 0.0608 0.9982 -11.2531 9.0894)" style="fill:#41CCB4;" cx="143.847" cy="189.6" rx="74.034" ry="73.199"/>
			
				<ellipse transform="matrix(0.9982 -0.0608 0.0608 0.9982 -7.8618 15.9237)" style="fill:#A1FFE6;" cx="257.931" cy="137.248" rx="74.034" ry="73.199"/>
			
				<ellipse transform="matrix(0.9982 -0.0608 0.0608 0.9982 -22.8758 16.1105)" style="fill:#41CCB4;" cx="253.496" cy="384.243" rx="74.034" ry="73.199"/>
			<path style="fill:#0FBA9D;" d="M294.048,322.945c-18.565-11.994-40.566-14.653-60.39-9.181c7.055,1.967,13.931,5.008,20.39,9.181
				c34.207,22.099,43.78,67.458,21.384,101.312c-10.241,15.48-25.398,25.855-42.099,30.465c30.308,8.449,63.932-3.003,82.099-30.465
				C337.829,390.403,328.255,345.045,294.048,322.945z"/>
			
				<ellipse transform="matrix(0.9982 -0.0608 0.0608 0.9982 -15.4178 15.9871)" style="fill:#1E9E88;" cx="255.195" cy="261.537" rx="74.034" ry="73.199"/>
		</g>
	</g>
	<g>
		<path d="M419.901,272.395c5.354-4.202,10.159-9.05,14.336-14.514c19.139-25.041,21.884-59.1,6.994-86.77
			c-4.594-8.54-17.804-1.431-13.209,7.108c12.104,22.491,9.864,50.185-5.703,70.553c-4.278,5.597-9.558,10.554-15.414,14.538
			c-21.687-12.251-47.339-13.932-70.24-4.911c-0.894-22.268-11.139-43.483-28.12-57.947c15.48-12.133,26.283-29.974,29.713-49.352
			c19.285-10.081,42.133-10.499,60.429-0.907c8.587,4.506,15.554-8.782,6.965-13.284c-16.127-8.457-35.042-10.662-53.125-6.771
			c15.201-25.831,33.134-68.693,29.459-123.365c-0.652-9.676-15.616-8.669-14.967,1.006c3.516,52.311-14.219,92.967-28.573,116.704
			c-3.622-22.384-16.858-42.535-35.894-54.833c-37.591-24.283-88.197-13.767-112.814,23.445c-4.894,7.398-8.453,15.393-10.67,23.7
			c-36.242-17.169-80.796-5.538-103.415,28.652c-21.944,33.171-15.723,78.818,14.371,104.844
			c-22.809,18.784-33.778,49.527-27.715,78.485c3.756,17.942,13.335,33.708,27.298,45.292c-3.923,3.896-7.447,8.191-10.526,12.845
			c-7.084,10.709-11.543,23.052-12.896,35.694c-1.002,9.372,13.865,11.409,14.915,1.595c1.113-10.412,4.643-20.173,10.49-29.012
			c3.045-4.603,6.624-8.773,10.667-12.453c21.261,11.819,47.106,13.547,69.765,4.637c1.064,26.554,15.529,51.222,38.084,65.233
			c-14.154,40.004-63.862,56.364-99.316,33.457c-9.256-5.98-16.898-14.188-22.1-23.738c-4.641-8.515-17.812-1.34-13.173,7.176
			c6.397,11.742,15.779,21.826,27.133,29.162c42.817,27.661,102.795,8.42,120.946-39.309c43.833,17.055,95.043-7.482,108.21-52.824
			c36.223,16.917,80.875,4.427,102.927-28.905C456.808,344.261,450.361,298.346,419.901,272.395z M320.349,248.14
			c8.518,40.683-24.152,79.089-65.351,79.086c-30.854-0.002-58.627-22.053-64.958-52.294c-3.584-17.121-0.22-34.619,9.473-49.271
			c12.776-19.312,34.125-29.814,55.878-29.814C286.244,195.847,314.019,217.901,320.349,248.14z M202.249,101.372
			c20.104-30.388,61.45-38.966,92.164-19.122c20.108,12.991,33.721,38.681,29.564,62.929c-2.3,18.582-12.92,35.719-28.417,46.206
			c-24.534-13.829-53.749-13.645-77.583-1.558c-12.991-9.591-21.886-23.351-25.2-39.184
			C189.192,133.522,192.557,116.024,202.249,101.372z M78.692,202.996c-3.584-17.122-0.22-34.62,9.473-49.272
			c19.291-29.159,58.132-38.219,88.38-21.375c-1.53,25.026,8.974,49.753,28.051,65.995c-6.691,5.242-12.668,11.597-17.592,19.04
			c-6.178,9.339-10.245,19.623-12.135,30.295c-21.448,11.174-47.206,10.032-67.505-3.082
			C92.477,234.981,82.295,220.206,78.692,202.996z M105.997,367.511c-14.492-10.724-25.218-23.723-29.004-41.809
			c-5.221-24.939,5.234-51.411,25.82-66.329c21.437,12.348,47.861,14.309,70.912,5.289c0.882,22.059,10.937,43.113,27.653,57.568
			c-14.674,12.085-24.894,29.431-28.209,48.162C151.817,381.544,126.373,380.511,105.997,367.511z M309.177,420.119
			c-19.882,30.052-61.904,38.672-92.165,19.122c-14.886-9.617-25.069-24.392-28.672-41.603c-5.221-24.94,5.235-51.41,25.821-66.328
			c12.773,7.358,26.847,10.9,40.796,10.9c13.688,0,27.245-3.409,39.319-9.926C321.537,353.087,328.123,391.481,309.177,420.119z
			 M422.225,369.349c-18.768,28.368-57.612,37.988-87.558,21.837c2.17-24.993-7.458-50.375-27.381-67.636
			c14.695-12.081,24.917-29.416,28.236-48.16c21.47-11.227,47.028-10.145,67.504,3.086
			C433.148,297.935,442.099,339.308,422.225,369.349z"/>
		<path d="M266.481,289.835c-18.217,5.136-37.245-5.358-42.416-23.392c-1.142-3.982-5.298-6.282-9.277-5.142
			c-3.981,1.142-6.284,5.295-5.142,9.277c6.165,21.5,25.975,35.561,47.458,35.561c4.445,0,8.965-0.603,13.447-1.866
			c3.986-1.124,6.308-5.267,5.184-9.253C274.611,291.032,270.468,288.711,266.481,289.835z"/>
		<path d="M160.723,344.811c-1.124-3.986-5.264-6.308-9.253-5.184c-17.256,4.864-35.279-5.075-40.176-22.154
			c-1.142-3.981-5.295-6.286-9.277-5.142c-3.981,1.142-6.284,5.295-5.142,9.277c5.938,20.709,25.021,34.254,45.713,34.254
			c4.282,0,8.634-0.581,12.952-1.797C159.526,352.941,161.847,348.798,160.723,344.811z"/>
	</g>
</g>
<g>
</g>
<g>
</g>
<g>
</g>
<g>
</g>
<g>
</g>
<g>
</g>
<g>
</g>
<g>
</g>
<g>
</g>
<g>
</g>
<g>
</g>
<g>
</g>
<g>
</g>
<g>
</g>
<g>
</g>
</svg>
