<?xml version="1.0" encoding="iso-8859-1"?>
<!-- Generator: Adobe Illustrator 25.0.0, SVG Export Plug-In . SVG Version: 6.00 Build 0)  -->
<svg version="1.1" id="Layer_1" xmlns="http://www.w3.org/2000/svg" xmlns:xlink="http://www.w3.org/1999/xlink" x="0px" y="0px"
	 viewBox="0 0 512.023 512.023" style="enable-background:new 0 0 512.023 512.023;" xml:space="preserve">
<g>
	<g>
		<g>
			<g>
				<path style="fill:#6B8DF2;" d="M256.011,462.821c-55.244,0-107.18-21.513-146.243-60.576
					c-39.063-39.063-60.576-91-60.576-146.243s21.513-107.18,60.576-146.243c39.063-39.063,90.999-60.576,146.243-60.576
					s107.18,21.513,146.243,60.576c39.063,39.063,60.576,91,60.576,146.243s-21.513,107.18-60.576,146.243
					C363.191,441.308,311.255,462.821,256.011,462.821z"/>
				<circle style="fill:#EBF7FF;" cx="256.011" cy="256.003" r="178.526"/>
				<path style="fill:#D9EDFA;" d="M256.011,77.476c-6.762,0-13.433,0.389-20,1.121c89.181,9.944,158.526,85.57,158.526,177.405
					s-69.345,167.461-158.526,177.405c6.567,0.732,13.238,1.121,20,1.121c98.597,0,178.526-79.929,178.526-178.526
					S354.609,77.476,256.011,77.476z"/>
			</g>
		</g>
		<path style="fill:#B5C8FF;" d="M256.011,280.411c-8.284,0-15-6.716-15-15V130.315c0-8.284,6.716-15,15-15s15,6.716,15,15v135.097
			C271.011,273.695,264.296,280.411,256.011,280.411z"/>
		<path style="fill:#EB67A5;" d="M256.011,253.218c-8.284,0-15-6.716-15-15v-53.097c0-8.284,6.716-15,15-15s15,6.716,15,15v53.097
			C271.011,246.502,264.296,253.218,256.011,253.218z"/>
		<circle style="fill:#FFCA21;" cx="256.011" cy="256.003" r="31"/>
		<g>
			<circle style="fill:#41CCB4;" cx="443.58" cy="23.2" r="15.697"/>
			<circle style="fill:#EB67A5;" cx="488.814" cy="150.219" r="15.697"/>
		</g>
		<g>
			<circle style="fill:#EB67A5;" cx="68.443" cy="23.2" r="15.697"/>
			<circle style="fill:#41CCB4;" cx="23.209" cy="150.219" r="15.697"/>
		</g>
		<g>
			<circle style="fill:#41CCB4;" cx="68.443" cy="488.805" r="15.697"/>
			<circle style="fill:#EB67A5;" cx="23.209" cy="361.786" r="15.697"/>
		</g>
		<g>
			<circle style="fill:#EB67A5;" cx="443.58" cy="488.805" r="15.697"/>
			<circle style="fill:#41CCB4;" cx="488.814" cy="361.786" r="15.697"/>
		</g>
	</g>
	<g>
		<path d="M402.13,391.547c-37.665,40.529-90.924,63.773-146.118,63.773c-53.239,0-103.293-20.732-140.939-58.378
			c-37.647-37.647-58.38-87.701-58.38-140.94s20.732-103.292,58.38-140.94c37.646-37.646,87.7-58.378,140.939-58.378
			s103.293,20.732,140.939,58.378c37.647,37.647,58.38,87.701,58.38,140.94c0,37.542-10.419,74.023-30.132,105.497
			c-5.147,8.218,7.565,16.18,12.713,7.962c21.209-33.863,32.419-73.097,32.419-113.458c0-57.246-22.293-111.066-62.772-151.546
			c-40.48-40.479-94.301-62.772-151.547-62.772s-111.066,22.293-151.547,62.772c-40.479,40.48-62.772,94.301-62.772,151.546
			s22.293,111.066,62.772,151.546c40.48,40.479,94.301,62.772,151.547,62.772c59.349,0,116.612-24.99,157.106-68.562
			C419.719,394.656,408.732,384.446,402.13,391.547z"/>
		<path d="M121.23,138.707c-3.234-2.588-7.954-2.063-10.542,1.171c-26.628,33.282-40.703,73.437-40.703,116.125
			c0,102.575,83.451,186.026,186.026,186.026s186.026-83.451,186.026-186.026S358.587,69.976,256.011,69.976
			c-42.68,0-82.829,14.07-116.106,40.689c-7.573,6.057,1.796,17.77,9.369,11.714c30.59-24.469,67.499-37.403,106.737-37.403
			c94.305,0,171.026,76.722,171.026,171.026s-76.722,171.026-171.026,171.026S84.985,350.307,84.985,256.003
			c0-39.246,12.938-76.16,37.416-106.754C124.989,146.014,124.464,141.295,121.23,138.707z"/>
		<path d="M186.132,149.969c5.156,8.935,17.632,0.54,12.99-7.5l-6.561-11.363c-4.847-8.399-17.839-0.898-12.99,7.5L186.132,149.969z
			"/>
		<path d="M149.978,186.124l-11.363-6.561c-8.399-4.85-15.898,8.142-7.5,12.99l11.363,6.561
			C150.512,203.752,158.602,191.103,149.978,186.124z"/>
		<path d="M108.624,256.003c0,4.142,3.357,7.5,7.5,7.5h13.121c9.697,0,9.697-15,0-15h-13.121
			C111.981,248.503,108.624,251.86,108.624,256.003z"/>
		<path d="M142.478,312.891l-11.363,6.561c-8.624,4.979-0.532,17.631,7.5,12.99l11.363-6.561
			C158.376,321.033,150.874,308.038,142.478,312.891z"/>
		<path d="M182.317,383.644c3.793,1.966,7.208,1.051,10.245-2.745l6.561-11.363c4.849-8.398-8.143-15.9-12.99-7.5l-6.561,11.363
			C177.501,376.986,178.73,381.573,182.317,383.644z"/>
		<path d="M248.511,382.77v13.121c0,9.697,15,9.697,15,0V382.77C263.511,373.072,248.511,373.072,248.511,382.77z"/>
		<path d="M312.9,369.536l6.561,11.363c5.156,8.935,17.632,0.54,12.99-7.5l-6.561-11.363
			C321.044,353.636,308.051,361.138,312.9,369.536z"/>
		<path d="M362.045,325.881l11.363,6.561c8.034,4.638,16.124-8.012,7.5-12.99l-11.363-6.561
			C361.145,308.042,353.647,321.033,362.045,325.881z"/>
		<path d="M375.278,256.003c0,4.142,3.357,7.5,7.5,7.5h13.121c9.697,0,9.697-15,0-15h-13.121
			C378.635,248.503,375.278,251.86,375.278,256.003z"/>
		<path d="M373.408,179.564l-11.363,6.561c-8.624,4.979-0.532,17.631,7.5,12.99l11.363-6.561
			C389.306,187.706,381.805,174.712,373.408,179.564z"/>
		<path d="M315.645,152.714c3.793,1.966,7.208,1.051,10.245-2.745l6.561-11.363c4.849-8.398-8.143-15.899-12.99-7.5l-6.561,11.363
			C310.829,146.057,312.058,150.644,315.645,152.714z"/>
		<path d="M278.511,130.315c0-28.883-45-28.926-45,0v54.806v39.67c-9.682,6.999-16,18.378-16,31.212c0,21.229,17.271,38.5,38.5,38.5
			s38.5-17.271,38.5-38.5c0-12.833-6.318-24.212-16-31.212v-39.67V130.315z M256.011,122.815c4.136,0,7.5,3.364,7.5,7.5v33.596
			c-5-1.72-10-1.72-15,0v-33.596C248.511,126.179,251.876,122.815,256.011,122.815z M256.011,279.503
			c-12.958,0-23.5-10.542-23.5-23.5c0-12.958,10.542-23.5,23.5-23.5s23.5,10.542,23.5,23.5
			C279.511,268.961,268.969,279.503,256.011,279.503z M256.011,217.503c-2.566,0-5.073,0.258-7.5,0.739v-33.121
			c0-9.695,15-9.695,15,0v33.121C261.084,217.76,258.578,217.503,256.011,217.503z"/>
		<path d="M502.937,256.434c-3.292-3.259-4.627-4.723-4.63-8.251c-0.003-3.531,1.332-5,4.622-8.274
			c3.819-3.8,9.049-9.005,9.042-18.917c-0.007-9.414-15.007-9.877-15,0.011c0.003,3.531-1.332,5-4.622,8.274
			c-3.819,3.801-9.05,9.005-9.042,18.918c0.007,9.917,5.248,15.108,9.074,18.897c3.292,3.259,4.627,4.723,4.63,8.25
			c0.003,3.531-1.332,5-4.622,8.274c-3.819,3.8-9.049,9.005-9.042,18.918c0.007,9.414,15.007,9.877,15-0.011
			c-0.003-3.531,1.332-5.001,4.622-8.275c3.819-3.8,9.049-9.005,9.042-18.917C512.005,265.414,506.763,260.224,502.937,256.434z"/>
		<path d="M9.053,294.249c3.29,3.274,4.625,4.744,4.622,8.275c-0.007,9.413,14.993,9.898,15,0.011
			c0.007-9.913-5.223-15.117-9.042-18.917c-3.29-3.274-4.625-4.744-4.622-8.275c0.003-3.527,1.338-4.99,4.63-8.25
			c3.826-3.79,9.067-8.979,9.074-18.896c0.008-9.913-5.223-15.118-9.041-18.918c-3.291-3.274-4.626-4.744-4.623-8.274
			c0.007-9.413-14.993-9.898-15-0.011c-0.007,9.913,5.223,15.117,9.042,18.917c3.29,3.274,4.625,4.744,4.622,8.275
			c-0.003,3.527-1.338,4.99-4.63,8.25c-3.826,3.79-9.067,8.979-9.074,18.897C0.005,285.244,5.234,290.448,9.053,294.249z"/>
		<path d="M443.689,94.483c-0.361,4.627-0.615,6.597-3.307,8.883c-7.469,6.346,2.446,17.604,9.713,11.431
			c7.554-6.418,8.129-13.774,8.549-19.146c0.361-4.627,0.615-6.597,3.306-8.883c2.688-2.284,4.67-2.215,9.284-1.82
			c5.367,0.46,12.715,1.086,20.273-5.334c7.554-6.418,8.129-13.774,8.548-19.146c0.361-4.627,0.615-6.596,3.307-8.883
			c7.39-6.279-2.321-17.708-9.713-11.431c-7.554,6.418-8.129,13.774-8.548,19.146c-0.361,4.627-0.615,6.596-3.306,8.882
			c-2.688,2.284-4.668,2.216-9.284,1.82c-5.365-0.458-12.715-1.085-20.273,5.335C444.684,81.756,444.109,89.112,443.689,94.483z"/>
		<path d="M322.064,14.413c3.253,1.373,4.087,3.174,5.821,7.48c2.014,4.997,4.771,11.841,13.904,15.694
			c9.137,3.855,15.959,1.048,20.939-1c4.284-1.764,6.152-2.422,9.401-1.052c3.253,1.373,4.087,3.174,5.822,7.48
			c2.013,4.997,4.771,11.841,13.904,15.694c8.6,3.63,14.732-10.065,5.83-13.82c-3.253-1.373-4.087-3.174-5.822-7.48
			c-2.013-4.997-4.771-11.841-13.904-15.694c-9.137-3.854-15.958-1.049-20.938,1c-4.282,1.762-6.148,2.423-9.402,1.052
			c-3.253-1.373-4.086-3.174-5.82-7.479c-2.014-4.997-4.771-11.841-13.905-15.694c-3.815-1.611-8.216,0.178-9.825,3.995
			C316.459,8.404,318.248,12.803,322.064,14.413z"/>
		<path d="M443.58,46.397c12.791,0,23.197-10.406,23.197-23.197S456.371,0.003,443.58,0.003S420.382,10.409,420.382,23.2
			S430.789,46.397,443.58,46.397z M443.58,15.003c4.52,0,8.197,3.677,8.197,8.197s-3.678,8.197-8.197,8.197
			s-8.197-3.677-8.197-8.197S439.06,15.003,443.58,15.003z"/>
		<path d="M488.814,127.022c-12.791,0-23.197,10.406-23.197,23.197s10.406,23.197,23.197,23.197s23.197-10.406,23.197-23.197
			S501.605,127.022,488.814,127.022z M488.814,158.417c-4.52,0-8.197-3.677-8.197-8.197s3.678-8.197,8.197-8.197
			s8.197,3.677,8.197,8.197S493.334,158.417,488.814,158.417z"/>
		<path d="M8.661,51.586c2.691,2.287,2.945,4.255,3.307,8.883c0.419,5.372,0.994,12.728,8.549,19.146
			c7.557,6.42,14.904,5.793,20.272,5.334c4.614-0.395,6.595-0.464,9.283,1.82c2.691,2.287,2.945,4.256,3.307,8.883
			c0.42,5.371,0.995,12.728,8.549,19.146c7.267,6.173,17.182-5.085,9.713-11.431c-2.691-2.287-2.945-4.256-3.307-8.883
			c-0.42-5.371-0.995-12.728-8.55-19.146c-7.557-6.421-14.906-5.792-20.272-5.334c-4.616,0.395-6.596,0.464-9.283-1.82
			c-2.691-2.286-2.945-4.255-3.307-8.882c-0.419-5.371-0.994-12.727-8.548-19.146C10.983,33.877,1.271,45.307,8.661,51.586z"/>
		<path d="M117.254,59.299c0.973,0,1.961-0.19,2.912-0.592c9.134-3.853,11.892-10.697,13.904-15.694
			c1.735-4.306,2.569-6.107,5.822-7.48c3.247-1.37,5.116-0.711,9.401,1.052c4.98,2.049,11.804,4.855,20.939,1
			c9.133-3.853,11.891-10.697,13.904-15.694c1.734-4.306,2.568-6.107,5.821-7.48c3.816-1.61,5.605-6.009,3.995-9.825
			c-1.61-3.817-6.015-5.606-9.825-3.995c-9.134,3.853-11.892,10.697-13.905,15.694c-1.734,4.305-2.567,6.107-5.82,7.479
			c-3.254,1.371-5.121,0.709-9.402-1.052c-4.979-2.049-11.8-4.857-20.938-1c-9.134,3.853-11.892,10.697-13.904,15.694
			c-1.735,4.306-2.569,6.107-5.822,7.48C106.785,48.072,109.498,59.299,117.254,59.299z"/>
		<path d="M68.443,46.397c12.791,0,23.197-10.406,23.197-23.197S81.234,0.003,68.443,0.003S45.246,10.409,45.246,23.2
			S55.652,46.397,68.443,46.397z M68.443,15.003c4.52,0,8.197,3.677,8.197,8.197s-3.678,8.197-8.197,8.197s-8.197-3.677-8.197-8.197
			S63.923,15.003,68.443,15.003z"/>
		<path d="M23.209,173.417c12.791,0,23.197-10.406,23.197-23.197S36,127.022,23.209,127.022S0.011,137.428,0.011,150.219
			S10.418,173.417,23.209,173.417z M23.209,142.022c4.52,0,8.197,3.677,8.197,8.197s-3.678,8.197-8.197,8.197
			s-8.197-3.677-8.197-8.197S18.689,142.022,23.209,142.022z"/>
		<path d="M68.334,417.522c0.361-4.627,0.615-6.597,3.307-8.883c7.39-6.279-2.322-17.709-9.713-11.431
			c-7.554,6.418-8.129,13.774-8.549,19.146c-0.361,4.627-0.615,6.597-3.306,8.883c-2.689,2.284-4.669,2.215-9.284,1.82
			c-5.366-0.458-12.715-1.085-20.273,5.334c-7.554,6.418-8.129,13.774-8.548,19.146c-0.361,4.627-0.615,6.596-3.307,8.883
			c-7.469,6.346,2.446,17.604,9.713,11.431c7.554-6.418,8.129-13.774,8.548-19.146c0.361-4.627,0.615-6.596,3.306-8.882
			c2.689-2.285,4.669-2.216,9.284-1.82c5.368,0.46,12.716,1.086,20.273-5.335C67.339,430.249,67.914,422.893,68.334,417.522z"/>
		<path d="M189.959,497.592c-3.253-1.373-4.087-3.174-5.821-7.48c-2.014-4.997-4.771-11.841-13.904-15.694
			c-9.136-3.854-15.959-1.049-20.939,1c-4.285,1.763-6.154,2.421-9.401,1.052c-3.253-1.373-4.087-3.174-5.822-7.48
			c-2.013-4.997-4.771-11.841-13.904-15.694c-8.935-3.77-14.765,10.051-5.83,13.82c3.253,1.373,4.087,3.174,5.822,7.48
			c2.013,4.997,4.771,11.841,13.904,15.694c9.138,3.854,15.958,1.048,20.938-1c4.282-1.762,6.148-2.423,9.402-1.052
			c3.253,1.373,4.086,3.174,5.82,7.479c2.014,4.997,4.771,11.841,13.905,15.694C192.729,515.042,198.861,501.347,189.959,497.592z"
			/>
		<path d="M68.443,465.608c-12.791,0-23.197,10.406-23.197,23.197s10.406,23.197,23.197,23.197s23.197-10.406,23.197-23.197
			S81.234,465.608,68.443,465.608z M68.443,497.003c-4.52,0-8.197-3.677-8.197-8.197s3.678-8.197,8.197-8.197
			s8.197,3.677,8.197,8.197S72.963,497.003,68.443,497.003z"/>
		<path d="M23.209,384.983c12.791,0,23.197-10.406,23.197-23.197S36,338.588,23.209,338.588S0.011,348.995,0.011,361.786
			S10.418,384.983,23.209,384.983z M23.209,353.588c4.52,0,8.197,3.677,8.197,8.197s-3.678,8.197-8.197,8.197
			s-8.197-3.677-8.197-8.197S18.689,353.588,23.209,353.588z"/>
		<path d="M503.362,460.42c-2.691-2.287-2.945-4.255-3.307-8.883c-0.419-5.372-0.994-12.728-8.549-19.146
			c-7.558-6.421-14.907-5.794-20.272-5.334c-4.615,0.394-6.596,0.463-9.283-1.82c-2.691-2.287-2.945-4.256-3.307-8.883
			c-0.42-5.371-0.995-12.728-8.549-19.146c-7.391-6.277-17.103,5.152-9.713,11.431c2.691,2.287,2.945,4.256,3.307,8.883
			c0.42,5.371,0.995,12.728,8.55,19.146c7.557,6.421,14.905,5.791,20.272,5.334c4.615-0.396,6.596-0.464,9.283,1.82
			c2.691,2.286,2.945,4.255,3.307,8.882c0.419,5.371,0.994,12.727,8.548,19.146C500.916,478.023,510.831,466.765,503.362,460.42z"/>
		<path d="M391.857,453.297c-9.134,3.853-11.892,10.697-13.904,15.694c-1.735,4.306-2.569,6.107-5.822,7.48
			c-3.249,1.369-5.117,0.71-9.401-1.052c-4.98-2.049-11.803-4.855-20.939-1c-9.133,3.853-11.891,10.697-13.904,15.694
			c-1.734,4.306-2.568,6.107-5.821,7.48c-8.794,3.71-2.807,17.47,5.83,13.82c9.134-3.853,11.892-10.697,13.905-15.694
			c1.734-4.305,2.567-6.107,5.82-7.479c3.253-1.372,5.12-0.71,9.402,1.052c4.979,2.048,11.799,4.855,20.938,1
			c9.134-3.853,11.892-10.697,13.904-15.694c1.735-4.306,2.569-6.107,5.822-7.48C406.622,463.349,400.788,449.522,391.857,453.297z"
			/>
		<path d="M443.58,465.608c-12.791,0-23.197,10.406-23.197,23.197s10.406,23.197,23.197,23.197s23.197-10.406,23.197-23.197
			S456.371,465.608,443.58,465.608z M443.58,497.003c-4.52,0-8.197-3.677-8.197-8.197s3.678-8.197,8.197-8.197
			s8.197,3.677,8.197,8.197S448.099,497.003,443.58,497.003z"/>
		<path d="M488.814,338.588c-12.791,0-23.197,10.406-23.197,23.197s10.406,23.197,23.197,23.197s23.197-10.406,23.197-23.197
			S501.605,338.588,488.814,338.588z M488.814,369.983c-4.52,0-8.197-3.677-8.197-8.197s3.678-8.197,8.197-8.197
			s8.197,3.677,8.197,8.197S493.334,369.983,488.814,369.983z"/>
	</g>
</g>
<g>
</g>
<g>
</g>
<g>
</g>
<g>
</g>
<g>
</g>
<g>
</g>
<g>
</g>
<g>
</g>
<g>
</g>
<g>
</g>
<g>
</g>
<g>
</g>
<g>
</g>
<g>
</g>
<g>
</g>
</svg>
