<?xml version="1.0" encoding="iso-8859-1"?>
<!-- Generator: Adobe Illustrator 25.0.0, SVG Export Plug-In . SVG Version: 6.00 Build 0)  -->
<svg version="1.1" id="Layer_1" xmlns="http://www.w3.org/2000/svg" xmlns:xlink="http://www.w3.org/1999/xlink" x="0px" y="0px"
	 viewBox="0 0 512.066 512.066" style="enable-background:new 0 0 512.066 512.066;" xml:space="preserve">
<g>
	<g>
		<g>
			<g>
				<g>
					<path style="fill:#EB67A5;" d="M170.291,276.25l43.966,198.952l120.496-26.628l-7.413-33.545
						c-2.614-11.827,4.855-23.534,16.683-26.148h0c11.827-2.614,23.534,4.855,26.148,16.683l7.413,33.545L498.08,412.48
						l-43.966-198.952L170.291,276.25z"/>
					<g>
						
							<rect x="437.499" y="215.342" transform="matrix(0.9764 -0.2158 0.2158 0.9764 -57.6831 106.0917)" style="fill:#E34D94;" width="39.058" height="203.752"/>
					</g>
					
						<rect x="215.764" y="458.944" transform="matrix(0.9764 -0.2158 0.2158 0.9764 -96.0204 71.0689)" style="fill:#F2A7D0;" width="123.403" height="32.672"/>
					
						<rect x="379.09" y="422.851" transform="matrix(0.9764 -0.2158 0.2158 0.9764 -84.3844 105.4616)" style="fill:#F2A7D0;" width="123.403" height="32.672"/>
					
						<rect x="462.442" y="413.751" transform="matrix(0.9764 -0.2158 0.2158 0.9764 -81.45 114.1319)" style="fill:#F294C7;" width="39.058" height="32.672"/>
					
						<rect x="170.393" y="244.504" transform="matrix(0.9764 -0.2158 0.2158 0.9764 -48.8467 74.2734)" style="fill:#F2A7D0;" width="290.67" height="32.672"/>
					<g>
						
							<rect x="419.042" y="217.358" transform="matrix(0.9764 -0.2158 0.2158 0.9764 -40.0951 100.1417)" style="fill:#F294C7;" width="39.058" height="32.672"/>
					</g>
				</g>
				<g>
					<path style="fill:#EB67A5;" d="M268.398,172.005c-23.18,50.109-132.032,88.49-181.41,73.473L149.301,139L268.398,172.005z"/>
					<path style="fill:#EB67A5;" d="M15.457,54.996c-23.18,50.109,6.909,156.717,61.395,185.793l40.868-116.398L15.457,54.996z"/>
					<g>
						<path style="fill:#F2A7D0;" d="M268.398,172.005l13.615-29.431L29.072,25.565L15.457,54.996
							c43.838,30.588,71.465,115.817,54.585,170.548c-1.871,6.068,1.047,12.579,6.81,15.245l10.136,4.689
							c5.817,2.691,12.721,0.626,16.112-4.814C133.009,192.676,208.234,160.305,268.398,172.005z"/>
					</g>
					<g>
						<path style="fill:#F294C7;" d="M254.253,129.732c-64.82-10.723-144.217,24.148-176.15,75.383
							c-1.166,1.871-2.716,3.373-4.489,4.463c-0.823,5.539-2.004,10.884-3.572,15.966c-1.871,6.068,1.047,12.579,6.81,15.245
							l10.135,4.688c5.818,2.691,12.721,0.626,16.112-4.813c29.91-47.988,105.134-80.359,165.299-68.659l13.615-29.431
							L254.253,129.732z"/>
					</g>
				</g>
			</g>
			<polygon style="fill:#FFCA21;" points="132.458,459.673 106.352,446.391 80.587,460.327 85.179,431.441 63.94,411.293 
				92.885,406.722 105.524,380.335 118.82,406.395 147.87,410.235 127.143,430.912 			"/>
			<polygon style="fill:#FFCA21;" points="367.858,75.178 338.973,70.323 318.563,91.335 314.295,62.399 287.997,49.536 
				314.245,36.507 318.402,7.546 338.892,28.429 367.759,23.394 354.175,49.329 			"/>
			<polygon style="fill:#FFCA21;" points="49.753,359.353 35.645,342.123 13.449,343.941 25.482,325.24 16.863,304.72 
				38.407,310.393 55.276,295.893 56.558,318.099 75.603,329.658 54.852,337.709 			"/>
		</g>
		<polygon style="fill:#FFCA21;" points="461.216,129.024 447.108,111.794 424.912,113.611 436.945,94.911 428.326,74.391 
			449.87,80.063 466.739,65.563 468.021,87.77 487.066,99.328 466.315,107.38 		"/>
		<polygon style="fill:#FFCA21;" points="388.063,186.63 368.211,176.542 348.627,187.146 352.108,165.183 335.954,149.872 
			357.958,146.387 367.557,126.321 377.676,146.13 399.763,149.038 384.012,164.766 		"/>
	</g>
	<g>
		<path d="M511.888,440.206l-50.45-228.295c-0.832-3.766-5.211-6.532-8.942-5.705l-283.822,62.721
			c-3.974,0.879-6.586,4.965-5.705,8.941l50.451,228.296c0.821,3.715,5.245,6.523,8.941,5.705l120.495-26.628
			c4.045-0.894,6.599-4.897,5.705-8.941l-13.897-62.89c-1.717-7.771,3.208-15.489,10.978-17.207
			c7.773-1.719,15.49,3.208,17.207,10.978l13.897,62.89c0.852,3.862,5.192,6.536,8.941,5.705l61.163-13.516
			c4.045-0.894,6.599-4.897,5.705-8.941s-4.893-6.601-8.941-5.705l-53.84,11.897l-3.813-17.256l105.85-23.391l3.813,17.256
			l-13.308,2.941c-4.045,0.894-6.599,4.897-5.705,8.942c0.894,4.044,4.899,6.597,8.941,5.705l20.631-4.56
			C510.228,448.253,512.782,444.25,511.888,440.206z M183.046,299.211l-3.813-17.256l269.176-59.484
			c1.271,5.752,2.543,11.503,3.814,17.255L183.046,299.211z M226.448,495.604l-3.814-17.256l105.85-23.392l3.813,17.256
			L226.448,495.604z M382.724,427.608l-5.229-23.664c-1.562-7.067-5.563-12.974-10.917-17.046c2.912-1.206,5.438-3.013,7.581-5.423
			c3.063-2.788,3.288-7.531,0.501-10.595c-2.785-3.064-7.529-3.289-10.595-0.502c-1.269,1.154-2.619,2.253-4.015,3.268
			c-2.737,1.989-3.73,5.483-2.676,8.521c-4.704-1.45-9.83-1.747-14.969-0.611c-4.91,1.085-9.261,3.348-12.827,6.422
			c-0.531-2.991-2.853-5.483-6.016-6.067c-1.69-0.312-3.383-0.722-5.031-1.218c-3.968-1.193-8.149,1.055-9.343,5.022
			c-1.192,3.967,1.056,8.149,5.022,9.342c1.613,0.485,5.789,1.861,8.424,1.711c-3.066,5.91-4.163,12.882-2.617,19.876l5.229,23.664
			l-105.85,23.392l-33.114-149.844l73.589-16.262l1.13,5.113c2.056,9.301,16.75,6.285,14.646-3.237l-1.13-5.113l92.705-20.487
			l1.13,5.114c2.056,9.301,16.75,6.284,14.646-3.237l-1.13-5.113l73.589-16.262l33.114,149.844L382.724,427.608z"/>
		<path d="M284.035,337.422l-2.396-10.84c-0.894-4.045-4.9-6.6-8.941-5.705c-4.045,0.894-6.599,4.897-5.705,8.941l2.396,10.84
			c0.773,3.5,3.874,5.883,7.316,5.883c0.536,0,1.08-0.058,1.625-0.178C282.375,345.47,284.929,341.467,284.035,337.422z"/>
		<path d="M292.252,360.942c-2.244-3.481-6.887-4.482-10.367-2.239c-3.481,2.245-4.483,6.887-2.238,10.368
			c2.273,3.527,4.92,6.838,7.864,9.842c1.469,1.499,3.412,2.25,5.356,2.25c1.895,0,3.79-0.713,5.25-2.144
			c2.958-2.899,3.006-7.648,0.106-10.606C295.988,366.132,293.979,363.618,292.252,360.942z"/>
		<path d="M387.659,334.946c-4.11-0.538-7.874,2.35-8.415,6.457c-0.414,3.14-1.149,6.255-2.187,9.259
			c-1.352,3.916,0.728,8.185,4.643,9.537c0.811,0.28,1.636,0.413,2.447,0.413c3.11,0,6.018-1.95,7.09-5.055
			c1.365-3.955,2.333-8.058,2.878-12.195C394.656,339.254,391.765,335.487,387.659,334.946z"/>
		<path d="M384.008,322.598c0.536,0,1.08-0.058,1.626-0.178c4.044-0.894,6.598-4.897,5.704-8.942l-2.383-10.78
			c-0.894-4.045-4.894-6.601-8.942-5.705c-4.044,0.894-6.598,4.897-5.704,8.942l2.383,10.78
			C377.465,320.214,380.566,322.598,384.008,322.598z"/>
		<path d="M71.599,246.446c12.286,7.576,26.468,9.76,40.745,9.76c57.104,0,141.707-35.35,162.855-81.041
			c4.365-10.601,9.555-21.051,14.368-31.44c8.115-17.538,0.174-38.855-17.235-46.908c-9.838-4.552-21.339-4.28-30.966,0.636
			c-2.459-10.405-9.845-19.516-19.564-24.011c-10.252-4.742-21.629-4.127-30.979,0.666c-2.401-10.229-9.298-19.297-19.551-24.041
			c-9.845-4.554-21.353-4.278-30.983,0.646c-2.405-10.22-9.3-19.28-19.546-24.02c-10.245-4.74-21.615-4.13-30.962,0.655
			C87.324,16.936,79.937,7.817,70.211,3.318C52.526-4.862,31.484,2.87,23.303,20.554C18.48,30.985,13.484,41.399,8.651,51.847
			C-3.301,77.684-2.844,117.374,9.872,158.019C22.843,199.477,45.274,231.556,71.599,246.446z M24.188,153.54
			c-10.002-31.969-11.835-63.875-5.31-86.244c5.859,5.267,11.47,11.717,16.754,19.278c2.371,3.395,7.048,4.225,10.443,1.852
			s4.225-7.048,1.852-10.444c-7.13-10.205-14.887-18.703-23.118-25.337l7.922-17.125l239.327,110.711l-8.054,17.412
			c-28.937-4.306-61.528,0.382-92.504,13.393c-32.828,13.789-59.38,34.977-74.764,59.66c-0.987,1.582-2.707,2.449-4.471,2.434
			c-4.514-1.088-9.059-3.368-13.113-5.648c-1.777-1.279-2.604-3.584-1.942-5.729c9.742-31.588,6.088-73.932-9.774-113.268
			c-1.549-3.841-5.919-5.701-9.761-4.151c-3.842,1.549-5.7,5.919-4.151,9.76c14.105,34.978,17.822,73.648,9.855,101.512
			C47.125,206.102,33.106,182.043,24.188,153.54z M184.821,226.165c-25.79,9.939-52.189,15.215-73.131,15.073
			c13.939-20.389,37.606-38.606,65.618-50.372c26.52-11.139,54.165-15.664,79.031-13.073
			C243.518,195.893,217.717,213.488,184.821,226.165z M250.481,109.8c5.098-1.873,10.622-1.649,15.553,0.632
			c8.263,3.822,13.01,12.922,11.509,21.811l-35.583-16.461C244.209,113.107,247.112,111.038,250.481,109.8z M215.504,87.057
			c8.263,3.822,13.009,12.923,11.509,21.811l-35.575-16.457C197.2,85.589,207.015,83.13,215.504,87.057z M149.421,63.05
			c5.099-1.874,10.622-1.649,15.552,0.631c8.487,3.927,12.969,13,11.501,21.808l-35.574-16.457
			C143.149,66.357,146.052,64.288,149.421,63.05z M114.444,40.307c8.487,3.926,12.968,12.999,11.5,21.807L90.378,45.661
			C96.14,38.839,105.956,36.379,114.444,40.307z M63.914,16.932c8.263,3.822,13.009,12.923,11.508,21.811L39.848,22.286
			C45.611,15.464,55.427,13.006,63.914,16.932z"/>
		<path d="M148.852,402.8l-25.143-3.323l-11.505-22.55c-2.772-5.431-10.807-5.339-13.444,0.168l-10.938,22.834l-25.052,3.956
			c-6.031,0.953-8.422,8.647-3.992,12.849l18.373,17.43l-3.973,24.985c-0.959,6.03,5.632,10.661,10.976,7.775l22.304-12.063
			l22.599,11.497c5.827,2.967,11.789-2.562,10.775-8.047l-4.597-24.877l17.931-17.888C157.49,411.231,154.906,403.6,148.852,402.8z
			 M121.846,425.603c-1.75,1.746-2.527,4.242-2.078,6.672l2.555,13.827l-12.57-6.395c-2.196-1.118-4.802-1.083-6.969,0.087
			l-12.405,6.709l2.208-13.885c0.388-2.441-0.452-4.917-2.245-6.619l-10.196-9.673l13.909-2.197
			c2.437-0.385,4.528-1.943,5.594-4.168l6.088-12.708l6.403,12.55c1.121,2.198,3.252,3.704,5.698,4.027l13.959,1.845
			L121.846,425.603z"/>
		<path d="M284.702,56.273l22.749,11.128l3.692,25.028c0.877,5.941,8.412,8.646,12.8,4.131l17.668-18.188l25.005,4.203
			c5.502,0.922,10.932-5.124,7.872-10.905L362.652,49.31l11.751-22.436c3.042-5.805-2.434-11.822-7.933-10.869l-24.984,4.358
			l-17.73-18.07c-4.27-4.352-11.911-1.848-12.777,4.187l-3.598,25.061l-22.718,11.276C279.193,45.533,279.217,53.589,284.702,56.273
			z M317.579,43.225c2.209-1.097,3.738-3.21,4.089-5.652l2.002-13.948l9.868,10.057c1.728,1.761,4.206,2.558,6.643,2.136
			l13.872-2.42l-6.521,12.451c-1.147,2.19-1.142,4.804,0.015,6.989l6.579,12.428l-13.909-2.338c-2.435-0.406-4.906,0.403-6.623,2.17
			l-9.827,10.117l-2.052-13.91c-0.361-2.445-1.903-4.556-4.124-5.643l-12.625-6.176L317.579,43.225z"/>
		<path d="M61.246,343.273l17.069-6.623c5.693-2.209,6.399-10.235,1.179-13.404l-15.676-9.514l-1.056-18.272
			c-0.321-5.57-7.421-9.513-12.376-5.255l-13.881,11.931l-17.733-4.669c-5.401-1.419-11.36,4.118-8.825,10.157l7.09,16.879
			l-9.896,15.379c-3.543,5.508,1.361,11.98,6.92,11.533l18.273-1.497l11.614,14.186c4.049,4.947,11.741,2.749,13.103-3.031
			L61.246,343.273z M52.139,330.717c-2.305,0.894-4.021,2.866-4.587,5.272l-1.617,6.863l-4.487-5.48
			c-1.431-1.748-3.564-2.749-5.802-2.749c-0.203,0-0.408,0.008-0.613,0.025l-7.058,0.578l3.814-5.928
			c1.337-2.079,1.564-4.683,0.607-6.962l-2.726-6.488l6.825,1.797c2.383,0.627,4.928,0.043,6.799-1.565l5.367-4.613l0.408,7.064
			c0.142,2.463,1.486,4.699,3.596,5.979l6.033,3.661L52.139,330.717z"/>
		<path d="M425.525,121.086l18.273-1.497l11.615,14.186c4.05,4.948,11.741,2.749,13.103-3.032l4.193-17.8l17.069-6.623
			c5.693-2.209,6.397-10.235,1.179-13.404l-15.676-9.514l-1.056-18.271c-0.321-5.57-7.421-9.513-12.376-5.255l-13.881,11.931
			l-17.733-4.669c-5.401-1.42-11.36,4.119-8.825,10.157l7.09,16.879l-9.896,15.379C415.061,115.064,419.968,121.528,425.525,121.086
			z M443.86,92.007l-2.726-6.488l6.825,1.797c2.383,0.626,4.928,0.043,6.799-1.565l5.367-4.613l0.408,7.064
			c0.142,2.463,1.486,4.699,3.596,5.979l6.033,3.661l-6.561,2.545c-2.305,0.894-4.021,2.867-4.587,5.272l-1.617,6.862l-4.487-5.48
			c-1.431-1.748-3.564-2.749-5.802-2.749c-0.204,0-0.408,0.008-0.613,0.025l-7.058,0.578l3.814-5.927
			C444.589,96.891,444.817,94.286,443.86,92.007z"/>
		<path d="M367.558,118.821c-2.671,0-5.646,1.923-6.767,4.263l-7.899,16.512l-18.112,2.869c-6.031,0.955-8.417,8.651-3.985,12.851
			l13.288,12.594l-2.862,18.062c-0.957,6.029,5.637,10.661,10.979,7.769l16.122-8.73l16.345,8.305
			c5.828,2.962,11.789-2.565,10.771-8.052l-3.331-17.981l12.957-12.938c4.319-4.314,1.734-11.946-4.32-12.743l-18.18-2.395
			l-8.327-16.299C372.953,120.397,370.372,118.821,367.558,118.821z M383.693,154.487l-4.98,4.972
			c-1.749,1.747-2.525,4.243-2.074,6.673l1.284,6.932l-6.314-3.208c-2.196-1.116-4.802-1.082-6.969,0.091l-6.227,3.372l1.103-6.962
			c0.388-2.441-0.454-4.917-2.248-6.617l-5.107-4.841l6.971-1.104c2.438-0.386,4.528-1.946,5.593-4.171l3.055-6.385l3.22,6.303
			c1.122,2.197,3.253,3.702,5.699,4.023L383.693,154.487z"/>
	</g>
</g>
<g>
</g>
<g>
</g>
<g>
</g>
<g>
</g>
<g>
</g>
<g>
</g>
<g>
</g>
<g>
</g>
<g>
</g>
<g>
</g>
<g>
</g>
<g>
</g>
<g>
</g>
<g>
</g>
<g>
</g>
</svg>
