<?xml version="1.0" encoding="iso-8859-1"?>
<!-- Generator: Adobe Illustrator 25.0.0, SVG Export Plug-In . SVG Version: 6.00 Build 0)  -->
<svg version="1.1" id="Layer_1" xmlns="http://www.w3.org/2000/svg" xmlns:xlink="http://www.w3.org/1999/xlink" x="0px" y="0px"
	 viewBox="0 0 512.062 512.062" style="enable-background:new 0 0 512.062 512.062;" xml:space="preserve">
<g>
	<g>
		<g>
			<g>
				<path style="fill:#6B8DF2;" d="M254.334,436.492L254.334,436.492c-14.585,0.073-26.349-11.676-26.276-26.243l0.528-84.166
					l52.815-0.264l-0.528,84.166C280.801,424.552,268.919,436.419,254.334,436.492z"/>
				<path style="fill:#F2A7D0;" d="M254.553,392.916L254.553,392.916c-29.169,0.146-52.697-23.353-52.551-52.485l0.954-169.255
					l105.63-0.528l-0.954,169.255C307.486,369.036,283.722,392.771,254.553,392.916z"/>
				<path style="fill:#F294C7;" d="M268.585,170.848l-0.953,169.055c-0.111,22.157-13.891,41.18-33.313,49.089
					c6.225,2.559,13.057,3.96,20.234,3.924h0c29.169-0.146,52.933-23.88,53.079-53.013l0.954-169.255L268.585,170.848z"/>
				<g>
					
						<ellipse transform="matrix(0.7497 -0.6618 0.6618 0.7497 -11.7407 197.1378)" style="fill:#6B8DF2;" cx="254.73" cy="114.089" rx="107.161" ry="106.086"/>
					<path style="fill:#527BF2;" d="M255.264,7.532c-6.653,0.033-13.166,0.68-19.487,1.875
						c49.055,9.312,85.904,52.311,85.644,104.149c-0.261,52.205-38.069,95.823-87.736,105.215c6.636,1.26,13.492,1.91,20.513,1.875
						c58.923-0.294,106.929-48.24,107.224-107.09S314.187,7.238,255.264,7.532z"/>
				</g>
				<path style="fill:#6B8DF2;" d="M216.601,295.198l0.092-18.43c0.047-9.471-7.602-17.11-17.084-17.063h0
					c-9.483,0.047-17.209,7.764-17.256,17.235l-0.092,18.43c-0.047,9.462,7.588,17.098,17.062,17.063h0
					C208.814,312.397,216.554,304.677,216.601,295.198z"/>
			</g>
		</g>
		<polygon style="fill:#FFCA21;" points="404.126,326.485 384.734,307.072 357.739,311.998 370.221,287.606 357.159,263.492 
			384.265,267.83 403.187,248.001 407.458,275.074 432.214,286.933 407.748,299.327 		"/>
		<polygon style="fill:#FFCA21;" points="178.897,445.33 151.458,445.315 135.853,467.886 127.431,441.813 101.144,433.997 
			123.378,417.898 122.737,390.497 144.9,406.62 170.791,397.501 162.255,423.565 		"/>
		<polygon style="fill:#FFCA21;" points="132.805,241.107 113.827,235.497 98.426,247.927 97.92,228.172 81.33,217.401 
			99.996,210.801 105.144,191.715 117.186,207.391 136.957,206.366 125.734,222.654 		"/>
		<circle style="fill:#41CCB4;" cx="483.683" cy="169.823" r="20.878"/>
		<circle style="fill:#41CCB4;" cx="462.805" cy="426.667" r="20.878"/>
		<circle style="fill:#41CCB4;" cx="38.932" cy="147.233" r="20.878"/>
		<circle style="fill:#41CCB4;" cx="28.439" cy="390.023" r="20.878"/>
	</g>
	<g>
		<path d="M422.023,497.03c-6.78,0-13.271-2.945-18.277-8.294c-4.965-5.304-7.812-12.396-7.812-19.457l0.005-57.007
			c0.105-21.183-17.778-38.812-38.852-38.812c-21.447,0.107-38.983,17.626-39.091,39.064l-0.191,57.252
			c-0.075,14.953-12.32,27.179-27.311,27.253c-7.608,0.088-14.773-2.872-20.172-8.234c-5.399-5.363-8.373-12.507-8.373-20.117
			v-25.589c15.037-3.521,26.344-17.03,26.424-33.057l0.127-20.192c13.796-9.416,23.291-24.181,25.898-40.781
			c0.813-5.178,0.805-10.249,0.796-15.152c-0.019-13.972-15.018-13.899-15,0.026c0.008,4.521,0.016,8.791-0.614,12.8
			c-2.232,14.218-11.652,27.141-24.584,33.726c-15.264,7.773-29.189,4.831-43.837-1.436c-11.683-7.058-19.807-19.563-21.363-33.124
			c-1.073-9.354-0.28-18.882-0.145-28.262c8.474-3.933,14.4-12.501,14.45-22.4l0.092-18.43c0.048-9.437-5.457-18.247-14.046-22.286
			l0.232-34.85c28.845,11.867,62.252,11.13,90.632-1.757l-0.487,67.476c-0.068,9.414,14.929,9.995,15,0.108l0.547-75.828
			c31.586-20.47,52.648-55.933,52.849-96.075c0.152-30.455-11.574-59.038-33.021-80.484c-21.482-21.483-50.145-33.2-80.673-33.077
			c-30.342,0.151-58.963,12.055-80.591,33.518c-6.883,6.831,3.683,17.479,10.565,10.647c18.82-18.676,43.715-29.033,70.101-29.165
			c0.171-0.001,0.339-0.001,0.51-0.001c26.313,0,50.973,10.176,69.481,28.685c18.593,18.593,28.76,43.383,28.627,69.803
			c-0.273,54.661-45.026,99.354-99.761,99.627c-26.486,0.119-51.362-10.054-69.991-28.683
			c-18.594-18.593-28.761-43.384-28.628-69.804c0.069-13.945,2.985-27.451,8.666-40.14c3.962-8.851-9.729-14.98-13.69-6.129
			c-6.539,14.606-9.896,30.148-9.976,46.194c-0.152,30.455,11.575,59.039,33.021,80.485c6.654,6.654,13.995,12.373,21.867,17.094
			l-0.269,40.466c-11.474,2.141-20.246,12.226-20.306,24.272l-0.092,18.43c-0.057,11.479,8.542,22.021,19.861,24.164
			c-0.211,9.369-0.799,18.767,0.272,28.11c1.987,17.323,11.498,32.814,25.791,42.509l-0.126,20.097
			c-0.077,15.559,11.205,29.7,26.391,32.998v25.469c0,11.636,4.547,22.56,12.803,30.759c8.184,8.128,19.019,12.593,30.527,12.593
			c0.101,0,0.204,0,0.305-0.001c23.165-0.116,42.105-19.037,42.222-42.191l0.191-57.252c0.066-13.237,10.907-24.061,24.166-24.127
			c12.926-0.097,23.842,10.838,23.777,23.774l-0.005,57.043c-0.001,10.826,4.322,21.655,11.861,29.709
			c7.873,8.411,18.253,13.043,29.228,13.043c4.142,0,7.5-3.358,7.5-7.5S426.166,497.03,422.023,497.03z M189.761,295.407
			l0.092-18.43c0.061-12.099,19.408-13.467,19.34-0.247l-0.092,18.43C209.043,306.855,189.694,308.889,189.761,295.407z
			 M235.559,410.296l0.081-12.872c6.021,1.933,12.339,2.912,18.67,2.912c6.479,0,12.96-1.04,19.144-3.071l-0.08,12.683
			c-0.052,10.449-8.611,18.992-19.078,19.044C244.291,428.992,235.508,420.359,235.559,410.296z"/>
		<path d="M279.32,121.055c9.652,0,9.668-15,0-15C269.668,106.055,269.652,121.055,279.32,121.055z"/>
		<path d="M254.733,70.567c-9.652,0-9.668,15,0,15C264.385,85.567,264.401,70.567,254.733,70.567z"/>
		<path d="M229.673,121.055c9.652,0,9.668-15,0-15C220.021,106.055,220.006,121.055,229.673,121.055z"/>
		<path d="M304.335,70.567c-9.652,0-9.668,15,0,15C313.987,85.567,314.003,70.567,304.335,70.567z"/>
		<path d="M229.673,35.137c-9.652,0-9.668,15,0,15C239.325,50.137,239.341,35.137,229.673,35.137z"/>
		<path d="M279.32,35.137c-9.652,0-9.668,15,0,15C288.972,50.137,288.988,35.137,279.32,35.137z"/>
		<path d="M328.967,106.055c-9.652,0-9.668,15,0,15C338.619,121.055,338.635,106.055,328.967,106.055z"/>
		<path d="M206.65,70.567c-9.652,0-9.668,15,0,15C216.302,85.567,216.318,70.567,206.65,70.567z"/>
		<path d="M180.027,106.055c-9.652,0-9.668,15,0,15C189.678,121.055,189.694,106.055,180.027,106.055z"/>
		<path d="M351.04,259.156c-1.652,2.331-1.836,5.397-0.476,7.909l11.181,20.641l-10.683,20.875
			c-2.98,5.823,2.534,11.793,8.023,10.795l23.124-4.219l16.61,16.628c4.44,4.444,11.945,1.652,12.74-4.309l3.101-23.244
			l20.943-10.609c5.448-2.759,5.357-10.816-0.149-13.455l-21.202-10.157l-3.657-23.18c-0.95-6.022-8.626-8.42-12.834-4.009
			l-16.202,16.979l-23.215-3.715C355.523,255.636,352.691,256.825,351.04,259.156z M383.08,275.236
			c2.436,0.39,4.908-0.443,6.611-2.228l8.452-8.856l1.908,12.091c0.384,2.437,1.943,4.529,4.168,5.595l11.028,5.283l-10.887,5.515
			c-2.205,1.117-3.718,3.249-4.045,5.699l-1.615,12.105l-8.659-8.668c-1.419-1.421-3.334-2.2-5.306-2.2
			c-0.447,0-0.898,0.04-1.346,0.122l-12.053,2.199l5.563-10.871c1.126-2.201,1.095-4.815-0.082-6.989l-5.812-10.73L383.08,275.236z"
			/>
		<path d="M170.611,422.146l7.308-22.311c1.901-5.804-3.859-11.435-9.619-9.409l-22.174,7.81l-18.977-13.805
			c-5.284-3.845-12.04,0.664-11.91,6.24l0.549,23.462l-19.042,13.788c-4.946,3.581-3.592,11.523,2.261,13.264l22.502,6.69
			l7.208,22.314c1.801,5.579,9.61,7.306,13.306,1.96l13.368-19.334l23.504,0.013c5.667,0,10.063-6.691,5.962-12.056L170.611,422.146
			z M151.462,437.815c-0.001,0-0.002,0-0.004,0c-2.462,0-4.769,1.209-6.169,3.235l-6.968,10.078l-3.753-11.62
			c-0.76-2.353-2.63-4.179-4.999-4.884l-11.698-3.478l9.906-7.173c1.999-1.447,3.157-3.784,3.1-6.25l-0.287-12.239l9.898,7.201
			c1.996,1.451,4.577,1.83,6.904,1.009l11.534-4.062l-3.799,11.598c-0.77,2.349-0.332,4.926,1.169,6.89l7.418,9.701L151.462,437.815
			z"/>
		<path d="M90.928,248.119c0.156,6.067,7.396,9.528,12.208,5.645l12.338-9.958l15.205,4.494c5.351,1.581,11.47-3.771,9.129-9.876
			l-5.659-14.764l8.983-13.036c1.621-2.353,1.765-5.421,0.371-7.915s-4.081-3.979-6.936-3.831l-15.835,0.821l-9.641-12.551
			c-3.714-4.836-11.601-3.271-13.189,2.616l-4.122,15.282l-14.951,5.286c-5.757,2.035-6.705,10.036-1.584,13.361l13.277,8.62
			L90.928,248.119z M102.496,217.872c2.326-0.822,4.099-2.736,4.741-5.118l1.198-4.442l2.803,3.648
			c1.503,1.957,3.862,3.043,6.336,2.921l4.57-0.237l-2.587,3.754c-1.402,2.036-1.712,4.632-0.828,6.94l1.637,4.271l-4.415-1.305
			c-2.364-0.699-4.919-0.192-6.836,1.356l-3.582,2.891l-0.117-4.572c-0.063-2.471-1.34-4.752-3.414-6.099l-3.824-2.483
			L102.496,217.872z"/>
		<path d="M48.743,277.357c-4.472-1.245-6.355-1.873-8.081-4.954c-1.724-3.077-1.275-5.007,0-9.46
			c1.482-5.178,3.513-12.269-1.334-20.92c-4.845-8.648-11.953-10.627-17.143-12.073c-4.472-1.245-6.355-1.873-8.081-4.954
			c-4.738-8.462-17.826-1.128-13.086,7.331c4.845,8.648,11.953,10.627,17.143,12.073c4.471,1.245,6.354,1.873,8.08,4.954
			c1.724,3.077,1.275,5.007,0,9.46c-1.482,5.178-3.513,12.269,1.334,20.92c4.845,8.648,11.953,10.627,17.143,12.073
			c4.471,1.245,6.354,1.873,8.08,4.954c5.058,9.028,17.613,0.749,13.087-7.331C61.042,280.782,53.933,278.803,48.743,277.357z"/>
		<path d="M103.488,337.323c0.298-4.632,0.525-6.604,3.184-8.928c2.656-2.32,4.636-2.279,9.257-1.947
			c5.372,0.383,12.729,0.912,20.198-5.613c7.466-6.521,7.939-13.885,8.285-19.262c0.298-4.632,0.524-6.604,3.184-8.927
			c7.303-6.38-2.566-17.678-9.868-11.297c-7.465,6.521-7.939,13.885-8.285,19.261c-0.298,4.632-0.525,6.604-3.184,8.927
			c-2.656,2.32-4.636,2.278-9.258,1.948c-5.373-0.382-12.729-0.912-20.197,5.612c-7.466,6.522-7.939,13.885-8.285,19.262
			c-0.298,4.632-0.525,6.604-3.184,8.927c-7.369,6.437,2.668,17.587,9.868,11.297C102.669,350.063,103.143,342.7,103.488,337.323z"
			/>
		<path d="M389.891,184.967c3.654,2.599,7.175,2.276,10.562-0.97c6.339-7.621,5.641-14.967,5.131-20.33
			c-0.439-4.621-0.527-6.604,1.73-9.319c2.255-2.711,4.218-2.984,8.833-3.389c5.365-0.471,12.713-1.115,19.054-8.74
			c6.339-7.621,5.641-14.966,5.131-20.33c-0.439-4.621-0.528-6.604,1.73-9.318c6.201-7.455-5.333-17.049-11.532-9.592
			c-6.339,7.621-5.641,14.966-5.131,20.33c0.439,4.621,0.528,6.604-1.73,9.318c-2.256,2.712-4.218,2.984-8.833,3.389
			c-5.365,0.471-12.712,1.115-19.054,8.74c-6.339,7.621-5.641,14.967-5.131,20.33c0.439,4.621,0.527,6.604-1.73,9.319
			C386.272,177.59,386.706,182.318,389.891,184.967z"/>
		<path d="M435.105,213.288c-2.121,3.558-0.957,8.162,2.601,10.283c3.033,1.808,3.61,3.708,4.734,8.211
			c1.305,5.227,3.092,12.386,11.606,17.462c8.519,5.079,15.662,3.24,20.877,1.898c4.485-1.154,6.426-1.551,9.457,0.255
			c3.033,1.808,3.61,3.708,4.734,8.211c1.305,5.227,3.091,12.386,11.606,17.462c1.204,0.718,2.527,1.059,3.833,1.059
			c2.555,0,5.046-1.306,6.449-3.66c2.121-3.558,0.957-8.162-2.601-10.283c-3.033-1.808-3.61-3.708-4.734-8.211
			c-1.305-5.227-3.091-12.386-11.606-17.462c-8.518-5.079-15.661-3.24-20.876-1.897c-4.486,1.155-6.428,1.55-9.458-0.255
			c-3.033-1.808-3.61-3.708-4.734-8.211c-1.305-5.227-3.092-12.386-11.606-17.462C441.828,208.565,437.226,209.731,435.105,213.288z
			"/>
		<path d="M499.669,315.588c-2.677,2.304-4.662,2.248-9.288,1.887c-5.372-0.42-12.728-0.994-20.241,5.472
			c-7.517,6.469-8.037,13.827-8.417,19.199c-0.327,4.621-0.566,6.588-3.24,8.889c-2.676,2.303-4.661,2.248-9.288,1.887
			c-5.371-0.419-12.727-0.994-20.241,5.472c-7.422,6.389,2.55,17.598,9.785,11.369c2.677-2.303,4.661-2.248,9.288-1.887
			c5.372,0.42,12.728,0.995,20.241-5.472c7.517-6.469,8.037-13.827,8.417-19.199c0.327-4.621,0.566-6.588,3.24-8.889
			c2.677-2.303,4.662-2.248,9.289-1.887c5.372,0.421,12.729,0.994,20.241-5.473C516.803,320.631,507.018,309.26,499.669,315.588z"/>
		<path d="M483.683,198.201c15.647,0,28.378-12.73,28.378-28.378s-12.73-28.378-28.378-28.378s-28.378,12.73-28.378,28.378
			S468.036,198.201,483.683,198.201z M483.683,156.445c7.376,0,13.378,6.001,13.378,13.378s-6.001,13.378-13.378,13.378
			s-13.378-6.001-13.378-13.378S476.307,156.445,483.683,156.445z"/>
		<path d="M462.805,398.289c-15.647,0-28.378,12.73-28.378,28.378s12.73,28.378,28.378,28.378s28.378-12.73,28.378-28.378
			S478.453,398.289,462.805,398.289z M462.805,440.045c-7.376,0-13.378-6.001-13.378-13.378s6.001-13.378,13.378-13.378
			s13.378,6.001,13.378,13.378S470.182,440.045,462.805,440.045z"/>
		<path d="M38.932,118.855c-15.647,0-28.378,12.73-28.378,28.378s12.73,28.378,28.378,28.378s28.378-12.73,28.378-28.378
			S54.58,118.855,38.932,118.855z M38.932,160.61c-7.376,0-13.378-6.001-13.378-13.378s6.001-13.378,13.378-13.378
			s13.378,6.001,13.378,13.378S46.309,160.61,38.932,160.61z"/>
		<path d="M28.439,361.646c-15.647,0-28.378,12.73-28.378,28.378s12.73,28.378,28.378,28.378s28.378-12.73,28.378-28.378
			S44.086,361.646,28.439,361.646z M28.439,403.401c-7.376,0-13.378-6.001-13.378-13.378s6.001-13.378,13.378-13.378
			s13.378,6.001,13.378,13.378S35.816,403.401,28.439,403.401z"/>
	</g>
</g>
<g>
</g>
<g>
</g>
<g>
</g>
<g>
</g>
<g>
</g>
<g>
</g>
<g>
</g>
<g>
</g>
<g>
</g>
<g>
</g>
<g>
</g>
<g>
</g>
<g>
</g>
<g>
</g>
<g>
</g>
</svg>
