<?xml version="1.0" encoding="iso-8859-1"?>
<!-- Generator: Adobe Illustrator 25.0.0, SVG Export Plug-In . SVG Version: 6.00 Build 0)  -->
<svg version="1.1" id="Layer_1" xmlns="http://www.w3.org/2000/svg" xmlns:xlink="http://www.w3.org/1999/xlink" x="0px" y="0px"
	 viewBox="0 0 512 512" style="enable-background:new 0 0 512 512;" xml:space="preserve">
<g>
	<g>
		<path style="fill:#B5C8FF;" d="M387.443,256c0,18.176-64.768,19.055-73.221,33.732c-8.721,15.142,22.605,71.863,7.532,80.624
			c-14.61,8.492-47.66-46.854-65.753-46.854s-51.144,55.345-65.753,46.854c-15.073-8.761,16.253-65.482,7.532-80.624
			c-8.453-14.677-73.221-15.556-73.221-33.732s64.768-19.055,73.221-33.732c8.721-15.142-22.605-71.863-7.532-80.624
			c14.61-8.492,47.661,46.854,65.753,46.854c18.093,0,51.144-55.345,65.753-46.854c15.073,8.761-16.253,65.482-7.532,80.624
			C322.674,236.945,387.443,237.824,387.443,256z"/>
		<g>
			<path style="fill:#9CB5FF;" d="M387.443,256c0-18.176-64.768-19.055-73.221-33.732c-8.721-15.142,22.605-71.863,7.532-80.624
				c-8.682-5.046-23.875,12.449-38.572,27.478c-4.908,19.741-14.222,44.01-8.96,53.145c8.453,14.677,73.221,15.556,73.221,33.732
				s-64.768,19.055-73.221,33.732c-5.261,9.136,4.052,33.404,8.96,53.145c14.697,15.029,29.89,32.525,38.572,27.479
				c15.073-8.761-16.253-65.482-7.532-80.624C322.674,275.055,387.443,274.176,387.443,256z"/>
		</g>
		<g>
			<g>
				<g>
					<g>
						<ellipse style="fill:#B5C8FF;" cx="256" cy="24.496" rx="16.919" ry="16.996"/>
						<ellipse style="fill:#B5C8FF;" cx="256" cy="487.504" rx="16.919" ry="16.996"/>
					</g>
					<g>
						<ellipse style="fill:#B5C8FF;" cx="56.428" cy="371.752" rx="16.919" ry="16.996"/>
						<ellipse style="fill:#B5C8FF;" cx="455.572" cy="140.248" rx="16.919" ry="16.996"/>
					</g>
					<g>
						<ellipse style="fill:#B5C8FF;" cx="455.572" cy="371.752" rx="16.919" ry="16.996"/>
						<ellipse style="fill:#B5C8FF;" cx="56.428" cy="140.248" rx="16.919" ry="16.996"/>
					</g>
				</g>
			</g>
			<ellipse style="fill:#F2A7D0;" cx="256" cy="256" rx="17.473" ry="17.553"/>
		</g>
	</g>
	<g>
		<path d="M476.727,128.013c-6.516-11.341-21.948-15.602-33.376-8.972c-9.713,5.633-14.105,17.007-11.397,27.409l-21.331,12.233
			l4.572-30.573c1.434-9.59-13.401-11.811-14.835-2.219l-6.326,42.305l-11.547,6.622l4.542-30.371
			c1.435-9.59-13.402-11.811-14.835-2.219l-6.296,42.103l-45.443,26.06c1.033-7.398,3.991-17.767,6.035-24.93
			c6.261-21.94,12.175-42.665-0.966-50.303c-12.811-7.447-27.417,7.702-42.881,23.741c-5.315,5.513-13.017,13.499-19.142,18.208
			v-53.771l33.267-26.76c7.555-6.078-1.846-17.766-9.402-11.688L263.5,104.087V90.664l33.267-26.76
			c7.555-6.078-1.845-17.766-9.402-11.688L263.5,71.413V47.806c9.805-3.183,16.918-12.427,16.918-23.309
			C280.418,10.989,269.464,0,256,0s-24.418,10.989-24.418,24.496c0,10.883,7.113,20.126,16.918,23.309v23.603l-23.879-19.111
			c-7.571-6.06-16.944,5.652-9.373,11.711L248.5,90.621v13.461l-23.879-19.111c-7.571-6.06-16.944,5.652-9.373,11.711l33.252,26.612
			v53.815c-6.125-4.71-13.826-12.695-19.142-18.208c-15.464-16.039-30.07-31.185-42.881-23.741
			c-11.109,6.458-7.758,22.743-6.328,29.697c1.955,9.498,16.646,6.476,14.692-3.022c-1.912-9.293-1.186-12.581-0.816-13.527
			c0.896,0.188,3.388,1.081,8.406,5.273c4.941,4.129,10.628,10.027,16.128,15.731c10.876,11.281,20.584,21.345,29.94,25.11v37.679
			c-3.55,1.129-6.738,2.986-9.467,5.523l-32.463-18.617c0.665-4.775,0.113-10.815-1.65-18.826
			c-2.085-9.47-16.733-6.246-14.649,3.225c0.615,2.796,1.005,5.083,1.245,6.967l-45.375-26.021l-6.416-42.189
			c-1.457-9.588-16.288-7.331-14.829,2.255l4.623,30.402l-11.514-6.603l-6.446-42.39c-1.458-9.587-16.288-7.332-14.829,2.255
			l4.653,30.603L80.047,146.45c2.709-10.402-1.684-21.776-11.397-27.409c-11.48-6.657-26.843-2.4-33.376,8.972
			c-6.717,11.688-2.71,26.689,8.932,33.442c8.647,5.015,20.1,4.033,27.774-2.34l21.756,12.476l-28.332,11.187
			c-8.886,3.509-3.191,17.388,5.509,13.952l39.478-15.588l11.702,6.711L93.57,199.115c-8.886,3.509-3.191,17.388,5.509,13.952
			l39.668-15.663l44.622,25.59c-6.768,2.499-16.257,4.844-22.416,6.366c-22.574,5.578-43.896,10.847-43.896,26.64
			s21.322,21.062,43.896,26.64c6.16,1.522,15.648,3.867,22.416,6.366l-47.887,27.462l-37.997-14.893
			c-9.03-3.535-14.502,10.427-5.474,13.966l26.783,10.497l-11.669,6.692l-37.806-14.818c-9.029-3.536-14.502,10.427-5.474,13.966
			L90.436,342.3L71.98,352.885c-7.722-6.413-19.019-6.953-27.774-2.34c-11.643,6.752-15.649,21.754-8.933,33.442
			c6.588,11.465,21.902,15.628,33.376,8.972c9.713-5.633,14.105-17.007,11.397-27.409l20.12-11.538l-4.857,32.481
			c-1.395,9.324,13.378,11.968,14.835,2.218l6.611-44.212l11.548-6.622l-4.827,32.28c-1.395,9.324,13.377,11.968,14.835,2.219
			l6.581-44.012l46.654-26.755c-1.033,7.398-3.991,17.766-6.035,24.93c-6.261,21.941-12.175,42.665,0.966,50.303
			c12.812,7.444,27.417-7.703,42.881-23.741c5.315-5.513,13.017-13.499,19.142-18.208v53.771l-33.267,26.76
			c-7.66,6.162,2.011,17.634,9.402,11.688l23.864-19.197v13.422l-33.267,26.76c-7.66,6.162,2.011,17.634,9.402,11.688l23.864-19.197
			v23.608c-9.805,3.183-16.918,12.427-16.918,23.309C231.582,501.011,242.536,512,256,512s24.418-10.989,24.418-24.496
			c0-10.883-7.113-20.126-16.918-23.309v-23.603l23.879,19.111c7.571,6.061,16.944-5.652,9.373-11.711L263.5,421.379v-13.461
			l23.879,19.111c7.571,6.061,16.944-5.652,9.373-11.711L263.5,388.706v-53.815c6.125,4.71,13.826,12.695,19.142,18.208
			c9.438,9.79,29.687,34.985,45.141,21.721c12.425-10.664,2.205-36.022-1.294-48.283c-1.833-6.422-4.4-15.421-5.657-22.546
			l46.074,23.297l6.866,45.15c1.429,9.399,16.302,7.424,14.829-2.255l-5.259-34.585l11.555,5.843
			c-0.024,0.492-0.005,0.992,0.071,1.494l6.971,45.839c1.429,9.399,16.302,7.424,14.829-2.255l-5.604-36.853l22.462,11.358
			c-5.565,11.441-1.424,25.468,9.724,31.934c11.448,6.64,26.774,2.52,33.376-8.972c6.717-11.688,2.71-26.689-8.932-33.442
			c-6.678-3.873-16.155-4.177-23.099-0.731l-18.489-9.349l21.886-8.641c9.02-3.562,3.512-17.51-5.509-13.952l-34.287,13.538
			l-12.583-6.363l24.212-9.56c9.02-3.562,3.511-17.512-5.509-13.952l-36.612,14.456l-51.503-26.042
			c3.035-1.302,7.673-2.906,14.776-4.788c9.374-2.484,5.53-16.986-3.843-14.499c-12.192,3.231-21.188,6.439-26.431,11.452
			l-31.912-16.136c2.057-4.769,2.627-10.136,1.504-15.321l32.81-18.816c7.583,5.49,20.177,8.607,34.242,12.082
			c8.393,2.074,17.071,4.218,23.581,6.741c7.949,3.08,8.895,5.305,8.918,5.307c-0.014,0.04-0.913,2.232-8.703,5.282
			c-8.897,3.484-3.238,17.377,5.469,13.968c4.509-1.766,18.229-7.138,18.229-19.221c0-15.792-21.322-21.062-43.896-26.64
			c-6.16-1.522-15.648-3.867-22.416-6.366l44.584-25.568l39.804,15.601c8.691,3.404,14.461-10.443,5.474-13.966l-28.589-11.206
			l11.669-6.692l39.613,15.527c8.691,3.404,14.461-10.443,5.474-13.966l-28.399-11.131l21.76-12.479
			c7.668,6.367,19.137,7.348,27.773,2.339C479.437,154.703,483.443,139.701,476.727,128.013z M293.44,169.312
			c5.5-5.704,11.187-11.603,16.128-15.731c5.006-4.183,7.499-5.081,8.399-5.272c0.316,0.838,0.92,3.496-0.19,10.222
			c-1.095,6.636-3.442,14.861-5.712,22.815c-4.216,14.773-7.974,27.953-6.618,37.653l-32.467,18.619
			c-2.683-2.5-5.908-4.358-9.479-5.484v-37.712C272.856,190.657,282.564,180.593,293.44,169.312z M247.371,261.04
			c-2.765-4.811-1.125-10.981,3.656-13.754c4.79-2.347,10.504-1.719,13.603,3.674c2.765,4.811,1.125,10.981-3.656,13.754
			C255.426,267.265,250.891,266.04,247.371,261.04z M256,15c5.193,0,9.418,4.26,9.418,9.496s-4.225,9.497-9.418,9.497
			s-9.418-4.26-9.418-9.497S250.807,15,256,15z M64.578,145.009c-2.79,4.853-8.296,5.233-12.846,3.471
			c-4.516-2.619-6.065-8.448-3.453-12.993c2.631-4.577,8.489-5.998,12.846-3.47C65.641,134.636,67.189,140.464,64.578,145.009z
			 M164.551,268.078c-8.393-2.074-17.071-4.218-23.581-6.741c-7.949-3.08-8.895-5.305-8.918-5.307
			c0.014-0.04,0.931-2.272,8.918-5.366c6.51-2.522,15.188-4.667,23.581-6.741c14.066-3.476,26.659-6.593,34.243-12.082
			l32.821,18.822c-0.758,3.478-0.783,7.123-0.011,10.682l-32.81,18.816C191.211,274.67,178.617,271.553,164.551,268.078z
			 M61.125,379.983c-5.239,2.409-9.521,1.253-12.846-3.47c-2.612-4.545-1.062-10.374,3.453-12.993
			c4.572-2.226,9.953-1.561,12.846,3.471C67.189,371.536,65.641,377.364,61.125,379.983z M218.56,342.688
			c-6.04,6.265-15.292,19.046-24.527,21.003c-3.239-8.589,3.552-24.8,5.903-33.038c4.216-14.773,7.973-27.954,6.618-37.653
			l32.467-18.619c2.683,2.5,5.908,4.358,9.479,5.484v37.712C239.144,321.343,229.436,331.407,218.56,342.688z M256,497
			c-5.193,0-9.418-4.26-9.418-9.496c0-4.205,2.727-7.776,6.491-9.021c0.9,0.382,1.889,0.594,2.928,0.594s2.028-0.212,2.928-0.594
			c3.763,1.245,6.491,4.815,6.491,9.021C265.418,492.74,261.193,497,256,497z M312.064,330.654
			c2.415,8.462,9.315,23.987,5.903,33.038c-8.796-1.864-18.639-14.896-24.527-21.003c-10.876-11.281-20.584-21.345-29.94-25.11
			v-37.684c1.721-0.547,3.398-1.276,4.999-2.204c0.048-0.028,0.094-0.059,0.142-0.087l36.545,18.479
			C304.865,305.411,308.279,317.39,312.064,330.654z M455.586,362.252c1.627,0,3.234,0.429,4.682,1.269
			c4.516,2.619,6.065,8.448,3.453,12.993c-3.325,4.723-7.607,5.88-12.846,3.47c-4.516-2.619-6.065-8.448-3.453-12.992
			C449.5,363.864,452.221,362.284,455.586,362.252z M460.268,148.479c-5.239,2.409-9.521,1.252-12.846-3.471
			c-2.612-4.544-1.063-10.373,3.453-12.992c4.357-2.527,10.215-1.107,12.846,3.47C466.333,140.032,464.784,145.86,460.268,148.479z"
			/>
		<path d="M89.687,248.5c-9.652,0-9.668,15,0,15C99.339,263.5,99.355,248.5,89.687,248.5z"/>
		<path d="M57.115,248.5c-9.652,0-9.668,15,0,15C66.767,263.5,66.783,248.5,57.115,248.5z"/>
		<path d="M24.543,248.5c-9.652,0-9.668,15,0,15C34.195,263.5,34.211,248.5,24.543,248.5z"/>
		<path d="M487.457,248.5c-9.652,0-9.668,15,0,15C497.109,263.5,497.125,248.5,487.457,248.5z"/>
		<path d="M454.885,263.5c9.652,0,9.668-15,0-15C445.233,248.5,445.217,263.5,454.885,263.5z"/>
		<path d="M422.313,263.5c9.652,0,9.668-15,0-15C412.661,248.5,412.645,263.5,422.313,263.5z"/>
		<path d="M339.156,392.531c-9.652,0-9.668,15,0,15C348.808,407.531,348.824,392.531,339.156,392.531z"/>
		<path d="M355.443,420.74c-9.652,0-9.668,15,0,15C365.094,435.74,365.11,420.74,355.443,420.74z"/>
		<path d="M371.729,448.948c-9.652,0-9.668,15,0,15C381.38,463.948,381.396,448.948,371.729,448.948z"/>
		<path d="M140.271,63.052c9.652,0,9.668-15,0-15C130.62,48.052,130.604,63.052,140.271,63.052z"/>
		<path d="M156.557,91.26c9.652,0,9.668-15,0-15C146.906,76.26,146.89,91.26,156.557,91.26z"/>
		<path d="M172.844,119.469c9.652,0,9.668-15,0-15C163.192,104.469,163.176,119.469,172.844,119.469z"/>
		<path d="M339.156,119.469c9.652,0,9.668-15,0-15C329.505,104.469,329.489,119.469,339.156,119.469z"/>
		<path d="M355.443,91.26c9.652,0,9.668-15,0-15C345.791,76.26,345.775,91.26,355.443,91.26z"/>
		<path d="M371.729,63.052c9.652,0,9.668-15,0-15C362.077,48.052,362.061,63.052,371.729,63.052z"/>
		<path d="M140.271,448.948c-9.652,0-9.668,15,0,15C149.923,463.948,149.939,448.948,140.271,448.948z"/>
		<path d="M156.557,420.74c-9.652,0-9.668,15,0,15C166.209,435.74,166.225,420.74,156.557,420.74z"/>
		<path d="M172.844,392.531c-9.652,0-9.668,15,0,15C182.495,407.531,182.511,392.531,172.844,392.531z"/>
	</g>
</g>
<g>
</g>
<g>
</g>
<g>
</g>
<g>
</g>
<g>
</g>
<g>
</g>
<g>
</g>
<g>
</g>
<g>
</g>
<g>
</g>
<g>
</g>
<g>
</g>
<g>
</g>
<g>
</g>
<g>
</g>
</svg>
