<?xml version="1.0" encoding="iso-8859-1"?>
<!-- Generator: Adobe Illustrator 25.0.0, SVG Export Plug-In . SVG Version: 6.00 Build 0)  -->
<svg version="1.1" id="Layer_1" xmlns="http://www.w3.org/2000/svg" xmlns:xlink="http://www.w3.org/1999/xlink" x="0px" y="0px"
	 viewBox="0 0 512.001 512.001" style="enable-background:new 0 0 512.001 512.001;" xml:space="preserve">
<g>
	<g>
		<g>
			<path style="fill:#6B8DF2;" d="M401.986,504.501h-291.97c-36.342,0-65.802-29.461-65.802-65.802V147.254
				c0-36.342,29.461-65.802,65.802-65.802h291.97c36.342,0,65.802,29.461,65.802,65.802v291.444
				C467.788,475.04,438.327,504.501,401.986,504.501z"/>
			<g>
				<polygon style="fill:#EBF7FF;" points="112.98,81.451 256.001,504.501 257.365,504.501 400.385,81.451 				"/>
				<path style="fill:#B5C8FF;" d="M110.056,81.451c-33.627,0-61.347,25.183-65.332,57.693l64.585,116.792l-33.77,37.039
					l180.461,211.525L128.113,126.214L112.98,81.451H110.056z"/>
				<path style="fill:#B5C8FF;" d="M404.056,255.937l63.446-114.733c-3.041-33.5-31.223-59.752-65.558-59.752h-1.56l-143.02,423.049
					l180.461-211.525L404.056,255.937z"/>
			</g>
		</g>
		<polygon style="fill:#EBF7FF;" points="195.186,112.455 112.98,81.451 164.796,7.501 257.365,38.551 		"/>
		<polygon style="fill:#EBF7FF;" points="319.915,112.455 402.12,81.451 350.305,7.501 257.736,38.551 		"/>
		<polygon style="fill:#D9EDFA;" points="350.305,7.501 317.917,18.365 362.12,81.451 310.28,101.003 319.915,112.455 
			402.12,81.451 		"/>
		<polygon style="fill:#FFCA21;" points="211.915,92.571 257.736,38.551 303.186,92.571 283.555,144.955 232.778,144.955 		"/>
		<polygon style="fill:#F2BB0C;" points="257.736,38.551 237.655,62.226 263.186,92.571 243.555,144.955 283.555,144.955 
			303.186,92.571 		"/>
		<polygon style="fill:#FFE594;" points="232.778,144.955 209.119,365.827 257.365,504.501 303.186,365.827 283.555,144.955 		"/>
		<polygon style="fill:#F7D877;" points="283.555,144.955 243.555,144.955 263.186,365.827 236.849,445.532 257.365,504.501 
			303.186,365.827 		"/>
	</g>
	<path d="M474.974,140.625c-2.592-35.511-33.697-64.594-68.864-66.551L356.448,3.197c-1.908-2.722-5.378-3.863-8.527-2.807
		l-90.37,30.313L167.181,0.39c-3.151-1.056-6.621,0.085-8.527,2.807L144.76,23.026c-5.565,7.941,6.719,16.549,12.284,8.607
		l10.679-15.24l76.807,25.764l-51.665,61.407l-68.199-25.721l9.548-13.627c5.565-7.941-6.721-16.55-12.284-8.607l-12.869,18.366
		c-39.287,0.531-72.349,33.565-72.349,73.279v291.445c0,40.419,32.883,73.302,73.303,73.302h291.97
		c40.419,0,73.302-32.883,73.302-73.302V147.254C475.288,145.018,475.171,142.81,474.974,140.625z M115.873,252.307l-63.367-114.59
		c4.433-26.842,28.057-47.607,55.114-48.705L236.417,469.99L85.538,293.14l29.313-32.15
		C117.018,258.613,117.428,255.121,115.873,252.307z M257.712,50.173l36.912,43.872l-16.267,43.409h-40.493l-17.314-43.47
		L257.712,50.173z M239.518,152.455h37.174l18.887,212.491L257.182,481.15l-40.426-116.198L239.518,152.455z M307.721,332.131
		L291.177,145.99l14.53-38.772l8.468,10.065c2.563,2.539,5.359,3.268,8.386,2.189l65.391-24.662L307.721,332.131z M390.434,77.843
		l-68.198,25.721l-51.665-61.407l76.807-25.764L390.434,77.843z M195.184,119.955c2.17,0,4.287-0.944,5.741-2.672l8.66-10.292
		l15.538,39.013L205.296,331.1L125.16,94.06l67.379,25.412C193.402,119.798,194.298,119.955,195.184,119.955z M51.713,438.698
		V167.281l48.43,87.578l-30.146,33.064c-2.546,2.793-2.617,7.045-0.163,9.921l169.91,199.157H110.016
		C77.867,497.001,51.713,470.846,51.713,438.698z M401.986,497.001H273.622l79.25-92.892c6.294-7.377-5.118-17.112-11.412-9.735
		l-64.512,75.617L405.722,89.084c27.183,1.725,50.508,23.479,54.056,50.588l-62.286,112.635c-1.556,2.814-1.146,6.306,1.021,8.683
		l29.312,32.15l-60.628,71.064c-6.294,7.377,5.118,17.112,11.412,9.735l64.921-76.096c2.453-2.875,2.383-7.127-0.164-9.921
		l-30.146-33.064l47.065-85.11v268.95C460.288,470.846,434.133,497.001,401.986,497.001z"/>
</g>
<g>
</g>
<g>
</g>
<g>
</g>
<g>
</g>
<g>
</g>
<g>
</g>
<g>
</g>
<g>
</g>
<g>
</g>
<g>
</g>
<g>
</g>
<g>
</g>
<g>
</g>
<g>
</g>
<g>
</g>
</svg>
