<?xml version="1.0" encoding="iso-8859-1"?>
<!-- Generator: Adobe Illustrator 25.0.0, SVG Export Plug-In . SVG Version: 6.00 Build 0)  -->
<svg version="1.1" id="Layer_1" xmlns="http://www.w3.org/2000/svg" xmlns:xlink="http://www.w3.org/1999/xlink" x="0px" y="0px"
	 viewBox="0 0 512.002 512.002" style="enable-background:new 0 0 512.002 512.002;" xml:space="preserve">
<g>
	<g>
		<g>
			<g>
				<g>
					<g>
						<g>
							<path style="fill:#FFCA21;" d="M282.081,124.461c-24.522-14.234-33.29-45.22-20.255-70.118l-36.502-21.189l-55.623,96.035
								l170.785,83.733l48.946-84.507l-36.502-21.189C337.821,130.92,306.603,138.695,282.081,124.461z"/>
						</g>
						<g>
							<path style="fill:#FFCA21;" d="M114.852,413.187c24.522,14.234,33.29,45.22,20.255,70.118l36.502,21.189l55.736-96.23
								l-163.547-96.23L7.501,409.233l36.502,21.189C59.112,406.727,90.331,398.953,114.852,413.187z"/>
						</g>
					</g>
					
						<rect x="79.065" y="173.948" transform="matrix(0.5012 -0.8653 0.8653 0.5012 -133.6265 305.8298)" style="fill:#FFE594;" width="238.804" height="189.752"/>
				</g>
			</g>
			<g>
				<g>
					<g>
						<g>
							<path style="fill:#EB67A5;" d="M397.006,98.629c-24.616-14.069-33.592-44.996-20.724-69.981L339.639,7.705l-49.65,87.062
								l166.013,91.929l48.379-84.833l-36.643-20.943C452.788,104.714,421.622,112.698,397.006,98.629z"/>
						</g>
						<g>
							<polygon style="fill:#E34D94;" points="474.214,84.621 425.602,169.862 456.002,186.696 504.381,101.863 							"/>
						</g>
						<g>
							<path style="fill:#EB67A5;" d="M231.834,388.259c24.616,14.069,33.592,44.996,20.724,69.981l36.643,20.943l58.866-103.222
								l-164.738-94.165l-58.87,103.229l36.643,20.943C176.052,382.174,207.218,374.19,231.834,388.259z"/>
						</g>
						<g>
							
								<rect x="244.136" y="401.578" transform="matrix(0.4954 -0.8687 0.8687 0.4954 -210.7558 475.0923)" style="fill:#E34D94;" width="118.829" height="34.747"/>
						</g>
					</g>
					
						<rect x="195.078" y="148.463" transform="matrix(0.4954 -0.8687 0.8687 0.4954 -52.6911 395.9713)" style="fill:#F2A7D0;" width="238.805" height="189.751"/>
					<g>
						
							<rect x="262.365" y="264.423" transform="matrix(0.4954 -0.8687 0.8687 0.4954 -52.1444 473.8281)" style="fill:#F294C7;" width="238.805" height="34.747"/>
					</g>
				</g>
			</g>
		</g>
	</g>
	<g>
		<path d="M65.71,359.651c-3.582-2.075-8.172-0.854-10.249,2.73L40.91,387.503c-4.654,8.035,7.811,16.441,12.98,7.519L68.442,369.9
			C70.518,366.315,69.295,361.726,65.71,359.651z"/>
		<path d="M160.877,457.141c-4.654,8.035,7.812,16.441,12.98,7.518l14.55-25.122c2.076-3.584,0.853-8.173-2.731-10.249
			c-3.583-2.074-8.172-0.854-10.249,2.731L160.877,457.141z"/>
		<path d="M233.289,70.318c-3.582-2.075-8.172-0.853-10.249,2.731l-14.55,25.122c-4.654,8.035,7.812,16.441,12.98,7.518
			l14.55-25.122C238.097,76.982,236.873,72.394,233.289,70.318z"/>
		<path d="M511.016,105.367c2.051-3.596,0.801-8.173-2.793-10.227L471.58,74.197c-3.489-1.996-7.933-0.882-10.072,2.521
			c-4.465,7.106-10.814,12.815-18.36,16.51c-8.709,4.264-2.116,17.733,6.596,13.472c7.88-3.858,14.78-9.365,20.262-16.126
			l24.27,13.872l-40.948,71.803l-151.72-86.714l40.948-71.803l24.26,13.865c-10.23,27.35,0.616,58.488,26.59,73.333
			c3.56,2.034,7.35,3.712,11.267,4.989c9.223,3.001,13.868-11.257,4.648-14.262c-2.947-0.96-5.798-2.223-8.472-3.751
			c-21.098-12.058-28.906-38.428-17.777-60.035c1.838-3.569,0.539-7.953-2.946-9.946L343.481,0.982
			c-4.185-1.896-7.597-0.964-10.236,2.796c0,0-48.415,84.907-48.435,84.944c-0.02,0.034-0.044,0.066-0.064,0.1l-10.885,19.087
			c-11.697-13.869-14.062-33.525-5.39-50.088c1.862-3.557,0.593-7.95-2.879-9.965L229.09,26.668
			c-4.172-1.925-7.591-1.016-10.256,2.728l-104.707,180.78c-4.655,8.035,7.812,16.441,12.98,7.518l51.999-89.776l62.616,36.348
			L130.609,359.103l-63.916-37.102l37.222-64.264c4.861-8.391-8.119-15.907-12.98-7.518L1.011,405.474
			c-2.074,3.582-0.854,8.167,2.725,10.245l36.502,21.189c3.478,2.02,7.928,0.936,10.089-2.454
			c13.062-20.484,39.753-26.978,60.76-14.781c21.017,12.2,28.648,38.622,17.376,60.154c-1.862,3.557-0.593,7.949,2.879,9.965
			l36.502,21.188c3.463,2.01,8.151,0.906,10.256-2.728l60.781-104.94c12.646,13.616,15.97,34.096,7.01,51.494
			c-1.838,3.569-0.539,7.954,2.946,9.946l36.644,20.943c3.473,1.984,8.158,0.851,10.236-2.796L511.016,105.367z M186.623,114.936
			l41.429-71.526l24.164,14.026c-8.495,22.222-3.17,47.277,13.856,64.131l-16.918,29.667L186.623,114.936z M294.056,102.775
			l151.72,86.714L334.904,383.902l-151.72-86.714L294.056,102.775z M168.881,494.238l-24.166-14.027
			c10.414-27.281-0.224-58.491-26.098-73.511c-25.878-15.021-58.22-8.761-76.703,13.836l-24.168-14.029l41.429-71.526l64.003,37.152
			l-5.233,9.176c-2.051,3.596-0.801,8.173,2.793,10.227l36.643,20.943c3.489,1.995,7.932,0.884,10.072-2.521
			c1.93-3.073,4.173-5.828,6.651-8.264l36.207,21.017L168.881,494.238z M217.828,409.732l-29.846-17.325
			c12.161-5.186,26.415-4.943,38.897,1.698L217.828,409.732z M286.405,468.946l-24.26-13.865
			c10.227-27.342-1.447-58.963-26.59-73.333c-25.977-14.849-58.278-8.372-76.609,14.351l-24.261-13.867l40.948-71.803l151.72,86.714
			L286.405,468.946z"/>
		<path d="M272.766,291.254l-17.29-9.883l28.147-2.42c3.661-0.319,6.628-2.84,7.382-6.273c0.778-3.541-0.884-7.066-4.296-9.016
			l-37.143-20.755c-3.618-2.021-8.187-0.727-10.205,2.889c-2.021,3.616-0.728,8.186,2.889,10.206l17.761,9.924l-29.765,2.559
			c-3.27,0.281-5.977,2.655-6.682,5.86c-0.706,3.205,0.754,6.496,3.603,8.125l38.155,21.808
			C273.373,308.878,281.413,296.196,272.766,291.254z"/>
		<path d="M253.972,236.112l37.878,21.649c3.473,1.984,8.158,0.851,10.236-2.796l9.113-15.979c2.053-3.598,0.799-8.178-2.799-10.23
			c-3.599-2.051-8.179-0.799-10.23,2.8l-5.395,9.458l-5.917-3.381l4.729-8.292c2.053-3.598,0.799-8.178-2.799-10.23
			c-3.598-2.051-8.179-0.799-10.23,2.8l-4.722,8.28l-5.917-3.381l5.401-9.471c2.052-3.599,0.798-8.179-2.801-10.23
			c-3.597-2.051-8.178-0.798-10.23,2.8l-9.112,15.98C249.128,229.481,250.378,234.058,253.972,236.112z"/>
		<path d="M274.486,202.27l41.906,14.063c7.801,2.626,14.691-7.593,8.786-13.868l-14.394-15.411l20.549,4.598
			c8.009,1.813,14.004-8.94,7.479-14.616l-33.303-28.96c-7.318-6.362-17.161,4.955-9.844,11.318l13.792,11.993l-19.126-4.279
			c-6.76-1.514-12.342,7.556-6.757,12.791l13.059,13.982l-17.378-5.832C270.065,184.967,265.291,199.185,274.486,202.27z"/>
		<path d="M385.833,232.726l-45.812-7.301c-7.274-1.115-12.711,7.953-7.891,13.772l29.493,35.913
			c6.292,7.663,17.656-2.136,11.592-9.52l-4.068-4.953l8.04-14.099l6.284,1.001C393.048,249.049,395.41,234.252,385.833,232.726z
			 M358.956,248.227l-4.342-5.287l6.744,1.075L358.956,248.227z"/>
		<path d="M360.227,282.559c-3.6-2.051-8.18-0.799-10.23,2.8l-5.395,9.458l-5.916-3.381l4.729-8.293
			c2.052-3.599,0.798-8.179-2.801-10.23c-3.597-2.052-8.178-0.799-10.23,2.8l-4.722,8.28l-5.916-3.381l5.401-9.471
			c2.053-3.598,0.799-8.178-2.799-10.23c-3.599-2.052-8.179-0.799-10.23,2.8l-9.113,15.979c-2.051,3.596-0.801,8.173,2.793,10.227
			l37.878,21.649c3.473,1.984,8.158,0.851,10.236-2.796l9.113-15.979C365.078,289.192,363.824,284.611,360.227,282.559z"/>
		<path d="M336.811,340.124c2.064-3.591,0.827-8.175-2.765-10.24l-17.578-10.104l-10.676-20.787
			c-1.894-3.685-6.414-5.137-10.099-3.245c-3.685,1.892-5.137,6.413-3.245,10.098l6.437,12.532l-14.196,0.85
			c-4.135,0.248-7.286,3.8-7.038,7.935c0.238,3.982,3.542,7.052,7.479,7.052c0.15,0,0.303-0.004,0.455-0.013l23.432-1.403
			l17.554,10.09C330.365,344.848,333.778,343.926,336.811,340.124z"/>
		<path d="M353.439,205.972l38.228,21.849c8.051,4.601,16.09-8.08,7.443-13.023l-6.248-3.571l15.841-3.264
			c9.498-1.957,6.47-16.646-3.027-14.691l-13.77,2.838c0.617-7.242-2.754-14.44-9.287-18.174v0
			c-4.266-2.438-9.286-3.049-14.14-1.724c-5.038,1.376-9.422,4.785-12.025,9.352l-5.793,10.159
			c-0.004,0.006-0.008,0.012-0.011,0.018C348.594,199.335,349.843,203.916,353.439,205.972z M369.484,192.992
			c0.646-1.134,1.721-1.977,2.948-2.312c0.697-0.19,1.74-0.297,2.743,0.277v0c1.827,1.044,2.363,3.83,1.146,5.962
			c-0.506,0.887-1.257,2.214-2.05,3.619c-1.338-0.757-2.593-1.469-3.433-1.949c-0.73-0.418-2.02-1.151-3.434-1.954L369.484,192.992z
			"/>
		<path d="M172.105,337.854l-14.382,25.219c-4.596,8.056,7.914,16.404,13.029,7.431l14.382-25.219
			c2.053-3.598,0.799-8.178-2.799-10.23C178.737,333.002,174.156,334.255,172.105,337.854z"/>
		<path d="M280.951,442.134c3.796,1.946,7.206,1.013,10.23-2.8l14.382-25.218c2.053-3.598,0.799-8.178-2.799-10.23
			c-3.599-2.051-8.179-0.799-10.23,2.8l-14.382,25.218C276.1,435.502,277.354,440.082,280.951,442.134z"/>
		<path d="M337.743,47.403l-14.382,25.218c-4.596,8.056,7.914,16.404,13.029,7.431l14.382-25.218
			c2.053-3.598,0.799-8.178-2.799-10.23C344.375,42.552,339.795,43.805,337.743,47.403z"/>
		<path d="M450.3,152.67c2.605,0,5.139-1.36,6.521-3.786l14.382-25.219c2.053-3.598,0.799-8.178-2.799-10.23
			c-3.599-2.051-8.179-0.799-10.23,2.8l-14.382,25.219C441.102,146.168,445.054,152.67,450.3,152.67z"/>
		<path d="M94.64,46.389c4.143,0,7.5-3.358,7.5-7.5v-20.84c0-9.697-15-9.697-15,0v20.84C87.14,43.031,90.497,46.389,94.64,46.389z"
			/>
		<path d="M94.64,130.543c4.143,0,7.5-3.358,7.5-7.5v-21.039c0-9.697-15-9.697-15,0v21.039
			C87.14,127.185,90.497,130.543,94.64,130.543z"/>
		<path d="M119.312,93.341l17.367,9.959c8.046,4.611,16.101-8.057,7.463-13.013l-17.367-9.959
			C118.361,75.508,110.901,88.516,119.312,93.341z"/>
		<path d="M45.137,50.804l17.367,9.959c8.045,4.613,16.101-8.057,7.463-13.012L52.6,37.791
			C44.186,32.971,36.726,45.979,45.137,50.804z"/>
		<path d="M48.875,104.296c1.266,0,2.548-0.321,3.725-0.995l17.367-9.959c8.411-4.825,0.951-17.833-7.463-13.012l-17.367,9.959
			C39.115,93.743,41.139,104.296,48.875,104.296z"/>
		<path d="M123.05,61.758c1.266,0,2.548-0.321,3.725-0.996l17.367-9.959c8.411-4.825,0.952-17.832-7.463-13.013l-17.367,9.959
			C113.29,51.205,115.314,61.758,123.05,61.758z"/>
		<path d="M40.981,177.908c4.143,0,7.5-3.358,7.5-7.5v-15.243c0-4.142-3.357-7.5-7.5-7.5s-7.5,3.358-7.5,7.5v15.243
			C33.481,174.55,36.838,177.908,40.981,177.908z"/>
		<path d="M40.981,239.462c4.143,0,7.5-3.358,7.5-7.5v-15.389c0-9.697-15-9.697-15,0v15.389
			C33.481,236.104,36.838,239.462,40.981,239.462z"/>
		<path d="M78.191,206.257l-12.703-7.285c-8.411-4.826-15.874,8.188-7.463,13.012l12.703,7.285c3.794,1.955,7.207,1.03,10.237-2.775
			C83.026,212.901,81.783,208.318,78.191,206.257z"/>
		<path d="M3.77,180.87l12.703,7.285c8.046,4.611,16.102-8.058,7.463-13.013l-12.703-7.285C2.82,163.034-4.642,176.046,3.77,180.87z
			"/>
		<path d="M7.508,220.264c1.266,0,2.548-0.321,3.725-0.996l12.703-7.285c8.411-4.824,0.95-17.835-7.463-13.012L3.77,206.257
			C-2.253,209.711-0.227,220.264,7.508,220.264z"/>
		<path d="M58.025,175.142c-8.639,4.955-0.583,17.623,7.463,13.013l12.703-7.285c3.593-2.061,4.835-6.644,2.774-10.237
			c-2.06-3.593-6.643-4.835-10.237-2.775L58.025,175.142z"/>
		<path d="M417.362,463.622c-4.143,0-7.5,3.358-7.5,7.5v20.84c0,9.697,15,9.697,15,0v-20.84
			C424.862,466.98,421.505,463.622,417.362,463.622z"/>
		<path d="M417.362,379.468c-4.143,0-7.5,3.358-7.5,7.5v21.039c0,9.697,15,9.697,15,0v-21.039
			C424.862,382.826,421.505,379.468,417.362,379.468z"/>
		<path d="M392.691,416.67l-17.367-9.959c-8.413-4.822-15.874,8.188-7.463,13.013l17.367,9.959
			C393.273,434.295,401.329,421.625,392.691,416.67z"/>
		<path d="M466.865,459.207l-17.367-9.959c-8.412-4.826-15.874,8.187-7.463,13.012l17.367,9.959
			C467.449,476.83,475.504,464.163,466.865,459.207z"/>
		<path d="M459.403,406.71l-17.367,9.959c-8.638,4.955-0.582,17.625,7.463,13.012l17.367-9.959
			C475.277,414.898,467.816,401.89,459.403,406.71z"/>
		<path d="M385.228,449.248l-17.367,9.959c-8.638,4.955-0.583,17.623,7.463,13.013l17.367-9.959
			C401.102,457.435,393.641,444.426,385.228,449.248z"/>
		<path d="M471.022,332.103c-4.143,0-7.5,3.358-7.5,7.5v15.244c0,9.697,15,9.697,15,0v-15.244
			C478.522,335.461,475.164,332.103,471.022,332.103z"/>
		<path d="M471.022,270.549c-4.143,0-7.5,3.358-7.5,7.5v15.389c0,9.697,15,9.697,15,0v-15.389
			C478.522,273.907,475.164,270.549,471.022,270.549z"/>
		<path d="M441.275,290.742c-8.412-4.824-15.874,8.188-7.463,13.012l12.703,7.285c8.045,4.613,16.102-8.057,7.463-13.012
			L441.275,290.742z"/>
		<path d="M508.233,329.141l-12.703-7.285c-8.412-4.823-15.874,8.187-7.463,13.012l12.703,7.285
			C508.814,346.766,516.871,334.096,508.233,329.141z"/>
		<path d="M500.77,290.742l-12.703,7.285c-8.639,4.955-0.582,17.625,7.463,13.012l12.703-7.285
			C516.644,298.93,509.183,285.92,500.77,290.742z"/>
		<path d="M453.978,334.868c8.411-4.824,0.951-17.833-7.463-13.012l-12.703,7.285c-8.639,4.955-0.582,17.625,7.463,13.012
			L453.978,334.868z"/>
	</g>
</g>
<g>
</g>
<g>
</g>
<g>
</g>
<g>
</g>
<g>
</g>
<g>
</g>
<g>
</g>
<g>
</g>
<g>
</g>
<g>
</g>
<g>
</g>
<g>
</g>
<g>
</g>
<g>
</g>
<g>
</g>
</svg>
