<?xml version="1.0" encoding="iso-8859-1"?>
<!-- Generator: Adobe Illustrator 25.0.0, SVG Export Plug-In . SVG Version: 6.00 Build 0)  -->
<svg version="1.1" id="Layer_1" xmlns="http://www.w3.org/2000/svg" xmlns:xlink="http://www.w3.org/1999/xlink" x="0px" y="0px"
	 viewBox="0 0 511.61 511.61" style="enable-background:new 0 0 511.61 511.61;" xml:space="preserve">
<g>
	<g>
		<g>
			<rect x="427.693" y="229.496" style="fill:#EB67A5;" width="49.322" height="248.486"/>
			<path style="fill:#F2A7D0;" d="M30.221,477.982h171.811c33.125,0,64.456-15.59,85.159-42.375c0,0,83.517-134.146,108.501-176.845
				c13.009-22.232,33.773-29.267,49.669-29.267h31.655c0,0,78.944-79.981-32.387-195.869c0,0-58.617,71.03-129.464,227.078
				s-93.113,132.12-180.154,109.488c0,0-74.509,20.326-120.89,67.013C-0.628,452.05,9.658,477.982,30.221,477.982z"/>
			<g>
				<path style="fill:#F294C7;" d="M444.627,33.627c0,0-6.735,8.165-18.387,25.015c78.505,102.224,10.775,170.854,10.775,170.854
					H405.36c-15.896,0-36.66,7.035-49.668,29.267C330.707,301.461,247.19,435.607,247.19,435.607
					c-20.703,26.785-52.034,42.375-85.159,42.375h40c33.125,0,64.456-15.59,85.159-42.375c0,0,83.517-134.146,108.501-176.845
					c13.009-22.232,33.773-29.267,49.668-29.267h31.655C477.014,229.496,555.958,149.515,444.627,33.627z"/>
			</g>
		</g>
		<g>
			<path style="fill:#EB67A5;" d="M135.009,370.194c0,0-74.509,20.326-120.89,67.013c-14.746,14.844-4.46,40.775,16.102,40.775
				h138.991C169.211,401.805,135.009,370.194,135.009,370.194z"/>
		</g>
	</g>
	<path d="M498.767,98.051c-3.912-8.874-17.638-2.821-13.725,6.052c13.41,30.413,15.276,59.808,5.545,87.369
		c-5.492,15.555-13.345,26.163-16.957,30.524H445.36c-23.071,0-44.059,12.329-56.143,32.979
		c-24.048,41.099-103.566,168.91-108.19,176.34c-19.382,24.897-48.152,39.167-78.996,39.167h-25.429
		c-1.237-42.409-12.811-70.746-22.61-87.337c28.345,7.947,60.44,18.649,87.906,2.241c24.582-14.685,47.038-48.772,80.094-121.58
		C379.484,137.175,429.32,66.309,445.168,45.184c7.803,8.577,14.79,17.218,20.833,25.769c5.597,7.92,17.846-0.737,12.25-8.656
		c-7.972-11.282-17.465-22.676-28.214-33.866c-3.857-3.206-7.588-3.065-11.193,0.422c-2.42,2.932-60.061,73.582-130.51,228.752
		c-31.249,68.829-52.725,102.119-74.128,114.904c-14.797,8.839-31.283,7.2-47.378,3.791c-14.414-3.053-49.495-14.37-53.793-13.342
		c-3.146,0.752-76.985,21.401-124.236,68.963c-18.711,18.832-5.712,53.561,21.422,53.561h28.446c9.697,0,9.697-15,0-15H30.22
		c-14.007,0-20.346-18.359-10.781-27.989c38.124-38.374,96.951-58.684,113.235-63.772c7.394,8.805,27.222,37.357,28.917,91.761
		h-59.925c-9.697,0-9.697,15,0,15h100.364c33.322,0,73.236-16.539,91.526-45.911c0,0,83.857-134.722,108.607-177.021
		c5.244-8.963,11.653-14.809,18.028-18.619v234.051c0,4.142,3.357,7.5,7.5,7.5h49.321c4.143,0,7.5-3.358,7.5-7.5V232.366
		c4.16-4.872,13.406-16.992,19.954-35.163C512.268,175.557,517.611,140.783,498.767,98.051z M435.193,470.482V238.084
		c4.131-0.871,7.691-1.088,10.167-1.088h24.154v233.486H435.193z"/>
</g>
<g>
</g>
<g>
</g>
<g>
</g>
<g>
</g>
<g>
</g>
<g>
</g>
<g>
</g>
<g>
</g>
<g>
</g>
<g>
</g>
<g>
</g>
<g>
</g>
<g>
</g>
<g>
</g>
<g>
</g>
</svg>
