<?xml version="1.0" encoding="iso-8859-1"?>
<!-- Generator: Adobe Illustrator 25.0.0, SVG Export Plug-In . SVG Version: 6.00 Build 0)  -->
<svg version="1.1" id="Layer_1" xmlns="http://www.w3.org/2000/svg" xmlns:xlink="http://www.w3.org/1999/xlink" x="0px" y="0px"
	 viewBox="0 0 512 512" style="enable-background:new 0 0 512 512;" xml:space="preserve">
<g>
	<g>
		<g>
			<path style="fill:#6B8DF2;" d="M399.368,429.124L256,466.9l-143.368-37.776V27.5c0-11.046,8.954-20,20-20h246.735
				c11.046,0,20,8.954,20,20V429.124z"/>
			<path style="fill:#527BF2;" d="M399.368,429.124V27.5c0-11.046-8.954-20-20-20h-40c11.046,0,20,8.954,20,20v401.624H399.368z"/>
			<path style="fill:#EBF7FF;" d="M379.368,504.5H132.632c-11.046,0-20-8.954-20-20v-55.376h286.735V484.5
				C399.368,495.546,390.413,504.5,379.368,504.5z"/>
			<path style="fill:#D9EDFA;" d="M359.368,429.124V484.5c0,11.046-8.954,20-20,20h40c11.046,0,20-8.954,20-20v-55.376H359.368z"/>
			<path style="fill:#6B8DF2;" d="M283.388,479.6h-54.775c-7.014,0-12.7-5.686-12.7-12.7v0c0-7.014,5.686-12.7,12.7-12.7h54.775
				c7.014,0,12.7,5.686,12.7,12.7v0C296.088,473.914,290.402,479.6,283.388,479.6z"/>
		</g>
		<g>
			<path style="fill:#F2A7D0;" d="M7.5,99.024v82.5c0,12.334,9.999,22.333,22.333,22.333h140.173l30.639,30.639v-30.639h87.073
				c12.334,0,22.333-9.999,22.333-22.333v-82.5c0-12.334-9.999-22.333-22.333-22.333H29.833C17.499,76.691,7.5,86.69,7.5,99.024z"/>
			<g>
				<polygon style="fill:#F294C7;" points="200.645,234.496 200.645,203.857 170.006,203.857 				"/>
				<path style="fill:#F294C7;" d="M287.718,76.691h-40c12.334,0,22.333,9.999,22.333,22.333v82.5
					c0,12.334-9.999,22.333-22.333,22.333h40c12.334,0,22.333-9.999,22.333-22.333v-82.5
					C310.051,86.69,300.052,76.691,287.718,76.691z"/>
			</g>
		</g>
		<g>
			<path style="fill:#FFCA21;" d="M504.5,187.07v149.498c0,12.334-9.999,22.333-22.333,22.333H352.992l-30.639,30.639v-30.639
				H291.28c-12.334,0-22.333-9.999-22.333-22.333V187.07c0-12.334,9.999-22.333,22.333-22.333h190.888
				C494.501,164.737,504.5,174.736,504.5,187.07z"/>
			<g>
				<path style="fill:#F2BB0C;" d="M482.167,164.737h-40c12.334,0,22.333,9.999,22.333,22.333v149.498
					c0,12.334-9.999,22.333-22.333,22.333h40c12.334,0,22.333-9.999,22.333-22.333V187.07
					C504.5,174.736,494.501,164.737,482.167,164.737z"/>
				<polygon style="fill:#F2BB0C;" points="322.353,389.54 352.992,358.901 322.353,358.901 				"/>
			</g>
		</g>
	</g>
	<g>
		<path d="M207.149,34.144c-9.652,0-9.668,15,0,15C216.801,49.144,216.817,34.144,207.149,34.144z"/>
		<path d="M279.999,34.144h-47.998c-4.142,0-7.5,3.358-7.5,7.5s3.358,7.5,7.5,7.5h47.998c4.142,0,7.5-3.358,7.5-7.5
			S284.141,34.144,279.999,34.144z"/>
		<path d="M283.388,446.699h-54.775c-11.138,0-20.2,9.062-20.2,20.201s9.062,20.2,20.2,20.2h54.775c11.138,0,20.2-9.062,20.2-20.2
			S294.526,446.699,283.388,446.699z M283.388,472.1h-54.775c-2.867,0-5.2-2.333-5.2-5.2c0-2.868,2.333-5.201,5.2-5.201h54.775
			c2.867,0,5.2,2.333,5.2,5.201C288.588,469.767,286.255,472.1,283.388,472.1z"/>
		<path d="M106.05,164.389l1.999-5.248h14.409l1.972,5.226c3.357,8.894,17.455,3.77,14.034-5.296l-15.272-40.469
			c-2.716-7.091-13.035-7.231-15.747-0.02L92.032,159.05C88.58,168.112,102.598,173.451,106.05,164.389z M116.797,144.142h-3.035
			l1.525-4.003L116.797,144.142z"/>
		<path d="M47.968,112.568c-4.142,0-7.5,3.358-7.5,7.5v41.045c0,4.142,3.358,7.5,7.5,7.5s7.5-3.358,7.5-7.5v-13.727h13.403v13.727
			c0,4.142,3.358,7.5,7.5,7.5s7.5-3.358,7.5-7.5v-41.045c0-4.142-3.358-7.5-7.5-7.5s-7.5,3.358-7.5,7.5v12.318H55.468v-12.318
			C55.468,115.926,52.11,112.568,47.968,112.568z"/>
		<path d="M256.51,169.22c3.788,0,7.509-3.773,7.519-7.481l0.046-18.75l11.794-18.117c2.26-3.472,1.277-8.118-2.194-10.377
			c-3.472-2.259-8.117-1.278-10.377,2.194l-6.727,10.333l-6.821-10.446c-2.265-3.469-6.913-4.443-10.38-2.179
			c-3.468,2.265-4.444,6.912-2.179,10.38l11.885,18.201l-0.046,18.724C249.019,165.844,252.368,169.209,256.51,169.22z"/>
		<path d="M161.617,161.72v-10.367c1.525-0.007,2.961-0.011,3.929-0.011c10.647,0,19.31-8.561,19.31-19.083
			s-8.663-19.083-19.31-19.083h-11.429c-4.086,0-7.5,3.415-7.5,7.5v41.045C146.617,171.417,161.617,171.417,161.617,161.72z
			 M165.545,128.175c2.296,0,4.31,1.908,4.31,4.083s-2.014,4.083-4.31,4.083c-0.96,0-2.377,0.004-3.888,0.011
			c-0.009-2.726-0.016-5.451-0.019-8.177H165.545z"/>
		<path d="M200.025,169.22c4.142,0,7.5-3.358,7.5-7.5v-10.367c1.525-0.007,2.961-0.011,3.929-0.011
			c10.647,0,19.31-8.561,19.31-19.083s-8.662-19.083-19.31-19.083h-11.429c-4.087,0-7.5,3.414-7.5,7.5v41.045
			C192.525,165.862,195.883,169.22,200.025,169.22z M211.454,128.175c2.296,0,4.31,1.908,4.31,4.083s-2.014,4.083-4.31,4.083
			c-0.96,0-2.377,0.004-3.889,0.011c-0.009-2.726-0.016-5.451-0.019-8.177H211.454z"/>
		<path d="M482.167,157.237h-75.3V27.5c0-15.164-12.336-27.5-27.5-27.5H132.632c-15.164,0-27.5,12.336-27.5,27.5v41.691h-75.3
			C13.383,69.191,0,82.574,0,99.023v15.044c0,4.142,3.358,7.5,7.5,7.5s7.5-3.358,7.5-7.5V99.023c0-8.179,6.654-14.833,14.833-14.833
			h257.886c8.179,0,14.833,6.654,14.833,14.833v58.214H291.28c-16.45,0-29.833,13.383-29.833,29.833v9.287h-60.802
			c-4.142,0-7.5,3.358-7.5,7.5v12.533l-17.836-17.836c-1.406-1.407-3.314-2.197-5.303-2.197H29.833
			c-8.179,0-14.833-6.654-14.833-14.833v-29.882c0-4.142-3.358-7.5-7.5-7.5S0,147.5,0,151.642v29.882
			c0,16.45,13.383,29.833,29.833,29.833h75.3V484.5c0,15.164,12.336,27.5,27.5,27.5h246.735c15.164,0,27.5-12.336,27.5-27.5V366.401
			h75.3c16.45,0,29.833-13.383,29.833-29.833V187.07C512,170.62,498.617,157.237,482.167,157.237z M287.718,69.191H120.132V27.5
			c0-6.893,5.607-12.5,12.5-12.5h246.735c6.893,0,12.5,5.607,12.5,12.5v129.737h-74.317V99.023
			C317.551,82.574,304.168,69.191,287.718,69.191z M391.868,421.624h-45.947c-9.697,0-9.697,15,0,15h45.947V484.5
			c0,6.893-5.607,12.5-12.5,12.5H132.632c-6.893,0-12.5-5.607-12.5-12.5v-47.876h185.855c9.697,0,9.697-15,0-15H120.132V211.356
			h46.767l28.443,28.443c4.758,4.759,12.803,1.157,12.803-5.303v-23.14h53.302v125.212c0,16.45,13.383,29.833,29.833,29.833h23.573
			v23.139c0,6.46,8.045,10.063,12.803,5.303l28.442-28.442h35.77V421.624z M497,336.568c0,8.179-6.654,14.833-14.833,14.833H352.992
			c-1.989,0-3.897,0.79-5.303,2.197l-17.836,17.836v-12.533c0-4.142-3.358-7.5-7.5-7.5H291.28c-8.179,0-14.833-6.654-14.833-14.833
			V187.07c0-8.179,6.654-14.833,14.833-14.833h190.888c8.179,0,14.833,6.654,14.833,14.833V336.568z"/>
		<path d="M348.116,253.843c3.391-1.059,5.669-4.3,5.668-8.138l-0.383-39.662c-0.04-4.118-3.39-7.428-7.498-7.428
			c-0.024,0-0.049,0-0.074,0c-4.142,0.04-7.467,3.43-7.427,7.572l0.167,17.282l-14.875-21.539c-1.865-2.701-5.27-3.874-8.403-2.898
			c-3.134,0.977-5.268,3.878-5.268,7.16v40.968c0,4.142,3.358,7.5,7.5,7.5s7.5-3.358,7.5-7.5v-16.909l14.031,20.318
			C341.132,253.572,344.774,254.887,348.116,253.843z"/>
		<path d="M371.193,254.286h17.137c4.142,0,7.5-3.358,7.5-7.5s-3.358-7.5-7.5-7.5h-9.637v-5.335h8.373c4.142,0,7.5-3.358,7.5-7.5
			s-3.358-7.5-7.5-7.5h-8.373v-5.335h9.637c4.142,0,7.5-3.358,7.5-7.5s-3.358-7.5-7.5-7.5h-17.137c-4.142,0-7.5,3.358-7.5,7.5v40.67
			C363.693,250.928,367.051,254.286,371.193,254.286z"/>
		<path d="M447.075,254.661c3.532-0.024,7.467-3.12,8.176-6.664l8.029-40.342c1.892-9.511-12.819-12.439-14.712-2.928l-2.927,14.708
			l-4.784-15.527c-2.037-6.612-12.654-6.965-14.451,0.45l-4.668,15.083l-2.924-14.781c-1.881-9.512-16.596-6.602-14.715,2.911
			L412.096,248c1.661,8.397,13.783,8.884,16.272,0.75l5.317-17.178l5.293,17.18C440.069,252.301,443.387,254.661,447.075,254.661z"
			/>
		<path d="M416.895,275.896c-2.699-7.147-13.033-7.177-15.748-0.02l-15.412,40.467c-3.358,8.82,10.555,14.431,14.018,5.339
			l1.999-5.248h14.409l1.972,5.226c3.424,9.072,17.458,3.777,14.034-5.296L416.895,275.896z M407.464,301.434l1.525-4.003
			l1.511,4.003H407.464z"/>
		<path d="M369.184,285.842c4.142,0,7.5-3.358,7.5-7.5s-3.358-7.5-7.5-7.5h-17.137c-4.142,0-7.5,3.358-7.5,7.5v40.67
			c0,4.142,3.358,7.5,7.5,7.5h17.137c4.142,0,7.5-3.358,7.5-7.5s-3.358-7.5-7.5-7.5h-9.637v-5.335h8.373c4.142,0,7.5-3.358,7.5-7.5
			s-3.358-7.5-7.5-7.5h-8.373v-5.335H369.184z"/>
		<path d="M332.578,271.785c-3.47-2.259-8.118-1.277-10.377,2.194l-6.727,10.334l-6.821-10.447
			c-2.265-3.469-6.913-4.444-10.38-2.179c-3.468,2.265-4.444,6.912-2.179,10.38l11.885,18.202l-0.046,18.724
			c-0.01,4.142,3.339,7.508,7.481,7.519c0.006,0,0.013,0,0.019,0c4.133,0,7.489-3.346,7.5-7.481l0.046-18.75l11.794-18.118
			C337.032,278.691,336.049,274.045,332.578,271.785z"/>
		<path d="M478.575,288.634c0-10.018-8.42-18.167-18.771-18.167h-10.907c-0.002,0-0.004,0-0.007,0c-0.002,0-0.004,0-0.007,0
			c-4.142,0-7.5,3.358-7.5,7.5v41.045c0,9.697,15,9.697,15,0v-5.341l9.062,10.296c6.498,7.385,17.607-2.699,11.26-9.91l-8.214-9.333
			C474.476,301.684,478.575,295.618,478.575,288.634z M459.804,285.467c2.009,0,3.771,1.48,3.771,3.167
			c0,1.687-1.762,3.167-3.771,3.167c-0.844,0-2.058,0.003-3.371,0.009c-0.005-1.241-0.009-2.38-0.009-3.176
			c0-0.695-0.002-1.858-0.005-3.167H459.804z"/>
		<path d="M47.848,415.866c-4.142,0-7.5,3.358-7.5,7.5v16.017c0,9.697,15,9.697,15,0v-16.017
			C55.348,419.224,51.99,415.866,47.848,415.866z"/>
		<path d="M47.848,351.187c-4.142,0-7.5,3.358-7.5,7.5v16.17c0,9.697,15,9.697,15,0v-16.17
			C55.348,354.544,51.99,351.187,47.848,351.187z"/>
		<path d="M29.749,380.01L16.4,372.355c-8.411-4.826-15.874,8.188-7.462,13.012l13.348,7.655
			C30.33,397.636,38.388,384.964,29.749,380.01z"/>
		<path d="M86.758,412.703l-13.348-7.655c-8.411-4.826-15.874,8.188-7.462,13.012l13.348,7.655
			C87.34,430.329,95.397,417.657,86.758,412.703z"/>
		<path d="M79.296,372.355l-13.348,7.655c-8.639,4.954-0.582,17.626,7.462,13.012l13.348-7.655
			C95.17,380.543,87.708,367.531,79.296,372.355z"/>
		<path d="M22.287,405.048l-13.348,7.655c-8.639,4.954-0.582,17.626,7.462,13.012l13.348-7.655
			C38.161,413.236,30.698,400.224,22.287,405.048z"/>
		<path d="M35.05,266.733c4.142,0,7.5-3.358,7.5-7.5v-12.544c0-9.697-15-9.697-15,0v12.544
			C27.55,263.375,30.908,266.733,35.05,266.733z"/>
		<path d="M42.55,309.887v-12.664c0-9.697-15-9.697-15,0v12.664C27.55,319.584,42.55,319.584,42.55,309.887z"/>
		<path d="M69.106,297.818c2.061-3.593,0.818-8.176-2.775-10.237l-10.454-5.995c-8.411-4.826-15.874,8.188-7.462,13.012
			l10.454,5.995C62.664,302.549,66.076,301.624,69.106,297.818z"/>
		<path d="M3.769,268.995l10.454,5.995c8.045,4.612,16.102-8.058,7.462-13.013l-10.454-5.995
			C2.818,251.162-4.644,264.171,3.769,268.995z"/>
		<path d="M11.231,300.593l10.454-5.995c8.412-4.824,0.949-17.837-7.462-13.012l-10.454,5.995
			C-4.87,292.536,3.188,305.209,11.231,300.593z"/>
		<path d="M52.154,275.985c1.265,0,2.548-0.321,3.724-0.995l10.454-5.995c8.413-4.824,0.951-17.836-7.462-13.013l-10.454,5.995
			C42.393,265.431,44.418,275.985,52.154,275.985z"/>
		<path d="M469.321,397.118c-4.142,0-7.5,3.358-7.5,7.5v12.544c0,9.697,15,9.697,15,0v-12.544
			C476.821,400.476,473.463,397.118,469.321,397.118z"/>
		<path d="M469.321,447.651c-4.142,0-7.5,3.358-7.5,7.5v12.664c0,9.697,15,9.697,15,0v-12.664
			C476.821,451.009,473.463,447.651,469.321,447.651z"/>
		<path d="M500.603,445.51l-10.454-5.995c-8.411-4.825-15.874,8.188-7.462,13.012l10.454,5.995
			C501.184,463.136,509.242,450.464,500.603,445.51z"/>
		<path d="M455.956,419.905l-10.454-5.995c-8.413-4.823-15.875,8.189-7.462,13.013l10.454,5.995
			C456.539,437.53,464.595,424.86,455.956,419.905z"/>
		<path d="M448.494,439.515l-10.454,5.995c-8.639,4.954-0.581,17.628,7.462,13.012l10.454-5.995
			C464.368,447.702,456.904,434.688,448.494,439.515z"/>
		<path d="M493.141,413.911l-10.454,5.995c-8.64,4.954-0.583,17.625,7.462,13.013l10.454-5.995
			C509.015,422.099,501.554,409.088,493.141,413.911z"/>
		<path d="M469.321,72.065c4.142,0,7.5-3.358,7.5-7.5V48.547c0-9.697-15-9.697-15,0v16.018
			C461.821,68.707,465.179,72.065,469.321,72.065z"/>
		<path d="M469.321,136.744c4.142,0,7.5-3.358,7.5-7.5v-16.17c0-9.697-15-9.697-15,0v16.17
			C461.821,133.386,465.179,136.744,469.321,136.744z"/>
		<path d="M487.421,107.921l13.348,7.655c8.044,4.615,16.101-8.057,7.462-13.012l-13.348-7.655
			C486.472,90.083,479.009,103.097,487.421,107.921z"/>
		<path d="M430.412,75.228l13.348,7.655c8.044,4.615,16.101-8.057,7.462-13.012l-13.348-7.655
			C429.462,57.39,422,70.404,430.412,75.228z"/>
		<path d="M434.149,116.571c1.265,0,2.548-0.321,3.724-0.996l13.348-7.655c8.412-4.824,0.95-17.835-7.462-13.012l-13.348,7.655
			C424.389,106.018,426.414,116.571,434.149,116.571z"/>
		<path d="M491.159,83.878c1.265,0,2.548-0.321,3.724-0.996l13.348-7.655c8.412-4.824,0.949-17.838-7.462-13.012l-13.348,7.655
			C481.398,73.324,483.423,83.878,491.159,83.878z"/>
		<path d="M189.295,283.683c-4.142,0-7.5,3.358-7.5,7.5v16.018c0,9.697,15,9.697,15,0v-16.018
			C196.795,287.041,193.438,283.683,189.295,283.683z"/>
		<path d="M189.295,348.209c-4.142,0-7.5,3.358-7.5,7.5v16.17c0,9.697,15,9.697,15,0v-16.17
			C196.795,351.567,193.438,348.209,189.295,348.209z"/>
		<path d="M228.205,345.199l-13.348-7.654c-8.413-4.822-15.875,8.188-7.462,13.013l13.348,7.654
			C228.789,362.824,236.845,350.153,228.205,345.199z"/>
		<path d="M150.386,317.863l13.348,7.655c8.044,4.615,16.101-8.057,7.462-13.012l-13.348-7.655
			C149.436,300.028,141.973,313.039,150.386,317.863z"/>
		<path d="M163.734,337.544l-13.348,7.654c-8.64,4.954-0.583,17.625,7.462,13.013l13.348-7.654
			C179.608,345.733,172.147,332.722,163.734,337.544z"/>
		<path d="M211.133,326.513c1.265,0,2.548-0.321,3.724-0.996l13.348-7.655c8.412-4.824,0.948-17.838-7.462-13.012l-13.348,7.655
			C201.373,315.96,203.398,326.513,211.133,326.513z"/>
	</g>
</g>
<g>
</g>
<g>
</g>
<g>
</g>
<g>
</g>
<g>
</g>
<g>
</g>
<g>
</g>
<g>
</g>
<g>
</g>
<g>
</g>
<g>
</g>
<g>
</g>
<g>
</g>
<g>
</g>
<g>
</g>
</svg>
