<?xml version="1.0" encoding="iso-8859-1"?>
<!-- Generator: Adobe Illustrator 25.0.0, SVG Export Plug-In . SVG Version: 6.00 Build 0)  -->
<svg version="1.1" id="Layer_1" xmlns="http://www.w3.org/2000/svg" xmlns:xlink="http://www.w3.org/1999/xlink" x="0px" y="0px"
	 viewBox="0 0 511.99 511.99" style="enable-background:new 0 0 511.99 511.99;" xml:space="preserve">
<g>
	<g>
		<g>
			<path style="fill:#EBF7FF;" d="M361.865,423.305c-51.975,28.251-111.852,34.591-168.6,17.852S89.69,386.602,61.411,334.678
				S26.786,222.935,43.542,166.242S98.15,62.769,150.125,34.517s111.852-34.591,168.6-17.852S422.299,71.22,450.578,123.145
				c28.279,51.925,34.625,111.743,17.869,168.436S413.84,395.054,361.865,423.305z"/>
			<path style="fill:#B5C8FF;" d="M404.714,148.075c-21.613-39.686-57.402-68.587-100.775-81.381
				c-43.372-12.794-89.135-7.948-128.86,13.644c-39.724,21.592-68.654,57.346-81.46,100.676
				c-12.806,43.33-7.956,89.049,13.657,128.734c21.613,39.686,57.402,68.587,100.775,81.381
				c43.372,12.794,89.135,7.948,128.86-13.644c39.724-21.592,68.654-57.347,81.46-100.676S426.327,187.76,404.714,148.075z"/>
			<path style="fill:#9CB5FF;" d="M404.714,148.075c-21.613-39.686-57.402-68.587-100.775-81.381
				c-22.459-6.625-45.557-8.508-68.128-5.797c9.43,1.13,18.834,3.056,28.128,5.797c43.372,12.794,79.161,41.696,100.775,81.381
				c21.613,39.686,26.464,85.404,13.657,128.734c-12.806,43.33-41.736,79.084-81.46,100.676
				c-19.154,10.411-39.714,16.917-60.732,19.441c34.579,4.145,69.52-2.476,100.732-19.441
				c39.724-21.592,68.654-57.346,81.46-100.676C431.177,233.479,426.327,187.76,404.714,148.075z"/>
		</g>
		<g>
			<rect x="165.775" y="125.7" style="fill:#FFCA21;" width="180.439" height="309.615"/>
			<g>
				<g>
					<path style="fill:#EBF7FF;" d="M281.932,295.103L281.932,295.103c18.223,0,32.995-14.787,32.995-33.028v-73.925
						c0-18.241-14.772-33.028-32.995-33.028h0V295.103z"/>
				</g>
				<g>
					<path style="fill:#EBF7FF;" d="M227.989,269.102h-0.003c-13.942,0-25.245-11.302-25.245-25.245v-25.854h50.493v25.854
						C253.234,257.799,241.931,269.102,227.989,269.102z"/>
				</g>
			</g>
			<g>
				<g>
					<g>
						<g>
							<path style="fill:#41CCB4;" d="M249.939,380.868c-9.83-14.746-22.66-20.578-51.954-28.549
								c-0.044-0.012-0.09-0.017-0.135-0.026c-33.921-6.491-64.629-3.418-68.588,6.864c-2.734,7.098,7.998,15.773,26.064,22.601
								c2.711,1.025,2.036,5.034-0.862,5.116l-0.203,0.006c-31.073,0.893-57.281,8.972-58.538,18.046s22.913,15.706,53.986,14.813
								l0.089-0.003c1.641-0.047,2.154,2.19,0.654,2.856c-7.489,3.323-15.593,7.552-23.842,12.551
								c-29.111,17.645-48.943,38.153-44.295,45.806c4.648,7.654,32.015-0.446,61.127-18.09
								c8.248-4.999,15.746-10.227,22.155-15.328c1.284-1.022,3.034,0.466,2.233,1.898l-0.043,0.078
								c-15.146,27.12-20.422,51.6-11.786,54.677c8.636,3.077,27.915-16.413,43.06-43.533l0.099-0.178
								c1.411-2.53,5.283-1.276,4.94,1.6c-2.283,19.162,0.461,32.678,8.025,33.534c10.957,1.241,27.87-24.549,37.775-57.604
								c0.013-0.044,0.026-0.088,0.039-0.132C249.939,437.872,263.489,401.194,249.939,380.868z"/>
						</g>
					</g>
					<g>
						<g>
							<path style="fill:#41CCB4;" d="M261.984,437.872c0.013,0.044,0.026,0.088,0.039,0.132
								c9.906,33.054,26.818,58.844,37.775,57.604c7.564-0.856,10.308-14.372,8.025-33.534c-0.343-2.876,3.529-4.13,4.94-1.6
								l0.099,0.178c15.145,27.12,34.424,46.611,43.06,43.533c8.636-3.077,3.359-27.557-11.786-54.677l-0.043-0.078
								c-0.8-1.432,0.949-2.92,2.233-1.898c6.409,5.101,13.907,10.329,22.155,15.328c29.111,17.645,56.479,25.744,61.127,18.09
								c4.648-7.654-15.184-28.162-44.295-45.806c-8.248-4.999-16.353-9.228-23.842-12.551c-1.5-0.666-0.987-2.903,0.654-2.856
								l0.089,0.003c31.073,0.893,55.243-5.739,53.986-14.813s-27.465-17.153-58.538-18.046l-0.203-0.006
								c-2.898-0.082-3.573-4.091-0.862-5.116c18.066-6.828,28.798-15.503,26.064-22.601c-3.96-10.282-34.668-13.355-68.589-6.864
								c-0.045,0.009-0.091,0.014-0.135,0.026c-29.294,7.971-42.124,13.804-51.954,28.549
								C248.433,401.194,261.984,437.872,261.984,437.872z"/>
						</g>
					</g>
					<g>
						<path style="fill:#0FBA9D;" d="M385.313,435.142c-8.248-4.999-16.353-9.228-23.842-12.551c-1.5-0.666-0.987-2.903,0.654-2.856
							l0.089,0.003c31.073,0.893,55.243-5.739,53.986-14.813c-1.257-9.074-27.465-17.153-58.538-18.046l-0.203-0.006
							c-2.898-0.082-3.573-4.091-0.862-5.116c18.066-6.828,28.798-15.503,26.064-22.601c-3.481-9.039-27.636-12.503-56.471-8.799
							c8.848,1.64,14.863,4.626,16.471,8.799c2.734,7.098-7.998,15.773-26.064,22.601c-2.711,1.025-2.036,5.034,0.862,5.116
							l0.203,0.006c31.073,0.893,57.281,8.972,58.538,18.046c1.257,9.074-22.913,15.706-53.986,14.813l-0.089-0.003
							c-1.641-0.047-2.154,2.19-0.654,2.856c7.489,3.323,15.594,7.552,23.842,12.551c22.54,13.662,39.507,29.036,43.865,38.835
							c20.418,9.536,36.917,12.757,40.43,6.971C434.257,473.295,414.425,452.786,385.313,435.142z"/>
					</g>
				</g>
				<g>
					<ellipse style="fill:#F2A7D0;" cx="285.801" cy="369.466" rx="29.839" ry="29.81"/>
					<path style="fill:#F294C7;" d="M285.801,339.656c-5.47,0-10.592,1.477-15,4.044c8.872,5.166,14.839,14.767,14.839,25.766
						s-5.967,20.6-14.839,25.766c4.408,2.567,9.53,4.044,15,4.044c16.48,0,29.839-13.346,29.839-29.81
						C315.64,353.002,302.28,339.656,285.801,339.656z"/>
					<ellipse style="fill:#F2A7D0;" cx="226.122" cy="369.466" rx="29.839" ry="29.81"/>
					<ellipse style="fill:#F2A7D0;" cx="255.961" cy="409.621" rx="29.839" ry="29.81"/>
					<path style="fill:#F294C7;" d="M255.961,379.811c-5.47,0-10.592,1.477-15,4.044c8.872,5.166,14.839,14.767,14.839,25.766
						s-5.967,20.6-14.839,25.766c4.408,2.567,9.53,4.044,15,4.044c16.48,0,29.839-13.346,29.839-29.81
						S272.441,379.811,255.961,379.811z"/>
				</g>
			</g>
		</g>
	</g>
	<path d="M475.64,293.706c17.324-58.616,10.763-120.463-18.475-174.149C427.928,65.874,379.516,26.778,320.847,9.472
		C262.18-7.834,200.277-1.279,146.543,27.928C92.808,57.136,53.673,105.502,36.35,164.117
		c-17.324,58.616-10.763,120.463,18.475,174.148c11.066,20.32,24.909,38.622,41.223,54.545c-7.288,5.167-10.865,14.347-4.266,21.708
		c6.103,6.807,19.818,10.437,34.759,11.942c-12.989,7.557-63.658,36.939-50.637,58.381c4.303,7.085,14.374,8.344,29.928,3.741
		c16.011-4.738,31.231-12.783,45.294-21.659c-5.565,13.934-8.679,27.761-5.462,36.317c1.865,4.961,6.819,8.75,12.187,8.749
		c12.376-0.001,27.154-16.279,38.166-32.276c0.723,9.806,4.748,23.439,16.905,23.439c18.095-0.001,34.293-33.551,42.007-56.247
		c0.689,0.035,1.378,0.035,2.067,0c8.009,23.552,24.898,58.267,43.648,56.155c11.127-1.259,14.584-14.102,15.266-23.346
		c11.01,15.996,25.788,32.278,38.166,32.276c5.368-0.002,10.32-3.786,12.187-8.749c3.215-8.552,0.105-22.372-5.467-36.32
		c14.074,8.884,29.284,16.922,45.299,21.662c15.558,4.604,25.626,3.345,29.929-3.741c4.686-7.716,0.084-18.283-13.676-31.405
		c-2.997-2.858-7.745-2.747-10.604,0.252c-2.858,2.998-2.746,7.745,0.251,10.604c6.038,5.757,8.875,9.816,10.06,12.118
		c-0.06,0-0.119,0.001-0.18,0.001c-6.849,0-24.975-5.1-49.502-19.966c-7.788-4.721-14.979-9.694-21.373-14.783
		c-7.617-6.059-18.117,3.072-13.408,11.501c12.32,22.062,15.657,38.09,14.966,43.487c-5.753-2.291-19.739-15.653-33.146-39.661
		c-5.641-8.05-20.42-5.666-19.032,5.97c1.983,16.641-0.57,23.572-1.715,25.128c-4.138-1.041-16.761-14.804-27.001-44.627
		c14.181-6.595,22.951-21.851,21.465-37.41c17.093-3.412,30.014-18.517,30.014-36.585c0-3.777-0.569-7.423-1.619-10.862
		c11.935-1.898,43.996-7.072,53.945,3.01c-0.857,1.735-5.837,7.201-21.521,13.128c-10.998,4.157-6.243,18.078,3.501,19.635
		c18.828,0.541,33.354,3.628,42.151,6.817c2.951,1.043,5.737,2.451,8.356,4.223c-4.485,3.106-20.264,7.554-45.612,6.822
		c-9.631-0.251-12.743,13.289-3.912,17.208c7.471,3.315,15.208,7.389,22.996,12.109c7.951,4.817,16.281-7.672,7.775-12.828
		c-1.274-0.772-2.547-1.528-3.819-2.268c14.942-1.506,28.658-5.136,34.76-11.942c2.77-3.089,4.009-6.862,3.488-10.622
		c-0.606-4.37-3.446-8.024-7.724-11.065C443.878,365.656,464.44,331.6,475.64,293.706z M213.275,488.108
		c-1.138-1.519-3.72-8.438-1.729-25.148c1.39-11.673-13.149-13.878-19.035-5.966c-13.405,24.004-27.392,37.367-33.145,39.657
		c-0.69-5.398,2.65-21.434,15.009-43.563c4.704-8.416-5.906-17.43-13.451-11.425c-6.393,5.088-13.584,10.062-21.373,14.782
		c-24.836,15.054-43.115,20.079-49.754,19.964c2.961-5.949,15.876-19.807,40.699-34.853c7.786-4.719,15.523-8.793,22.998-12.11
		c8.844-3.926,5.187-17.205-4.002-17.205c-25.268,0.73-41.039-3.717-45.524-6.824c13.714-9.279,34.649-10.585,50.509-11.04
		c9.755-1.277,14.464-15.49,3.5-19.635c-15.617-5.902-20.622-11.347-21.51-13.106c10.949-10.931,41.18-5.057,53.934-3.03
		c-1.049,3.438-1.618,7.084-1.618,10.861c0,18.068,12.921,33.173,30.014,36.585c-1.485,15.559,7.284,30.815,21.464,37.41
		C229.96,473.441,217.255,487.188,213.275,488.108z M210.382,225.217h35.211v18.781c0,9.707-7.897,17.604-17.604,17.604h-0.004
		c-9.707,0-17.604-7.897-17.604-17.604V225.217z M225.788,347.164c11.207,0,25.127,9.303,22.372,25.972
		c-10.7,2.282-19.715,9.156-24.874,18.454c-10.983-1.397-19.503-10.782-19.503-22.124
		C203.783,357.276,213.624,347.344,225.788,347.164z M255.962,431.931c-12.318,0-22.339-10.008-22.339-22.31
		c0-12.302,10.811-22.311,23.129-22.311c0.528-0.001-0.525-0.042,0,0c11.583,0.813,21.55,10.539,21.55,22.311
		C278.301,421.923,268.279,431.931,255.962,431.931z M288.637,391.59c-5.158-9.295-14.168-16.167-24.864-18.452
		c-2.189-13.238,8.501-25.982,22.028-25.982c12.318,0,22.339,10.008,22.339,22.31C308.14,380.807,299.62,390.193,288.637,391.59z
		 M289.432,168.786c10.409,3.214,17.995,12.937,17.995,24.4v73.925c0,11.463-7.586,21.187-17.995,24.401V168.786z M289.432,332.335
		v-25.404c18.757-3.531,32.995-20.038,32.995-39.82v-73.925c0-22.347-18.166-40.527-40.495-40.527c-4.142,0-7.5,3.358-7.5,7.5
		V333.93c-7.438,2.382-13.87,7.031-18.471,13.135c-5.01-6.646-12.187-11.573-20.474-13.72v-57.624
		c14.374-3.397,25.105-16.327,25.105-31.724v-81.374c0-4.142-3.358-7.5-7.5-7.5c-4.142,0-7.5,3.358-7.5,7.5v47.593h-10.105v-47.593
		c0-4.142-3.358-7.5-7.5-7.5s-7.5,3.358-7.5,7.5v47.593h-10.105v-47.593c0-4.142-3.358-7.5-7.5-7.5s-7.5,3.358-7.5,7.5v81.374
		c0,15.397,10.732,28.327,25.105,31.724v56.859c-8.816,1.339-16.623,5.774-22.288,12.151c-8.188-1.522-16.686-2.586-24.924-3.057
		V133.2h165.438v208.469c-8.262,0.469-16.785,1.535-24.991,3.063C307.633,337.876,299.065,333.268,289.432,332.335z
		 M376.006,380.768c10.219-6.315,21.788-20.145,8.782-30.777c24.309-25.841,40.575-59.123,45.997-94.372
		c5.914-38.448-0.822-76.878-19.479-111.135C364.711,58.928,257.13,27.193,171.494,73.742
		c-29.203,15.873-53.226,39.485-69.472,68.283c-4.765,8.446,8.299,15.815,13.064,7.37c14.862-26.344,36.844-47.947,63.571-62.475
		c78.378-42.602,176.834-13.561,219.476,64.737c17.072,31.347,23.236,66.508,17.826,101.681
		c-5.237,34.051-21.518,66.096-45.844,90.234c-4.912-1.132-10.466-1.795-16.402-2.05V125.7c0-4.142-3.358-7.5-7.5-7.5H165.775
		c-4.142,0-7.5,3.358-7.5,7.5v215.823c-5.926,0.251-11.471,0.908-16.38,2.032c-11.064-10.998-20.5-23.546-28.04-37.39
		c-19.022-34.927-24.495-75.46-15.409-114.131c2.218-9.441-12.384-12.869-14.603-3.431c-9.931,42.267-3.951,86.565,16.838,124.737
		c7.281,13.368,16.166,25.65,26.484,36.624c-12.883,10.485-1.496,24.474,8.749,30.805c-8.543,1.05-17.471,2.733-25.268,5.232
		c-17.045-15.766-31.382-34.217-42.651-54.909c-27.32-50.164-33.451-107.954-17.263-162.723
		c16.188-54.772,52.757-99.968,102.972-127.262C203.923,13.811,261.775,7.685,316.603,23.86
		c54.827,16.172,100.068,52.706,127.389,102.872c27.32,50.164,33.451,107.954,17.263,162.723
		c-11.015,37.27-31.709,70.562-59.96,96.552C393.493,383.504,384.557,381.819,376.006,380.768z"/>
</g>
<g>
</g>
<g>
</g>
<g>
</g>
<g>
</g>
<g>
</g>
<g>
</g>
<g>
</g>
<g>
</g>
<g>
</g>
<g>
</g>
<g>
</g>
<g>
</g>
<g>
</g>
<g>
</g>
<g>
</g>
</svg>
