<?xml version="1.0" encoding="iso-8859-1"?>
<!-- Generator: Adobe Illustrator 25.0.0, SVG Export Plug-In . SVG Version: 6.00 Build 0)  -->
<svg version="1.1" id="Layer_1" xmlns="http://www.w3.org/2000/svg" xmlns:xlink="http://www.w3.org/1999/xlink" x="0px" y="0px"
	 viewBox="0 0 511.981 511.981" style="enable-background:new 0 0 511.981 511.981;" xml:space="preserve">
<g>
	<g>
		<path style="fill:#6B8DF2;" d="M34.5,190.635v298.519c0,8.588,6.962,15.55,15.55,15.55h0c8.588,0,15.55-6.962,15.55-15.55V190.635
			H34.5z"/>
		<g>
			<path style="fill:#FFE594;" d="M155.665,287.562c-44.536,0-86.442-17.837-112.099-47.714c-0.022-0.026-0.044-0.052-0.066-0.078
				C17.881,209.71,5.522,170.994,7.758,127.809C9.664,90.995,22.315,52.733,43.38,20.074c5.027-7.795,13.605-12.37,22.65-12.37
				c1.516,0,3.043,0.128,4.571,0.391c10.643,1.834,19.173,9.86,21.685,20.405c4.602,19.319,15.898,29.788,62.334,29.788
				c39.194,0,75.733,13.744,101.378,37.481c25.645-23.74,62.181-37.481,101.379-37.481c42.759,0,56.122-3.909,62.285-29.788
				c2.512-10.545,11.042-18.572,21.685-20.405c1.526-0.263,3.056-0.391,4.57-0.391c9.046,0,17.623,4.575,22.65,12.37
				c21.035,32.615,33.699,70.864,35.66,107.702c2.309,43.386-10.082,82.154-35.833,112.113
				c-25.556,29.733-67.059,47.484-111.018,47.484c-39.051,0-75.483-13.652-101.118-37.243
				c-10.816,10.208-23.711,18.655-38.066,24.863C199.177,283.216,177.555,287.562,155.665,287.562z"/>
			<g>
				<path style="fill:#F7D877;" d="M504.228,127.776c-1.961-36.838-14.625-75.087-35.66-107.702
					c-5.027-7.796-13.604-12.37-22.65-12.37c-1.515,0-3.044,0.128-4.57,0.391c-6.08,1.048-11.465,4.122-15.438,8.527
					c0.964,1.069,1.86,2.215,2.658,3.452c21.035,32.615,33.699,70.864,35.66,107.702c2.309,43.386-10.082,82.154-35.833,112.113
					c-21.653,25.191-54.753,41.777-91.095,46.257c6.585,0.805,13.29,1.227,20.077,1.227c43.959,0,85.462-17.751,111.018-47.484
					C494.146,209.931,506.537,171.162,504.228,127.776z"/>
			</g>
			<path style="fill:#EB67A5;" d="M155.665,255.464c-35.354,0-68.2-13.67-87.863-36.568c-20.179-23.679-29.899-54.605-28.096-89.422
				c1.442-27.853,10.193-56.793,24.844-82.574c6.259,16.104,17.1,27.438,32.904,34.479c17.921,7.983,39.964,9.007,57.166,9.007
				c36.906,0,70.404,14.881,89.607,39.807c2.838,3.684,7.128,5.796,11.771,5.796c4.643,0,8.933-2.113,11.771-5.796
				c19.204-24.925,52.702-39.807,89.607-39.807c33.228,0,73.988,0,90.081-43.381c14.601,25.733,23.343,54.635,24.825,82.483
				c1.859,34.95-7.862,65.877-28.114,89.438c-19.563,22.761-52.009,36.35-86.792,36.35c-36.84,0-70.307-14.841-89.524-39.699
				c-2.846-3.682-7.143-5.793-11.788-5.793c-4.71,0-9.03,2.162-11.851,5.931C225.586,240.605,192.484,255.464,155.665,255.464z"/>
			<g>
				<path style="fill:#EBF7FF;" d="M214.152,173.656c0,0-27.726,28.584-58.532,25.811c-30.806-2.773-53.025-35.853-53.025-35.853
					s27.726-28.584,58.532-25.811S214.152,173.656,214.152,173.656z"/>
				<path style="fill:#EBF7FF;" d="M297.848,173.656c0,0,27.726,28.584,58.532,25.811c30.806-2.773,53.025-35.853,53.025-35.853
					s-27.726-28.584-58.532-25.811S297.848,173.656,297.848,173.656z"/>
			</g>
		</g>
	</g>
	<g>
		<path d="M511.717,127.378c-2.029-38.123-15.115-77.674-36.847-111.368c-16.136-25.02-55.615-18.169-62.505,10.753
			c-4.563,19.163-10.562,24.025-54.989,24.025c-38.085,0-74.625,12.686-101.378,35.001c-26.756-22.315-63.295-35.001-101.378-35.001
			c-49.315,0-52.355-12.764-55.038-24.026C92.696-2.139,53.232-9.038,37.077,16.008C15.313,49.751,2.241,89.318,0.268,127.421
			C-1.731,166.024,7.481,201.253,27,230.374v258.78c0,29.589,46.1,29.633,46.1,0V273.569c23.941,13.789,52.705,21.493,82.564,21.493
			c22.907,0,45.558-4.559,65.504-13.185c12.988-5.616,24.784-12.913,35.154-21.737c26.726,22.146,63.144,34.733,101.053,34.733
			c28.885,0,56.841-7.222,80.845-20.886c8.427-4.798,1.007-17.834-7.42-13.036c-21.747,12.379-47.137,18.922-73.425,18.922
			c-36.684,0-71.688-12.853-96.039-35.262c-2.897-2.666-7.362-2.638-10.227,0.064c-10.266,9.689-22.342,17.573-35.895,23.434
			c-18.083,7.819-38.676,11.953-59.551,11.953c-42.379,0-82.158-16.86-106.457-45.156c-24.352-28.575-36.096-65.474-33.961-106.709
			c1.84-35.527,14.069-72.482,34.436-104.058c9.132-14.157,31.361-10.463,35.307,6.1c6.252,26.248,24.473,35.55,69.63,35.55
			c36.826,0,71.92,12.934,96.284,35.485c2.875,2.662,7.315,2.661,10.19,0c24.36-22.552,59.454-35.485,96.283-35.485
			c41.543,0,61.95-3.507,69.581-35.55c3.944-16.564,26.177-20.257,35.308-6.099c20.338,31.533,32.581,68.48,34.474,104.035
			c2.253,42.346-11.229,82.48-36.99,110.112c-6.611,7.093,4.36,17.324,10.972,10.229
			C499.242,217.921,514.185,173.768,511.717,127.378z M58.1,263.66v225.494c0,10.406-16.1,10.406-16.1,0V249.28
			C46.917,254.463,52.301,259.271,58.1,263.66z"/>
		<path d="M479.772,129.089c-1.55-29.115-10.469-58.779-25.791-85.786c-3.088-5.441-11.379-4.774-13.556,1.093
			c-14.278,38.49-50.813,38.49-83.049,38.49c-39.215,0-74.935,15.974-95.549,42.729c-3.886,3.831-7.773,3.831-11.659,0
			c-20.613-26.756-56.333-42.729-95.549-42.729c-7.422,0-18.567-0.183-29.622-1.765c-9.602-1.381-11.723,13.475-2.125,14.849
			c12.002,1.718,23.867,1.917,31.747,1.917c34.596,0,65.873,13.789,83.666,36.883c8.736,11.341,26.651,11.386,35.425,0.001
			c17.794-23.096,49.071-36.884,83.666-36.884c29.776,0,69.355-0.001,90.303-34.125c9.951,21.248,15.95,44.268,17.114,66.125
			c1.755,32.984-7.344,62.083-26.312,84.151c-18.158,21.126-48.478,33.739-81.104,33.739c-34.534,0-65.783-13.752-83.591-36.786
			c-8.806-11.395-26.895-11.37-35.578,0.231c-17.218,23.008-48.075,36.744-82.543,36.744c-33.197,0-63.916-12.693-82.155-33.933
			c-18.917-22.197-28.017-51.303-26.315-84.169c1.14-22.013,7.214-45.221,17.321-66.628c4.846,7.405,10.971,13.63,18.315,18.597
			c8.032,5.432,16.436-6.992,8.403-12.425c-9.029-6.107-15.471-14.357-19.694-25.222c-2.246-5.778-10.448-6.381-13.511-0.989
			C42.65,70.258,33.723,99.959,32.216,129.087c-1.904,36.767,8.428,69.504,29.896,94.696c21.069,24.534,56.042,39.182,93.553,39.182
			c39.17,0,74.518-15.984,94.553-42.756c3.887-3.885,7.788-3.9,11.701-0.044c20.628,26.682,56.313,42.612,95.458,42.612
			c36.939,0,71.511-14.565,92.479-38.961C471.391,198.761,481.736,166.005,479.772,129.089z"/>
		<path d="M154.948,206.936c23.718,2.135,48.409-11.369,64.587-28.059c2.466-2.542,2.817-6.463,0.843-9.403
			c-0.989-1.472-24.603-36.083-58.578-39.142c-33.982-3.064-63.354,26.786-64.588,28.058c-2.466,2.542-2.817,6.464-0.843,9.404
			C97.358,169.267,120.972,203.878,154.948,206.936z M160.455,145.272c19.937,1.795,36.373,18.781,43.567,27.486
			c-12.861,10.878-30.255,20.814-47.73,19.238c-19.93-1.794-36.364-18.771-43.559-27.475
			C121.362,157.24,140.53,143.48,160.455,145.272z"/>
		<path d="M352.122,207.156c1.629,0,3.276-0.071,4.93-0.22c33.975-3.058,57.59-37.669,58.578-39.142
			c1.976-2.94,1.624-6.861-0.842-9.404c-1.234-1.272-30.613-31.122-64.589-28.058c-33.975,3.059-57.589,37.669-58.577,39.142
			c-1.976,2.94-1.624,6.861,0.842,9.404C293.638,180.088,320.277,207.156,352.122,207.156z M351.545,145.272
			c19.928-1.79,39.099,11.971,47.721,19.25c-7.199,8.708-23.631,25.681-43.56,27.475c-19.926,1.792-39.093-11.967-47.72-19.25
			C315.185,164.039,331.617,147.067,351.545,145.272z"/>
	</g>
</g>
<g>
</g>
<g>
</g>
<g>
</g>
<g>
</g>
<g>
</g>
<g>
</g>
<g>
</g>
<g>
</g>
<g>
</g>
<g>
</g>
<g>
</g>
<g>
</g>
<g>
</g>
<g>
</g>
<g>
</g>
</svg>
