<?xml version="1.0" encoding="iso-8859-1"?>
<!-- Generator: Adobe Illustrator 25.0.0, SVG Export Plug-In . SVG Version: 6.00 Build 0)  -->
<svg version="1.1" id="Layer_1" xmlns="http://www.w3.org/2000/svg" xmlns:xlink="http://www.w3.org/1999/xlink" x="0px" y="0px"
	 viewBox="0 0 512.38 512.38" style="enable-background:new 0 0 512.38 512.38;" xml:space="preserve">
<g>
	<g>
		<g>
			<path style="fill:#FFCA21;" d="M402.237,114.005h-92.685v-27.2c0-25.588,20.743-46.331,46.331-46.331h0.022
				c25.588,0,46.331,20.743,46.331,46.331V114.005z"/>
			<path style="fill:#F2BB0C;" d="M355.906,40.474h-0.022c-7.158,0-13.937,1.626-19.989,4.525
				c15.581,7.463,26.343,23.377,26.343,41.807v27.2h40v-27.2C402.237,61.218,381.494,40.474,355.906,40.474z"/>
			<ellipse style="fill:#EBF7FF;" cx="355.894" cy="247.025" rx="148.606" ry="148.571"/>
			<ellipse style="fill:#B5C8FF;" cx="355.894" cy="247.025" rx="93.473" ry="148.571"/>
			<ellipse style="fill:#EBF7FF;" cx="355.894" cy="247.025" rx="31.187" ry="148.571"/>
		</g>
		<g>
			<path style="fill:#EB67A5;" d="M202.724,222.701h-92.816v-27.238c0-25.624,20.773-46.397,46.397-46.397h0.022
				c25.624,0,46.397,20.773,46.397,46.397V222.701z"/>
			<path style="fill:#E34D94;" d="M156.327,149.066h-0.022c-7.158,0-13.935,1.624-19.989,4.518
				c15.618,7.468,26.408,23.412,26.408,41.879v27.238h40v-27.238C202.724,169.838,181.952,149.066,156.327,149.066z"/>
			<ellipse style="fill:#EBF7FF;" cx="156.316" cy="355.908" rx="148.816" ry="148.782"/>
			<path style="fill:#D9EDFA;" d="M156.316,207.127c-6.783,0-13.458,0.463-20,1.342c72.73,9.769,128.816,72.052,128.816,147.44
				s-56.086,137.671-128.816,147.44c6.542,0.879,13.217,1.342,20,1.342c82.189,0,148.816-66.612,148.816-148.782
				S238.505,207.127,156.316,207.127z"/>
			
				<rect x="120.497" y="320.089" transform="matrix(0.7072 0.707 -0.707 0.7072 297.4074 -6.3053)" style="fill:#EB67A5;" width="71.639" height="71.639"/>
			<g>
				<path style="fill:#FFCA21;" d="M156.312,265.229c32.214,0,32.214,19.959,64.428,19.959c28.365,0,31.765-15.467,54.161-19.165
					c-27.178-35.783-70.179-58.895-118.586-58.895S64.908,230.239,37.73,266.022c22.394,3.698,25.794,19.165,54.157,19.165
					C124.099,285.187,124.099,265.229,156.312,265.229z"/>
				<g>
					<path style="fill:#F2BB0C;" d="M234.902,266.022c4.122,4.544,7.639,9.145,10.617,13.526c9.301-4.814,15.904-11.3,29.383-13.526
						c-27.178-35.783-70.179-58.895-118.586-58.895c-6.784,0-13.457,0.47-20,1.349C176.46,213.87,211.533,235.254,234.902,266.022z"
						/>
				</g>
				<path style="fill:#FFCA21;" d="M156.312,446.588c-32.213,0-32.213-19.959-64.425-19.959c-28.363,0-31.762,15.467-54.157,19.165
					c27.178,35.783,70.179,58.895,118.586,58.895s91.408-23.112,118.586-58.895c-22.397-3.698-25.796-19.165-54.161-19.165
					C188.526,426.63,188.526,446.588,156.312,446.588z"/>
				<g>
					<path style="fill:#F2BB0C;" d="M244.231,431.621c-2.784,4.798-6.035,9.946-9.329,14.174
						c-23.369,30.768-58.442,52.152-98.586,57.546c6.543,0.879,13.216,1.349,20,1.349c48.407,0,91.408-23.112,118.586-58.895
						C260.808,443.468,254.234,436.482,244.231,431.621z"/>
				</g>
				<path style="fill:#EB67A5;" d="M296.34,406.388c5.686-15.762,8.792-32.757,8.792-50.479c0-17.722-3.106-34.717-8.792-50.479
					l-50.491,50.479L296.34,406.388z"/>
				<path style="fill:#EB67A5;" d="M16.292,305.429C10.606,321.191,7.5,338.187,7.5,355.908c0,17.722,3.106,34.717,8.792,50.479
					l50.491-50.479L16.292,305.429z"/>
			</g>
		</g>
	</g>
	<g>
		<path d="M508.662,213.001c-11.483-52.095-49.32-94.056-98.925-112.876V86.806c0-26.842-19.75-49.155-45.497-53.181V7.69
			c0-4.142-3.357-7.5-7.5-7.5s-7.5,3.358-7.5,7.5v25.709c-26.558,3.285-47.188,25.975-47.188,53.407v13.26
			c-42.07,15.494-76.127,49.138-92.017,91.056c-1.997-24.91-20.991-45.099-45.371-48.906V7.69c0-4.142-3.357-7.5-7.5-7.5
			s-7.5,3.358-7.5,7.5V141.99c-26.594,3.285-47.255,26.004-47.255,53.473v13.719c-4.957,1.827-9.844,3.9-14.646,6.247
			c-8.712,4.257-2.126,17.738,6.586,13.477c19.39-9.475,40.239-14.279,61.969-14.279c40.055,0,78.805,17.468,105.465,47.355
			c-4.975,2.038-9.022,4.535-12.766,6.853c-18.37,11.373-38.17,11.378-56.538-0.002c-23.115-14.321-49.196-14.332-72.327,0
			c-18.368,11.379-38.165,11.375-56.534,0.001c-3.756-2.325-7.816-4.831-12.814-6.872c3.832-4.304,7.936-8.4,12.317-12.246
			c7.287-6.398-2.61-17.671-9.896-11.272C19.734,267.843,0,311.334,0,355.908C0,440.962,71.188,512.19,156.316,512.19
			c70.149,0,133.488-48.898,151.244-116.75c53.454,17.392,113.804,4.036,154.911-34.378c7.085-6.62-3.156-17.578-10.242-10.959
			c-11.456,10.705-24.89,19.569-39.215,25.94c5.467-5.791,10.599-12.461,15.323-19.968c18.397-29.242,28.529-67.97,28.529-109.05
			s-10.132-79.808-28.529-109.05c-4.844-7.7-10.12-14.517-15.744-20.41c41.172,18.488,71.658,54.375,81.42,98.664
			c7.414,33.636,2.49,68.337-13.864,97.711c-4.502,8.088,8.068,16.344,13.105,7.297
			C511.394,288.658,516.865,250.219,508.662,213.001z M281.386,262.265c-0.328-0.567-0.725-1.082-1.18-1.538
			c-3.272-4.246-6.752-8.324-10.433-12.21c0.097-0.482,0.149-0.981,0.149-1.492c0-38.29,9.313-74.182,26.226-101.062
			c11.198-17.798,24.768-30.077,39.428-35.984c-3.419,7.743-6.434,17.874-9.074,30.449c-5.994,28.553-9.295,66.41-9.295,106.597
			c0,40.187,3.301,78.044,9.295,106.597c2.635,12.551,5.643,22.668,9.053,30.405c-8.185-3.316-16.068-8.638-23.405-15.829
			c0.317-4.056,0.482-8.153,0.482-12.289c0-18.368-3.196-36.001-9.044-52.386c-0.104-0.395-0.24-0.782-0.409-1.16
			C297.879,287.879,290.492,274.392,281.386,262.265z M297.632,355.908c0,12.583-1.663,24.783-4.765,36.402l-36.41-36.402
			l36.41-36.402C295.969,331.126,297.632,343.326,297.632,355.908z M355.895,388.052c-2.262-1.021-9.328-10.174-15.352-40.647
			c-5.376-27.194-8.336-62.843-8.336-100.379s2.96-73.186,8.336-100.379c6.023-30.474,13.09-39.627,15.352-40.648
			c2.261,1.021,9.327,10.175,15.352,40.649c5.375,27.194,8.335,62.842,8.335,100.378c0,37.536-2.96,73.184-8.335,100.378
			C365.222,377.877,358.155,387.031,355.895,388.052z M317.052,86.806c0-21.412,17.42-38.832,38.854-38.832
			c21.412,0,38.832,17.42,38.832,38.832v8.492c-21.161-5.607-43.062-6.417-66.068-2.488c-3.919,0.707-7.793,1.556-11.617,2.545
			V86.806z M256.916,146.076c12.425-12.243,26.844-21.954,42.597-28.837c-5.743,5.967-11.126,12.891-16.062,20.735
			c-16.588,26.366-26.452,60.444-28.233,97.003c-10.945-8.964-23.126-16.469-36.241-22.23
			C225.199,187.442,238.223,164.497,256.916,146.076z M117.408,204.496v-9.034c0-21.448,17.449-38.897,38.919-38.897
			c21.448,0,38.897,17.449,38.897,38.897v9.066c-12.443-3.199-25.48-4.901-38.908-4.901
			C143.014,199.627,130.01,201.263,117.408,204.496z M55.719,281.588c23.12,14.314,49.198,14.329,72.331-0.004
			c18.365-11.377,38.162-11.378,56.526,0c23.119,14.324,49.197,14.327,72.335,0.004c4.761-2.947,9-5.569,14.771-7.185
			c6.385,9.007,11.74,18.792,15.898,29.18l-47.033,47.022c-2.93,3.536-2.93,7.072,0,10.607l47.033,47.022
			c-4.158,10.389-9.512,20.173-15.898,29.18c-5.771-1.616-10.01-4.238-14.771-7.185c-23.122-14.314-49.2-14.33-72.335,0.004
			c-18.365,11.378-38.162,11.378-56.526,0c-23.117-14.324-49.195-14.328-72.331-0.004c-4.76,2.947-8.999,5.569-14.769,7.185
			c-6.385-9.007-11.74-18.791-15.897-29.179l47.032-47.022c2.93-3.536,2.93-7.072,0-10.607l-47.019-47.009
			c4.11-10.3,9.426-20.105,15.853-29.202C46.705,276.009,50.95,278.635,55.719,281.588z M15,355.908
			c0-12.404,1.642-24.624,4.782-36.385l36.393,36.385l-36.41,36.402C16.663,380.691,15,368.491,15,355.908z M156.316,497.19
			c-41.885,0-79.565-18.319-105.466-47.355c4.975-2.038,9.021-4.534,12.764-6.852c18.37-11.373,38.167-11.377,56.534,0.001
			c23.115,14.323,49.196,14.332,72.327,0c18.368-11.38,38.168-11.375,56.538-0.002c3.744,2.318,7.791,4.815,12.766,6.853
			C235.881,478.872,198.201,497.19,156.316,497.19z M441.867,247.025c0,38.29-9.313,74.181-26.226,101.062
			c-11.198,17.798-24.768,30.077-39.428,35.984c3.419-7.743,6.434-17.873,9.074-30.449c5.993-28.553,9.294-66.41,9.294-106.597
			s-3.301-78.044-9.294-106.597c-2.64-12.575-5.655-22.706-9.074-30.449c14.66,5.907,28.231,18.186,39.428,35.984
			C432.554,172.844,441.867,208.735,441.867,247.025z"/>
		<path d="M151.014,411.863c3.535,2.928,7.07,2.928,10.605,0l50.662-50.65c2.93-3.536,2.93-7.072,0-10.607l-50.662-50.65
			c-2.93-2.929-7.676-2.929-10.605,0l-50.662,50.65c-2.93,3.536-2.93,7.072,0,10.607L151.014,411.863z M156.316,315.864
			l40.055,40.045l-40.055,40.045l-40.055-40.045L156.316,315.864z"/>
	</g>
</g>
<g>
</g>
<g>
</g>
<g>
</g>
<g>
</g>
<g>
</g>
<g>
</g>
<g>
</g>
<g>
</g>
<g>
</g>
<g>
</g>
<g>
</g>
<g>
</g>
<g>
</g>
<g>
</g>
<g>
</g>
</svg>
