<?xml version="1.0" encoding="iso-8859-1"?>
<!-- Generator: Adobe Illustrator 25.0.0, SVG Export Plug-In . SVG Version: 6.00 Build 0)  -->
<svg version="1.1" id="Layer_1" xmlns="http://www.w3.org/2000/svg" xmlns:xlink="http://www.w3.org/1999/xlink" x="0px" y="0px"
	 viewBox="0 0 512 512" style="enable-background:new 0 0 512 512;" xml:space="preserve">
<g>
	<g>
		<g>
			<g>
				<rect x="35.719" y="139.941" style="fill:#FFCA21;" width="440.561" height="108.681"/>
				<rect x="436.28" y="139.941" style="fill:#F2BB0C;" width="40" height="108.681"/>
				<g>
					<path style="fill:#6B8DF2;" d="M362.865,7.5C283.224,7.5,259.668,119.411,256,139.474c0.111,0.606,0.203-0.439,0.278,0
						c4.783-11.797,36.6-86.608,89.538-86.608c23.916,0,43.304,19.388,43.304,43.304s-19.388,43.304-43.304,43.304
						c6.167,0,11.947,0,17.049,0c36.443,0,65.987-29.543,65.987-65.987S399.309,7.5,362.865,7.5z"/>
					<g>
						<path style="fill:#527BF2;" d="M362.865,7.5c-7.48,0-14.466,0.988-20.986,2.794c27.172,8.165,46.973,33.361,46.973,63.193
							c0,4.061-0.386,8.03-1.089,11.888c0.885,3.451,1.357,7.067,1.357,10.794c0,23.916-19.388,43.304-43.304,43.304
							c6.167,0,11.947,0,17.049,0c36.443,0,65.987-29.543,65.987-65.987S399.309,7.5,362.865,7.5z"/>
					</g>
					<path style="fill:#6B8DF2;" d="M149.134,7.5c-36.443,0-65.986,29.543-65.986,65.987s29.543,65.987,65.986,65.987
						c5.103,0,10.883,0,17.049,0c-23.916,0-43.304-19.388-43.304-43.304s19.388-43.304,43.304-43.304
						c52.938,0,84.755,74.812,89.538,86.608c0.075-0.439,0.168,0.606,0.279,0C252.332,119.411,228.775,7.5,149.134,7.5z"/>
					<path style="fill:#6B8DF2;" d="M256.355,139.474c0.057,0,0.123,0,0.186,0c0,0-0.085,1.037-0.263,0
						c-0.106,0.262-0.199-0.2-0.278,0C256.234,140.063,256.355,139.474,256.355,139.474z"/>
					<path style="fill:#6B8DF2;" d="M255.458,139.474c0.064,0,0.129,0,0.186,0c0,0,0.121,0.59,0.356,0
						c-0.08-0.2-0.172,0.262-0.279,0C255.543,140.511,255.458,139.474,255.458,139.474z"/>
				</g>
				<rect x="67.621" y="248.622" style="fill:#F2A7D0;" width="378.747" height="255.878"/>
				<rect x="406.368" y="248.622" style="fill:#F294C7;" width="40" height="255.878"/>
			</g>
			<g>
				<polygon style="fill:#EBF7FF;" points="446.395,355.891 383.298,384.527 320.202,355.891 257.108,384.527 194.016,355.891 
					130.927,384.527 67.836,355.891 67.836,300.295 130.927,328.93 194.016,300.295 257.108,328.93 320.202,300.295 383.298,328.93 
					446.395,300.295 				"/>
				<polygon style="fill:#FFCA21;" points="446.395,411.488 383.298,440.123 320.202,411.488 257.108,440.123 194.016,411.488 
					130.927,440.123 67.836,411.488 67.836,355.891 130.927,384.527 194.016,355.891 257.108,384.527 320.202,355.891 
					383.298,384.527 446.395,355.891 				"/>
			</g>
		</g>
		<g>
			<polygon style="fill:#D9EDFA;" points="446.395,300.295 406.688,318.315 406.688,373.912 446.395,355.891 			"/>
		</g>
		<g>
			<polygon style="fill:#F2BB0C;" points="446.395,355.891 406.688,373.912 406.688,429.508 446.395,411.488 			"/>
		</g>
	</g>
	<path d="M476.28,132.441h-69.595c17.991-13.408,29.666-34.842,29.666-58.954C436.352,32.966,403.386,0,362.865,0
		c-36.081,0-66.696,21.587-88.536,62.427C266.03,77.946,260.115,94.033,256,107.754c-4.115-13.72-10.03-29.808-18.329-45.327
		C215.831,21.587,185.216,0,149.135,0c-40.521,0-73.487,32.966-73.487,73.487c0,24.112,11.675,45.546,29.667,58.954H35.72
		c-4.143,0-7.5,3.358-7.5,7.5v108.681c0,4.142,3.357,7.5,7.5,7.5h24.401V504.5c0,4.142,3.357,7.5,7.5,7.5h378.747
		c4.143,0,7.5-3.358,7.5-7.5V256.122h22.412c4.143,0,7.5-3.358,7.5-7.5V139.941C483.78,135.799,480.423,132.441,476.28,132.441z
		 M362.865,15c32.249,0,58.486,26.237,58.486,58.487c0,24.028-14.564,44.718-35.329,53.706c6.642-8.587,10.598-19.352,10.598-31.023
		c0-28.014-22.79-50.804-50.804-50.804c-22.869,0-44.357,12.003-63.956,35.699C296.699,48.262,321.859,15,362.865,15z
		 M288.984,96.252c17.902-23.813,37.023-35.887,56.832-35.887c19.742,0,35.804,16.062,35.804,35.804
		c0,26.137-19.924,36.271-38.39,36.271h-75.684C272.064,122.796,279.263,109.183,288.984,96.252z M90.647,73.487
		c0-32.25,26.237-58.487,58.487-58.487c41.006,0,66.166,33.262,81.005,66.064c-19.599-23.695-41.087-35.699-63.956-35.699
		c-28.014,0-50.804,22.791-50.804,50.804c0,11.671,3.956,22.436,10.598,31.024C105.213,118.206,90.647,97.515,90.647,73.487z
		 M130.38,96.169c0-16.471,16.062-35.804,35.804-35.804c19.809,0,38.93,12.074,56.832,35.887
		c9.721,12.93,16.921,26.543,21.438,36.188c0,0-57.455,0-75.684,0C147.029,132.441,130.38,117.081,130.38,96.169z M438.868,351.071
		l-55.57,25.22l-59.997-27.229c-1.971-0.894-4.23-0.894-6.199,0l-59.993,27.229l-59.992-27.229c-1.969-0.894-4.23-0.894-6.199,0
		l-59.989,27.229l-55.807-25.329v-39.123l52.707,23.922c1.969,0.894,4.23,0.894,6.199,0l59.989-27.229l59.992,27.229
		c2.066,0.894,4.133,0.894,6.199,0l59.993-27.229l59.997,27.229c1.971,0.894,4.229,0.894,6.199,0l52.471-23.813V351.071z
		 M75.121,497v-73.969l52.707,23.922c2.066,0.894,4.133,0.894,6.199,0l13.87-6.295c8.83-4.007,2.631-17.665-6.199-13.659
		l-10.771,4.889l-55.807-25.329v-39.124l52.707,23.922c1.969,0.894,4.23,0.894,6.199,0l59.989-27.229l59.992,27.229
		c2.066,0.894,4.133,0.894,6.199,0l59.993-27.229l59.997,27.229c1.971,0.894,4.229,0.894,6.199,0l52.471-23.813v39.124l-55.57,25.22
		l-59.997-27.229c-1.971-0.894-4.23-0.894-6.199,0l-59.993,27.229l-59.992-27.229c-1.969-0.894-4.23-0.894-6.199,0l-15.473,7.022
		c-8.83,4.008-2.63,17.669,6.199,13.659l12.373-5.616l59.992,27.229c2.066,0.894,4.133,0.894,6.199,0l59.993-27.229l59.997,27.229
		c1.971,0.894,4.229,0.894,6.199,0l52.471-23.813V497H75.121z M468.78,241.122h-64.878c-9.697,0-9.697,15,0,15h34.966v39.352
		l-55.57,25.22l-59.997-27.229c-1.971-0.894-4.23-0.894-6.199,0l-59.993,27.229l-59.992-27.229c-1.969-0.894-4.23-0.894-6.199,0
		l-59.989,27.229l-55.807-25.329v-39.243h288.911c9.697,0,9.697-15,0-15H43.22v-93.681H468.78V241.122z"/>
</g>
<g>
</g>
<g>
</g>
<g>
</g>
<g>
</g>
<g>
</g>
<g>
</g>
<g>
</g>
<g>
</g>
<g>
</g>
<g>
</g>
<g>
</g>
<g>
</g>
<g>
</g>
<g>
</g>
<g>
</g>
</svg>
