<?xml version="1.0" encoding="iso-8859-1"?>
<!-- Generator: Adobe Illustrator 25.0.0, SVG Export Plug-In . SVG Version: 6.00 Build 0)  -->
<svg version="1.1" id="Layer_1" xmlns="http://www.w3.org/2000/svg" xmlns:xlink="http://www.w3.org/1999/xlink" x="0px" y="0px"
	 viewBox="0 0 511.902 511.902" style="enable-background:new 0 0 511.902 511.902;" xml:space="preserve">
<g>
	<g>
		<polygon style="fill:#FFCA21;" points="255.951,65.35 245.172,87.24 221.069,90.751 238.51,107.79 234.393,131.85 255.951,120.49 
			277.509,131.85 273.392,107.79 290.832,90.751 266.73,87.24 		"/>
	</g>
	<g>
		<path d="M39.68,88.882c4.142,0,7.5-3.358,7.5-7.5V66.707c0-9.697-15-9.697-15,0v14.674C32.18,85.524,35.538,88.882,39.68,88.882z"
			/>
		<path d="M39.68,29.765c4.142,0,7.5-3.358,7.5-7.5V7.451c0-9.697-15-9.697-15,0v14.814C32.18,26.407,35.538,29.765,39.68,29.765z"
			/>
		<path d="M3.72,32.44l12.229,7.013c8.045,4.612,16.102-8.058,7.462-13.013l-12.229-7.013C2.769,14.606-4.693,27.616,3.72,32.44z"/>
		<path d="M68.179,69.405c8.044,4.615,16.101-8.057,7.462-13.012L63.412,49.38C55,44.556,47.538,57.568,55.95,62.392L68.179,69.405z
			"/>
		<path d="M59.688,40.448c1.265,0,2.548-0.321,3.724-0.995l12.229-7.013c8.413-4.824,0.951-17.835-7.462-13.013L55.95,26.44
			C49.927,29.894,51.952,40.448,59.688,40.448z"/>
		<path d="M7.458,70.401c1.265,0,2.548-0.321,3.724-0.996l12.229-7.013c8.412-4.824,0.949-17.838-7.462-13.012L3.72,56.393
			C-2.303,59.847-0.278,70.401,7.458,70.401z"/>
		<path d="M472.221,88.882c4.142,0,7.5-3.358,7.5-7.5V66.707c0-9.697-15-9.697-15,0v14.674
			C464.721,85.524,468.079,88.882,472.221,88.882z"/>
		<path d="M472.221,29.765c4.142,0,7.5-3.358,7.5-7.5V7.451c0-9.697-15-9.697-15,0v14.814
			C464.721,26.407,468.079,29.765,472.221,29.765z"/>
		<path d="M492.229,40.448c1.265,0,2.548-0.321,3.724-0.995l12.229-7.013c8.413-4.824,0.951-17.835-7.462-13.013l-12.229,7.013
			C482.468,29.894,484.493,40.448,492.229,40.448z"/>
		<path d="M448.49,49.38l-12.229,7.013c-8.639,4.954-0.581,17.628,7.462,13.012l12.229-7.013
			C464.364,57.568,456.901,44.554,448.49,49.38z"/>
		<path d="M436.261,32.44l12.229,7.013c8.045,4.612,16.102-8.058,7.462-13.013l-12.229-7.013
			C435.31,14.606,427.848,27.616,436.261,32.44z"/>
		<path d="M508.182,56.393l-12.229-7.013c-8.412-4.824-15.874,8.188-7.462,13.012l12.229,7.013
			C508.764,74.02,516.821,61.348,508.182,56.393z"/>
		<path d="M39.68,482.276c-4.142,0-7.5,3.358-7.5,7.5v14.675c0,9.697,15,9.697,15,0v-14.675
			C47.18,485.634,43.822,482.276,39.68,482.276z"/>
		<path d="M39.68,423.02c-4.142,0-7.5,3.358-7.5,7.5v14.814c0,9.697,15,9.697,15,0V430.52C47.18,426.378,43.822,423.02,39.68,423.02
			z"/>
		<path d="M3.72,455.509l12.229,7.013c8.044,4.615,16.101-8.057,7.462-13.012l-12.229-7.013
			C2.77,437.671-4.692,450.685,3.72,455.509z"/>
		<path d="M75.641,479.462l-12.229-7.013c-8.413-4.822-15.875,8.188-7.462,13.013l12.229,7.013
			C76.224,497.086,84.281,484.416,75.641,479.462z"/>
		<path d="M59.688,463.517c1.265,0,2.548-0.321,3.724-0.996l12.229-7.013c8.412-4.824,0.949-17.838-7.462-13.012L55.95,449.51
			C49.927,452.964,51.952,463.517,59.688,463.517z"/>
		<path d="M15.949,472.449L3.72,479.462c-8.64,4.954-0.583,17.625,7.462,13.013l12.229-7.013
			C31.823,480.638,24.362,467.626,15.949,472.449z"/>
		<path d="M472.221,482.276c-4.142,0-7.5,3.358-7.5,7.5v14.675c0,9.697,15,9.697,15,0v-14.675
			C479.721,485.634,476.363,482.276,472.221,482.276z"/>
		<path d="M472.221,423.02c-4.142,0-7.5,3.358-7.5,7.5v14.814c0,9.697,15,9.697,15,0V430.52
			C479.721,426.378,476.363,423.02,472.221,423.02z"/>
		<path d="M492.229,463.517c1.265,0,2.548-0.321,3.724-0.996l12.229-7.013c8.412-4.824,0.949-17.838-7.462-13.012l-12.229,7.013
			C482.468,452.964,484.493,463.517,492.229,463.517z"/>
		<path d="M448.49,472.449l-12.229,7.013c-8.64,4.954-0.583,17.625,7.462,13.013l12.229-7.013
			C464.364,480.638,456.903,467.626,448.49,472.449z"/>
		<path d="M443.723,442.497c-8.411-4.825-15.874,8.188-7.462,13.012l12.229,7.013c8.044,4.615,16.101-8.057,7.462-13.012
			L443.723,442.497z"/>
		<path d="M508.182,479.462l-12.229-7.013c-8.413-4.822-15.875,8.188-7.462,13.013l12.229,7.013
			C508.765,497.086,516.822,484.416,508.182,479.462z"/>
		<path d="M204.12,171.375c-2.904-7.226-13.917-7.246-16.631,0.185L163.83,235.16c-3.382,9.088,10.678,14.319,14.059,5.229
			l4.075-10.955h27.575l4.03,10.934c3.289,8.923,17.427,3.906,14.074-5.188l-23.444-63.604
			C204.174,171.509,204.148,171.442,204.12,171.375z M187.544,214.435l8.27-22.233l8.195,22.233H187.544z"/>
		<path d="M97.261,164.811c-4.142,0-7.5,3.358-7.5,7.5v65.464c0,4.142,3.358,7.5,7.5,7.5s7.5-3.358,7.5-7.5V210.96h28.603v26.815
			c0,4.142,3.358,7.5,7.5,7.5s7.5-3.358,7.5-7.5v-65.464c0-4.142-3.358-7.5-7.5-7.5s-7.5,3.358-7.5,7.5v23.649h-28.603v-23.649
			C104.761,168.169,101.403,164.811,97.261,164.811z"/>
		<path d="M399.387,245.275c0.006,0,0.012,0,0.019,0c4.133,0,7.49-3.346,7.5-7.482l0.074-30.78l18.795-29.561
			c2.222-3.495,1.19-8.13-2.305-10.353c-3.497-2.224-8.131-1.191-10.353,2.305l-13.641,21.455l-13.793-21.627
			c-2.227-3.493-6.862-4.519-10.356-2.291c-3.493,2.227-4.518,6.864-2.291,10.356l18.944,29.704l-0.074,30.755
			C391.896,241.899,395.245,245.265,399.387,245.275z"/>
		<path d="M259.302,217.213c3.627-0.019,7.716-0.038,10.044-0.038c14.132,0,25.629-11.531,25.629-25.705
			c0-14.173-11.497-25.705-25.629-25.705h-17.544c-4.087,0-7.5,3.414-7.5,7.5v64.51c0,9.697,15,9.697,15,0V217.213z
			 M269.347,180.765c5.761,0,10.629,4.902,10.629,10.705s-4.868,10.705-10.629,10.705c-2.312,0-6.351,0.018-9.962,0.037
			c-0.036-7.149-0.041-14.298-0.06-21.447H269.347z"/>
		<path d="M309.972,173.265v64.51c0,9.697,15,9.697,15,0v-20.562c3.627-0.019,7.715-0.038,10.044-0.038
			c14.132,0,25.629-11.531,25.629-25.705c0-14.173-11.497-25.705-25.629-25.705h-17.544
			C312.774,165.765,309.972,170.511,309.972,173.265z M335.016,180.765c5.762,0,10.629,4.902,10.629,10.705
			s-4.868,10.705-10.629,10.705c-2.312,0-6.351,0.018-9.962,0.037c-0.036-7.149-0.04-14.298-0.06-21.447H335.016z"/>
		<path d="M65.28,348.711c3.609-1.105,5.94-4.488,5.94-8.688l-0.597-63.183c-0.039-4.142-3.429-7.496-7.57-7.429
			c-4.142,0.039-7.468,3.428-7.429,7.57l0.393,41.566l-30.831-45.709c-1.843-2.734-5.256-3.94-8.411-2.979
			c-3.153,0.964-5.307,3.875-5.307,7.172v65.265c0,9.697,15,9.697,15,0v-40.733l29.383,43.563
			C58.052,348.384,61.753,349.791,65.28,348.711z"/>
		<path d="M86.641,276.91v64.79c0,4.142,3.358,7.5,7.5,7.5h26.664c9.697,0,9.697-15,0-15h-19.164v-17.395h17.198
			c4.142,0,7.5-3.358,7.5-7.5s-3.358-7.5-7.5-7.5h-17.198V284.41h19.164c4.142,0,7.5-3.358,7.5-7.5s-3.358-7.5-7.5-7.5H94.141
			C89.999,269.41,86.641,272.768,86.641,276.91z"/>
		<path d="M219.075,269.668c-4.066-0.789-8.002,1.865-8.793,5.931l-7.769,39.966l-12.281-40.816
			c-1.194-3.967-5.377-6.215-9.343-5.021c-2.743,0.826-4.662,3.081-5.192,5.706l-12.134,40.136l-7.744-40.083
			c-0.786-4.067-4.722-6.728-8.787-5.941c-4.067,0.786-6.727,4.72-5.941,8.787l12.443,64.405c1.746,9.046,14.65,9.294,17.266,0.729
			l12.251-40.522l12.196,40.532c2.603,8.606,15.513,8.259,17.267-0.749l12.493-64.266
			C225.796,274.395,223.141,270.458,219.075,269.668z"/>
		<path d="M388.92,344.613l4.155-11.17h28.091l4.11,11.149c3.353,9.1,17.428,3.911,14.074-5.188l-23.763-64.469
			c-0.025-0.068-0.051-0.136-0.078-0.204c-1.373-3.416-4.629-5.621-8.297-5.621c-0.003,0-0.006,0-0.009,0
			c-3.672,0.003-6.928,2.216-8.295,5.637c-0.022,0.056-0.044,0.112-0.065,0.169l-23.98,64.466
			C371.571,348.228,385.525,353.738,388.92,344.613z M407.185,295.512l8.452,22.93h-16.982L407.185,295.512z"/>
		<path d="M356.066,284.708c4.142,0,7.5-3.358,7.5-7.5s-3.358-7.5-7.5-7.5h-26.664c-4.142,0-7.5,3.358-7.5,7.5v64.79
			c0,4.142,3.358,7.5,7.5,7.5h26.664c4.142,0,7.5-3.358,7.5-7.5s-3.358-7.5-7.5-7.5h-19.164v-17.395H354.1
			c4.142,0,7.5-3.358,7.5-7.5s-3.358-7.5-7.5-7.5h-17.198v-17.395H356.066z"/>
		<path d="M307.601,270.448c-3.496-2.222-8.13-1.191-10.353,2.305l-13.913,21.881l-14.066-22.056
			c-2.227-3.493-6.863-4.52-10.356-2.291c-3.493,2.227-4.518,6.864-2.291,10.356l19.217,30.133l-0.074,31.203
			c-0.022,9.414,14.977,9.924,15,0.036l0.074-31.228l19.066-29.987C312.129,277.306,311.097,272.671,307.601,270.448z"/>
		<path d="M500.434,293.605c0-13.505-11.231-24.493-25.037-24.493h-16.971c-0.003,0-0.007,0-0.01,0c-0.003,0-0.007,0-0.01,0
			c-4.142,0-7.5,3.358-7.5,7.5v65.387c0,9.697,15,9.697,15,0v-19.937l21.341,24.826c6.43,7.48,17.626-2.507,11.375-9.778
			l-17.001-19.778C492.425,314.618,500.434,305.009,500.434,293.605z M475.397,303.098c-2.185,0-5.964,0.016-9.395,0.033
			c-0.017-3.481-0.034-7.327-0.034-9.526c0-1.864-0.01-5.848-0.02-9.493h9.449c5.44,0,10.037,4.347,10.037,9.493
			S480.838,303.098,475.397,303.098z"/>
		<path d="M19.173,243.892c4.142,0.338,7.748-2.74,8.083-6.869c4.66-57.37,30.519-110.589,72.814-149.854
			c42.523-39.477,97.883-61.218,155.881-61.218s113.358,21.741,155.881,61.218c42.295,39.266,68.155,92.485,72.814,149.854
			c0.319,3.922,3.6,6.894,7.467,6.894c0.204,0,0.409-0.008,0.616-0.025c4.128-0.335,7.203-3.954,6.868-8.083
			c-4.964-61.117-32.509-117.81-77.56-159.633c-45.306-42.061-104.291-65.225-166.086-65.225S135.171,34.115,89.864,76.176
			C44.814,118,17.269,174.692,12.304,235.809C11.969,239.938,15.044,243.557,19.173,243.892z"/>
		<path d="M465.025,368.082c-3.587-2.068-8.174-0.836-10.243,2.753c-19.811,34.372-48.315,63.201-82.432,83.37
			c-35.129,20.768-75.379,31.746-116.399,31.746c-39.932,0-79.25-10.436-113.707-30.178c-33.432-19.156-61.765-46.673-81.938-79.578
			c-2.166-3.532-6.784-4.64-10.314-2.474c-3.531,2.165-4.639,6.783-2.474,10.314c21.484,35.043,51.661,64.35,87.269,84.753
			c36.722,21.041,78.62,32.163,121.164,32.163c43.704,0,86.594-11.699,124.033-33.833c36.336-21.482,66.695-52.186,87.794-88.792
			C469.846,374.737,468.614,370.151,465.025,368.082z"/>
		<path d="M205.952,441.516h99.998c4.142,0,7.5-3.358,7.5-7.5s-3.358-7.5-7.5-7.5h-99.998c-4.142,0-7.5,3.358-7.5,7.5
			S201.81,441.516,205.952,441.516z"/>
		<path d="M384.451,397.99c0-4.142-3.358-7.5-7.5-7.5h-99.973c-4.142,0-7.5,3.358-7.5,7.5s3.358,7.5,7.5,7.5h99.973
			C381.093,405.49,384.451,402.132,384.451,397.99z"/>
		<path d="M134.951,405.49h98.542c4.142,0,7.5-3.358,7.5-7.5s-3.358-7.5-7.5-7.5h-98.542c-4.142,0-7.5,3.358-7.5,7.5
			S130.809,405.49,134.951,405.49z"/>
		<path d="M291.914,83.329l-20.199-2.941l-9.036-18.35c-2.698-5.48-10.759-5.48-13.457,0l-9.036,18.35l-20.199,2.941
			c-6.034,0.879-8.521,8.526-4.16,12.787l14.625,14.289L227,130.585c-0.941,5.502,5.1,10.952,10.889,7.9l18.062-9.517l18.062,9.517
			c5.375,2.832,11.918-1.881,10.889-7.9l-3.453-20.18l14.625-14.289C300.435,91.855,297.947,84.208,291.914,83.329z
			 M268.151,102.426c-1.763,1.722-2.567,4.201-2.151,6.63l1.552,9.07l-8.104-4.271c-2.331-1.153-4.661-1.153-6.992,0l-8.104,4.271
			l1.552-9.07c0.416-2.429-0.389-4.908-2.151-6.63l-6.591-6.439l9.093-1.324c2.444-0.356,4.556-1.893,5.647-4.109l4.05-8.225
			l4.05,8.225c1.091,2.216,3.204,3.753,5.647,4.109l9.093,1.324L268.151,102.426z"/>
		<path d="M376.951,109.571h-56.677c-4.142,0-7.5,3.358-7.5,7.5s3.358,7.5,7.5,7.5h56.677c4.142,0,7.5-3.358,7.5-7.5
			S381.093,109.571,376.951,109.571z"/>
		<path d="M191.628,109.571h-56.677c-4.142,0-7.5,3.358-7.5,7.5s3.358,7.5,7.5,7.5h56.677c4.142,0,7.5-3.358,7.5-7.5
			S195.77,109.571,191.628,109.571z"/>
	</g>
</g>
<g>
</g>
<g>
</g>
<g>
</g>
<g>
</g>
<g>
</g>
<g>
</g>
<g>
</g>
<g>
</g>
<g>
</g>
<g>
</g>
<g>
</g>
<g>
</g>
<g>
</g>
<g>
</g>
<g>
</g>
</svg>
