<?xml version="1.0" encoding="iso-8859-1"?>
<!-- Generator: Adobe Illustrator 25.0.0, SVG Export Plug-In . SVG Version: 6.00 Build 0)  -->
<svg version="1.1" id="Layer_1" xmlns="http://www.w3.org/2000/svg" xmlns:xlink="http://www.w3.org/1999/xlink" x="0px" y="0px"
	 viewBox="0 0 512 512" style="enable-background:new 0 0 512 512;" xml:space="preserve">
<g>
	<g>
		<g>
			<g>
				<g>
					<g>
						<path style="fill:#FFD9D4;" d="M366.21,63.406h-77.003v119.693c-1.939-0.774-4.121-1.075-6.413-0.708
							c-5.139,0.823-9.248,4.972-9.95,10.093c-0.761,5.55,2.333,10.478,6.994,12.55c-3.49,2.492-5.588,6.785-4.872,11.519
							c0.756,5.001,4.749,9.056,9.77,9.902c3.302,0.556,6.408-0.233,8.861-1.899c9.84,27.63,35.218,47.96,65.709,50.652v87.483
							l68.381-11.051v-84.073c9.431-7.159,15.526-18.491,15.526-31.25v-96.45C443.213,97.638,408.737,63.406,366.21,63.406z"/>
						<path style="fill:#FFCA21;" d="M414.57,7.5h-68.836c-37.104,0-68.881,22.649-82.074,54.783
							c-6.504,15.844,5.222,33.187,22.453,33.187l85.793,0c19.547,0,35.393,15.735,35.393,35.144l0,126.565
							c0,10.606,9.778,18.437,20.149,16.25c44.013-9.285,77.051-48.369,77.051-95.176V96.796C504.5,47.479,464.237,7.5,414.57,7.5z"
							/>
						<path style="fill:#F2BB0C;" d="M414.57,7.5h-40c49.667,0,89.93,39.979,89.93,89.296v81.456c0,38.505-22.367,71.767-54.8,87.53
							c3.529,5.799,10.491,9.177,17.748,7.646c44.013-9.284,77.051-48.369,77.051-95.176V96.796
							C504.5,47.479,464.237,7.5,414.57,7.5z"/>
						<g>
							<path style="fill:#FFD9D4;" d="M394.892,165.69c3.147-3.209,7.539-5.209,12.407-5.209c9.569,0,17.326,7.702,17.326,17.204
								c0,9.501-7.757,17.204-17.326,17.204c-4.868,0-9.26-2-12.407-5.209"/>
						</g>
					</g>
					<path style="fill:#6B8DF2;" d="M469.284,504.5V377.677v0v0c0-33.343-27.011-60.372-60.33-60.372h-31.87
						c-33.319,0-60.33,27.03-60.33,60.372v0v0V504.5H469.284z"/>
					<path style="fill:#527BF2;" d="M408.954,317.304h-31.87c-1.368,0-2.72,0.062-4.065,0.152
						c31.422,2.094,56.265,28.247,56.265,60.221v0V504.5h40V377.677v0C469.284,344.334,442.274,317.304,408.954,317.304z"/>
					<path style="fill:#B5C8FF;" d="M376.92,504.5V390.468c0-14.765,11.961-26.734,26.716-26.734h0
						c14.755,0,26.716,11.969,26.716,26.734V504.5H376.92z"/>
				</g>
				<g>
					<g>
						<g>
							<path style="fill:#FFD9D4;" d="M232.162,205.034c4.662-2.073,7.755-7.001,6.994-12.55c-0.702-5.121-4.811-9.27-9.95-10.093
								c-2.292-0.367-4.474-0.066-6.413,0.708V63.406H145.79c-42.527,0-77.003,34.232-77.003,76.46v135.655c0,0,16.639,0,32.484,0
								L68.787,377.677l126.459,56.44v-56.44c0-43.574-42.552-60.858-42.552-60.858v-41.611
								c30.49-2.692,55.869-23.022,65.709-50.652c2.454,1.666,5.559,2.455,8.861,1.899c5.021-0.846,9.014-4.901,9.77-9.902
								C237.75,211.819,235.652,207.525,232.162,205.034z"/>
						</g>
					</g>
					<path style="fill:#EB67A5;" d="M45.902,504.5V377.677l57.909-60.373h32.359c32.627,0,59.077,26.449,59.077,59.077v34.521V504.5
						H45.902z"/>
					<path style="fill:#F2A7D0;" d="M83.166,504.5V390.468c0-14.765,11.961-26.734,26.716-26.734h0
						c14.755,0,26.716,11.969,26.716,26.734V504.5H83.166z"/>
				</g>
			</g>
		</g>
		<path style="fill:#6B8DF2;" d="M42.212,421.838c39.186-27.693,62.489-72.709,62.489-120.716V130.614
			c0-19.409,15.846-35.144,35.393-35.144l85.793,0c17.231,0,28.957-17.343,22.453-33.187C235.148,30.149,203.371,7.5,166.267,7.5
			H97.43C47.763,7.5,7.5,47.479,7.5,96.796v307.048C7.5,421.708,27.63,432.143,42.212,421.838L42.212,421.838z"/>
		<path style="fill:#527BF2;" d="M248.34,62.283C235.148,30.149,203.371,7.5,166.267,7.5h-40c37.105,0,68.882,22.649,82.074,54.783
			c6.504,15.844-5.222,33.187-22.453,33.187l-85.793,0c-19.547,0-35.394,15.734-35.394,35.144v170.508
			c0,44.426-19.967,86.279-54,114.225c6.256,10.2,20.471,14.294,31.511,6.491l0,0c39.186-27.693,62.489-72.709,62.489-120.716
			V130.614c0-19.409,15.846-35.144,35.394-35.144l85.793,0C243.119,95.47,254.845,78.127,248.34,62.283z"/>
		<g>
			<path style="fill:#FFD9D4;" d="M117.108,165.69c-3.147-3.209-7.539-5.209-12.407-5.209c-9.569,0-17.326,7.702-17.326,17.204
				c0,9.501,7.757,17.204,17.326,17.204c4.868,0,9.26-2,12.407-5.209"/>
		</g>
	</g>
	<g>
		<path d="M414.569,0h-68.836c-39.25,0-74.189,23.33-89.012,59.435c-0.481,2.593-0.962,2.593-1.443,0
			C240.456,23.33,205.517,0,166.267,0H97.431C43.707,0,0,43.423,0,96.796v29.196c0,9.697,15,9.697,15,0V96.796
			C15,51.694,51.978,15,97.431,15h68.836c33.141,0,62.633,19.678,75.136,50.131c4.453,10.847-3.891,22.839-15.515,22.839h-85.793
			c-23.651,0-42.894,19.13-42.894,42.644v23.522c-10.034,3.172-17.326,12.528-17.326,23.549s7.292,20.377,17.326,23.549v99.888
			c0,45.504-22.175,88.342-59.318,114.591C28.409,422.407,15,415.432,15,403.844V170.481c0-9.697-15-9.697-15,0v233.363
			c0,19.592,19.707,34.103,38.402,28.168V504.5c0,4.142,3.358,7.5,7.5,7.5s7.5-3.358,7.5-7.5v-81.69
			c8.191-6.498,15.632-13.763,22.264-21.648V504.5c0,4.142,3.358,7.5,7.5,7.5s7.5-3.358,7.5-7.5V390.468
			c0-10.606,8.62-19.234,19.216-19.234s19.216,8.628,19.216,19.234V504.5c0,4.142,3.358,7.5,7.5,7.5s7.5-3.358,7.5-7.5V390.468
			c0-18.877-15.349-34.234-34.216-34.234c-2.829,0-5.577,0.352-8.208,1.003c4.038-10.412,6.977-21.28,8.701-32.432h25.794
			c12.927,0,24.749,4.792,33.81,12.678c9.062,8.715,17.766,21.847,17.766,40.195v56.44V504.5c0,4.142,3.358,7.5,7.5,7.5
			s7.5-3.358,7.5-7.5v-70.383v-20.854l8.475-4.893c9.591-5.537-0.082-15.501-8.475-12.428v-10.298
			c1.324,0.844,2.804,1.314,4.439,1.408c7.716,0,12.314-10.302,3.757-13.997l-8.741-5.047c-1.937-15.359-9.117-29.1-19.698-39.372
			c-8.248-8.46-17.06-13.806-22.309-16.548v-30.298c27.412-4.699,50.887-22.688,62.464-47.822
			c15.056,1.942,26.794-14.168,20.001-27.854c9.137-11.614,1.804-28.855-12.366-31.147v-72.313
			c11.684-1.62,21.95-10.086,25.707-21.292c3.754,11.198,14.032,19.674,25.707,21.292v72.313
			c-14.169,2.292-21.504,19.533-12.366,31.147c-6.793,13.689,4.946,29.791,20.001,27.854c11.577,25.134,35.052,43.123,62.464,47.822
			v32.92c-24.915,10.051-42.552,34.479-42.552,62.965v72.04l-8.263,4.771c-3.587,2.071-4.816,6.658-2.745,10.245
			c2.583,4.474,7.495,4.388,11.008,2.305v9.135c-3.674-1.973-8.824-2.122-11.287,2.144c-2.071,3.587-0.842,8.174,2.745,10.245
			l8.542,4.932V504.5c0,4.142,3.358,7.5,7.5,7.5s7.5-3.358,7.5-7.5V377.677c0-29.154,23.7-52.873,52.83-52.873h31.87
			c29.13,0,52.83,23.719,52.83,52.873V504.5c0,4.142,3.358,7.5,7.5,7.5s7.5-3.358,7.5-7.5V377.677
			c0-28.123-17.184-52.304-41.597-62.587v-35.855c20.689-5.726,39.365-17.826,53.092-34.568
			C503.576,226.011,512,202.425,512,178.252V96.796C512,43.423,468.293,0,414.569,0z M231.726,193.502
			c0.314,2.291-1.085,4-2.611,4.679c-4.831,2.147-6.209,9.461-1.311,12.957c4.849,3.461-1.263,9.882-5.19,7.212
			c-4.966-2.46-8.725-1.23-11.277,3.689c-9.037,25.377-32.315,43.314-59.303,45.696c-3.871,0.342-6.84,3.584-6.84,7.471v35.225
			c-2.953-0.402-5.962-0.628-9.024-0.628h-24.221c0.162-2.883,0.253-5.777,0.253-8.682v-99.879
			c3.844-1.208,7.356-3.348,10.262-6.312c2.9-2.958,2.854-7.706-0.104-10.606c-2.958-2.9-7.707-2.854-10.606,0.104
			c-1.872,1.909-4.376,2.96-7.052,2.96c-5.418,0-9.826-4.353-9.826-9.704s4.408-9.704,9.826-9.704c2.676,0,5.18,1.051,7.052,2.96
			c2.9,2.958,7.648,3.005,10.606,0.104c2.958-2.9,3.004-7.648,0.104-10.606c-2.906-2.964-6.418-5.104-10.262-6.312v-23.513
			c0-15.243,12.513-27.644,27.894-27.644h75.199v80.128c0.964,5.957,4.39,8.279,10.28,6.966
			C228.361,189.115,230.412,190.261,231.726,193.502z M408.954,309.804h-31.87c-3.493,0-6.925,0.267-10.278,0.779v-35.376
			c0-3.887-2.969-7.129-6.84-7.471c-26.988-2.382-50.266-20.319-59.303-45.696c-2.552-4.919-6.311-6.149-11.277-3.689
			c-3.929,2.664-10.039-3.75-5.19-7.212c2.19-1.563,3.375-4.181,3.104-6.859s-1.956-5.005-4.415-6.098
			c-5.231-2.327-1.461-10.111,3.542-8.116c5.889,1.313,9.316-1.009,10.28-6.966V102.97h75.199c15.38,0,27.894,12.401,27.894,27.644
			v23.513c-3.844,1.208-7.356,3.348-10.262,6.312c-2.9,2.958-2.854,7.706,0.104,10.606s7.706,2.854,10.606-0.104
			c1.872-1.909,4.376-2.96,7.052-2.96c5.418,0,9.826,4.353,9.826,9.704s-4.408,9.704-9.826,9.704c-2.676,0-5.18-1.051-7.052-2.96
			c-2.9-2.958-7.647-3.005-10.606-0.104c-2.958,2.9-3.004,7.648-0.104,10.606c2.906,2.964,6.418,5.104,10.262,6.312v55.936
			c0,11.587,8.968,22.019,20.388,23.814v29.76C416.531,310.139,412.782,309.804,408.954,309.804z M497,178.252
			c0,42.207-29.901,79.147-71.1,87.838c-6.554,0.553-10.255-2.417-11.101-8.911v-55.945c10.034-3.172,17.326-12.528,17.326-23.549
			s-7.292-20.377-17.326-23.549v-23.522c0-23.514-19.242-42.644-42.894-42.644h-85.793c-11.624,0-19.968-11.992-15.515-22.839
			C283.1,34.678,312.593,15,345.733,15h68.836C460.022,15,497,51.694,497,96.796V178.252z"/>
		<path d="M337.635,121.251c-11.782,0-21.368,9.542-21.368,21.27v10.016c0,4.142,3.358,7.5,7.5,7.5s7.5-3.358,7.5-7.5v-10.016
			c0-3.458,2.856-6.27,6.368-6.27c3.511,0,6.367,2.812,6.367,6.27v10.016c0,4.142,3.358,7.5,7.5,7.5s7.5-3.358,7.5-7.5v-10.016
			C359.002,130.793,349.417,121.251,337.635,121.251z"/>
		<path d="M430.351,418.411c-4.142,0-7.5,3.358-7.5,7.5V504.5c0,4.142,3.358,7.5,7.5,7.5s7.5-3.358,7.5-7.5v-78.589
			C437.851,421.769,434.493,418.411,430.351,418.411z"/>
		<path d="M403.636,356.233c-18.867,0-34.216,15.357-34.216,34.234V504.5c0,4.142,3.358,7.5,7.5,7.5s7.5-3.358,7.5-7.5V390.468
			c0-10.606,8.62-19.234,19.216-19.234c10.595,0,19.215,8.628,19.215,19.234c0,4.142,3.358,7.5,7.5,7.5s7.5-3.358,7.5-7.5
			C437.851,371.591,422.502,356.233,403.636,356.233z"/>
		<path d="M174.365,121.251c-11.782,0-21.367,9.542-21.367,21.27v10.016c0,4.142,3.358,7.5,7.5,7.5s7.5-3.358,7.5-7.5v-10.016
			c0-3.458,2.856-6.27,6.367-6.27c3.511,0,6.368,2.812,6.368,6.27v10.016c0,4.142,3.358,7.5,7.5,7.5s7.5-3.358,7.5-7.5v-10.016
			C195.732,130.793,186.147,121.251,174.365,121.251z"/>
		<path d="M279.692,319.672c0-4.142-3.358-7.5-7.5-7.5s-7.5,3.358-7.5,7.5v11.031c0,4.142,3.358,7.5,7.5,7.5s7.5-3.358,7.5-7.5
			V319.672z"/>
		<path d="M272.192,283.765c4.142,0,7.5-3.358,7.5-7.5v-11.136c0-4.142-3.358-7.5-7.5-7.5s-7.5,3.358-7.5,7.5v11.136
			C264.692,280.407,268.05,283.765,272.192,283.765z"/>
		<path d="M291.67,294.687c1.272,0,2.562-0.324,3.743-1.006l9.553-5.516c3.587-2.071,4.816-6.658,2.745-10.245
			c-2.071-3.588-6.658-4.816-10.245-2.745l-9.553,5.516c-3.587,2.071-4.816,6.658-2.745,10.245
			C286.558,293.342,289.079,294.687,291.67,294.687z"/>
		<path d="M244.435,321.958c1.272,0,2.562-0.324,3.743-1.006l9.645-5.568c3.587-2.071,4.816-6.658,2.745-10.245
			c-2.071-3.587-6.658-4.816-10.245-2.745l-9.645,5.568c-3.587,2.071-4.816,6.658-2.745,10.245
			C239.322,320.613,241.843,321.958,244.435,321.958z"/>
		<path d="M240.49,287.545l9.553,5.516c1.181,0.682,2.471,1.006,3.743,1.006c2.592,0,5.113-1.345,6.502-3.751
			c2.071-3.587,0.842-8.174-2.745-10.245l-9.553-5.516c-3.588-2.072-8.174-0.843-10.245,2.745
			C235.674,280.887,236.903,285.475,240.49,287.545z"/>
		<path d="M287.635,314.765l9.644,5.568c1.181,0.682,2.471,1.006,3.743,1.006c2.592,0,5.113-1.346,6.502-3.751
			c2.071-3.587,0.842-8.174-2.745-10.245l-9.644-5.568c-3.588-2.072-8.175-0.842-10.245,2.745
			C282.819,308.107,284.048,312.694,287.635,314.765z"/>
		<path d="M225.591,405.158c-4.142,0-7.5,3.358-7.5,7.5v11.031c0,4.142,3.358,7.5,7.5,7.5s7.5-3.358,7.5-7.5v-11.031
			C233.091,408.516,229.733,405.158,225.591,405.158z"/>
		<path d="M225.591,350.615c-4.142,0-7.5,3.358-7.5,7.5v11.136c0,4.142,3.358,7.5,7.5,7.5s7.5-3.358,7.5-7.5v-11.136
			C233.091,353.973,229.733,350.615,225.591,350.615z"/>
		<path d="M250.866,368.161l-9.553,5.516c-3.587,2.071-4.816,6.658-2.745,10.245c1.389,2.406,3.91,3.751,6.502,3.751
			c1.272,0,2.562-0.324,3.743-1.006l9.553-5.516c3.587-2.071,4.816-6.658,2.745-10.245
			C259.04,367.318,254.453,366.089,250.866,368.161z"/>
		<path d="M254.421,414.325c2.592,0,5.113-1.346,6.502-3.751c2.071-3.587,0.842-8.174-2.745-10.245l-9.645-5.568
			c-3.589-2.073-8.175-0.842-10.245,2.745c-2.071,3.587-0.842,8.174,2.745,10.245l9.645,5.568
			C251.86,414,253.149,414.325,254.421,414.325z"/>
		<path d="M285.27,485.969c-4.142,0-7.5,3.358-7.5,7.5V504.5c0,4.142,3.358,7.5,7.5,7.5s7.5-3.358,7.5-7.5v-11.031
			C292.77,489.327,289.412,485.969,285.27,485.969z"/>
		<path d="M285.27,431.425c-4.142,0-7.5,3.358-7.5,7.5v11.137c0,4.142,3.358,7.5,7.5,7.5s7.5-3.358,7.5-7.5v-11.137
			C292.77,434.783,289.412,431.425,285.27,431.425z"/>
		<path d="M263.399,476.19l-9.644,5.568c-3.587,2.071-4.816,6.658-2.745,10.245c1.389,2.406,3.91,3.751,6.502,3.751
			c1.272,0,2.562-0.325,3.743-1.006l9.644-5.568c3.587-2.071,4.816-6.658,2.745-10.245
			C271.574,475.348,266.985,474.121,263.399,476.19z"/>
		<path d="M253.567,461.342l9.553,5.516c1.181,0.682,2.471,1.006,3.743,1.006c2.592,0,5.113-1.345,6.502-3.751
			c2.071-3.587,0.842-8.174-2.745-10.245l-9.553-5.516c-3.588-2.073-8.174-0.843-10.245,2.745
			C248.751,454.684,249.98,459.271,253.567,461.342z"/>
	</g>
</g>
<g>
</g>
<g>
</g>
<g>
</g>
<g>
</g>
<g>
</g>
<g>
</g>
<g>
</g>
<g>
</g>
<g>
</g>
<g>
</g>
<g>
</g>
<g>
</g>
<g>
</g>
<g>
</g>
<g>
</g>
</svg>
