<?xml version="1.0" encoding="iso-8859-1"?>
<!-- Generator: Adobe Illustrator 25.0.0, SVG Export Plug-In . SVG Version: 6.00 Build 0)  -->
<svg version="1.1" id="Layer_1" xmlns="http://www.w3.org/2000/svg" xmlns:xlink="http://www.w3.org/1999/xlink" x="0px" y="0px"
	 viewBox="0 0 512 512" style="enable-background:new 0 0 512 512;" xml:space="preserve">
<g>
	<g>
		<rect x="61.644" y="7.5" style="fill:#EBF7FF;" width="388.712" height="497"/>
		<rect x="410.356" y="7.5" style="fill:#D9EDFA;" width="40" height="497"/>
		<rect x="61.644" y="7.5" style="fill:#F2A7D0;" width="388.712" height="159.242"/>
		<rect x="410.356" y="7.5" style="fill:#F294C7;" width="40" height="159.242"/>
	</g>
	<g>
		<path d="M450.356,0H135.111c-9.697,0-9.697,15,0,15h307.745v144.242H69.144V15h26.033c9.697,0,9.697-15,0-15H61.644
			c-4.142,0-7.5,3.358-7.5,7.5v497c0,4.142,3.358,7.5,7.5,7.5h388.711c4.143,0,7.5-3.358,7.5-7.5V400.251c0-4.142-3.357-7.5-7.5-7.5
			s-7.5,3.358-7.5,7.5V497H69.144V174.242h373.711v187.762c0,4.142,3.357,7.5,7.5,7.5s7.5-3.358,7.5-7.5V7.5
			C457.856,3.358,454.498,0,450.356,0z"/>
		<path d="M217.053,426.284c-0.011,0-0.021,0-0.031,0c-4.128,0-7.482,3.338-7.5,7.469c-0.017,4.142,3.327,7.514,7.469,7.531
			l81.049,0.333c0.011,0,0.021,0,0.032,0c4.127,0,7.482-3.338,7.499-7.469c0.017-4.142-3.327-7.514-7.469-7.531l-33.252-0.137
			V230.633c0-4.142-3.357-7.5-7.5-7.5h-43.422c-4.142,0-7.5,3.358-7.5,7.5s3.358,7.5,7.5,7.5h35.922v188.286L217.053,426.284z"/>
		<path d="M194.045,49.955c-3.134,0.977-5.268,3.878-5.268,7.16v60.125c0,4.142,3.358,7.5,7.5,7.5s7.5-3.358,7.5-7.5V81.174
			l26.984,39.075c2.206,3.186,5.884,4.542,9.369,3.451c3.559-1.111,5.858-4.444,5.857-8.562V56.929
			c-0.04-4.142-3.97-7.492-8.135-7.427c-4.142,0.04-7.111,3.43-7.071,7.572v36.807l-28.333-41.029
			C200.583,50.152,197.178,48.979,194.045,49.955z"/>
		<path d="M144.796,124.771c10.642,0,18.954-9.344,18.954-19.625v-47.83c0-4.107-3.164-7.688-7.269-7.811
			c-4.247-0.128-7.731,3.278-7.731,7.497v48.145c0,6.033-5.249,5.854-8.467,2.461c-2.809-2.961-7.252-3.605-10.414-1.022
			l-0.066,0.054c-3.179,2.597-3.645,7.282-1.04,10.454l0.947,1.154C132.612,121.168,138.231,124.771,144.796,124.771z"/>
		<path d="M357.794,124.74c0.007,0,0.013,0,0.019,0c4.134,0,7.49-3.346,7.5-7.481l0.07-28.555l17.874-27.457
			c2.26-3.472,1.278-8.118-2.193-10.377c-3.472-2.258-8.116-1.278-10.377,2.194l-12.808,19.674l-12.951-19.835
			c-2.267-3.469-6.911-4.443-10.381-2.179c-3.468,2.265-4.444,6.912-2.18,10.38l18.016,27.591l-0.07,28.527
			C350.303,121.364,353.653,124.729,357.794,124.74z"/>
		<path d="M318.583,72.657c0-12.768-10.785-23.155-24.041-23.155h-16.007c-0.003,0-0.007,0-0.01,0s-0.006,0-0.01,0
			c-4.143,0-7.5,3.358-7.5,7.5v60.238c0,4.142,3.357,7.5,7.5,7.5s7.5-3.358,7.5-7.5v-17.13l19.438,22.085
			c6.499,7.385,17.606-2.699,11.26-9.91l-15.34-17.43C311.311,92.013,318.583,83.14,318.583,72.657z M294.542,80.812
			c-1.972,0-5.318,0.014-8.438,0.028c-0.016-3.042-0.029-6.282-0.029-8.184c0-1.617-0.008-4.966-0.018-8.155h8.484
			c4.9,0,9.041,3.735,9.041,8.155S299.443,80.812,294.542,80.812z"/>
	</g>
</g>
<g>
</g>
<g>
</g>
<g>
</g>
<g>
</g>
<g>
</g>
<g>
</g>
<g>
</g>
<g>
</g>
<g>
</g>
<g>
</g>
<g>
</g>
<g>
</g>
<g>
</g>
<g>
</g>
<g>
</g>
</svg>
