<?xml version="1.0" encoding="iso-8859-1"?>
<!-- Generator: Adobe Illustrator 25.0.0, SVG Export Plug-In . SVG Version: 6.00 Build 0)  -->
<svg version="1.1" id="Layer_1" xmlns="http://www.w3.org/2000/svg" xmlns:xlink="http://www.w3.org/1999/xlink" x="0px" y="0px"
	 viewBox="0 0 512 512" style="enable-background:new 0 0 512 512;" xml:space="preserve">
<g>
	<g>
		<g>
			<polygon style="fill:#FFCA21;" points="491.931,125.018 470.625,123.802 457.516,140.644 452.121,120.028 432.051,112.805 
				450.023,101.28 450.729,79.974 467.231,93.467 487.736,87.522 479.964,107.387 			"/>
			<polygon style="fill:#FFCA21;" points="20.069,125.018 41.375,123.802 54.484,140.644 59.879,120.028 79.949,112.805 
				61.977,101.28 61.272,79.974 44.769,93.467 24.264,87.522 32.037,107.387 			"/>
			<polygon style="fill:#FFCA21;" points="339.571,88.486 325.365,72.56 304.187,75.2 314.95,56.807 305.866,37.509 326.724,42.067 
				342.288,27.5 344.416,48.71 363.119,59.006 343.576,67.556 			"/>
			<polygon style="fill:#FFCA21;" points="172.429,88.486 186.635,72.56 207.813,75.2 197.05,56.807 206.134,37.509 185.277,42.067 
				169.712,27.5 167.584,48.71 148.881,59.006 168.424,67.556 			"/>
		</g>
		<g>
			<polygon style="fill:#FFCA21;" points="20.069,386.982 41.375,388.198 54.484,371.356 59.879,391.972 79.949,399.195 
				61.977,410.72 61.272,432.026 44.769,418.533 24.264,424.478 32.037,404.613 			"/>
			<polygon style="fill:#FFCA21;" points="491.931,386.982 470.625,388.198 457.516,371.356 452.121,391.972 432.051,399.195 
				450.023,410.72 450.729,432.026 467.231,418.533 487.736,424.478 479.964,404.613 			"/>
			<polygon style="fill:#FFCA21;" points="172.429,423.514 186.635,439.44 207.813,436.8 197.05,455.193 206.134,474.491 
				185.277,469.933 169.712,484.5 167.584,463.29 148.881,452.994 168.424,444.444 			"/>
			<polygon style="fill:#FFCA21;" points="339.571,423.514 325.365,439.44 304.187,436.8 314.95,455.193 305.866,474.491 
				326.724,469.933 342.288,484.5 344.416,463.29 363.119,452.994 343.576,444.444 			"/>
		</g>
		<g>
			<path style="fill:#F2A7D0;" d="M504.5,204.813H7.5l30.537,50.937L7.5,307.187h497L473.963,256L504.5,204.813z"/>
			<polygon style="fill:#41CCB4;" points="484.5,342.907 27.5,342.907 79.347,255.576 27.5,169.093 484.5,169.093 432.653,256 			
				"/>
			<polygon style="fill:#0FBA9D;" points="484.5,169.093 444.5,169.093 392.653,256 444.5,342.907 484.5,342.907 432.653,256 			"/>
		</g>
	</g>
	<g>
		<path d="M482.696,256l28.244-47.344c2.255-6.28,0.108-10.061-6.44-11.342h-27.696c6.984-11.707,12.569-21.237,14.377-24.814
			c2.233-4.374-1.43-11.281-6.682-10.906H345.56l57.882-72.785c6.036-7.59-5.705-16.926-11.74-9.336l-65.306,82.121H263.5V71.851
			c0-4.142-3.357-7.5-7.5-7.5c-4.143,0-7.5,3.358-7.5,7.5v89.742h-62.896l-65.306-82.121c-6.034-7.592-17.776,1.746-11.74,9.336
			l57.882,72.785h-38.961c-9.697,0-9.697,15,0,15h344.165C464.918,188.075,425.5,253.644,425.5,256c0,1.345,0.362,2.666,1.048,3.824
			l44.79,75.583h-42.892c-9.697,0-9.697,15,0,15H484.5c6.538-1.275,8.689-5.049,6.452-11.323l-14.457-24.397H504.5
			c6.549-1.281,8.695-5.062,6.44-11.342L482.696,256z M467.606,299.687l-25.956-43.801c3.176-5.408,9.822-16.437,16.299-27.185
			c3.249-5.391,6.597-10.948,9.867-16.387h23.476l-23.77,39.844c-1.413,2.367-1.413,5.318,0,7.685l23.77,39.844H467.606z"/>
		<path d="M381.565,307.165c4.143,0,7.5-3.358,7.5-7.5v-87.33c0-4.142-3.357-7.5-7.5-7.5h-18.617c-4.143,0-7.5,3.358-7.5,7.5
			s3.357,7.5,7.5,7.5h11.117v79.83C374.065,303.807,377.422,307.165,381.565,307.165z"/>
		<path d="M173.693,238.472c4.124-17.845-11.503-34.915-29.165-34.915c-14.204,0-26.497,10.124-29.23,24.073
			c-1.863,9.515,12.857,12.404,14.721,2.884c1.357-6.928,7.459-11.957,14.51-11.957c8.012,0,14.557,6.429,14.783,14.417
			c-1.203,6.893-4.317,12.715-8.335,18.473c-13.826,19.805-22.079,30.639-26.514,36.46c-5.385,7.069-7.199,9.451-5.875,13.753
			c0.761,2.47,2.64,4.369,5.156,5.21c1.022,0.342,2.224,0.744,18.782,0.744c6.599,0,15.639-0.064,28.077-0.221
			c4.142-0.052,7.457-3.452,7.404-7.594c-0.053-4.142-3.494-7.473-7.594-7.405c-10.747,0.136-22.234,0.217-30.676,0.198
			c4.901-6.492,12.458-16.689,23.538-32.561C168.665,252.312,172.17,245.058,173.693,238.472z"/>
		<path d="M334.729,238.47c4.131-17.843-11.512-34.914-29.165-34.914c-14.206,0-26.499,10.125-29.23,24.073
			c-1.863,9.516,12.857,12.402,14.721,2.883c1.356-6.928,7.459-11.956,14.51-11.956c8.012,0,14.556,6.429,14.782,14.418
			c-1.202,6.893-4.317,12.715-8.335,18.472c-13.826,19.805-22.079,30.639-26.513,36.46c-5.386,7.069-7.199,9.451-5.875,13.754
			c0.761,2.47,2.64,4.369,5.156,5.21c1.022,0.342,2.224,0.744,18.782,0.744c6.599,0,15.639-0.064,28.077-0.221
			c4.142-0.052,7.457-3.452,7.404-7.594c-0.053-4.142-3.464-7.473-7.594-7.405c-10.747,0.136-22.233,0.217-30.677,0.198
			c4.901-6.492,12.458-16.689,23.537-32.56C329.7,252.312,333.205,245.057,334.729,238.47z"/>
		<path d="M259.79,276.193v-40.387c0-18.061-14.664-32.754-32.689-32.754c-18.024,0-32.688,14.693-32.688,32.754v40.387
			c0,18.061,14.664,32.754,32.688,32.754C245.126,308.947,259.79,294.254,259.79,276.193z M209.412,276.193v-40.387
			c0-9.79,7.935-17.754,17.688-17.754s17.689,7.964,17.689,17.754v40.387c0,9.79-7.936,17.754-17.689,17.754
			S209.412,285.983,209.412,276.193z"/>
		<path d="M256,43.284c4.143,0,7.5-3.358,7.5-7.5V7.5c0-4.142-3.357-7.5-7.5-7.5c-4.143,0-7.5,3.358-7.5,7.5v28.284
			C248.5,39.926,251.858,43.284,256,43.284z"/>
		<path d="M424.599,113.646c0.32,2.839,2.226,5.249,4.913,6.216l16.354,5.886l4.396,16.796c1.498,5.725,9.229,7.778,13.175,2.708
			l10.691-13.737l17.377,0.992c5.569,0.314,10.309-6.286,6.633-11.7l-9.75-14.365l6.334-16.187c2.386-6.097-3.71-11.491-9.073-9.936
			l-16.72,4.848l-13.452-10.999c-5.059-4.136-12.058-0.017-12.243,5.558l-0.574,17.368l-14.655,9.397
			C425.599,108.034,424.278,110.808,424.599,113.646z M454.072,107.594c2.076-1.332,3.365-3.6,3.447-6.065l0.203-6.148l4.762,3.893
			c1.909,1.561,4.462,2.084,6.836,1.397l5.886-1.707l-2.227,5.69c-0.9,2.302-0.609,4.9,0.779,6.945l3.438,5.066l-6.145-0.351
			c-2.454-0.14-4.833,0.937-6.347,2.881l-3.779,4.856l-1.55-5.922c-0.626-2.392-2.39-4.321-4.716-5.158l-5.749-2.069
			L454.072,107.594z"/>
		<path d="M20.496,132.506l17.377-0.992l10.691,13.737c3.946,5.07,11.676,3.018,13.175-2.708l4.396-16.796l16.354-5.886
			c5.746-2.068,6.649-10.074,1.509-13.37l-14.655-9.397l-0.574-17.368c-0.185-5.576-7.184-9.692-12.243-5.558L43.072,85.167
			l-16.72-4.848c-5.364-1.556-11.459,3.84-9.073,9.936l6.334,16.187l-9.75,14.365C10.187,126.22,14.927,132.821,20.496,132.506z
			 M39.021,104.654l-2.227-5.69l5.886,1.707c2.374,0.688,4.927,0.164,6.836-1.397l4.762-3.893l0.203,6.148
			c0.082,2.466,1.371,4.733,3.447,6.065l5.16,3.309l-5.749,2.069c-2.326,0.837-4.09,2.766-4.716,5.158l-1.55,5.922l-3.779-4.856
			c-1.426-1.832-3.613-2.894-5.918-2.894c-0.143,0-0.285,0.004-0.429,0.012l-6.145,0.351l3.438-5.066
			C39.63,109.554,39.921,106.956,39.021,104.654z"/>
		<path d="M305.114,82.643l17.273-2.153l11.587,12.989c4.222,4.734,11.841,2.285,12.963-3.583l3.263-17.052l15.925-6.967
			c5.594-2.447,5.961-10.496,0.611-13.441l-15.251-8.396l-1.734-17.289c-0.558-5.55-7.818-9.192-12.588-4.727l-12.688,11.875
			l-17.009-3.717c-5.457-1.194-11.174,4.598-8.388,10.521l7.402,15.725l-8.769,14.984C294.413,77.052,299.576,83.335,305.114,82.643
			z M321.735,53.613l-2.603-5.527l5.989,1.309c2.413,0.526,4.925-0.166,6.727-1.852l4.491-4.203l0.613,6.119
			c0.247,2.455,1.685,4.632,3.846,5.822l5.369,2.955l-5.598,2.449c-2.265,0.991-3.896,3.034-4.36,5.461l-1.151,6.015l-4.097-4.593
			c-1.432-1.606-3.474-2.508-5.596-2.508c-0.309,0-0.619,0.019-0.929,0.058l-6.107,0.761l3.093-5.284
			C322.671,58.461,322.788,55.85,321.735,53.613z"/>
		<path d="M145.875,65.877l15.925,6.967l3.263,17.052c1.122,5.868,8.741,8.317,12.963,3.583l11.587-12.989l17.273,2.153
			c5.538,0.692,10.702-5.589,7.401-11.23l-8.769-14.984l7.402-15.725c2.792-5.934-2.934-11.705-8.388-10.521l-17.009,3.717
			l-12.688-11.875c-4.77-4.466-12.03-0.822-12.588,4.727l-1.734,17.289l-15.251,8.396C139.914,55.381,140.281,63.429,145.875,65.877
			z M171.201,55.28c2.161-1.19,3.599-3.367,3.846-5.822l0.613-6.119l4.491,4.203c1.801,1.686,4.317,2.376,6.727,1.852l5.989-1.309
			l-2.603,5.527c-1.053,2.237-0.936,4.849,0.312,6.982l3.093,5.284l-6.107-0.761c-2.446-0.306-4.885,0.611-6.524,2.45l-4.097,4.593
			l-1.151-6.015c-0.465-2.428-2.096-4.471-4.36-5.461l-5.598-2.449L171.201,55.28z"/>
		<path d="M211.245,137.809c9.652,0,9.668-15,0-15C201.593,122.809,201.577,137.809,211.245,137.809z"/>
		<path d="M304.187,137.809c9.652,0,9.668-15,0-15C294.535,122.809,294.519,137.809,304.187,137.809z"/>
		<path d="M89.509,44.283c9.652,0,9.668-15,0-15C79.858,29.283,79.841,44.283,89.509,44.283z"/>
		<path d="M422.491,44.283c9.652,0,9.668-15,0-15C412.839,29.283,412.823,44.283,422.491,44.283z"/>
		<path d="M345.56,350.407h42.988c9.697,0,9.697-15,0-15H40.586l44.886-76.616c1.385-2.365,1.37-5.297-0.039-7.647L40.74,176.593
			h38.434c9.697,0,9.697-15,0-15H27.5c-5.947,0-9.339,6.697-6.37,11.46l14.544,24.26H7.5C0.944,198.6-1.2,202.385,1.067,208.67
			l28.236,47.099L1.051,303.358C-1.19,309.634,0.96,313.41,7.5,314.687h27.841l-14.312,24.43
			c-2.621,4.476,0.606,11.291,6.472,11.291h138.94l-57.882,72.785c-5.932,7.458,5.547,17.127,11.74,9.336l65.306-82.121H248.5
			v89.742c0,4.142,3.357,7.5,7.5,7.5c4.143,0,7.5-3.358,7.5-7.5v-89.742h62.896l65.306,82.121c6.193,7.791,17.672-1.878,11.74-9.336
			L345.56,350.407z M20.675,299.687l23.812-40.107c1.407-2.37,1.4-5.321-0.017-7.685l-23.729-39.581h23.925l25.616,42.73
			l-26.154,44.643H20.675z"/>
		<path d="M256,468.716c-4.143,0-7.5,3.358-7.5,7.5V504.5c0,4.142,3.357,7.5,7.5,7.5c4.143,0,7.5-3.358,7.5-7.5v-28.284
			C263.5,472.074,260.143,468.716,256,468.716z"/>
		<path d="M87.401,398.354c-0.32-2.839-2.226-5.249-4.913-6.216l-16.354-5.886l-4.396-16.796c-1.545-5.902-9.427-7.521-13.175-2.708
			l-10.691,13.737l-17.377-0.992c-5.573-0.324-10.302,6.296-6.633,11.7l9.75,14.365l-6.334,16.187
			c-2.385,6.094,3.709,11.494,9.073,9.936l16.72-4.848l13.452,10.999c4.789,3.915,12.042,0.501,12.243-5.558l0.574-17.368
			l14.655-9.397C86.401,403.966,87.722,401.192,87.401,398.354z M57.928,404.406c-2.076,1.332-3.365,3.6-3.447,6.065l-0.203,6.148
			l-4.762-3.893c-1.356-1.109-3.038-1.694-4.748-1.694c-0.697,0-1.4,0.098-2.088,0.297l-5.886,1.707l2.227-5.69
			c0.9-2.302,0.609-4.9-0.779-6.945l-3.438-5.066l6.145,0.351c2.473,0.147,4.833-0.937,6.347-2.881l3.779-4.856l1.55,5.922
			c0.626,2.392,2.39,4.321,4.716,5.158l5.749,2.069L57.928,404.406z"/>
		<path d="M491.504,379.494l-17.377,0.992l-10.691-13.737c-3.747-4.815-11.63-3.194-13.175,2.708l-4.396,16.796l-16.354,5.886
			c-5.746,2.068-6.649,10.074-1.509,13.37l14.655,9.397l0.574,17.368c0.201,6.059,7.454,9.473,12.243,5.558l13.452-10.999
			l16.72,4.848c5.364,1.557,11.458-3.842,9.073-9.936l-6.334-16.187l9.75-14.365C501.807,385.789,497.077,379.169,491.504,379.494z
			 M472.98,407.346l2.227,5.69l-5.886-1.707c-2.373-0.688-4.927-0.164-6.836,1.397l-4.762,3.893l-0.203-6.148
			c-0.082-2.466-1.371-4.733-3.447-6.065l-5.16-3.309l5.749-2.069c2.326-0.837,4.09-2.766,4.716-5.158l1.55-5.922l3.779,4.856
			c1.514,1.945,3.892,3.028,6.347,2.881l6.145-0.351l-3.438,5.066C472.37,402.446,472.079,405.044,472.98,407.346z"/>
		<path d="M206.886,429.357l-17.273,2.153l-11.587-12.989c-4.061-4.552-11.817-2.41-12.963,3.583l-3.263,17.052l-15.925,6.967
			c-5.594,2.448-5.961,10.496-0.611,13.441l15.251,8.396l1.734,17.289c0.603,6,8.028,8.995,12.588,4.727l12.688-11.875l17.009,3.717
			c5.455,1.188,11.177-4.593,8.388-10.521l-7.402-15.725l8.769-14.984C217.594,434.937,212.42,428.675,206.886,429.357z
			 M190.265,458.387l2.603,5.527l-5.989-1.309c-2.412-0.525-4.925,0.166-6.727,1.852l-4.491,4.203l-0.613-6.119
			c-0.247-2.455-1.685-4.632-3.846-5.822l-5.369-2.955l5.598-2.449c2.265-0.991,3.896-3.034,4.36-5.461l1.151-6.015l4.097,4.593
			c1.64,1.839,4.085,2.752,6.524,2.45l6.107-0.761l-3.093,5.284C189.329,453.539,189.212,456.15,190.265,458.387z"/>
		<path d="M366.125,446.123l-15.925-6.967l-3.263-17.052c-1.146-5.991-8.903-8.136-12.963-3.583l-11.587,12.989l-17.273-2.153
			c-5.535-0.683-10.707,5.58-7.401,11.23l8.769,14.984l-7.402,15.725c-2.789,5.928,2.932,11.71,8.388,10.521l17.009-3.717
			l12.688,11.875c4.56,4.268,11.985,1.273,12.588-4.727l1.734-17.289l15.251-8.396C372.086,456.619,371.719,448.571,366.125,446.123
			z M340.799,456.72c-2.161,1.19-3.599,3.367-3.846,5.822l-0.613,6.119l-4.491-4.203c-1.404-1.314-3.241-2.024-5.125-2.024
			c-0.533,0-1.07,0.057-1.602,0.173l-5.989,1.309l2.603-5.527c1.053-2.237,0.936-4.849-0.312-6.982l-3.093-5.284l6.107,0.761
			c2.445,0.302,4.884-0.611,6.524-2.45l4.097-4.593l1.151,6.015c0.465,2.428,2.096,4.471,4.36,5.461l5.598,2.449L340.799,456.72z"/>
		<path d="M300.756,374.191c-9.652,0-9.668,15,0,15C310.407,389.191,310.423,374.191,300.756,374.191z"/>
		<path d="M207.813,374.191c-9.652,0-9.668,15,0,15C217.465,389.191,217.481,374.191,207.813,374.191z"/>
		<path d="M422.491,467.716c-9.652,0-9.668,15,0,15C432.143,482.716,432.159,467.716,422.491,467.716z"/>
		<path d="M89.509,467.716c-9.652,0-9.668,15,0,15C99.161,482.716,99.177,467.716,89.509,467.716z"/>
	</g>
</g>
<g>
</g>
<g>
</g>
<g>
</g>
<g>
</g>
<g>
</g>
<g>
</g>
<g>
</g>
<g>
</g>
<g>
</g>
<g>
</g>
<g>
</g>
<g>
</g>
<g>
</g>
<g>
</g>
<g>
</g>
</svg>
