<?xml version="1.0" encoding="iso-8859-1"?>
<!-- Generator: Adobe Illustrator 25.0.0, SVG Export Plug-In . SVG Version: 6.00 Build 0)  -->
<svg version="1.1" id="Layer_1" xmlns="http://www.w3.org/2000/svg" xmlns:xlink="http://www.w3.org/1999/xlink" x="0px" y="0px"
	 viewBox="0 0 512.014 512.014" style="enable-background:new 0 0 512.014 512.014;" xml:space="preserve">
<g>
	<g>
		<g>
			<g>
				<polygon style="fill:#EB67A5;" points="208.04,400.173 153.858,345.684 155.369,262.811 314.368,102.911 381.34,73.727 
					438.017,168.894 350.505,256.902 310.329,273.577 295.552,312.165 				"/>
				<polygon style="fill:#E34D94;" points="418.103,148.867 188.047,380.067 208.04,400.173 295.552,312.165 309.387,272.922 
					350.505,256.902 438.017,168.893 				"/>
				<g>
					<path style="fill:#EBF7FF;" d="M164.618,270.061c-2.84-2.856-5.952-5.27-9.25-7.25l-41.959,42.196l40.448,40.677
						c3.859-2.128,7.492-4.823,10.761-8.111C183.156,318.93,183.156,288.704,164.618,270.061z"/>
					<path style="fill:#EBF7FF;" d="M337.325,231.399c-18.538-18.643-48.594-18.643-67.131,0s-18.538,48.869,0,67.512
						c7.173,7.213,16.072,11.623,25.359,13.254l54.952-55.264C348.883,247.562,344.498,238.613,337.325,231.399z"/>
					<path style="fill:#EBF7FF;" d="M328.251,137.531c18.538,18.643,48.594,18.643,67.132,0c1.953-1.964,6.562-6.937,8.103-9.131
						l-56.386-58.386l-32.732,32.896C314.144,115.415,318.763,127.99,328.251,137.531z"/>
				</g>
				<polygon style="fill:#FFCA21;" points="119.464,487.092 81,472.084 55.15,504.422 48.843,463.418 8.07,457.075 40.226,431.079 
					25.303,392.397 63.767,407.406 89.616,375.067 95.924,416.071 136.697,422.414 104.54,448.41 				"/>
				<polygon style="fill:#B5C8FF;" points="503.944,7.422 488.253,105.252 472.562,203.082 390.974,121.032 309.387,38.982 
					406.665,23.202 				"/>
				<polygon style="fill:#9CB5FF;" points="462.875,14.084 448.253,105.252 438.118,168.442 472.562,203.082 488.253,105.252 
					503.944,7.422 				"/>
			</g>
			<g>
				<polygon style="fill:#41CCB4;" points="111.02,142.904 99.709,117.253 71.839,120.283 88.399,97.662 71.839,75.041 
					99.709,78.072 111.02,52.421 122.33,78.072 150.2,75.041 133.641,97.662 150.2,120.283 122.33,117.253 				"/>
			</g>
			<g>
				<polygon style="fill:#41CCB4;" points="400.994,459.424 389.683,433.773 361.813,436.803 378.373,414.182 361.813,391.561 
					389.683,394.592 400.994,368.941 412.304,394.592 440.175,391.561 423.615,414.182 440.175,436.803 412.304,433.773 				"/>
			</g>
		</g>
		<g>
			<path style="fill:#D9EDFA;" d="M337.325,231.399l-67.131,67.512c7.173,7.213,16.072,11.623,25.358,13.254l54.952-55.264
				C348.883,247.562,344.498,238.613,337.325,231.399z"/>
		</g>
	</g>
	<g>
		<path d="M300.838,317.486l137.454-138.232l28.952,29.116c4.374,4.398,11.785,1.759,12.724-4.101L511.35,8.61
			c0.06-5.798-2.809-8.661-8.606-8.591l-44.178,7.166c-9.572,1.552-7.172,16.356,2.402,14.807l33.927-5.503l-27.403,170.856
			L325,44.047l96.763-15.696c9.571-1.553,7.174-16.35-2.402-14.807L308.186,31.579c-5.433,0.881-8.629,8.156-4.117,12.691
			l29.017,29.181L108.092,299.719c-2.909,2.925-2.909,7.651,0,10.576c14.066,14.145,28.131,28.291,42.197,42.436l-48.948,49.225
			l-4.312-28.03c-0.975-6.332-9.271-8.548-13.271-3.542l-22.405,28.029l-33.323-13.002c-5.957-2.322-12.027,3.719-9.724,9.687
			l12.957,33.584L3.354,451.243c-4.963,4.012-2.744,12.262,3.562,13.243l35.349,5.5l5.473,35.577
			c0.948,6.155,9.073,8.795,13.271,3.542l22.405-28.029l33.323,13.002c5.957,2.327,12.026-3.722,9.724-9.687l-12.957-33.584
			l27.907-22.561c4.963-4.012,2.744-12.262-3.562-13.243l-24.533-3.817l47.549-47.819l41.856,42.094
			c3.546,2.949,7.091,2.949,10.637,0l26.519-26.669c6.838-6.876-3.798-17.451-10.637-10.576l-21.2,21.32l-42.481-42.722
			c1.528-1.237,2.989-2.556,4.378-3.953c21.408-21.529,21.408-56.559,0-78.088c-0.992-0.998-2.034-1.942-3.097-2.86l142.116-142.921
			c2.519,8.911,7.263,17.075,13.978,23.828c10.385,10.443,24.193,16.194,38.885,16.194c14.646,0,29.067-6.129,39.28-16.612
			l26.342,26.491l-73.437,73.853c-2.711-6.154-6.534-11.782-11.359-16.635c-10.384-10.443-24.193-16.194-38.885-16.194
			c-14.69,0-28.5,5.751-38.884,16.194c-21.407,21.529-21.407,56.559,0,78.087c4.846,4.874,10.47,8.732,16.623,11.463l-24.295,24.433
			c-6.838,6.876,3.8,17.454,10.637,10.576l32.979-33.166C300.826,317.498,300.832,317.492,300.838,317.486z M99.825,442.577
			c-2.532,2.047-3.454,5.494-2.282,8.532l8.801,22.812l-22.617-8.825c-3.06-1.193-6.535-0.259-8.585,2.304l-15.177,18.987
			l-3.709-24.11c-0.497-3.231-3.03-5.768-6.26-6.271l-24.048-3.741l18.993-15.354c2.532-2.047,3.454-5.494,2.282-8.532
			l-8.801-22.812l22.617,8.825c3.062,1.195,6.537,0.26,8.585-2.304l15.177-18.987l3.709,24.109c0.497,3.231,3.03,5.768,6.26,6.271
			l24.048,3.741L99.825,442.577z M159.3,275.349c15.609,15.697,15.609,41.238,0,56.936c-1.371,1.379-2.842,2.651-4.396,3.814
			l-30.916-31.091l32.24-32.423C157.293,273.456,158.326,274.37,159.3,275.349z M390.063,132.244
			c-7.547,7.59-17.578,11.77-28.246,11.77s-20.7-4.18-28.248-11.771c-7.063-7.102-11.128-16.352-11.642-26.298l21.459-21.581
			l47.133,47.4C390.367,131.923,390.218,132.088,390.063,132.244z M275.512,293.623c-15.608-15.697-15.608-41.238,0-56.935
			c7.548-7.59,17.579-11.771,28.247-11.771c10.669,0,20.7,4.18,28.248,11.771c4.961,4.989,8.46,11.104,10.28,17.841l-49.133,49.411
			C286.493,302.108,280.45,298.589,275.512,293.623z"/>
		<path d="M7.507,105.163h35.188c9.697,0,9.697-15,0-15H7.507C-2.19,90.163-2.19,105.163,7.507,105.163z"/>
		<path d="M178.92,105.163h35.612c9.697,0,9.697-15,0-15H178.92C169.223,90.163,169.223,105.163,178.92,105.163z"/>
		<path d="M152.285,154.536c-4.823-8.412-17.836-0.949-13.012,7.463l16.997,29.635c5.135,8.955,17.627,0.586,13.012-7.463
			L152.285,154.536z"/>
		<path d="M69.754,40.789c5.135,8.955,17.627,0.586,13.012-7.463L65.77,3.691c-4.824-8.411-17.836-0.949-13.012,7.463L69.754,40.789
			z"/>
		<path d="M142.048,43.563c3.794,1.955,7.207,1.031,10.237-2.774l16.997-29.635c4.824-8.412-8.187-15.875-13.012-7.463
			l-16.997,29.635C137.213,36.919,138.455,41.502,142.048,43.563z"/>
		<path d="M55.532,194.408c3.794,1.955,7.207,1.031,10.237-2.774l16.996-29.635c4.824-8.412-8.188-15.876-13.012-7.463
			l-16.996,29.635C50.697,187.764,51.939,192.348,55.532,194.408z"/>
		<path d="M65.344,71.292c-1.486,2.574-1.312,5.782,0.443,8.18l13.316,18.191l-13.316,18.19c-4.09,5.585,1.107,12.527,6.862,11.886
			l22.412-2.437l9.096,20.628c2.58,5.851,11.144,5.851,13.725,0l9.096-20.628l22.412,2.437c5.753,0.637,10.955-6.296,6.862-11.886
			l-13.316-18.19l13.316-18.191c4.102-5.601-1.114-12.512-6.862-11.886l-22.412,2.437l-9.096-20.628
			c-2.58-5.851-11.144-5.851-13.725,0l-9.096,20.628l-22.412-2.437C69.702,67.261,66.829,68.718,65.344,71.292z M98.898,85.528
			c3.255,0.358,6.355-1.439,7.673-4.43l4.448-10.088l4.448,10.088c1.318,2.991,4.431,4.788,7.673,4.43l10.961-1.192l-6.513,8.896
			c-1.931,2.638-1.931,6.223,0,8.86l6.512,8.896l-10.96-1.192c-3.241-0.353-6.354,1.439-7.673,4.43l-4.448,10.088l-4.448-10.088
			c-1.208-2.74-3.915-4.475-6.859-4.475c-0.27,0-0.541,0.015-0.813,0.044l-10.96,1.192l6.512-8.896c1.931-2.638,1.931-6.223,0-8.86
			l-6.513-8.896L98.898,85.528z"/>
		<path d="M332.669,406.682h-35.188c-9.697,0-9.697,15,0,15h35.188C342.366,421.682,342.366,406.682,332.669,406.682z"/>
		<path d="M504.507,406.682h-35.613c-9.697,0-9.697,15,0,15h35.613C514.204,421.682,514.204,406.682,504.507,406.682z"/>
		<path d="M442.26,471.056c-4.824-8.412-17.836-0.949-13.012,7.463l16.996,29.635c5.135,8.955,17.627,0.586,13.012-7.463
			L442.26,471.056z"/>
		<path d="M345.506,317.437c-3.593,2.061-4.835,6.644-2.774,10.237l16.997,29.635c5.135,8.955,17.627,0.586,13.012-7.463
			l-16.997-29.635C353.684,316.619,349.102,315.377,345.506,317.437z"/>
		<path d="M456.481,317.437c-3.594-2.061-8.177-0.818-10.237,2.774l-16.996,29.635c-4.616,8.049,7.876,16.418,13.012,7.463
			l16.996-29.635C461.316,324.081,460.074,319.497,456.481,317.437z"/>
		<path d="M369.966,468.282c-3.594-2.062-8.177-0.818-10.237,2.774l-16.997,29.635c-4.616,8.049,7.876,16.418,13.012,7.463
			l16.997-29.635C374.801,474.926,373.559,470.343,369.966,468.282z"/>
		<path d="M446.67,440.553c1.486-2.574,1.312-5.782-0.443-8.18l-13.316-18.191l13.316-18.19c4.1-5.599-1.113-12.515-6.862-11.886
			l-22.412,2.437l-9.096-20.628c-2.58-5.851-11.144-5.851-13.725,0l-9.096,20.628l-22.412-2.437
			c-5.751-0.633-10.958,6.293-6.862,11.886l13.316,18.19l-13.316,18.191c-4.089,5.584,1.108,12.526,6.862,11.886l22.412-2.437
			l9.096,20.628c2.58,5.851,11.144,5.851,13.725,0l9.096-20.628l22.412,2.437C442.312,444.585,445.185,443.127,446.67,440.553z
			 M413.115,426.316c-3.246-0.354-6.354,1.439-7.673,4.43l-4.448,10.088l-4.448-10.088c-1.208-2.74-3.915-4.474-6.859-4.474
			c-0.27,0-0.541,0.014-0.813,0.044l-10.961,1.192l6.513-8.896c1.931-2.638,1.931-6.223,0-8.86l-6.512-8.896l10.96,1.192
			c3.25,0.357,6.354-1.439,7.673-4.43l4.448-10.088l4.448,10.088c1.319,2.991,4.422,4.785,7.673,4.43l10.96-1.192l-6.512,8.896
			c-1.931,2.638-1.931,6.223,0,8.86l6.513,8.896L413.115,426.316z"/>
	</g>
</g>
<g>
</g>
<g>
</g>
<g>
</g>
<g>
</g>
<g>
</g>
<g>
</g>
<g>
</g>
<g>
</g>
<g>
</g>
<g>
</g>
<g>
</g>
<g>
</g>
<g>
</g>
<g>
</g>
<g>
</g>
</svg>
