<?xml version="1.0" encoding="iso-8859-1"?>
<!-- Generator: Adobe Illustrator 25.0.0, SVG Export Plug-In . SVG Version: 6.00 Build 0)  -->
<svg version="1.1" id="Layer_1" xmlns="http://www.w3.org/2000/svg" xmlns:xlink="http://www.w3.org/1999/xlink" x="0px" y="0px"
	 viewBox="0 0 512.006 512.006" style="enable-background:new 0 0 512.006 512.006;" xml:space="preserve">
<g>
	<g>
		<g>
			<g>
				<g>
					<g>
						<path style="fill:#41CCB4;" d="M217.45,177.863c7.409,12.883,13.541,29.329,16.477,54.769l11.574,100.292l-70.066,7.99
							l-0.098,0.011l-70.066,7.99L93.699,248.624c-2.936-25.44-0.709-42.839,3.573-57.055L217.45,177.863z"/>
						<path style="fill:#41CCB4;" d="M123.107,39.737l33.821-3.857c7.84-0.894,13.466-7.953,12.564-15.765v0
							c-0.901-7.807-7.981-13.409-15.816-12.516l-33.821,3.857c-7.84,0.894-13.466,7.953-12.564,15.765l0,0
							C108.192,35.028,115.272,40.631,123.107,39.737z"/>
						<g>
							<path style="fill:#FFCA21;" d="M111.67,157.136c5.833-13.296,10.796-27.985,11.092-50.004
								c0.271-20.156-0.233-59.865-0.541-66.674l-0.125-0.605l0.098-0.011l35.758-4.078l0.098-0.011l0.016,0.618
								c1.252,6.703,10.467,45.417,15.322,64.988c5.304,21.381,13.484,34.571,22.195,46.208l-37.78,40.974L111.67,157.136z"/>
							<path style="fill:#EBF7FF;" d="M157.802,188.54l37.78-40.974c7.385,9.866,15.148,18.622,21.865,30.299l-54.105,58.679
								L97.276,191.57c3.882-12.886,9.449-23.162,14.395-34.434L157.802,188.54z"/>
						</g>
					</g>
					<g>
						<g>
							<path style="fill:#6B8DF2;" d="M59.765,289.682H24.086c-9.405,0-17.029-7.624-17.029-17.029v0
								c0-9.405,7.624-17.029,17.029-17.029h35.679V289.682z"/>
							<path style="fill:#6B8DF2;" d="M314.566,255.625h35.679c9.405,0,17.029,7.624,17.029,17.029v0
								c0,9.405-7.624,17.029-17.029,17.029h-35.679V255.625z"/>
							<polygon style="fill:#B5C8FF;" points="313.69,307.148 59.765,307.148 50.996,236.413 322.459,236.413 							"/>
							<polygon style="fill:#9CB5FF;" points="282.459,236.413 273.69,307.147 313.69,307.147 322.459,236.413 							"/>
						</g>
						<path style="fill:#6B8DF2;" d="M242.631,504.506h-110.93c-17.793,0-32.768-13.267-34.839-30.865L74.186,307.148h225.96
							L277.47,473.641C275.399,491.24,260.424,504.506,242.631,504.506z"/>
						<path style="fill:#527BF2;" d="M260.146,307.147L237.47,473.641c-2.071,17.599-17.046,30.865-34.839,30.865h40
							c17.794,0,32.768-13.267,34.839-30.865l22.676-166.494H260.146z"/>
					</g>
				</g>
			</g>
			<g>
				<g>
					<path style="fill:#EBF7FF;" d="M383.383,388.089L383.383,388.089c-16.42,0-29.904-12.572-31.352-28.615
						c-0.141-1.559-0.114-3.128-0.024-4.69l10.48-183.512h41.793l10.48,183.512c0.089,1.562,0.116,3.131-0.024,4.69
						C413.287,375.517,399.803,388.089,383.383,388.089z"/>
					<g>
						<path style="fill:#FFCA21;" d="M408.364,242.801h-49.963l-6.395,111.983c-0.089,1.562-0.116,3.131,0.024,4.69
							c1.448,16.043,14.931,28.615,31.352,28.615h0c16.42,0,29.904-12.572,31.352-28.615c0.141-1.559,0.114-3.128,0.024-4.69
							L408.364,242.801z"/>
					</g>
					<path style="fill:#F2BB0C;" d="M414.759,354.784l-6.395-111.983h-30l6.395,111.983c0.089,1.562,0.116,3.131-0.024,4.69
						c-0.969,10.735-7.331,19.909-16.352,24.809c4.46,2.423,9.567,3.806,15,3.806h0c16.42,0,29.904-12.572,31.352-28.615
						C414.875,357.915,414.848,356.346,414.759,354.784z"/>
				</g>
				<g>
					<path style="fill:#EBF7FF;" d="M472.607,388.089L472.607,388.089c-16.42,0-29.904-12.572-31.352-28.615
						c-0.141-1.559-0.114-3.128-0.024-4.69l10.48-183.512h41.793l10.48,183.512c0.089,1.562,0.116,3.131-0.024,4.69
						C502.511,375.517,489.027,388.089,472.607,388.089z"/>
					<g>
						<path style="fill:#FFCA21;" d="M497.589,242.801h-49.963l-6.395,111.983c-0.089,1.562-0.116,3.131,0.024,4.69
							c1.448,16.043,14.931,28.615,31.352,28.615h0c16.42,0,29.904-12.572,31.352-28.615c0.141-1.559,0.114-3.128,0.024-4.69
							L497.589,242.801z"/>
					</g>
					<path style="fill:#F2BB0C;" d="M503.983,354.784l-6.395-111.983h-30l6.395,111.983c0.089,1.562,0.116,3.131-0.024,4.69
						c-0.969,10.735-7.331,19.909-16.352,24.809c4.46,2.423,9.567,3.806,15,3.806h0c16.42,0,29.904-12.572,31.352-28.615
						C504.1,357.915,504.073,356.346,503.983,354.784z"/>
				</g>
				<polygon style="fill:#EBF7FF;" points="352.693,504.289 383.365,479.791 414.28,504.289 414.244,504.506 352.485,504.388 				
					"/>
				<polygon style="fill:#EBF7FF;" points="441.917,504.289 472.589,479.791 503.504,504.289 503.468,504.506 441.71,504.388 				
					"/>
			</g>
		</g>
	</g>
	<g>
		<path d="M117.947,435.559c0.512,3.761,3.729,6.488,7.422,6.488c0.337,0,0.679-0.022,1.022-0.069
			c4.104-0.56,6.978-4.34,6.418-8.444L120.486,343.1c-0.559-4.104-4.341-6.979-8.444-6.419c-4.104,0.56-6.978,4.34-6.418,8.444
			L117.947,435.559z"/>
		<path d="M411.565,383.331c7.39-7.824,11.281-18.386,10.677-28.976l-10.48-183.511c-0.227-3.97-3.512-7.072-7.488-7.072h-41.792
			c-3.976,0-7.261,3.103-7.488,7.072l-4.414,77.296c-0.113-0.005-0.224-0.017-0.338-0.017H328.56l1.337-10.789
			c0.051-5.045-2.43-7.853-7.443-8.423H241.02c-5.402-42.247-19.644-60.453-33.431-78.057
			c-10.686-13.644-20.779-26.53-26.925-51.304c-3.968-15.995-11.185-46.199-14.093-59.228c19.688-11.897,8.712-42.714-13.745-40.176
			l-33.82,3.857c-23.006,2.621-25.628,35.414-4.123,42.281c0.118,5.5,0.241,13.913,0.329,22.873
			c0.092,9.421,15.096,9.735,14.999-0.146c-0.085-8.794-0.203-16.927-0.319-22.5c7.378-0.841,14.755-1.683,22.133-2.524
			c3.046,13.604,10.065,42.979,14.082,59.175c4.876,19.654,12.062,32.79,19.797,43.835l-29.23,31.701l-35.714-24.313
			c4.32-10.768,7.899-22.97,8.982-39.109c0.648-9.675-14.317-10.681-14.967-1.004c-1.422,21.205-7.653,34.6-14.249,48.781
			c-7.991,17.178-16.225,34.907-15.844,65.857H50.995c-5.013,0.57-7.494,3.378-7.443,8.423l1.338,10.789H24.086
			c-31.559,0-31.611,49.058,0,49.058h26.886l1.35,10.889c0.465,3.757,3.658,6.577,7.443,6.577h7.873l21.783,159.941
			c2.547,21.337,20.71,37.417,42.279,37.417h110.928c21.569,0,39.732-16.081,42.279-37.418l21.783-159.94h6.996
			c3.785,0,6.977-2.82,7.443-6.577l1.35-10.889h25.301l-3.265,57.174c-1.099,19.242,12.732,36.214,31.363,40.294v81.518
			l-27.357,21.85c-6.218,3.861-3.473,13.974,3.945,13.988h61.758c6.492,0,10.526-8.987,4.708-13.596l-28.055-22.232v-81.35
			C398.687,393.251,405.97,389.255,411.565,383.331z M116.152,21.429c1.127-1.419,2.745-2.314,4.553-2.521l33.82-3.856
			c8.459-0.977,10.073,12.405,1.552,13.376c-11.278,1.286-22.555,2.572-33.833,3.858C116.648,32.922,112.614,25.884,116.152,21.429z
			 M397.19,178.773l3.228,56.528h-34.081l3.228-56.528H397.19z M225.891,228.912h-45.313l35.086-38.053
			C220.088,200.7,223.678,212.765,225.891,228.912z M153.579,194.741c3.383,2.048,6.627,1.676,9.734-1.116l31.75-34.434
			c4.522,5.777,9.072,11.563,13.036,17.747l-45.887,49.767l-56.052-38.158c2.45-6.907,5.56-13.562,8.646-20.2L153.579,194.741z
			 M101.958,203.831l36.843,25.081H99.882C99.753,219.258,100.545,211.078,101.958,203.831z M24.086,282.182
			c-12.317,0-12.317-19.058,0-19.058H46.75l2.363,19.058H24.086z M59.482,243.912h254.485l-6.909,55.735H66.392L59.482,243.912z
			 M270.036,472.629c-0.006,0.045-0.012,0.09-0.018,0.136c-1.626,13.819-13.401,24.241-27.39,24.241H131.699
			c-13.989,0-25.764-10.422-27.39-24.242c-0.005-0.045-0.011-0.09-0.018-0.135L82.775,314.648h208.777L270.036,472.629z
			 M324.338,282.182l2.363-19.058h23.024l-1.088,19.058H324.338z M365.553,372.278c-4.27-4.697-6.423-10.758-6.063-17.066
			l5.991-104.91h35.794l5.991,104.91c0.757,13.25-10.445,25.298-23.747,25.378C376.628,380.288,370.087,377.264,365.553,372.278z
			 M373.92,496.929l9.519-6.893l9.519,6.929L373.92,496.929z"/>
		<path d="M511.422,360.149c0.449-4.976-0.003-10.116-0.402-14.652c-1.011-11.556-16.051-11.322-14.942,1.313
			c0.361,4.103,0.734,8.346,0.405,11.99c-1.116,12.374-11.309,21.717-23.739,21.788c-13.245-0.577-24.807-11.789-24.03-25.377
			l5.991-104.91h35.794l3.092,54.146c0.553,9.68,15.529,8.828,14.975-0.855l-7.58-132.746c-0.227-3.97-3.512-7.072-7.488-7.072
			h-41.792c-3.976,0-7.261,3.103-7.488,7.072l-10.479,183.511c-1.099,19.239,12.737,36.211,31.363,40.293v81.519l-27.357,21.85
			c-6.218,3.861-3.473,13.974,3.945,13.988h61.758c6.489,0,10.53-8.983,4.709-13.596l-28.055-22.232v-81.301
			C496.889,391.658,509.83,377.8,511.422,360.149z M486.414,178.773l3.228,56.528h-34.081l3.228-56.528H486.414z M463.144,496.929
			l9.458-7.555l9.579,7.591L463.144,496.929z"/>
	</g>
</g>
<g>
</g>
<g>
</g>
<g>
</g>
<g>
</g>
<g>
</g>
<g>
</g>
<g>
</g>
<g>
</g>
<g>
</g>
<g>
</g>
<g>
</g>
<g>
</g>
<g>
</g>
<g>
</g>
<g>
</g>
</svg>
