<?xml version="1.0" encoding="iso-8859-1"?>
<!-- Generator: Adobe Illustrator 25.0.0, SVG Export Plug-In . SVG Version: 6.00 Build 0)  -->
<svg version="1.1" id="Layer_1" xmlns="http://www.w3.org/2000/svg" xmlns:xlink="http://www.w3.org/1999/xlink" x="0px" y="0px"
	 viewBox="0 0 512.005 512.005" style="enable-background:new 0 0 512.005 512.005;" xml:space="preserve">
<g>
	<g>
		<g>
			<path style="fill:#41CCB4;" d="M489.505,283.622c-8.284,0-15-6.716-15-15c0-0.318-0.032-0.45-0.032-0.451
				c-0.33-0.635-2.365-2.374-3.712-3.524c-5.332-4.556-14.256-12.181-14.256-26.784s8.924-22.229,14.256-26.784
				c1.337-1.143,3.352-2.864,3.728-3.573c-0.005-0.005,0.016-0.141,0.016-0.401c0-0.318-0.032-0.449-0.032-0.45
				c-0.33-0.635-2.365-2.373-3.711-3.523c-5.333-4.555-14.257-12.18-14.257-26.782s8.924-22.228,14.257-26.782
				c1.336-1.143,3.351-2.863,3.728-3.573c-0.006-0.005,0.016-0.14,0.016-0.4c0-0.317-0.032-0.448-0.032-0.449
				c-0.33-0.635-2.364-2.373-3.711-3.522c-5.332-4.556-14.257-12.181-14.257-26.783s8.925-22.227,14.257-26.782
				c1.336-1.142,3.351-2.862,3.728-3.571c-0.006-0.006,0.016-0.141,0.016-0.4c0-8.284,6.716-15,15-15s15,6.716,15,15
				c0,14.603-8.925,22.227-14.257,26.782c-1.336,1.142-3.351,2.862-3.728,3.571c0.006,0.006-0.016,0.141-0.016,0.4
				c0,0.318,0.032,0.449,0.032,0.45c0.33,0.635,2.365,2.373,3.711,3.523c5.333,4.555,14.257,12.179,14.257,26.781
				s-8.924,22.228-14.257,26.782c-1.336,1.143-3.351,2.863-3.728,3.573c0.006,0.005-0.016,0.14-0.016,0.4
				c0,0.318,0.032,0.449,0.032,0.45c0.33,0.635,2.365,2.373,3.711,3.523c5.333,4.555,14.257,12.18,14.257,26.782
				s-8.924,22.228-14.256,26.783c-1.337,1.143-3.353,2.864-3.728,3.573c0.005,0.006-0.016,0.141-0.016,0.402
				c0,0.318,0.032,0.45,0.032,0.451c0.33,0.635,2.365,2.374,3.712,3.524c5.332,4.556,14.256,12.181,14.256,26.784
				C504.505,276.906,497.79,283.622,489.505,283.622z"/>
			<g>
				<path style="fill:#F2A7D0;" d="M245.005,504.503c-8.284,0-15-6.716-15-15c0-0.318-0.032-0.45-0.032-0.451
					c-0.33-0.635-2.365-2.374-3.712-3.524c-5.332-4.556-14.256-12.181-14.256-26.784c0-14.603,8.924-22.228,14.256-26.783
					c1.337-1.143,3.353-2.864,3.728-3.573c-0.005-0.006,0.016-0.141,0.016-0.402c0-0.318-0.032-0.449-0.032-0.45
					c-0.33-0.635-2.365-2.373-3.711-3.523c-5.333-4.555-14.257-12.179-14.257-26.781s8.924-22.227,14.256-26.782
					c1.337-1.143,3.352-2.864,3.728-3.573c-0.005-0.005,0.016-0.141,0.016-0.401c0-8.284,6.716-15,15-15s15,6.716,15,15
					c0,14.604-8.924,22.228-14.257,26.783c-1.336,1.143-3.351,2.863-3.727,3.573c0.005,0.005-0.016,0.14-0.016,0.4
					c0,0.317,0.032,0.448,0.032,0.449c0.33,0.635,2.364,2.373,3.711,3.522c5.332,4.556,14.257,12.181,14.257,26.783
					c0,14.604-8.924,22.229-14.256,26.784c-1.337,1.143-3.352,2.864-3.728,3.573c0.005,0.005-0.016,0.141-0.016,0.401
					c0,0.318,0.032,0.45,0.032,0.451c0.33,0.635,2.365,2.374,3.712,3.524c5.332,4.556,14.256,12.181,14.256,26.784
					C260.005,497.787,253.29,504.503,245.005,504.503z"/>
				<path style="fill:#B5C8FF;" d="M351.244,441.182c-8.284,0-15-6.716-15-15c0-0.318-0.032-0.45-0.032-0.451
					c-0.33-0.635-2.365-2.374-3.712-3.524c-5.332-4.556-14.256-12.181-14.256-26.784s8.924-22.229,14.256-26.784
					c1.337-1.143,3.352-2.864,3.728-3.573c-0.005-0.005,0.016-0.141,0.016-0.401c0-0.318-0.032-0.449-0.032-0.45
					c-0.33-0.635-2.365-2.373-3.711-3.523c-5.333-4.555-14.257-12.18-14.257-26.782s8.924-22.228,14.257-26.782
					c1.336-1.143,3.351-2.863,3.728-3.573c-0.006-0.005,0.016-0.14,0.016-0.4c0-0.317-0.032-0.448-0.032-0.449
					c-0.33-0.635-2.364-2.373-3.711-3.522c-5.332-4.556-14.257-12.181-14.257-26.783s8.925-22.227,14.257-26.782
					c1.336-1.142,3.351-2.862,3.728-3.571c-0.006-0.006,0.016-0.141,0.016-0.4c0-8.284,6.716-15,15-15s15,6.716,15,15
					c0,14.603-8.925,22.227-14.257,26.782c-1.336,1.142-3.351,2.862-3.728,3.571c0.006,0.006-0.016,0.141-0.016,0.4
					c0,0.318,0.032,0.449,0.032,0.45c0.33,0.635,2.365,2.373,3.711,3.523c5.333,4.555,14.257,12.179,14.257,26.781
					s-8.924,22.228-14.257,26.782c-1.336,1.143-3.351,2.863-3.728,3.573c0.006,0.005-0.016,0.14-0.016,0.4
					c0,0.318,0.032,0.449,0.032,0.45c0.33,0.635,2.365,2.373,3.711,3.523c5.333,4.555,14.257,12.18,14.257,26.782
					s-8.924,22.228-14.256,26.783c-1.337,1.143-3.353,2.864-3.728,3.573c0.005,0.006-0.016,0.141-0.016,0.402
					c0,0.318,0.032,0.45,0.032,0.451c0.33,0.635,2.365,2.374,3.712,3.524c5.332,4.556,14.256,12.181,14.256,26.784
					C366.244,434.467,359.528,441.182,351.244,441.182z"/>
			</g>
			<g>
				<path style="fill:#41CCB4;" d="M40.505,222.042c-8.284,0-15-6.716-15-15c0-0.318-0.032-0.45-0.032-0.451
					c-0.33-0.635-2.365-2.374-3.712-3.524c-5.332-4.556-14.256-12.181-14.256-26.784s8.924-22.229,14.256-26.784
					c1.337-1.143,3.353-2.864,3.728-3.573c-0.005-0.006,0.016-0.141,0.016-0.402c0-0.317-0.032-0.448-0.032-0.449
					c-0.33-0.635-2.364-2.373-3.711-3.522c-5.332-4.556-14.257-12.181-14.257-26.783S16.43,92.54,21.762,87.985
					c1.336-1.143,3.351-2.863,3.728-3.573c-0.006-0.005,0.016-0.14,0.016-0.4c0-0.317-0.032-0.448-0.032-0.449
					c-0.33-0.635-2.364-2.373-3.711-3.522C16.43,75.484,7.505,67.859,7.505,53.257S16.43,31.03,21.762,26.474
					c1.336-1.142,3.351-2.862,3.728-3.571c-0.006-0.006,0.016-0.141,0.016-0.4c0-8.284,6.716-15,15-15s15,6.716,15,15
					c0,14.603-8.925,22.227-14.257,26.782c-1.336,1.142-3.351,2.862-3.728,3.571c0.006,0.006-0.016,0.141-0.016,0.4
					c0,0.318,0.032,0.449,0.032,0.45c0.33,0.635,2.365,2.373,3.711,3.523c5.333,4.555,14.257,12.179,14.257,26.781
					s-8.924,22.228-14.257,26.782c-1.336,1.143-3.351,2.863-3.728,3.573c0.006,0.005-0.016,0.14-0.016,0.4
					c0,0.318,0.032,0.449,0.032,0.45c0.33,0.635,2.365,2.373,3.711,3.523c5.333,4.555,14.257,12.179,14.257,26.781
					c0,14.604-8.924,22.229-14.256,26.784c-1.337,1.143-3.353,2.864-3.728,3.573c0.005,0.006-0.016,0.141-0.016,0.402
					c0,0.318,0.032,0.45,0.032,0.451c0.33,0.635,2.365,2.374,3.712,3.524c5.332,4.556,14.256,12.181,14.256,26.784
					C55.505,215.326,48.79,222.042,40.505,222.042z"/>
				<path style="fill:#B5C8FF;" d="M143.836,283.621c-8.284,0-15-6.716-15-15c0-0.318-0.032-0.45-0.032-0.451
					c-0.33-0.635-2.365-2.374-3.712-3.524c-5.332-4.556-14.256-12.181-14.256-26.783c0-14.604,8.924-22.229,14.256-26.784
					c1.337-1.143,3.353-2.864,3.728-3.573c-0.005-0.006,0.016-0.141,0.016-0.402c0-0.317-0.032-0.448-0.032-0.449
					c-0.33-0.635-2.364-2.373-3.711-3.522c-5.332-4.556-14.257-12.181-14.257-26.783s8.924-22.228,14.257-26.782
					c1.336-1.143,3.351-2.863,3.728-3.573c-0.006-0.005,0.016-0.14,0.016-0.4c0-0.318-0.032-0.449-0.032-0.45
					c-0.33-0.635-2.365-2.373-3.711-3.522c-5.333-4.556-14.257-12.18-14.257-26.782s8.925-22.227,14.257-26.782
					c1.336-1.142,3.351-2.862,3.728-3.571c-0.006-0.006,0.016-0.141,0.016-0.4c0-8.284,6.716-15,15-15s15,6.716,15,15
					c0,14.603-8.925,22.227-14.257,26.782c-1.336,1.142-3.351,2.862-3.728,3.571c0.006,0.006-0.016,0.141-0.016,0.4
					c0,0.317,0.032,0.448,0.032,0.449c0.33,0.635,2.364,2.373,3.711,3.522c5.332,4.556,14.257,12.181,14.257,26.783
					s-8.924,22.228-14.257,26.782c-1.336,1.143-3.351,2.863-3.728,3.573c0.006,0.005-0.016,0.14-0.016,0.4
					c0,0.318,0.032,0.449,0.032,0.45c0.33,0.635,2.365,2.373,3.711,3.523c5.333,4.555,14.257,12.179,14.257,26.781
					c0,14.604-8.924,22.229-14.256,26.784c-1.337,1.143-3.353,2.864-3.728,3.573c0.005,0.006-0.016,0.141-0.016,0.402
					c0,0.318,0.032,0.449,0.032,0.45c0.33,0.635,2.365,2.374,3.711,3.524c5.332,4.556,14.256,12.181,14.256,26.784
					C158.836,276.905,152.12,283.621,143.836,283.621z"/>
				<path style="fill:#F2A7D0;" d="M245.005,160.597c-8.284,0-15-6.716-15-15c0-0.318-0.032-0.45-0.032-0.451
					c-0.33-0.635-2.365-2.374-3.712-3.524c-5.332-4.556-14.256-12.181-14.256-26.784c0-14.603,8.924-22.228,14.256-26.783
					c1.337-1.143,3.353-2.864,3.728-3.573c-0.005-0.006,0.016-0.141,0.016-0.402c0-0.318-0.032-0.449-0.032-0.45
					c-0.33-0.635-2.365-2.373-3.711-3.523c-5.333-4.555-14.257-12.179-14.257-26.781s8.924-22.227,14.256-26.782
					c1.337-1.143,3.352-2.864,3.728-3.573c-0.005-0.005,0.016-0.141,0.016-0.401c0-8.284,6.716-15,15-15s15,6.716,15,15
					c0,14.604-8.924,22.228-14.257,26.783c-1.336,1.143-3.351,2.863-3.727,3.573c0.005,0.005-0.016,0.14-0.016,0.4
					c0,0.317,0.032,0.448,0.032,0.449c0.33,0.635,2.364,2.373,3.711,3.522c5.332,4.556,14.257,12.181,14.257,26.783
					c0,14.604-8.924,22.229-14.256,26.784c-1.337,1.143-3.352,2.864-3.728,3.573c0.005,0.005-0.016,0.141-0.016,0.401
					c0,0.318,0.032,0.45,0.032,0.451c0.33,0.635,2.365,2.374,3.712,3.524c5.332,4.556,14.256,12.181,14.256,26.784
					C260.005,153.882,253.29,160.597,245.005,160.597z"/>
			</g>
			
				<rect x="220.428" y="237.154" transform="matrix(0.7071 0.7071 -0.7071 0.7071 251.1038 -94.2128)" style="fill:#FFE594;" width="37.697" height="37.697"/>
			
				<rect x="411.508" y="15.31" transform="matrix(0.7071 0.7071 -0.7071 0.7071 150.2024 -294.3033)" style="fill:#FFE594;" width="37.697" height="37.697"/>
			
				<rect x="15.313" y="290.287" transform="matrix(0.7071 0.7071 -0.7071 0.7071 228.5975 66.388)" style="fill:#FFE594;" width="37.697" height="37.697"/>
			
				<rect x="123.754" y="341.72" transform="matrix(0.7071 0.7071 -0.7071 0.7071 296.7281 4.7727)" style="fill:#FFE594;" width="37.697" height="37.697"/>
			
				<rect x="411.508" y="315.064" transform="matrix(0.7071 0.7071 -0.7071 0.7071 362.1606 -206.5073)" style="fill:#FFE594;" width="37.697" height="37.697"/>
			<polygon style="fill:#FFCA21;" points="357.095,78.922 371.621,110.043 405.493,115.72 380.383,139.152 385.451,173.12 
				355.407,156.481 324.667,171.797 331.208,138.081 307.142,113.579 341.229,109.381 			"/>
			<polygon style="fill:#FFCA21;" points="64.967,404.273 72.625,438.52 105.179,451.626 74.975,469.493 72.57,504.503 
				46.244,481.298 12.204,489.83 26.138,457.622 7.505,427.885 42.443,431.184 			"/>
			<polygon style="fill:#FFCA21;" points="434.542,404.991 434.445,440.083 405.482,459.898 438.827,470.834 448.722,504.503 
				469.427,476.169 504.505,477.163 483.957,448.716 495.742,415.661 462.337,426.413 			"/>
		</g>
		<g>
			<polygon style="fill:#F2BB0C;" points="380.383,139.152 405.493,115.72 371.621,110.043 357.095,78.922 357.095,157.416 
				385.451,173.12 			"/>
		</g>
		<g>
			<polygon style="fill:#F2BB0C;" points="72.625,438.52 64.967,404.273 46.244,481.298 72.57,504.503 74.975,469.493 
				105.179,451.626 			"/>
		</g>
		<g>
			<polygon style="fill:#F2BB0C;" points="483.957,448.716 495.742,415.661 462.337,426.413 434.542,404.991 469.427,476.169 
				504.505,477.163 			"/>
		</g>
	</g>
	<g>
		<path d="M512.005,145.592c0-16.169-8.803-25.382-14.885-30.754c6.078-5.37,14.885-14.585,14.885-30.755
			c0-12.406-10.093-22.5-22.5-22.5c-11.442,0-20.917,8.586-22.321,19.652c-0.488,0.428-0.988,0.855-1.295,1.118
			c-5.901,5.042-16.884,14.426-16.884,32.483c0,16.169,8.804,25.383,14.885,30.756c-6.079,5.369-14.885,14.582-14.885,30.755
			c0,16.171,8.805,25.385,14.886,30.756c-6.079,5.37-14.886,14.586-14.886,30.759c0,18.061,10.983,27.445,16.884,32.486
			c0.307,0.263,0.805,0.688,1.294,1.116c1.401,11.07,10.877,19.657,22.321,19.657c12.407,0,22.5-10.094,22.5-22.5
			c0-16.175-8.809-25.39-14.887-30.76c6.078-5.369,14.887-14.585,14.887-30.759c0-16.171-8.804-25.384-14.885-30.756
			C503.199,170.978,512.005,161.764,512.005,145.592z M479.83,118.641c1.125,2.251,3.848,4.419,5.548,5.872
			c4.907,4.191,11.628,9.932,11.628,21.078c0,11.147-6.721,16.888-11.648,21.097c-8.063,6.893-7.792,12.659,0.02,19.336
			c4.907,4.191,11.628,9.932,11.628,21.079c0,11.146-6.721,16.889-11.638,21.09c-8.064,6.893-7.813,12.663,0.01,19.347
			c4.907,4.192,11.628,9.935,11.628,21.082c0,4.136-3.364,7.5-7.5,7.5s-7.5-3.364-7.5-7.5c0-4.527-3.203-6.97-6.372-9.678
			c-4.907-4.192-11.628-9.935-11.628-21.082c0-11.146,6.721-16.89,11.635-21.087c8.067-6.897,7.817-12.662-0.007-19.349
			c-4.907-4.191-11.628-9.932-11.628-21.079s6.721-16.888,11.648-21.097c8.058-6.889,7.798-12.661-0.02-19.333
			c-4.907-4.193-11.628-9.936-11.628-21.081c0-11.145,6.72-16.887,11.631-21.082c3.086-2.635,6.369-5.234,6.369-9.672
			c0-4.136,3.364-7.5,7.5-7.5s7.5,3.364,7.5,7.5c0,11.145-6.72,16.887-11.631,21.082
			C481.441,108.524,477.037,113.056,479.83,118.641z"/>
		<path d="M267.505,366.472c0-12.406-10.093-22.5-22.5-22.5c-11.442,0-20.917,8.587-22.321,19.654
			c-0.488,0.429-0.987,0.855-1.296,1.119c-5.9,5.041-16.883,14.425-16.883,32.483c0,16.171,8.805,25.384,14.886,30.756
			c-6.078,5.369-14.886,14.585-14.886,30.758c0,18.061,10.983,27.445,16.884,32.486c0.307,0.263,0.805,0.688,1.294,1.116
			c1.401,11.07,10.877,19.657,22.321,19.657c12.407,0,22.5-10.094,22.5-22.5c0-16.174-8.809-25.39-14.887-30.76
			c6.078-5.37,14.887-14.586,14.887-30.759c0-16.169-8.804-25.384-14.885-30.756C258.699,391.858,267.505,382.643,267.505,366.472z
			 M235.33,401.033c1.126,2.252,3.844,4.416,5.547,5.87c4.907,4.193,11.628,9.936,11.628,21.081c0,11.146-6.721,16.89-11.635,21.087
			c-8.065,6.896-7.819,12.664,0.007,19.35c4.907,4.192,11.628,9.935,11.628,21.082c0,4.136-3.364,7.5-7.5,7.5s-7.5-3.364-7.5-7.5
			c0-4.527-3.203-6.97-6.372-9.678c-4.907-4.192-11.628-9.935-11.628-21.082c0-11.146,6.721-16.889,11.638-21.09
			c8.065-6.894,7.811-12.661-0.01-19.346c-4.907-4.191-11.628-9.932-11.628-21.078c0-11.145,6.72-16.887,11.635-21.086
			c3.084-2.635,6.365-5.237,6.365-9.671c0-4.136,3.364-7.5,7.5-7.5s7.5,3.364,7.5,7.5c0,11.146-6.721,16.889-11.648,21.098
			C236.928,390.929,232.54,395.453,235.33,401.033z"/>
		<path d="M373.744,241.643c0-12.406-10.093-22.5-22.5-22.5c-11.442,0-20.917,8.586-22.321,19.652
			c-0.488,0.428-0.988,0.855-1.295,1.118c-5.901,5.042-16.884,14.426-16.884,32.483c0,16.169,8.804,25.383,14.885,30.756
			c-6.079,5.369-14.885,14.582-14.885,30.755c0,16.171,8.805,25.385,14.886,30.756c-6.079,5.37-14.886,14.586-14.886,30.759
			c0,18.061,10.983,27.445,16.884,32.486c0.307,0.263,0.805,0.688,1.294,1.116c1.401,11.07,10.877,19.657,22.321,19.657
			c12.407,0,22.5-10.094,22.5-22.5c0-16.176-8.811-25.392-14.889-30.762c1.948-1.729,4.285-3.962,6.478-6.704
			c6.056-7.574-5.657-16.941-11.715-9.369c-2.125,2.657-4.552,4.731-6.512,6.406c-8.064,6.893-7.813,12.663,0.01,19.347
			c4.907,4.192,11.628,9.935,11.628,21.082c0,4.136-3.364,7.5-7.5,7.5s-7.5-3.364-7.5-7.5c0-4.527-3.203-6.97-6.372-9.678
			c-4.907-4.192-11.628-9.935-11.628-21.082c0-11.146,6.721-16.89,11.635-21.087c8.067-6.897,7.817-12.662-0.007-19.349
			c-4.907-4.191-11.628-9.932-11.628-21.079s6.721-16.888,11.648-21.097c8.058-6.889,7.798-12.661-0.02-19.333
			c-4.907-4.193-11.628-9.936-11.628-21.081c0-11.145,6.72-16.887,11.631-21.082c3.086-2.635,6.369-5.234,6.369-9.672
			c0-4.136,3.364-7.5,7.5-7.5s7.5,3.364,7.5,7.5c0,11.145-6.72,16.887-11.631,21.082c-8.073,6.894-7.82,12.663,0.003,19.349
			c4.907,4.191,11.628,9.932,11.628,21.078c0,11.147-6.721,16.888-11.648,21.097c-8.063,6.893-7.792,12.659,0.021,19.336
			c2.393,2.044,5.371,4.587,7.7,8.003c5.463,8.011,17.856-0.439,12.393-8.451c-2.694-3.951-5.808-6.975-8.352-9.228
			c6.079-5.369,14.887-14.583,14.887-30.757c0-16.169-8.803-25.382-14.885-30.754C364.937,267.028,373.744,257.813,373.744,241.643z
			"/>
		<path d="M0.005,176.282c0,18.061,10.983,27.445,16.884,32.486c0.307,0.263,0.805,0.688,1.294,1.116
			c1.401,11.07,10.877,19.657,22.321,19.657c12.407,0,22.5-10.094,22.5-22.5c0-16.175-8.809-25.39-14.887-30.76
			c6.078-5.369,14.887-14.585,14.887-30.76c0-16.17-8.804-25.383-14.885-30.755c6.079-5.369,14.885-14.583,14.885-30.756
			c0-16.169-8.803-25.382-14.885-30.754c6.078-5.37,14.885-14.585,14.885-30.755c0-12.406-10.093-22.5-22.5-22.5
			c-11.442,0-20.917,8.586-22.321,19.652c-0.488,0.428-0.988,0.855-1.295,1.118C10.988,25.815,0.005,35.199,0.005,53.257
			c0,16.169,8.804,25.383,14.885,30.756C8.811,89.382,0.005,98.594,0.005,114.767c0,16.169,8.805,25.384,14.886,30.757
			C8.813,150.893,0.005,160.108,0.005,176.282z M32.181,141.719c-1.126-2.252-3.844-4.416-5.547-5.87
			c-4.907-4.193-11.628-9.936-11.628-21.081c0-11.147,6.721-16.888,11.648-21.097c8.058-6.889,7.798-12.661-0.02-19.333
			c-4.907-4.193-11.628-9.936-11.628-21.081c0-11.145,6.72-16.887,11.631-21.082c3.086-2.635,6.369-5.234,6.369-9.672
			c0-4.136,3.364-7.5,7.5-7.5s7.5,3.364,7.5,7.5c0,11.145-6.72,16.887-11.631,21.082c-8.073,6.894-7.82,12.663,0.003,19.349
			c4.907,4.191,11.628,9.932,11.628,21.078c0,11.147-6.721,16.888-11.648,21.097c-8.063,6.893-7.792,12.659,0.02,19.336
			c4.907,4.191,11.628,9.932,11.628,21.078c0,11.147-6.721,16.89-11.638,21.091c-8.064,6.893-7.813,12.663,0.01,19.347
			c4.907,4.192,11.628,9.935,11.628,21.082c0,4.136-3.364,7.5-7.5,7.5s-7.5-3.364-7.5-7.5c0-4.527-3.203-6.97-6.372-9.678
			c-4.907-4.192-11.628-9.935-11.628-21.082s6.721-16.89,11.638-21.091C30.576,151.829,34.974,147.305,32.181,141.719z"/>
		<path d="M103.336,237.862c0,18.06,10.983,27.444,16.884,32.485c0.307,0.263,0.805,0.688,1.294,1.116
			c1.401,11.07,10.877,19.657,22.321,19.657c12.407,0,22.5-10.094,22.5-22.5c0-16.173-8.808-25.389-14.887-30.759
			c6.078-5.37,14.887-14.585,14.887-30.76c0-16.17-8.804-25.383-14.885-30.755c6.079-5.369,14.885-14.583,14.885-30.756
			c0-16.168-8.803-25.382-14.884-30.755c6.078-5.37,14.884-14.585,14.884-30.754c0-12.406-10.093-22.5-22.5-22.5
			c-11.442,0-20.917,8.586-22.321,19.652c-0.487,0.428-0.987,0.854-1.294,1.117c-2.007,1.715-4.756,4.062-7.445,7.185
			c-6.328,7.348,5.038,17.135,11.366,9.789c1.939-2.252,4.092-4.091,5.824-5.571c3.086-2.635,6.369-5.234,6.369-9.672
			c0-4.136,3.364-7.5,7.5-7.5s7.5,3.364,7.5,7.5c0,11.145-6.72,16.887-11.631,21.082c-8.068,6.89-7.825,12.665,0.002,19.346
			c4.907,4.193,11.628,9.936,11.628,21.081c0,11.147-6.721,16.888-11.648,21.097c-8.063,6.893-7.792,12.659,0.02,19.336
			c4.907,4.191,11.628,9.932,11.628,21.078c0,11.147-6.721,16.89-11.638,21.091c-8.062,6.892-7.814,12.663,0.01,19.346
			c4.908,4.192,11.628,9.936,11.628,21.082c0,4.136-3.364,7.5-7.5,7.5s-7.5-3.364-7.5-7.5c0-4.527-3.203-6.97-6.372-9.678
			c-4.907-4.192-11.628-9.935-11.628-21.081c0-11.147,6.721-16.89,11.638-21.091c8.06-6.89,7.817-12.663-0.01-19.343
			c-4.907-4.193-11.628-9.936-11.628-21.081c0-11.147,6.721-16.888,11.648-21.097c8.06-6.891,7.796-12.661-0.02-19.335
			c-2.621-2.239-5.884-5.025-8.299-8.943c-5.089-8.255-17.858-0.383-12.769,7.871c2.921,4.738,6.461,8.211,9.326,10.748
			c-6.079,5.368-14.886,14.582-14.886,30.756c0,16.169,8.805,25.384,14.886,30.757C112.143,212.473,103.336,221.688,103.336,237.862
			z"/>
		<path d="M204.505,114.838c0,18.061,10.983,27.445,16.884,32.486c0.307,0.263,0.805,0.688,1.294,1.116
			c1.401,11.07,10.877,19.657,22.321,19.657c12.407,0,22.5-10.094,22.5-22.5c0-16.174-8.809-25.39-14.887-30.76
			c6.078-5.37,14.887-14.586,14.887-30.759c0-16.169-8.804-25.384-14.885-30.756c6.079-5.37,14.885-14.585,14.885-30.756
			c0-12.406-10.093-22.5-22.5-22.5c-11.442,0-20.917,8.587-22.321,19.654c-0.488,0.429-0.987,0.855-1.296,1.119
			c-5.9,5.041-16.883,14.425-16.883,32.483c0,16.171,8.805,25.384,14.886,30.756C213.313,89.449,204.505,98.665,204.505,114.838z
			 M236.681,80.274c-1.125-2.251-3.848-4.419-5.548-5.872c-4.907-4.191-11.628-9.932-11.628-21.078
			c0-11.145,6.72-16.887,11.635-21.085c3.083-2.636,6.365-5.238,6.365-9.672c0-4.136,3.364-7.5,7.5-7.5s7.5,3.364,7.5,7.5
			c0,11.146-6.721,16.889-11.648,21.098c-8.056,6.887-7.799,12.66,0.02,19.333c4.907,4.193,11.628,9.936,11.628,21.081
			c0,11.146-6.721,16.89-11.635,21.088c-8.067,6.894-7.818,12.663,0.007,19.349c4.907,4.192,11.628,9.935,11.628,21.082
			c0,4.136-3.364,7.5-7.5,7.5s-7.5-3.364-7.5-7.5c0-4.527-3.203-6.97-6.372-9.678c-4.907-4.192-11.628-9.935-11.628-21.082
			c0-11.146,6.721-16.889,11.638-21.09C235.077,90.386,239.474,85.861,236.681,80.274z"/>
		<path d="M244.58,224.043c-3.535-2.928-7.071-2.928-10.606,0l-26.656,26.656c-2.929,2.93-2.929,7.678,0,10.607l26.656,26.656
			c3.535,2.928,7.071,2.928,10.606,0l26.656-26.656c2.929-2.93,2.929-7.678,0-10.607L244.58,224.043z M239.277,272.052
			l-16.049-16.05l16.049-16.05l16.049,16.05L239.277,272.052z"/>
		<path d="M425.053,66.118c3.535,2.928,7.071,2.928,10.606,0l26.656-26.655c2.929-3.536,2.929-7.072,0-10.607L435.66,2.199
			c-3.535-2.928-7.071-2.928-10.606,0l-26.656,26.656c-2.929,3.536-2.929,7.072,0,10.607L425.053,66.118z M430.356,18.109
			l16.049,16.05l-16.049,16.049l-16.049-16.049L430.356,18.109z"/>
		<path d="M28.858,341.095c3.535,2.928,7.071,2.928,10.606,0l26.656-26.656c2.929-2.93,2.929-7.678,0-10.607l-26.656-26.656
			c-3.535-2.928-7.071-2.928-10.606,0L2.202,303.832c-2.929,2.93-2.929,7.678,0,10.607L28.858,341.095z M34.161,293.086l16.05,16.05
			l-16.05,16.05l-16.049-16.05L34.161,293.086z"/>
		<path d="M147.906,328.609c-3.535-2.928-7.071-2.928-10.606,0l-26.656,26.656c-2.929,3.536-2.929,7.072,0,10.607l26.656,26.655
			c3.535,2.928,7.071,2.928,10.606,0l26.656-26.655c2.929-3.536,2.929-7.072,0-10.607L147.906,328.609z M142.603,376.618
			l-16.049-16.049l16.049-16.05l16.049,16.05L142.603,376.618z"/>
		<path d="M425.053,365.873c3.535,2.928,7.071,2.928,10.606,0l26.656-26.656c2.929-2.93,2.929-7.678,0-10.607l-26.656-26.656
			c-3.535-2.928-7.071-2.928-10.606,0l-26.656,26.656c-2.929,2.93-2.929,7.678,0,10.607L425.053,365.873z M430.356,317.863
			l16.05,16.05l-16.05,16.05l-16.049-16.05L430.356,317.863z"/>
		<path d="M388.383,141.945l22.227-20.741c4.462-4.163,2.141-11.872-3.877-12.88l-29.983-5.026L363.892,75.75
			c-2.579-5.525-10.629-5.704-13.448-0.293l-14.044,26.963l-30.173,3.716c-6.057,0.745-8.71,8.346-4.434,12.699l21.303,21.689
			l-5.79,29.844c-1.063,5.48,4.853,11.056,10.708,8.142l27.21-13.557l26.595,14.729c5.318,2.948,11.953-1.63,11.052-7.667
			L388.383,141.945z M375.267,133.669c-1.805,1.685-2.666,4.148-2.301,6.59l2.826,18.938l-16.75-9.276
			c-1.129-0.626-2.38-0.939-3.634-0.939c-1.145,0-2.29,0.262-3.345,0.787l-17.138,8.539l3.647-18.797
			c0.47-2.424-0.282-4.923-2.012-6.684l-13.417-13.661l19.004-2.341c2.45-0.302,4.595-1.789,5.735-3.979l8.846-16.982l8.098,17.351
			c1.044,2.237,3.122,3.816,5.557,4.225l18.884,3.166L375.267,133.669z"/>
		<path d="M107.979,444.669l-28.896-11.633l-6.798-30.399c-1.332-5.956-9.153-7.855-13.071-3.177l-19.993,23.886L8.21,420.418
			c-5.559-0.528-10.53,5.912-7.061,11.449l16.539,26.396l-12.368,28.59c-2.6,6.009,3.294,11.603,8.707,10.253l30.215-7.573
			l23.368,20.597c4.668,4.116,12.026,0.925,12.441-5.112l2.135-31.076l26.81-15.859
			C114.249,454.975,113.641,446.946,107.979,444.669z M71.156,463.038c-2.125,1.257-3.495,3.479-3.664,5.941l-1.363,19.849
			l-14.925-13.155c-1.386-1.222-3.154-1.874-4.96-1.874c-0.607,0-1.22,0.074-1.823,0.225l-19.299,4.837l7.899-18.261
			c0.98-2.266,0.783-4.868-0.528-6.96L21.93,436.78l19.808,1.87c2.449,0.231,4.872-0.76,6.457-2.653l12.77-15.257l4.342,19.417
			c0.539,2.409,2.229,4.398,4.519,5.32l18.457,7.431L71.156,463.038z"/>
		<path d="M492.346,447.52l10.461-29.341c2.05-5.749-3.553-11.526-9.362-9.658l-29.651,9.544l-24.672-19.015
			c-5.18-3.995-12.063,0.34-12.078,5.92l-0.086,31.148l-25.709,17.588c-5.036,3.447-3.9,11.414,1.897,13.317l29.599,9.707
			l8.783,29.886c1.661,5.651,9.436,7.532,13.251,2.311l18.379-25.149l31.137,0.882c5.582,0.163,10.123-6.586,6.292-11.889
			L492.346,447.52z M469.639,468.673c-2.483-0.06-4.812,1.08-6.268,3.072l-11.739,16.063l-5.61-19.089
			c-0.696-2.369-2.513-4.243-4.858-5.013l-18.905-6.2l16.421-11.233c2.037-1.395,3.258-3.701,3.265-6.17L442,420.208l15.759,12.146
			c1.955,1.507,4.527,1.956,6.876,1.199l18.939-6.097l-6.682,18.741c-0.829,2.325-0.461,4.909,0.985,6.91l11.65,16.129
			L469.639,468.673z"/>
	</g>
</g>
<g>
</g>
<g>
</g>
<g>
</g>
<g>
</g>
<g>
</g>
<g>
</g>
<g>
</g>
<g>
</g>
<g>
</g>
<g>
</g>
<g>
</g>
<g>
</g>
<g>
</g>
<g>
</g>
<g>
</g>
</svg>
