<?xml version="1.0" encoding="iso-8859-1"?>
<!-- Generator: Adobe Illustrator 25.0.0, SVG Export Plug-In . SVG Version: 6.00 Build 0)  -->
<svg version="1.1" id="Layer_1" xmlns="http://www.w3.org/2000/svg" xmlns:xlink="http://www.w3.org/1999/xlink" x="0px" y="0px"
	 viewBox="0 0 512 512" style="enable-background:new 0 0 512 512;" xml:space="preserve">
<g>
	<g>
		<g>
			<path style="fill:#EB67A5;" d="M99.5,148v340.95c0,8.588-6.962,15.55-15.55,15.55h0c-8.588,0-15.55-6.962-15.55-15.55V148H99.5z"
				/>
			<g>
				<g>
					<path style="fill:#EB67A5;" d="M256,220.319l84.617-164.415c-35.592,0-66.845,15.858-84.617,39.753
						c-17.771-23.895-49.025-39.753-84.617-39.753L256,220.319z"/>
					<path style="fill:#41CCB4;" d="M49.46,120.454c0,0,0,52.914,0,75.657c0,52.83,50.13,95.657,111.969,95.657
						c39.779,0,74.709-17.724,94.571-44.43c19.862,26.706,54.792,44.43,94.571,44.43c61.839,0,111.969-42.827,111.969-95.657
						c0-27.913,0-75.657,0-75.657s-82.803-10-111.969-10c-39.779,0-74.709,17.724-94.571,44.43
						c-19.862-26.706-54.792-44.43-94.571-44.43C126.211,110.454,49.46,120.454,49.46,120.454z M292.651,207.684
						c0,0,19.46-28.743,46.44-31.153c26.98-2.41,51.264,22.427,51.264,22.427s-19.46,28.743-46.44,31.153
						C316.934,232.521,292.651,207.684,292.651,207.684z M121.645,198.958c0,0,24.283-24.837,51.264-22.427
						c26.98,2.41,46.44,31.153,46.44,31.153s-24.283,24.837-51.264,22.427C141.105,227.701,121.645,198.958,121.645,198.958z"/>
					<g>
						<path style="fill:#0FBA9D;" d="M422.54,120.454c0,0,0,47.744,0,75.657c0,46.987-39.656,86.06-91.935,94.128
							c6.48,0.997,13.149,1.529,19.966,1.529c61.839,0,111.969-42.827,111.969-95.657c0-27.913,0-75.657,0-75.657
							S444.632,120.454,422.54,120.454z"/>
					</g>
					<g>
						<g>
							<polygon style="fill:#FFCA21;" points="7.5,140.768 42.844,156.649 49.694,194.538 75.84,166.097 114.278,171.342 
								95.094,137.883 111.999,103.236 73.996,110.998 46.007,84.341 41.704,122.596 							"/>
							<polygon style="fill:#FFE594;" points="144.49,69.105 123.813,90.45 94.368,85.651 108.44,111.757 94.741,138.056 
								124.115,132.846 145.094,153.899 149.176,124.573 175.84,111.284 148.99,98.371 							"/>
						</g>
						<g>
							<polygon style="fill:#FFCA21;" points="504.5,140.768 469.156,156.649 462.306,194.538 436.16,166.097 397.722,171.342 
								416.906,137.883 400.001,103.236 438.004,110.998 465.993,84.341 470.296,122.596 							"/>
							<polygon style="fill:#FFE594;" points="367.51,69.105 388.187,90.45 417.632,85.651 403.56,111.757 417.259,138.056 
								387.885,132.846 366.906,153.899 362.824,124.573 336.159,111.284 363.01,98.371 							"/>
						</g>
					</g>
				</g>
				<path style="fill:#FFCA21;" d="M224.095,39.405c0,17.621,31.905,115.441,31.905,115.441s31.905-97.82,31.905-115.441
					S273.621,7.5,256,7.5S224.095,21.785,224.095,39.405z"/>
			</g>
		</g>
		<g>
			<polygon style="fill:#F2BB0C;" points="470.296,122.596 465.993,84.341 436.16,166.097 462.306,194.538 469.156,156.649 
				504.5,140.768 			"/>
		</g>
		<g>
			<polygon style="fill:#F2BB0C;" points="95.094,137.883 111.999,103.236 73.996,110.998 46.007,84.341 75.84,166.097 
				114.278,171.342 			"/>
		</g>
	</g>
	<g>
		<path d="M173.576,169.061c-30.18-2.677-56.201,23.536-57.294,24.654c-2.491,2.548-2.846,6.497-0.848,9.448
			c0.876,1.294,21.803,31.723,51.984,34.419c20.923,1.859,42.933-9.964,57.293-24.655c2.491-2.548,2.846-6.497,0.848-9.448
			C224.683,202.185,203.756,171.756,173.576,169.061z M168.753,222.641c-16.559-1.479-30.361-15.12-36.876-22.766
			c7.776-6.369,23.799-17.357,40.365-15.873c16.561,1.479,30.365,15.123,36.875,22.764
			C201.341,213.136,185.314,224.124,168.753,222.641z"/>
		<path d="M338.424,169.061c-30.18,2.695-51.106,33.124-51.983,34.418c-1.997,2.951-1.643,6.9,0.849,9.448
			c14.333,14.67,36.389,26.514,57.293,24.655c30.18-2.696,51.106-33.125,51.983-34.419c1.997-2.951,1.643-6.9-0.849-9.448
			C394.624,192.597,368.59,166.384,338.424,169.061z M343.248,222.641c-16.568,1.479-32.603-9.515-40.375-15.883
			c1.986-2.333,4.663-5.232,7.925-8.197c6.665-6.057,17.099-13.5,28.96-14.559c16.579-1.479,32.593,9.508,40.365,15.873
			C373.608,207.521,359.806,221.162,343.248,222.641z"/>
		<path d="M508.018,134.146l-30.712-16.316l-3.86-34.326c-0.623-5.536-7.906-9.087-12.626-4.593l-25.153,23.956l-16.93-3.458
			l5.497-10.198c3.114-5.775-2.297-11.851-7.808-10.961l-25.578,4.168l-17.951-18.53c-4.234-4.369-11.875-1.935-12.8,4.079
			l-3.898,25.359l-22.044,10.602c-3.608,0.428-7.174,0.989-10.687,1.691l23.819-46.282c1.867-6.139-0.356-9.783-6.669-10.932
			c-17.032,0-33.482,3.394-48.39,9.894c1.961-8.417,3.178-15.146,3.178-18.892C295.405,17.677,277.728,0,256,0
			c-21.728,0-39.405,17.677-39.405,39.405c0,3.746,1.217,10.477,3.179,18.895c-14.905-6.5-31.348-9.897-48.391-9.897
			c-6.314,1.148-8.537,4.792-6.668,10.932l23.819,46.282c-3.513-0.702-7.08-1.263-10.688-1.691l-22.043-10.601l-3.899-25.359
			c-0.925-6.013-8.566-8.451-12.8-4.079l-17.951,18.53l-25.579-4.168c-5.513-0.897-10.917,5.194-7.808,10.961l5.497,10.198
			l-16.93,3.458L51.179,78.91c-4.72-4.498-12.003-0.941-12.625,4.593l-3.86,34.326L3.981,134.146
			c-5.408,2.872-5.141,10.956,0.445,13.464l31.74,14.262c2.002,11.074,5.793,34.239,5.793,34.239
			c0,20.493,6.958,39.609,18.94,55.682v171.82c0,4.143,3.358,7.5,7.5,7.5s7.5-3.357,7.5-7.5V268.054
			c4.943,4.38,10.329,8.386,16.1,11.957V488.95c0,4.438-3.611,8.05-8.05,8.05c-4.439,0-8.05-3.611-8.05-8.05V463
			c0-4.143-3.358-7.5-7.5-7.5s-7.5,3.357-7.5,7.5v25.95c0,12.71,10.34,23.05,23.05,23.05C96.66,512,107,501.66,107,488.95V287.926
			c16.332,7.248,34.837,11.342,54.429,11.342c37.381,0,72.019-14.829,94.571-40.079c22.554,25.25,57.191,40.079,94.571,40.079
			c22.522,0,44.46-5.434,63.439-15.713c8.527-4.618,1.381-17.814-7.143-13.189c-16.794,9.095-36.261,13.902-56.297,13.902
			c-36.166,0-69.271-15.479-88.553-41.405c-1.416-1.903-3.647-3.024-6.019-3.024c-2.372,0-4.603,1.121-6.018,3.024
			c-19.282,25.927-52.386,41.405-88.553,41.405c-56.978,0-103.441-38.693-104.445-86.576l21.726-23.633l34.555,4.715
			c5.537,0.759,10.776-5.482,7.521-11.161l-13.821-24.106l14.604-2.591l18.213,18.277c4.424,4.441,11.914,1.68,12.741-4.26
			l3.538-25.41l21.183-10.557c30.024,3.851,56.453,18.496,72.739,40.393c4.012,4.033,8.024,4.033,12.036,0
			c16.293-21.905,42.711-36.544,72.737-40.394l21.186,10.558l3.537,25.41c0.827,5.939,8.318,8.701,12.741,4.26l18.214-18.277
			l14.604,2.591l-13.822,24.106c-3.25,5.671,1.981,11.926,7.521,11.161l34.556-4.715l21.714,23.621
			c-0.361,17.429-6.714,34.167-18.464,48.496c-6.057,7.388,5.311,17.18,11.6,9.512c14.327-17.473,21.899-38.074,21.899-59.576
			c0,0,3.796-23.19,5.794-34.239l31.74-14.262C513.159,145.101,513.427,137.017,508.018,134.146z M76.854,158.666
			c-2.432-0.335-4.874,0.547-6.536,2.354l-15.93,17.329l-4.165-23.034c-0.44-2.434-2.051-4.494-4.307-5.507l-21.372-9.604
			l20.677-10.985c2.186-1.161,3.658-3.325,3.935-5.785l2.614-23.246l17.052,16.24c1.777,1.693,4.267,2.408,6.673,1.918l23.084-4.715
			l-9.539,19.549c-2.599,3.839-2.362,7.329,0.713,10.471l10.434,18.198L76.854,158.666z M145.831,117.86
			c-2.214,1.104-3.742,3.229-4.083,5.679l-2,14.369l-10.32-10.356c-1.732-1.739-4.206-2.519-6.623-2.091l-14.566,2.584l10.5-21.52
			c1.253-2.567,0.938-5.624-0.812-7.883c-0.617-0.797-1.38-1.435-2.225-1.916l6.904,1.125c2.423,0.396,4.885-0.421,6.593-2.184
			l10.171-10.5l2.205,14.343c0.376,2.445,1.933,4.547,4.163,5.619l13.046,6.274L145.831,117.86z M208.255,111.16l-24.208-47.039
			c14.644,1.676,28.485,6.265,40.681,13.53c4.516,16.544,10.158,35.217,14.884,50.411
			C230.237,121.049,219.662,115.347,208.255,111.16z M256,130.206c-11.404-36.361-24.405-80.989-24.405-90.801
			C231.595,25.948,242.543,15,256,15s24.405,10.948,24.405,24.405C280.405,49.217,267.403,93.845,256,130.206z M272.389,128.057
			c4.726-15.191,10.365-33.858,14.881-50.398c12.196-7.265,26.042-11.86,40.683-13.538l-24.208,47.037
			C292.338,115.344,281.764,121.043,272.389,128.057z M389.194,125.461c-2.419-0.428-4.891,0.352-6.622,2.091l-10.319,10.356
			l-2-14.369c-0.342-2.45-1.869-4.575-4.083-5.679l-12.955-6.456l13.046-6.274c2.229-1.072,3.787-3.174,4.163-5.619l2.205-14.343
			l10.171,10.5c1.707,1.762,4.169,2.577,6.593,2.184l6.907-1.125c-0.846,0.48-1.61,1.119-2.228,1.917
			c-1.75,2.259-2.064,5.315-0.812,7.883l10.5,21.52L389.194,125.461z M466.082,149.809c-2.255,1.013-3.866,3.073-4.306,5.507
			l-4.165,23.034l-15.93-17.329c-1.431-1.556-3.438-2.424-5.521-2.424c-0.337,0-0.677,0.022-1.015,0.069l-23.337,3.184
			l10.434-18.198c3.075-3.142,3.313-6.632,0.714-10.471l-9.539-19.549l23.085,4.715c2.406,0.489,4.897-0.226,6.674-1.918
			l17.052-16.24l2.614,23.246c0.276,2.46,1.749,4.624,3.935,5.785l20.677,10.985L466.082,149.809z"/>
	</g>
</g>
<g>
</g>
<g>
</g>
<g>
</g>
<g>
</g>
<g>
</g>
<g>
</g>
<g>
</g>
<g>
</g>
<g>
</g>
<g>
</g>
<g>
</g>
<g>
</g>
<g>
</g>
<g>
</g>
<g>
</g>
</svg>
