<?xml version="1.0" encoding="iso-8859-1"?>
<!-- Generator: Adobe Illustrator 25.0.0, SVG Export Plug-In . SVG Version: 6.00 Build 0)  -->
<svg version="1.1" id="Layer_1" xmlns="http://www.w3.org/2000/svg" xmlns:xlink="http://www.w3.org/1999/xlink" x="0px" y="0px"
	 viewBox="0 0 512 512" style="enable-background:new 0 0 512 512;" xml:space="preserve">
<g>
	<g>
		<g>
			<path style="fill:#FFCA21;" d="M504.5,297.505h-23.333c-10.759-46.22-52.471-80.675-102.287-80.675
				c-45.428,0-84.114,28.654-98.736,68.752c-7.611-3.62-15.875-5.441-24.143-5.441c-8.268,0-16.532,1.822-24.143,5.441
				c-14.623-40.098-53.308-68.752-98.736-68.752c-49.816,0-91.528,34.455-102.287,80.675H7.5v33.468h21.111
				c5.02,52.933,49.89,94.354,104.509,94.354c56.488,0,102.548-44.304,104.883-99.827c0,0,8.139-6.587,17.997-6.587
				c10.316,0,17.997,6.587,17.997,6.587c2.334,55.523,48.394,99.827,104.883,99.827c54.619,0,99.49-41.421,104.509-94.354H504.5
				V297.505z"/>
			<g>
				<ellipse style="fill:#EBF7FF;" cx="132.782" cy="321.078" rx="74.448" ry="73.798"/>
				<path style="fill:#D9EDFA;" d="M132.781,247.28c-6.929,0-13.631,0.963-20,2.727c31.365,8.685,54.448,37.247,54.448,71.071
					s-23.083,62.386-54.448,71.072c6.369,1.764,13.071,2.727,20,2.727c41.051,0,74.449-33.106,74.449-73.799
					S173.833,247.28,132.781,247.28z"/>
				<ellipse style="fill:#EBF7FF;" cx="379.218" cy="321.078" rx="74.448" ry="73.798"/>
				<path style="fill:#D9EDFA;" d="M379.219,247.28c-6.929,0-13.631,0.963-20,2.727c31.365,8.685,54.448,37.247,54.448,71.071
					s-23.083,62.386-54.448,71.072c6.369,1.764,13.071,2.727,20,2.727c41.05,0,74.448-33.106,74.448-73.799
					S420.269,247.28,379.219,247.28z"/>
			</g>
			<g>
				<g>
					<g>
						<g>
							<path style="fill:#B5C8FF;" d="M368.105,196.839l91.13,27.346l41.127-76.254c7.772-14.411,0.557-32.841-15.287-37.595
								l-75.362-22.614c-15.833-4.751-32.08,6.631-33.595,22.927L368.105,196.839z"/>
							<path style="fill:#9CB5FF;" d="M485.074,110.335l-35.1-10.533c12.344,6.718,17.305,22.719,10.387,35.545l-41.127,76.254
								l-51.077-15.327l-0.052,0.564l91.13,27.346l41.127-76.254C508.134,133.52,500.919,115.09,485.074,110.335z"/>
							<path style="fill:#6B8DF2;" d="M346.129,211.676l123.216,36.974c8.562,2.569,17.594-2.267,20.176-10.805v0
								c2.585-8.545-2.269-17.561-10.839-20.133l-123.216-36.974c-8.562-2.569-17.594,2.267-20.176,10.805v0
								C332.705,200.089,337.559,209.104,346.129,211.676z"/>
						</g>
						<polygon style="fill:#FFCA21;" points="464.949,213.591 481.042,183.752 372.354,151.137 369.218,184.865 						"/>
					</g>
				</g>
				<g>
					<g>
						<g>
							<path style="fill:#B5C8FF;" d="M143.895,196.839l-91.13,27.346l-41.127-76.254c-7.772-14.411-0.557-32.841,15.287-37.595
								l75.362-22.614c15.833-4.751,32.08,6.631,33.595,22.927L143.895,196.839z"/>
							<path style="fill:#9CB5FF;" d="M61.35,100.006c15.833-4.751,33.018,7.271,34.533,23.567l7.929,85.295l40.083-12.028
								l-8.012-86.191c-1.515-16.297-17.761-27.678-33.595-22.927L61.35,100.006z"/>
							<path style="fill:#6B8DF2;" d="M165.871,211.676L42.656,248.65c-8.562,2.569-17.594-2.267-20.176-10.805l0,0
								c-2.585-8.545,2.269-17.561,10.839-20.133l123.216-36.974c8.562-2.569,17.594,2.267,20.176,10.805l0,0
								C179.295,200.089,174.441,209.104,165.871,211.676z"/>
						</g>
						<polygon style="fill:#FFCA21;" points="47.051,213.591 30.958,183.752 139.646,151.137 142.782,184.865 						"/>
					</g>
				</g>
			</g>
		</g>
	</g>
	<g>
		<path d="M504.5,290.005h-17.543c-3.489-12.047-8.951-23.282-16.161-33.394c27.879,3.822,36.858-38.036,10.041-46.083l-4.918-1.476
			l31.043-57.561c9.905-18.364,0.367-42.309-19.732-48.339l-75.361-22.614c-20.079-6.027-41.288,8.651-43.219,29.416l-6.051,65.094
			l-4.978-1.494c-25.795-7.745-42.148,29.498-18.763,43.065c-10.938,4.138-21.215,9.975-30.446,17.355
			c-14.069,11.248-25.169,25.617-32.42,41.885c-12.869-4.234-27.116-4.234-39.983,0c-12.216-27.416-35.029-48.698-62.873-59.236
			c23.221-13.462,7.249-50.877-18.757-43.069l-4.977,1.494l-6.051-65.094c-1.93-20.767-23.138-35.44-43.218-29.416L64.458,91.243
			c-9.288,2.787-4.976,17.162,4.311,14.367l35.676-10.705c11.149-3.345,22.903,4.956,23.971,16.438l3.196,34.375l-96.953,29.094
			L18.239,144.37c-2.697-5.002-2.981-10.924-0.778-16.249c2.137-5.163,6.372-9.027,11.62-10.602
			c9.288-2.787,4.978-17.153-4.311-14.367c-9.586,2.876-17.302,9.887-21.17,19.234c-3.935,9.509-3.41,20.117,1.437,29.104
			l31.045,57.561l-4.919,1.476c-26.681,8.006-18.015,49.928,10.041,46.083c-7.211,10.111-12.672,21.347-16.161,33.394H7.5
			c-4.143,0-7.5,3.357-7.5,7.5v33.468c0,4.143,3.357,7.5,7.5,7.5h14.501c3.93,24.957,16.277,47.859,35.221,65.077
			c20.771,18.88,47.727,29.277,75.899,29.277c29.204,0,56.879-11.069,77.928-31.168c20.063-19.158,32.125-44.598,34.22-71.993
			c6.935-4.001,14.506-4.159,21.457-0.08c2.077,27.425,14.143,52.896,34.226,72.073c21.049,20.099,48.724,31.168,77.928,31.168
			c14.536,0,28.687-2.718,42.059-8.076c9.001-3.608,3.422-17.528-5.58-13.924c-11.59,4.645-23.862,7-36.479,7
			c-25.327,0-49.323-9.595-67.569-27.017c-18.18-17.359-28.77-40.666-29.819-65.625c-0.087-2.076-1.032-4.024-2.61-5.378
			c-12.927-11.088-32.515-10.711-45.596-0.137c-1.674,1.354-2.685,3.363-2.774,5.515c-1.05,24.959-11.64,48.266-29.819,65.625
			c-18.246,17.422-42.242,27.017-67.569,27.017c-24.435,0-47.807-9.013-65.811-25.377c-17.879-16.251-28.971-38.336-31.232-62.186
			c-0.365-3.851-3.599-6.792-7.467-6.792H15v-18.468h15.834c3.487,0,6.515-2.403,7.305-5.8
			c4.566-19.617,15.024-37.021,30.256-50.449l79.157-23.753c0,0,26.116,5.378,45.11,19.458c14.737,10.924,25.862,26.447,32.15,43.69
			c2.184,4.427,5.606,5.828,10.268,4.204c13.041-6.204,28.801-6.205,41.844,0c3.782,1.797,8.742-0.02,10.268-4.204
			c6.063-16.626,16.641-31.309,30.589-42.461c13.742-10.986,30.158-18.019,47.558-20.421l78.268,23.486
			c15.233,13.427,25.691,30.831,30.257,50.449c0.79,3.396,3.817,5.8,7.305,5.8H497v18.468h-13.611c-3.868,0-7.102,2.941-7.467,6.792
			c-2.117,22.321-12.121,43.374-28.171,59.279c-6.892,6.83,3.679,17.475,10.559,10.654c16.904-16.752,28.005-38.46,31.687-61.726
			H504.5c4.143,0,7.5-3.357,7.5-7.5v-33.468C512,293.362,508.643,290.005,504.5,290.005z M41.928,188.29l91.099-27.337l1.719,18.492
			L50.752,204.65L41.928,188.29z M29.658,235.673c-1.047-5.197,0.891-8.79,5.815-10.777l123.216-36.974
			c10.347-3.11,15.72,13.362,5.026,16.57L40.501,241.466C35.907,242.848,31.041,240.246,29.658,235.673z M383.585,111.343
			c1.067-11.482,12.822-19.783,23.972-16.438l75.362,22.614c11.144,3.343,16.307,16.718,10.841,26.851l-16.418,30.441
			l-96.952-29.093L383.585,111.343z M378.974,160.953l91.099,27.337l-8.823,16.36l-83.994-25.204L378.974,160.953z M342.469,193.714
			c1.29-4.267,6.62-7.061,10.842-5.792l123.216,36.974c10.785,3.236,5.711,19.781-5.027,16.57l-123.215-36.974
			C343.36,202.504,341.421,198.911,342.469,193.714z"/>
		<path d="M132.781,239.78c-45.186,0-81.947,36.47-81.947,81.298s36.762,81.299,81.947,81.299c45.187,0,81.949-36.471,81.949-81.299
			S177.968,239.78,132.781,239.78z M132.781,387.377c-36.915,0-66.947-29.741-66.947-66.299c0-36.557,30.032-66.298,66.947-66.298
			c36.916,0,66.949,29.741,66.949,66.298C199.73,357.636,169.697,387.377,132.781,387.377z"/>
		<path d="M379.219,239.78c-45.187,0-81.949,36.47-81.949,81.298s36.763,81.299,81.949,81.299c45.186,0,81.947-36.471,81.947-81.299
			S424.404,239.78,379.219,239.78z M379.219,387.377c-36.916,0-66.949-29.741-66.949-66.299c0-36.557,30.033-66.298,66.949-66.298
			c36.915,0,66.947,29.741,66.947,66.298C446.166,357.636,416.134,387.377,379.219,387.377z"/>
		<path d="M135.168,354.603c-20.645,0-37.44-16.807-37.44-37.466c0-9.697-15-9.697-15,0c0,28.93,23.524,52.466,52.44,52.466
			C144.865,369.603,144.865,354.603,135.168,354.603z"/>
		<path d="M383.417,354.603c-20.645,0-37.44-16.807-37.44-37.466c0-4.143-3.357-7.5-7.5-7.5s-7.5,3.357-7.5,7.5
			c0,28.93,23.524,52.466,52.44,52.466c4.143,0,7.5-3.357,7.5-7.5S387.56,354.603,383.417,354.603z"/>
	</g>
</g>
<g>
</g>
<g>
</g>
<g>
</g>
<g>
</g>
<g>
</g>
<g>
</g>
<g>
</g>
<g>
</g>
<g>
</g>
<g>
</g>
<g>
</g>
<g>
</g>
<g>
</g>
<g>
</g>
<g>
</g>
</svg>
