<?xml version="1.0" encoding="iso-8859-1"?>
<!-- Generator: Adobe Illustrator 25.0.0, SVG Export Plug-In . SVG Version: 6.00 Build 0)  -->
<svg version="1.1" id="Layer_1" xmlns="http://www.w3.org/2000/svg" xmlns:xlink="http://www.w3.org/1999/xlink" x="0px" y="0px"
	 viewBox="0 0 511.044 511.044" style="enable-background:new 0 0 511.044 511.044;" xml:space="preserve">
<g>
	<g>
		<g>
			<g>
				<g>
					<g>
						<path style="fill:#6B8DF2;" d="M410.14,352.128H100.267L44.744,66.256c-4.861-25.027,14.301-48.279,39.787-48.279h341.345
							c25.486,0,44.648,23.251,39.787,48.279L410.14,352.128z"/>
						<path style="fill:#527BF2;" d="M425.876,17.978h-40c25.486,0,44.648,23.251,39.787,48.279L370.14,352.128h40l55.523-285.872
							C470.524,41.229,451.362,17.978,425.876,17.978z"/>
						<polygon style="fill:#FFCA21;" points="113.634,420.953 396.773,420.953 410.14,352.128 100.267,352.128 						"/>
						<polygon style="fill:#F2BB0C;" points="370.14,352.128 356.773,420.953 396.773,420.953 410.14,352.128 						"/>
						<path style="fill:#6B8DF2;" d="M483.156,493.066H27.885c-21.382,0-28.899-28.434-10.269-38.932
							c49.451-27.864,130.308-50.472,237.905-50.472s188.453,22.608,237.905,50.472
							C512.056,464.632,504.539,493.066,483.156,493.066z"/>
					</g>
				</g>
			</g>
		</g>
	</g>
	<g>
		<path d="M497.107,447.601c-17.974-10.128-47.804-23.873-91.148-34.607l67.067-345.308c5.653-29.104-17.486-57.208-47.149-57.208
			H84.531c-29.654,0-52.804,28.095-47.149,57.208l11.35,58.436c1.85,9.52,16.574,6.659,14.725-2.859l-11.35-58.436
			c-3.901-20.088,11.955-39.349,32.425-39.349h341.345c20.47,0,36.326,19.261,32.425,39.349l-54.345,279.802H106.45L71.048,162.35
			c-1.849-9.519-16.574-6.659-14.725,2.859l48.155,247.936c-43.016,10.712-72.653,24.375-90.543,34.456
			c-24.71,13.923-14.387,52.965,13.95,52.965H388.66c9.697,0,9.697-15,0-15H27.885c-13.208,0-18.37-18.258-6.587-24.896
			c32.813-18.489,106.875-49.507,234.223-49.507s201.409,31.018,234.223,49.507c11.55,6.508,6.886,24.896-6.587,24.896h-54.646
			c-9.697,0-9.697,15,0,15h54.646C511.473,500.566,521.835,461.534,497.107,447.601z M119.097,409.74l-9.733-50.112h291.68
			l-9.707,49.981c-36.491-7.881-81.484-13.447-135.815-13.447C200.887,396.162,155.695,401.789,119.097,409.74z"/>
		<path d="M345.714,199.458c0,4.143,3.357,7.5,7.5,7.5h9.271v71.172c0,4.143,3.357,7.5,7.5,7.5s7.5-3.357,7.5-7.5v-78.672
			c0-4.143-3.357-7.5-7.5-7.5h-16.771C349.071,191.958,345.714,195.316,345.714,199.458z"/>
		<path d="M129.389,213.093c-0.796,4.065,1.854,8.006,5.918,8.803c4.075,0.792,8.006-1.854,8.803-5.918
			c1.154-5.894,6.345-10.171,12.342-10.171c6.795,0,12.349,5.438,12.571,12.209c-1.081,6.066-3.834,11.181-7.373,16.251
			c-12.446,17.828-19.875,27.58-23.865,32.819c-3.698,4.854-10.144,15.653-0.289,18.948c1.011,0.337,31.267,0.142,42.455,0
			c9.486-0.119,9.059-15.478-0.189-15.197c-9.052,0.114-18.733,0.016-26.135,0c4.426-5.886,10.987-14.611,20.323-27.984
			c4.809-6.891,10.08-15.608,10.08-24.416c0-15.235-12.371-27.63-27.578-27.63C143.301,190.807,131.919,200.18,129.389,213.093z"/>
		<path d="M274.457,213.093c-0.796,4.065,1.854,8.006,5.918,8.803c4.073,0.792,8.007-1.854,8.803-5.918
			c1.154-5.894,6.345-10.171,12.342-10.171c6.795,0,12.349,5.438,12.571,12.209c-1.081,6.066-3.834,11.181-7.372,16.251
			c-12.446,17.828-19.875,27.58-23.866,32.819c-3.698,4.854-10.144,15.653-0.289,18.948c1.011,0.337,31.267,0.142,42.455,0
			c4.142-0.052,7.457-3.65,7.404-7.793c-0.052-4.109-3.399-7.405-7.497-7.405c-0.032,0-0.064-0.001-0.097,0
			c-9.051,0.114-18.699,0.016-26.135,0c4.426-5.886,10.988-14.61,20.324-27.984c4.809-6.891,10.079-15.608,10.079-24.415
			c0-15.235-12.371-27.63-27.578-27.63C288.369,190.807,276.987,200.18,274.457,213.093z"/>
		<path d="M200.646,220.603v36.383c0,16.68,13.544,30.25,30.191,30.25s30.19-13.57,30.19-30.25v-36.383
			c0-16.68-13.543-30.25-30.19-30.25S200.646,203.923,200.646,220.603z M246.028,220.603v36.383c0,8.409-6.814,15.25-15.19,15.25
			c-8.377,0-15.191-6.841-15.191-15.25v-36.383c0-8.409,6.814-15.25,15.191-15.25C239.213,205.353,246.028,212.194,246.028,220.603z
			"/>
		<path d="M211.184,107.148c-2.757-7.5-13.497-7.451-16.284-0.02l-19.863,53.396c-3.381,9.09,10.678,14.317,14.059,5.23l3.13-8.413
			h21.474l3.093,8.392c3.289,8.923,17.426,3.907,14.074-5.188L211.184,107.148z M197.804,142.342l5.207-13.996l5.159,13.996H197.804
			z"/>
		<path d="M120.276,100.68c-4.143,0-7.5,3.357-7.5,7.5v54.96c0,9.697,15,9.697,15,0v-21.31h21.606v21.31c0,9.697,15,9.697,15,0
			v-54.96c0-9.697-15-9.697-15,0v18.65h-21.606v-18.65C127.776,104.037,124.418,100.68,120.276,100.68z"/>
		<path d="M373.924,170.64c3.787,0,7.509-3.775,7.518-7.482l0.06-25.492l15.593-24.523c5.204-8.183-7.455-16.231-12.658-8.049
			l-10.439,16.418l-10.563-16.564c-5.214-8.175-17.861-0.11-12.646,8.066l15.715,24.641l-0.06,25.468
			C366.432,167.264,369.781,170.63,373.924,170.64z"/>
		<path d="M264.75,101.481h-14.729c-4.088,0-7.5,3.413-7.5,7.5v54.159c0,9.697,15,9.697,15,0v-16.066
			c2.709-0.014,5.529-0.026,7.229-0.026c12.528,0,22.721-10.221,22.721-22.783C287.471,111.702,277.279,101.481,264.75,101.481z
			 M264.75,132.048c-1.688,0-4.474,0.012-7.166,0.025c-0.021-5.198-0.035-10.395-0.042-15.593h7.208
			c4.185,0,7.721,3.564,7.721,7.784C272.471,128.484,268.935,132.048,264.75,132.048z"/>
		<path d="M312.654,163.14v-16.066c2.709-0.014,5.529-0.026,7.229-0.026c12.528,0,22.721-10.221,22.721-22.783
			c0-12.563-10.192-22.784-22.721-22.784h-14.729c-4.088,0-7.5,3.413-7.5,7.5v54.159
			C297.654,172.837,312.654,172.837,312.654,163.14z M319.883,116.481c4.185,0,7.721,3.564,7.721,7.784
			c0,4.219-3.536,7.783-7.721,7.783c-1.688,0-4.474,0.012-7.167,0.025c-0.02-5.198-0.034-10.395-0.041-15.593H319.883z"/>
		<path d="M224.904,430.779c-57.762,0-125.761,19.629-128.648,20.471c-9.187,2.678-4.717,16.999,4.197,14.4
			c0.688-0.2,68.811-19.871,124.471-19.871C235.742,445.779,236.394,430.779,224.904,430.779z"/>
	</g>
</g>
<g>
</g>
<g>
</g>
<g>
</g>
<g>
</g>
<g>
</g>
<g>
</g>
<g>
</g>
<g>
</g>
<g>
</g>
<g>
</g>
<g>
</g>
<g>
</g>
<g>
</g>
<g>
</g>
<g>
</g>
</svg>
