<?xml version="1.0" encoding="iso-8859-1"?>
<!-- Generator: Adobe Illustrator 25.0.0, SVG Export Plug-In . SVG Version: 6.00 Build 0)  -->
<svg version="1.1" id="Layer_1" xmlns="http://www.w3.org/2000/svg" xmlns:xlink="http://www.w3.org/1999/xlink" x="0px" y="0px"
	 viewBox="0 0 512.476 512.476" style="enable-background:new 0 0 512.476 512.476;" xml:space="preserve">
<g>
	<g>
		<g>
			<g>
				<g>
					<g>
						<path style="fill:#EBF7FF;" d="M393.793,346.992L393.793,346.992c-20.648,7.442-43.328-2.18-52.454-21.602
							c-0.887-1.887-1.567-3.863-2.166-5.858L268.78,85.116l52.553-18.942L418.08,291.09c0.824,1.915,1.572,3.866,2.105,5.88
							C425.67,317.705,414.44,339.55,393.793,346.992z"/>
						<path style="fill:#D9EDFA;" d="M420.185,296.97c-0.533-2.014-1.281-3.966-2.105-5.881L321.333,66.173l-34.631,12.482
							L378.08,291.09c0.824,1.915,1.572,3.866,2.105,5.881c4.96,18.745-3.746,38.396-20.719,47.494
							c10.19,5.468,22.585,6.76,34.326,2.528h0C414.44,339.55,425.671,317.705,420.185,296.97z"/>
						<g>
							<path style="fill:#FFCA21;" d="M359.042,153.841l-62.825,22.645l42.955,143.046c0.599,1.996,1.28,3.972,2.167,5.858
								c9.126,19.422,31.807,29.044,52.454,21.602l0,0c20.648-7.442,31.878-29.287,26.392-50.022
								c-0.533-2.014-1.281-3.966-2.105-5.88L359.042,153.841z"/>
						</g>
						<path style="fill:#F2BB0C;" d="M420.185,296.97c-0.533-2.014-1.281-3.966-2.105-5.881l-59.037-137.249l-34.631,12.482
							L378.08,291.09c0.824,1.915,1.572,3.866,2.105,5.881c4.96,18.745-3.746,38.396-20.719,47.494
							c10.19,5.468,22.585,6.76,34.326,2.528h0C414.44,339.55,425.671,317.705,420.185,296.97z"/>
					</g>
				</g>
				<polygon style="fill:#EBF7FF;" points="412.212,504.779 436.649,464.91 481.391,479.719 481.439,479.976 412.02,504.974 				"/>
			</g>
			<g>
				<path style="fill:#A1FFE6;" d="M263.808,105.408l-52.706-19.093c-6.527-2.365-9.893-9.557-7.515-16.059l0,0
					c2.375-6.495,9.582-9.844,16.102-7.483l52.706,19.093c6.527,2.365,9.893,9.557,7.515,16.059v0
					C277.535,104.421,270.328,107.77,263.808,105.408z"/>
				<path style="fill:#41CCB4;" d="M260.045,104.045c0,0-1.947,18.406-8.431,47.872c-2.663,12.1-21.933,38.057-21.933,38.057
					s5.138,24.628,1.271,36.048c-3.568,10.538-4.273,21.831-1.966,32.712l6.258,29.524c2.473,21.743-0.153,43.761-7.673,64.323
					l-45.767,125.15c-7.855,21.479-31.717,32.554-53.298,24.736l-70.211-25.434c-21.581-7.818-32.708-31.568-24.853-53.047
					l45.767-125.15c7.52-20.562,19.728-39.109,35.665-54.183l23.862-18.613c8.794-6.86,15.547-15.961,19.62-26.317
					c5.144-13.079,32.746-29.249,32.746-29.249s-5.843-30.99-0.713-40.737c14.063-26.72,24.459-42.066,24.459-42.066
					L260.045,104.045z"/>
				<path style="fill:#0FBA9D;" d="M228.986,258.734c-2.306-10.881-1.602-22.173,1.966-32.712c4.131-12.2-4.271-44.178-4.271-44.178
					s22.393-18.385,24.933-29.926c6.484-29.466,8.431-47.872,8.431-47.872l-41.189-14.921
					c-2.622,25.691-10.14,84.431-27.903,136.897c-3.568,10.538-4.273,21.831-1.966,32.712l6.258,29.524
					c2.473,21.743-0.153,43.761-7.673,64.323l-45.767,125.15c-3.673,10.043-10.846,17.81-19.648,22.436l6.35,2.3
					c21.581,7.818,45.444-3.257,53.298-24.736l45.767-125.15c7.52-20.562,10.146-42.58,7.673-64.323L228.986,258.734z"/>
				<g>
					<path style="fill:#FFE594;" d="M151.567,383.659L151.567,383.659c12.296-33.623-5.123-70.801-38.906-83.039l-29.789-10.791
						c-1.319,2.957-2.55,5.957-3.666,9.008l-41.19,112.635l30.117,10.91C101.917,434.619,139.271,417.283,151.567,383.659z"/>
				</g>
				<g>
					<path style="fill:#FFE594;" d="M251.612,151.917l-61.224-22.178c-9.673,18.378-21.079,42.132-32.034,69.985
						c-0.233,0.593-0.478,1.181-0.729,1.766l72.744,26.351c0.186-0.609,0.378-1.215,0.582-1.819
						C240.549,197.677,247.152,172.183,251.612,151.917z"/>
				</g>
				<g>
					<path style="fill:#F7D877;" d="M212.184,137.634c-3.936,18.295-10.101,51.015-17.729,77.197l35.915,13.01
						c0.186-0.609,0.378-1.215,0.583-1.819c9.597-28.345,16.201-53.839,20.66-74.105L212.184,137.634z"/>
				</g>
			</g>
		</g>
	</g>
	<g>
		<path d="M371.602,325.516c9.652,0,9.668-15,0-15C361.95,310.516,361.934,325.516,371.602,325.516z"/>
		<path d="M362.455,216.03c-9.652,0-9.668,15,0,15C372.107,231.03,372.123,216.03,362.455,216.03z"/>
		<path d="M331.216,210.739c9.652,0,9.668-15,0-15C321.565,195.739,321.549,210.739,331.216,210.739z"/>
		<path d="M488.811,478.594c-0.641-2.641-2.363-5.102-5.063-5.996l-41.292-13.667l-39.25-107.995
			c9.472-5.224,17.126-13.593,21.539-23.767c5.431-12.52,5.513-26.75,0.226-39.043c-3.833-8.907-17.611-2.981-13.779,5.928
			c3.661,8.51,3.585,18.404-0.207,27.146c-3.787,8.73-10.95,15.546-19.658,18.71c-9.192,3.064-19.383,2.272-27.975-2.173
			c-8.308-4.299-14.344-11.53-16.996-20.362l-40.911-136.242l49.499-17.842l38.117,88.613c3.747,8.711,17.603,2.964,13.779-5.928
			L328.222,63.21c-1.567-3.644-5.702-5.435-9.433-4.092l-43.706,15.753c-0.046-0.017-0.088-0.039-0.134-0.056l-52.706-19.093
			c-21.148-7.663-36.869,22.253-18.394,35.186c-9.538,15.306-31.689,53.221-52.475,106.07
			c-7.415,18.852-25.807,29.821-41.115,41.762c-14.937,11.67-26.545,30.885-34.177,47.919c0,0-33.385,90.178-49.685,134.751
			c-9.146,25.013,4.438,53.653,29.343,62.675l70.21,25.434c24.982,9.05,53.761-4.228,62.897-29.211l4.125-11.28
			c3.33-9.107-10.759-14.261-14.087-5.152l-4.126,11.28c-6.426,17.574-26.029,26.666-43.7,20.26l-70.211-25.434
			c-17.31-6.27-26.751-25.954-20.364-43.419l2.008-5.492l23.087,8.363c37.053,13.421,79.484-6.134,93.032-43.198
			c13.575-37.122-6.387-79.26-43.396-92.667l-21.968-7.957c6.83-13.092,15.816-25.085,26.523-35.266
			c14.945-11.658,32.208-22.557,41.618-39.514l60.071,21.761c-3.726,18.986,2.451,38.37,6.371,56.866
			c2.261,20.366-0.263,41.295-7.304,60.549l-27.929,76.371c-3.33,9.108,10.757,14.259,14.088,5.152l27.929-76.371
			c7.877-21.542,10.672-44.969,8.081-67.748c-2.352-20.411-11.734-38.029-4.64-58.982c18.213-53.794,25.731-97.017,28.308-114.84
			c1.046,0.092,2.093,0.098,3.14,0.019l62.484,208.082c3.831,12.757,12.521,23.188,24.469,29.37
			c9.969,5.159,21.557,6.851,32.599,4.86l39.308,108.155l-22.183,36.192c-4.617,5.716,1.443,14.26,8.379,11.766l69.419-24.998
			C487.443,485.786,489.489,482.211,488.811,478.594z M110.107,307.671c29.289,10.609,45.176,43.992,34.416,73.412
			c-10.86,29.697-43.983,45.062-73.834,34.246l-23.044-8.348c13.12-35.877,25.676-72.015,39.407-107.662L110.107,307.671z
			 M349.005,149.486l-47.882,17.259l-17.978-59.871c4.73-5.336,6.247-13.643,3.716-20.303l30.372-10.947L349.005,149.486z
			 M210.63,72.833c1.755-2.881,3.924-3.883,6.504-3.007l52.707,19.093c6.172,2.236,2.648,11.659-3.479,9.438
			c-17.569-6.364-35.138-12.729-52.707-19.093C210.862,77.954,209.854,75.81,210.63,72.833z M246.05,141.925l-44.942-16.281
			c7.361-13.544,13.367-23.432,16.8-28.886l33.931,12.292C250.944,115.439,249.157,126.853,246.05,141.925z M225.668,218.161
			l-58.188-21.079c9.031-22.403,18.306-42.012,26.551-58.048l48.792,17.675C238.78,174.27,233.22,195.225,225.668,218.161z
			 M429.671,490.647l10.266-16.749l18.886,6.251L429.671,490.647z"/>
		<path d="M268.78,43.727c4.142,0,7.5-3.357,7.5-7.5V7.273c0-9.697-15-9.697-15,0v28.954C261.28,40.37,264.638,43.727,268.78,43.727
			z"/>
		<path d="M291.582,49.615c3.684,2.498,7.194,2.077,10.531-1.262l16.046-20.415c5.992-7.624-5.802-16.896-11.793-9.27
			l-16.046,20.415C287.761,42.34,288.326,47.055,291.582,49.615z"/>
		<path d="M236.307,48.353c6.158,7.835,17.676-1.784,11.793-9.27l-16.046-20.415c-5.994-7.623-17.785,1.645-11.793,9.27
			L236.307,48.353z"/>
		<path d="M59.677,263.717c3.594,1.39,8.296-0.65,9.704-4.282c0.06-0.153,6.14-15.532,20.143-25.479
			c7.906-5.615-0.784-17.849-8.687-12.229c-17.633,12.526-25.131,31.484-25.441,32.286
			C53.898,257.875,55.815,262.219,59.677,263.717z"/>
		<path d="M43.15,236.799c3.784,2.028,7.213,1.169,10.289-2.576c1.029-1.716,3.841-5.825,5.969-7.572
			c7.494-6.154-2.025-17.747-9.52-11.592c-4.69,3.852-8.855,10.685-9.314,11.451C38.443,230.063,39.597,234.669,43.15,236.799z"/>
		<path d="M429.649,361.692c3.468,3.083,7.001,3.238,10.597,0.466c0.609-0.559,14.978-13.928,19.379-36.281
			c0.8-4.064-1.846-8.008-5.91-8.808c-4.064-0.803-8.007,1.846-8.808,5.909c-3.398,17.262-14.587,27.924-14.813,28.137
			C427.06,353.915,426.858,358.644,429.649,361.692z"/>
		<path d="M459.033,365.779c3.726,2.332,7.214,1.754,10.464-1.735c0.261-0.365,6.428-9.038,9.532-18.013
			c1.354-3.915-0.723-8.186-4.637-9.539c-3.915-1.355-8.185,0.723-9.54,4.637c-2.38,6.884-7.507,14.12-7.559,14.192
			C454.889,358.689,455.667,363.37,459.033,365.779z"/>
	</g>
</g>
<g>
</g>
<g>
</g>
<g>
</g>
<g>
</g>
<g>
</g>
<g>
</g>
<g>
</g>
<g>
</g>
<g>
</g>
<g>
</g>
<g>
</g>
<g>
</g>
<g>
</g>
<g>
</g>
<g>
</g>
</svg>
