<?xml version="1.0" encoding="iso-8859-1"?>
<!-- Generator: Adobe Illustrator 25.0.0, SVG Export Plug-In . SVG Version: 6.00 Build 0)  -->
<svg version="1.1" id="Layer_1" xmlns="http://www.w3.org/2000/svg" xmlns:xlink="http://www.w3.org/1999/xlink" x="0px" y="0px"
	 viewBox="0 0 512.013 512.013" style="enable-background:new 0 0 512.013 512.013;" xml:space="preserve">
<g>
	<g>
		<g>
			<g>
				<g>
					<ellipse style="fill:#F2A7D0;" cx="107.393" cy="155.77" rx="99.884" ry="100.402"/>
					<path style="fill:#F294C7;" d="M107.393,55.368c-6.85,0-13.538,0.694-20,2.015c45.58,9.312,79.884,49.822,79.884,98.388
						s-34.304,89.076-79.884,98.388c6.462,1.32,13.15,2.015,20,2.015c55.165,0,99.884-44.952,99.884-100.402
						S162.558,55.368,107.393,55.368z"/>
				</g>
				<g>
					<ellipse style="fill:#A1FFE6;" cx="256.009" cy="255.922" rx="99.884" ry="100.402"/>
					<path style="fill:#7DF5D5;" d="M256.009,155.52c-6.85,0-13.538,0.695-20,2.015c45.58,9.312,79.884,49.822,79.884,98.388
						s-34.304,89.076-79.884,98.388c6.462,1.32,13.15,2.015,20,2.015c55.165,0,99.884-44.952,99.884-100.402
						S311.173,155.52,256.009,155.52z"/>
				</g>
				<g>
					<ellipse style="fill:#B5C8FF;" cx="404.624" cy="356.075" rx="99.884" ry="100.402"/>
					<path style="fill:#9CB5FF;" d="M404.624,255.672c-6.85,0-13.538,0.695-20,2.015c45.58,9.312,79.884,49.822,79.884,98.388
						s-34.304,89.076-79.884,98.388c6.462,1.32,13.15,2.015,20,2.015c55.165,0,99.884-44.952,99.884-100.402
						S459.789,255.672,404.624,255.672z"/>
				</g>
			</g>
		</g>
		<g>
			<g>
				<polygon style="fill:#EB67A5;" points="381.67,117.154 372.509,96.378 349.936,98.832 363.348,80.511 349.936,62.189 
					372.509,64.644 381.67,43.868 390.831,64.644 413.404,62.189 399.991,80.511 413.404,98.832 390.831,96.378 				"/>
			</g>
		</g>
		<g>
			<g>
				<polygon style="fill:#FFCA21;" points="130.348,394.691 139.508,415.467 162.081,413.012 148.669,431.334 162.081,449.655 
					139.508,447.201 130.348,467.977 121.187,447.201 98.614,449.655 112.026,431.334 98.614,413.012 121.187,415.467 				"/>
			</g>
		</g>
	</g>
	<g>
		<path d="M107.393,199.313c-9.616,0-17.89-8.489-17.89-18.021c0-9.697-15-9.697-15,0c0,17.879,14.95,33.021,32.89,33.021
			c18.136,0,32.89-14.813,32.89-33.021c0-10.271-4.696-19.46-12.044-25.521c7.348-6.061,12.044-15.25,12.044-25.521
			c0-18.208-14.754-33.021-32.89-33.021c-15.685,0-29.258,11.202-32.274,26.636c-1.859,9.515,12.861,12.397,14.722,2.877
			c1.643-8.409,9.025-14.513,17.552-14.513c9.865,0,17.89,8.084,17.89,18.021s-8.025,18.021-17.89,18.021c-9.697,0-9.697,15,0,15
			c9.865,0,17.89,8.084,17.89,18.021S117.258,199.313,107.393,199.313z"/>
		<path d="M283.168,299.039c-13.182,0.166-27.31,0.252-37.075,0.22c5.508-7.285,14.452-19.294,28.079-38.864
			c6.062-8.705,9.999-16.865,11.702-24.253c4.487-19.51-12.808-38.565-32.208-38.565c-15.685,0-29.258,11.202-32.274,26.636
			c-0.794,4.065,1.857,8.005,5.922,8.799c4.066,0.802,8.005-1.856,8.799-5.922c1.643-8.409,9.025-14.513,17.552-14.513
			c10.893,0,18.901,10.149,17.509,20.54c-1.322,5.437-4.454,11.728-9.313,18.707c-15.762,22.637-25.172,35.021-30.228,41.676
			c-6.046,7.958-7.871,10.359-6.519,14.745c0.766,2.485,2.662,5.19,5.199,6.04c0.999,0.335,39.073,0.177,53.042,0
			c4.142-0.052,7.457-3.699,7.405-7.841S287.332,298.996,283.168,299.039z"/>
		<path d="M505.958,320.305c-3.201-9.155-17.36-4.205-14.16,4.949c3.458,9.891,5.211,20.261,5.211,30.82
			c0,51.227-41.443,92.902-92.384,92.902s-92.384-41.676-92.384-92.902s41.443-92.902,92.384-92.902
			c25.988,0,50.921,11.104,68.407,30.463c6.502,7.193,17.631-2.858,11.132-10.055c-20.324-22.502-49.315-35.408-79.539-35.408
			c-14.605,0-28.535,2.95-41.24,8.279c0.001-0.176,0.008-0.353,0.008-0.529c0-59.497-48.172-107.902-107.384-107.902
			c-14.605,0-28.537,2.95-41.241,8.28c0.086-16.114-3.377-32.016-10.255-46.626c-14.222-30.204-42.065-52.411-74.48-59.402
			c-33.549-7.237-68.807,2.163-94.312,25.146c-3.077,2.772-3.323,7.515-0.55,10.592c2.771,3.076,7.514,3.323,10.592,0.551
			c21.934-19.766,52.255-27.846,81.106-21.626c27.876,6.013,51.828,25.127,64.072,51.13c7.064,15.003,9.962,31.599,8.454,48.211
			c-25.69,16.082-44.158,42.757-49.309,73.9c-27.251,14.286-60.509,13.924-87.454-1.115c-23.909-13.344-41.134-37.376-46.08-64.284
			c-2.896-15.76-1.714-32.055,3.417-47.123c1.335-3.921-0.761-8.183-4.682-9.518c-3.921-1.331-8.182,0.762-9.518,4.682
			c-5.957,17.49-7.33,36.395-3.971,54.67c5.744,31.258,25.752,59.172,53.522,74.671c16.072,8.97,34.069,13.452,52.07,13.452
			c14.054,0,28.106-2.747,41.24-8.212c-0.001,0.175-0.007,0.349-0.007,0.524c0,59.497,48.172,107.902,107.384,107.902
			c14.173,0,28.237-2.842,41.238-8.264c-0.001,0.172-0.007,0.342-0.007,0.514c0,59.497,48.172,107.902,107.384,107.902
			s107.384-48.405,107.384-107.902C512.009,343.826,509.973,331.79,505.958,320.305z M256.009,348.825
			c-50.941,0-92.384-41.676-92.384-92.902s41.443-92.902,92.384-92.902s92.384,41.676,92.384,92.902c0,2.837-0.13,5.686-0.384,8.506
			c-25.688,16.081-44.154,42.752-49.307,73.892C285.611,345.19,270.882,348.825,256.009,348.825z"/>
		<path d="M406.921,413.445c4.142,0,7.5-3.357,7.5-7.5v-99.74c0-4.143-3.358-7.5-7.5-7.5h-21.208c-4.142,0-7.5,3.357-7.5,7.5
			s3.358,7.5,7.5,7.5h13.708v92.24C399.421,410.087,402.779,413.445,406.921,413.445z"/>
		<path d="M234.107,29.905c4.142,0,7.5-3.357,7.5-7.5V7.422c0-9.697-15-9.697-15,0v14.982
			C226.607,26.547,229.965,29.905,234.107,29.905z"/>
		<path d="M234.107,90.404c4.142,0,7.5-3.357,7.5-7.5V67.779c0-9.697-15-9.697-15,0v15.125
			C226.607,87.046,229.965,90.404,234.107,90.404z"/>
		<path d="M250.793,63.379l12.484,7.16c8.044,4.613,16.103-8.057,7.463-13.012l-12.484-7.16
			C249.844,45.544,242.381,58.555,250.793,63.379z"/>
		<path d="M197.474,32.798l12.484,7.16c8.044,4.613,16.103-8.057,7.463-13.012l-12.484-7.16
			C196.525,14.963,189.062,27.974,197.474,32.798z"/>
		<path d="M201.212,71.535c1.266,0,2.548-0.32,3.725-0.995l12.484-7.16c8.412-4.824,0.95-17.834-7.463-13.012l-12.484,7.16
			C191.451,60.982,193.478,71.535,201.212,71.535z"/>
		<path d="M254.532,40.954c1.266,0,2.548-0.32,3.725-0.995l12.484-7.16c8.412-4.824,0.949-17.836-7.463-13.012l-12.484,7.16
			C244.77,30.401,246.797,40.954,254.532,40.954z"/>
		<path d="M464.107,165.52v14.982c0,9.697,15,9.697,15,0V165.52C479.107,155.823,464.107,155.823,464.107,165.52z"/>
		<path d="M471.607,218.376c-4.142,0-7.5,3.357-7.5,7.5v15.125c0,9.697,15,9.697,15,0v-15.125
			C479.107,221.734,475.749,218.376,471.607,218.376z"/>
		<path d="M488.293,221.477l12.484,7.16c8.044,4.613,16.103-8.057,7.463-13.012l-12.484-7.16c-3.593-2.061-8.176-0.82-10.237,2.774
			C483.458,214.832,484.7,219.416,488.293,221.477z"/>
		<path d="M454.921,185.044l-12.484-7.16c-8.413-4.822-15.875,8.188-7.463,13.012l12.484,7.16
			C455.502,202.669,463.561,189.999,454.921,185.044z"/>
		<path d="M447.458,208.465l-12.484,7.16c-8.64,4.954-0.581,17.626,7.463,13.012l12.484-7.16
			C463.333,216.653,455.871,203.642,447.458,208.465z"/>
		<path d="M492.032,199.051c1.266,0,2.548-0.32,3.725-0.995l12.484-7.16c8.413-4.824,0.949-17.834-7.463-13.012l-12.484,7.16
			C482.27,188.499,484.297,199.051,492.032,199.051z"/>
		<path d="M297.831,88.011h28.5c9.697,0,9.697-15,0-15h-28.5C288.134,73.011,288.134,88.011,297.831,88.011z"/>
		<path d="M436.665,88.011h28.844c9.697,0,9.697-15,0-15h-28.844C426.967,73.011,426.967,88.011,436.665,88.011z"/>
		<path d="M406.092,123.091c-3.593,2.061-4.835,6.645-2.774,10.237l13.766,24.002c5.135,8.954,17.629,0.586,13.012-7.463
			l-13.766-24.002C414.269,122.272,409.685,121.032,406.092,123.091z"/>
		<path d="M347.011,35.156c5.135,8.954,17.629,0.586,13.012-7.463L346.256,3.691c-4.824-8.412-17.837-0.949-13.012,7.463
			L347.011,35.156z"/>
		<path d="M406.092,37.93c3.794,1.955,7.207,1.03,10.237-2.774l13.766-24.002c4.825-8.412-8.187-15.875-13.012-7.463l-13.766,24.002
			C401.256,31.286,402.499,35.87,406.092,37.93z"/>
		<path d="M347.011,125.866l-13.766,24.002c-4.617,8.049,7.876,16.417,13.012,7.463l13.766-24.002
			C364.848,124.917,351.836,117.455,347.011,125.866z"/>
		<path d="M343.441,58.44c-1.486,2.574-1.312,5.782,0.443,8.181l10.169,13.891l-10.169,13.891c-4.109,5.614,1.119,12.5,6.863,11.887
			l17.115-1.861l6.945,15.752c2.58,5.852,11.145,5.852,13.726,0l6.945-15.752l17.115,1.861c5.744,0.614,10.972-6.272,6.863-11.887
			l-10.169-13.891l10.169-13.892c4.099-5.599-1.114-12.514-6.862-11.886l-17.115,1.86l-6.945-15.752
			c-2.58-5.852-11.145-5.852-13.726,0l-6.945,15.752l-17.115-1.86C347.794,54.413,344.927,55.866,343.441,58.44z M371.699,72.1
			c3.25,0.352,6.354-1.439,7.673-4.431l2.298-5.212l2.298,5.212c1.318,2.991,4.421,4.784,7.673,4.431l5.664-0.616l-3.365,4.598
			c-1.931,2.638-1.931,6.222,0,8.86l3.364,4.596l-5.663-0.616c-3.247-0.346-6.354,1.439-7.673,4.431l-2.298,5.212l-2.298-5.212
			c-1.208-2.741-3.915-4.475-6.859-4.475c-0.27,0-0.542,0.015-0.814,0.044l-5.663,0.616l3.365-4.596
			c1.931-2.639,1.931-6.223,0-8.861l-3.365-4.596L371.699,72.1z"/>
		<path d="M277.91,481.94c-4.142,0-7.5,3.357-7.5,7.5v14.982c0,9.697,15,9.697,15,0V489.44
			C285.41,485.297,282.052,481.94,277.91,481.94z"/>
		<path d="M277.91,421.441c-4.142,0-7.5,3.357-7.5,7.5v15.125c0,9.697,15,9.697,15,0v-15.125
			C285.41,424.798,282.052,421.441,277.91,421.441z"/>
		<path d="M261.224,448.465l-12.484-7.16c-8.412-4.824-15.875,8.188-7.463,13.012l12.484,7.16
			C261.806,466.09,269.864,453.42,261.224,448.465z"/>
		<path d="M314.543,479.046l-12.484-7.16c-8.412-4.824-15.875,8.188-7.463,13.012l12.484,7.16
			C315.125,496.671,323.183,484.001,314.543,479.046z"/>
		<path d="M307.081,441.305l-12.484,7.16c-8.64,4.954-0.581,17.626,7.463,13.012l12.484-7.16
			C322.956,449.493,315.493,436.482,307.081,441.305z"/>
		<path d="M253.761,471.886l-12.484,7.16c-8.64,4.954-0.581,17.626,7.463,13.012l12.484-7.16
			C269.637,480.074,262.173,467.062,253.761,471.886z"/>
		<path d="M47.91,346.325v-14.982c0-9.697-15-9.697-15,0v14.982C32.91,356.022,47.91,356.022,47.91,346.325z"/>
		<path d="M40.41,293.468c4.142,0,7.5-3.357,7.5-7.5v-15.125c0-9.697-15-9.697-15,0v15.125
			C32.91,290.111,36.268,293.468,40.41,293.468z"/>
		<path d="M23.724,290.368l-12.484-7.16c-8.413-4.823-15.875,8.188-7.463,13.012l12.484,7.16
			C24.306,307.992,32.364,295.322,23.724,290.368z"/>
		<path d="M57.097,326.8l12.484,7.16c8.044,4.613,16.103-8.057,7.463-13.012l-12.484-7.16
			C56.147,308.966,48.684,321.976,57.097,326.8z"/>
		<path d="M60.835,304.374c1.266,0,2.548-0.32,3.725-0.995l12.484-7.16c8.412-4.824,0.95-17.833-7.463-13.012l-12.484,7.16
			C51.073,293.822,53.1,304.374,60.835,304.374z"/>
		<path d="M16.261,313.789l-12.484,7.16c-8.64,4.954-0.581,17.626,7.463,13.012l12.484-7.16
			C32.137,321.976,24.673,308.965,16.261,313.789z"/>
		<path d="M214.186,423.833h-28.5c-9.697,0-9.697,15,0,15h28.5C223.884,438.833,223.884,423.833,214.186,423.833z"/>
		<path d="M75.353,423.833H46.509c-9.697,0-9.697,15,0,15h28.844C85.05,438.833,85.05,423.833,75.353,423.833z"/>
		<path d="M102.201,389.748c5.254,0,9.204-6.517,6.499-11.232l-13.766-24.002c-4.824-8.412-17.837-0.949-13.012,7.463l13.766,24.002
			C97.075,388.396,99.602,389.748,102.201,389.748z"/>
		<path d="M165.007,476.689c-4.826-8.41-17.837-0.949-13.012,7.463l13.766,24.002c5.135,8.954,17.629,0.586,13.012-7.463
			L165.007,476.689z"/>
		<path d="M105.926,473.914c-3.594-2.06-8.177-0.817-10.237,2.774l-13.766,24.002c-4.617,8.049,7.876,16.417,13.012,7.463
			l13.766-24.002C110.761,480.559,109.519,475.975,105.926,473.914z"/>
		<path d="M158.494,389.748c2.599,0,5.127-1.354,6.513-3.77l13.766-24.002c4.826-8.412-8.188-15.874-13.012-7.463l-13.766,24.002
			C149.29,383.232,153.24,389.748,158.494,389.748z"/>
		<path d="M168.577,453.405c1.486-2.574,1.312-5.782-0.443-8.181l-10.169-13.891l10.169-13.891
			c4.111-5.617-1.121-12.498-6.863-11.887l-17.115,1.861l-6.945-15.752c-2.58-5.852-11.145-5.852-13.726,0l-6.945,15.752
			l-17.115-1.861c-5.742-0.61-10.976,6.267-6.863,11.887l10.169,13.891l-10.169,13.892c-4.117,5.623,1.125,12.491,6.862,11.886
			l17.115-1.86l6.945,15.752c2.58,5.852,11.145,5.852,13.726,0l6.945-15.752l17.115,1.86
			C164.226,457.423,167.091,455.979,168.577,453.405z M140.319,439.745c-3.244-0.348-6.354,1.44-7.673,4.431l-2.298,5.212
			l-2.298-5.212c-1.208-2.741-3.915-4.475-6.859-4.475c-0.269,0-0.541,0.015-0.813,0.044l-5.664,0.616l3.365-4.598
			c1.931-2.638,1.931-6.222,0-8.86l-3.364-4.596l5.663,0.616c3.25,0.353,6.355-1.439,7.673-4.431l2.298-5.212l2.298,5.212
			c1.319,2.992,4.429,4.788,7.673,4.431l5.663-0.616l-3.365,4.596c-1.931,2.639-1.931,6.223,0,8.861l3.365,4.596L140.319,439.745z"
			/>
	</g>
</g>
<g>
</g>
<g>
</g>
<g>
</g>
<g>
</g>
<g>
</g>
<g>
</g>
<g>
</g>
<g>
</g>
<g>
</g>
<g>
</g>
<g>
</g>
<g>
</g>
<g>
</g>
<g>
</g>
<g>
</g>
</svg>
