<?xml version="1.0" encoding="iso-8859-1"?>
<!-- Generator: Adobe Illustrator 25.0.0, SVG Export Plug-In . SVG Version: 6.00 Build 0)  -->
<svg version="1.1" id="Layer_1" xmlns="http://www.w3.org/2000/svg" xmlns:xlink="http://www.w3.org/1999/xlink" x="0px" y="0px"
	 viewBox="0 0 512.051 512.051" style="enable-background:new 0 0 512.051 512.051;" xml:space="preserve">
<g>
	<g>
		<g>
			<g>
				<g>
					<g>
						<path style="fill:#6B8DF2;" d="M92.259,59.562L92.259,59.562c8.653,4.71,11.85,15.542,7.14,24.195L81.63,116.404
							L50.295,99.349l17.769-32.647C72.774,58.049,83.606,54.853,92.259,59.562z"/>
						<path style="fill:#FFE594;" d="M27.503,101.913c9.555-17.554,31.531-24.039,49.085-14.485s24.039,31.531,14.485,49.085
							s-59.288,75.037-76.842,65.482C-3.323,192.441,17.949,119.467,27.503,101.913z"/>
					</g>
					<g>
						<path style="fill:#6B8DF2;" d="M172.863,90.714L172.863,90.714c9.479,2.684,14.987,12.544,12.303,22.023l-10.725,37.871
							l-34.326-9.721l10.725-37.871C153.524,93.537,163.384,88.029,172.863,90.714z"/>
						<path style="fill:#F2A7D0;" d="M119.048,146.309c5.446-19.23,25.449-30.404,44.679-24.959
							c19.23,5.446,30.404,25.449,24.959,44.679c-5.446,19.23-41.269,86.269-60.499,80.823
							C108.957,241.407,113.603,165.539,119.048,146.309z"/>
						<path style="fill:#F294C7;" d="M163.727,121.35c-10.565-2.992-21.359-0.958-29.848,4.663
							c12.763,8.466,19.203,24.491,14.807,40.016c-3.24,11.441-17.234,39.806-32.088,59.76c2.077,11.172,5.719,19.402,11.589,21.064
							c19.23,5.446,55.054-61.594,60.499-80.823S182.957,126.796,163.727,121.35z"/>
					</g>
				</g>
				<g>
					<g>
						<path style="fill:#6B8DF2;" d="M419.754,59.562L419.754,59.562c-8.653,4.71-11.85,15.542-7.14,24.195l23.677,43.501
							l31.335-17.055l-23.677-43.501C439.24,58.049,428.407,54.853,419.754,59.562z"/>
						<path style="fill:#FFE594;" d="M484.51,101.913c-9.555-17.554-31.531-24.039-49.085-14.485s-24.04,31.531-14.485,49.085
							s59.288,75.037,76.842,65.482C515.336,192.441,494.064,119.467,484.51,101.913z"/>
					</g>
					<g>
						<path style="fill:#6B8DF2;" d="M339.15,90.714L339.15,90.714c-9.479,2.684-14.987,12.544-12.303,22.023l11.436,40.382
							l34.326-9.721l-11.436-40.382C358.489,93.537,348.629,88.029,339.15,90.714z"/>
						<path style="fill:#F2A7D0;" d="M392.965,146.309c-5.446-19.23-25.449-30.404-44.679-24.959
							c-19.23,5.446-30.404,25.449-24.959,44.679s41.269,86.269,60.499,80.823C403.057,241.407,398.411,165.539,392.965,146.309z"/>
						<path style="fill:#F294C7;" d="M392.965,146.309c-5.446-19.23-25.449-30.404-44.679-24.959
							c-3.705,1.049-7.106,2.643-10.152,4.663c6.962,4.61,12.377,11.631,14.831,20.296c3.783,13.36,7.178,54.052,2.451,79.48
							c10.112,13.583,20.622,23.27,28.411,21.064C403.057,241.407,398.411,165.539,392.965,146.309z"/>
					</g>
				</g>
				<g>
					<g>
						<path style="fill:#6B8DF2;" d="M256.151,101.177L256.151,101.177c9.852-0.043,17.873,7.908,17.916,17.76l0.078,46.507
							l-35.675,0.156l-0.078-46.507C238.348,109.242,246.299,101.22,256.151,101.177z"/>
						<path style="fill:#FFE594;" d="M219.819,169.492c-0.088-19.986,16.043-36.259,36.029-36.346s36.259,16.043,36.346,36.029
							c0.088,19.986-15.789,94.32-35.775,94.407C236.433,263.67,219.906,189.478,219.819,169.492z"/>
					</g>
				</g>
			</g>
			<g>
				<g>
					<g>
						<path style="fill:#6B8DF2;" d="M92.259,300.528L92.259,300.528c8.653,4.71,11.85,15.542,7.14,24.195l-19.965,36.682
							L48.099,344.35l19.965-36.682C72.774,299.015,83.606,295.818,92.259,300.528z"/>
						<path style="fill:#F2A7D0;" d="M27.503,342.879c9.555-17.554,31.531-24.04,49.085-14.485s24.039,31.531,14.485,49.085
							s-59.288,75.037-76.842,65.482C-3.323,433.406,17.949,360.433,27.503,342.879z"/>
						<path style="fill:#F294C7;" d="M76.588,328.394c-12.184-6.632-26.495-5.53-37.307,1.63
							c15.498,10.251,20.84,30.832,11.792,47.455c-5.576,10.246-24.839,34.089-43.403,50.271c0.545,7.459,2.525,13.015,6.561,15.212
							c17.554,9.555,67.287-47.928,76.842-65.482C100.628,359.924,94.143,337.948,76.588,328.394z"/>
					</g>
					<g>
						<path style="fill:#6B8DF2;" d="M172.863,331.679L172.863,331.679c9.479,2.684,14.987,12.544,12.303,22.023l-11.81,41.703
							l-34.326-9.721l11.81-41.703C153.524,334.503,163.384,328.995,172.863,331.679z"/>
						<path style="fill:#FFE594;" d="M119.048,387.275c5.446-19.23,25.449-30.404,44.679-24.959s30.404,25.449,24.959,44.679
							c-5.446,19.23-41.269,86.269-60.499,80.823S113.603,406.504,119.048,387.275z"/>
					</g>
				</g>
				<g>
					<g>
						<path style="fill:#6B8DF2;" d="M419.754,300.528L419.754,300.528c-8.653,4.71-11.85,15.542-7.14,24.195l19.798,36.375
							l31.335-17.055l-19.798-36.375C439.24,299.015,428.407,295.818,419.754,300.528z"/>
						<path style="fill:#F2A7D0;" d="M484.51,342.879c-9.555-17.554-31.531-24.04-49.085-14.485s-24.04,31.531-14.485,49.085
							s59.288,75.037,76.842,65.482C515.336,433.406,494.064,360.433,484.51,342.879z"/>
						<path style="fill:#F294C7;" d="M484.51,342.879c-9.554-17.554-31.531-24.04-49.085-14.485
							c-0.931,0.507-1.824,1.056-2.693,1.63c4.766,3.156,8.855,7.484,11.778,12.855c7.357,13.518,21.659,59.892,19.833,84.87
							c13.243,11.543,26.13,19.19,33.439,15.212C515.336,433.406,494.064,360.433,484.51,342.879z"/>
					</g>
					<g>
						<path style="fill:#6B8DF2;" d="M339.15,331.679L339.15,331.679c-9.479,2.684-14.987,12.544-12.303,22.023l9.489,33.507
							l34.326-9.721l-9.489-33.507C358.489,334.503,348.629,328.995,339.15,331.679z"/>
						<path style="fill:#FFE594;" d="M392.965,387.275c-5.446-19.23-25.449-30.404-44.679-24.959
							c-19.23,5.446-30.404,25.449-24.959,44.679c5.446,19.23,41.269,86.269,60.499,80.823S398.411,406.504,392.965,387.275z"/>
					</g>
				</g>
				<g>
					<path style="fill:#6B8DF2;" d="M255.488,342.13L255.488,342.13c9.851-0.069,17.894,7.861,17.963,17.712l0.125,30.453
						l-35.675,0.251l-0.125-30.453C237.707,350.241,245.637,342.199,255.488,342.13z"/>
					<path style="fill:#F2A7D0;" d="M219.338,410.541c-0.141-19.986,15.947-36.301,35.933-36.442
						c19.986-0.141,36.301,15.947,36.442,35.933s-15.539,94.361-35.524,94.502C236.202,504.674,219.478,430.526,219.338,410.541z"/>
					<path style="fill:#F294C7;" d="M255.27,374.099c-7.302,0.051-14.078,2.269-19.738,6.029
						c9.679,6.434,16.092,17.407,16.18,29.904c0.089,12.616-6.128,46.903-15.752,70.511c5.839,13.853,12.808,24.043,20.227,23.991
						c19.986-0.141,35.665-74.516,35.524-94.502S275.256,373.958,255.27,374.099z"/>
				</g>
			</g>
		</g>
	</g>
	<g>
		<path d="M54.571,75.806c-13.742,1.514-26.559,9.485-33.655,22.521v0.001c-5.091,9.354-13.055,32.544-17.569,55.158
			c-6.194,31.03-3.806,49.053,7.3,55.098c17.248,9.383,39.603-13.458,50.232-23.784c16.541-16.068,31.691-35.347,36.783-44.701
			c6.909-12.695,6.842-27.339,1.118-39.513l7.155-13.146c12.105,5.745,24.572,10.815,37.236,15.134l-3.483,12.298
			c-13.069,4.509-23.812,15.114-27.856,29.395c-1.542,5.448-2.961,14.623-3.893,25.172c-0.851,9.657,14.088,10.982,14.942,1.318
			c0.839-9.512,2.104-17.888,3.383-22.403c4.31-15.221,20.198-24.096,35.419-19.787c14.987,4.244,24.052,20.353,19.786,35.42
			c-2.541,8.972-12.496,29.727-24.148,47.615c-16.306,25.03-25.52,28.472-27.091,28.036c-1.603-0.454-6.517-6.971-8.018-30.164
			c-0.628-9.68-15.595-8.707-14.969,0.969c1.698,26.235,7.88,40.506,18.899,43.627c18.685,5.297,35.659-21.866,43.747-34.28
			c12.587-19.322,23.111-41.468,26.013-51.715c3.736-13.193,0.799-28.012-7.618-38.821l3.921-13.844
			c12.777,2.369,25.733,4.032,38.689,4.967l0.022,13.196c-11.502,8.106-18.658,21.87-18.597,35.955
			c0.047,10.649,4.244,34.807,11.186,56.798c9.508,30.118,20.262,44.761,32.876,44.76c0.023,0,0.048,0,0.071,0
			c12.644-0.056,23.292-14.791,32.553-45.047c6.75-22.051,10.735-46.244,10.688-56.893c-0.06-13.731-6.999-27.169-18.103-35.226
			l-0.023-13.57c12.804-0.94,25.611-2.599,38.24-4.94l3.931,13.879c-8.269,10.612-11.566,24.88-7.628,38.787
			c2.901,10.247,13.425,32.393,26.012,51.716c8.215,12.611,24.881,39.63,43.747,34.28c12.165-3.445,18.471-20.497,19.276-52.128
			c0.587-23.055-2.064-47.429-4.967-57.676v0.001c-3.179-11.229-10.541-20.547-20.729-26.237c-2.303-1.287-4.692-2.342-7.135-3.185
			l-3.473-12.264c12.66-4.318,25.127-9.396,37.233-15.141l7.156,13.147c-5.723,12.174-5.79,26.818,1.12,39.513
			c5.091,9.354,20.241,28.632,36.782,44.7c10.627,10.324,32.987,33.171,50.232,23.783c11.104-6.044,13.492-24.066,7.299-55.097
			c-4.515-22.615-12.479-45.805-17.569-55.158c0-0.001,0-0.001-0.001-0.001c-7.095-13.036-19.911-21.008-33.653-22.522
			l-6.907-12.689c-0.118-0.217-0.245-0.425-0.368-0.637c21.454-14.269,41.52-30.974,59.724-49.756
			c2.883-2.975,2.809-7.723-0.166-10.605c-2.975-2.884-7.723-2.808-10.605,0.166c-18.371,18.955-38.711,35.702-60.495,49.833
			c-15.191-6.777-33.461,3.479-35.485,20.085c-13.551,6.625-27.607,12.359-41.897,17.093c-13.258-12.252-35.795-6.382-41.365,10.83
			c-13.903,2.701-28.049,4.524-42.174,5.444c-9.735-15.573-33.242-15.488-42.972,0.029c-14.27-0.91-28.556-2.746-42.6-5.474
			c-5.612-17.344-27.967-23.212-41.366-10.827c-14.295-4.738-28.347-10.473-41.896-17.096c-2.048-16.8-20.228-26.868-35.481-20.077
			C51.604,37.99,31.268,21.242,12.892,2.283C10.01-0.691,5.261-0.765,2.287,2.117C-0.688,5-0.761,9.748,2.121,12.722
			c18.211,18.789,38.277,35.495,59.738,49.767c-0.124,0.212-0.264,0.411-0.383,0.628L54.571,75.806z M84.486,132.927
			c-4.458,8.19-18.747,26.237-34.06,41.113c-21.429,20.817-31.175,22.156-32.61,21.367c-1.437-0.781-5.608-9.69,0.24-38.985
			c4.179-20.936,11.577-42.734,16.034-50.925v0.001c7.562-13.895,25.019-19.047,38.912-11.482
			C86.897,101.578,92.048,119.034,84.486,132.927z M274.663,221.645c-8.744,28.564-16.641,34.431-18.276,34.438
			c-0.001,0-0.002,0-0.003,0c-1.644-0.001-9.587-5.809-18.574-34.275c-6.427-20.359-10.45-43.024-10.49-52.349
			c-0.034-7.662,2.918-14.88,8.314-20.321c10.933-11.029,29.546-11.106,40.57-0.178c5.442,5.395,8.458,12.586,8.491,20.249
			C284.735,178.532,280.912,201.231,274.663,221.645z M385.749,148.352C385.749,148.353,385.749,148.353,385.749,148.352
			c2.54,8.972,4.946,31.864,4.402,53.207c-0.76,29.862-6.794,37.632-8.367,38.078c-1.575,0.438-10.784-3.004-27.092-28.036
			c-11.652-17.889-21.607-38.644-24.148-47.615c-4.311-15.22,4.565-31.108,19.785-35.42c2.595-0.734,5.235-1.098,7.859-1.098
			c4.833,0,9.613,1.233,13.948,3.655C378.827,134.861,383.661,140.979,385.749,148.352z M477.923,105.499L477.923,105.499
			c4.457,8.189,11.854,29.987,16.034,50.924c5.848,29.295,1.677,38.204,0.24,38.985c-1.438,0.787-11.185-0.553-32.61-21.367
			c-15.312-14.876-29.602-32.923-34.059-41.112c-7.562-13.895-2.411-31.351,11.481-38.912c4.345-2.365,9.037-3.486,13.667-3.486
			C462.852,90.53,472.724,95.949,477.923,105.499z M423.34,66.15c5.007-2.729,11.297-0.869,14.021,4.138l3.716,6.827
			c-3.149,0.871-6.249,2.099-9.239,3.726c-3.266,1.778-6.213,3.917-8.823,6.338l-3.814-7.007
			C416.476,75.166,418.333,68.875,423.34,66.15z M334.985,102.835c4.556-8.155,16.569-6.257,18.973,2.225l2.114,7.467
			c-3.289,0.163-6.583,0.688-9.83,1.608c-3.579,1.014-6.925,2.45-10.005,4.235l-2.174-7.677
			C333.311,108.037,333.638,105.246,334.985,102.835z M256.183,108.677c5.669,0,10.359,4.678,10.383,10.272l0.013,7.977
			c-3.416-0.845-6.958-1.281-10.566-1.281c-0.065,0-0.132,0-0.198,0c-3.382,0.015-6.699,0.423-9.911,1.179l-0.013-7.765
			C246.455,112.757,249.885,109.296,256.183,108.677z M170.82,97.929c5.901,2.286,8.277,6.541,7.13,12.764l-2.17,7.663
			c-3.11-1.795-6.464-3.218-10.009-4.221c-3.275-0.928-6.569-1.441-9.832-1.596l2.118-7.478
			C160.342,99.159,164.596,96.782,170.82,97.929z M88.674,66.15c5.007,2.725,6.863,9.016,4.138,14.021l-3.814,7.008
			c-2.61-2.421-5.557-4.56-8.824-6.339c-2.99-1.627-6.09-2.854-9.238-3.725l3.716-6.827C77.275,65.469,83.5,63.332,88.674,66.15z"/>
		<path d="M64.458,100.129c-12.012-2.642-23.933,4.98-26.574,16.99c-2.026,9.21,12.538,12.823,14.649,3.223
			c1.362-4.261,4.263-6.115,8.702-5.562c4.045,0.888,8.047-1.668,8.936-5.714C71.062,105.019,68.504,101.019,64.458,100.129z"/>
		<path d="M253.789,149.75c-12.122,2.076-20.294,13.626-18.219,25.747c0.626,3.654,3.797,6.235,7.384,6.235
			c0.42,0,0.847-0.035,1.274-0.108c4.083-0.699,6.826-4.575,6.127-8.658c-0.68-3.969,1.997-7.751,5.965-8.431
			c4.083-0.699,6.826-4.575,6.126-8.658C261.749,151.794,257.866,149.05,253.789,149.75z"/>
		<path d="M449.808,125.271c-3.194-3.132-3.547-6.556-1.059-10.273c2.614-3.214,2.127-7.938-1.086-10.551
			c-3.216-2.615-7.938-2.126-10.551,1.086c-7.76,9.542-6.311,23.616,3.23,31.375C447.71,142.899,457.431,131.471,449.808,125.271z"
			/>
		<path d="M507.274,387.928c-2.147-9.454-16.774-6.14-14.629,3.317c7.705,33.976,3.184,44.239,1.552,45.127
			c-1.438,0.784-11.181-0.549-32.61-21.366c-15.312-14.876-29.602-32.923-34.059-41.112c-7.562-13.895-2.412-31.351,11.481-38.913
			c13.893-7.562,31.35-2.412,38.913,11.483c0.722,1.326,1.939,3.809,3.638,8.1c3.57,9.016,17.517,3.497,13.947-5.52
			c-1.587-4.01-3.071-7.29-4.41-9.751c-7.096-13.037-19.912-21.01-33.655-22.524l-6.907-12.688
			c-0.118-0.217-0.245-0.425-0.368-0.637c21.454-14.269,41.518-30.973,59.724-49.756c2.883-2.974,2.809-7.723-0.166-10.605
			c-2.975-2.884-7.723-2.808-10.605,0.166c-18.374,18.956-38.711,35.703-60.493,49.834c-15.191-6.778-33.46,3.477-35.486,20.082
			c-13.548,6.624-27.601,12.36-41.895,17.097c-13.401-12.385-35.74-6.51-41.346,10.822c-14.098,2.74-28.443,4.581-42.774,5.488
			c-9.739-15.579-33.222-15.589-42.994-0.048c-14.077-0.923-28.168-2.748-42.02-5.439c-2.52-7.791-8.754-14.229-17.206-16.622
			c-8.453-2.396-17.694-0.159-24.139,5.798c-14.289-4.735-28.352-10.472-41.896-17.094c-0.958-7.859-5.559-15.161-13.027-19.226
			c-6.935-3.777-15.267-4.05-22.451-0.853c-21.783-14.13-42.123-30.879-60.501-49.839c-2.882-2.975-7.632-3.047-10.605-0.166
			c-2.975,2.883-3.048,7.632-0.166,10.605c18.212,18.79,38.281,35.497,59.738,49.766c-0.124,0.213-0.265,0.411-0.383,0.628
			l-6.905,12.687c-13.743,1.513-26.561,9.486-33.656,22.524c-5.091,9.354-13.055,32.544-17.569,55.158
			c-6.194,31.03-3.806,49.052,7.299,55.097c17.249,9.383,39.602-13.456,50.232-23.783c16.541-16.068,31.691-35.347,36.783-44.701
			c6.909-12.695,6.842-27.339,1.119-39.514l7.149-13.136c12.103,5.744,24.581,10.812,37.24,15.13l-3.482,12.294
			c-13.069,4.509-23.811,15.113-27.855,29.392c-2.902,10.248-5.553,34.623-4.966,57.677c0.806,31.631,7.111,48.683,19.277,52.128
			c18.685,5.297,35.659-21.866,43.747-34.281c12.587-19.322,23.111-41.468,26.013-51.715c3.736-13.193,0.799-28.011-7.618-38.82
			l3.921-13.845c12.574,2.331,25.322,3.979,38.071,4.922v13.34c-11.444,8.141-18.537,21.901-18.438,35.959
			c0.075,10.649,4.336,34.796,11.337,56.768c9.578,30.059,20.356,44.673,32.951,44.673c0.038,0,0.077,0,0.115,0
			c12.644-0.089,23.253-14.853,32.434-45.133c6.691-22.069,10.612-46.272,10.537-56.922c-0.097-13.754-7.097-27.203-18.261-35.22
			v-13.407c13.014-0.932,26.027-2.6,38.858-4.979l3.921,13.845c-8.421,10.813-11.358,25.619-7.618,38.82
			c2.901,10.247,13.424,32.394,26.012,51.716c8.215,12.611,24.881,39.631,43.747,34.281c12.165-3.445,18.471-20.497,19.276-52.128
			c0.587-23.055-2.064-47.43-4.967-57.677c-3.861-13.639-14.461-24.791-27.862-29.42l-3.476-12.272
			c12.664-4.32,25.132-9.388,37.236-15.132l7.155,13.145c-5.723,12.175-5.79,26.819,1.12,39.514
			c5.091,9.354,20.241,28.632,36.782,44.7c10.628,10.325,32.986,33.171,50.232,23.782
			C513.275,443.067,515.207,422.911,507.274,387.928z M423.34,307.116c5.007-2.728,11.297-0.869,14.021,4.138l3.716,6.827
			c-6.624,1.833-13.013,5.381-18.061,10.064l-3.814-7.007C416.476,316.132,418.333,309.841,423.34,307.116z M341.194,338.895
			c6.224-1.148,10.478,1.229,12.764,7.131l2.115,7.466c-3.289,0.163-6.583,0.688-9.83,1.608c-3.545,1.004-6.898,2.427-10.009,4.222
			l-2.17-7.663C332.511,346.175,335.709,340.449,341.194,338.895z M162.961,339.817c8.154-4.559,17.39,3.362,14.988,11.842
			l-2.17,7.663c-5.96-3.44-12.981-5.491-19.841-5.817l2.118-7.479C158.809,343.369,160.551,341.164,162.961,339.817z
			 M88.674,307.116c5.007,2.725,6.863,9.016,4.138,14.021l-3.814,7.007c-5.049-4.683-11.437-8.231-18.062-10.064l3.716-6.826
			C78.183,306.001,82.857,304.622,88.674,307.116z M84.486,373.893c-4.458,8.19-18.747,26.237-34.06,41.113
			c-21.426,20.814-31.176,22.154-32.61,21.366c-1.437-0.782-5.608-9.69,0.24-38.984c4.179-20.936,11.577-42.734,16.034-50.925
			C51.739,314.046,102.16,341.421,84.486,373.893z M181.47,404.951c-2.541,8.972-12.496,29.728-24.148,47.615
			c-16.306,25.031-25.52,28.485-27.091,28.037c-1.574-0.446-7.608-8.216-8.369-38.078c-0.543-21.343,1.862-44.235,4.403-53.207
			C136.322,353.803,191.551,369.355,181.47,404.951z M274.32,462.549c-8.668,28.588-16.549,34.474-18.185,34.485
			c-0.002,0-0.003,0-0.005,0c-1.647,0-9.604-5.793-18.664-34.227c-6.481-20.341-10.563-42.995-10.629-52.319
			c-0.111-15.631,12.946-28.78,28.485-28.889c15.563-0.218,28.78,12.972,28.889,28.485
			C284.277,419.409,280.514,442.118,274.32,462.549z M255.218,366.599c-3.393,0.024-6.722,0.443-9.942,1.214v-7.773
			c-0.094-13.341,20.579-13.522,20.675-0.198v8.009C262.478,367.003,258.879,366.577,255.218,366.599z M385.749,389.318
			c2.54,8.971,4.946,31.864,4.402,53.207c-0.76,29.862-6.794,37.632-8.367,38.078c-1.575,0.438-10.784-3.004-27.092-28.036
			c-11.653-17.889-21.607-38.645-24.148-47.616c-4.267-15.066,4.799-31.174,19.785-35.419
			C365.258,365.307,381.512,374.358,385.749,389.318z"/>
		<path d="M158.61,377.189c-12.104-2.18-23.725,5.885-25.91,17.987c-1.674,9.279,13.013,12.354,14.762,2.664
			c1.199-4.31,4.027-6.273,8.484-5.89c4.075,0.734,7.978-1.972,8.713-6.049C165.394,381.826,162.686,377.925,158.61,377.189z"/>
		<path d="M349.791,379.896c-10.371,5.9-14.311,19.949-8.357,30.414c5.107,8.98,17.623,0.641,13.037-7.418
			c-1.842-4.076-0.93-7.395,2.736-9.957c3.601-2.048,4.859-6.627,2.812-10.228C357.97,379.107,353.389,377.85,349.791,379.896z"/>
		<path d="M96.234,441.557c0-4.143-3.358-7.5-7.5-7.5H63.766c-9.697,0-9.697,15,0,15h24.967
			C92.876,449.057,96.234,445.7,96.234,441.557z"/>
		<path d="M89.777,457.487l-19.242,10.277c-8.373,4.471-1.303,17.706,7.066,13.23l19.242-10.277
			C105.398,466.15,98.329,452.914,89.777,457.487z"/>
		<path d="M208.389,471.321l-23.018-9.673c-8.939-3.764-14.75,10.072-5.812,13.828l23.018,9.673
			C211.182,488.77,217.296,475.063,208.389,471.321z"/>
		<path d="M175.333,482.843c-6.116-7.524-17.756,1.935-11.641,9.461l13.758,16.929c6.263,7.702,17.661-2.052,11.641-9.461
			L175.333,482.843z"/>
		<path d="M447.499,434.057h-24.967c-9.697,0-9.697,15,0,15h24.967C457.196,449.057,457.196,434.057,447.499,434.057z"/>
		<path d="M440.73,467.764l-19.242-10.277c-8.551-4.573-15.621,8.663-7.066,13.23l19.242,10.277
			C441.917,485.408,449.265,472.321,440.73,467.764z"/>
		<path d="M335.714,465.657c-1.605-3.819-6.005-5.616-9.819-4.009l-23.018,9.673c-8.8,3.697-2.829,17.467,5.811,13.828l23.018-9.673
			C335.524,473.872,337.318,469.475,335.714,465.657z"/>
		<path d="M346.483,481.754c-3.216-2.612-7.939-2.124-10.551,1.09l-13.758,16.929c-6.02,7.409,5.378,17.164,11.641,9.461
			l13.758-16.929C350.185,489.09,349.697,484.366,346.483,481.754z"/>
		<path d="M326.643,246.897c8.585,0,10.255-12.907,1.618-14.824l-24.374-5.409c-4.048-0.896-8.049,1.654-8.947,5.697
			c-0.897,4.044,1.653,8.05,5.697,8.947l24.374,5.409C325.559,246.839,326.105,246.897,326.643,246.897z"/>
		<path d="M297.792,249.311c-3.146-2.697-7.88-2.333-10.576,0.811c-2.696,3.145-2.333,7.879,0.811,10.576l16.559,14.201
			c7.246,6.211,17.2-5.008,9.766-11.387L297.792,249.311z"/>
		<path d="M217.24,231.968c-0.857-4.053-4.838-6.646-8.889-5.787l-24.427,5.163c-9.354,1.977-5.957,16.589,3.102,14.676
			l24.427-5.163C215.505,240.001,218.096,236.021,217.24,231.968z"/>
		<path d="M202.345,276.165c1.703,0,3.416-0.577,4.821-1.758l16.701-14.033c3.171-2.665,3.582-7.396,0.917-10.567
			c-2.665-3.172-7.396-3.581-10.567-0.917l-16.701,14.033C192.507,267.132,195.634,276.165,202.345,276.165z"/>
	</g>
</g>
<g>
</g>
<g>
</g>
<g>
</g>
<g>
</g>
<g>
</g>
<g>
</g>
<g>
</g>
<g>
</g>
<g>
</g>
<g>
</g>
<g>
</g>
<g>
</g>
<g>
</g>
<g>
</g>
<g>
</g>
</svg>
