<?xml version="1.0" encoding="iso-8859-1"?>
<!-- Generator: Adobe Illustrator 25.0.0, SVG Export Plug-In . SVG Version: 6.00 Build 0)  -->
<svg version="1.1" id="Layer_1" xmlns="http://www.w3.org/2000/svg" xmlns:xlink="http://www.w3.org/1999/xlink" x="0px" y="0px"
	 viewBox="0 0 512 512" style="enable-background:new 0 0 512 512;" xml:space="preserve">
<g>
	<g>
		<g>
			<path style="fill:#F2A7D0;" d="M455.705,504.5h-24.701c-30.476,0-55.181-24.71-55.181-55.192v0L256,298.621L136.177,449.308v0
				c0,30.482-24.706,55.192-55.181,55.192H56.295V207.243C56.295,96.928,145.706,7.5,256,7.5h0
				c110.294,0,199.705,89.428,199.705,199.743V504.5z"/>
			<g>
				<path style="fill:#F294C7;" d="M91.866,236.688l4.311,212.62v0c0,25.17-16.852,46.389-39.882,53.026v2.166h24.701
					c30.476,0,55.181-24.71,55.181-55.192v0l0-211.964L91.866,236.688z"/>
				<path style="fill:#F294C7;" d="M256,7.5L256,7.5c-6.751,0-13.422,0.34-20,0.994C336.903,18.53,415.705,103.68,415.705,207.243
					v295.091c4.86,1.401,9.989,2.166,15.299,2.166h24.701V207.243C455.705,96.928,366.294,7.5,256,7.5z"/>
			</g>
			<path style="fill:#EB67A5;" d="M136.177,449.308V237.344h239.646v211.964l0,0C300.44,411.385,211.56,411.385,136.177,449.308
				L136.177,449.308z"/>
			<g>
				<path style="fill:#E34D94;" d="M335.823,237.344v195.778c13.639,4.281,27.023,9.657,40,16.186l0,0V237.344H335.823z"/>
			</g>
		</g>
	</g>
	<g>
		<path d="M256,0c-42.783,0-83.853,12.934-118.769,37.402c-7.941,5.565,0.666,17.847,8.609,12.283C178.221,26.994,216.313,15,256,15
			c105.982,0,192.205,86.24,192.205,192.243V497h-17.2c-26.292,0-47.682-21.395-47.682-47.692V201.711c0-9.697-15-9.697-15,0v28.133
			h-33.087v-68.976c0-9.697-15-9.697-15,0v68.976h-21.788v-43.845c0-9.697-15-9.697-15,0v43.845h-81.567V173.58
			c0-9.697-15-9.697-15,0v56.264h-43.204v-28.133c0-9.697-15-9.697-15,0v247.597c0,19.788-12.113,36.797-29.311,44.006v-95.823
			c0-4.143-3.357-7.5-7.5-7.5s-7.5,3.357-7.5,7.5v99.376C77.549,497.347,70.623,497,63.795,497V207.243
			c0-46.453,16.786-91.296,47.268-126.268c6.371-7.311-4.936-17.165-11.309-9.855c-32.861,37.703-50.959,86.046-50.959,136.123
			V504.5c0,4.143,3.357,7.5,7.5,7.5h24.7c32.956,0,60.034-25.576,62.482-57.921c48.683-23.494,102.509-31.118,155.962-22.033
			c9.563,1.638,12.071-13.164,2.514-14.787c-54.097-9.197-108.562-2.216-158.275,20.17V244.844h224.646v192.593
			c-8.581-3.854-17.381-7.275-26.277-10.218c-9.208-3.038-13.916,11.197-4.709,14.242c10.621,3.512,21.092,7.75,31.186,12.616
			C370.97,486.423,398.048,512,431.005,512h24.7c4.143,0,7.5-3.357,7.5-7.5V207.243C463.205,92.969,370.253,0,256,0z"/>
		<path d="M84.366,340.996v22.091c0,4.143,3.357,7.5,7.5,7.5s7.5-3.357,7.5-7.5v-22.091c0-4.143-3.357-7.5-7.5-7.5
			S84.366,336.854,84.366,340.996z"/>
		<path d="M410.645,409.36c0,4.143,3.357,7.5,7.5,7.5s7.5-3.357,7.5-7.5v-66.034c0-4.143-3.357-7.5-7.5-7.5s-7.5,3.357-7.5,7.5
			V409.36z"/>
		<path d="M418.145,316.421c4.143,0,7.5-3.357,7.5-7.5v-57.469c0-4.143-3.357-7.5-7.5-7.5s-7.5,3.357-7.5,7.5v57.469
			C410.645,313.063,414.002,316.421,418.145,316.421z"/>
	</g>
</g>
<g>
</g>
<g>
</g>
<g>
</g>
<g>
</g>
<g>
</g>
<g>
</g>
<g>
</g>
<g>
</g>
<g>
</g>
<g>
</g>
<g>
</g>
<g>
</g>
<g>
</g>
<g>
</g>
<g>
</g>
</svg>
