<?xml version="1.0" encoding="iso-8859-1"?>
<!-- Generator: Adobe Illustrator 25.0.0, SVG Export Plug-In . SVG Version: 6.00 Build 0)  -->
<svg version="1.1" id="Layer_1" xmlns="http://www.w3.org/2000/svg" xmlns:xlink="http://www.w3.org/1999/xlink" x="0px" y="0px"
	 viewBox="0 0 511.773 511.773" style="enable-background:new 0 0 511.773 511.773;" xml:space="preserve">
<g>
	<g>
		<g>
			<path style="fill:#41CCB4;" d="M488.14,129.036C488.14,61.914,433.721,7.5,366.593,7.5S245.045,61.914,245.045,129.036
				c0,74.664,41.763,127.894,97.245,151.577c4.39,1.874,7.297,6.116,7.297,10.888c-1.093,5.051-4.8,6.22-8.217,9.626
				c-5.667,5.651-4.609,15.469,3.173,19.565c4.678,2.462,10.451,1.364,14.182-2.381l0.262-0.263
				c4.198-4.214,11.023-4.211,15.217,0.007l0.035,0.035c4.274,4.297,11.115,5.142,16.03,1.595c6.275-4.529,6.79-13.328,1.545-18.558
				c-3.359-3.349-7.456-4.546-8.375-9.559c0-4.783,2.918-9.03,7.321-10.899C446.31,257.09,488.14,203.701,488.14,129.036z"/>
			<path style="fill:#0FBA9D;" d="M390.761,280.671c55.549-23.581,97.378-76.97,97.378-151.634
				C488.14,61.914,433.721,7.5,366.593,7.5c-6.813,0-13.492,0.57-20,1.647c57.611,9.538,101.547,59.579,101.547,119.889
				c0,74.664-41.83,128.053-97.378,151.634c-1.635,0.694-3.064,1.717-4.216,2.973c1.913,2.117,3.042,4.885,3.042,7.859
				c-0.527,2.436-1.665,3.967-3.082,5.283c1.6,1.427,3.554,2.592,5.31,4.343c5.245,5.23,4.73,14.029-1.545,18.558
				c-1.177,0.85-2.467,1.441-3.803,1.799c4.259,1.326,9.026,0.073,12.26-3.173l0.262-0.263c4.198-4.214,11.023-4.211,15.217,0.007
				l0.035,0.035c4.274,4.297,11.115,5.142,16.03,1.595c6.275-4.529,6.79-13.328,1.545-18.558c-3.359-3.349-7.456-4.546-8.375-9.559
				C383.44,286.787,386.358,282.54,390.761,280.671z"/>
		</g>
		<g>
			<g>
				<path style="fill:#FFCA21;" d="M272.438,300.371l53.084-51.744c11.31-11.025,5.069-30.233-10.561-32.505l-73.36-10.66
					c-6.207-0.902-11.573-4.8-14.348-10.425l-32.808-66.475c-6.99-14.164-27.187-14.164-34.177,0l-32.808,66.475
					c-2.776,5.624-8.141,9.523-14.348,10.425l-73.36,10.66c-15.631,2.271-21.872,21.48-10.561,32.505l53.084,51.744
					c4.491,4.378,6.541,10.686,5.481,16.868l-12.531,73.063c-2.67,15.567,13.67,27.439,27.65,20.089l48.148-25.313
					c4.251-2.235,9.355,0.848,9.355,5.651v0.02c0,2.154-1.096,4.152-2.891,5.342c-2.305,1.527-4.199,2.99-5.314,4.102
					c-5.659,5.643-4.602,15.448,3.169,19.538c4.671,2.458,10.435,1.362,14.16-2.378l0.254-0.255c4.193-4.209,11.008-4.209,15.201,0
					l0.043,0.044c4.269,4.285,11.096,5.124,15.999,1.583c6.264-4.523,6.778-13.309,1.541-18.531
					c-1.139-1.136-3.09-2.636-5.461-4.198c-1.794-1.182-2.892-3.173-2.901-5.321v0c-0.021-4.815,5.093-7.919,9.355-5.678
					l48.305,25.396c13.98,7.35,30.32-4.522,27.65-20.089l-12.531-73.063C265.897,311.056,267.946,304.749,272.438,300.371z"/>
				<g>
					<path style="fill:#F2BB0C;" d="M325.521,248.627c11.311-11.025,5.069-30.233-10.561-32.505l-73.36-10.66
						c-6.207-0.902-11.573-4.8-14.348-10.425l-32.808-66.475c-6.99-14.164-27.187-14.164-34.177,0l-2.911,5.899l29.896,60.576
						c2.776,5.624,8.141,9.523,14.348,10.425l73.36,10.66c15.631,2.271,21.872,21.48,10.561,32.505l-53.084,51.744
						c-4.491,4.378-6.541,10.686-5.48,16.867l12.531,73.063c0.794,4.627-0.102,8.922-2.106,12.489l14.456,7.6
						c13.98,7.35,30.32-4.522,27.65-20.089l-12.531-73.063c-1.06-6.182,0.989-12.49,5.48-16.867L325.521,248.627z"/>
				</g>
			</g>
		</g>
	</g>
	<g>
		<path d="M366.592,0c-71.156,0-129.047,57.886-129.047,129.036c0,25.181,4.554,48.733,13.524,70.224l-8.39-1.219
			c-3.765-0.548-7.019-2.911-8.702-6.322l-32.807-66.476c-9.561-19.371-38.068-19.371-47.629,0l-7.644,15.486
			c-4.292,8.696,9.16,15.336,13.451,6.639l7.644-15.486c4.175-8.458,16.552-8.458,20.727,0l32.807,66.477
			c3.87,7.838,11.345,13.269,19.996,14.526l73.36,10.659c9.334,1.358,13.157,13.129,6.403,19.713l-53.083,51.744
			c-6.26,6.103-9.115,14.89-7.637,23.505l12.531,73.063c1.593,9.297-8.42,16.569-16.769,12.183l-48.307-25.396
			c-8.257-4.341-17.306,0.474-19.466,8.924c-2.443,9.56,3.85,12.394,9.689,18.223c4.567,4.553-2.619,10.673-6.975,6.301
			c-3.446-3.46-8.033-5.365-12.915-5.364c-4.883,0-9.469,1.905-12.903,5.354c-3.757,1.348-12.949-0.342-6.981-6.293
			c5.806-5.797,11.985-8.71,9.516-18.188c-2.194-8.423-11.215-13.204-19.457-8.874l-48.147,25.312
			c-8.349,4.386-18.362-2.886-16.769-12.183l12.531-73.062c1.479-8.617-1.377-17.405-7.637-23.506l-53.083-51.744
			c-6.754-6.584-2.929-18.355,6.404-19.713l73.36-10.659c8.65-1.258,16.125-6.688,19.995-14.527l7.796-15.796
			c4.291-8.697-9.158-15.333-13.451-6.639l-7.796,15.795c-1.684,3.412-4.938,5.775-8.701,6.323L38.673,208.7
			c-21.379,3.106-30.185,30.219-14.719,45.298l53.084,51.744c2.724,2.655,3.966,6.479,3.323,10.229L67.83,389.034
			c-3.653,21.292,19.412,38.045,38.532,27.995l39.072-20.542c-12.981,16.182,5.748,39.446,24.421,29.783V504.5
			c0,9.697,15,9.697,15,0v-78.33c18.311,9.306,37.554-13.359,24.427-29.678l39.065,20.538c19.121,10.049,42.184-6.703,38.533-27.995
			l-12.532-73.064c-0.643-3.749,0.6-7.572,3.324-10.229l34.008-33.15c8.685,5.768,17.967,10.781,27.665,14.919
			c6.34,2.709-1.394,6.436-3.271,8.308c-15.311,15.267,3.122,41.722,23.018,31.405v42.573c0,8.084,2.936,16.103,8.266,22.579
			c9.407,11.428,3.206,23.818-5.93,32.495c-19.384,18.41-19.402,41.906-0.001,60.335c6.203,5.892,10.685,10.148,10.685,19.294
			c0,9.697,15,9.697,15,0c0-15.586-8.514-23.672-15.354-30.17c-13.194-12.532-13.37-25.883,0-38.582
			c14.981-14.228,21.708-35.258,7.183-52.905c-3.126-3.798-4.848-8.431-4.848-13.046v-42.672
			c25.748,13.119,35.129-21.137,16.938-36.408c0.887-1.048,1.775-2.095,2.662-3.143c17.765-7.541,33.862-17.828,47.845-30.575
			c7.167-6.533-2.939-17.619-10.105-11.086c-12.729,11.604-27.398,20.976-43.601,27.854c-18.876,8.013-11.09,22.923-1.311,32.673
			c4.581,4.567-2.634,10.718-6.997,6.328c-6.979-7.019-18.863-7.023-25.849-0.012c-7.807,2.485-10.827-3.461-4.661-8.306
			c10.991-8.63,10.318-24.72-3.778-30.735c-7.855-3.353-15.408-7.331-22.543-11.857l8.065-7.862
			c15.469-15.077,6.659-42.192-14.718-45.297l-47.349-6.88c-10.706-21.825-16.144-46.288-16.144-72.784
			C252.545,66.156,303.706,15,366.592,15S480.64,66.156,480.64,129.036c0,30.455-7.131,58.125-21.195,82.24
			c-4.681,8.026,7.766,16.458,12.957,7.557c15.42-26.439,23.238-56.651,23.238-89.797C495.64,57.886,437.749,0,366.592,0z"/>
		<path d="M309.979,53.46c-34.186,18.99-39.173,57.836-39.368,59.48c-1.111,9.342,13.677,11.551,14.893,1.792
			c0.041-0.328,4.398-32.961,31.759-48.159C325.739,61.864,318.457,48.754,309.979,53.46z"/>
		<path d="M108.828,316.844l-7.642,45.014c-1.579,9.295,13.141,12.222,14.789,2.51l7.642-45.014
			C125.24,309.794,110.451,307.281,108.828,316.844z"/>
	</g>
</g>
<g>
</g>
<g>
</g>
<g>
</g>
<g>
</g>
<g>
</g>
<g>
</g>
<g>
</g>
<g>
</g>
<g>
</g>
<g>
</g>
<g>
</g>
<g>
</g>
<g>
</g>
<g>
</g>
<g>
</g>
</svg>
