<?xml version="1.0" encoding="iso-8859-1"?>
<!-- Generator: Adobe Illustrator 25.0.0, SVG Export Plug-In . SVG Version: 6.00 Build 0)  -->
<svg version="1.1" id="Layer_1" xmlns="http://www.w3.org/2000/svg" xmlns:xlink="http://www.w3.org/1999/xlink" x="0px" y="0px"
	 viewBox="0 0 511.773 511.773" style="enable-background:new 0 0 511.773 511.773;" xml:space="preserve">
<g>
	<g>
		<g>
			<path style="fill:#EBF7FF;" d="M300.023,136.631c24.424,2.836,47.405,8.057,68.224,15.241
				c-6.618-18.683-14.818-35.583-24.298-50.158c-17.699-9.57-37.132-16.334-57.703-19.723
				C291.597,96.731,296.266,115.261,300.023,136.631z"/>
			<path style="fill:#EBF7FF;" d="M300.023,393.499c-3.757,21.37-8.426,39.9-13.777,54.641
				c20.571-3.389,40.004-10.153,57.703-19.723c9.48-14.575,17.68-31.475,24.298-50.158
				C347.428,385.442,324.447,390.663,300.023,393.499z"/>
			<path style="fill:#EBF7FF;" d="M384.068,220.624c21.318,3.679,39.862,8.262,54.724,13.521
				c-3.51-20.933-10.519-40.676-20.411-58.608c-14.642-9.252-31.522-17.242-50.134-23.665
				C375.659,172.797,381.084,195.959,384.068,220.624z"/>
			<path style="fill:#EBF7FF;" d="M384.068,309.506c-2.984,24.665-8.41,47.827-15.821,68.752
				c18.613-6.423,35.493-14.413,50.134-23.665c9.893-17.932,16.901-37.676,20.411-58.608
				C423.93,301.244,405.386,305.827,384.068,309.506z"/>
		</g>
		<g>
			<g>
				<path style="fill:#FFCA21;" d="M286.246,90.455h-60.716V64.046c0-11.346,9.198-20.544,20.544-20.544h19.628
					c11.346,0,20.544,9.198,20.544,20.544V90.455z"/>
			</g>
			<g>
				<g>
					<g>
						<ellipse style="fill:#B5C8FF;" cx="255.888" cy="265.065" rx="185.483" ry="185.563"/>
						<path style="fill:#9CB5FF;" d="M255.888,79.502c-6.758,0-13.429,0.372-20,1.076c93.032,9.98,165.483,88.764,165.483,184.486
							c0,95.722-72.451,174.506-165.483,184.486c6.571,0.705,13.242,1.076,20,1.076c102.439,0,185.483-83.079,185.483-185.562
							S358.327,79.502,255.888,79.502z"/>
						<g>
							<path style="fill:#EBF7FF;" d="M211.689,136.987c3.768-21.521,8.46-40.174,13.841-54.997
								c-20.571,3.389-40.004,10.154-57.703,19.723c-9.676,14.876-18.018,32.177-24.705,51.322
								C163.968,145.549,187.075,140.055,211.689,136.987z"/>
							<path style="fill:#EBF7FF;" d="M211.689,393.143c-24.614-3.068-47.72-8.562-68.568-16.048
								c6.687,19.145,15.029,36.445,24.705,51.322c17.699,9.57,37.132,16.335,57.703,19.723
								C220.149,433.317,215.457,414.664,211.689,393.143z"/>
							<g>
								<path style="fill:#EBF7FF;" d="M300.023,136.631c24.424,2.836,47.405,8.057,68.224,15.241
									c-6.618-18.683-14.818-35.583-24.298-50.158c-17.699-9.57-37.132-16.334-57.703-19.723
									C291.597,96.731,296.266,115.261,300.023,136.631z"/>
								<path style="fill:#EBF7FF;" d="M300.023,393.499c-3.757,21.37-8.426,39.9-13.777,54.641
									c20.571-3.389,40.004-10.153,57.703-19.723c9.48-14.575,17.68-31.475,24.298-50.158
									C347.428,385.442,324.447,390.663,300.023,393.499z"/>
								<path style="fill:#EBF7FF;" d="M384.068,220.624c21.318,3.679,39.862,8.262,54.724,13.521
									c-3.51-20.933-10.519-40.676-20.411-58.608c-14.642-9.252-31.522-17.242-50.134-23.665
									C375.659,172.797,381.084,195.959,384.068,220.624z"/>
								<path style="fill:#EBF7FF;" d="M384.068,309.506c-2.984,24.665-8.41,47.827-15.821,68.752
									c18.613-6.423,35.493-14.413,50.134-23.665c9.893-17.932,16.901-37.676,20.411-58.608
									C423.93,301.244,405.386,305.827,384.068,309.506z"/>
							</g>
							<path style="fill:#EBF7FF;" d="M127.648,221.147c2.916-24.404,8.219-47.344,15.473-68.111
								c-19.217,6.901-36.507,15.494-51.303,25.425c-9.234,17.472-15.76,36.593-19.022,56.811
								C87.476,229.789,106.087,225.001,127.648,221.147z"/>
							<path style="fill:#EBF7FF;" d="M127.648,308.983c-21.561-3.853-40.172-8.642-54.852-14.125
								c3.262,20.218,9.788,39.339,19.022,56.811c14.796,9.931,32.086,18.525,51.303,25.425
								C135.867,356.327,130.564,333.387,127.648,308.983z"/>
							<path style="fill:#EBF7FF;" d="M257.344,210.796c17.636,0,34.784,0.511,51.225,1.471c-1.664-27.616-4.6-53.195-8.546-75.637
								c-13.81-1.604-28.076-2.453-42.679-2.453c-15.654,0-30.923,0.972-45.655,2.809c-3.923,22.403-6.84,47.919-8.493,75.456
								C220.523,211.369,238.66,210.796,257.344,210.796z"/>
							<path style="fill:#EBF7FF;" d="M257.344,319.334c-18.684,0-36.821-0.573-54.148-1.647c1.653,27.537,4.57,53.053,8.493,75.456
								c14.732,1.836,30.002,2.809,45.655,2.809c14.603,0,28.869-0.849,42.679-2.453c3.946-22.442,6.882-48.02,8.546-75.637
								C292.128,318.822,274.98,319.334,257.344,319.334z"/>
							<path style="fill:#EBF7FF;" d="M384.068,220.624c-22.455-3.876-47.978-6.749-75.499-8.356
								c1.019,16.919,1.564,34.598,1.564,52.797c0,18.199-0.544,35.878-1.564,52.797c27.521-1.607,53.044-4.48,75.499-8.356
								c1.737-14.356,2.65-29.218,2.65-44.441S385.805,234.98,384.068,220.624z"/>
							<path style="fill:#EBF7FF;" d="M201.642,265.065c0-18.136,0.541-35.756,1.553-52.622c-27.623,1.712-53.17,4.704-75.548,8.704
								c-1.696,14.194-2.59,28.88-2.59,43.918c0,15.039,0.894,29.724,2.59,43.918c22.378,4,47.925,6.992,75.548,8.704
								C202.183,300.821,201.642,283.201,201.642,265.065z"/>
						</g>
						<path style="fill:#D9EDFA;" d="M343.949,101.714c-17.76-9.687-37.675-16.756-57.703-19.723
							c1.489,4.102,2.923,8.508,4.302,13.177c27.685,12.193,51.822,30.955,70.443,54.317c2.444,0.772,4.868,1.563,7.256,2.387
							C361.629,133.189,353.429,116.288,343.949,101.714z"/>
						<path style="fill:#D9EDFA;" d="M360.991,380.645c-18.62,23.363-42.758,42.125-70.443,54.317
							c-1.379,4.669-2.813,9.075-4.302,13.177c20.079-2.975,39.877-10.085,57.703-19.723c9.479-14.575,17.68-31.475,24.298-50.158
							C365.859,379.082,363.434,379.873,360.991,380.645z"/>
						<path style="fill:#D9EDFA;" d="M438.094,230.235c-3.83-19.149-10.271-37.582-19.713-54.698
							c-14.642-9.252-31.522-17.242-50.134-23.665c1.663,4.695,3.22,9.508,4.678,14.419c10.826,17.189,18.908,36.279,23.637,56.658
							c16.118,3.223,30.353,6.992,42.232,11.196C438.573,232.837,438.34,231.534,438.094,230.235z"/>
						<path style="fill:#D9EDFA;" d="M420.065,351.465c9.145-17.345,15.485-36.142,18.728-55.48
							c-11.878,4.203-26.114,7.973-42.232,11.196c-4.728,20.379-12.81,39.469-23.637,56.658c-1.458,4.912-3.015,9.725-4.678,14.419
							c18.613-6.423,35.492-14.413,50.134-23.665C418.948,353.554,419.509,352.511,420.065,351.465z"/>
					</g>
				</g>
			</g>
		</g>
	</g>
	<g>
		<path d="M165.163,94.711c-0.61,0.231-1.191,0.542-1.728,0.93c-32.913,18.047-60.019,45.414-77.759,78.526
			c-0.358,0.513-0.648,1.063-0.866,1.639c-9.363,17.887-16.001,37.413-19.367,58.028c-0.034,0.175-0.066,0.35-0.088,0.527
			c-1.605,10.002-2.45,20.255-2.45,30.703c0,10.447,0.846,20.7,2.45,30.702c0.022,0.18,0.054,0.359,0.089,0.536
			c3.366,20.611,10.004,40.134,19.365,58.018c0.218,0.579,0.509,1.131,0.869,1.646c17.739,33.109,44.844,60.474,77.754,78.521
			c0.539,0.39,1.122,0.701,1.734,0.933c18.151,9.714,38.025,16.604,59.036,20.091c0.11,0.02,0.219,0.04,0.33,0.055
			c10.209,1.676,20.68,2.562,31.355,2.562s21.147-0.886,31.355-2.562c0.111-0.015,0.219-0.035,0.329-0.055
			c21.01-3.487,40.884-10.376,59.035-20.089c0.614-0.232,1.199-0.545,1.739-0.936c31.878-17.481,58.305-43.707,76.053-75.425
			c0.384-0.518,0.696-1.078,0.932-1.667c10.047-18.381,17.184-38.568,20.808-59.937c0.035-0.174,0.065-0.349,0.087-0.526
			c1.729-10.37,2.643-21.012,2.643-31.866c0-10.854-0.915-21.498-2.644-31.868c-0.022-0.173-0.051-0.344-0.085-0.515
			c-3.624-21.374-10.762-41.566-20.812-59.95c-0.236-0.585-0.545-1.141-0.926-1.656c-17.75-31.724-44.181-57.954-76.065-75.436
			c-0.536-0.387-1.116-0.697-1.725-0.928c-16.366-8.758-34.13-15.226-52.868-18.969V64.046c0-15.464-12.581-28.045-28.044-28.045
			h-2.314V7.5c0-4.143-3.358-7.5-7.5-7.5s-7.5,3.357-7.5,7.5v28.501h-2.314c-15.464,0-28.044,12.581-28.044,28.045v11.696
			C199.292,79.486,181.528,85.953,165.163,94.711z M338.747,107.516c6.259,9.853,11.915,20.729,16.877,32.507
			c-15.688-4.512-32.164-7.914-49.207-10.157c-2.633-14.066-5.651-26.763-9.013-37.961
			C311.959,95.398,325.82,100.684,338.747,107.516z M428.857,223.071c-11.269-3.314-23.998-6.283-38.053-8.866
			c-2.358-17.268-5.913-33.946-10.61-49.812c11.709,4.815,22.569,10.319,32.458,16.424
			C419.757,193.996,425.243,208.171,428.857,223.071z M412.65,349.314c-9.887,6.105-20.746,11.607-32.457,16.423
			c4.698-15.866,8.252-32.545,10.61-49.812c14.053-2.583,26.783-5.551,38.053-8.865C425.242,321.959,419.756,336.134,412.65,349.314
			z M297.405,438.224c3.362-11.198,6.38-23.895,9.013-37.96c17.043-2.243,33.519-5.646,49.207-10.157
			c-4.963,11.778-10.617,22.653-16.876,32.505C325.821,429.445,311.959,434.731,297.405,438.224z M362.341,372.305
			c-16.775,5.547-34.63,9.725-53.267,12.435c0.402-2.57,0.794-5.165,1.168-7.787c1.37-9.602-13.479-11.716-14.85-2.119
			c-0.571,4.005-1.178,7.96-1.812,11.817c-24.895,2.491-50.649,2.384-75.437-0.308c-3.071-18.718-5.39-39.074-6.912-60.688
			c29.236,1.516,59.928,1.565,89.301,0.146c-0.23,3.241-0.481,6.492-0.751,9.728c-0.806,9.659,14.14,10.921,14.948,1.246
			c0.329-3.941,0.619-7.897,0.89-11.842c21.091-1.401,41.083-3.545,59.644-6.398C372.428,337.366,368.087,355.388,362.341,372.305z
			 M173.028,422.613c-6.431-10.123-12.222-21.323-17.282-33.474c15.751,4.72,32.335,8.311,49.534,10.721
			c2.649,14.223,5.693,27.055,9.089,38.364C199.816,434.731,185.955,429.445,173.028,422.613z M82.688,306.116
			c11.225,3.451,24.006,6.548,38.212,9.25c2.29,16.961,5.732,33.362,10.278,48.985c-12.195-5.221-23.413-11.196-33.528-17.832
			C91.11,333.856,86.049,320.311,82.688,306.116z M97.648,183.611c10.117-6.636,21.336-12.612,33.529-17.832
			c-4.546,15.623-7.988,32.024-10.278,48.985c-14.207,2.703-26.989,5.8-38.212,9.25C86.048,209.819,91.109,196.275,97.648,183.611z
			 M214.37,91.905c-3.396,11.31-6.44,24.142-9.09,38.365c-17.198,2.41-33.783,6.001-49.534,10.721
			c5.06-12.152,10.851-23.352,17.283-33.475C185.956,100.684,199.817,95.398,214.37,91.905z M210.316,310.561
			c-0.47-9.081-0.807-18.374-0.993-27.735c-0.187-9.427-15.193-9.576-14.997,0.297c0.177,8.933,0.484,17.816,0.917,26.513
			c-21.663-1.57-42.044-3.946-60.766-7.083c-1.275-12.329-1.92-24.914-1.92-37.488c0-12.573,0.646-25.157,1.92-37.488
			c18.723-3.137,39.104-5.512,60.765-7.082c-0.365,7.346-0.642,14.84-0.826,22.375c-0.238,9.699,14.759,10.053,14.995,0.367
			c0.195-7.984,0.499-15.914,0.9-23.667c29.82-1.602,61.167-1.656,91.121-0.153c0.78,14.973,1.199,30.282,1.199,45.649
			c0,15.366-0.419,30.675-1.199,45.648C271.482,312.216,240.135,312.163,210.316,310.561z M77.905,265.064
			c0-8.226,0.573-16.319,1.658-24.252c11.209-3.892,24.47-7.382,39.575-10.416c-1.046,11.441-1.581,23.059-1.581,34.668
			c0,11.61,0.534,23.229,1.581,34.669c-15.102-3.033-28.363-6.523-39.575-10.416C78.478,281.385,77.905,273.291,77.905,265.064z
			 M293.58,143.479c3.09,18.763,5.422,39.17,6.954,60.85c-29.374-1.419-60.066-1.367-89.303,0.146
			c1.522-21.613,3.841-41.971,6.912-60.689C242.913,141.099,268.675,140.987,293.58,143.479z M149.063,158.927
			c16.813-5.792,34.767-10.19,53.565-13.092c-2.882,18.502-5.059,38.465-6.494,59.561c-21.158,1.482-41.164,3.715-59.687,6.663
			C139.219,193.475,143.456,175.666,149.063,158.927z M196.135,324.733c1.434,21.096,3.611,41.06,6.494,59.561
			c-18.798-2.902-36.752-7.3-53.565-13.092c-5.607-16.738-9.844-34.548-12.615-53.133
			C154.969,321.017,174.975,323.251,196.135,324.733z M316.523,220.288c21.59,1.484,41.955,3.765,60.728,6.801
			c1.306,12.473,1.967,25.221,1.967,37.977c0,12.755-0.661,25.503-1.967,37.976c-18.772,3.036-39.138,5.316-60.728,6.801
			c0.737-14.7,1.11-29.724,1.11-44.776C317.633,250.012,317.26,234.988,316.523,220.288z M433.87,265.064
			c0,8.584-0.623,17.024-1.803,25.288c-11.323,3.735-24.552,7.075-39.482,9.968c1.08-11.619,1.633-23.435,1.633-35.255
			c0-11.821-0.552-23.636-1.633-35.255c14.93,2.893,28.159,6.234,39.482,9.969C433.247,248.041,433.87,256.481,433.87,265.064z
			 M315.627,205.197c-1.447-21.191-3.643-41.237-6.551-59.806c18.636,2.71,36.49,6.887,53.265,12.434
			c5.746,16.917,10.087,34.939,12.922,53.769C356.703,208.742,336.714,206.597,315.627,205.197z M280.656,88.734
			c3.797,11.238,7.2,24.448,10.155,39.425c-23.127-2.038-46.874-1.944-69.903,0.272c2.967-15.083,6.388-28.385,10.211-39.697
			C247.517,86.44,264.259,86.44,280.656,88.734z M146.63,124.599c-3.39,7.209-6.518,14.762-9.373,22.625
			c-7.865,2.936-15.415,6.15-22.615,9.634C123.895,144.797,134.648,133.948,146.63,124.599z M114.643,373.273
			c7.2,3.483,14.749,6.697,22.614,9.633c2.855,7.862,5.982,15.415,9.372,22.623C134.649,396.181,123.896,385.333,114.643,373.273z
			 M231.119,441.395c-3.822-11.312-7.243-24.614-10.21-39.697c12.023,1.16,24.235,1.754,36.436,1.754
			c11.186,0,22.401-0.499,33.467-1.477c-2.956,14.975-6.358,28.184-10.154,39.421c-8.098,1.133-16.364,1.732-24.769,1.732
			S239.217,442.527,231.119,441.395z M365.144,405.531c3.215-6.835,6.195-13.977,8.928-21.399
			c7.405-2.659,14.543-5.564,21.388-8.704C386.592,386.629,376.409,396.741,365.144,405.531z M395.462,154.703
			c-6.846-3.141-13.985-6.046-21.39-8.705c-2.734-7.422-5.714-14.564-8.929-21.4C376.409,133.388,386.593,143.501,395.462,154.703z
			 M246.074,51.001h19.628c7.193,0,13.044,5.852,13.044,13.045v9.317c-15.165-1.799-30.552-1.799-45.717,0v-9.317
			C233.029,56.853,238.881,51.001,246.074,51.001z"/>
		<path d="M174.229,55.123c3.251,8.939,17.411,3.98,14.096-5.129l-9.796-26.925c-3.314-9.113-17.412-3.984-14.096,5.129
			L174.229,55.123z"/>
		<path d="M109.925,95.274c6.356,7.579,17.644-2.307,11.493-9.639l-18.41-21.949c-6.231-7.431-17.725,2.209-11.493,9.639
			L109.925,95.274z"/>
		<path d="M38.423,140.682l24.803,14.326c8.031,4.641,16.125-8.009,7.502-12.988l-24.803-14.326
			C37.529,122.843,30.025,135.832,38.423,140.682z"/>
		<path d="M11.561,222.143l28.206,4.976c9.262,1.641,11.979-13.118,2.605-14.771l-28.206-4.976
			C4.616,205.678,2.013,220.458,11.561,222.143z"/>
		<path d="M48.457,294.219c-0.719-4.079-4.614-6.807-8.688-6.083l-28.206,4.976c-9.404,1.659-6.506,16.388,2.605,14.771
			l28.206-4.976C46.453,302.188,49.177,298.298,48.457,294.219z"/>
		<path d="M63.232,360.245l-24.803,14.326c-8.623,4.98-0.529,17.63,7.502,12.988l24.803-14.326
			C79.132,368.384,71.627,355.393,63.232,360.245z"/>
		<path d="M120.499,419.05c-3.174-2.662-7.904-2.246-10.566,0.927l-18.41,21.949c-6.151,7.332,5.137,17.217,11.493,9.639
			l18.41-21.949C124.088,426.442,123.673,421.711,120.499,419.05z"/>
		<path d="M183.852,455.641c-3.893-1.419-8.197,0.591-9.612,4.483l-9.796,26.925c-3.227,8.867,10.766,14.284,14.096,5.129
			l9.796-26.925C189.752,461.36,187.744,457.057,183.852,455.641z"/>
		<path d="M255.893,468.347c-4.142,0-7.5,3.357-7.5,7.5V504.5c0,9.697,15,9.697,15,0v-28.653
			C263.393,471.704,260.035,468.347,255.893,468.347z"/>
		<path d="M337.546,460.12c-3.314-9.113-17.412-3.984-14.096,5.129l9.796,26.925c3.251,8.939,17.411,3.98,14.096-5.129
			L337.546,460.12z"/>
		<path d="M401.85,419.969c-6.231-7.429-17.724,2.208-11.493,9.639l18.41,21.95c6.356,7.578,17.642-2.306,11.493-9.639
			L401.85,419.969z"/>
		<path d="M473.352,374.562l-24.803-14.326c-8.396-4.85-15.9,8.139-7.502,12.988l24.803,14.326
			C473.881,392.191,481.975,379.541,473.352,374.562z"/>
		<path d="M500.214,293.101l-28.206-4.976c-9.55-1.691-12.154,13.087-2.605,14.771l28.206,4.976
			C506.871,309.513,509.588,294.755,500.214,293.101z"/>
		<path d="M463.318,221.024c0.656,3.718,4.972,6.742,8.688,6.083l28.206-4.976c9.55-1.685,6.943-16.462-2.605-14.771l-28.206,4.976
			C465.322,213.056,462.599,216.945,463.318,221.024z"/>
		<path d="M444.799,156.005c1.273,0,2.563-0.324,3.744-1.007l24.803-14.326c8.398-4.849,0.893-17.841-7.502-12.988l-24.803,14.326
			C435.033,145.479,437.084,156.005,444.799,156.005z"/>
		<path d="M391.276,96.194c3.649,2.615,7.171,2.306,10.566-0.927l18.41-21.95c6.231-7.43-5.262-17.068-11.493-9.639l-18.41,21.95
			C387.687,88.803,388.102,93.533,391.276,96.194z"/>
		<path d="M327.923,59.603c3.61,1.316,8.286-0.836,9.612-4.483l9.796-26.925c3.316-9.112-10.78-14.243-14.096-5.129L323.44,49.99
			C322.023,53.883,324.031,58.187,327.923,59.603z"/>
	</g>
</g>
<g>
</g>
<g>
</g>
<g>
</g>
<g>
</g>
<g>
</g>
<g>
</g>
<g>
</g>
<g>
</g>
<g>
</g>
<g>
</g>
<g>
</g>
<g>
</g>
<g>
</g>
<g>
</g>
<g>
</g>
</svg>
