<?xml version="1.0" encoding="iso-8859-1"?>
<!-- Generator: Adobe Illustrator 25.0.0, SVG Export Plug-In . SVG Version: 6.00 Build 0)  -->
<svg version="1.1" id="Layer_1" xmlns="http://www.w3.org/2000/svg" xmlns:xlink="http://www.w3.org/1999/xlink" x="0px" y="0px"
	 viewBox="0 0 512.091 512.091" style="enable-background:new 0 0 512.091 512.091;" xml:space="preserve">
<g>
	<g>
		<g>
			<g>
				<path style="fill:#6B8DF2;" d="M250.259,504.5H37.57c-16.569,0-30-13.431-30-30v-437c0-16.569,13.431-30,30-30h212.689
					c16.569,0,30,13.431,30,30v437C280.259,491.069,266.827,504.5,250.259,504.5z"/>
				<path style="fill:#527BF2;" d="M250.259,7.5h-40c16.569,0,30,13.431,30,30v437c0,16.569-13.431,30-30,30h40
					c16.569,0,30-13.431,30-30v-437C280.259,20.931,266.827,7.5,250.259,7.5z"/>
				<g>
					<circle style="fill:#EBF7FF;" cx="143.914" cy="145.288" r="95.431"/>
					<circle style="fill:#B5C8FF;" cx="143.914" cy="145.288" r="57.924"/>
					<circle style="fill:#EBF7FF;" cx="143.914" cy="366.712" r="95.431"/>
					<circle style="fill:#B5C8FF;" cx="143.914" cy="366.712" r="57.924"/>
				</g>
			</g>
			<g>
				<g>
					<circle style="fill:#FFCA21;" cx="289.388" cy="255.56" r="36.419"/>
				</g>
				<path style="fill:#F2BB0C;" d="M289.388,219.14c-7.389,0-14.259,2.207-20,5.988c9.888,6.512,16.419,17.706,16.419,30.432
					c0,12.725-6.531,23.92-16.419,30.432c5.741,3.781,12.611,5.988,20,5.988c20.114,0,36.419-16.305,36.419-36.419
					S309.501,219.14,289.388,219.14z"/>
				<g>
					<circle style="fill:#FFCA21;" cx="380.013" cy="345.613" r="36.419"/>
					<path style="fill:#F2BB0C;" d="M380.013,309.194c-7.389,0-14.259,2.207-20,5.988c9.888,6.512,16.419,17.706,16.419,30.432
						c0,12.725-6.531,23.92-16.419,30.432c5.741,3.781,12.611,5.988,20,5.988c20.114,0,36.419-16.305,36.419-36.419
						S400.127,309.194,380.013,309.194z"/>
				</g>
			</g>
		</g>
	</g>
	<g>
		<path d="M69.532,85.041c-3.412-2.353-8.082-1.49-10.431,1.921c-11.853,17.205-18.118,37.373-18.118,58.326
			c0,56.757,46.175,102.932,102.931,102.932s102.931-46.175,102.931-102.932c0-56.756-46.175-102.931-102.931-102.931
			c-19.125,0-37.801,5.29-54.008,15.299c-8.251,5.094-0.369,17.858,7.881,12.762c13.836-8.544,29.787-13.061,46.126-13.061
			c48.485,0,87.931,39.445,87.931,87.931S192.4,233.22,143.914,233.22s-87.931-39.446-87.931-87.932
			c0-17.899,5.35-35.126,15.47-49.816C73.803,92.061,72.943,87.391,69.532,85.041z"/>
		<path d="M143.914,210.712c36.075,0,65.424-29.349,65.424-65.424s-29.349-65.424-65.424-65.424s-65.423,29.349-65.423,65.424
			S107.84,210.712,143.914,210.712z M143.914,94.864c27.804,0,50.424,22.62,50.424,50.424s-22.62,50.424-50.424,50.424
			s-50.423-22.62-50.423-50.424S116.111,94.864,143.914,94.864z"/>
		<path d="M143.914,469.643c56.756,0,102.931-46.175,102.931-102.931c0-56.757-46.175-102.932-102.931-102.932
			S40.984,309.955,40.984,366.712C40.984,423.468,87.158,469.643,143.914,469.643z M143.914,278.78
			c48.485,0,87.931,39.446,87.931,87.932s-39.446,87.931-87.931,87.931s-87.931-39.445-87.931-87.931S95.429,278.78,143.914,278.78z
			"/>
		<path d="M143.914,432.136c36.075,0,65.424-29.349,65.424-65.424s-29.349-65.424-65.424-65.424s-65.423,29.349-65.423,65.424
			S107.84,432.136,143.914,432.136z M143.914,316.288c27.804,0,50.424,22.62,50.424,50.424s-22.62,50.424-50.424,50.424
			s-50.423-22.62-50.423-50.424S116.111,316.288,143.914,316.288z"/>
		<path d="M143.914,126.414c9.652,0,9.668-15,0-15C134.263,111.414,134.247,126.414,143.914,126.414z"/>
		<path d="M143.914,152.788c9.652,0,9.668-15,0-15C134.263,137.788,134.247,152.788,143.914,152.788z"/>
		<path d="M143.914,179.163c9.652,0,9.668-15,0-15C134.263,164.163,134.247,179.163,143.914,179.163z"/>
		<path d="M168.852,141.1c9.652,0,9.668-15,0-15C159.201,126.1,159.185,141.1,168.852,141.1z"/>
		<path d="M168.852,167.474c9.652,0,9.668-15,0-15C159.201,152.474,159.185,167.474,168.852,167.474z"/>
		<path d="M118.977,141.1c9.652,0,9.668-15,0-15C109.325,126.1,109.309,141.1,118.977,141.1z"/>
		<path d="M118.977,167.474c9.652,0,9.668-15,0-15C109.325,152.474,109.309,167.474,118.977,167.474z"/>
		<path d="M143.914,347.837c9.652,0,9.668-15,0-15C134.263,332.837,134.247,347.837,143.914,347.837z"/>
		<path d="M143.914,374.212c9.652,0,9.668-15,0-15C134.263,359.212,134.247,374.212,143.914,374.212z"/>
		<path d="M143.914,400.586c9.652,0,9.668-15,0-15C134.263,385.586,134.247,400.586,143.914,400.586z"/>
		<path d="M168.852,362.523c9.652,0,9.668-15,0-15C159.201,347.523,159.185,362.523,168.852,362.523z"/>
		<path d="M168.852,388.898c9.652,0,9.668-15,0-15C159.201,373.898,159.185,388.898,168.852,388.898z"/>
		<path d="M118.977,362.523c9.652,0,9.668-15,0-15C109.325,347.523,109.309,362.523,118.977,362.523z"/>
		<path d="M118.977,388.898c9.652,0,9.668-15,0-15C109.325,373.898,109.309,388.898,118.977,388.898z"/>
		<path d="M331.094,106.647c-4.639-4.609-12.787-1.219-12.787,5.32v110.58c-7.732-6.782-17.85-10.907-28.919-10.907
			c-0.546,0-1.087,0.021-1.628,0.041V37.5c0-20.678-16.822-37.5-37.5-37.5H37.57C16.892,0,0.07,16.822,0.07,37.5v437
			c0,20.678,16.822,37.5,37.5,37.5h212.689c20.678,0,37.5-16.822,37.5-37.5v-52.508c0-4.143-3.358-7.5-7.5-7.5s-7.5,3.357-7.5,7.5
			V474.5c0,12.406-10.093,22.5-22.5,22.5H37.57c-12.407,0-22.5-10.094-22.5-22.5v-437c0-12.406,10.093-22.5,22.5-22.5h212.689
			c12.407,0,22.5,10.094,22.5,22.5v177.42c-15.994,6.569-27.291,22.307-27.291,40.64s11.296,34.071,27.291,40.64v85.833
			c0,4.143,3.358,7.5,7.5,7.5s7.5-3.357,7.5-7.5v-82.595c0.541,0.02,1.082,0.041,1.628,0.041c24.217,0,43.919-19.702,43.919-43.919
			V129.994l75.625,75.147v107.459c-7.732-6.782-17.85-10.907-28.919-10.907c-24.217,0-43.919,19.702-43.919,43.919
			s19.702,43.919,43.919,43.919c24.217,0,43.919-19.702,43.919-43.919V202.021c0-1.997-0.797-3.912-2.213-5.32L331.094,106.647z
			 M289.387,284.479c-15.946,0-28.919-12.973-28.919-28.919s12.973-28.919,28.919-28.919c15.946,0,28.919,12.973,28.919,28.919
			S305.334,284.479,289.387,284.479z M380.013,374.532c-15.946,0-28.919-12.973-28.919-28.919s12.973-28.919,28.919-28.919
			c15.946,0,28.919,12.973,28.919,28.919S395.959,374.532,380.013,374.532z"/>
		<path d="M474.096,420.724c-4.142,0-7.5,3.357-7.5,7.5V442.1c0,9.697,15,9.697,15,0v-13.876
			C481.596,424.081,478.238,420.724,474.096,420.724z"/>
		<path d="M474.096,364.694c-4.142,0-7.5,3.357-7.5,7.5v14.008c0,9.697,15,9.697,15,0v-14.008
			C481.596,368.052,478.238,364.694,474.096,364.694z"/>
		<path d="M500.839,383.165l-11.563,6.631c-8.64,4.955-0.582,17.626,7.462,13.012l11.563-6.631
			C516.713,391.353,509.252,378.339,500.839,383.165z"/>
		<path d="M451.453,411.486l-11.563,6.631c-8.64,4.955-0.582,17.626,7.462,13.012l11.563-6.631
			C467.328,419.674,459.866,406.661,451.453,411.486z"/>
		<path d="M458.915,389.796l-11.563-6.631c-8.411-4.825-15.875,8.187-7.462,13.012l11.563,6.631
			C459.497,407.422,467.555,394.75,458.915,389.796z"/>
		<path d="M508.301,418.117l-11.563-6.631c-8.412-4.824-15.875,8.187-7.462,13.012l11.563,6.631
			C508.883,435.744,516.941,423.072,508.301,418.117z"/>
		<path d="M331.426,45.475h13.875c9.697,0,9.697-15,0-15h-13.875C321.729,30.475,321.729,45.475,331.426,45.475z"/>
		<path d="M379.823,37.975c0,4.143,3.358,7.5,7.5,7.5h14.008c9.697,0,9.697-15,0-15h-14.008
			C383.181,30.475,379.823,33.832,379.823,37.975z"/>
		<path d="M377.349,72.18c5.134,8.955,17.628,0.586,13.012-7.463l-6.631-11.562c-4.823-8.412-17.836-0.949-13.012,7.463
			L377.349,72.18z"/>
		<path d="M349.028,22.794c5.134,8.955,17.628,0.586,13.012-7.463l-6.631-11.562c-4.823-8.412-17.836-0.949-13.012,7.463
			L349.028,22.794z"/>
		<path d="M373.492,25.568c3.794,1.955,7.207,1.03,10.237-2.774l6.631-11.562c4.824-8.412-8.188-15.875-13.012-7.463l-6.631,11.562
			C368.656,18.925,369.899,23.508,373.492,25.568z"/>
		<path d="M359.265,50.38c-3.593-2.061-8.177-0.817-10.237,2.774l-6.631,11.562c-4.616,8.049,7.876,16.417,13.012,7.463
			l6.631-11.562C364.1,57.023,362.858,52.44,359.265,50.38z"/>
		<path d="M341.261,464.281c0-4.143-3.358-7.5-7.5-7.5h-18.312c-9.697,0-9.697,15,0,15h18.312
			C337.904,471.781,341.261,468.424,341.261,464.281z"/>
		<path d="M407.707,456.781H389.22c-9.697,0-9.697,15,0,15h18.487C417.404,471.781,417.404,456.781,407.707,456.781z"/>
		<path d="M382.397,485.508c-4.825-8.413-17.836-0.949-13.013,7.463l8.751,15.261c5.135,8.954,17.628,0.586,13.013-7.463
			L382.397,485.508z"/>
		<path d="M345.02,420.331c-4.823-8.413-17.836-0.949-13.013,7.463l8.751,15.261c5.135,8.954,17.628,0.586,13.013-7.463
			L345.02,420.331z"/>
		<path d="M372.16,445.829c3.794,1.955,7.207,1.03,10.237-2.774l8.751-15.261c4.824-8.413-8.186-15.872-13.013-7.463l-8.751,15.261
			C367.324,439.186,368.567,443.769,372.16,445.829z"/>
		<path d="M350.996,482.733c-3.592-2.061-8.176-0.817-10.237,2.774l-8.751,15.261c-4.615,8.049,7.876,16.416,13.013,7.463
			l8.751-15.261C355.832,489.377,354.59,484.794,350.996,482.733z"/>
		<path d="M458.441,65.09c-4.142,0-7.5,3.357-7.5,7.5v18.312c0,9.697,15,9.697,15,0V72.59
			C465.941,68.447,462.583,65.09,458.441,65.09z"/>
		<path d="M458.441,138.86c-4.142,0-7.5,3.357-7.5,7.5v18.487c0,9.697,15,9.697,15,0V146.36
			C465.941,142.218,462.583,138.86,458.441,138.86z"/>
		<path d="M429.752,126.525l-15.26,8.752c-8.639,4.955-0.582,17.625,7.463,13.012l15.26-8.752
			C445.626,134.713,438.166,121.704,429.752,126.525z"/>
		<path d="M483.406,111.906c1.265,0,2.548-0.32,3.724-0.995l15.26-8.751c8.412-4.824,0.95-17.836-7.462-13.012l-15.26,8.751
			C473.646,101.353,475.671,111.906,483.406,111.906z"/>
		<path d="M498.653,149.284c7.735,0,9.761-10.553,3.738-14.007l-15.26-8.752c-8.412-4.824-15.875,8.187-7.463,13.012l15.26,8.752
			C496.105,148.964,497.387,149.284,498.653,149.284z"/>
		<path d="M414.492,102.16l15.26,8.751c8.043,4.614,16.102-8.057,7.462-13.012l-15.26-8.751
			C413.544,84.321,406.08,97.336,414.492,102.16z"/>
	</g>
</g>
<g>
</g>
<g>
</g>
<g>
</g>
<g>
</g>
<g>
</g>
<g>
</g>
<g>
</g>
<g>
</g>
<g>
</g>
<g>
</g>
<g>
</g>
<g>
</g>
<g>
</g>
<g>
</g>
<g>
</g>
</svg>
