<?xml version="1.0" encoding="iso-8859-1"?>
<!-- Generator: Adobe Illustrator 25.0.0, SVG Export Plug-In . SVG Version: 6.00 Build 0)  -->
<svg version="1.1" id="Layer_1" xmlns="http://www.w3.org/2000/svg" xmlns:xlink="http://www.w3.org/1999/xlink" x="0px" y="0px"
	 viewBox="0 0 511.773 511.773" style="enable-background:new 0 0 511.773 511.773;" xml:space="preserve">
<g>
	<g>
		<g>
			<polygon style="fill:#6B8DF2;" points="57.13,327.752 27.007,327.752 27.007,504.273 93.178,504.273 93.178,327.752 			"/>
			<rect x="388.82" y="228.519" style="fill:#B5C8FF;" width="96.19" height="275.754"/>
			<rect x="445.01" y="228.519" style="fill:#9CB5FF;" width="40" height="275.754"/>
			<rect x="64.869" y="200.62" style="fill:#EBF7FF;" width="115.812" height="303.653"/>
			<rect x="330.914" y="316.801" style="fill:#EBF7FF;" width="115.812" height="187.472"/>
			<rect x="406.726" y="316.801" style="fill:#D9EDFA;" width="40" height="187.472"/>
			<g>
				<rect x="180.681" y="154.687" style="fill:#B5C8FF;" width="150.233" height="349.586"/>
				<rect x="290.914" y="154.687" style="fill:#9CB5FF;" width="40" height="349.586"/>
			</g>
			<rect x="64.869" y="238.773" style="fill:#B5C8FF;" width="72.096" height="228.916"/>
		</g>
		<polygon style="fill:#EB67A5;" points="467.852,95.362 447.076,104.522 449.531,127.095 431.209,113.683 412.888,127.095 
			415.342,104.522 394.566,95.362 415.342,86.201 412.888,63.628 431.209,77.04 449.531,63.628 447.076,86.201 		"/>
		<g>
			<polygon style="fill:#FFCA21;" points="74.456,133.093 67.118,116.451 49.036,118.417 59.78,103.741 49.036,89.064 67.118,91.03 
				74.456,74.388 81.795,91.03 99.877,89.064 89.133,103.741 99.877,118.417 81.795,116.451 			"/>
		</g>
	</g>
	<g>
		<path d="M504.298,496.773H492.51v-63.607c0-9.697-15-9.697-15,0v63.607h-23.283V316.801c0-4.143-3.357-7.5-7.5-7.5H396.32v-73.282
			h81.189v156.988c0,9.697,15,9.697,15,0V228.519c0-4.143-3.357-7.5-7.5-7.5H388.82c-4.143,0-7.5,3.357-7.5,7.5v80.782h-42.906
			V154.687c0-4.143-3.357-7.5-7.5-7.5H180.681c-4.143,0-7.5,3.357-7.5,7.5v38.434H64.869c-4.143,0-7.5,3.357-7.5,7.5v38.152v81.479
			H27.007c-4.143,0-7.5,3.357-7.5,7.5v169.021H7.298c-9.697,0-9.697,15,0,15h497C513.995,511.773,513.995,496.773,504.298,496.773z
			 M439.226,324.301v172.472H338.414V324.301H439.226z M72.369,360.731h57.097v40.791H72.369V360.731z M129.466,345.731H72.369
			V304.94h57.097V345.731z M72.369,416.522h57.097v43.667H72.369V416.522z M129.466,289.94H72.369v-43.667h57.097V289.94z
			 M34.507,335.252h22.862v132.438v29.084H34.507V335.252z M188.181,496.773V299.095c1.715-9.677-15-12.781-15-1.328v199.006H72.369
			v-21.584h64.597c4.143,0,7.5-3.357,7.5-7.5V238.773c0-4.143-3.357-7.5-7.5-7.5H72.369v-23.152h100.812v49.655
			c0,10.391,16.759,8.596,15-1.325v-94.264h135.232v334.586H188.181z"/>
		<path d="M291.298,193.121h-71c-9.697,0-9.697,15,0,15h71C300.995,208.121,300.995,193.121,291.298,193.121z"/>
		<path d="M291.298,231.273h-71c-9.697,0-9.697,15,0,15h71C300.995,246.273,300.995,231.273,291.298,231.273z"/>
		<path d="M291.298,269.425h-71c-9.697,0-9.697,15,0,15h71C300.995,284.425,300.995,269.425,291.298,269.425z"/>
		<path d="M291.298,307.579h-71c-9.697,0-9.697,15,0,15h71C300.995,322.579,300.995,307.579,291.298,307.579z"/>
		<path d="M291.298,345.731h-71c-9.697,0-9.697,15,0,15h71C300.995,360.731,300.995,345.731,291.298,345.731z"/>
		<path d="M291.298,383.883h-71c-9.697,0-9.697,15,0,15h71C300.995,398.883,300.995,383.883,291.298,383.883z"/>
		<path d="M291.298,422.037h-71c-9.697,0-9.697,15,0,15h71C300.995,437.037,300.995,422.037,291.298,422.037z"/>
		<path d="M291.298,460.189h-71c-9.697,0-9.697,15,0,15h71C300.995,475.189,300.995,460.189,291.298,460.189z"/>
		<path d="M369.82,475.189c4.143,0,7.5-3.357,7.5-7.5V353.231c0-9.697-15-9.697-15,0v114.458
			C362.32,471.832,365.678,475.189,369.82,475.189z"/>
		<path d="M407.82,475.189c4.143,0,7.5-3.357,7.5-7.5V353.231c0-9.697-15-9.697-15,0v114.458
			C400.32,471.832,403.678,475.189,407.82,475.189z"/>
		<path d="M190.681,28.648c4.143,0,7.5-3.357,7.5-7.5V7.273c0-9.697-15-9.697-15,0v13.875
			C183.181,25.291,186.539,28.648,190.681,28.648z"/>
		<path d="M190.681,84.677c4.143,0,7.5-3.357,7.5-7.5V63.17c0-9.697-15-9.697-15,0v14.008
			C183.181,81.32,186.539,84.677,190.681,84.677z"/>
		<path d="M160.214,67.203c1.266,0,2.548-0.32,3.724-0.995l11.563-6.631c8.412-4.823,0.95-17.837-7.461-13.012l-11.563,6.631
			C150.453,56.649,152.478,67.203,160.214,67.203z"/>
		<path d="M209.599,38.881c1.266,0,2.548-0.32,3.725-0.995l11.562-6.631c8.412-4.824,0.95-17.835-7.463-13.012l-11.562,6.631
			C199.838,28.329,201.865,38.881,209.599,38.881z"/>
		<path d="M205.861,59.577l11.562,6.631c8.045,4.613,16.102-8.057,7.463-13.012l-11.562-6.631
			C204.912,41.74,197.45,54.752,205.861,59.577z"/>
		<path d="M156.476,31.255l11.563,6.631c8.042,4.616,16.101-8.058,7.461-13.012l-11.563-6.631
			C155.528,13.416,148.064,26.432,156.476,31.255z"/>
		<path d="M298.215,86.675c0,4.143,3.357,7.5,7.5,7.5h13.876c9.697,0,9.697-15,0-15h-13.876
			C301.572,79.175,298.215,82.533,298.215,86.675z"/>
		<path d="M249.685,94.175h14.008c9.697,0,9.697-15,0-15h-14.008C239.988,79.175,239.988,94.175,249.685,94.175z"/>
		<path d="M267.287,71.495c5.134,8.955,17.628,0.587,13.012-7.461l-6.631-11.563c-4.823-8.412-17.836-0.95-13.012,7.461
			L267.287,71.495z"/>
		<path d="M295.608,120.88c5.134,8.955,17.627,0.587,13.012-7.463l-6.631-11.562c-4.823-8.412-17.835-0.95-13.012,7.463
			L295.608,120.88z"/>
		<path d="M277.524,99.081c-3.595-2.061-8.178-0.818-10.237,2.774l-6.631,11.562c-4.615,8.049,7.876,16.417,13.012,7.463
			l6.631-11.562C282.359,105.724,281.117,101.141,277.524,99.081z"/>
		<path d="M291.753,74.27c3.794,1.955,7.206,1.03,10.236-2.775l6.631-11.563c4.824-8.411-8.19-15.875-13.012-7.461l-6.631,11.563
			C286.917,67.627,288.159,72.21,291.753,74.27z"/>
		<path d="M423.709,150.701v28.5c0,9.697,15,9.697,15,0v-28.5C438.709,141.003,423.709,141.003,423.709,150.701z"/>
		<path d="M431.209,47.867c4.143,0,7.5-3.357,7.5-7.5V11.523c0-9.697-15-9.697-15,0v28.844
			C423.709,44.509,427.066,47.867,431.209,47.867z"/>
		<path d="M480.303,74.71c1.266,0,2.548-0.32,3.725-0.995l24.002-13.767c8.412-4.824,0.95-17.834-7.463-13.012l-24.002,13.767
			C470.541,64.157,472.568,74.71,480.303,74.71z"/>
		<path d="M358.128,144.782c1.266,0,2.548-0.32,3.725-0.995l24.002-13.766c8.412-4.824,0.951-17.833-7.463-13.012l-24.002,13.766
			C348.367,134.229,350.393,144.782,358.128,144.782z"/>
		<path d="M354.389,59.948l24.002,13.767c8.045,4.613,16.102-8.057,7.463-13.012l-24.002-13.767
			C353.439,42.111,345.978,55.124,354.389,59.948z"/>
		<path d="M508.029,130.775l-24.002-13.766c-8.412-4.823-15.875,8.187-7.463,13.012l24.002,13.766
			C508.611,148.4,516.668,135.73,508.029,130.775z"/>
		<path d="M387.066,95.362c0,2.972,1.755,5.664,4.475,6.862l15.752,6.945l-1.861,17.115c-0.625,5.751,6.284,10.959,11.887,6.862
			l13.891-10.169l13.892,10.169c5.189,3.799,12.576-0.519,11.886-6.862l-1.86-17.115l15.752-6.945
			c5.853-2.578,5.85-11.144,0.001-13.725l-15.753-6.946l1.86-17.115c0.626-5.751-6.284-10.959-11.887-6.862l-13.891,10.17
			l-13.891-10.17c-5.603-4.097-12.512,1.111-11.887,6.862l1.861,17.115L391.54,88.5C388.821,89.699,387.066,92.39,387.066,95.362z
			 M418.369,93.063c4.932-2.174,5.224-8.885,3.813-13.335c5.266,5.567,12.751,5.731,18.053-0.001
			c-2.187,7.344,1.413,13.908,9.027,15.635c-7.455,1.777-11.339,8.178-9.026,15.635c-5.267-5.566-12.752-5.732-18.054-0.001
			c2.188-7.344-1.413-13.908-9.026-15.634L418.369,93.063z"/>
		<path d="M7.298,111.241h22.83c9.697,0,9.697-15,0-15H7.298C-2.4,96.241-2.4,111.241,7.298,111.241z"/>
		<path d="M111.01,103.741c0,4.143,3.357,7.5,7.5,7.5h23.105c9.697,0,9.697-15,0-15H118.51
			C114.367,96.241,111.01,99.598,111.01,103.741z"/>
		<path d="M93.277,136.555c-3.593,2.061-4.835,6.645-2.774,10.237l11.027,19.227c5.134,8.955,17.628,0.586,13.012-7.463
			l-11.027-19.227C101.455,135.737,96.873,134.495,93.277,136.555z"/>
		<path d="M45.398,68.151c5.134,8.955,17.628,0.586,13.012-7.463L47.383,41.462c-4.822-8.414-17.836-0.949-13.012,7.463
			L45.398,68.151z"/>
		<path d="M93.277,70.925c3.794,1.955,7.207,1.03,10.237-2.774l11.027-19.227c4.824-8.411-8.188-15.876-13.012-7.463L90.503,60.688
			C88.442,64.281,89.684,68.865,93.277,70.925z"/>
		<path d="M45.398,139.33l-11.027,19.227c-4.616,8.049,7.878,16.418,13.012,7.463l11.027-19.227
			C63.234,138.381,50.222,130.917,45.398,139.33z"/>
		<path d="M42.541,85.314c-1.486,2.573-1.312,5.782,0.443,8.181l7.501,10.246l-7.501,10.245c-4.103,5.605,1.116,12.508,6.862,11.887
			l12.624-1.372l5.124,11.619c2.58,5.849,11.146,5.852,13.725-0.001l5.123-11.618l12.624,1.372
			c5.749,0.628,10.963-6.285,6.862-11.887l-7.501-10.245l7.501-10.246c4.104-5.605-1.116-12.508-6.862-11.887l-12.624,1.373
			l-5.123-11.618c-2.578-5.853-11.144-5.85-13.725-0.001l-5.124,11.619l-12.624-1.373C46.9,81.287,44.027,82.74,42.541,85.314z
			 M65.832,99.31l-0.696-0.951c4.366,0.61,7.666-1.296,9.321-5.382c1.655,4.085,4.955,5.991,9.32,5.382
			c-2.709,3.476-2.709,7.287,0,10.763c-4.363-0.604-7.663,1.302-9.32,5.383c-1.796-3.942-5.138-5.91-9.321-5.383
			C67.218,106.351,68.063,102.359,65.832,99.31z"/>
	</g>
</g>
<g>
</g>
<g>
</g>
<g>
</g>
<g>
</g>
<g>
</g>
<g>
</g>
<g>
</g>
<g>
</g>
<g>
</g>
<g>
</g>
<g>
</g>
<g>
</g>
<g>
</g>
<g>
</g>
<g>
</g>
</svg>
