<?xml version="1.0" encoding="iso-8859-1"?>
<!-- Generator: Adobe Illustrator 25.0.0, SVG Export Plug-In . SVG Version: 6.00 Build 0)  -->
<svg version="1.1" id="Layer_1" xmlns="http://www.w3.org/2000/svg" xmlns:xlink="http://www.w3.org/1999/xlink" x="0px" y="0px"
	 viewBox="0 0 511.502 511.502" style="enable-background:new 0 0 511.502 511.502;" xml:space="preserve">
<g>
	<g>
		<g>
			<g>
				<path style="fill:#FFCA21;" d="M248.54,373.458L129.621,255.343c-10.477-10.407-9.424-27.573,2.248-36.639l154.192-108.64
					l108.79,107.971L285.429,371.226C276.301,382.819,259.018,383.865,248.54,373.458z"/>
				<path style="fill:#F2BB0C;" d="M286.061,110.063l-23.393,16.482l92.183,91.489L245.787,370.724l2.753,2.734
					c10.478,10.407,27.761,9.361,36.889-2.233l109.422-153.191L286.061,110.063z"/>
			</g>
			<path style="fill:#FFE594;" d="M358.033,220.88l19.484,19.338l36.334-1.354c12.852-0.479,25.048-5.794,34.142-14.878
				l32.709-32.674c32.018-31.802,18.901-96.408-25.809-140.815C410.184,6.09,344.721-7.388,312.702,24.413l-32.75,32.715
				c-9.08,9.07-14.398,21.229-14.892,34.047l-1.388,36.051l67.524,67.018L358.033,220.88z"/>
			<path style="fill:#F7D877;" d="M454.894,50.497c-34.04-33.81-80.108-49.685-114.288-41.305
				c25.495,5.22,52.382,19.547,74.288,41.305c44.71,44.407,57.827,109.013,25.809,140.815l-32.709,32.674
				c-8.581,8.572-19.924,13.782-31.974,14.746l1.498,1.486l36.334-1.354c12.852-0.479,25.048-5.793,34.142-14.878l32.709-32.674
				C512.722,159.511,499.604,94.905,454.894,50.497z"/>
		</g>
	</g>
	<g>
		<path d="M32.73,407.004c1.911,0,3.822-0.726,5.285-2.179l75.208-74.699c6.879-6.834-3.69-17.477-10.57-10.643l-75.208,74.699
			C22.97,398.627,26.419,407.004,32.73,407.004z"/>
		<path d="M108.27,454.283L63.592,498.66c-6.884,6.836,3.696,17.471,10.57,10.643l44.679-44.377
			C125.722,458.093,115.152,447.452,108.27,454.283z"/>
		<path d="M161.652,341.644c-2.919-2.94-7.668-2.955-10.606-0.036L7.842,483.843c-6.883,6.837,3.695,17.472,10.57,10.643
			L161.616,352.25C164.556,349.331,164.571,344.582,161.652,341.644z"/>
		<path d="M157.183,405.701l-22.001,21.852c-6.883,6.837,3.695,17.472,10.57,10.643l22.001-21.852
			C174.633,409.51,164.065,398.87,157.183,405.701z"/>
		<path d="M293.309,306.709c9.652,0,9.668-15,0-15C283.657,291.709,283.641,306.709,293.309,306.709z"/>
		<path d="M251.43,289.976c-9.652,0-9.668,15,0,15C261.081,304.976,261.098,289.976,251.43,289.976z"/>
		<path d="M263.644,344.839c9.652,0,9.668-15,0-15C253.993,329.839,253.977,344.839,263.644,344.839z"/>
		<path d="M460.18,45.176C440.45,25.58,415.9,10.96,391.054,4.007c-9.341-2.617-13.38,11.832-4.043,14.445
			c22.424,6.274,44.655,19.545,62.599,37.366c25.467,25.295,41.287,59.223,41.287,88.543c0,17.177-5.353,31.572-15.494,41.645
			l-32.709,32.673c-7.781,7.773-18.123,12.28-29.121,12.689l-33.081,1.233l-17.175-17.045c-6.884-6.831-17.449,3.816-10.566,10.646
			l15.828,15.709l-89.141,124.799c-6.311,7.863-18.46,8.529-25.612,1.426L134.906,250.022c-7.134-7.087-6.443-19.064,1.438-25.296
			l125.689-88.559l63.878,63.4c6.876,6.826,17.453-3.812,10.566-10.646l-65.186-64.697l1.262-32.76
			c0.422-10.961,4.932-21.271,12.698-29.029l32.734-32.699c8.337-8.281,19.426-13.251,32.958-14.773
			c9.639-1.084,7.957-15.976-1.676-14.906c-16.737,1.883-31.209,8.466-41.868,19.053l-32.75,32.714
			c-10.45,10.439-16.518,24.313-17.085,39.064l-1.191,30.92L127.55,212.573c-15.609,10.99-16.354,35.039-3.214,48.091
			L243.255,378.78c13.153,13.064,37.167,12.203,48.278-3.194l91.474-128.066l31.124-1.16c14.789-0.551,28.697-6.612,39.164-17.066
			l32.693-32.658c13.023-12.936,19.908-31.011,19.908-52.272C505.896,110.688,488.807,73.61,460.18,45.176z"/>
		<path d="M350.048,31.009c-9.652,0-9.668,15,0,15C359.7,46.009,359.716,31.009,350.048,31.009z"/>
		<path d="M398.453,59.154c9.652,0,9.667-15,0-15C388.802,44.154,388.786,59.154,398.453,59.154z"/>
		<path d="M466.581,147.415c-9.652,0-9.667,15,0,15C476.233,162.415,476.249,147.415,466.581,147.415z"/>
		<path d="M393.071,117.136c9.652,0,9.668-15,0-15C383.419,102.136,383.403,117.136,393.071,117.136z"/>
		<path d="M297.135,91.013c-2.927,2.931-2.924,7.68,0.006,10.607l106.272,106.156c6.863,6.85,17.462-3.758,10.602-10.613
			L307.742,91.007C304.81,88.081,300.062,88.083,297.135,91.013z"/>
	</g>
</g>
<g>
</g>
<g>
</g>
<g>
</g>
<g>
</g>
<g>
</g>
<g>
</g>
<g>
</g>
<g>
</g>
<g>
</g>
<g>
</g>
<g>
</g>
<g>
</g>
<g>
</g>
<g>
</g>
<g>
</g>
</svg>
