<?xml version="1.0" encoding="iso-8859-1"?>
<!-- Generator: Adobe Illustrator 25.0.0, SVG Export Plug-In . SVG Version: 6.00 Build 0)  -->
<svg version="1.1" id="Layer_1" xmlns="http://www.w3.org/2000/svg" xmlns:xlink="http://www.w3.org/1999/xlink" x="0px" y="0px"
	 viewBox="0 0 509.777 509.777" style="enable-background:new 0 0 509.777 509.777;" xml:space="preserve">
<g>
	<polygon style="fill:#EBF7FF;" points="329.58,196.1 502.277,211.243 476.731,502.275 185.751,476.76 210.889,190.379 	"/>
	<g>
		
			<rect x="323.582" y="335.095" transform="matrix(0.0874 -0.9962 0.9962 0.0874 74.9309 791.8336)" style="fill:#D9EDFA;" width="292.151" height="39.847"/>
	</g>
	<g>
		<g>
			<g>
				<g>
					<g>
						<path style="fill:#EB67A5;" d="M243.364,218.655l226.404,19.853c0,0-0.05-0.004,0,0l-19.991,231.267l-231.518-20.28
							c0,0,0.171,0.015,0,0c0,0,7.518-88.72,11.644-132.649L243.364,218.655z"/>
					</g>
				</g>
			</g>
			<g>
				<g>
					<g>
						
							<rect x="31.877" y="31.889" transform="matrix(0.9829 -0.184 0.184 0.9829 -29.7146 35.7868)" style="fill:#EBF7FF;" width="292.097" height="292.151"/>
						<polygon style="fill:#D9EDFA;" points="311.929,301.487 348.351,294.667 294.607,7.502 256.016,14.729 						"/>
						
							<rect x="61.877" y="61.89" transform="matrix(0.9829 -0.184 0.184 0.9829 -29.7143 35.7865)" style="fill:#6B8DF2;" width="232.097" height="232.15"/>
					</g>
				</g>
			</g>
			<g>
				<polygon style="fill:#FFCA21;" points="306.063,402.892 301.123,388.006 285.442,388.22 295.861,376.496 287.837,363.02 
					303.197,366.182 310.853,352.492 315.794,367.379 331.475,367.164 321.055,378.888 329.079,392.364 313.72,389.202 				"/>
			</g>
		</g>
		<g>
			<path style="fill:#EBF7FF;" d="M374.777,268.275c9.652,0,9.668-15,0-15C365.126,253.275,365.11,268.275,374.777,268.275
				L374.777,268.275z"/>
		</g>
		<g>
			<path style="fill:#EBF7FF;" d="M422.729,396.959c9.652,0,9.668-15,0-15C413.077,381.959,413.061,396.959,422.729,396.959
				L422.729,396.959z"/>
		</g>
		<g>
			<path style="fill:#EBF7FF;" d="M390.777,424.915c9.652,0,9.668-15,0-15C381.126,409.915,381.11,424.915,390.777,424.915
				L390.777,424.915z"/>
		</g>
	</g>
	<g>
		<g>
			<g>
				<g>
					<g>
						
							<polyline style="fill:none;stroke:#000000;stroke-width:15;stroke-linecap:round;stroke-linejoin:round;stroke-miterlimit:10;" points="
							21.465,135.879 61.243,348.427 348.351,294.667 294.607,7.502 7.5,61.262 14.161,96.854 						"/>
						
							<rect x="61.877" y="61.89" transform="matrix(0.9829 -0.184 0.184 0.9829 -29.7143 35.7865)" style="fill:none;stroke:#000000;stroke-width:15;stroke-linecap:round;stroke-linejoin:round;stroke-miterlimit:10;" width="232.097" height="232.15"/>
					</g>
				</g>
			</g>
			<g>
				<g>
					<g>
						
							<polyline style="fill:none;stroke:#000000;stroke-width:15;stroke-linecap:round;stroke-linejoin:round;stroke-miterlimit:10;" points="
							329.58,196.1 502.277,211.243 476.731,502.275 185.751,476.76 199.241,323.072 						"/>
						
							<path style="fill:none;stroke:#000000;stroke-width:15;stroke-linecap:round;stroke-linejoin:round;stroke-miterlimit:10;" d="
							M454.232,415.513l-4.454,54.262l-231.518-20.28c0,0,0.171,0.015,0,0c4.518-43.72,7.518-88.72,11.644-132.649"/>
						
							<path style="fill:none;stroke:#000000;stroke-width:15;stroke-linecap:round;stroke-linejoin:round;stroke-miterlimit:10;" d="
							M335.639,226.747l134.13,11.762c0,0-0.05-0.004,0,0l-11.629,132.486"/>
					</g>
				</g>
			</g>
			<g>
				<g>
					<g>
						<g>
							<g>
								<g>
									
										<line style="fill:none;stroke:#000000;stroke-width:15;stroke-linecap:round;stroke-linejoin:round;stroke-miterlimit:10;" x1="270.41" y1="374.079" x2="250.814" y2="372.218"/>
								</g>
								<g>
									
										<line style="fill:none;stroke:#000000;stroke-width:15;stroke-linecap:round;stroke-linejoin:round;stroke-miterlimit:10;" x1="346.27" y1="381.283" x2="366.102" y2="383.166"/>
								</g>
							</g>
						</g>
						<g>
							<g>
								<g>
									
										<line style="fill:none;stroke:#000000;stroke-width:15;stroke-linecap:round;stroke-linejoin:round;stroke-miterlimit:10;" x1="324.606" y1="413.288" x2="332.503" y2="430.693"/>
								</g>
								<g>
									
										<line style="fill:none;stroke:#000000;stroke-width:15;stroke-linecap:round;stroke-linejoin:round;stroke-miterlimit:10;" x1="292.31" y1="342.097" x2="284.414" y2="324.692"/>
								</g>
							</g>
						</g>
						<g>
							<g>
								<g>
									
										<line style="fill:none;stroke:#000000;stroke-width:15;stroke-linecap:round;stroke-linejoin:round;stroke-miterlimit:10;" x1="331.024" y1="345.773" x2="342.058" y2="330.165"/>
								</g>
								<g>
									
										<line style="fill:none;stroke:#000000;stroke-width:15;stroke-linecap:round;stroke-linejoin:round;stroke-miterlimit:10;" x1="285.893" y1="409.611" x2="274.859" y2="425.219"/>
								</g>
							</g>
						</g>
					</g>
				</g>
				
					<polygon style="fill:none;stroke:#000000;stroke-width:15;stroke-linecap:round;stroke-linejoin:round;stroke-miterlimit:10;" points="
					306.063,402.892 301.123,388.006 285.442,388.22 295.861,376.496 287.837,363.02 303.197,366.182 310.853,352.492 
					315.794,367.379 331.475,367.164 321.055,378.888 329.079,392.364 313.72,389.202 				"/>
			</g>
			<g>
				<g>
					<g>
						<g>
							<g>
								<g>
									<g>
										
											<line style="fill:none;stroke:#000000;stroke-width:15;stroke-linecap:round;stroke-linejoin:round;stroke-miterlimit:10;" x1="400.212" y1="340.943" x2="399.302" y2="351.148"/>
									</g>
									<g>
										
											<line style="fill:none;stroke:#000000;stroke-width:15;stroke-linecap:round;stroke-linejoin:round;stroke-miterlimit:10;" x1="403.734" y1="301.437" x2="404.655" y2="291.109"/>
									</g>
								</g>
							</g>
							<g>
								<g>
									<g>
										
											<line style="fill:none;stroke:#000000;stroke-width:15;stroke-linecap:round;stroke-linejoin:round;stroke-miterlimit:10;" x1="420.45" y1="312.613" x2="429.481" y2="308.449"/>
									</g>
									<g>
										
											<line style="fill:none;stroke:#000000;stroke-width:15;stroke-linecap:round;stroke-linejoin:round;stroke-miterlimit:10;" x1="383.508" y1="329.644" x2="374.476" y2="333.808"/>
									</g>
								</g>
							</g>
							<g>
								<g>
									<g>
										
											<line style="fill:none;stroke:#000000;stroke-width:15;stroke-linecap:round;stroke-linejoin:round;stroke-miterlimit:10;" x1="385.305" y1="309.483" x2="377.152" y2="303.789"/>
									</g>
									<g>
										
											<line style="fill:none;stroke:#000000;stroke-width:15;stroke-linecap:round;stroke-linejoin:round;stroke-miterlimit:10;" x1="418.652" y1="332.774" x2="426.805" y2="338.469"/>
									</g>
								</g>
							</g>
						</g>
					</g>
				</g>
			</g>
			<g>
				<g>
					<g>
						<g>
							
								<path style="fill:none;stroke:#000000;stroke-width:15;stroke-linecap:round;stroke-linejoin:round;stroke-miterlimit:10;" d="
								M193.082,227.908l6.485-38.735c0.143-0.741,1.112-0.936,1.53-0.309l20.795,33.265"/>
							
								<line style="fill:none;stroke:#000000;stroke-width:15;stroke-linecap:round;stroke-linejoin:round;stroke-miterlimit:10;" x1="195.558" y1="218.088" x2="215.891" y2="214.01"/>
						</g>
						<g>
							
								<polyline style="fill:none;stroke:#000000;stroke-width:15;stroke-linecap:round;stroke-linejoin:round;stroke-miterlimit:10;" points="
								164.882,195.942 149.646,198.998 156.9,235.165 172.135,232.109 							"/>
							
								<line style="fill:none;stroke:#000000;stroke-width:15;stroke-linecap:round;stroke-linejoin:round;stroke-miterlimit:10;" x1="167.385" y1="214.251" x2="153.273" y2="217.082"/>
						</g>
						<g>
							
								<polyline style="fill:none;stroke:#000000;stroke-width:15;stroke-linecap:round;stroke-linejoin:round;stroke-miterlimit:10;" points="
								105.417,207.522 120.654,223.04 128.651,202.958 							"/>
							
								<line style="fill:none;stroke:#000000;stroke-width:15;stroke-linecap:round;stroke-linejoin:round;stroke-miterlimit:10;" x1="124.347" y1="241.694" x2="120.654" y2="223.04"/>
						</g>
						<g>
							
								<line style="fill:none;stroke:#000000;stroke-width:15;stroke-linecap:round;stroke-linejoin:round;stroke-miterlimit:10;" x1="243.899" y1="199.594" x2="262.722" y2="213.94"/>
							
								<line style="fill:none;stroke:#000000;stroke-width:15;stroke-linecap:round;stroke-linejoin:round;stroke-miterlimit:10;" x1="235.673" y1="181.397" x2="242.993" y2="217.897"/>
							
								<path style="fill:none;stroke:#000000;stroke-width:15;stroke-linecap:round;stroke-linejoin:round;stroke-miterlimit:10;" d="
								M257.304,186.926c1.051,5.239-2.69,10.407-8.118,11.496c-2.692,0.54-9.621,1.973-9.621,1.973s-1.425-6.878-1.954-9.519
								c-0.435-2.169-1.927-9.481-1.927-9.481s6.516-1.307,9.697-1.945C250.809,178.361,256.254,181.687,257.304,186.926z"/>
						</g>
					</g>
				</g>
				<g>
					<g>
						<g>
							
								<path style="fill:none;stroke:#000000;stroke-width:15;stroke-linecap:round;stroke-linejoin:round;stroke-miterlimit:10;" d="
								M111.748,178.986l-7.619-39.005l33.824,33.035c0.627,0.611,1.083,0.162,0.915-0.697l-7.741-37.69"/>
						</g>
						<g>
							
								<polyline style="fill:none;stroke:#000000;stroke-width:15;stroke-linecap:round;stroke-linejoin:round;stroke-miterlimit:10;" points="
								171.511,126.737 155.2,129.925 162.763,168.646 179.075,165.458 							"/>
							
								<line style="fill:none;stroke:#000000;stroke-width:15;stroke-linecap:round;stroke-linejoin:round;stroke-miterlimit:10;" x1="174.09" y1="146.333" x2="158.981" y2="149.285"/>
						</g>
						<g>
							
								<path style="fill:none;stroke:#000000;stroke-width:15;stroke-linecap:round;stroke-linejoin:round;stroke-miterlimit:10;" d="
								M193.524,122.435l15.131,37.004c0.434,0.733,1.549,0.507,1.664-0.337l4.383-40.731"/>
							
								<path style="fill:none;stroke:#000000;stroke-width:15;stroke-linecap:round;stroke-linejoin:round;stroke-miterlimit:10;" d="
								M214.687,118.299l19.374,36.175c0.434,0.733,1.549,0.507,1.664-0.337l0.14-39.902"/>
						</g>
					</g>
				</g>
			</g>
		</g>
		<g>
			<g>
				<path d="M374.777,268.275c9.652,0,9.668-15,0-15C365.126,253.275,365.11,268.275,374.777,268.275L374.777,268.275z"/>
			</g>
		</g>
		<g>
			<g>
				<path d="M422.729,396.959c9.652,0,9.668-15,0-15C413.077,381.959,413.061,396.959,422.729,396.959L422.729,396.959z"/>
			</g>
		</g>
		<g>
			<g>
				<path d="M390.777,424.915c9.652,0,9.668-15,0-15C381.126,409.915,381.11,424.915,390.777,424.915L390.777,424.915z"/>
			</g>
		</g>
	</g>
</g>
<g>
</g>
<g>
</g>
<g>
</g>
<g>
</g>
<g>
</g>
<g>
</g>
<g>
</g>
<g>
</g>
<g>
</g>
<g>
</g>
<g>
</g>
<g>
</g>
<g>
</g>
<g>
</g>
<g>
</g>
</svg>
