<?xml version="1.0" encoding="iso-8859-1"?>
<!-- Generator: Adobe Illustrator 25.0.0, SVG Export Plug-In . SVG Version: 6.00 Build 0)  -->
<svg version="1.1" id="Layer_1" xmlns="http://www.w3.org/2000/svg" xmlns:xlink="http://www.w3.org/1999/xlink" x="0px" y="0px"
	 viewBox="0 0 512.217 512.217" style="enable-background:new 0 0 512.217 512.217;" xml:space="preserve">
<g>
	<g>
		<g>
			<g>
				<g>
					<g>
						<path style="fill:#A1FFE6;" d="M269.695,390.345c0.009,0.065,0.018,0.13,0.027,0.194
							c6.678,48.774,24.793,88.834,40.462,89.477c10.816,0.444,17.635-18.016,18.624-45.535c0.149-4.13,5.864-5.053,7.292-1.177
							l0.1,0.272c15.341,41.55,38.161,73.244,50.971,70.79c12.81-2.454,10.758-38.126-4.582-79.676l-0.044-0.119
							c-0.811-2.194,1.974-3.911,3.554-2.189c7.889,8.592,17.279,17.602,27.775,26.452c37.042,31.238,73.725,48.635,81.933,38.857
							c8.208-9.778-15.167-43.027-52.209-74.265c-10.495-8.851-20.957-16.583-30.753-22.904c-1.963-1.266-0.751-4.31,1.544-3.884
							l0.125,0.023c43.468,8.044,78.886,3.97,79.107-9.099c0.221-13.07-34.837-30.185-78.305-38.229l-0.284-0.052
							c-4.054-0.748-4.124-6.55-0.09-7.403c26.883-5.683,43.864-15.573,41.578-26.179c-3.312-15.363-45.79-26.402-94.878-24.656
							c-0.065,0.002-0.131,0-0.195,0.007c-42.911,4.843-62.218,10.266-79.262,28.913
							C258.69,335.666,269.695,390.345,269.695,390.345z"/>
					</g>
				</g>
				<g>
					<path style="fill:#7DF5D5;" d="M416.52,305.699c2.286,10.605-14.694,20.495-41.578,26.178c-4.035,0.853-3.964,6.655,0.09,7.403
						l0.284,0.052c43.468,8.044,78.526,25.16,78.305,38.229c-0.101,5.959-7.534,10.04-19.695,11.963
						c34.13,3.71,59.508-0.907,59.695-11.963c0.221-13.07-34.837-30.185-78.305-38.229l-0.284-0.052
						c-4.054-0.748-4.124-6.55-0.09-7.403c26.883-5.683,43.864-15.573,41.578-26.178c-3.312-15.363-45.79-26.402-94.878-24.656
						c-0.065,0.002-0.131,0-0.195,0.007c-2.278,0.257-4.476,0.517-6.624,0.779C388.577,284.741,413.988,293.957,416.52,305.699z"/>
					<path style="fill:#7DF5D5;" d="M443.598,413.427c-10.367-8.742-20.698-16.387-30.39-22.666c-11.45-0.174-24.646-1.5-38.694-4.1
						l-0.125-0.023c-2.296-0.425-3.507,2.618-1.544,3.884c9.796,6.321,20.258,14.054,30.753,22.904
						c29.648,25.002,50.521,51.281,53.472,65.794c19.01,10.515,33.873,14.265,38.737,8.471
						C504.015,477.915,480.64,444.665,443.598,413.427z"/>
				</g>
				<g>
					<g>
						<path style="fill:#1E9E88;" d="M230.976,309.962c-17.044-18.646-36.351-24.069-79.262-28.913
							c-0.065-0.007-0.13-0.005-0.196-0.007c-49.088-1.746-91.566,9.293-94.878,24.656c-2.286,10.605,14.694,20.495,41.578,26.179
							c4.035,0.853,3.964,6.655-0.09,7.403l-0.284,0.052c-43.468,8.044-78.527,25.16-78.305,38.229
							c0.221,13.07,35.639,17.144,79.107,9.099l0.125-0.023c2.296-0.425,3.507,2.618,1.544,3.884
							c-9.796,6.321-20.258,14.054-30.753,22.904c-37.042,31.238-60.417,64.488-52.209,74.265
							c8.208,9.778,44.891-7.619,81.933-38.857c10.495-8.851,19.885-17.86,27.775-26.452c1.581-1.721,4.365-0.005,3.554,2.189
							l-0.044,0.119c-15.341,41.55-17.392,77.222-4.582,79.676c12.81,2.454,35.63-29.24,50.971-70.79l0.1-0.272
							c1.429-3.876,7.144-2.953,7.292,1.177c0.99,27.52,7.808,45.979,18.624,45.535c15.669-0.643,33.784-40.704,40.462-89.477
							c0.009-0.065,0.018-0.13,0.027-0.194C243.466,390.345,254.471,335.666,230.976,309.962z"/>
					</g>
				</g>
			</g>
			<g>
				<g>
					<path style="fill:#41CCB4;" d="M326.549,244.318c0.045-0.048,0.089-0.095,0.134-0.143
						c33.603-35.975,53.227-75.318,43.832-87.875c-6.485-8.669-25.104-2.301-47.067,14.308c-3.296,2.492-7.62-1.357-5.517-4.912
						l0.148-0.249c22.532-38.132,32.698-75.841,22.707-84.226c-9.991-8.385-36.355,15.73-58.887,53.861l-0.065,0.109
						c-1.19,2.014-4.279,0.939-3.942-1.374c1.681-11.543,2.738-24.514,2.974-38.242c0.833-48.45-8.839-87.883-21.603-88.075
						s-23.787,38.93-24.62,87.38c-0.236,13.728,0.374,26.723,1.658,38.311c0.257,2.322-2.867,3.304-3.987,1.255l-0.061-0.111
						c-21.209-38.789-46.731-63.683-57.005-55.603s-1.409,46.075,19.799,84.865l0.139,0.254c1.98,3.616-2.475,7.334-5.683,4.744
						c-21.381-17.26-39.771-24.184-46.551-15.715c-9.822,12.269,8.44,52.181,40.788,89.147c0.043,0.049,0.082,0.102,0.129,0.147
						c30.85,30.22,47.245,41.768,72.465,43.213C291.099,287.377,326.549,244.318,326.549,244.318z"/>
				</g>
			</g>
			<g>
				<path style="fill:#0FBA9D;" d="M370.515,156.3c-5.536-7.4-19.916-3.836-37.667,7.694c0.615,17.025-17.791,49.803-46.165,80.181
					c-0.045,0.048-0.089,0.095-0.134,0.143c0,0-22.544,27.383-49.308,37.466c6.024,2.062,12.231,3.21,19.093,3.603
					c34.765,1.991,70.215-41.069,70.215-41.069c0.045-0.048,0.089-0.095,0.134-0.143C360.285,208.2,379.91,168.857,370.515,156.3z"
					/>
			</g>
			<g>
				<ellipse style="fill:#EB67A5;" cx="312.293" cy="275.146" rx="57.708" ry="57.853"/>
				<path style="fill:#E34D94;" d="M312.293,217.293c-7.032,0-13.768,1.264-20,3.573c22.013,8.155,37.708,29.378,37.708,54.28
					s-15.695,46.125-37.708,54.28c6.232,2.308,12.968,3.573,20,3.573c31.871,0,57.708-25.901,57.708-57.853
					S344.164,217.293,312.293,217.293z"/>
				<ellipse style="fill:#EB67A5;" cx="196.877" cy="275.146" rx="57.708" ry="57.853"/>
				<ellipse style="fill:#F2A7D0;" cx="254.585" cy="353.075" rx="57.708" ry="57.853"/>
				<path style="fill:#F294C7;" d="M254.585,295.222c-7.032,0-13.768,1.264-20,3.573c22.013,8.155,37.708,29.378,37.708,54.28
					c0,24.902-15.695,46.125-37.708,54.28c6.232,2.309,12.968,3.573,20,3.573c31.871,0,57.708-25.902,57.708-57.853
					C312.293,321.124,286.456,295.222,254.585,295.222z"/>
			</g>
		</g>
	</g>
	<g>
		<path d="M448.433,407.693c-4.337-3.658-8.694-7.153-13.048-10.47c9.664,0.961,18.799,1.28,27.051,0.926
			c15.414-0.66,26.382-3.572,32.6-8.656c4.933-4.033,6.032-8.646,6.085-11.805c0.164-9.671-8.913-19.047-26.978-27.866
			c-11.717-5.72-26.349-10.765-42.244-14.618c12.121-3.851,23.917-9.562,29.308-17.88c13.028-20.104-15.616-32.705-30.115-36.824
			c-14.859-4.222-33.667-6.661-53.634-7.07c-0.515-19.88-9.92-37.572-24.383-49.225c19.394-26.301,34.614-57.471,23.446-72.397
			c-10.709-14.32-33.1-3.131-44.39,3.761c7.532-14.511,13.345-28.853,16.738-41.438c5.24-19.436,4.143-32.441-3.262-38.656
			c-19.814-16.624-49.163,24.526-57.934,36.881C289.052,91.71,294.251,0,259.152,0c-11.862,0-20.824,14.214-26.636,42.251
			c-1.969,9.495,12.718,12.539,14.688,3.045c4.438-21.41,9.902-28.824,11.938-30.158c24.373,17.667,14.782,93.894,11.329,117.598
			c-1.675,11.505,11.868,12.839,17.885,6.162c22.816-38.613,43.135-52.582,47.678-51.852c0.849,1.099,2.651,7.566-1.811,23.781
			c-4.169,15.15-12.195,33.193-22.598,50.798c-4.654,9.933,5.932,22.841,16.347,14.965c2.638-1.995,30.868-23.399,36.539-15.797
			c3.136,4.19-1.057,24.47-24.144,55.376c-8.507-4.084-18.027-6.376-28.072-6.376c-25.017,0-46.776,14.2-57.708,34.973
			c-10.932-20.773-32.691-34.973-57.708-34.973c-8.868,0-17.324,1.79-25.038,5.017c-22.739-32.212-26.388-53.051-23.032-57.243
			c5.955-7.444,33.367,14.75,35.985,16.863c10.184,8.222,20.86-4.217,16.835-14.432c-9.814-17.949-17.222-36.251-20.859-51.533
			c-3.903-16.399-1.833-22.749-0.955-23.766c4.541-0.619,24.351,13.898,45.864,53.243c5.455,7.134,19.341,5.827,18.077-5.577
			c-1.852-16.715-2.18-34.512-0.976-52.895c0.635-9.679-14.333-10.653-14.968-0.98c-0.734,11.215-0.923,22.235-0.568,32.957
			c-8.42-12.732-36.342-54.573-56.632-38.61c-7.603,5.979-9.141,18.938-4.573,38.516c2.963,12.699,8.291,27.233,15.337,41.989
			c-11.311-7.408-33.046-19.178-44.278-5.15c-11.822,14.768,2.682,46.767,21.614,74.013c-15.958,11.588-26.485,30.227-27.001,51.321
			c-19.139,0.648-37.051,3.225-51.087,7.394c-14.334,4.258-41.329,16.868-28.669,36.404c5.391,8.317,17.187,14.029,29.307,17.88
			c-16.796,4.071-74.953,18.005-68.614,45.272c3.581,15.406,25.568,17.138,38.078,17.674c8.252,0.354,17.384,0.036,27.052-0.927
			c-16.945,12.908-88.63,68.535-66.167,95.292c22.543,26.848,89.613-34.676,104.987-48.996c-4.07,14.698-17.371,63.361,7.981,68.214
			c13.44,2.578,25.442-12.722,32.034-21.877c7.617-10.578,15.067-24.142,21.562-39.145c1.719,12.623,5.325,25.23,12.587,31.953
			c16.002,14.811,32.455-6.446,39.202-19.187c6.307-11.908,11.944-27.96,16.067-45.63c6.916,0.913,14.101,0.708,20.955-0.62
			c7.769,33.51,22.929,69.464,42.89,70.283c17.873,0.661,23.318-23.635,25.111-36.8c6.496,15.004,13.946,28.567,21.562,39.145
			c8.004,11.116,30.604,35.114,42.589,13.887c3.948-6.993,4.944-18.317,2.961-33.656c-1.062-8.213-2.936-17.18-5.536-26.568
			c3.991,3.719,8.156,7.408,12.476,11.051c2.28,1.923,4.61,3.836,6.926,5.688c7.574,6.055,16.942-5.658,9.368-11.715
			c-2.214-1.771-4.443-3.602-6.624-5.44c-10.006-8.438-19.119-17.116-27.084-25.791c-7.863-8.562-17.445,1.094-16.071,9.978
			c15.534,42.075,13.549,66.658,10.101,69.715c-1.387-0.036-7.54-2.721-17.297-16.421c-9.115-12.8-18.037-30.415-25.124-49.611
			c-4.931-10.201-21.455-9.723-21.92,3.241c-0.145,4.041-1.565,39.232-10.822,38.311c-2.033-0.083-7.683-3.74-14.52-16.986
			c-5.758-11.156-10.884-26.209-14.645-42.88c27.39-12.397,43.092-42.984,37.189-72.462c28.626-2.729,51.917-24.077,57.636-51.797
			c45.451,0.665,71.637,12.386,73.037,18.881c0.049,0.227,0.163,0.758-0.569,1.887c-2.746,4.237-13.62,10.806-35.229,15.374
			c-12.732,2.693-10.621,19.387,0.562,22.168c20.114,3.722,38.982,9.532,53.129,16.361c15.18,7.327,18.796,12.943,19.03,14.266
			c-2.354,3.929-26.146,10.11-70.209,1.957c-8.986-0.297-16.783,11.298-7.123,17.533c9.886,6.38,19.975,13.895,29.984,22.336
			c16.25,13.704,30.45,28.363,39.983,41.278c9.77,13.234,11.393,20.303,11.211,22.336c-2.458,0.634-13.286-0.184-36.306-14.218
			c-8.281-5.048-16.087,7.761-7.808,12.809c13.664,8.329,30.216,16.504,42.549,16.504c5.389,0,9.975-1.562,13.158-5.354
			C517.081,474.016,475.469,430.493,448.433,407.693z M196.877,224.793c27.685,0,50.208,22.588,50.208,50.353
			c0,4.513-0.595,8.952-1.76,13.247c-22.111,3.165-40.672,17.482-49.823,37.072c-27.05-0.735-48.833-23.016-48.833-50.319
			C146.67,247.381,169.192,224.793,196.877,224.793z M216.708,456.457c-1.505,2.842-10.562,20.017-15.756,15.2
			c-3.702-3.427-8.307-15.29-9.104-37.445c-0.452-12.598-16.922-13.598-21.923-3.233c-7.084,19.188-16.006,36.804-25.121,49.604
			c-33.747,47.386-12.295-39.482-7.205-53.271c1.827-8.803-8.279-18.483-16.062-10.001c-16.379,17.837-35.197,33.779-55.459,47.031
			c-9.845,6.439-29.899,21.848-42.875,18.436c-1.231-13.687,18.215-31.687,26.335-40.485c16.156-17.506,34.848-32.565,54.845-45.468
			c9.758-6.3,1.886-17.378-7.101-17.538c-44.081,8.157-67.872,1.978-70.231-1.95c3.373-18.614,58.912-28.178,72.135-30.625
			c11.201-2.76,13.328-19.476,0.583-22.172c-4.459-0.943-37.819-7.882-35.797-17.261c1.36-6.309,25.507-17.489,69.069-18.786
			c5.753,27.674,29.021,48.976,57.614,51.702c-0.834,4.166-1.278,8.472-1.278,12.881c0,27.885,17.523,51.735,42.109,61.103
			C227.649,430.713,222.462,445.594,216.708,456.457z M271.187,400.586c-5.727,1.348-10.602,2.842-16.602,2.842
			c-27.685,0-50.208-22.588-50.208-50.353s22.523-50.354,50.208-50.354s50.208,22.589,50.208,50.354
			C304.793,375.006,290.736,393.695,271.187,400.586z M313.668,325.464c-9.152-19.591-27.716-33.909-49.829-37.073
			c-1.164-4.293-1.754-8.731-1.754-13.246c0-27.765,22.523-50.353,50.208-50.353s50.208,22.588,50.208,50.353
			C362.501,302.448,340.718,324.729,313.668,325.464z"/>
		<path d="M253.724,319.604c-19.429,0-35.236,16.614-35.236,37.036c0,9.697,15,9.697,15,0c0-12.15,9.078-22.036,20.236-22.036
			C263.421,334.604,263.421,319.604,253.724,319.604z"/>
	</g>
</g>
<g>
</g>
<g>
</g>
<g>
</g>
<g>
</g>
<g>
</g>
<g>
</g>
<g>
</g>
<g>
</g>
<g>
</g>
<g>
</g>
<g>
</g>
<g>
</g>
<g>
</g>
<g>
</g>
<g>
</g>
</svg>
