<?xml version="1.0" encoding="iso-8859-1"?>
<!-- Generator: Adobe Illustrator 25.0.0, SVG Export Plug-In . SVG Version: 6.00 Build 0)  -->
<svg version="1.1" id="Layer_1" xmlns="http://www.w3.org/2000/svg" xmlns:xlink="http://www.w3.org/1999/xlink" x="0px" y="0px"
	 viewBox="0 0 511.994 511.994" style="enable-background:new 0 0 511.994 511.994;" xml:space="preserve">
<g>
	<g>
		<path style="fill:#B5C8FF;" d="M217.5,278.388c0,0-29.839,74.637-136.198,125.492c-99.522,47.586-97.292-342.052,0-295.532
			C187.66,159.203,217.5,233.84,217.5,233.84h76.988c0,0,29.839-74.637,136.198-125.492c99.522-47.586,97.292,342.052,0,295.532
			c-106.359-50.855-136.198-125.492-136.198-125.492H217.5z"/>
		<g>
			<path style="fill:#9CB5FF;" d="M430.686,108.348c-1.753,0.838-3.482,1.684-5.194,2.534
				c52.64,39.919,51.561,249.799-0.637,290.142c1.92,0.959,3.858,1.913,5.831,2.856C527.978,450.4,530.208,60.762,430.686,108.348z"
				/>
			<path style="fill:#9CB5FF;" d="M177.5,233.84h40c0,0-29.839-74.637-136.198-125.492c-13.127-6.277-24.52-4.602-34.169,2.856
				C148.749,161.948,177.5,233.84,177.5,233.84z"/>
			<path style="fill:#9CB5FF;" d="M46.496,401.346c9.753,7.396,21.347,8.969,34.806,2.534
				C187.66,353.025,217.5,278.388,217.5,278.388h-40C177.5,278.388,148.633,350.584,46.496,401.346z"/>
		</g>
		<path style="fill:#6B8DF2;" d="M281.08,325.714h-50.172c-26.51,0-48-21.49-48-48v-43.2c0-26.51,21.49-48,48-48h50.172
			c26.51,0,48,21.49,48,48v43.2C329.08,304.224,307.59,325.714,281.08,325.714z"/>
	</g>
	<g>
		<path d="M479.925,114.721c-14.213-17.857-32.85-22.524-52.474-13.141c-57.533,27.509-93.195,61.944-113.901,87.965
			c-9.137-6.616-20.352-10.531-32.471-10.531h-50.172c-12.118,0-23.333,3.915-32.471,10.531
			c-20.706-26.021-56.367-60.455-113.9-87.965c-10.787-5.156-21.195-5.994-30.941-2.481c-12.762,4.598-23.642,16.459-32.336,35.255
			c-4.071,8.801,9.542,15.097,13.614,6.297c6.85-14.809,15.082-24.297,23.805-27.439c5.914-2.131,12.254-1.509,19.387,1.902
			c55.804,26.682,89.95,60.003,109.474,84.825c-5.239,6.558-9.025,14.32-10.865,22.804l-49.786-12.613
			c-9.402-2.38-13.083,12.159-3.684,14.541l52.201,13.225v36.435l-52.201,13.225c-9.275,2.351-5.303,16.814,3.684,14.541
			l49.786-12.613c1.84,8.483,5.624,16.245,10.863,22.802c-19.466,24.748-53.608,58.116-109.473,84.827
			c-10.6,5.067-19.377,4.374-27.624-2.183C15.787,367.379,6.436,252.227,23.089,177.285c2.103-9.466-12.538-12.721-14.643-3.254
			c-8.69,39.107-10.823,88.829-5.707,133.006c3.293,28.437,12.658,79.194,38.368,99.636c12.691,10.089,29.048,10.85,43.429,3.975
			c57.589-27.536,93.254-62.019,113.901-87.964c9.137,6.616,20.352,10.531,32.47,10.531h50.172c12.118,0,23.334-3.915,32.471-10.532
			c13.355,16.802,29.268,32.546,47.406,46.871c7.433,5.868,17.02-5.672,9.297-11.771c-17.616-13.913-32.996-29.201-45.802-45.498
			c5.237-6.557,9.021-14.317,10.86-22.798l49.786,12.612c9.078,2.295,12.972-12.187,3.684-14.541l-52.201-13.224v-36.436
			l52.201-13.225c9.4-2.382,5.716-16.925-3.684-14.541l-49.786,12.613c-1.84-8.484-5.625-16.247-10.865-22.804
			c19.524-24.823,53.671-58.144,109.475-84.825c13.416-6.415,24.303-3.569,34.267,8.949c18.001,22.615,29.037,73.177,28.803,131.952
			c-0.235,58.713-11.606,109.289-29.678,131.993c-9.862,12.389-20.474,15.282-33.392,9.105
			c-11.348-5.426-22.348-11.398-32.695-17.753c-8.266-5.071-16.113,7.707-7.85,12.783c10.792,6.626,22.256,12.852,34.074,18.503
			c19.377,9.264,38.632,2.994,51.599-13.297c23.991-30.143,32.747-92.742,32.94-141.275
			C512.242,193.106,500.255,140.263,479.925,114.721z M230.908,318.214c-22.332,0-40.5-18.168-40.5-40.499v-43.201
			c0-22.331,18.168-40.499,40.5-40.499h50.172c22.332,0,40.5,18.168,40.5,40.499v43.201c0,22.331-18.168,40.499-40.5,40.499H230.908
			z"/>
		<path d="M220.748,251.592c1.142-9.63-13.754-11.395-14.896-1.766c-0.396,3.333-3.513,32.966,8.562,46.806
			c6.474,7.419,17.614-2.628,11.303-9.861C219.885,280.085,219.574,261.648,220.748,251.592z"/>
	</g>
</g>
<g>
</g>
<g>
</g>
<g>
</g>
<g>
</g>
<g>
</g>
<g>
</g>
<g>
</g>
<g>
</g>
<g>
</g>
<g>
</g>
<g>
</g>
<g>
</g>
<g>
</g>
<g>
</g>
<g>
</g>
</svg>
