<?xml version="1.0" encoding="iso-8859-1"?>
<!-- Generator: Adobe Illustrator 25.0.0, SVG Export Plug-In . SVG Version: 6.00 Build 0)  -->
<svg version="1.1" id="Layer_1" xmlns="http://www.w3.org/2000/svg" xmlns:xlink="http://www.w3.org/1999/xlink" x="0px" y="0px"
	 viewBox="0 0 512 512" style="enable-background:new 0 0 512 512;" xml:space="preserve">
<g>
	<g>
		<g>
			<g>
				<g>
					<polygon style="fill:#6B8DF2;" points="135.317,373.33 95.064,373.33 148.832,291.587 189.085,291.587 					"/>
					<polygon style="fill:#6B8DF2;" points="376.683,373.33 416.936,373.33 363.168,291.587 322.915,291.587 					"/>
				</g>
				<rect x="7.5" y="7.5" style="fill:#B5C8FF;" width="497" height="304.716"/>
				
					<rect x="136.003" y="-56.381" transform="matrix(-1.836970e-16 1 -1 -1.836970e-16 415.8581 -96.1419)" style="fill:#6B8DF2;" width="239.994" height="432.479"/>
			</g>
			<g>
				<g>
					<circle style="fill:#FFFFFF;" cx="256" cy="159.612" r="99.081"/>
				</g>
			</g>
		</g>
		<g>
			<path style="fill:#FFCA21;" d="M33.496,368.916c0,45.195,0,90.389,0,135.584h445.008c0-45.195,0-90.389,0-135.584H33.496z
				 M443.042,469.038H68.958v-64.66h374.084V469.038z"/>
			<g>
				<rect x="129.692" y="432.215" style="fill:#EB67A5;" width="142" height="36.822"/>
				<rect x="311.308" y="432.215" style="fill:#A1FFE6;" width="71" height="36.822"/>
			</g>
		</g>
	</g>
	<g>
		<path d="M504.5,0H7.5C3.357,0,0,3.357,0,7.5v304.717c0,4.143,3.357,7.5,7.5,7.5h113.853l-27.428,41.699H33.496
			c-4.143,0-7.5,3.357-7.5,7.5V504.5c0,4.143,3.357,7.5,7.5,7.5h358.512c4.143,0,7.5-3.357,7.5-7.5s-3.357-7.5-7.5-7.5H40.996
			V376.416h430.008V497h-39.14c-4.143,0-7.5,3.357-7.5,7.5s3.357,7.5,7.5,7.5h46.64c4.143,0,7.5-3.357,7.5-7.5V368.916
			c0-4.143-3.357-7.5-7.5-7.5h-60.429l-27.428-41.699H504.5c4.143,0,7.5-3.357,7.5-7.5V7.5C512,3.357,508.643,0,504.5,0z
			 M139.305,319.717h22.3l-27.428,41.699h-22.3L139.305,319.717z M332.442,319.717l27.428,41.699H152.13l27.428-41.699H332.442z
			 M400.123,361.416h-22.3l-27.428-41.699h22.3L400.123,361.416z M497,304.717H376.868c-0.041-0.001-0.081,0-0.122,0h-40.131
			c-0.041-0.001-0.081,0-0.122,0h-161.01c-0.028,0-0.056,0-0.084,0H135.23c-0.028,0-0.056,0-0.084,0H15V15h482V304.717z"/>
		<path d="M39.761,287.355h432.479c4.143,0,7.5-3.357,7.5-7.5V39.861c0-4.143-3.357-7.5-7.5-7.5H39.761c-4.143,0-7.5,3.357-7.5,7.5
			v45.283c0,9.697,15,9.697,15,0V47.361h417.479v224.994H47.261V124.867c0-9.697-15-9.697-15,0v154.988
			C32.261,283.998,35.618,287.355,39.761,287.355z"/>
		<path d="M91.095,148.686c-4.143,0-7.5,3.357-7.5,7.5s3.357,7.5,7.5,7.5h58.41c0.337,8.926,1.775,17.575,4.186,25.813
			c-0.424,0.151-0.842,0.336-1.246,0.569l-39.166,22.612c-8.623,4.98-0.533,17.628,7.5,12.99l38.165-22.034
			c16.788,36.865,53.978,62.557,97.057,62.557c43.497,0,80.985-26.196,97.535-63.636l37.686,21.758
			c8.035,4.635,16.123-8.011,7.5-12.99l-39.166-22.612c-0.292-0.168-0.592-0.307-0.896-0.433c2.201-7.871,3.515-16.108,3.835-24.595
			h56.061c4.143,0,7.5-3.357,7.5-7.5s-3.357-7.5-7.5-7.5h-56.532c-0.69-6.747-2.019-13.307-3.913-19.625l36.653-21.162
			c8.398-4.849,0.897-17.839-7.5-12.99l-34.55,19.948C335.769,78.385,298.792,53.031,256,53.031
			c-42.374,0-79.049,24.859-96.215,60.758l-35.049-20.236c-8.4-4.847-15.897,8.141-7.5,12.99l36.999,21.361
			c-2.083,6.671-3.527,13.622-4.259,20.78H91.095z M256,68.031c50.498,0,91.581,41.083,91.581,91.581S306.498,251.193,256,251.193
			s-91.581-41.083-91.581-91.581S205.502,68.031,256,68.031z"/>
		<path d="M75.863,242.942c3.037,3.796,6.452,4.711,10.245,2.745l15.238-8.798c8.398-4.849,0.897-17.84-7.5-12.99l-15.238,8.798
			C75.021,234.769,73.792,239.355,75.863,242.942z"/>
		<path d="M421.935,74.893l-15.238,8.798c-8.623,4.98-0.533,17.628,7.5,12.99l15.238-8.798
			C437.832,83.034,430.332,70.043,421.935,74.893z"/>
		<path d="M407.908,225.289c-2.071,3.587-0.842,8.174,2.745,10.245l15.238,8.798c8.035,4.635,16.123-8.011,7.5-12.99l-15.238-8.798
			C414.564,220.473,409.979,221.701,407.908,225.289z"/>
		<path d="M105.304,82.334l-15.238-8.797c-8.398-4.852-15.898,8.143-7.5,12.99l15.238,8.797
			C105.836,99.964,113.928,87.312,105.304,82.334z"/>
		<path d="M309.004,145.77h1.688v35.604c0,4.143,3.357,7.5,7.5,7.5s7.5-3.357,7.5-7.5V138.27c0-4.143-3.357-7.5-7.5-7.5h-9.188
			c-4.143,0-7.5,3.357-7.5,7.5S304.861,145.77,309.004,145.77z"/>
		<path d="M188.961,153.891c4.075,0.793,8.006-1.854,8.803-5.918c0.321-1.643,1.766-2.834,3.434-2.834
			c1.815,0,3.312,1.398,3.485,3.184c-0.264,2.632-1.403,4.992-3.417,7.078c-6.78,9.712-10.822,15.019-12.994,17.869
			c-3.28,4.307-6.859,12.481,1.465,15.263c0.988,0.33,1.693,0.566,10.368,0.566c3.336,0,7.851-0.035,14.012-0.113
			c4.142-0.052,7.457-3.452,7.404-7.594c-0.052-4.109-3.399-7.405-7.497-7.405c-0.032,0-0.064,0-0.097,0.001
			c-2.482,0.031-5.063,0.057-7.533,0.073c1.966-2.7,4.337-6.014,7.171-10.074c3.066-4.391,6.135-9.787,6.135-15.318
			c0-10.217-8.3-18.529-18.502-18.529c-8.821,0-16.457,6.287-18.154,14.949C182.247,149.153,184.896,153.094,188.961,153.891z"/>
		<path d="M268.443,153.891c4.074,0.793,8.006-1.854,8.803-5.918c0.321-1.643,1.766-2.834,3.435-2.834
			c1.814,0,3.312,1.398,3.484,3.184c-0.264,2.632-1.403,4.992-3.416,7.078c-6.78,9.712-10.822,15.018-12.994,17.869
			c-2.853,3.743-4.736,6.217-3.509,10.206c0.729,2.369,2.588,4.26,4.973,5.057c0.988,0.33,1.693,0.566,10.368,0.566
			c3.336,0,7.851-0.035,14.012-0.113c4.142-0.052,7.457-3.452,7.404-7.594c-0.052-4.109-3.399-7.405-7.497-7.405
			c-0.032,0-0.064,0-0.097,0.001c-2.482,0.031-5.063,0.057-7.533,0.073c1.967-2.7,4.338-6.015,7.173-10.075
			c3.065-4.391,6.133-9.787,6.133-15.317c0-10.217-8.3-18.529-18.501-18.529c-8.822,0-16.458,6.287-18.155,14.949
			C261.729,149.153,264.379,153.094,268.443,153.891z"/>
		<path d="M241.953,189.753c10.991,0,19.933-8.956,19.933-19.965v-19.934c0-11.009-8.941-19.965-19.933-19.965
			s-19.933,8.956-19.933,19.965v19.934C222.021,180.797,230.962,189.753,241.953,189.753z M237.021,149.854
			c0-2.737,2.213-4.965,4.933-4.965s4.933,2.228,4.933,4.965v19.934c0,2.737-2.213,4.965-4.933,4.965s-4.933-2.228-4.933-4.965
			V149.854z"/>
		<path d="M450.542,469.037v-64.659c0-4.143-3.357-7.5-7.5-7.5H68.958c-4.143,0-7.5,3.357-7.5,7.5v64.659c0,4.143,3.357,7.5,7.5,7.5
			h60.714c0.006,0,0.013,0.001,0.019,0.001h142c0.007,0,0.013-0.001,0.019-0.001h39.579c0.006,0,0.013,0.001,0.019,0.001h71
			c0.007,0,0.013-0.001,0.019-0.001h60.714C447.185,476.537,450.542,473.18,450.542,469.037z M264.191,461.537h-127v-21.821h127
			V461.537z M374.809,461.537h-56v-21.821h56V461.537z M435.542,461.537h-45.733v-29.321c0-4.143-3.357-7.5-7.5-7.5h-71
			c-4.143,0-7.5,3.357-7.5,7.5v29.321h-24.617v-29.321c0-4.143-3.357-7.5-7.5-7.5h-142c-4.143,0-7.5,3.357-7.5,7.5v29.321H76.458
			v-49.659h359.084V461.537z"/>
	</g>
</g>
<g>
</g>
<g>
</g>
<g>
</g>
<g>
</g>
<g>
</g>
<g>
</g>
<g>
</g>
<g>
</g>
<g>
</g>
<g>
</g>
<g>
</g>
<g>
</g>
<g>
</g>
<g>
</g>
<g>
</g>
</svg>
