<?xml version="1.0" encoding="iso-8859-1"?>
<!-- Generator: Adobe Illustrator 25.0.0, SVG Export Plug-In . SVG Version: 6.00 Build 0)  -->
<svg version="1.1" id="Layer_1" xmlns="http://www.w3.org/2000/svg" xmlns:xlink="http://www.w3.org/1999/xlink" x="0px" y="0px"
	 viewBox="0 0 512 512" style="enable-background:new 0 0 512 512;" xml:space="preserve">
<g>
	<g>
		<g>
			<g>
				<polygon style="fill:#FFCA21;" points="255.978,97.268 333.466,7.5 178.491,7.5 				"/>
				<polygon style="fill:#F2BB0C;" points="293.466,7.5 235.978,74.098 255.978,97.268 333.466,7.5 				"/>
				<polygon style="fill:#FFCA21;" points="255.978,428.601 333.466,338.833 178.491,338.833 				"/>
				<polygon style="fill:#FFCA21;" points="410.648,428.601 488.135,338.833 333.16,338.833 				"/>
				<polygon style="fill:#F2BB0C;" points="448.136,338.833 390.648,405.432 410.648,428.601 488.136,338.833 				"/>
				<polygon style="fill:#FFCA21;" points="101.309,428.601 178.797,338.833 23.821,338.833 				"/>
				<g>
					<polygon style="fill:#FFCA21;" points="178.797,261.841 256.284,172.073 101.309,172.073 					"/>
					<polygon style="fill:#FFCA21;" points="333.16,261.841 410.648,172.073 255.672,172.073 					"/>
					<polygon style="fill:#F2BB0C;" points="370.648,172.073 313.16,238.672 333.16,261.841 410.648,172.073 					"/>
				</g>
			</g>
		</g>
	</g>
	<g>
		<path d="M494.955,335.711c-1.222-2.667-3.886-4.378-6.819-4.378H340.66V264.63l75.665-87.656c4.116-4.768,0.62-12.4-5.678-12.4
			H263.478v-64.516L339.144,12.4c4.116-4.768,0.62-12.4-5.678-12.4H178.491c-6.298,0-9.793,7.633-5.678,12.4l22.282,25.813
			c6.336,7.341,17.692-2.46,11.355-9.801L194.873,15h122.212l-61.106,70.79l-23.574-27.31c-6.336-7.341-17.692,2.46-11.355,9.801
			l27.43,31.776v64.516H101.309c-6.298,0-9.793,7.633-5.678,12.4l75.665,87.656v66.703H23.821c-6.298,0-9.793,7.633-5.678,12.4
			l75.972,88.012V497H74.763c-4.143,0-7.5,3.357-7.5,7.5s3.357,7.5,7.5,7.5h53.09c4.143,0,7.5-3.357,7.5-7.5s-3.357-7.5-7.5-7.5
			h-18.738v-65.963l69.529-80.549l69.834,80.903V497h-19.045c-4.143,0-7.5,3.357-7.5,7.5s3.357,7.5,7.5,7.5h53.09
			c4.143,0,7.5-3.357,7.5-7.5s-3.357-7.5-7.5-7.5h-19.045v-65.609l69.834-80.903l69.834,80.902V497h-19.044
			c-4.143,0-7.5,3.357-7.5,7.5s3.357,7.5,7.5,7.5h53.089c4.143,0,7.5-3.357,7.5-7.5s-3.357-7.5-7.5-7.5h-19.045v-65.608
			l25.079-29.054c6.335-7.341-5.02-17.142-11.355-9.801l-21.223,24.587l-61.106-70.791h122.212l-14.334,16.605
			c-6.336,7.34,5.02,17.142,11.355,9.801l25.038-29.006C495.73,341.513,496.176,338.378,494.955,335.711z M186.297,264.63
			l69.682-80.725l69.682,80.725v66.703H186.297V264.63z M394.265,179.573l-61.105,70.79l-61.105-70.79H394.265z M239.902,179.573
			l-61.105,70.79l-61.105-70.79H239.902z M101.309,417.124l-61.106-70.791h122.212L101.309,417.124z M255.978,417.124
			l-61.105-70.791h122.211L255.978,417.124z"/>
		<path d="M364.114,15c11.351,0,20.585,9.2,20.585,20.508v105.377c0,4.143,3.357,7.5,7.5,7.5s7.5-3.357,7.5-7.5V35.508
			C399.699,15.929,383.736,0,364.114,0C354.417,0,354.417,15,364.114,15z"/>
		<path d="M439.367,179.573c11.351,0,20.585,9.2,20.585,20.508v105.377c0,9.697,15,9.697,15,0V200.081
			c0-19.579-15.963-35.508-35.585-35.508C429.67,164.573,429.67,179.573,439.367,179.573z"/>
		<path d="M119.123,148.385c4.143,0,7.5-3.357,7.5-7.5V35.508C126.623,24.2,135.857,15,147.208,15c9.697,0,9.696-15-0.001-15
			c-19.621,0-35.584,15.929-35.584,35.508v105.377C111.623,145.027,114.98,148.385,119.123,148.385z"/>
		<path d="M43.87,312.958c4.143,0,7.5-3.357,7.5-7.5V200.081c0-11.308,9.234-20.508,20.584-20.508c9.697,0,9.697-15,0-15
			c-19.621,0-35.584,15.929-35.584,35.508v105.377C36.37,309.601,39.727,312.958,43.87,312.958z"/>
		<path d="M73.359,226.887c-4.143,0-7.5,3.357-7.5,7.5v46.631c0,4.143,3.357,7.5,7.5,7.5s7.5-3.357,7.5-7.5v-46.631
			C80.859,230.244,77.502,226.887,73.359,226.887z"/>
		<path d="M438.597,288.518c4.143,0,7.5-3.357,7.5-7.5v-46.631c0-4.143-3.357-7.5-7.5-7.5s-7.5,3.357-7.5,7.5v46.631
			C431.097,285.16,434.455,288.518,438.597,288.518z"/>
		<path d="M421.805,120.431c4.143,0,7.5-3.357,7.5-7.5V65.269c0-4.143-3.357-7.5-7.5-7.5s-7.5,3.357-7.5,7.5v47.662
			C414.305,117.073,417.663,120.431,421.805,120.431z"/>
		<path d="M90.151,120.431c4.143,0,7.5-3.357,7.5-7.5V65.269c0-4.143-3.357-7.5-7.5-7.5s-7.5,3.357-7.5,7.5v47.662
			C82.651,117.073,86.009,120.431,90.151,120.431z"/>
		<path d="M183.734,227.646c3.118-2.728,3.435-7.466,0.708-10.583l-22.249-25.437c-2.729-3.118-7.467-3.436-10.583-0.708
			c-3.118,2.728-3.435,7.466-0.708,10.583l22.249,25.437C176.582,230.099,180.109,230.335,183.734,227.646z"/>
		<path d="M227.084,368.55l22.249,25.437c1.483,1.695,3.561,2.562,5.648,2.562c1.752,0,3.513-0.61,4.935-1.854
			c3.118-2.728,3.435-7.466,0.708-10.583l-22.249-25.437c-2.729-3.119-7.468-3.436-10.583-0.708
			C224.674,360.694,224.357,365.433,227.084,368.55z"/>
	</g>
</g>
<g>
</g>
<g>
</g>
<g>
</g>
<g>
</g>
<g>
</g>
<g>
</g>
<g>
</g>
<g>
</g>
<g>
</g>
<g>
</g>
<g>
</g>
<g>
</g>
<g>
</g>
<g>
</g>
<g>
</g>
</svg>
