<?xml version="1.0" encoding="iso-8859-1"?>
<!-- Generator: Adobe Illustrator 16.0.0, SVG Export Plug-In . SVG Version: 6.00 Build 0)  -->
<!DOCTYPE svg PUBLIC "-//W3C//DTD SVG 1.1//EN" "http://www.w3.org/Graphics/SVG/1.1/DTD/svg11.dtd">
<svg fill="#fff" version="1.1" id="Capa_1" xmlns="http://www.w3.org/2000/svg" xmlns:xlink="http://www.w3.org/1999/xlink" x="0px" y="0px"
	 width="325.893px" height="325.893px" viewBox="0 0 325.893 325.893" style="enable-background:new 0 0 325.893 325.893;"
	 xml:space="preserve">
<g>
	<g>
		<polygon points="36.894,39.968 8.695,39.968 27.142,58.415 45.588,76.862 281.072,76.862 299.52,58.415 317.966,39.968 
			288.999,39.968 		"/>
		<polygon points="36.894,241.105 36.894,85.557 18.447,67.11 0,48.663 0,76.862 0,249.031 0,277.998 18.447,259.552 		"/>
		<polygon points="280.304,249.031 46.357,249.031 27.91,267.479 9.464,285.925 36.894,285.925 288.999,285.925 317.197,285.925 
			298.751,267.479 		"/>
		<polygon points="288.999,86.325 288.999,240.336 307.445,258.783 325.893,277.229 325.893,249.031 325.893,76.862 325.893,49.432 
			307.445,67.879 		"/>
	</g>
</g>
<g>
</g>
<g>
</g>
<g>
</g>
<g>
</g>
<g>
</g>
<g>
</g>
<g>
</g>
<g>
</g>
<g>
</g>
<g>
</g>
<g>
</g>
<g>
</g>
<g>
</g>
<g>
</g>
<g>
</g>
</svg>
