<?xml version="1.0" encoding="iso-8859-1"?>
<!-- Generator: Adobe Illustrator 19.0.0, SVG Export Plug-In . SVG Version: 6.00 Build 0)  -->
<svg fill = "#fff" version="1.1" id="Layer_1" xmlns="http://www.w3.org/2000/svg" xmlns:xlink="http://www.w3.org/1999/xlink" x="0px" y="0px"
	 viewBox="0 0 512 512" style="enable-background:new 0 0 512 512;" xml:space="preserve">
<g>
	<g>
		<path d="M255.999,91.429c-90.745,0-164.571,73.827-164.571,164.571c0,5.408,0.269,10.751,0.783,16.026l41.885-41.885
			l97.524,97.524l146.286-146.286l38.708,38.708C400.182,146.556,334.412,91.429,255.999,91.429z M231.619,237.714
			c-30.248,0-54.857-24.608-54.857-54.857c0-30.249,24.609-54.857,54.857-54.857s54.857,24.609,54.857,54.857
			C286.476,213.105,261.867,237.714,231.619,237.714z"/>
	</g>
</g>
<g>
	<g>
		<path d="M377.905,233.098L231.619,379.383l-97.524-97.524l-32.113,32.115c23.498,62.224,83.668,106.597,154.017,106.597
			c84.424,0,154.19-63.902,163.504-145.876L377.905,233.098z"/>
	</g>
</g>
<g>
	<g>
		<path d="M231.619,164.571c-10.083,0-18.286,8.203-18.286,18.286c0,10.083,8.203,18.286,18.286,18.286
			c10.083,0,18.286-8.203,18.286-18.286C249.905,172.774,241.702,164.571,231.619,164.571z"/>
	</g>
</g>
<g>
	<g>
		<path d="M0,0v512h512V0H0z M255.999,457.143c-110.91,0-201.143-90.233-201.143-201.143S145.089,54.857,255.999,54.857
			c110.911,0,201.143,90.233,201.143,201.143S366.91,457.143,255.999,457.143z"/>
	</g>
</g>
<g>
</g>
<g>
</g>
<g>
</g>
<g>
</g>
<g>
</g>
<g>
</g>
<g>
</g>
<g>
</g>
<g>
</g>
<g>
</g>
<g>
</g>
<g>
</g>
<g>
</g>
<g>
</g>
<g>
</g>
</svg>
