<svg enable-background="new 0 0 24 24" height="512" viewBox="0 0 24 24" width="512" xmlns="http://www.w3.org/2000/svg"><path d="m21.81 8.738-6.331 6.347c-.013.011-.095.083-.107.095-.24.239-.372.553-.372.884 0 .31.113.609.33.852l6.491 7.006c.23.257.577.41.929.41.689 0 1.25-.562 1.25-1.253v-13.529c0-1.021-1.265-1.769-2.19-.812z" fill="#b0bec5"/><path d="m8.561 15.122-6.332-6.343c-.012-.014-.085-.098-.099-.111-.238-.239-.551-.37-.88-.37-.689-.001-1.25.561-1.25 1.252v13.529c0 .691.561 1.253 1.25 1.253.352 0 .698-.153.92-.401l6.51-7.027c.207-.231.32-.53.32-.84 0-.331-.132-.645-.439-.942z" fill="#b0bec5"/><path d="m12 23.328c-.414 0-.75-.336-.75-.75v-12.527c0-.414.336-.75.75-.75s.75.336.75.75v12.527c0 .414-.336.75-.75.75z"/><path d="m20.25 8.295h-6.5c-.414 0-.75-.336-.75-.75s.336-.75.75-.75h5.75v-5.764c0-.414.336-.75.75-.75s.75.336.75.75v6.514c0 .414-.336.75-.75.75z"/><path d="m20.25 8.295c-.312 0-.603-.195-.709-.506-1.135-3.293-4.165-5.507-7.541-5.507s-6.406 2.214-7.541 5.508c-.134.392-.559.6-.953.464-.392-.135-.6-.562-.465-.953 1.343-3.899 4.942-6.519 8.959-6.519s7.616 2.62 8.959 6.519c.135.392-.073.818-.465.953-.081.028-.163.041-.244.041z"/><path d="m1.25 24.331c-.689 0-1.25-.561-1.25-1.251v-13.53c0-.69.561-1.251 1.25-1.251.33 0 .644.132.882.372.012.012.084.094.095.107l6.335 6.346c.306.296.438.609.438.94 0 .309-.113.606-.318.838l-6.512 7.028c-.221.247-.567.401-.92.401zm-.181-1.42c-.003.003-.006.006-.009.009zm.431-12.741v12.276l5.902-6.37zm6.07 6.075h.011z"/><path d="m22.75 24.331c-.353 0-.699-.154-.93-.411l-6.49-7.005c-.217-.245-.33-.542-.33-.851 0-.331.132-.644.371-.882.013-.012.095-.084.107-.095l6.33-6.347c.921-.954 2.192-.211 2.192.81v13.53c0 .69-.561 1.251-1.25 1.251zm.174-1.428.006.007c-.002-.002-.004-.005-.006-.007zm-6.321-6.822 5.897 6.365v-12.284z"/></svg>