<?xml version="1.0" encoding="iso-8859-1"?>
<!-- Generator: Adobe Illustrator 24.2.1, SVG Export Plug-In . SVG Version: 6.00 Build 0)  -->
<svg version="1.1" id="Capa_1" xmlns="http://www.w3.org/2000/svg" xmlns:xlink="http://www.w3.org/1999/xlink" x="0px" y="0px"
	 viewBox="0 0 512 512" style="enable-background:new 0 0 512 512;" xml:space="preserve">
<g>
	<polygon style="fill:#98D3F3;" points="467,482 467,407 437,407 437,482 392,482 392,512 512,512 512,482 	"/>
	<polygon style="fill:#403C86;" points="196,272 256,512 362,512 362,332 	"/>
	<polygon style="fill:#3F6078;" points="150,332 150,512 256,512 256,272 	"/>
	<path style="fill:#FDA147;" d="M298.43,332H362v-15c0-58.926-14.355-88.71-28.238-117.513C320.771,172.533,308.5,147.074,308.5,95
		V52.5C308.5,23.551,284.949,0,256,0l-30,181l30,181C275.556,362,292.239,349.461,298.43,332z"/>
	<path style="fill:#FDC245;" d="M256,362V0c-28.949,0-52.5,23.551-52.5,52.5V95c0,52.074-12.271,77.533-25.262,104.487
		C164.355,228.29,150,258.074,150,317v15h63.57C219.761,349.461,236.444,362,256,362z"/>
	<polygon style="fill:#ADF2F5;" points="75,482 75,407 45,407 45,482 0,482 0,512 120,512 120,482 	"/>
	<polygon style="fill:#FEF575;" points="503.188,182 400.812,182 397.11,257 452,317 506.89,257 	"/>
	<path style="fill:#FDA147;" d="M511.925,359.004L506.89,257H397.11l-5.034,102c-0.05,1.01-0.076,2.02-0.076,3
		c0,33.084,26.916,60,60,60s60-26.916,60-60C512,361.019,511.975,360.01,511.925,359.004z"/>
	<polygon style="fill:#FFFBBE;" points="111.188,182 8.812,182 5.11,257 60,317 114.89,257 	"/>
	<path style="fill:#FDC245;" d="M119.925,359.004L114.89,257H5.11L0.076,359C0.025,360.01,0,361.019,0,362c0,33.084,26.916,60,60,60
		s60-26.916,60-60C120,361.019,119.975,360.01,119.925,359.004z"/>
</g>
<g>
</g>
<g>
</g>
<g>
</g>
<g>
</g>
<g>
</g>
<g>
</g>
<g>
</g>
<g>
</g>
<g>
</g>
<g>
</g>
<g>
</g>
<g>
</g>
<g>
</g>
<g>
</g>
<g>
</g>
</svg>
