<?xml version="1.0" encoding="iso-8859-1"?>
<!-- Generator: Adobe Illustrator 24.2.1, SVG Export Plug-In . SVG Version: 6.00 Build 0)  -->
<svg version="1.1" id="Capa_1" xmlns="http://www.w3.org/2000/svg" xmlns:xlink="http://www.w3.org/1999/xlink" x="0px" y="0px"
	 viewBox="0 0 512 512" style="enable-background:new 0 0 512 512;" xml:space="preserve">
<g>
	<rect x="386.5" y="347" style="fill:#98D3F3;" width="20" height="90"/>
	<rect x="376.5" y="347" style="fill:#ADF2F5;" width="15" height="90"/>
	<path style="fill:#98D3F3;" d="M492,482c-17.28,0-25.576-8.9-38.75-24.631C440.053,441.611,423.628,422,391.5,422l-60,75H492V482z"
		/>
	<path style="fill:#ADF2F5;" d="M329.75,457.369C316.576,473.1,308.28,482,291,482v15h100.5v-75
		C359.372,422,342.947,441.611,329.75,457.369z"/>
	<polygon style="fill:#ADF2F5;" points="512,482 391.5,482 361.5,497 391.5,512 512,512 	"/>
	<rect x="271" y="482" style="fill:#D6F9FA;" width="120.5" height="30"/>
	<polygon style="fill:#FEF575;" points="473.585,135 465.644,0 391.5,0 346.5,195 	"/>
	<polygon style="fill:#FFFBBE;" points="391.5,0 317.356,0 309.415,135 391.5,195 	"/>
	<path style="fill:#FDA147;" d="M481.329,266.624c0,0.004-7.743-131.624-7.743-131.624H391.5l-60,113.5l60,113.5
		c49.626,0,90-40.374,90-90C481.5,270.337,481.444,268.578,481.329,266.624z"/>
	<rect x="376.5" y="257" style="fill:#FCE444;" width="45" height="30"/>
	<path style="fill:#FDC245;" d="M376.5,212l15-15v-62h-82.085l-7.743,131.624c-0.115,1.954-0.171,3.713-0.171,5.376
		c0,49.626,40.374,90,90,90V227L376.5,212z"/>
	<rect x="361.5" y="197" style="fill:#FEF575;" width="30" height="30"/>
	<rect x="115.5" y="347" style="fill:#98D3F3;" width="20" height="90"/>
	<rect x="105.5" y="347" style="fill:#ADF2F5;" width="15" height="90"/>
	<path style="fill:#98D3F3;" d="M221,482c-17.28,0-25.576-8.9-38.75-24.631C169.053,441.611,152.628,422,120.5,422l-60,75H221V482z"
		/>
	<path style="fill:#ADF2F5;" d="M58.75,457.369C45.576,473.1,37.28,482,20,482v15h100.5v-75
		C88.372,422,71.947,441.611,58.75,457.369z"/>
	<polygon style="fill:#ADF2F5;" points="241,482 120.5,482 90.5,497 120.5,512 241,512 	"/>
	<rect y="482" style="fill:#D6F9FA;" width="120.5" height="30"/>
	<polygon style="fill:#FEF575;" points="202.585,135 194.644,0 120.5,0 75.5,195 	"/>
	<polygon style="fill:#FFFBBE;" points="120.5,0 46.356,0 38.415,135 120.5,195 	"/>
	<path style="fill:#FDA147;" d="M210.329,266.624c0,0.004-7.743-131.624-7.743-131.624H120.5l-60,113.5l60,113.5
		c49.626,0,90-40.374,90-90C210.5,270.337,210.444,268.578,210.329,266.624z"/>
	<rect x="105.5" y="197" style="fill:#FCE444;" width="45" height="30"/>
	<path style="fill:#FDC245;" d="M120.5,135H38.415l-7.743,131.624c-0.115,1.954-0.171,3.713-0.171,5.376c0,49.626,40.374,90,90,90
		v-75l-15-15l15-15V135z"/>
	<rect x="90.5" y="257" style="fill:#FEF575;" width="30" height="30"/>
</g>
<g>
</g>
<g>
</g>
<g>
</g>
<g>
</g>
<g>
</g>
<g>
</g>
<g>
</g>
<g>
</g>
<g>
</g>
<g>
</g>
<g>
</g>
<g>
</g>
<g>
</g>
<g>
</g>
<g>
</g>
</svg>
