<?xml version="1.0" encoding="iso-8859-1"?>
<!-- Generator: Adobe Illustrator 24.2.1, SVG Export Plug-In . SVG Version: 6.00 Build 0)  -->
<svg version="1.1" id="Capa_1" xmlns="http://www.w3.org/2000/svg" xmlns:xlink="http://www.w3.org/1999/xlink" x="0px" y="0px"
	 viewBox="0 0 512 512" style="enable-background:new 0 0 512 512;" xml:space="preserve">
<g>
	<polygon style="fill:#98D3F3;" points="392,482 392,407 362,407 362,482 317,482 317,512 437,512 437,482 	"/>
	<polygon style="fill:#CF3A48;" points="211,135 211,0 158.5,0 98.5,195 	"/>
	<polygon style="fill:#FF3A33;" points="158.5,0 106,0 106,135 158.5,195 	"/>
	<path style="fill:#403C86;" d="M264.5,257c0-38.223-20.706-73.377-53.5-92.104V135h-52.5l-60,188.5l60,188.5h106v-75l-30-75l30-75
		V257z"/>
	<path style="fill:#554FB2;" d="M106,135v29.896C73.206,183.623,52.5,218.777,52.5,257v30l30,75l-30,75v75h106V135H106z"/>
	<polygon style="fill:#FEF575;" points="158.5,287 98.5,362 158.5,437 264.5,437 264.5,287 	"/>
	<rect x="52.5" y="287" style="fill:#FFFBBE;" width="106" height="150"/>
	<polygon style="fill:#98D3F3;" points="453.274,212 300.726,212 297.004,287 377,347 456.996,287 	"/>
	<path style="fill:#CF3A48;" d="M456.996,287H297.004l-2.4,48.371c-0.069,1.396-0.104,2.785-0.104,4.129
		c0,45.491,37.01,82.5,82.5,82.5s82.5-37.009,82.5-82.5c0-1.344-0.035-2.734-0.104-4.129L456.996,287z"/>
</g>
<g>
</g>
<g>
</g>
<g>
</g>
<g>
</g>
<g>
</g>
<g>
</g>
<g>
</g>
<g>
</g>
<g>
</g>
<g>
</g>
<g>
</g>
<g>
</g>
<g>
</g>
<g>
</g>
<g>
</g>
</svg>
