<?xml version="1.0" encoding="iso-8859-1"?>
<!-- Generator: Adobe Illustrator 24.2.1, SVG Export Plug-In . SVG Version: 6.00 Build 0)  -->
<svg version="1.1" id="Capa_1" xmlns="http://www.w3.org/2000/svg" xmlns:xlink="http://www.w3.org/1999/xlink" x="0px" y="0px"
	 viewBox="0 0 512 512" style="enable-background:new 0 0 512 512;" xml:space="preserve">
<g>
	<path style="fill:#FEF575;" d="M512,120c0-49.626-40.374-90-90-90c-7.921,0-15.721,1.027-23.298,3.063
		C376.484,11.94,346.868,0,316,0l-60,180L512,120z"/>
	<path style="fill:#FFFBBE;" d="M316,0c-30.868,0-60.484,11.94-82.702,33.063C225.721,31.027,217.921,30,210,30
		c-49.626,0-90,40.374-90,90l196,60V0z"/>
	<path style="fill:#98D3F3;" d="M452,120L256,452l60,60h121c41.355,0,75-33.645,75-75V120H452z"/>
	<path style="fill:#ADF2F5;" d="M135,377c-33.137,0-60-26.863-60-60v-17c0-33.137,26.863-60,60-60h15v-75h-15
		C60.561,165,0,225.561,0,300v17c0,74.439,60.561,135,135,135h15v-75H135z"/>
	<path style="fill:#ADF2F5;" d="M180,120h-60l1.371,331.317C128.072,485.849,158.539,512,195,512h121V135L180,120z"/>
	<polygon style="fill:#FFFBBE;" points="452,195 452,120 316,120 256,255 	"/>
	<polygon style="fill:#FFFFFF;" points="316,120 180,120 180,195 316,255 	"/>
	<polygon style="fill:#FE5E49;" points="452,195 316,195 256,323.5 316,452 452,452 	"/>
	<rect x="180" y="195" style="fill:#FE7F48;" width="136" height="257"/>
	<path style="fill:#FEF575;" d="M286,90l30,182c16.569,0,30-13.431,30-30V90H286z"/>
	<path style="fill:#FFFBBE;" d="M286,90v152c0,16.569,13.431,30,30,30V90H286z"/>
	<rect x="362" y="317" style="fill:#FE7F48;" width="30" height="30"/>
	<polygon style="fill:#FE7F48;" points="331,362 316,362 308.5,377 316,392 331,392 	"/>
	<rect x="301" y="362" style="fill:#FDA147;" width="15" height="30"/>
</g>
<g>
</g>
<g>
</g>
<g>
</g>
<g>
</g>
<g>
</g>
<g>
</g>
<g>
</g>
<g>
</g>
<g>
</g>
<g>
</g>
<g>
</g>
<g>
</g>
<g>
</g>
<g>
</g>
<g>
</g>
</svg>
