<?xml version="1.0" encoding="iso-8859-1"?>
<!-- Generator: Adobe Illustrator 24.2.1, SVG Export Plug-In . SVG Version: 6.00 Build 0)  -->
<svg version="1.1" id="Capa_1" xmlns="http://www.w3.org/2000/svg" xmlns:xlink="http://www.w3.org/1999/xlink" x="0px" y="0px"
	 viewBox="0 0 512 512" style="enable-background:new 0 0 512 512;" xml:space="preserve">
<g>
	<path style="fill:#98D3F3;" d="M406,60l-270,60l120,392h165v-90c0-87.247,10.683-127.264,21.992-169.631
		C454.304,209.997,466,166.182,466,75V60H406z"/>
	<path style="fill:#ADF2F5;" d="M46,60v15c0,91.182,11.696,134.997,23.008,177.369C80.317,294.736,91,334.753,91,422v90h165V60H106
		H46z"/>
	<path style="fill:#ADF2F5;" d="M403.845,135C405.212,117.806,406,98.147,406,75V60H256l-60,135L403.845,135z"/>
	<path style="fill:#D6F9FA;" d="M256,60H106v15c0,23.147,0.788,42.806,2.155,60L256,195V60z"/>
	<path style="fill:#FE7F48;" d="M256,135l-60,158.5L256,452h105v-30c0-95.118,12.763-142.926,24.024-185.111
		c7.79-29.183,15.267-57.201,18.821-101.889H256z"/>
	<path style="fill:#FDA147;" d="M108.155,135c3.554,44.689,11.031,72.708,18.823,101.894C138.237,279.074,151,326.882,151,422v30
		h105V135H108.155z"/>
	<polygon style="fill:#C6415D;" points="271,60 271,0 256,0 241,90 	"/>
	<polygon style="fill:#FF3A33;" points="256,0 241,0 241,60 256,90 	"/>
	<polygon style="fill:#FE5E49;" points="256,60 241,165 271,135 271,60 	"/>
	<polygon style="fill:#FE7F48;" points="256,60 241,60 241,135 256,165 	"/>
	<polygon style="fill:#FF3A33;" points="256,391.998 271,391.998 271,135 256,135 246,263.499 	"/>
	<rect x="241" y="135" style="fill:#FE5E49;" width="15" height="256.998"/>
</g>
<g>
</g>
<g>
</g>
<g>
</g>
<g>
</g>
<g>
</g>
<g>
</g>
<g>
</g>
<g>
</g>
<g>
</g>
<g>
</g>
<g>
</g>
<g>
</g>
<g>
</g>
<g>
</g>
<g>
</g>
</svg>
