<?xml version="1.0" encoding="iso-8859-1"?>
<!-- Generator: Adobe Illustrator 24.2.1, SVG Export Plug-In . SVG Version: 6.00 Build 0)  -->
<svg version="1.1" id="Capa_1" xmlns="http://www.w3.org/2000/svg" xmlns:xlink="http://www.w3.org/1999/xlink" x="0px" y="0px"
	 viewBox="0 0 512 512" style="enable-background:new 0 0 512 512;" xml:space="preserve">
<g>
	<path style="fill:#83B3F1;" d="M452,241L151,347l105,165h135v-38.452c35.045-21.794,64.497-51.881,85.529-87.463
		C499.734,346.826,512,301.844,512,256v-15H452z"/>
	<path style="fill:#98D3F3;" d="M60,241H0v15c0,45.844,12.266,90.826,35.471,130.085c21.032,35.583,50.484,65.669,85.529,87.463V512
		h135V347L60,241z"/>
	<path style="fill:#ADF2F5;" d="M442.594,316c6.098-18.919,9.406-39.079,9.406-60v-15H286l-90,135L442.594,316z"/>
	<path style="fill:#D6F9FA;" d="M226,241H60v15c0,20.921,3.308,41.081,9.406,60L256,376L226,241z"/>
	<path style="fill:#FF3A33;" d="M256,316l-60,61l60,75c87.154,0,161.191-57.185,186.594-136H256z"/>
	<path style="fill:#FE5E49;" d="M69.406,316C94.809,394.815,168.846,452,256,452V316H69.406z"/>
	<polygon style="fill:#98D3F3;" points="352.26,75 364.691,0 256,0 196,135 	"/>
	<polygon style="fill:#ADF2F5;" points="256,0 147.309,0 159.74,75 256,135 	"/>
	<polygon style="fill:#FF3A33;" points="352.26,75 256,75 196,143 256,211 329.718,211 	"/>
	<polygon style="fill:#FE5E49;" points="159.74,75 182.282,211 256,211 256,75 	"/>
	<path style="fill:#CF3A48;" d="M256,241l-15,75l15,61c16.569,0,30-13.431,30-30V241H256z"/>
	<path style="fill:#FF3A33;" d="M226,241v106c0,16.569,13.431,30,30,30V241H226z"/>
</g>
<g>
</g>
<g>
</g>
<g>
</g>
<g>
</g>
<g>
</g>
<g>
</g>
<g>
</g>
<g>
</g>
<g>
</g>
<g>
</g>
<g>
</g>
<g>
</g>
<g>
</g>
<g>
</g>
<g>
</g>
</svg>
