<?xml version="1.0" encoding="iso-8859-1"?>
<!-- Generator: Adobe Illustrator 24.2.1, SVG Export Plug-In . SVG Version: 6.00 Build 0)  -->
<svg version="1.1" id="Capa_1" xmlns="http://www.w3.org/2000/svg" xmlns:xlink="http://www.w3.org/1999/xlink" x="0px" y="0px"
	 viewBox="0 0 512 512" style="enable-background:new 0 0 512 512;" xml:space="preserve">
<g>
	<path style="fill:#ADF2F5;" d="M256,422l-60,45l60,45h181c41.355,0,75-33.645,75-75v-15H256z"/>
	<path style="fill:#D6F9FA;" d="M0,422v15c0,41.355,33.645,75,75,75h181v-90H0z"/>
	<polygon style="fill:#98D3F3;" points="256,120 211,256 256,392 365.968,392 416.546,120 	"/>
	<path style="fill:#ADF2F5;" d="M106,120C47.551,120,0,167.551,0,226s47.551,106,106,106h28.875l11.157,60H256V120H106z M106,257
		c-17.121,0-31-13.879-31-31s13.879-31,31-31h3.4l11.529,62H106z"/>
	<path style="fill:#FFFBBE;" d="M241,90h-30c0-27.042,9.714-41.613,17.519-53.32C235.492,26.22,241,17.958,241,0h30
		c0,27.042-9.714,41.613-17.519,53.32C246.508,63.78,241,72.042,241,90z"/>
	<path style="fill:#FFD4A1;" d="M301,90h-30c0-27.042,9.714-41.613,17.519-53.32C295.492,26.22,301,17.958,301,0h30
		c0,27.042-9.714,41.613-17.519,53.32C306.508,63.78,301,72.042,301,90z"/>
</g>
<g>
</g>
<g>
</g>
<g>
</g>
<g>
</g>
<g>
</g>
<g>
</g>
<g>
</g>
<g>
</g>
<g>
</g>
<g>
</g>
<g>
</g>
<g>
</g>
<g>
</g>
<g>
</g>
<g>
</g>
</svg>
