<?xml version="1.0" encoding="iso-8859-1"?>
<!-- Generator: Adobe Illustrator 24.2.1, SVG Export Plug-In . SVG Version: 6.00 Build 0)  -->
<svg version="1.1" id="Capa_1" xmlns="http://www.w3.org/2000/svg" xmlns:xlink="http://www.w3.org/1999/xlink" x="0px" y="0px"
	 viewBox="0 0 512 512" style="enable-background:new 0 0 512 512;" xml:space="preserve">
<g>
	<polygon style="fill:#FF3A33;" points="408,0 271,0 256,120 408,120 368,60 	"/>
	<polygon style="fill:#FFAD84;" points="271,0 256,0 241,165 271,165 	"/>
	<rect x="241" style="fill:#FFD4A1;" width="15" height="165"/>
	<path style="fill:#8B3247;" d="M135,150c-41.355,0-75,33.645-75,75v15h196v-90H135z"/>
	<path style="fill:#752A32;" d="M452,225c0-41.355-33.645-75-75-75H256v90h196V225z"/>
	<polygon style="fill:#FFD4A1;" points="307.665,330 337.665,512 419.329,512 455.25,330 	"/>
	<polygon style="fill:#FFAD84;" points="211,330 256,512 337.665,512 355.625,330 	"/>
	<polygon style="fill:#FFFBBE;" points="56.75,330 92.671,512 174.336,512 204.336,330 	"/>
	<polygon style="fill:#FFD4A1;" points="156.375,330 174.336,512 256,512 256,330 	"/>
	<path style="fill:#FE7F48;" d="M75,210c-41.355,0-75,33.645-75,75s33.645,75,75,75h181l-30-150H75z"/>
	<path style="fill:#FE5E49;" d="M437,210H286l-30,150h181c41.355,0,75-33.645,75-75S478.355,210,437,210z"/>
	<path style="fill:#752A32;" d="M256,210l-15,97.5l15,97.5c16.569,0,30-13.431,30-30V210H256z"/>
	<path style="fill:#8B3247;" d="M226,210v165c0,16.569,13.431,30,30,30V210H226z"/>
</g>
<g>
</g>
<g>
</g>
<g>
</g>
<g>
</g>
<g>
</g>
<g>
</g>
<g>
</g>
<g>
</g>
<g>
</g>
<g>
</g>
<g>
</g>
<g>
</g>
<g>
</g>
<g>
</g>
<g>
</g>
</svg>
