<?xml version="1.0" encoding="iso-8859-1"?>
<!-- Generator: Adobe Illustrator 24.2.1, SVG Export Plug-In . SVG Version: 6.00 Build 0)  -->
<svg version="1.1" id="Capa_1" xmlns="http://www.w3.org/2000/svg" xmlns:xlink="http://www.w3.org/1999/xlink" x="0px" y="0px"
	 viewBox="0 0 512 512" style="enable-background:new 0 0 512 512;" xml:space="preserve">
<g>
	<path style="fill:#83B3F1;" d="M421,496.75c0-41.355-33.645-75-75-75h-45v-62h-75l30,152h165V496.75z"/>
	<path style="fill:#98D3F3;" d="M211,359.75v62h-45c-41.355,0-75,33.645-75,75v15h165v-152H211z"/>
	<polygon style="fill:#98D3F3;" points="512,344.75 256,344.75 226,359.75 256,374.75 512,374.75 	"/>
	<rect y="344.75" style="fill:#ADF2F5;" width="256" height="30"/>
	<path style="fill:#CF3A48;" d="M273.8,0.25c-6.487,0-12.563,1.743-17.8,4.774L226,35.85l30,53.4c29.492,0,53.4-23.908,53.4-53.4
		C309.4,16.189,293.461,0.25,273.8,0.25z"/>
	<path style="fill:#FF3A33;" d="M238.2,0.25c-19.661,0-35.6,15.939-35.6,35.6c0,29.492,23.908,53.4,53.4,53.4V5.024
		C250.762,1.993,244.687,0.25,238.2,0.25z"/>
	<path style="fill:#FEF575;" d="M437,89.75H256l-60,135l316-60C512,123.395,478.355,89.75,437,89.75z"/>
	<path style="fill:#FFFBBE;" d="M256,89.75H75c-41.355,0-75,33.645-75,75l256,60V89.75z"/>
	<polygon style="fill:#FE5E49;" points="406,164.75 376,194.75 346,164.75 286,164.75 196,239.75 256,314.75 512,314.75 512,164.75 
			"/>
	<polygon style="fill:#FE7F48;" points="166,164.75 136,194.75 106,164.75 0,164.75 0,314.75 256,314.75 256,194.75 226,164.75 	"/>
	<path style="fill:#FEF575;" d="M346,164.75v30c0,16.569,13.431,30,30,30s30-13.431,30-30v-30H346z"/>
	<path style="fill:#FEF575;" d="M256,164.75l-15,37.5l15,37.5c16.569,0,30-13.431,30-30v-45H256z"/>
	<path style="fill:#FFFBBE;" d="M226,164.75v45c0,16.569,13.431,30,30,30v-75H226z"/>
	<path style="fill:#FFFBBE;" d="M106,164.75v30c0,16.569,13.431,30,30,30s30-13.431,30-30v-30H106z"/>
</g>
<g>
</g>
<g>
</g>
<g>
</g>
<g>
</g>
<g>
</g>
<g>
</g>
<g>
</g>
<g>
</g>
<g>
</g>
<g>
</g>
<g>
</g>
<g>
</g>
<g>
</g>
<g>
</g>
<g>
</g>
</svg>
