<?xml version="1.0" encoding="iso-8859-1"?>
<!-- Generator: Adobe Illustrator 24.2.1, SVG Export Plug-In . SVG Version: 6.00 Build 0)  -->
<svg version="1.1" id="Capa_1" xmlns="http://www.w3.org/2000/svg" xmlns:xlink="http://www.w3.org/1999/xlink" x="0px" y="0px"
	 viewBox="0 0 512 512" style="enable-background:new 0 0 512 512;" xml:space="preserve">
<g>
	<path style="fill:#FFFBBE;" d="M209.01,16.553c-10.653,8.58-18.779,19.98-23.449,32.721c-12.933,4.574-24.52,12.691-33.255,23.422
		C141.469,86.008,135.5,102.808,135.5,120v15H256V0C238.953,0,222.265,5.879,209.01,16.553z"/>
	<path style="fill:#FEF575;" d="M376.5,120c0-17.192-5.969-33.992-16.806-47.304c-8.735-10.73-20.322-18.848-33.255-23.422
		c-4.67-12.741-12.796-24.141-23.449-32.721C289.735,5.879,273.047,0,256,0v135h120.5V120z"/>
	<path style="fill:#ADF2F5;" d="M256,422l-60,45l60,45h181c41.355,0,75-33.645,75-75v-15H256z"/>
	<path style="fill:#D6F9FA;" d="M0,422v15c0,41.355,33.645,75,75,75h181v-90H0z"/>
	<polygon style="fill:#FE8566;" points="196,248.5 256,392 422,392 452,293.5 	"/>
	<polygon style="fill:#FFAD84;" points="30,293.5 30,392 256,392 256,248.5 	"/>
	<polygon style="fill:#FFAD84;" points="452,293.5 452,165 181,165 256,293.5 	"/>
	<rect x="30" y="165" style="fill:#FFD4A1;" width="226" height="128.5"/>
	<path style="fill:#8B3247;" d="M45.018,105c-24.853,0-45,20.147-45,45s20.147,45,45,45H256l-30-90H45.018z"/>
	<path style="fill:#752A32;" d="M437,105H286l-30,90h166v197h90V180C512,138.645,478.355,105,437,105z"/>
	<path style="fill:#FEF575;" d="M256,105l-15,174.5l15,37.5c16.569,0,30-13.431,30-30V105H256z"/>
	<path style="fill:#FFFBBE;" d="M226,105v182c0,16.569,13.431,30,30,30V105H226z"/>
</g>
<g>
</g>
<g>
</g>
<g>
</g>
<g>
</g>
<g>
</g>
<g>
</g>
<g>
</g>
<g>
</g>
<g>
</g>
<g>
</g>
<g>
</g>
<g>
</g>
<g>
</g>
<g>
</g>
<g>
</g>
</svg>
