<?xml version="1.0" encoding="iso-8859-1"?>
<!-- Generator: Adobe Illustrator 24.2.1, SVG Export Plug-In . SVG Version: 6.00 Build 0)  -->
<svg version="1.1" id="Capa_1" xmlns="http://www.w3.org/2000/svg" xmlns:xlink="http://www.w3.org/1999/xlink" x="0px" y="0px"
	 viewBox="0 0 512 512" style="enable-background:new 0 0 512 512;" xml:space="preserve">
<g>
	<path style="fill:#FE5E49;" d="M452,234c0-33.084-26.916-60-60-60c-9.595,0-18.835,2.226-27.2,6.501
		c-8.365-4.276-17.605-6.501-27.2-6.501c-9.595,0-18.835,2.226-27.2,6.501c-8.365-4.276-17.605-6.501-27.2-6.501
		c-9.595,0-18.835,2.226-27.2,6.501L120,271h332V234z"/>
	<path style="fill:#FE7F48;" d="M228.8,174c-9.594,0-18.834,2.226-27.2,6.501c-8.365-4.276-17.605-6.501-27.2-6.501
		c-9.594,0-18.834,2.226-27.2,6.501C138.835,176.226,129.595,174,120,174c-33.084,0-60,26.916-60,60v37h196v-90.499
		C247.635,176.226,238.395,174,228.8,174z"/>
	<path style="fill:#FE7F48;" d="M223.211,45c0-24.813-20.187-45-45-45s-45,20.187-45,45c0,32.419,12.625,62.897,35.549,85.821
		C177.259,139.32,188.559,144,200.579,144c12.02,0,23.32-4.681,31.82-13.181c17.545-17.545,17.545-46.094-0.001-63.641
		C226.474,61.255,223.211,53.379,223.211,45z"/>
	<path style="fill:#FE7F48;" d="M90,45C90,20.187,69.813,0,45,0S0,20.187,0,45c0,32.419,12.625,62.897,35.549,85.821
		C44.048,139.32,55.348,144,67.368,144c12.02,0,23.32-4.681,31.82-13.181c17.545-17.545,17.545-46.094-0.001-63.641
		C93.263,61.255,90,53.379,90,45z"/>
	<path style="fill:#FE5E49;" d="M498.819,67.179c-5.924-5.923-9.187-13.8-9.187-22.179c0-24.813-20.187-45-45-45s-45,20.187-45,45
		c0,32.419,12.625,62.897,35.549,85.821C443.68,139.32,454.98,144,467,144c12.02,0,23.32-4.681,31.82-13.181
		C516.365,113.274,516.365,84.725,498.819,67.179z"/>
	<path style="fill:#FE5E49;" d="M356.421,45c0-24.813-20.187-45-45-45s-45,20.187-45,45c0,32.419,12.625,62.897,35.549,85.821
		C310.469,139.32,321.77,144,333.789,144c12.02,0,23.32-4.681,31.82-13.181c17.545-17.545,17.545-46.094-0.001-63.641
		C359.684,61.255,356.421,53.379,356.421,45z"/>
	<path style="fill:#CF3A48;" d="M256,241l-90,135.5L256,512h135v-38.452c35.045-21.794,64.497-51.881,85.529-87.463
		C499.734,346.826,512,301.844,512,256v-15H256z"/>
	<path style="fill:#FF3A33;" d="M0,241v15c0,45.844,12.266,90.826,35.471,130.085c21.032,35.583,50.484,65.669,85.529,87.463V512
		h135V241H0z"/>
</g>
<g>
</g>
<g>
</g>
<g>
</g>
<g>
</g>
<g>
</g>
<g>
</g>
<g>
</g>
<g>
</g>
<g>
</g>
<g>
</g>
<g>
</g>
<g>
</g>
<g>
</g>
<g>
</g>
<g>
</g>
</svg>
