<?xml version="1.0" encoding="iso-8859-1"?>
<!-- Generator: Adobe Illustrator 24.2.1, SVG Export Plug-In . SVG Version: 6.00 Build 0)  -->
<svg version="1.1" id="Capa_1" xmlns="http://www.w3.org/2000/svg" xmlns:xlink="http://www.w3.org/1999/xlink" x="0px" y="0px"
	 viewBox="0 0 512 512" style="enable-background:new 0 0 512 512;" xml:space="preserve">
<g>
	<path style="fill:#FEF575;" d="M452,234c0-33.084-26.916-60-60-60c-9.595,0-18.835,2.226-27.2,6.501
		c-8.365-4.276-17.605-6.501-27.2-6.501c-9.595,0-18.835,2.226-27.2,6.501c-8.365-4.276-17.605-6.501-27.2-6.501
		c-9.595,0-18.835,2.226-27.2,6.501L120,271h332V234z"/>
	<path style="fill:#FFFBBE;" d="M228.8,174c-9.594,0-18.834,2.226-27.2,6.501c-8.365-4.276-17.605-6.501-27.2-6.501
		c-9.594,0-18.834,2.226-27.2,6.501C138.835,176.226,129.595,174,120,174c-33.084,0-60,26.916-60,60v37h196v-90.499
		C247.635,176.226,238.395,174,228.8,174z"/>
	<path style="fill:#CF3A48;" d="M256,241l-90,135.5L256,512h135v-38.452c35.045-21.794,64.497-51.881,85.529-87.463
		C499.734,346.826,512,301.844,512,256v-15H256z"/>
	<path style="fill:#FF3A33;" d="M0,241v15c0,45.844,12.266,90.826,35.471,130.085c21.032,35.583,50.484,65.669,85.529,87.463V512
		h135V241H0z"/>
	<path style="fill:#FEF575;" d="M278.5,0c-7.898,0-15.526,1.725-22.5,5.045l-45,69.478L256,144c27.532,0,50.181-21.3,52.333-48.288
		C322.361,86.038,331,69.994,331,52.5C331,23.551,307.449,0,278.5,0z"/>
	<path style="fill:#FFFBBE;" d="M233.5,0C204.551,0,181,23.551,181,52.5c0,17.494,8.639,33.538,22.667,43.212
		C205.819,122.7,228.468,144,256,144V5.045C249.026,1.725,241.398,0,233.5,0z"/>
	<path style="fill:#FEF575;" d="M489.333,48.288C487.181,21.3,464.532,0,437,0s-50.181,21.3-52.333,48.288
		C370.639,57.962,362,74.006,362,91.5c0,28.949,23.551,52.5,52.5,52.5c7.898,0,15.526-1.725,22.5-5.045
		c6.974,3.32,14.602,5.045,22.5,5.045c28.949,0,52.5-23.551,52.5-52.5C512,74.006,503.361,57.962,489.333,48.288z"/>
	<path style="fill:#FFFBBE;" d="M127.333,48.288C125.181,21.3,102.532,0,75,0S24.819,21.3,22.667,48.288
		C8.639,57.962,0,74.006,0,91.5C0,120.449,23.551,144,52.5,144c7.898,0,15.526-1.725,22.5-5.045c6.974,3.32,14.602,5.045,22.5,5.045
		c28.949,0,52.5-23.551,52.5-52.5C150,74.006,141.361,57.962,127.333,48.288z"/>
</g>
<g>
</g>
<g>
</g>
<g>
</g>
<g>
</g>
<g>
</g>
<g>
</g>
<g>
</g>
<g>
</g>
<g>
</g>
<g>
</g>
<g>
</g>
<g>
</g>
<g>
</g>
<g>
</g>
<g>
</g>
</svg>
