<?xml version="1.0" encoding="iso-8859-1"?>
<!-- Generator: Adobe Illustrator 24.2.1, SVG Export Plug-In . SVG Version: 6.00 Build 0)  -->
<svg version="1.1" id="Capa_1" xmlns="http://www.w3.org/2000/svg" xmlns:xlink="http://www.w3.org/1999/xlink" x="0px" y="0px"
	 viewBox="0 0 512 512" style="enable-background:new 0 0 512 512;" xml:space="preserve">
<g>
	<path style="fill:#3DCC4E;" d="M450.491,311c-6.968-34.192-37.271-60-73.491-60H256l-60,120L450.491,311z"/>
	<path style="fill:#98D3F3;" d="M450.491,311L166,362l90,150h91c90.981,0,165-74.019,165-165v-36H450.491z"/>
	<path style="fill:#ADF2F5;" d="M61.509,311H0v36c0,90.981,74.019,165,165,165h91V362L61.509,311z"/>
	<path style="fill:#7DDA5B;" d="M256,251H135c-36.219,0-66.522,25.808-73.491,60L256,371V251z"/>
	<path style="fill:#3EA85C;" d="M256,452h91c57.897,0,105-47.103,105-105v-21c0-5.136-0.521-10.152-1.509-15H256l-60,70.5L256,452z"
		/>
	<path style="fill:#3DCC4E;" d="M60,347c0,57.897,47.103,105,105,105h91V311H61.509C60.521,315.848,60,320.864,60,326V347z"/>
	<path style="fill:#FE7F48;" d="M234.997,153.551L159.495,22.549C151.475,8.64,136.533,0,120.5,0S89.525,8.64,81.503,22.551
		L6.005,153.549C2.077,160.362,0,168.125,0,176c0,24.813,20.187,45,45,45h151c24.813,0,45-20.187,45-45
		C241,168.125,238.923,160.362,234.997,153.551z"/>
	<path style="fill:#FE5E49;" d="M505.996,153.551c-0.002-0.003-75.501-131.002-75.501-131.002C422.476,8.64,407.533,0,391.5,0
		s-30.976,8.64-38.996,22.551l-75.498,130.997C273.077,160.361,271,168.125,271,176c0,24.813,20.187,45,45,45h151
		c24.813,0,45-20.187,45-45C512,168.126,509.924,160.363,505.996,153.551z"/>
	<path style="fill:#3DCC4E;" d="M256,271l-15,45l15,61c16.569,0,30-13.431,30-30v-76H256z"/>
	<path style="fill:#7DDA5B;" d="M226,271v76c0,16.569,13.431,30,30,30V271H226z"/>
</g>
<g>
</g>
<g>
</g>
<g>
</g>
<g>
</g>
<g>
</g>
<g>
</g>
<g>
</g>
<g>
</g>
<g>
</g>
<g>
</g>
<g>
</g>
<g>
</g>
<g>
</g>
<g>
</g>
<g>
</g>
</svg>
