<?xml version="1.0" encoding="iso-8859-1"?>
<!-- Generator: Adobe Illustrator 24.2.1, SVG Export Plug-In . SVG Version: 6.00 Build 0)  -->
<svg version="1.1" id="Capa_1" xmlns="http://www.w3.org/2000/svg" xmlns:xlink="http://www.w3.org/1999/xlink" x="0px" y="0px"
	 viewBox="0 0 512 512" style="enable-background:new 0 0 512 512;" xml:space="preserve">
<g>
	<path style="fill:#ADF2F5;" d="M256,422l-60,45l60,45h181c41.355,0,75-33.645,75-75v-15H256z"/>
	<path style="fill:#D6F9FA;" d="M0,422v15c0,41.355,33.645,75,75,75h181v-90H0z"/>
	<path style="fill:#3DCC4E;" d="M181,205c-10.839,0-21.332,2.903-30.5,8.326C141.332,207.903,130.839,205,120,205
		c-10.62,0-20.943,2.803-30,8.039C80.943,207.803,70.62,205,60,205c-33.084,0-60,26.916-60,60v22l120,45l121-45v-22
		C241,231.916,214.084,205,181,205z"/>
	<polygon style="fill:#FE7F48;" points="76,287 181,392 241,392 241,287 	"/>
	<path style="fill:#FDA147;" d="M76,287H0v105h181C181,334.01,133.99,287,76,287z"/>
	<rect x="105" y="0" style="fill:#FDA147;" width="30" height="69"/>
	<circle style="fill:#FF3A33;" cx="120" cy="114.5" r="60.5"/>
	<path style="fill:#3EA85C;" d="M452,205c-10.839,0-21.332,2.903-30.5,8.326C412.332,207.903,401.839,205,391,205
		c-10.62,0-20.943,2.803-30,8.039c-9.057-5.235-19.38-8.039-30-8.039c-33.084,0-60,26.916-60,60v22l120,45l121-45v-22
		C512,231.916,485.084,205,452,205z"/>
	<polygon style="fill:#FE5E49;" points="436,287 331,392 271,392 271,287 	"/>
	<path style="fill:#FE7F48;" d="M436,287h76v105H331C331,334.01,378.01,287,436,287z"/>
	<rect x="376" y="0" style="fill:#FE7F48;" width="30" height="69"/>
	<circle style="fill:#CF3A48;" cx="391" cy="114.5" r="60.5"/>
</g>
<g>
</g>
<g>
</g>
<g>
</g>
<g>
</g>
<g>
</g>
<g>
</g>
<g>
</g>
<g>
</g>
<g>
</g>
<g>
</g>
<g>
</g>
<g>
</g>
<g>
</g>
<g>
</g>
<g>
</g>
</svg>
