<?xml version="1.0" encoding="iso-8859-1"?>
<!-- Generator: Adobe Illustrator 24.2.1, SVG Export Plug-In . SVG Version: 6.00 Build 0)  -->
<svg version="1.1" id="Capa_1" xmlns="http://www.w3.org/2000/svg" xmlns:xlink="http://www.w3.org/1999/xlink" x="0px" y="0px"
	 viewBox="0 0 512 512" style="enable-background:new 0 0 512 512;" xml:space="preserve">
<g>
	<path style="fill:#FF3A33;" d="M256,319.25V482h121c57.897,0,105-47.103,105-105v-57.75H256z"/>
	<path style="fill:#FE8566;" d="M30,319.25V377c0,57.897,47.103,105,105,105h121V319.25H30z"/>
	<path style="fill:#FE7F48;" d="M473.745,271L166,349.323L256,512c15.965,0,31.463-5.688,43.644-16.021l188.495-159.998
		C503.303,323.118,512,290.854,512,271H473.745z"/>
	<path style="fill:#FDA147;" d="M38.255,271H0c0,19.854,8.697,52.118,23.857,64.979L212.36,495.982
		C224.537,506.312,240.035,512,256,512V349.323L38.255,271z"/>
	<polygon style="fill:#FFD4A1;" points="473.745,271 256,271 181,331 256,454.323 	"/>
	<polygon style="fill:#FFFBBE;" points="256,271 38.255,271 256,454.323 	"/>
	<path style="fill:#FF3A33;" d="M256,192.75V30h121c57.897,0,105,47.103,105,105v57.75H256z"/>
	<path style="fill:#FE8566;" d="M30,192.75V135C30,77.103,77.103,30,135,30h121v162.75H30z"/>
	<path style="fill:#FE7F48;" d="M473.745,241L166,162.677L256,0c15.965,0,31.463,5.688,43.644,16.021l188.495,159.998
		C503.303,188.882,512,221.146,512,241H473.745z"/>
	<path style="fill:#FDA147;" d="M38.255,241H0c0-19.854,8.697-52.118,23.857-64.979L212.36,16.018C224.537,5.688,240.035,0,256,0
		v162.677L38.255,241z"/>
	<polygon style="fill:#FFD4A1;" points="473.745,241 256,241 181,181 256,57.677 	"/>
	<polygon style="fill:#FFFBBE;" points="256,241 38.255,241 256,57.677 	"/>
</g>
<g>
</g>
<g>
</g>
<g>
</g>
<g>
</g>
<g>
</g>
<g>
</g>
<g>
</g>
<g>
</g>
<g>
</g>
<g>
</g>
<g>
</g>
<g>
</g>
<g>
</g>
<g>
</g>
<g>
</g>
</svg>
