<?xml version="1.0" encoding="iso-8859-1"?>
<!-- Generator: Adobe Illustrator 24.2.1, SVG Export Plug-In . SVG Version: 6.00 Build 0)  -->
<svg version="1.1" id="Capa_1" xmlns="http://www.w3.org/2000/svg" xmlns:xlink="http://www.w3.org/1999/xlink" x="0px" y="0px"
	 viewBox="0 0 512 512" style="enable-background:new 0 0 512 512;" xml:space="preserve">
<g>
	<rect x="196" y="359.136" style="fill:#3EA85C;" width="286" height="92.864"/>
	<rect x="30" y="359.136" style="fill:#3DCC4E;" width="226" height="92.864"/>
	<rect x="196" y="150" style="fill:#FF3A33;" width="286" height="90"/>
	<rect x="30" y="150" style="fill:#FE5E49;" width="226" height="90"/>
	<path style="fill:#FE7F48;" d="M512,165C512,74.019,437.981,0,347,0h-91l-60,90l60,90h256V165z"/>
	<path style="fill:#FE7F48;" d="M437,512c41.355,0,75-33.645,75-75v-15H256l-45,45l45,45H437z"/>
	<path style="fill:#FDA147;" d="M165,0C74.019,0,0,74.019,0,165v15h256V0H165z"/>
	<path style="fill:#FDA147;" d="M0,437c0,41.355,33.645,75,75,75h181v-90H0V437z"/>
	<path style="fill:#FDC245;" d="M482,210H256l-30,30l30,30h226c16.569,0,30-13.431,30-30S498.569,210,482,210z"/>
	<path style="fill:#FCE444;" d="M30,210c-16.569,0-30,13.431-30,30s13.431,30,30,30h226v-60H30z"/>
	<path style="fill:#8B3247;" d="M61,270c-33.636,0-61,27.364-61,61s27.364,61,61,61h195V270H61z"/>
	<path style="fill:#752A32;" d="M451,270H256v122h195c33.636,0,61-27.364,61-61S484.636,270,451,270z"/>
	<polygon style="fill:#FFD4A1;" points="271,92 256,92 248.5,107 256,122 271,122 	"/>
	<rect x="241" y="92" style="fill:#FFFBBE;" width="15" height="30"/>
	<rect x="181" y="60" style="fill:#FFFBBE;" width="30" height="30"/>
	<rect x="301" y="60" style="fill:#FFD4A1;" width="30" height="30"/>
	<path style="fill:#FDC245;" d="M256,227l-15,97.5l15,97.5c16.569,0,30-13.431,30-30V227H256z"/>
	<path style="fill:#FCE444;" d="M226,227v165c0,16.569,13.431,30,30,30V227H226z"/>
</g>
<g>
</g>
<g>
</g>
<g>
</g>
<g>
</g>
<g>
</g>
<g>
</g>
<g>
</g>
<g>
</g>
<g>
</g>
<g>
</g>
<g>
</g>
<g>
</g>
<g>
</g>
<g>
</g>
<g>
</g>
</svg>
