<?xml version="1.0" encoding="iso-8859-1"?>
<!-- Generator: Adobe Illustrator 24.2.1, SVG Export Plug-In . SVG Version: 6.00 Build 0)  -->
<svg version="1.1" id="Capa_1" xmlns="http://www.w3.org/2000/svg" xmlns:xlink="http://www.w3.org/1999/xlink" x="0px" y="0px"
	 viewBox="0 0 512 512" style="enable-background:new 0 0 512 512;" xml:space="preserve">
<g>
	<path style="fill:#FE5E49;" d="M256,0l-60,135l60,121l128.018-45V34.267C346.359,12.477,302.638,0,256,0z"/>
	<path style="fill:#FE7F48;" d="M127.982,34.267V211L256,256V0C209.362,0,165.641,12.477,127.982,34.267z"/>
	<path style="fill:#FE7F48;" d="M256,512c46.638,0,90.359-12.477,128.018-34.267V301L256,256l-45,121L256,512z"/>
	<path style="fill:#FDA147;" d="M127.982,477.733C165.641,499.523,209.362,512,256,512V256l-128.018,60V477.733z"/>
	<path style="fill:#FE5E49;" d="M384.018,477.733C460.524,433.466,512,350.747,512,256l-128-90l-128,90L384.018,477.733z"/>
	<path style="fill:#FE7F48;" d="M0,256c0,94.747,51.476,177.466,127.982,221.733L256,256l-128-60L0,256z"/>
	<path style="fill:#FDA147;" d="M127.982,34.267C51.476,78.534,0,161.253,0,256h256L127.982,34.267z"/>
	<path style="fill:#FE7F48;" d="M384.018,34.267L256,256h256C512,161.253,460.524,78.534,384.018,34.267z"/>
	<path style="fill:#FEF575;" d="M256,60l-45.938,103.359L256,256l98.014-34.453V86.236C325.181,69.553,291.707,60,256,60z"/>
	<path style="fill:#FFFBBE;" d="M157.986,86.236v135.311L256,256V60C220.293,60,186.819,69.553,157.986,86.236z"/>
	<path style="fill:#FFFBBE;" d="M256,452c35.707,0,69.181-9.553,98.014-26.236V290.453L256,256l-34.453,92.641L256,452z"/>
	<path style="fill:#FFFFFF;" d="M157.986,425.764C186.819,442.447,220.293,452,256,452V256l-98.014,45.938V425.764z"/>
	<path style="fill:#FEF575;" d="M354.014,425.764C412.589,391.873,452,328.541,452,256l-98-68.906L256,256L354.014,425.764z"/>
	<path style="fill:#FFFBBE;" d="M60,256c0,72.541,39.411,135.873,97.986,169.764L256,256l-98-45.937L60,256z"/>
	<path style="fill:#FFFFFF;" d="M157.986,86.236C99.411,120.127,60,183.459,60,256h196L157.986,86.236z"/>
	<path style="fill:#FFFBBE;" d="M354.014,86.236L256,256h196C452,183.459,412.589,120.127,354.014,86.236z"/>
	<polygon style="fill:#FF3A33;" points="271,362 256,362 248.5,377 256,392 271,392 	"/>
	<rect x="241" y="362" style="fill:#FE5E49;" width="15" height="30"/>
	<polygon style="fill:#CF3A48;" points="271,120 256,120 248.5,135 256,150 271,150 	"/>
	<rect x="241" y="120" style="fill:#FF3A33;" width="15" height="30"/>
	
		<rect x="136.211" y="180.5" transform="matrix(0.5 -0.866 0.866 0.5 -93.7025 228.7025)" style="fill:#FE5E49;" width="30" height="30"/>
	
		<rect x="345.789" y="301.5" transform="matrix(0.5 -0.866 0.866 0.5 -93.7025 470.7025)" style="fill:#CF3A48;" width="30" height="30"/>
	
		<rect x="136.211" y="301.5" transform="matrix(0.866 -0.5 0.5 0.866 -137.9916 118.0084)" style="fill:#FF3A33;" width="30" height="30"/>
	
		<rect x="345.789" y="180.5" transform="matrix(0.866 -0.5 0.5 0.866 -49.4134 206.5866)" style="fill:#FF3A33;" width="30" height="30"/>
	<path style="fill:#FFFBBE;" d="M256,437l-15,37.5l15,37.5c16.569,0,30-13.431,30-30v-45H256z"/>
	<path style="fill:#FFFFFF;" d="M226,437v45c0,16.569,13.431,30,30,30v-75H226z"/>
</g>
<g>
</g>
<g>
</g>
<g>
</g>
<g>
</g>
<g>
</g>
<g>
</g>
<g>
</g>
<g>
</g>
<g>
</g>
<g>
</g>
<g>
</g>
<g>
</g>
<g>
</g>
<g>
</g>
<g>
</g>
</svg>
