<?xml version="1.0" encoding="iso-8859-1"?>
<!-- Generator: Adobe Illustrator 24.2.1, SVG Export Plug-In . SVG Version: 6.00 Build 0)  -->
<svg version="1.1" id="Capa_1" xmlns="http://www.w3.org/2000/svg" xmlns:xlink="http://www.w3.org/1999/xlink" x="0px" y="0px"
	 viewBox="0 0 512 512" style="enable-background:new 0 0 512 512;" xml:space="preserve">
<g>
	<polygon style="fill:#CF3A48;" points="422.165,15 196,15 196,332 374.931,332 	"/>
	<polygon style="fill:#FF3A33;" points="89.834,15 137.069,332 256,332 256,15 	"/>
	<polygon style="fill:#FFD4A1;" points="452,0 256,0 241,15 256,30 452,30 	"/>
	<rect x="60" style="fill:#FFFBBE;" width="196" height="30"/>
	<polygon style="fill:#CF3A48;" points="422.165,105 196,105 196,422 374.931,422 	"/>
	<polygon style="fill:#FF3A33;" points="89.834,105 137.069,422 256,422 256,105 	"/>
	<polygon style="fill:#FFD4A1;" points="452,90 256,90 241,105 256,120 452,120 	"/>
	<rect x="60" y="90" style="fill:#FFFBBE;" width="196" height="30"/>
	<polygon style="fill:#FF3A33;" points="256,512 374.931,512 386.106,437 211,392 	"/>
	<polygon style="fill:#FE5E49;" points="125.894,437 137.069,512 256,512 256,392 	"/>
	<polygon style="fill:#CF3A48;" points="211,332 256,437 386.106,437 395.046,377 	"/>
	<polygon style="fill:#FF3A33;" points="256,332 116.953,377 125.894,437 256,437 	"/>
	<polygon style="fill:#FF3A33;" points="256,377 395.046,377 403.987,317 181,242 	"/>
	<polygon style="fill:#FE5E49;" points="256,242 108.013,317 116.953,377 256,377 	"/>
	<polygon style="fill:#CF3A48;" points="403.987,317 422.165,195 166,195 256,317 	"/>
	<polygon style="fill:#FF3A33;" points="256,195 89.834,195 108.013,317 256,317 	"/>
	<polygon style="fill:#FFD4A1;" points="452,180 256,180 241,195 256,210 452,210 	"/>
	<rect x="60" y="180" style="fill:#FFFBBE;" width="196" height="30"/>
</g>
<g>
</g>
<g>
</g>
<g>
</g>
<g>
</g>
<g>
</g>
<g>
</g>
<g>
</g>
<g>
</g>
<g>
</g>
<g>
</g>
<g>
</g>
<g>
</g>
<g>
</g>
<g>
</g>
<g>
</g>
</svg>
