<?xml version="1.0" encoding="iso-8859-1"?>
<!-- Generator: Adobe Illustrator 24.2.1, SVG Export Plug-In . SVG Version: 6.00 Build 0)  -->
<svg version="1.1" id="Capa_1" xmlns="http://www.w3.org/2000/svg" xmlns:xlink="http://www.w3.org/1999/xlink" x="0px" y="0px"
	 viewBox="0 0 512 512" style="enable-background:new 0 0 512 512;" xml:space="preserve">
<g>
	<polygon style="fill:#83B3F1;" points="377,0 256,30.05 211,135 377,135 	"/>
	<polygon style="fill:#98D3F3;" points="75,75 105,135 256,135 256,30.05 	"/>
	<polygon style="fill:#ADF2F5;" points="437,75 256,75 196,293.5 256,512 437,512 	"/>
	<rect x="75" y="75" style="fill:#D6F9FA;" width="181" height="437"/>
	<polygon style="fill:#FDA147;" points="377,135 256,135 211,263.5 256,392 377,392 	"/>
	<rect x="135" y="135" style="fill:#FDC245;" width="121" height="257"/>
	<path style="fill:#CF3A48;" d="M287,270.5c0,17.093-13.906,31-31,31l-15,15l15,15c33.636,0,61-27.364,61-61H287z"/>
	<path style="fill:#FF3A33;" d="M225,270.5h-30c0,33.636,27.364,61,61,61v-30C238.906,301.5,225,287.593,225,270.5z"/>
	<rect x="195" y="195.5" style="fill:#554FB2;" width="30" height="45"/>
	<rect x="287" y="195.5" style="fill:#403C86;" width="30" height="45"/>
	<polygon style="fill:#403C86;" points="271,422 256,422 248.5,437 256,452 271,452 	"/>
	<rect x="241" y="422" style="fill:#554FB2;" width="15" height="30"/>
	<rect x="301" y="422" style="fill:#403C86;" width="30" height="30"/>
	<rect x="181" y="422" style="fill:#554FB2;" width="30" height="30"/>
</g>
<g>
</g>
<g>
</g>
<g>
</g>
<g>
</g>
<g>
</g>
<g>
</g>
<g>
</g>
<g>
</g>
<g>
</g>
<g>
</g>
<g>
</g>
<g>
</g>
<g>
</g>
<g>
</g>
<g>
</g>
</svg>
