<?xml version="1.0" encoding="iso-8859-1"?>
<!-- Generator: Adobe Illustrator 24.2.1, SVG Export Plug-In . SVG Version: 6.00 Build 0)  -->
<svg version="1.1" id="Capa_1" xmlns="http://www.w3.org/2000/svg" xmlns:xlink="http://www.w3.org/1999/xlink" x="0px" y="0px"
	 viewBox="0 0 512 512" style="enable-background:new 0 0 512 512;" xml:space="preserve">
<g>
	<path style="fill:#FDA147;" d="M96.194,112.194C53.508,154.879,30,211.633,30,272v60h90v-60c0-74.991,61.009-136,136-136V46
		C195.633,46,138.879,69.508,96.194,112.194z"/>
	<path style="fill:#FE7F48;" d="M415.806,112.194C373.121,69.508,316.367,46,256,46v90c74.991,0,136,61.009,136,136v60h90v-60
		C482,211.633,458.492,154.879,415.806,112.194z"/>
	<path style="fill:#FDA147;" d="M143,362H30v45c0,57.897,47.103,105,105,105h60.5L143,362z"/>
	<path style="fill:#FE7F48;" d="M143,362v45c0,57.897,23.552,105,52.5,105H256V362H143z"/>
	<path style="fill:#FF3A33;" d="M316.5,362v150H377c57.897,0,105-47.103,105-105v-45H316.5z"/>
	<path style="fill:#FE5E49;" d="M369,407v-45H256v150h60.5C345.448,512,369,464.897,369,407z"/>
	<path style="fill:#FCE444;" d="M45,302c-24.813,0-45,20.187-45,45s20.187,45,45,45h8l90-90H45z"/>
	<path style="fill:#FDC245;" d="M143,302c-49.706,0-90,40.294-90,90h203v-90H143z"/>
	<polygon style="fill:#FDA147;" points="459,302 256,302 256,392 369,392 	"/>
	<path style="fill:#FE7F48;" d="M467,302h-8c-49.706,0-90,40.294-90,90h98c24.813,0,45-20.187,45-45S491.813,302,467,302z"/>
	<polygon style="fill:#CF3A48;" points="226,91 256,412 316,452 316,91 	"/>
	<polygon style="fill:#FF3A33;" points="196,91 196,452 256,412 256,91 	"/>
	<path style="fill:#FE5E49;" d="M167,0c-33.084,0-60,26.916-60,60c0,11.058,3.007,21.722,8.625,31
		c-5.618,9.278-8.625,19.942-8.625,31c0,33.084,26.916,60,60,60c42.512,0,72.76-34.97,89-60.08V60.08C239.76,34.97,209.512,0,167,0z
		"/>
	<path style="fill:#FF3A33;" d="M405,60c0-33.084-26.916-60-60-60c-42.512,0-72.76,34.97-89,60.08v61.841
		c16.24,25.11,46.488,60.08,89,60.08c33.084,0,60-26.916,60-60c0-11.058-3.007-21.722-8.625-31C401.993,81.722,405,71.058,405,60z"
		/>
	<path style="fill:#CF3A48;" d="M256,38.5L221.257,91L256,143.5c28.995,0,52.5-23.505,52.5-52.5S284.995,38.5,256,38.5z"/>
	<path style="fill:#FF3A33;" d="M203.5,91c0,28.995,23.505,52.5,52.5,52.5v-105C227.005,38.5,203.5,62.005,203.5,91z"/>
</g>
<g>
</g>
<g>
</g>
<g>
</g>
<g>
</g>
<g>
</g>
<g>
</g>
<g>
</g>
<g>
</g>
<g>
</g>
<g>
</g>
<g>
</g>
<g>
</g>
<g>
</g>
<g>
</g>
<g>
</g>
</svg>
