<?xml version="1.0" encoding="iso-8859-1"?>
<!-- Generator: Adobe Illustrator 24.2.1, SVG Export Plug-In . SVG Version: 6.00 Build 0)  -->
<svg version="1.1" id="Capa_1" xmlns="http://www.w3.org/2000/svg" xmlns:xlink="http://www.w3.org/1999/xlink" x="0px" y="0px"
	 viewBox="0 0 512 512" style="enable-background:new 0 0 512 512;" xml:space="preserve">
<g>
	<path style="fill:#FF3A33;" d="M346.5,0l-60,165.5l60,208.985l3.727-0.956C445.477,349.1,512,263.555,512,165.5
		C512,74.243,437.757,0,346.5,0z"/>
	<polygon style="fill:#ADF2F5;" points="361.5,419 331.5,419 346.5,512 361.5,512 	"/>
	<rect x="331.5" y="419" style="fill:#D6F9FA;" width="15" height="93"/>
	<path style="fill:#FF3A33;" d="M346.5,374l-15,30l15,30c22.5,0,22.5-15,45-14.961C391.5,394.147,371.353,374,346.5,374z"/>
	<path style="fill:#FE5E49;" d="M301.5,419c22.5,0,22.5,15,45,15v-60C321.647,374,301.5,394.147,301.5,419z"/>
	<path style="fill:#FE5E49;" d="M256,27.007v301.408c24.471,20.982,53.911,36.687,86.773,45.115l3.727,0.956V0
		C313.121,0,282.026,9.942,256,27.007z"/>
	<path style="fill:#FDC245;" d="M165.5,0l-60,165.5l60,208.985l3.727-0.956c32.862-8.428,62.302-24.134,86.773-45.115V27.007
		C229.974,9.942,198.879,0,165.5,0z"/>
	<path style="fill:#FE7F48;" d="M331,165.5c0-57.878-29.871-108.903-75-138.493c-45.129,29.59-75,80.615-75,138.493
		c0,64.225,28.542,123.081,75,162.914C302.458,288.581,331,229.725,331,165.5z"/>
	<path style="fill:#FCE444;" d="M0,165.5c0,98.055,66.523,183.6,161.773,208.03l3.727,0.956V0C74.243,0,0,74.243,0,165.5z"/>
	<polygon style="fill:#ADF2F5;" points="180.5,419 150.5,419 165.5,512 180.5,512 	"/>
	<rect x="150.5" y="419" style="fill:#D6F9FA;" width="15" height="93"/>
	<path style="fill:#FDC245;" d="M165.5,374l-15,30l15,30c22.5,0,22.5-15,45-14.961C210.5,394.147,190.353,374,165.5,374z"/>
	<path style="fill:#FCE444;" d="M120.5,419c22.5,0,22.5,15,45,15v-60C140.647,374,120.5,394.147,120.5,419z"/>
</g>
<g>
</g>
<g>
</g>
<g>
</g>
<g>
</g>
<g>
</g>
<g>
</g>
<g>
</g>
<g>
</g>
<g>
</g>
<g>
</g>
<g>
</g>
<g>
</g>
<g>
</g>
<g>
</g>
<g>
</g>
</svg>
