<?xml version="1.0" encoding="iso-8859-1"?>
<!-- Generator: Adobe Illustrator 24.2.1, SVG Export Plug-In . SVG Version: 6.00 Build 0)  -->
<svg version="1.1" id="Capa_1" xmlns="http://www.w3.org/2000/svg" xmlns:xlink="http://www.w3.org/1999/xlink" x="0px" y="0px"
	 viewBox="0 0 512 512" style="enable-background:new 0 0 512 512;" xml:space="preserve">
<g>
	<rect x="436" y="120.507" style="fill:#736DD9;" width="30" height="30"/>
	<rect x="361" y="181.005" style="fill:#3DCC4E;" width="30" height="30"/>
	<rect x="361" y="60.005" style="fill:#FDC245;" width="30" height="30"/>
	<rect x="301" y="361.502" style="fill:#FE7F48;" width="30" height="30"/>
	<rect x="31" y="361.502" style="fill:#FDA147;" width="30" height="30"/>
	<rect x="226" y="422" style="fill:#928BFF;" width="30" height="30"/>
	<rect x="226" y="301" style="fill:#3DCC4E;" width="30" height="30"/>
	<rect x="166" y="120.507" style="fill:#98D3F3;" width="30" height="30"/>
	<rect x="91" y="181.005" style="fill:#FF3A33;" width="30" height="30"/>
	<rect x="91" y="60.005" style="fill:#7DDA5B;" width="30" height="30"/>
	<path style="fill:#83B3F1;" d="M196,0v15c0,48.708,25.943,74.762,43.111,92.002c14.337,14.397,16.889,17.813,16.889,28.5
		s-2.552,14.104-16.889,28.5C221.943,181.243,196,207.297,196,256.005v15h75l30-135.502L271,0H196z"/>
	<path style="fill:#928BFF;" d="M302.889,43.5C288.552,29.103,286,25.687,286,15V0h-15v271.005h15v-15
		c0-10.687,2.552-14.103,16.889-28.5C320.057,210.265,346,184.211,346,135.502S320.057,60.74,302.889,43.5z"/>
	<path style="fill:#FCE444;" d="M151,256.005v-15H61v15c0,48.709,25.945,74.762,43.114,92.002
		C118.448,362.401,121,365.817,121,376.502c0,10.686-2.552,14.102-16.886,28.495C86.945,422.237,61,448.291,61,497v15h90v-15
		c0-10.686,2.552-14.102,16.886-28.495C185.055,451.265,211,425.211,211,376.502c0-48.71-25.946-74.763-43.114-92.002
		C153.552,270.106,151,266.69,151,256.005z"/>
	<path style="fill:#FF3A33;" d="M437.886,284.5C423.552,270.106,421,266.69,421,256.005v-15h-90v15
		c0,48.709,25.945,74.762,43.114,92.002C388.448,362.401,391,365.817,391,376.502c0,10.686-2.552,14.102-16.886,28.495
		C356.945,422.237,331,448.291,331,497v15h90v-15c0-10.686,2.552-14.102,16.886-28.495C455.055,451.265,481,425.211,481,376.502
		C481,327.792,455.054,301.739,437.886,284.5z"/>
</g>
<g>
</g>
<g>
</g>
<g>
</g>
<g>
</g>
<g>
</g>
<g>
</g>
<g>
</g>
<g>
</g>
<g>
</g>
<g>
</g>
<g>
</g>
<g>
</g>
<g>
</g>
<g>
</g>
<g>
</g>
</svg>
