<?xml version="1.0" encoding="iso-8859-1"?>
<!-- Generator: Adobe Illustrator 24.2.1, SVG Export Plug-In . SVG Version: 6.00 Build 0)  -->
<svg version="1.1" id="Capa_1" xmlns="http://www.w3.org/2000/svg" xmlns:xlink="http://www.w3.org/1999/xlink" x="0px" y="0px"
	 viewBox="0 0 512 512" style="enable-background:new 0 0 512 512;" xml:space="preserve">
<g>
	<rect x="331.5" style="fill:#FDC245;" width="30" height="30"/>
	<rect x="331.5" y="192.8" style="fill:#736DD9;" width="30" height="30"/>
	<rect x="331.5" y="385.6" style="fill:#3DCC4E;" width="30" height="30"/>
	<rect x="150.5" y="482" style="fill:#FF3A33;" width="30" height="30"/>
	<rect x="150.5" y="96.4" style="fill:#7DDA5B;" width="30" height="30"/>
	<rect x="150.5" y="289.2" style="fill:#98D3F3;" width="30" height="30"/>
	<path style="fill:#FF3A33;" d="M465.183,98.283C482.692,84.217,512,60.674,512,15V0h-90v15c0,0.799-0.067,1.089-0.065,1.089
		c-0.944,2.25-10.105,9.61-13.117,12.029C391.308,42.184,362,65.726,362,111.4c0,45.672,29.307,69.215,46.817,83.282
		c3.012,2.419,12.177,9.782,13.108,12.005c0.001,0.003,0.074,0.284,0.074,1.113c0,0.798-0.067,1.088-0.065,1.088
		c-0.944,2.251-10.106,9.611-13.119,12.032C391.306,234.986,362,258.53,362,304.2c0,45.671,29.307,69.214,46.817,83.281
		c3.012,2.42,12.177,9.783,13.108,12.006c0.001,0.003,0.074,0.284,0.074,1.113c0,0.797-0.067,1.087-0.065,1.087
		c-0.944,2.251-10.106,9.612-13.117,12.031C391.308,427.785,362,451.328,362,497v15h90v-15c0-0.798,0.067-1.088,0.065-1.088
		c0.944-2.251,10.106-9.611,13.119-12.032C482.694,469.813,512,446.27,512,400.6c0-45.672-29.308-69.215-46.817-83.282
		c-3.012-2.419-12.177-9.782-13.108-12.006c-0.001-0.002-0.074-0.283-0.074-1.112c0-0.798,0.067-1.088,0.065-1.088
		c0.944-2.251,10.106-9.611,13.119-12.032C482.694,277.014,512,253.47,512,207.8c0-45.672-29.307-69.215-46.817-83.282
		c-3.012-2.419-12.177-9.782-13.108-12.005c-0.001-0.003-0.074-0.284-0.074-1.113c0-0.798,0.067-1.088,0.065-1.088
		C453.01,108.061,462.171,100.702,465.183,98.283z"/>
	<path style="fill:#928BFF;" d="M284.183,387.481C301.693,373.415,331,349.872,331,304.2c0-45.67-29.306-69.214-46.816-83.282
		c-3.012-2.419-12.178-9.783-13.109-12.006c-0.001-0.003-0.074-0.284-0.074-1.113c0-0.798,0.067-1.088,0.065-1.088
		c0.944-2.251,10.105-9.611,13.117-12.03C301.693,180.615,331,157.072,331,111.4c0-45.674-29.308-69.216-46.818-83.283
		c-3.012-2.419-12.176-9.78-13.107-12.004C271.073,16.111,271,15.83,271,15V0h-15l-5,15v482l5,15h75v-15
		c0-45.672-29.308-69.215-46.817-83.282c-3.012-2.419-12.177-9.782-13.108-12.006c-0.001-0.003-0.074-0.284-0.074-1.112
		c0-0.798,0.067-1.088,0.065-1.088C272.01,397.261,281.172,389.9,284.183,387.481z"/>
	<path style="fill:#83B3F1;" d="M181,0v15c0,45.674,29.308,69.217,46.818,83.283c3.012,2.419,12.176,9.78,13.107,12.004
		c0.001,0.002,0.074,0.283,0.074,1.113c0,0.798-0.067,1.088-0.065,1.088c-0.944,2.251-10.105,9.611-13.117,12.03
		C210.307,138.585,181,162.128,181,207.8c0,45.67,29.306,69.214,46.816,83.282c3.012,2.419,12.178,9.783,13.109,12.006
		c0.001,0.003,0.074,0.284,0.074,1.113c0,0.798-0.067,1.088-0.065,1.088c-0.944,2.251-10.105,9.611-13.117,12.03
		C210.308,331.385,181,354.928,181,400.6c0,45.67,29.306,69.213,46.816,83.281c3.012,2.419,12.178,9.783,13.109,12.006
		C240.927,495.89,241,496.171,241,497v15h15V0H181z"/>
	<path style="fill:#FCE444;" d="M60,15c0,0.799-0.067,1.089-0.065,1.089c-0.944,2.25-10.105,9.61-13.117,12.029
		C29.308,42.184,0,65.726,0,111.4c0,45.672,29.307,69.215,46.817,83.282c3.012,2.419,12.177,9.782,13.108,12.005
		C59.927,206.69,60,206.971,60,207.8c0,0.798-0.067,1.088-0.065,1.088c-0.944,2.251-10.106,9.611-13.119,12.032
		C29.306,234.986,0,258.53,0,304.2c0,45.671,29.307,69.214,46.817,83.281c3.012,2.42,12.177,9.783,13.108,12.006
		C59.927,399.49,60,399.771,60,400.6c0,0.797-0.067,1.087-0.065,1.087c-0.944,2.251-10.106,9.612-13.117,12.031
		C29.308,427.785,0,451.328,0,497v15h90v-15c0-0.798,0.067-1.088,0.065-1.088c0.944-2.251,10.106-9.611,13.119-12.032
		C120.694,469.813,150,446.27,150,400.6c0-45.672-29.308-69.215-46.817-83.282c-3.012-2.419-12.177-9.782-13.108-12.006
		C90.073,305.31,90,305.029,90,304.2c0-0.798,0.067-1.088,0.065-1.088c0.944-2.251,10.106-9.611,13.119-12.032
		C120.694,277.014,150,253.47,150,207.8c0-45.672-29.307-69.215-46.817-83.282c-3.012-2.419-12.177-9.782-13.108-12.005
		C90.073,112.51,90,112.229,90,111.4c0-0.798,0.067-1.088,0.065-1.088c0.944-2.25,10.105-9.61,13.117-12.029
		C120.692,84.217,150,60.674,150,15V0H60V15z"/>
</g>
<g>
</g>
<g>
</g>
<g>
</g>
<g>
</g>
<g>
</g>
<g>
</g>
<g>
</g>
<g>
</g>
<g>
</g>
<g>
</g>
<g>
</g>
<g>
</g>
<g>
</g>
<g>
</g>
<g>
</g>
</svg>
