<?xml version="1.0" encoding="iso-8859-1"?>
<!-- Generator: Adobe Illustrator 24.2.1, SVG Export Plug-In . SVG Version: 6.00 Build 0)  -->
<svg version="1.1" id="Capa_1" xmlns="http://www.w3.org/2000/svg" xmlns:xlink="http://www.w3.org/1999/xlink" x="0px" y="0px"
	 viewBox="0 0 512 512" style="enable-background:new 0 0 512 512;" xml:space="preserve">
<g>
	<path style="fill:#CF3A48;" d="M321.333,15h-30v9.667C291.333,44.149,275.483,60,256,60l-30,90.5l30,90.5h65.333V15z"/>
	<path style="fill:#FF3A33;" d="M220.667,24.667V15h-30v9.667c0,0.019,0,216.333,0,216.333H256V60
		C236.517,60,220.667,44.149,220.667,24.667z"/>
	<path style="fill:#FDC245;" d="M306.333,512h15V286h-30v9.667C291.333,315.149,275.483,331,256,331l-30,80.805l30,80.805
		C269.62,504.973,287.436,512,306.333,512z"/>
	<path style="fill:#FCE444;" d="M220.667,295.667V286h-30v226h15c18.897,0,36.714-7.027,50.333-19.39V331
		C236.517,331,220.667,315.149,220.667,295.667z"/>
	<path style="fill:#928BFF;" d="M130.667,15v9.667C130.667,44.149,114.816,60,95.333,60S60,44.149,60,24.667V15H30v226h15
		c18.897,0,36.714-7.027,50.333-19.39c13.62,12.362,31.436,19.39,50.333,19.39h15V15H130.667z"/>
	<path style="fill:#FDC245;" d="M452,15v9.667C452,44.149,436.149,60,416.667,60s-35.333-15.851-35.333-35.333V15h-30v226h15
		c18.897,0,36.714-7.027,50.333-19.39C430.286,233.973,448.103,241,467,241h15V15H452z"/>
	<polygon style="fill:#98D3F3;" points="512,0 256,0 226,15 256,30 512,30 	"/>
	<rect style="fill:#ADF2F5;" width="256" height="30"/>
	<path style="fill:#FF3A33;" d="M130.667,286v9.667c0,19.482-15.851,35.333-35.333,35.333S60,315.149,60,295.667V286H30v9.667
		C30,295.686,30,512,30,512h130.667V286H130.667z"/>
	<path style="fill:#3EA85C;" d="M452,286v9.667C452,315.149,436.149,331,416.667,331s-35.333-15.851-35.333-35.333V286h-30v9.667
		c0,0.019,0,216.333,0,216.333H482V286H452z"/>
	<polygon style="fill:#98D3F3;" points="512,271 256,271 226,286 256,301 512,301 	"/>
	<rect y="271" style="fill:#ADF2F5;" width="256" height="30"/>
</g>
<g>
</g>
<g>
</g>
<g>
</g>
<g>
</g>
<g>
</g>
<g>
</g>
<g>
</g>
<g>
</g>
<g>
</g>
<g>
</g>
<g>
</g>
<g>
</g>
<g>
</g>
<g>
</g>
<g>
</g>
</svg>
