<?xml version="1.0" encoding="iso-8859-1"?>
<!-- Generator: Adobe Illustrator 24.2.1, SVG Export Plug-In . SVG Version: 6.00 Build 0)  -->
<svg version="1.1" id="Capa_1" xmlns="http://www.w3.org/2000/svg" xmlns:xlink="http://www.w3.org/1999/xlink" x="0px" y="0px"
	 viewBox="0 0 512 512" style="enable-background:new 0 0 512 512;" xml:space="preserve">
<g>
	<path style="fill:#ADF2F5;" d="M331,165h30l-15-54.029C336.483,126.766,331,145.254,331,165z"/>
	<path style="fill:#98D3F3;" d="M346,110.971V165h15c0-41.355,33.645-75,75-75V60C397.849,60,364.388,80.455,346,110.971z"/>
	<polygon style="fill:#CF3A48;" points="421,150 346,150 301,331 346,512 421,512 	"/>
	<rect x="271" y="150" style="fill:#FF3A33;" width="75" height="362"/>
	<rect x="421" y="0" style="fill:#FDA147;" width="30" height="30"/>
	
		<rect x="472.962" y="90" transform="matrix(0.5 -0.866 0.866 0.5 153.0481 475.0871)" style="fill:#FDA147;" width="30" height="30"/>
	
		<rect x="472.962" y="30" transform="matrix(0.866 -0.5 0.5 0.866 42.8744 250.0096)" style="fill:#FDC245;" width="30" height="30"/>
	<path style="fill:#98D3F3;" d="M181,165h-30l15-54.029C175.517,126.766,181,145.254,181,165z"/>
	<path style="fill:#ADF2F5;" d="M166,110.971V165h-15c0-41.355-33.645-75-75-75V60C114.151,60,147.612,80.455,166,110.971z"/>
	<polygon style="fill:#FF3A33;" points="91,150 166,150 211,331 166,512 91,512 	"/>
	<rect x="166" y="150" style="fill:#CF3A48;" width="75" height="362"/>
	<rect x="61" y="0" style="fill:#FDA147;" width="30" height="30"/>
	<rect x="9.038" y="90" transform="matrix(0.866 -0.5 0.5 0.866 -49.2795 26.0866)" style="fill:#FDA147;" width="30" height="30"/>
	<rect x="9.038" y="30" transform="matrix(0.5 -0.866 0.866 0.5 -26.9519 43.3179)" style="fill:#FDC245;" width="30" height="30"/>
</g>
<g>
</g>
<g>
</g>
<g>
</g>
<g>
</g>
<g>
</g>
<g>
</g>
<g>
</g>
<g>
</g>
<g>
</g>
<g>
</g>
<g>
</g>
<g>
</g>
<g>
</g>
<g>
</g>
<g>
</g>
</svg>
