<?xml version="1.0" encoding="iso-8859-1"?>
<!-- Generator: Adobe Illustrator 24.2.1, SVG Export Plug-In . SVG Version: 6.00 Build 0)  -->
<svg version="1.1" id="Capa_1" xmlns="http://www.w3.org/2000/svg" xmlns:xlink="http://www.w3.org/1999/xlink" x="0px" y="0px"
	 viewBox="0 0 512 512" style="enable-background:new 0 0 512 512;" xml:space="preserve">
<g>
	<path style="fill:#ADF2F5;" d="M437.02,104.98C388.667,56.629,324.38,30,256,30l-15,15l15,15c124.617,0,226,101.383,226,226v76h30
		v-76C512,217.62,485.371,153.333,437.02,104.98z"/>
	<path style="fill:#D6F9FA;" d="M74.98,104.98C26.629,153.333,0,217.62,0,286v76h30v-76C30,161.383,131.383,60,256,60V30
		C187.62,30,123.333,56.629,74.98,104.98z"/>
	<path style="fill:#554FB2;" d="M362,212H256l-30,171.986l30,96.91c8.668,0,17.335,2.434,24.896,7.303
		C305.076,503.77,333.121,512,362,512c82.71,0,150-67.29,150-150S444.71,212,362,212z M362,407c-30.752,0-57.166-18.516-68.741-45
		c11.575-26.484,37.99-45,68.741-45s57.166,18.516,68.741,45C419.166,388.484,392.752,407,362,407z"/>
	<path style="fill:#736DD9;" d="M150,212C67.29,212,0,279.29,0,362s67.29,150,150,150c28.879,0,56.924-8.23,81.103-23.801
		c7.563-4.868,16.23-7.302,24.897-7.303V212H150z M150,407c-30.752,0-57.166-18.516-68.741-45c11.575-26.484,37.99-45,68.741-45
		s57.166,18.516,68.741,45C207.166,388.484,180.752,407,150,407z"/>
	<path style="fill:#98D3F3;" d="M286,0c0,16.542-13.458,30-30,30l-15,15l15,15c33.084,0,60-26.916,60-60H286z"/>
	<path style="fill:#ADF2F5;" d="M226,0h-30c0,33.084,26.916,60,60,60V30C239.458,30,226,16.542,226,0z"/>
</g>
<g>
</g>
<g>
</g>
<g>
</g>
<g>
</g>
<g>
</g>
<g>
</g>
<g>
</g>
<g>
</g>
<g>
</g>
<g>
</g>
<g>
</g>
<g>
</g>
<g>
</g>
<g>
</g>
<g>
</g>
</svg>
