<?xml version="1.0" encoding="iso-8859-1"?>
<!-- Generator: Adobe Illustrator 24.2.1, SVG Export Plug-In . SVG Version: 6.00 Build 0)  -->
<svg version="1.1" id="Capa_1" xmlns="http://www.w3.org/2000/svg" xmlns:xlink="http://www.w3.org/1999/xlink" x="0px" y="0px"
	 viewBox="0 0 512 512" style="enable-background:new 0 0 512 512;" xml:space="preserve">
<g>
	<polygon style="fill:#FE8566;" points="275.771,299.868 222.738,246.835 31.82,480.18 63.64,512 	"/>
	
		<rect x="-28.024" y="335.705" transform="matrix(0.7071 -0.7071 0.7071 0.7071 -217.5628 191.1652)" style="fill:#FFAD84;" width="299.999" height="45"/>
	<path style="fill:#FFD4A1;" d="M332,180h180c0-49.707-20.16-94.693-52.738-127.262L310.787,158.787L332,180z"/>
	<path style="fill:#CF3A48;" d="M332,180l90.006,155.895C475.8,304.77,512,246.619,512,180C462.254,130.254,381.746,130.254,332,180
		z"/>
	<path style="fill:#FFD4A1;" d="M332,180l-90.008,155.899C268.471,351.22,299.208,360,332,360s63.527-8.784,90.006-24.105
		C440.215,267.941,399.954,198.208,332,180z"/>
	<path style="fill:#CF3A48;" d="M332,180l-21.213-21.213L204.736,307.264c11.084,11.082,23.6,20.733,37.256,28.634
		C309.946,317.691,350.208,247.954,332,180z"/>
	<path style="fill:#FF3A33;" d="M332,180l-180,0c0,49.706,20.159,94.694,52.736,127.264L332,180z"/>
	<path style="fill:#FFFBBE;" d="M241.994,24.105C188.2,55.23,152,113.381,152,180c49.746,49.746,130.254,49.746,180,0
		L241.994,24.105z"/>
	<path style="fill:#FF3A33;" d="M422.006,24.105C395.527,8.784,364.792,0,332,0c-32.792,0-63.527,8.784-90.006,24.105
		C223.785,92.059,264.046,161.792,332,180L422.006,24.105z"/>
	<path style="fill:#FFFBBE;" d="M422.006,24.105C354.052,42.313,313.792,112.045,332,180L459.262,52.738
		C448.178,41.657,435.663,32.006,422.006,24.105z"/>
</g>
<g>
</g>
<g>
</g>
<g>
</g>
<g>
</g>
<g>
</g>
<g>
</g>
<g>
</g>
<g>
</g>
<g>
</g>
<g>
</g>
<g>
</g>
<g>
</g>
<g>
</g>
<g>
</g>
<g>
</g>
</svg>
