<?xml version="1.0" encoding="iso-8859-1"?>
<!-- Generator: Adobe Illustrator 24.2.1, SVG Export Plug-In . SVG Version: 6.00 Build 0)  -->
<svg version="1.1" id="Capa_1" xmlns="http://www.w3.org/2000/svg" xmlns:xlink="http://www.w3.org/1999/xlink" x="0px" y="0px"
	 viewBox="0 0 512 512" style="enable-background:new 0 0 512 512;" xml:space="preserve">
<g>
	<polygon style="fill:#3EA85C;" points="271,255 241,255 256,512 271,512 	"/>
	<rect x="241" y="255" style="fill:#3DCC4E;" width="15" height="242"/>
	<polygon style="fill:#CF3A48;" points="302.771,0 256,0 196,90 347.771,90 	"/>
	<polygon style="fill:#FF3A33;" points="209.229,0 164.229,90 256,90 256,0 	"/>
	<path style="fill:#7DDA5B;" d="M196,240c-41.355,0-75,33.645-75,75v15h60c41.355,0,75-33.645,75-75v-15H196z"/>
	<path style="fill:#3EA85C;" d="M408,360h60v15c0,59-48,107-107,107h-60L408,360z"/>
	<path style="fill:#3DCC4E;" d="M363,360h45v15c0,59-48,107-107,107h-45v-15C256,408,304,360,363,360z"/>
	<path style="fill:#3DCC4E;" d="M104,390H44v15c0,59,48,107,107,107h60L104,390z"/>
	<path style="fill:#7DDA5B;" d="M149,390h-45v15c0,59,48,107,107,107h45v-15C256,438,208,390,149,390z"/>
	<path style="fill:#3DCC4E;" d="M316,240h-60v15c0,41.355,33.645,75,75,75h60v-15C391,273.645,357.355,240,316,240z"/>
	<path style="fill:#FF3A33;" d="M256,60l-60,90l60,105c70.304,0,127.5-57.196,127.5-127.5V60H256z"/>
	<path style="fill:#FE5E49;" d="M128.5,60v67.5c0,70.304,57.196,127.5,127.5,127.5V60H128.5z"/>
</g>
<g>
</g>
<g>
</g>
<g>
</g>
<g>
</g>
<g>
</g>
<g>
</g>
<g>
</g>
<g>
</g>
<g>
</g>
<g>
</g>
<g>
</g>
<g>
</g>
<g>
</g>
<g>
</g>
<g>
</g>
</svg>
