<?xml version="1.0" encoding="iso-8859-1"?>
<!-- Generator: Adobe Illustrator 24.2.1, SVG Export Plug-In . SVG Version: 6.00 Build 0)  -->
<svg version="1.1" id="Capa_1" xmlns="http://www.w3.org/2000/svg" xmlns:xlink="http://www.w3.org/1999/xlink" x="0px" y="0px"
	 viewBox="0 0 512 512" style="enable-background:new 0 0 512 512;" xml:space="preserve">
<g>
	<polygon style="fill:#83B3F1;" points="422.189,0 203.5,58.598 143.5,238.218 203.5,417.839 512,335.176 	"/>
	<polygon style="fill:#98D3F3;" points="29.059,105.34 118.869,440.516 203.5,417.839 203.5,58.598 	"/>
	<polygon style="fill:#ADF2F5;" points="203.5,165 143.5,338.5 203.5,512 407,512 407,165 	"/>
	<rect y="165" style="fill:#D6F9FA;" width="203.5" height="347"/>
	<polygon style="fill:#736DD9;" points="347,377 150.719,324.113 203.5,452 347,452 	"/>
	<polygon style="fill:#928BFF;" points="60,377 60,452 203.5,452 203.5,324.113 	"/>
	<polygon style="fill:#3DCC4E;" points="347,377 347,225 203.5,225 150.719,284.894 203.5,377 	"/>
	<rect x="60" y="225" style="fill:#7DDA5B;" width="143.5" height="152"/>
</g>
<g>
</g>
<g>
</g>
<g>
</g>
<g>
</g>
<g>
</g>
<g>
</g>
<g>
</g>
<g>
</g>
<g>
</g>
<g>
</g>
<g>
</g>
<g>
</g>
<g>
</g>
<g>
</g>
<g>
</g>
</svg>
