<?xml version="1.0" encoding="iso-8859-1"?>
<!-- Generator: Adobe Illustrator 24.2.1, SVG Export Plug-In . SVG Version: 6.00 Build 0)  -->
<svg version="1.1" id="Capa_1" xmlns="http://www.w3.org/2000/svg" xmlns:xlink="http://www.w3.org/1999/xlink" x="0px" y="0px"
	 viewBox="0 0 512 512" style="enable-background:new 0 0 512 512;" xml:space="preserve">
<g>
	<polygon style="fill:#403C86;" points="0,331.748 0,406.749 256,406.749 256,271.748 	"/>
	<polygon style="fill:#2B2859;" points="256,406.749 512,406.749 512,331.748 256,271.748 	"/>
	<polygon style="fill:#FEF575;" points="512,74.749 407,74.749 347,239.748 512,179.748 	"/>
	<polygon style="fill:#736DD9;" points="256,74.749 196,239.748 407,239.748 407,74.749 	"/>
	<polygon style="fill:#928BFF;" points="256,74.749 0,74.749 0,179.748 256,224.748 	"/>
	<rect y="179.748" style="fill:#554FB2;" width="256" height="152"/>
	<rect x="256" y="179.748" style="fill:#403C86;" width="256" height="152"/>
	<path style="fill:#928BFF;" d="M256,135.251l-99.926,151l99.926,151c83.395,0,151-67.605,151-151S339.395,135.251,256,135.251z"/>
	<path style="fill:#83B3F1;" d="M105,286.251c0,83.395,67.605,151,151,151v-302C172.605,135.251,105,202.856,105,286.251z"/>
	<path style="fill:#D6F9FA;" d="M256,195.251l-60.221,91l60.221,91c50.258,0,91-40.742,91-91S306.258,195.251,256,195.251z"/>
	<path style="fill:#FFFFFF;" d="M165,286.251c0,50.258,40.742,91,91,91v-182C205.742,195.251,165,235.993,165,286.251z"/>
</g>
<g>
</g>
<g>
</g>
<g>
</g>
<g>
</g>
<g>
</g>
<g>
</g>
<g>
</g>
<g>
</g>
<g>
</g>
<g>
</g>
<g>
</g>
<g>
</g>
<g>
</g>
<g>
</g>
<g>
</g>
</svg>
