<?xml version="1.0" encoding="iso-8859-1"?>
<!-- Generator: Adobe Illustrator 24.2.1, SVG Export Plug-In . SVG Version: 6.00 Build 0)  -->
<svg version="1.1" id="Capa_1" xmlns="http://www.w3.org/2000/svg" xmlns:xlink="http://www.w3.org/1999/xlink" x="0px" y="0px"
	 viewBox="0 0 512 512" style="enable-background:new 0 0 512 512;" xml:space="preserve">
<g>
	<path style="fill:#CF3A48;" d="M434.378,374.197L196,298.427L256,512c71.392,0,141.458-19.072,202.622-55.156l11.828-6.978
		L434.378,374.197z"/>
	<path style="fill:#FF3A33;" d="M113.741,298.427l-72.19,151.439l11.828,6.978C114.542,492.928,184.608,512,256,512V298.427H113.741
		z"/>
	<path style="fill:#FCE444;" d="M407.607,318.037L211,242.645l45,126.552c31.908,8.376,65.399,12.843,99.935,12.843
		c26.864,0,53.096-2.702,78.443-7.844L407.607,318.037z"/>
	<path style="fill:#FEF575;" d="M140.332,242.645l-26.591,55.782c41.499,32.584,89.73,56.98,142.259,70.77V242.645H140.332z"/>
	<path style="fill:#FF3A33;" d="M352.29,201.994L226,128.183l30,178.565c31.544,9.928,65.112,15.292,99.935,15.292
		c17.577,0,34.832-1.375,51.672-4.003L352.29,201.994z"/>
	<path style="fill:#FE5E49;" d="M194.896,128.183l-54.564,114.462c33.481,28.548,72.687,50.574,115.668,64.103V128.183H194.896z"/>
	<path style="fill:#FDC245;" d="M352.29,201.994L256,0l-15,88.554l15,88.554C284.785,192.476,317.519,201.409,352.29,201.994z"/>
	<path style="fill:#FCE444;" d="M256,177.108V0l-61.104,128.183C211.996,148.028,232.705,164.67,256,177.108z"/>
</g>
<g>
</g>
<g>
</g>
<g>
</g>
<g>
</g>
<g>
</g>
<g>
</g>
<g>
</g>
<g>
</g>
<g>
</g>
<g>
</g>
<g>
</g>
<g>
</g>
<g>
</g>
<g>
</g>
<g>
</g>
</svg>
