<?xml version="1.0" encoding="iso-8859-1"?>
<!-- Generator: Adobe Illustrator 24.2.1, SVG Export Plug-In . SVG Version: 6.00 Build 0)  -->
<svg version="1.1" id="Capa_1" xmlns="http://www.w3.org/2000/svg" xmlns:xlink="http://www.w3.org/1999/xlink" x="0px" y="0px"
	 viewBox="0 0 512 512" style="enable-background:new 0 0 512 512;" xml:space="preserve">
<g>
	<rect x="149.866" style="fill:#ADF2F5;" width="106.134" height="120"/>
	<polygon style="fill:#FFFFFF;" points="149.866,0 75,123.371 75,317.79 256,120 	"/>
	<path style="fill:#D6F9FA;" d="M211.116,146.047L135,267.187l121,49.393V120C237.449,120,220.641,130.128,211.116,146.047z"/>
	<polygon style="fill:#928BFF;" points="256,316.579 165,219.441 120,219.441 165,512 256,512 	"/>
	<polygon style="fill:#403C86;" points="75,123.371 0,171.507 0,512 165,512 	"/>
	<path style="fill:#554FB2;" d="M75,123.371v255.558c0,29.134,11.868,55.494,31.031,74.517L165,512V219.441L75,123.371z"/>
	<rect x="256" y="0" style="fill:#98D3F3;" width="106.134" height="120"/>
	<polygon style="fill:#D6F9FA;" points="362.134,0 437,123.371 437,317.79 256,120 	"/>
	<path style="fill:#ADF2F5;" d="M300.884,146.047L377,267.187l-121,49.393V120C274.551,120,291.359,130.128,300.884,146.047z"/>
	<polygon style="fill:#736DD9;" points="256,316.579 347,219.441 392,219.441 347,512 256,512 	"/>
	<polygon style="fill:#2B2859;" points="512,171.507 437,123.371 347,512 512,512 512,376.579 482,346.579 512,316.579 	"/>
	<rect x="422" y="316.579" style="fill:#FDC245;" width="90" height="60"/>
	<path style="fill:#403C86;" d="M437,123.371v255.558c0,29.134-11.868,55.494-31.031,74.517L347,512V219.441L437,123.371z"/>
	<polygon style="fill:#2B2859;" points="271,173.434 256,173.434 248.5,188.434 256,203.434 271,203.434 	"/>
	<rect x="241" y="173.434" style="fill:#403C86;" width="15" height="30"/>
</g>
<g>
</g>
<g>
</g>
<g>
</g>
<g>
</g>
<g>
</g>
<g>
</g>
<g>
</g>
<g>
</g>
<g>
</g>
<g>
</g>
<g>
</g>
<g>
</g>
<g>
</g>
<g>
</g>
<g>
</g>
</svg>
