<?xml version="1.0" encoding="iso-8859-1"?>
<!-- Generator: Adobe Illustrator 24.2.1, SVG Export Plug-In . SVG Version: 6.00 Build 0)  -->
<svg version="1.1" id="Capa_1" xmlns="http://www.w3.org/2000/svg" xmlns:xlink="http://www.w3.org/1999/xlink" x="0px" y="0px"
	 viewBox="0 0 512 512" style="enable-background:new 0 0 512 512;" xml:space="preserve">
<g>
	<path style="fill:#CF3A48;" d="M393.682,271.924l-26.951-34.347l34.176-84.354L279.894,94.011
		C274.932,102.692,266,107.876,256,107.876l-60,129.701L256,512h123.487l36.702-116.021
		C429.652,353.419,421.238,307.043,393.682,271.924z"/>
	<path style="fill:#FF3A33;" d="M232.106,94.011l-121.013,59.213l34.176,84.354l-26.951,34.347
		c-27.557,35.119-35.971,81.495-22.508,124.056L132.513,512H256V107.876C246,107.876,237.068,102.692,232.106,94.011z"/>
	<polygon style="fill:#FF3A33;" points="136,0 106,0 106,60 136,90 	"/>
	<path style="fill:#FE5E49;" d="M173.5,60H106v67.5c0,37.22,30.28,67.5,67.5,67.5s67.5-30.28,67.5-67.5S210.72,60,173.5,60z"/>
	<polygon style="fill:#CF3A48;" points="406,0 376,0 376,90 406,60 	"/>
	<path style="fill:#FF3A33;" d="M338.5,60c-37.22,0-67.5,30.28-67.5,67.5s30.28,67.5,67.5,67.5s67.5-30.28,67.5-67.5V60H338.5z"/>
</g>
<g>
</g>
<g>
</g>
<g>
</g>
<g>
</g>
<g>
</g>
<g>
</g>
<g>
</g>
<g>
</g>
<g>
</g>
<g>
</g>
<g>
</g>
<g>
</g>
<g>
</g>
<g>
</g>
<g>
</g>
</svg>
