<?xml version="1.0" encoding="iso-8859-1"?>
<!-- Generator: Adobe Illustrator 24.2.1, SVG Export Plug-In . SVG Version: 6.00 Build 0)  -->
<svg version="1.1" id="Capa_1" xmlns="http://www.w3.org/2000/svg" xmlns:xlink="http://www.w3.org/1999/xlink" x="0px" y="0px"
	 viewBox="0 0 512 512" style="enable-background:new 0 0 512 512;" xml:space="preserve">
<g>
	<path style="fill:#CF3A48;" d="M467,113.621c0-23.433-6.628-46.222-19.167-65.903c-12.188-19.13-29.385-34.512-49.732-44.483
		L391.5,0l-30,212H467V113.621z"/>
	<path style="fill:#FF3A33;" d="M384.899,3.234c-20.348,9.972-37.545,25.354-49.732,44.483C322.628,67.399,316,90.188,316,113.621
		V212h75.5V0L384.899,3.234z"/>
	<polygon style="fill:#403C86;" points="482,182 391.5,182 346.5,302 482,302 	"/>
	<rect x="301" y="182" style="fill:#703B71;" width="90.5" height="120"/>
	<polygon style="fill:#2B2859;" points="512,272 391.5,272 361.5,392 391.5,512 512,512 	"/>
	<rect x="271" y="272" style="fill:#403C86;" width="120.5" height="240"/>
	<path style="fill:#98D3F3;" d="M181,182H60c-33.084,0-60,26.916-60,60v60h241v-60C241,208.916,214.084,182,181,182z"/>
	<path style="fill:#403C86;" d="M181,242H60c-33.084,0-60,26.916-60,60v210h241V302C241,268.916,214.084,242,181,242z"/>
</g>
<g>
</g>
<g>
</g>
<g>
</g>
<g>
</g>
<g>
</g>
<g>
</g>
<g>
</g>
<g>
</g>
<g>
</g>
<g>
</g>
<g>
</g>
<g>
</g>
<g>
</g>
<g>
</g>
<g>
</g>
</svg>
