<?xml version="1.0" encoding="iso-8859-1"?>
<!-- Generator: Adobe Illustrator 24.2.1, SVG Export Plug-In . SVG Version: 6.00 Build 0)  -->
<svg version="1.1" id="Capa_1" xmlns="http://www.w3.org/2000/svg" xmlns:xlink="http://www.w3.org/1999/xlink" x="0px" y="0px"
	 viewBox="0 0 512 512" style="enable-background:new 0 0 512 512;" xml:space="preserve">
<g>
	<path style="fill:#98D3F3;" d="M452,15h-60v482h60c33.084,0,60-26.916,60-60V75C512,41.916,485.084,15,452,15z"/>
	<path style="fill:#ADF2F5;" d="M392,15H272v482h120c33.084,0,60-26.916,60-60V75C452,41.916,425.084,15,392,15z"/>
	<rect x="302" y="75" style="fill:#403C86;" width="90" height="362"/>
	<path style="fill:#FEF575;" d="M272,15H165L75,256l90,241h107c33.084,0,60-26.916,60-60V75C332,41.916,305.084,15,272,15z"/>
	<path style="fill:#FFFBBE;" d="M60,15C26.916,15,0,41.916,0,75v362c0,33.084,26.916,60,60,60h105V15H60z"/>
	<rect x="60" y="75" style="fill:#FF3A33;" width="30" height="30"/>
	<rect x="242" y="407" style="fill:#CF3A48;" width="30" height="30"/>
	<path style="fill:#CF3A48;" d="M195,160.433c-10.621,0-20.944,2.803-30,8.038L135,256l30,95.566l76.374-93.063
		C250.161,247.81,255,234.289,255,220.433C255,187.349,228.084,160.433,195,160.433z"/>
	<path style="fill:#FF3A33;" d="M135,160.433c-33.084,0-60,26.916-60,60c0,13.855,4.839,27.376,13.621,38.063L165,351.566V168.471
		C155.944,163.235,145.621,160.433,135,160.433z"/>
</g>
<g>
</g>
<g>
</g>
<g>
</g>
<g>
</g>
<g>
</g>
<g>
</g>
<g>
</g>
<g>
</g>
<g>
</g>
<g>
</g>
<g>
</g>
<g>
</g>
<g>
</g>
<g>
</g>
<g>
</g>
</svg>
