<?xml version="1.0" encoding="iso-8859-1"?>
<!-- Generator: Adobe Illustrator 24.2.1, SVG Export Plug-In . SVG Version: 6.00 Build 0)  -->
<svg version="1.1" id="Capa_1" xmlns="http://www.w3.org/2000/svg" xmlns:xlink="http://www.w3.org/1999/xlink" x="0px" y="0px"
	 viewBox="0 0 512 512" style="enable-background:new 0 0 512 512;" xml:space="preserve">
<g>
	<polygon style="fill:#FFAD84;" points="512,0 256,0 106,256 256,512 512,512 	"/>
	<rect style="fill:#FFD4A1;" width="256" height="512"/>
	<polygon style="fill:#FF3A33;" points="373.6,60 328.6,183.4 452,138.4 452,60 	"/>
	<polygon style="fill:#FE5E49;" points="328.6,261.8 452,216.8 452,138.4 373.6,138.4 	"/>
	<polygon style="fill:#FE5E49;" points="373.6,452 452,452 452,373.6 328.6,328.6 	"/>
	<polygon style="fill:#554FB2;" points="250.2,328.6 295.2,452 373.6,452 373.6,373.6 	"/>
	<polygon style="fill:#554FB2;" points="373.6,138.4 373.6,60 295.2,60 250.2,183.4 	"/>
	<polygon style="fill:#554FB2;" points="328.6,325.2 452,295.2 452,216.8 328.6,216.8 	"/>
	<polygon style="fill:#FF3A33;" points="373.6,373.6 452,373.6 452,295.2 328.6,295.2 	"/>
	<polygon style="fill:#FE5E49;" points="295.2,60 256,60 211,183.4 295.2,183.4 	"/>
	<polygon style="fill:#FF3A33;" points="295.2,452 295.2,343.6 211,343.6 256,452 	"/>
	<polygon style="fill:#FE5E49;" points="138.4,60 183.4,183.4 60,138.4 60,60 	"/>
	<polygon style="fill:#FE7F48;" points="183.4,261.8 60,216.8 60,138.4 138.4,138.4 	"/>
	<polygon style="fill:#FE7F48;" points="138.4,452 60,452 60,373.6 183.4,328.6 	"/>
	<polygon style="fill:#736DD9;" points="261.8,328.6 216.8,452 138.4,452 138.4,373.6 	"/>
	<polygon style="fill:#736DD9;" points="138.4,138.4 138.4,60 216.8,60 261.8,183.4 	"/>
	<polygon style="fill:#736DD9;" points="183.4,325.2 60,295.2 60,216.8 183.4,216.8 	"/>
	<polygon style="fill:#FE5E49;" points="138.4,373.6 60,373.6 60,295.2 183.4,295.2 	"/>
	<rect x="216.8" y="60" style="fill:#FE7F48;" width="39.2" height="123.4"/>
	<rect x="216.8" y="343.6" style="fill:#FE5E49;" width="39.2" height="108.4"/>
	<polygon style="fill:#FFFBBE;" points="373.6,138.4 256,138.4 226,256 256,373.6 373.6,373.6 	"/>
	<rect x="138.4" y="138.4" style="fill:#FFFFFF;" width="117.6" height="235.2"/>
	<path style="fill:#FDC245;" d="M256,192.4L213.912,256L256,319.6c35.125,0,63.6-28.475,63.6-63.6S291.125,192.4,256,192.4z"/>
	<path style="fill:#FCE444;" d="M192.4,256c0,35.125,28.475,63.6,63.6,63.6V192.4C220.875,192.4,192.4,220.875,192.4,256z"/>
</g>
<g>
</g>
<g>
</g>
<g>
</g>
<g>
</g>
<g>
</g>
<g>
</g>
<g>
</g>
<g>
</g>
<g>
</g>
<g>
</g>
<g>
</g>
<g>
</g>
<g>
</g>
<g>
</g>
<g>
</g>
</svg>
