<?xml version="1.0" encoding="iso-8859-1"?>
<!-- Generator: Adobe Illustrator 24.2.1, SVG Export Plug-In . SVG Version: 6.00 Build 0)  -->
<svg version="1.1" id="Capa_1" xmlns="http://www.w3.org/2000/svg" xmlns:xlink="http://www.w3.org/1999/xlink" x="0px" y="0px"
	 viewBox="0 0 512 512" style="enable-background:new 0 0 512 512;" xml:space="preserve">
<g>
	<polygon style="fill:#554FB2;" points="391.667,107 391.667,0 256,0 166,197 	"/>
	<polygon style="fill:#736DD9;" points="256,0 120.333,0 120.333,107 256,212 	"/>
	<polygon style="fill:#403C86;" points="391.667,107 301.667,347 512,302 512,107 	"/>
	<polygon style="fill:#736DD9;" points="256,107 166,347 391.667,347 391.667,107 	"/>
	<polygon style="fill:#554FB2;" points="0,107 0,302 210.333,347 120.333,107 	"/>
	<rect x="120.333" y="107" style="fill:#928BFF;" width="135.667" height="240"/>
	<polygon style="fill:#2B2859;" points="256,302 166,467 452,512 512,512 512,302 	"/>
	<polygon style="fill:#403C86;" points="256,467 256,302 0,302 0,512 60,512 	"/>
	<polygon style="fill:#FFFBBE;" points="391.667,347 376.667,362 361.667,347 331.333,347 316.333,362 301.333,347 271,347 
		196,429.5 256,512 452,512 452,347 	"/>
	<polygon style="fill:#FFFFFF;" points="241,347 210.667,347 195.667,362 180.667,347 150.333,347 135.333,362 120.333,347 60,347 
		60,512 256,512 256,362 	"/>
	<rect x="361.667" y="347" style="fill:#2B2859;" width="30" height="105"/>
	<rect x="120.333" y="347" style="fill:#403C86;" width="30" height="105"/>
	<rect x="180.667" y="347" style="fill:#403C86;" width="30" height="105"/>
	<polygon style="fill:#2B2859;" points="271,347 256,347 243,399.5 256,452 271,452 	"/>
	<rect x="241" y="347" style="fill:#403C86;" width="15" height="105"/>
	<rect x="301.333" y="347" style="fill:#2B2859;" width="30" height="105"/>
	<polygon style="fill:#7DDA5B;" points="331.333,167 256,167 241,212 256,257 331.333,257 	"/>
	<rect x="180.667" y="167" style="fill:#BEE768;" width="75.333" height="90"/>
</g>
<g>
</g>
<g>
</g>
<g>
</g>
<g>
</g>
<g>
</g>
<g>
</g>
<g>
</g>
<g>
</g>
<g>
</g>
<g>
</g>
<g>
</g>
<g>
</g>
<g>
</g>
<g>
</g>
<g>
</g>
</svg>
