<?xml version="1.0" encoding="iso-8859-1"?>
<!-- Generator: Adobe Illustrator 24.2.1, SVG Export Plug-In . SVG Version: 6.00 Build 0)  -->
<svg version="1.1" id="Capa_1" xmlns="http://www.w3.org/2000/svg" xmlns:xlink="http://www.w3.org/1999/xlink" x="0px" y="0px"
	 viewBox="0 0 512 512" style="enable-background:new 0 0 512 512;" xml:space="preserve">
<g>
	<path style="fill:#FFAD84;" d="M480,60c17.673,0,32,14.327,32,32v163l-124,61l60-134V92C448,74.327,462.327,60,480,60z"/>
	<path style="fill:#FFAD84;" d="M288,0c17.673,0,32,14.327,32,32v150l30,134l-154,1l60-285C256,14.327,270.327,0,288,0z"/>
	<polygon style="fill:#FFAD84;" points="286,255 512,255 512,437 286,482 	"/>
	<path style="fill:#FE5E49;" d="M352,150c17.673,0,32,14.327,32,32l30,36.5L384,255c0,17.673-14.327,32-32,32s-32-14.327-32-32
		l-30-36.5l30-36.5C320,164.327,334.327,150,352,150z"/>
	<path style="fill:#FE8566;" d="M416,150c17.673,0,32,14.327,32,32v73c0,17.673-14.327,32-32,32s-32-14.327-32-32v-73
		C384,164.327,398.327,150,416,150z"/>
	<path style="fill:#FE8566;" d="M288,150c17.673,0,32,14.327,32,32v146c35.346,0,64,28.654,64,64v105l-188-60l60-255
		C256,164.327,270.327,150,288,150z"/>
	<polygon style="fill:#2B2859;" points="512,437 512,512 256,512 196,437 	"/>
	<path style="fill:#FFD4A1;" d="M32,60C14.327,60,0,74.327,0,92v163l124,61L64,182V92C64,74.327,49.673,60,32,60z"/>
	<path style="fill:#FFD4A1;" d="M224,0c-17.673,0-32,14.327-32,32v150l-30,134l94-134V32C256,14.327,241.673,0,224,0z"/>
	<polygon style="fill:#FFD4A1;" points="226,255 0,255 0,437 226,482 	"/>
	<path style="fill:#FE8566;" d="M160,150c-17.673,0-32,14.327-32,32l-30,36.5l30,36.5c0,17.673,14.327,32,32,32s32-14.327,32-32
		l30-36.5L192,182C192,164.327,177.673,150,160,150z"/>
	<path style="fill:#FFAD84;" d="M96,150c-17.673,0-32,14.327-32,32v73c0,17.673,14.327,32,32,32s32-14.327,32-32v-73
		C128,164.327,113.673,150,96,150z"/>
	<path style="fill:#FFAD84;" d="M224,150c-17.673,0-32,14.327-32,32v146c-35.346,0-64,28.654-64,64v105l128-60V182
		C256,164.327,241.673,150,224,150z"/>
	<rect x="0" y="437" style="fill:#502946;" width="256" height="75"/>
</g>
<g>
</g>
<g>
</g>
<g>
</g>
<g>
</g>
<g>
</g>
<g>
</g>
<g>
</g>
<g>
</g>
<g>
</g>
<g>
</g>
<g>
</g>
<g>
</g>
<g>
</g>
<g>
</g>
<g>
</g>
</svg>
