<?xml version="1.0" encoding="iso-8859-1"?>
<!-- Generator: Adobe Illustrator 24.2.1, SVG Export Plug-In . SVG Version: 6.00 Build 0)  -->
<svg version="1.1" id="Capa_1" xmlns="http://www.w3.org/2000/svg" xmlns:xlink="http://www.w3.org/1999/xlink" x="0px" y="0px"
	 viewBox="0 0 512 512" style="enable-background:new 0 0 512 512;" xml:space="preserve">
<g>
	<polygon style="fill:#928BFF;" points="512,0 420,0 375,105 512,60 	"/>
	<polygon style="fill:#736DD9;" points="512,60 375,60 375,225 512,195 	"/>
	<polygon style="fill:#928BFF;" points="420,512 512,512 512,452 375,407 	"/>
	<rect x="375" y="195" style="fill:#554FB2;" width="137" height="257"/>
	<polygon style="fill:#83B3F1;" points="420,0 210,0 120,256 210,512 420,512 	"/>
	<rect x="240" y="60" style="fill:#2B2859;" width="90" height="392"/>
	<rect x="180" y="271" style="fill:#736DD9;" width="180" height="121.005"/>
	<polygon style="fill:#98D3F3;" points="210,0 0,0 0,512 210,512 210,241 195,180.498 210,119.995 	"/>
	<rect x="90" y="60" style="fill:#403C86;" width="90" height="392"/>
	<rect x="60" y="119.995" style="fill:#928BFF;" width="150" height="121.005"/>
</g>
<g>
</g>
<g>
</g>
<g>
</g>
<g>
</g>
<g>
</g>
<g>
</g>
<g>
</g>
<g>
</g>
<g>
</g>
<g>
</g>
<g>
</g>
<g>
</g>
<g>
</g>
<g>
</g>
<g>
</g>
</svg>
