<?xml version="1.0" encoding="iso-8859-1"?>
<!-- Generator: Adobe Illustrator 24.2.1, SVG Export Plug-In . SVG Version: 6.00 Build 0)  -->
<svg version="1.1" id="Capa_1" xmlns="http://www.w3.org/2000/svg" xmlns:xlink="http://www.w3.org/1999/xlink" x="0px" y="0px"
	 viewBox="0 0 512 512" style="enable-background:new 0 0 512 512;" xml:space="preserve">
<g>
	<polygon style="fill:#FDA147;" points="512,0 226,0 120,452 512,452 	"/>
	<polygon style="fill:#FDC245;" points="60,0 60,392 120,452 226,452 226,0 	"/>
	<path style="fill:#403C86;" d="M434.839,199.496C400.88,117.605,320.173,60,226,60L76.441,286L226,512
		c94.173,0,174.88-57.605,208.839-139.496V199.496z"/>
	<path style="fill:#554FB2;" d="M434.839,372.504C445.889,345.857,452,316.644,452,286s-6.111-59.857-17.161-86.504L226,286
		L434.839,372.504z"/>
	<path style="fill:#554FB2;" d="M17.161,199.496v173.008C51.12,454.395,131.827,512,226,512V60
		C131.827,60,51.12,117.605,17.161,199.496z"/>
	<path style="fill:#736DD9;" d="M17.161,199.496C6.111,226.143,0,255.356,0,286s6.111,59.857,17.161,86.504L226,286L17.161,199.496z
		"/>
	<path style="fill:#ADF2F5;" d="M226,181l-69.485,105L226,391c57.99,0,105-47.01,105-105S283.99,181,226,181z"/>
	<path style="fill:#FFFFFF;" d="M121,286c0,57.99,47.01,105,105,105V181C168.01,181,121,228.01,121,286z"/>
	<path style="fill:#FDA147;" d="M226,241l-29.779,45L226,331c24.853,0,45-20.147,45-45S250.853,241,226,241z"/>
	<path style="fill:#FDC245;" d="M181,286c0,24.853,20.147,45,45,45v-90C201.147,241,181,261.147,181,286z"/>
</g>
<g>
</g>
<g>
</g>
<g>
</g>
<g>
</g>
<g>
</g>
<g>
</g>
<g>
</g>
<g>
</g>
<g>
</g>
<g>
</g>
<g>
</g>
<g>
</g>
<g>
</g>
<g>
</g>
<g>
</g>
</svg>
