<?xml version="1.0" encoding="iso-8859-1"?>
<!-- Generator: Adobe Illustrator 24.2.1, SVG Export Plug-In . SVG Version: 6.00 Build 0)  -->
<svg version="1.1" id="Capa_1" xmlns="http://www.w3.org/2000/svg" xmlns:xlink="http://www.w3.org/1999/xlink" x="0px" y="0px"
	 viewBox="0 0 512 512" style="enable-background:new 0 0 512 512;" xml:space="preserve">
<g>
	<polygon style="fill:#403C86;" points="436,105 256,105 166.248,308.5 256,512 302,512 	"/>
	<polygon style="fill:#554FB2;" points="76,105 210,512 256,512 256,105 	"/>
	<polygon style="fill:#3DCC4E;" points="436,195 256,195 166.248,286 256,377 436,377 	"/>
	<rect x="76" y="195" style="fill:#7DDA5B;" width="180" height="182"/>
	<polygon style="fill:#736DD9;" points="0,437 0,512 210,512 210,437 105,377 	"/>
	<rect style="fill:#403C86;" width="210" height="437"/>
	<circle style="fill:#736DD9;" cx="105" cy="105" r="45"/>
	<circle style="fill:#554FB2;" cx="105" cy="287" r="105"/>
	<circle style="fill:#736DD9;" cx="105" cy="287" r="45"/>
	<polygon style="fill:#554FB2;" points="302,437 302,512 512,512 512,437 407,377 	"/>
	<rect x="302" style="fill:#2B2859;" width="210" height="437"/>
	<circle style="fill:#554FB2;" cx="407" cy="105" r="45"/>
	<circle style="fill:#403C86;" cx="407" cy="287" r="105"/>
	<circle style="fill:#554FB2;" cx="407" cy="287" r="45"/>
</g>
<g>
</g>
<g>
</g>
<g>
</g>
<g>
</g>
<g>
</g>
<g>
</g>
<g>
</g>
<g>
</g>
<g>
</g>
<g>
</g>
<g>
</g>
<g>
</g>
<g>
</g>
<g>
</g>
<g>
</g>
</svg>
