<?xml version="1.0" encoding="iso-8859-1"?>
<!-- Generator: Adobe Illustrator 24.2.1, SVG Export Plug-In . SVG Version: 6.00 Build 0)  -->
<svg version="1.1" id="Capa_1" xmlns="http://www.w3.org/2000/svg" xmlns:xlink="http://www.w3.org/1999/xlink" x="0px" y="0px"
	 viewBox="0 0 512 512" style="enable-background:new 0 0 512 512;" xml:space="preserve">
<g>
	<rect x="391.5" y="257" width="30" height="30"/>
	<rect x="361.5" y="197" width="30" height="30"/>
	<path d="M492,482c-17.28,0-25.576-8.9-38.75-24.631c-10.966-13.094-24.169-28.837-46.75-33.79v-62.836
		c42.511-7.163,75-44.227,75-88.743c0-1.663-0.056-3.422-0.171-5.376C481.329,266.628,465.644,0,465.644,0H317.356l-15.685,266.624
		c-0.115,1.954-0.171,3.713-0.171,5.376c0,44.516,32.489,81.58,75,88.743v62.836c-22.58,4.953-35.784,20.696-46.75,33.79
		C316.576,473.1,308.28,482,291,482h-20v30h241v-30H492z M345.644,30h91.713l5.294,90H340.349L345.644,30z M331.5,272
		c0-1.067,0.039-2.247,0.12-3.61L338.584,150h105.832l6.965,118.39c0.081,1.363,0.12,2.543,0.12,3.61c0,33.084-26.916,60-60,60
		S331.5,305.084,331.5,272z M348.206,482c1.565-1.816,3.076-3.617,4.543-5.369C365.924,460.9,374.22,452,391.5,452
		s25.576,8.9,38.75,24.631c1.468,1.752,2.979,3.554,4.543,5.369H348.206z"/>
	<rect x="90.5" y="257" width="30" height="30"/>
	<rect x="120.5" y="197" width="30" height="30"/>
	<path d="M182.25,457.369c-10.966-13.094-24.169-28.837-46.75-33.79v-62.836c42.511-7.163,75-44.227,75-88.743
		c0-1.663-0.056-3.422-0.171-5.376C210.329,266.628,194.644,0,194.644,0H46.356L30.671,266.624
		c-0.115,1.954-0.171,3.713-0.171,5.376c0,44.516,32.489,81.58,75,88.743v62.836c-22.58,4.953-35.784,20.696-46.75,33.79
		C45.576,473.1,37.28,482,20,482H0v30h241v-30h-20C203.72,482,195.424,473.1,182.25,457.369z M74.644,30h91.713l5.294,90H69.349
		L74.644,30z M60.5,272c0-1.067,0.039-2.247,0.12-3.61L67.584,150h105.832l6.965,118.39c0.081,1.363,0.12,2.543,0.12,3.61
		c0,33.084-26.916,60-60,60S60.5,305.084,60.5,272z M77.206,482c1.565-1.816,3.076-3.617,4.543-5.369
		C94.924,460.9,103.22,452,120.5,452s25.576,8.9,38.75,24.631c1.468,1.752,2.979,3.554,4.543,5.369H77.206z"/>
</g>
<g>
</g>
<g>
</g>
<g>
</g>
<g>
</g>
<g>
</g>
<g>
</g>
<g>
</g>
<g>
</g>
<g>
</g>
<g>
</g>
<g>
</g>
<g>
</g>
<g>
</g>
<g>
</g>
<g>
</g>
</svg>
