<?xml version="1.0" encoding="iso-8859-1"?>
<!-- Generator: Adobe Illustrator 24.2.1, SVG Export Plug-In . SVG Version: 6.00 Build 0)  -->
<svg version="1.1" id="Capa_1" xmlns="http://www.w3.org/2000/svg" xmlns:xlink="http://www.w3.org/1999/xlink" x="0px" y="0px"
	 viewBox="0 0 512 512" style="enable-background:new 0 0 512 512;" xml:space="preserve">
<g>
	<path d="M211,164.896V0H106v164.896C73.206,183.623,52.5,218.777,52.5,257v255h212V257C264.5,218.777,243.794,183.623,211,164.896z
		 M136,30h45v90h-45V30z M234.5,482h-152v-30h152V482z M234.5,422h-152V302h152V422z M234.5,272h-152v-15
		c0-29.789,17.541-56.98,44.688-69.274l8.812-3.991V150h45v33.735l8.812,3.991C216.959,200.02,234.5,227.211,234.5,257V272z"/>
	<path d="M392,420.608c38.35-7.077,67.5-40.742,67.5-81.108c0-1.344-0.035-2.734-0.104-4.129L453.274,212H300.726l-6.121,123.371
		c-0.069,1.396-0.104,2.785-0.104,4.129c0,40.367,29.15,74.031,67.5,81.108V482h-45v30h120v-30h-45V420.608z M329.274,242h95.451
		l1.489,30h-98.428L329.274,242z M324.5,339.5c0-0.851,0.022-1.74,0.067-2.643l1.73-34.857h101.406l1.73,34.858
		c0.045,0.902,0.067,1.792,0.067,2.642c0,28.949-23.552,52.5-52.5,52.5S324.5,368.449,324.5,339.5z"/>
</g>
<g>
</g>
<g>
</g>
<g>
</g>
<g>
</g>
<g>
</g>
<g>
</g>
<g>
</g>
<g>
</g>
<g>
</g>
<g>
</g>
<g>
</g>
<g>
</g>
<g>
</g>
<g>
</g>
<g>
</g>
</svg>
