<?xml version="1.0" encoding="iso-8859-1"?>
<!-- Generator: Adobe Illustrator 24.2.1, SVG Export Plug-In . SVG Version: 6.00 Build 0)  -->
<svg version="1.1" id="Capa_1" xmlns="http://www.w3.org/2000/svg" xmlns:xlink="http://www.w3.org/1999/xlink" x="0px" y="0px"
	 viewBox="0 0 512 512" style="enable-background:new 0 0 512 512;" xml:space="preserve">
<g>
	<path d="M271,60V0h-30v60H46v15c0,91.182,11.696,134.997,23.008,177.369C80.317,294.735,91,334.753,91,422v90h330v-90
		c0-87.247,10.683-127.265,21.992-169.631C454.304,209.997,466,166.182,466,75V60H271z M271,90h104.878
		c-0.179,10.811-0.554,20.762-1.094,30H271V90z M271,391.998V150h101.22c-3.759,32.604-9.862,55.478-16.182,79.156
		C344.302,273.119,331,322.947,331,422H181c0-99.053-13.302-148.881-25.039-192.848c-6.32-23.676-12.423-46.548-16.181-79.152H241
		v241.998H271z M241,90v30H137.216c-0.54-9.238-0.914-19.189-1.094-30H241z M414.008,244.631C402.696,287.003,391,330.818,391,422
		v60H121v-60c0-91.182-11.696-134.997-23.008-177.369C87.352,204.77,77.266,166.994,76.11,90h30.005
		c1.151,73.054,10.742,108.986,20.862,146.894C138.237,279.074,151,326.882,151,422v30h210v-30
		c0-95.118,12.763-142.926,24.024-185.111c10.118-37.903,19.708-73.835,20.86-146.889h30.005
		C434.734,166.994,424.648,204.77,414.008,244.631z"/>
</g>
<g>
</g>
<g>
</g>
<g>
</g>
<g>
</g>
<g>
</g>
<g>
</g>
<g>
</g>
<g>
</g>
<g>
</g>
<g>
</g>
<g>
</g>
<g>
</g>
<g>
</g>
<g>
</g>
<g>
</g>
</svg>
