<?xml version="1.0" encoding="iso-8859-1"?>
<!-- Generator: Adobe Illustrator 24.2.1, SVG Export Plug-In . SVG Version: 6.00 Build 0)  -->
<svg version="1.1" id="Capa_1" xmlns="http://www.w3.org/2000/svg" xmlns:xlink="http://www.w3.org/1999/xlink" x="0px" y="0px"
	 viewBox="0 0 512 512" style="enable-background:new 0 0 512 512;" xml:space="preserve">
<g>
	<path d="M271,241v106c0,8.271-6.729,15-15,15s-15-6.729-15-15V241H0v15c0,45.844,12.266,90.826,35.471,130.085
		c21.032,35.583,50.484,65.669,85.529,87.463V512h270v-38.452c35.045-21.794,64.497-51.881,85.529-87.463
		C499.734,346.826,512,301.844,512,256v-15H271z M301,271h120.315c-0.927,10.297-2.789,20.327-5.516,30H301V271z M256,392
		c24.813,0,45-20.187,45-45v-16h103.065C376.626,384.951,320.56,422,256,422s-120.626-37.049-148.065-91H211v16
		C211,371.813,231.187,392,256,392z M211,271v30H96.202c-2.728-9.673-4.59-19.703-5.516-30H211z M368.52,452.044l-7.52,4.326V482
		H151v-25.629l-7.52-4.326C77.845,414.286,35.522,345.877,30.502,271h30.067C68.256,372.094,152.972,452,256,452
		s187.744-79.906,195.431-181h30.067C476.478,345.877,434.155,414.286,368.52,452.044z"/>
	<path d="M329.718,211L364.691,0H147.309l34.973,211H329.718z M304.282,181h-96.563l-15.083-91h126.729L304.282,181z M329.309,30
		l-4.972,30H187.663l-4.972-30H329.309z"/>
</g>
<g>
</g>
<g>
</g>
<g>
</g>
<g>
</g>
<g>
</g>
<g>
</g>
<g>
</g>
<g>
</g>
<g>
</g>
<g>
</g>
<g>
</g>
<g>
</g>
<g>
</g>
<g>
</g>
<g>
</g>
</svg>
