<?xml version="1.0" encoding="iso-8859-1"?>
<!-- Generator: Adobe Illustrator 24.2.1, SVG Export Plug-In . SVG Version: 6.00 Build 0)  -->
<svg version="1.1" id="Capa_1" xmlns="http://www.w3.org/2000/svg" xmlns:xlink="http://www.w3.org/1999/xlink" x="0px" y="0px"
	 viewBox="0 0 512 512" style="enable-background:new 0 0 512 512;" xml:space="preserve">
<g>
	<path d="M0,422v15c0,41.355,33.645,75,75,75h362c41.355,0,75-33.645,75-75v-15H0z M437,482H75c-19.556,0-36.239-12.539-42.43-30
		H479.43C473.239,469.461,456.556,482,437,482z"/>
	<path d="M106,332h28.875l11.157,60h219.936l50.579-272H106C47.551,120,0,167.551,0,226S47.551,332,106,332z M106,150h274.454
		l-39.421,212H170.968l-11.157-60H106c-41.907,0-76-34.093-76-76S64.093,150,106,150z"/>
	<path d="M106,272h48.232l-17.107-92H106c-25.364,0-46,20.636-46,46S80.636,272,106,272z M106,210h6.189l5.95,32H106
		c-8.822,0-16-7.178-16-16S97.178,210,106,210z"/>
	<path d="M253.481,53.32C261.286,41.613,271,27.042,271,0h-30c0,17.958-5.508,26.22-12.481,36.68C220.714,48.387,211,62.958,211,90
		h30C241,72.042,246.508,63.78,253.481,53.32z"/>
	<path d="M301,90c0-17.958,5.508-26.22,12.481-36.68C321.286,41.613,331,27.042,331,0h-30c0,17.958-5.508,26.22-12.481,36.68
		C280.714,48.387,271,62.958,271,90H301z"/>
</g>
<g>
</g>
<g>
</g>
<g>
</g>
<g>
</g>
<g>
</g>
<g>
</g>
<g>
</g>
<g>
</g>
<g>
</g>
<g>
</g>
<g>
</g>
<g>
</g>
<g>
</g>
<g>
</g>
<g>
</g>
</svg>
