<?xml version="1.0" encoding="iso-8859-1"?>
<!-- Generator: Adobe Illustrator 24.2.1, SVG Export Plug-In . SVG Version: 6.00 Build 0)  -->
<svg version="1.1" id="Capa_1" xmlns="http://www.w3.org/2000/svg" xmlns:xlink="http://www.w3.org/1999/xlink" x="0px" y="0px"
	 viewBox="0 0 512 512" style="enable-background:new 0 0 512 512;" xml:space="preserve">
<g>
	<path d="M450.72,211.28C444.253,176.458,413.668,150,377,150H271v-30h137l-40-60l40-60H241v150H135
		c-36.668,0-67.253,26.458-73.72,61.28C26.458,217.747,0,248.332,0,285c0,37.081,27.056,67.944,62.46,73.931L92.671,512h326.658
		l30.21-153.069C484.944,352.944,512,322.081,512,285C512,248.332,485.543,217.747,450.72,211.28z M271,30h80.945l-20,30l20,30H271
		V30z M75,330c-24.813,0-45-20.187-45-45s20.187-45,45-45h136v90H75z M117.329,482L93.25,360h58.657l12.039,122H117.329z M241,482
		h-46.907l-12.039-122H211v15c0,19.555,12.541,36.228,30,42.42V482z M256,390c-8.271,0-15-6.729-15-15V210H92.58
		c6.192-17.459,22.865-30,42.42-30h242c19.555,0,36.228,12.541,42.42,30H271v165C271,383.271,264.271,390,256,390z M317.907,482H271
		v-64.58c17.459-6.192,30-22.865,30-42.42v-15h28.947L317.907,482z M394.671,482h-46.618l12.039-122h58.658L394.671,482z M437,330
		H301v-90h136c24.813,0,45,20.187,45,45S461.813,330,437,330z"/>
</g>
<g>
</g>
<g>
</g>
<g>
</g>
<g>
</g>
<g>
</g>
<g>
</g>
<g>
</g>
<g>
</g>
<g>
</g>
<g>
</g>
<g>
</g>
<g>
</g>
<g>
</g>
<g>
</g>
<g>
</g>
</svg>
