<?xml version="1.0" encoding="iso-8859-1"?>
<!-- Generator: Adobe Illustrator 24.2.1, SVG Export Plug-In . SVG Version: 6.00 Build 0)  -->
<svg version="1.1" id="Capa_1" xmlns="http://www.w3.org/2000/svg" xmlns:xlink="http://www.w3.org/1999/xlink" x="0px" y="0px"
	 viewBox="0 0 512 512" style="enable-background:new 0 0 512 512;" xml:space="preserve">
<g>
	<path d="M0,374.75h211v47h-45c-41.355,0-75,33.645-75,75v15h330v-15c0-41.355-33.645-75-75-75h-45v-47h211v-30H0V374.75z
		 M241,374.75h30v77h75c19.557,0,36.239,12.539,42.43,30H123.57c6.19-17.461,22.873-30,42.43-30h75V374.75z"/>
	<path d="M437,89.75H312.216c7.672-11.053,12.184-24.456,12.184-38.9c0-27.901-22.699-50.6-50.601-50.6
		c-6.096,0-12.131,1.106-17.8,3.237c-5.669-2.13-11.704-3.237-17.8-3.237c-27.901,0-50.601,22.699-50.601,50.6
		c0,14.444,4.512,27.847,12.184,38.9H75c-41.355,0-75,33.645-75,75v150h512v-150C512,123.395,478.355,89.75,437,89.75z M238.2,30.25
		c3.612,0,7.17,0.954,10.287,2.757L256,37.355l7.513-4.348c3.117-1.804,6.675-2.757,10.287-2.757c11.359,0,20.601,9.241,20.601,20.6
		c0,21.174-17.227,38.4-38.4,38.4s-38.4-17.226-38.4-38.4C217.6,39.491,226.841,30.25,238.2,30.25z M75,119.75h362
		c19.555,0,36.228,12.541,42.42,30H391v45c0,8.271-6.729,15-15,15s-15-6.729-15-15v-45h-90v60c0,8.271-6.729,15-15,15
		s-15-6.729-15-15v-60h-90v45c0,8.271-6.729,15-15,15s-15-6.729-15-15v-45H32.58C38.772,132.291,55.445,119.75,75,119.75z
		 M482,284.75H30v-105h61v15c0,24.813,20.187,45,45,45s45-20.187,45-45v-15h30v30c0,24.813,20.187,45,45,45s45-20.187,45-45v-30h30
		v15c0,24.813,20.187,45,45,45s45-20.187,45-45v-15h61V284.75z"/>
</g>
<g>
</g>
<g>
</g>
<g>
</g>
<g>
</g>
<g>
</g>
<g>
</g>
<g>
</g>
<g>
</g>
<g>
</g>
<g>
</g>
<g>
</g>
<g>
</g>
<g>
</g>
<g>
</g>
<g>
</g>
</svg>
