<?xml version="1.0" encoding="iso-8859-1"?>
<!-- Generator: Adobe Illustrator 24.2.1, SVG Export Plug-In . SVG Version: 6.00 Build 0)  -->
<svg version="1.1" id="Capa_1" xmlns="http://www.w3.org/2000/svg" xmlns:xlink="http://www.w3.org/1999/xlink" x="0px" y="0px"
	 viewBox="0 0 512 512" style="enable-background:new 0 0 512 512;" xml:space="preserve">
<g>
	<path d="M0,437c0,41.355,33.645,75,75,75h362c41.355,0,75-33.645,75-75v-15H0V437z M479.43,452c-6.19,17.461-22.873,30-42.43,30H75
		c-19.557,0-36.239-12.539-42.43-30H479.43z"/>
	<path d="M437,105h-62.038c-2.412-11.779-7.622-22.911-15.268-32.304c-8.735-10.73-20.322-18.848-33.255-23.422
		c-4.67-12.741-12.796-24.141-23.449-32.72C289.735,5.879,273.047,0,256,0s-33.735,5.879-46.99,16.553
		c-10.653,8.579-18.779,19.979-23.449,32.72c-12.933,4.575-24.52,12.692-33.255,23.422c-7.646,9.393-12.856,20.526-15.268,32.304
		H45.624c-24.486,0-44.945,19.625-45.606,43.746c-0.337,12.262,4.184,23.851,12.728,32.633c4.922,5.058,10.808,8.808,17.255,11.078
		V392h482V180C512,138.645,478.355,105,437,105z M200.785,76.064l9.255-2.035l2.138-9.231C216.923,44.31,234.943,30,256,30
		s39.077,14.31,43.822,34.798l2.138,9.231l9.255,2.035c15.361,3.377,27.557,14.648,32.673,28.936H271v182c0,8.271-6.729,15-15,15
		s-15-6.729-15-15V105h-72.888C173.228,90.712,185.424,79.441,200.785,76.064z M34.247,160.458
		c-2.847-2.927-4.354-6.794-4.241-10.89C30.227,141.535,37.232,135,45.624,135H211v30H45C40.916,165,37.097,163.387,34.247,160.458z
		 M211,195v68.5H60V195H211z M422,362H60v-68.5h151.476c3.16,21.743,21.919,38.5,44.524,38.5s41.364-16.757,44.524-38.5H422V362z
		 M422,263.5H301V195h121V263.5z M482,362h-30V165H301v-30h136c24.813,0,45,20.187,45,45V362z"/>
</g>
<g>
</g>
<g>
</g>
<g>
</g>
<g>
</g>
<g>
</g>
<g>
</g>
<g>
</g>
<g>
</g>
<g>
</g>
<g>
</g>
<g>
</g>
<g>
</g>
<g>
</g>
<g>
</g>
<g>
</g>
</svg>
