<?xml version="1.0" encoding="iso-8859-1"?>
<!-- Generator: Adobe Illustrator 24.2.1, SVG Export Plug-In . SVG Version: 6.00 Build 0)  -->
<svg version="1.1" id="Capa_1" xmlns="http://www.w3.org/2000/svg" xmlns:xlink="http://www.w3.org/1999/xlink" x="0px" y="0px"
	 viewBox="0 0 512 512" style="enable-background:new 0 0 512 512;" xml:space="preserve">
<g>
	<path d="M452,241v-7c0-33.084-26.916-60-60-60c-9.594,0-18.834,2.226-27.2,6.501c-8.365-4.276-17.605-6.501-27.2-6.501
		s-18.835,2.226-27.2,6.501c-8.365-4.276-17.605-6.501-27.2-6.501c-9.595,0-18.835,2.226-27.2,6.501
		c-8.365-4.276-17.605-6.501-27.2-6.501c-9.595,0-18.835,2.226-27.2,6.501c-8.365-4.276-17.605-6.501-27.2-6.501
		c-9.594,0-18.834,2.226-27.2,6.501C138.835,176.226,129.595,174,120,174c-33.084,0-60,26.916-60,60v7H0v15
		c0,45.844,12.266,90.826,35.471,130.085c21.032,35.583,50.484,65.669,85.529,87.463V512h270v-38.452
		c35.045-21.794,64.497-51.881,85.529-87.463C499.734,346.826,512,301.844,512,256v-15H452z M90,234c0-16.542,13.458-30,30-30
		c6.607,0,12.874,2.109,18.124,6.099l9.077,6.898l9.077-6.898c5.25-3.99,11.517-6.099,18.123-6.099
		c6.607,0,12.874,2.109,18.124,6.099l9.077,6.898l9.077-6.898c5.25-3.99,11.517-6.099,18.124-6.099
		c6.606,0,12.874,2.109,18.123,6.099l9.077,6.898l9.077-6.898c5.25-3.99,11.517-6.099,18.124-6.099
		c6.606,0,12.874,2.109,18.123,6.099l9.077,6.898l9.077-6.898c5.25-3.99,11.517-6.099,18.124-6.099s12.874,2.109,18.124,6.099
		l9.077,6.898l9.077-6.898c5.25-3.99,11.517-6.099,18.123-6.099c16.542,0,30,13.458,30,30v7H90V234z M368.52,452.044l-7.52,4.326
		V482H151v-25.629l-7.52-4.326C77.845,414.286,35.522,345.877,30.502,271h450.996C476.478,345.877,434.155,414.286,368.52,452.044z"
		/>
	<path d="M200.579,144c12.02,0,23.32-4.681,31.82-13.181c17.545-17.545,17.545-46.094-0.001-63.641
		c-5.924-5.923-9.187-13.8-9.187-22.179c0-24.813-20.187-45-45-45s-45,20.187-45,45c0,32.419,12.625,62.897,35.549,85.821
		C177.259,139.32,188.559,144,200.579,144z M178.211,30c8.271,0,15,6.729,15,15c0,16.393,6.383,31.804,17.974,43.393
		c5.849,5.849,5.849,15.365,0,21.214c-2.833,2.833-6.601,4.394-10.607,4.394c-4.007,0-7.773-1.56-10.606-4.393
		C172.715,92.35,163.211,69.406,163.211,45C163.211,36.729,169.94,30,178.211,30z"/>
	<path d="M67.368,144c12.02,0,23.32-4.681,31.82-13.181c17.545-17.545,17.545-46.094-0.001-63.641C93.263,61.255,90,53.379,90,45
		C90,20.187,69.813,0,45,0S0,20.187,0,45c0,32.419,12.625,62.897,35.549,85.821C44.048,139.32,55.348,144,67.368,144z M45,30
		c8.271,0,15,6.729,15,15c0,16.393,6.383,31.804,17.974,43.393c5.849,5.849,5.849,15.365,0,21.214
		C75.141,112.439,71.374,114,67.368,114c-4.007,0-7.773-1.56-10.606-4.393C39.504,92.35,30,69.406,30,45C30,36.729,36.729,30,45,30z
		"/>
	<path d="M467,144c12.02,0,23.32-4.681,31.82-13.181c17.545-17.545,17.545-46.094-0.001-63.641
		c-5.924-5.923-9.187-13.8-9.187-22.179c0-24.813-20.187-45-45-45s-45,20.187-45,45c0,32.419,12.625,62.897,35.549,85.821
		C443.68,139.32,454.98,144,467,144z M444.632,30c8.271,0,15,6.729,15,15c0,16.393,6.383,31.804,17.974,43.393
		c5.849,5.849,5.849,15.365,0,21.214C474.773,112.439,471.006,114,467,114c-4.007,0-7.773-1.56-10.606-4.393
		C439.136,92.35,429.632,69.406,429.632,45C429.632,36.729,436.361,30,444.632,30z"/>
	<path d="M333.789,144c12.02,0,23.32-4.681,31.82-13.181c17.545-17.545,17.545-46.094-0.001-63.641
		c-5.924-5.923-9.187-13.8-9.187-22.179c0-24.813-20.187-45-45-45s-45,20.187-45,45c0,32.419,12.625,62.897,35.549,85.821
		C310.469,139.32,321.77,144,333.789,144z M311.421,30c8.271,0,15,6.729,15,15c0,16.393,6.383,31.804,17.974,43.393
		c5.849,5.849,5.849,15.365,0,21.214c-2.833,2.833-6.601,4.394-10.607,4.394c-4.007,0-7.773-1.56-10.606-4.393
		C305.925,92.35,296.421,69.406,296.421,45C296.421,36.729,303.15,30,311.421,30z"/>
</g>
<g>
</g>
<g>
</g>
<g>
</g>
<g>
</g>
<g>
</g>
<g>
</g>
<g>
</g>
<g>
</g>
<g>
</g>
<g>
</g>
<g>
</g>
<g>
</g>
<g>
</g>
<g>
</g>
<g>
</g>
</svg>
