<?xml version="1.0" encoding="iso-8859-1"?>
<!-- Generator: Adobe Illustrator 24.2.1, SVG Export Plug-In . SVG Version: 6.00 Build 0)  -->
<svg version="1.1" id="Capa_1" xmlns="http://www.w3.org/2000/svg" xmlns:xlink="http://www.w3.org/1999/xlink" x="0px" y="0px"
	 viewBox="0 0 512 512" style="enable-background:new 0 0 512 512;" xml:space="preserve">
<g>
	<path d="M482,234c0-33.084-26.916-60-60-60c-9.787,0-19.184,2.308-27.667,6.744c-8.482-4.436-17.879-6.744-27.666-6.744
		c-9.787,0-19.185,2.308-27.667,6.743c-8.482-4.435-17.88-6.743-27.667-6.743s-19.184,2.308-27.667,6.744
		C275.184,176.308,265.787,174,256,174s-19.184,2.308-27.667,6.744c-8.483-4.436-17.88-6.744-27.667-6.744
		c-9.786,0-19.184,2.308-27.667,6.744c-8.482-4.436-17.88-6.744-27.667-6.744c-9.787,0-19.184,2.308-27.667,6.744
		C109.184,176.308,99.787,174,90,174c-33.084,0-60,26.916-60,60v7H0v15c0,45.844,12.266,90.826,35.471,130.085
		c21.032,35.583,50.484,65.669,85.529,87.463V512h270v-38.452c35.045-21.794,64.497-51.881,85.529-87.463
		C499.734,346.826,512,301.844,512,256v-15h-30V234z M60,234c0-16.542,13.458-30,30-30c6.745,0,13.119,2.194,18.434,6.345
		l9.232,7.211l9.233-7.211c5.315-4.151,11.689-6.345,18.434-6.345c6.744,0,13.119,2.194,18.434,6.345l9.232,7.21l9.232-7.21
		c5.315-4.151,11.69-6.345,18.434-6.345c6.745,0,13.119,2.194,18.434,6.345l9.233,7.211l9.232-7.211
		C242.881,206.194,249.255,204,256,204s13.119,2.194,18.434,6.345l9.232,7.211l9.233-7.211c5.315-4.151,11.689-6.345,18.434-6.345
		s13.119,2.194,18.434,6.345l9.233,7.211l9.233-7.211c5.315-4.151,11.689-6.345,18.434-6.345c6.744,0,13.118,2.194,18.433,6.345
		l9.232,7.211l9.233-7.211C408.881,206.194,415.255,204,422,204c16.542,0,30,13.458,30,30v7H60V234z M368.52,452.044l-7.52,4.326
		V482H151v-25.629l-7.52-4.326C77.845,414.286,35.522,345.877,30.502,271h450.996C476.478,345.877,434.155,414.286,368.52,452.044z"
		/>
	<path d="M203.667,95.712C205.819,122.7,228.468,144,256,144s50.181-21.3,52.333-48.288C322.361,86.038,331,69.994,331,52.5
		C331,23.551,307.449,0,278.5,0c-7.898,0-15.526,1.725-22.5,5.045C249.026,1.725,241.398,0,233.5,0C204.551,0,181,23.551,181,52.5
		C181,69.994,189.639,86.038,203.667,95.712z M233.5,30c4.913,0,9.578,1.554,13.491,4.493L256,41.26l9.009-6.768
		C268.922,31.554,273.587,30,278.5,30c12.407,0,22.5,10.093,22.5,22.5c0,9.027-5.367,17.154-13.673,20.703l-10.334,4.417
		l1.335,11.159c0.116,0.968,0.172,1.858,0.172,2.722c0,12.407-10.093,22.5-22.5,22.5s-22.5-10.093-22.5-22.5
		c0-0.863,0.056-1.753,0.172-2.722l1.335-11.159l-10.334-4.417C216.367,69.654,211,61.527,211,52.5C211,40.093,221.093,30,233.5,30z
		"/>
	<path d="M414.5,144c7.898,0,15.526-1.725,22.5-5.045c6.974,3.32,14.602,5.045,22.5,5.045c28.949,0,52.5-23.551,52.5-52.5
		c0-17.494-8.639-33.538-22.667-43.212C487.181,21.3,464.532,0,437,0s-50.181,21.3-52.333,48.288
		C370.639,57.962,362,74.006,362,91.5C362,120.449,385.551,144,414.5,144z M405.673,70.797l10.334-4.417l-1.335-11.159
		c-0.116-0.968-0.172-1.858-0.172-2.722c0-12.407,10.093-22.5,22.5-22.5s22.5,10.093,22.5,22.5c0,0.863-0.056,1.753-0.172,2.722
		l-1.335,11.159l10.334,4.417C476.633,74.346,482,82.473,482,91.5c0,12.407-10.093,22.5-22.5,22.5
		c-4.913,0-9.578-1.554-13.491-4.493L437,102.74l-9.009,6.768c-3.913,2.939-8.578,4.493-13.491,4.493
		c-12.407,0-22.5-10.093-22.5-22.5C392,82.473,397.367,74.346,405.673,70.797z"/>
	<path d="M52.5,144c7.898,0,15.526-1.725,22.5-5.045c6.974,3.32,14.602,5.045,22.5,5.045c28.949,0,52.5-23.551,52.5-52.5
		c0-17.494-8.639-33.538-22.667-43.212C125.181,21.3,102.532,0,75,0S24.819,21.3,22.667,48.288C8.639,57.962,0,74.006,0,91.5
		C0,120.449,23.551,144,52.5,144z M43.673,70.797l10.334-4.417l-1.335-11.159C52.556,54.253,52.5,53.363,52.5,52.5
		C52.5,40.093,62.593,30,75,30s22.5,10.093,22.5,22.5c0,0.863-0.056,1.753-0.172,2.722L95.993,66.38l10.334,4.417
		C114.633,74.346,120,82.473,120,91.5c0,12.407-10.093,22.5-22.5,22.5c-4.913,0-9.578-1.554-13.491-4.493L75,102.74l-9.009,6.768
		C62.078,112.446,57.413,114,52.5,114C40.093,114,30,103.907,30,91.5C30,82.473,35.367,74.346,43.673,70.797z"/>
</g>
<g>
</g>
<g>
</g>
<g>
</g>
<g>
</g>
<g>
</g>
<g>
</g>
<g>
</g>
<g>
</g>
<g>
</g>
<g>
</g>
<g>
</g>
<g>
</g>
<g>
</g>
<g>
</g>
<g>
</g>
</svg>
