<?xml version="1.0" encoding="iso-8859-1"?>
<!-- Generator: Adobe Illustrator 24.2.1, SVG Export Plug-In . SVG Version: 6.00 Build 0)  -->
<svg version="1.1" id="Capa_1" xmlns="http://www.w3.org/2000/svg" xmlns:xlink="http://www.w3.org/1999/xlink" x="0px" y="0px"
	 viewBox="0 0 512 512" style="enable-background:new 0 0 512 512;" xml:space="preserve">
<g>
	<path d="M0,437c0,41.355,33.645,75,75,75h362c41.355,0,75-33.645,75-75v-15H0V437z M479.43,452c-6.19,17.461-22.873,30-42.43,30H75
		c-19.557,0-36.239-12.539-42.43-30H479.43z"/>
	<path d="M241,265c0-33.084-26.916-60-60-60c-10.839,0-21.332,2.903-30.5,8.326C141.332,207.903,130.839,205,120,205
		c-10.621,0-20.944,2.803-30,8.038C80.944,207.803,70.621,205,60,205c-33.084,0-60,26.916-60,60v127h241V265z M30,362v-60h46
		c36.22,0,66.522,25.808,73.491,60H30z M211,362h-31.076c-3.354-23.348-14.417-44.236-30.52-60H211V362z M211,272H30v-7
		c0-16.542,13.458-30,30-30c7.389,0,14.489,2.714,19.995,7.643L90,251.6l10.005-8.957C105.511,237.714,112.611,235,120,235
		c7.554,0,14.773,2.822,20.329,7.947l10.171,9.382l10.171-9.382C166.227,237.822,173.446,235,181,235c16.542,0,30,13.458,30,30V272z
		"/>
	<path d="M120,175c33.359,0,60.5-27.14,60.5-60.5c0-28.184-19.373-51.926-45.5-58.615V0h-30v55.885
		c-26.127,6.69-45.5,30.432-45.5,58.615C59.5,147.86,86.641,175,120,175z M120,84c16.817,0,30.5,13.682,30.5,30.5
		S136.817,145,120,145s-30.5-13.682-30.5-30.5S103.183,84,120,84z"/>
	<path d="M452,205c-10.621,0-20.944,2.803-30,8.038c-9.056-5.235-19.379-8.038-30-8.038c-10.839,0-21.332,2.903-30.5,8.326
		C352.332,207.903,341.839,205,331,205c-33.084,0-60,26.916-60,60v127h241V265C512,231.916,485.084,205,452,205z M301,362v-60
		h61.596c-16.103,15.764-27.166,36.652-30.52,60H301z M482,362H362.509c6.968-34.192,37.271-60,73.491-60h46V362z M482,272H301v-7
		c0-16.542,13.458-30,30-30c7.554,0,14.773,2.822,20.329,7.947l10.171,9.382l10.171-9.382C377.227,237.822,384.446,235,392,235
		c7.389,0,14.489,2.714,19.995,7.643L422,251.6l10.005-8.957C437.511,237.714,444.611,235,452,235c16.542,0,30,13.458,30,30V272z"/>
	<path d="M392,175c33.359,0,60.5-27.14,60.5-60.5c0-28.184-19.373-51.926-45.5-58.615V0h-30v55.885
		c-26.127,6.69-45.5,30.432-45.5,58.615C331.5,147.86,358.641,175,392,175z M392,84c16.817,0,30.5,13.682,30.5,30.5
		S408.817,145,392,145s-30.5-13.682-30.5-30.5S375.183,84,392,84z"/>
</g>
<g>
</g>
<g>
</g>
<g>
</g>
<g>
</g>
<g>
</g>
<g>
</g>
<g>
</g>
<g>
</g>
<g>
</g>
<g>
</g>
<g>
</g>
<g>
</g>
<g>
</g>
<g>
</g>
<g>
</g>
</svg>
