<?xml version="1.0" encoding="iso-8859-1"?>
<!-- Generator: Adobe Illustrator 24.2.1, SVG Export Plug-In . SVG Version: 6.00 Build 0)  -->
<svg version="1.1" id="Capa_1" xmlns="http://www.w3.org/2000/svg" xmlns:xlink="http://www.w3.org/1999/xlink" x="0px" y="0px"
	 viewBox="0 0 512 512" style="enable-background:new 0 0 512 512;" xml:space="preserve">
<g>
	<path d="M0,286c0,19.457,8.251,36.74,23.857,49.979L30,341.193V377c0,57.897,47.103,105,105,105h60.888l16.472,13.982
		C224.537,506.312,240.035,512,256,512s31.463-5.688,43.644-16.021L316.112,482H377c57.897,0,105-47.103,105-105v-35.808
		l6.139-5.211C503.749,322.74,512,305.457,512,286v-15H0V286z M135,452c-41.355,0-75-33.645-75-75v-10.343L160.544,452H135z
		 M452,377c0,41.355-33.645,75-75,75h-25.544L452,366.656V377z M391.727,301L256,415.055L120.273,301H391.727z M73.64,301
		L256,454.241L438.36,301h40.211c-2.201,4.384-5.472,8.4-9.842,12.107L280.233,473.104C273.471,478.841,264.864,482,256,482
		s-17.471-3.159-24.229-8.893L43.268,313.104c-4.368-3.706-7.638-7.721-9.839-12.104H73.64z"/>
	<path d="M488.143,176.021L482,170.807V135c0-57.897-47.103-105-105-105h-60.888L299.64,16.018C287.463,5.688,271.965,0,256,0
		s-31.463,5.688-43.644,16.021L195.888,30H135C77.103,30,30,77.103,30,135v35.808l-6.139,5.211C8.251,189.26,0,206.543,0,226v15h512
		v-15C512,206.543,503.749,189.26,488.143,176.021z M377,60c41.355,0,75,33.645,75,75v10.343L351.456,60H377z M60,135
		c0-41.355,33.645-75,75-75h25.544L60,145.344V135z M120.273,211L256,96.945L391.727,211H120.273z M438.36,211L256,57.759L73.64,211
		H33.43c2.201-4.384,5.472-8.4,9.842-12.107L231.767,38.896C238.529,33.159,247.136,30,256,30s17.471,3.159,24.229,8.893
		l188.503,160.003c4.368,3.706,7.638,7.721,9.839,12.104H438.36z"/>
</g>
<g>
</g>
<g>
</g>
<g>
</g>
<g>
</g>
<g>
</g>
<g>
</g>
<g>
</g>
<g>
</g>
<g>
</g>
<g>
</g>
<g>
</g>
<g>
</g>
<g>
</g>
<g>
</g>
<g>
</g>
</svg>
