<?xml version="1.0" encoding="iso-8859-1"?>
<!-- Generator: Adobe Illustrator 24.2.1, SVG Export Plug-In . SVG Version: 6.00 Build 0)  -->
<svg version="1.1" id="Capa_1" xmlns="http://www.w3.org/2000/svg" xmlns:xlink="http://www.w3.org/1999/xlink" x="0px" y="0px"
	 viewBox="0 0 512 512" style="enable-background:new 0 0 512 512;" xml:space="preserve">
<g>
	<rect x="241" y="92" width="30" height="30"/>
	<rect x="181" y="60" width="30" height="30"/>
	<rect x="301" y="60" width="30" height="30"/>
	<path d="M512,180v-15C512,74.019,437.981,0,347,0H165C74.019,0,0,74.019,0,165v15h30v32.58C12.541,218.772,0,235.445,0,255
		c0,13.893,6.332,26.334,16.258,34.595C6.177,300.48,0,315.029,0,331c0,22.323,12.06,41.873,30,52.506V422H0v15
		c0,41.355,33.645,75,75,75h362c41.355,0,75-33.645,75-75v-15h-30v-38.494c17.94-10.633,30-30.183,30-52.506
		c0-15.971-6.177-30.52-16.258-41.405C505.668,281.334,512,268.893,512,255c0-19.555-12.541-36.228-30-42.42V180H512z M165,30h182
		c69.369,0,126.686,52.595,134.172,120H30.828C38.314,82.595,95.631,30,165,30z M452,180v30H271v-30H452z M241,180v30H60v-30H241z
		 M213.58,422H60v-30.025c0.334,0.005,0.665,0.025,1,0.025h150v15C211,412.258,211.915,417.305,213.58,422z M211,362H61
		c-17.093,0-31-13.907-31-31s13.907-31,31-31h150V362z M437,482H75c-19.556,0-36.239-12.539-42.43-30H479.43
		C473.239,469.461,456.556,482,437,482z M298.42,422c1.665-4.695,2.58-9.742,2.58-15v-15h150c0.335,0,0.666-0.02,1-0.025V422H298.42
		z M451,362H301v-62h150c17.093,0,31,13.907,31,31S468.093,362,451,362z M467,270H271v137c0,8.271-6.729,15-15,15s-15-6.729-15-15
		V270H45c-8.271,0-15-6.729-15-15s6.729-15,15-15h422c8.271,0,15,6.729,15,15S475.271,270,467,270z"/>
</g>
<g>
</g>
<g>
</g>
<g>
</g>
<g>
</g>
<g>
</g>
<g>
</g>
<g>
</g>
<g>
</g>
<g>
</g>
<g>
</g>
<g>
</g>
<g>
</g>
<g>
</g>
<g>
</g>
<g>
</g>
</svg>
