<?xml version="1.0" encoding="iso-8859-1"?>
<!-- Generator: Adobe Illustrator 24.2.1, SVG Export Plug-In . SVG Version: 6.00 Build 0)  -->
<svg version="1.1" id="Capa_1" xmlns="http://www.w3.org/2000/svg" xmlns:xlink="http://www.w3.org/1999/xlink" x="0px" y="0px"
	 viewBox="0 0 512 512" style="enable-background:new 0 0 512 512;" xml:space="preserve">
<g>
	<path d="M437.02,74.98C388.667,26.629,324.38,0,256,0S123.333,26.629,74.98,74.98C26.629,123.333,0,187.62,0,256
		s26.629,132.667,74.98,181.02C123.333,485.371,187.62,512,256,512s132.667-26.629,181.02-74.98C485.371,388.667,512,324.38,512,256
		S485.371,123.333,437.02,74.98z M381.703,68.276C438.245,106.261,476.754,169.09,481.49,241h-30.059
		c-4.625-60.833-37.149-113.984-84.766-146.679L381.703,68.276z M90.685,241c4.478-49.755,30.993-93.251,69.695-120.619L230.019,241
		H90.685z M230.019,271l-69.764,120.835C121.187,364.371,95.074,320.65,90.664,271H230.019z M186.34,105.345
		C207.535,95.505,231.135,90,256,90s48.465,5.505,69.66,15.345L256,226L186.34,105.345z M351.62,120.381
		c38.702,27.368,65.217,70.864,69.695,120.619H281.981L351.62,120.381z M421.336,271c-4.409,49.65-30.523,93.371-69.591,120.835
		L281.981,271H421.336z M256,30c35.783,0,69.642,8.373,99.743,23.241l-15.029,26.03C315.06,66.924,286.324,60,256,60
		s-59.06,6.924-84.714,19.271l-15.029-26.03C186.358,38.373,220.217,30,256,30z M130.297,68.276l15.038,26.046
		C97.718,127.016,65.194,180.167,60.569,241H30.51C35.246,169.09,73.755,106.261,130.297,68.276z M130.297,443.724
		C73.755,405.739,35.246,342.91,30.51,271h30.077c3.171,41.28,19.352,80.686,46.381,112.296
		c11.288,13.201,24.206,24.751,38.339,34.43L130.297,443.724z M156.257,458.759l15.019-26.014
		c12.657,6.078,25.972,10.803,39.724,14.042V467c0,3.703,0.459,7.3,1.306,10.745C192.589,473.867,173.786,467.417,156.257,458.759z
		 M271,421.806V467c0,8.271-6.729,15-15,15s-15-6.729-15-15v-45.194l-12.532-2.09c-14.905-2.487-29.049-6.891-42.203-12.931L256,286
		l69.735,120.784c-13.154,6.04-27.298,10.445-42.203,12.931L271,421.806z M299.694,477.745C300.541,474.3,301,470.703,301,467
		v-20.212c13.751-3.239,27.067-7.964,39.724-14.042l15.019,26.014C338.214,467.417,319.411,473.867,299.694,477.745z
		 M381.703,443.724l-15.01-25.998c14.133-9.679,27.051-21.229,38.339-34.43c27.029-31.611,43.209-71.017,46.381-112.296h30.077
		C476.754,342.91,438.245,405.739,381.703,443.724z"/>
	<rect x="241" y="120" width="30" height="30"/>
	<rect x="241" y="362" width="30" height="30"/>
	<rect x="136.211" y="180.5" transform="matrix(0.5 -0.866 0.866 0.5 -93.7025 228.7023)" width="30" height="30"/>
	<rect x="345.789" y="301.5" transform="matrix(0.5 -0.866 0.866 0.5 -93.7025 470.7026)" width="30" height="30"/>
	<rect x="136.211" y="301.5" transform="matrix(0.866 -0.5 0.5 0.866 -137.9915 118.0084)" width="30" height="30"/>
	<rect x="345.789" y="180.5" transform="matrix(0.866 -0.5 0.5 0.866 -49.4134 206.5865)" width="30" height="30"/>
</g>
<g>
</g>
<g>
</g>
<g>
</g>
<g>
</g>
<g>
</g>
<g>
</g>
<g>
</g>
<g>
</g>
<g>
</g>
<g>
</g>
<g>
</g>
<g>
</g>
<g>
</g>
<g>
</g>
<g>
</g>
</svg>
