<?xml version="1.0" encoding="iso-8859-1"?>
<!-- Generator: Adobe Illustrator 24.2.1, SVG Export Plug-In . SVG Version: 6.00 Build 0)  -->
<svg version="1.1" id="Capa_1" xmlns="http://www.w3.org/2000/svg" xmlns:xlink="http://www.w3.org/1999/xlink" x="0px" y="0px"
	 viewBox="0 0 512 512" style="enable-background:new 0 0 512 512;" xml:space="preserve">
<g>
	<path d="M452,30V0H60v30h32.069l8.94,60H60v30h32.069l8.94,60H60v30h32.069l45,302h237.861l45-302H452v-30h-41.01l8.94-60H452V90
		h-41.01l8.94-60H452z M349.069,482H162.931l-4.47-30H353.54L349.069,482z M358.01,422H153.99l-4.47-30h212.96L358.01,422z
		 M366.95,362h-221.9l-4.47-30h230.841L366.95,362z M375.891,302H136.109l-13.709-92H389.6L375.891,302z M380.66,180H131.341
		l-8.941-60H389.6L380.66,180z M380.66,90H131.341l-8.941-60H389.6L380.66,90z"/>
</g>
<g>
</g>
<g>
</g>
<g>
</g>
<g>
</g>
<g>
</g>
<g>
</g>
<g>
</g>
<g>
</g>
<g>
</g>
<g>
</g>
<g>
</g>
<g>
</g>
<g>
</g>
<g>
</g>
<g>
</g>
</svg>
