<?xml version="1.0" encoding="iso-8859-1"?>
<!-- Generator: Adobe Illustrator 24.2.1, SVG Export Plug-In . SVG Version: 6.00 Build 0)  -->
<svg version="1.1" id="Capa_1" xmlns="http://www.w3.org/2000/svg" xmlns:xlink="http://www.w3.org/1999/xlink" x="0px" y="0px"
	 viewBox="0 0 512 512" style="enable-background:new 0 0 512 512;" xml:space="preserve">
<g>
	<path d="M377,75V0L75,78.396V512h362V75H377z M347,38.782V75H207.481L347,38.782z M407,482H105V105h302V482z"/>
	<path d="M256,331.5c33.636,0,61-27.364,61-61h-30c0,17.093-13.906,31-31,31s-31-13.907-31-31h-30
		C195,304.136,222.364,331.5,256,331.5z"/>
	<rect x="195" y="195.5" width="30" height="45"/>
	<rect x="287" y="195.5" width="30" height="45"/>
	<path d="M377,135H135v257h242V135z M347,362H165V165h182V362z"/>
	<rect x="241" y="422" width="30" height="30"/>
	<rect x="301" y="422" width="30" height="30"/>
	<rect x="181" y="422" width="30" height="30"/>
</g>
<g>
</g>
<g>
</g>
<g>
</g>
<g>
</g>
<g>
</g>
<g>
</g>
<g>
</g>
<g>
</g>
<g>
</g>
<g>
</g>
<g>
</g>
<g>
</g>
<g>
</g>
<g>
</g>
<g>
</g>
</svg>
