<?xml version="1.0" encoding="iso-8859-1"?>
<!-- Generator: Adobe Illustrator 24.2.1, SVG Export Plug-In . SVG Version: 6.00 Build 0)  -->
<svg version="1.1" id="Capa_1" xmlns="http://www.w3.org/2000/svg" xmlns:xlink="http://www.w3.org/1999/xlink" x="0px" y="0px"
	 viewBox="0 0 512 512" style="enable-background:new 0 0 512 512;" xml:space="preserve">
<g>
	<path d="M363.424,135c3.251-6.824,5.076-14.452,5.076-22.5c0-15.131-6.585-29.413-17.684-39.274
		c0.875-14.821-4.567-29.575-15.267-40.275c-10.699-10.699-25.45-16.14-40.275-15.267C285.413,6.585,271.132,0,256,0
		s-29.412,6.585-39.274,17.683c-14.823-0.875-29.576,4.569-40.275,15.268c-10.699,10.7-16.142,25.454-15.267,40.275
		C150.085,83.087,143.5,97.369,143.5,112.5c0,8.048,1.825,15.676,5.076,22.5H31v120h30v257h390V255h30V135H363.424z M361,210
		v185.944l-30-20l-30,20V180c0-5.258-0.915-10.305-2.58-15H316C340.813,165,361,185.187,361,210z M184.854,92.96l10.063-5.762
		l-3.042-11.19c-2.116-7.787,0.102-16.157,5.788-21.844c5.688-5.687,14.06-7.905,21.846-5.789l11.19,3.042l5.762-10.064
		C240.47,34.35,247.957,30,256,30s15.53,4.35,19.539,11.353l5.762,10.064l11.19-3.042c7.785-2.116,16.157,0.101,21.846,5.789
		c5.687,5.688,7.904,14.058,5.788,21.845l-3.042,11.19l10.063,5.762c7.003,4.009,11.354,11.497,11.354,19.54
		c0,12.407-10.094,22.5-22.5,22.5H196c-12.406,0-22.5-10.093-22.5-22.5C173.5,104.457,177.851,96.97,184.854,92.96z M271,180v45h-30
		v-45c0-8.271,6.729-15,15-15S271,171.729,271,180z M151,210c0-24.813,20.187-45,45-45h17.58c-1.665,4.695-2.58,9.742-2.58,15
		v215.944l-30-20l-30,20V210z M61,165h75.041C126.603,177.544,121,193.129,121,210v15H61V165z M421,482H91V255h30v197l60-40l60,40
		V255h30v197l60-40l60,40V255h30V482z M451,225h-60v-15c0-16.871-5.603-32.456-15.041-45H451V225z"/>
</g>
<g>
</g>
<g>
</g>
<g>
</g>
<g>
</g>
<g>
</g>
<g>
</g>
<g>
</g>
<g>
</g>
<g>
</g>
<g>
</g>
<g>
</g>
<g>
</g>
<g>
</g>
<g>
</g>
<g>
</g>
</svg>
