<?xml version="1.0" encoding="iso-8859-1"?>
<!-- Generator: Adobe Illustrator 24.2.1, SVG Export Plug-In . SVG Version: 6.00 Build 0)  -->
<svg version="1.1" id="Capa_1" xmlns="http://www.w3.org/2000/svg" xmlns:xlink="http://www.w3.org/1999/xlink" x="0px" y="0px"
	 viewBox="0 0 512 512" style="enable-background:new 0 0 512 512;" xml:space="preserve">
<g>
	<path d="M482,304.58V272c0-67.832-29.882-131.092-82.107-174.237c-1.027-2.322-2.198-4.582-3.518-6.763
		C401.993,81.722,405,71.058,405,60c0-33.084-26.916-60-60-60c-26.628,0-52.234,13.966-74.591,40.527
		c-4.582-1.31-9.412-2.027-14.409-2.027s-9.827,0.717-14.409,2.027C219.234,13.966,193.628,0,167,0c-33.084,0-60,26.916-60,60
		c0,11.058,3.007,21.722,8.625,31c-1.321,2.181-2.491,4.442-3.518,6.763C59.882,140.909,30,204.169,30,272v32.58
		C12.541,310.772,0,327.445,0,347s12.541,36.228,30,42.42V407c0,57.897,47.103,105,105,105h242c57.897,0,105-47.103,105-105v-17.58
		c17.459-6.192,30-22.865,30-42.42S499.459,310.772,482,304.58z M401.874,141.072C434.034,176.782,452,223.02,452,272v30h-30v-30
		c0-38.795-13.17-75.43-37.405-104.976C392.443,160.114,398.471,151.194,401.874,141.072z M407.041,332
		c-6.565,8.725-11.274,18.922-13.532,30H316v-30H407.041z M316,302V176.334c9.453,3.747,19.156,5.666,29,5.666
		c4.067,0,8.04-0.411,11.883-1.186C379.586,205.851,392,237.909,392,272v30H316z M295.891,56.926C308.335,42.972,325.219,30,345,30
		c16.542,0,30,13.458,30,30c0,7.719-2.936,15.057-8.267,20.662L356.9,91l9.833,10.338C372.064,106.943,375,114.281,375,122
		c0,16.542-13.458,30-30,30c-19.781,0-36.665-12.972-49.109-26.926C303.743,115.896,308.5,103.997,308.5,91
		S303.743,66.104,295.891,56.926z M256,68.5c12.407,0,22.5,10.093,22.5,22.5s-10.093,22.5-22.5,22.5s-22.5-10.093-22.5-22.5
		S243.593,68.5,256,68.5z M145.267,80.662C139.936,75.057,137,67.719,137,60c0-16.542,13.458-30,30-30
		c19.781,0,36.665,12.972,49.109,26.926C208.257,66.104,203.5,78.003,203.5,91s4.757,24.896,12.609,34.074
		C203.665,139.028,186.781,152,167,152c-16.542,0-30-13.458-30-30c0-7.719,2.936-15.057,8.268-20.662L155.101,91L145.267,80.662z
		 M120,302v-30c0-34.091,12.414-66.149,35.118-91.186C158.96,181.589,162.933,182,167,182c9.844,0,19.547-1.919,29-5.666V302H120z
		 M196,332v30H92.58c6.192-17.459,22.865-30,42.42-30H196z M60,272c0-48.98,17.966-95.217,50.126-130.928
		c3.403,10.122,9.431,19.042,17.279,25.952C103.171,196.57,90,233.205,90,272v30H60V272z M30,347c0-8.271,6.729-15,15-15h30.041
		c-6.565,8.725-11.274,18.922-13.532,30H45C36.729,362,30,355.271,30,347z M135,482c-41.355,0-75-33.645-75-75v-15h75.5v15
		c0,29.958,6.461,56.229,17.204,75H135z M241,482h-45.5c-12.232,0-30-29.217-30-75v-15H196v60l45-30V482z M226,395.944V157.498
		c5.345-4.691,10.551-10.036,15.592-16.024c4.582,1.31,9.412,2.027,14.408,2.027s9.827-0.717,14.408-2.027
		c5.04,5.988,10.246,11.333,15.592,16.024v238.447l-30-20L226,395.944z M346.5,407c0,45.783-17.768,75-30,75H271v-60l45,30v-60h30.5
		V407z M452,407c0,41.355-33.645,75-75,75h-17.704c10.743-18.771,17.204-45.042,17.204-75v-15H452V407z M467,362h-42.42
		c6.192-17.459,22.865-30,42.42-30c8.271,0,15,6.729,15,15S475.271,362,467,362z"/>
</g>
<g>
</g>
<g>
</g>
<g>
</g>
<g>
</g>
<g>
</g>
<g>
</g>
<g>
</g>
<g>
</g>
<g>
</g>
<g>
</g>
<g>
</g>
<g>
</g>
<g>
</g>
<g>
</g>
<g>
</g>
</svg>
