<?xml version="1.0" encoding="iso-8859-1"?>
<!-- Generator: Adobe Illustrator 24.2.1, SVG Export Plug-In . SVG Version: 6.00 Build 0)  -->
<svg version="1.1" id="Capa_1" xmlns="http://www.w3.org/2000/svg" xmlns:xlink="http://www.w3.org/1999/xlink" x="0px" y="0px"
	 viewBox="0 0 512 512" style="enable-background:new 0 0 512 512;" xml:space="preserve">
<g>
	<path d="M512,165.5C512,74.243,437.757,0,346.5,0c-32.559,0-63.645,9.292-90.565,26.964C229.923,9.925,198.851,0,165.5,0
		C74.243,0,0,74.243,0,165.5c0,84.684,49.623,160.029,124.511,194.742C112.823,371.197,105.5,386.755,105.5,404v15h15
		c6.708,0,9.205,1.665,14.18,4.981c3.967,2.645,8.853,5.901,15.82,7.969V512h30v-80.049c6.958-2.064,11.838-5.313,15.802-7.953
		c4.971-3.309,7.479-4.937,14.172-4.958l15.026,0.026V404.04c0-17.26-7.326-32.832-19.018-43.794
		c18.128-8.402,34.777-19.18,49.598-31.9c15,12.856,31.676,23.553,49.487,31.844C293.846,371.147,286.5,386.728,286.5,404v15h15
		c6.708,0,9.205,1.665,14.18,4.981c3.967,2.645,8.853,5.901,15.82,7.969V512h30v-80.049c6.958-2.064,11.838-5.313,15.802-7.953
		c4.971-3.309,7.473-4.937,14.172-4.958l15.026,0.026V404.04c0-17.26-7.326-32.832-19.018-43.794
		C462.374,325.534,512,250.187,512,165.5z M179.676,399.026c-4.973,3.312-7.47,4.974-14.176,4.974c-6.708,0-9.205-1.665-14.18-4.981
		c-3.464-2.31-7.628-5.085-13.267-7.129c4.451-10.05,14.27-17.198,25.796-17.828h3.302c11.524,0.631,21.341,7.787,25.793,17.847
		C187.306,393.947,183.141,396.72,179.676,399.026z M165.5,343.474C85.519,321.205,30,248.568,30,165.5
		C30,90.785,90.785,30,165.5,30S301,90.785,301,165.5C301,248.568,245.481,321.205,165.5,343.474z M360.676,399.026
		c-4.973,3.312-7.47,4.974-14.176,4.974c-6.708,0-9.205-1.665-14.18-4.981c-3.464-2.31-7.628-5.085-13.267-7.129
		c4.451-10.05,14.27-17.198,25.796-17.828h3.302c11.524,0.631,21.341,7.787,25.793,17.847
		C368.306,393.947,364.141,396.72,360.676,399.026z M346.502,343.473c-25.261-7.048-48.796-19.474-68.978-36.308
		C311.115,268.978,331,219.109,331,165.5c0-46.439-19.234-88.464-50.145-118.549C300.834,35.831,323.2,30,346.5,30
		C421.215,30,482,90.785,482,165.5C482,248.563,426.475,321.199,346.502,343.473z"/>
	<path d="M236.338,86.595l-24.373-17.492C191.708,97.33,181,130.664,181,165.5c0,41.088,11.708,81.04,33.856,115.536l25.244-16.209
		C221.063,235.177,211,200.83,211,165.5C211,136.978,219.762,109.692,236.338,86.595z"/>
</g>
<g>
</g>
<g>
</g>
<g>
</g>
<g>
</g>
<g>
</g>
<g>
</g>
<g>
</g>
<g>
</g>
<g>
</g>
<g>
</g>
<g>
</g>
<g>
</g>
<g>
</g>
<g>
</g>
<g>
</g>
</svg>
