<?xml version="1.0" encoding="iso-8859-1"?>
<!-- Generator: Adobe Illustrator 24.2.1, SVG Export Plug-In . SVG Version: 6.00 Build 0)  -->
<svg version="1.1" id="Capa_1" xmlns="http://www.w3.org/2000/svg" xmlns:xlink="http://www.w3.org/1999/xlink" x="0px" y="0px"
	 viewBox="0 0 512 512" style="enable-background:new 0 0 512 512;" xml:space="preserve">
<g>
	<rect x="482" y="181" width="30" height="30"/>
	<rect x="449.833" y="60.468" transform="matrix(0.866 -0.5 0.5 0.866 24.542 242.5272)" width="30" height="30"/>
	<rect x="32.409" y="60.048" transform="matrix(0.5 -0.866 0.866 0.5 -41.2892 78.5814)" width="30" height="30"/>
	<rect y="180.516" width="30" height="30"/>
	<rect x="32.167" y="301.048" transform="matrix(0.866 -0.5 0.5 0.866 -151.7049 65.9258)" width="30" height="30"/>
	<rect x="449.591" y="301.468" transform="matrix(0.5 -0.866 0.866 0.5 -41.7736 560.5811)" width="30" height="30"/>
	<path d="M452,196C452,87.925,364.075,0,256,0C147.925,0,60,87.925,60,196c0,91.519,63.054,168.58,147.998,190.045
		C200.468,396.072,196,408.523,196,422v15h15c6.708,0,9.205,1.665,14.18,4.981c3.967,2.645,8.853,5.901,15.82,7.969V512h30v-62.049
		c6.958-2.065,11.838-5.313,15.802-7.953c4.953-3.298,7.448-4.959,14.103-4.959h0.069L316,437.065v-15.026
		c0-13.491-4.472-25.956-12.008-35.992C388.942,364.586,452,287.522,452,196z M270.176,417.026C265.202,420.338,262.706,422,256,422
		c-6.708,0-9.205-1.665-14.18-4.981c-3.464-2.31-7.628-5.085-13.267-7.129C233.216,399.362,243.764,392,256,392
		c12.234,0,22.78,7.37,27.444,17.909C277.807,411.947,273.641,414.72,270.176,417.026z M256,362c-91.533,0-166-74.467-166-166
		S164.467,30,256,30c91.533,0,166,74.467,166,166S347.533,362,256,362z"/>
	<path d="M256,242c-17.093,0-31-13.907-31-31h-30c0,33.636,27.364,61,61,61s61-27.364,61-61h-30C287,228.093,273.094,242,256,242z"
		/>
	<rect x="195" y="136" width="30" height="45"/>
	<rect x="287" y="136" width="30" height="45"/>
</g>
<g>
</g>
<g>
</g>
<g>
</g>
<g>
</g>
<g>
</g>
<g>
</g>
<g>
</g>
<g>
</g>
<g>
</g>
<g>
</g>
<g>
</g>
<g>
</g>
<g>
</g>
<g>
</g>
<g>
</g>
</svg>
