<?xml version="1.0" encoding="iso-8859-1"?>
<!-- Generator: Adobe Illustrator 24.2.1, SVG Export Plug-In . SVG Version: 6.00 Build 0)  -->
<svg version="1.1" id="Capa_1" xmlns="http://www.w3.org/2000/svg" xmlns:xlink="http://www.w3.org/1999/xlink" x="0px" y="0px"
	 viewBox="0 0 512 512" style="enable-background:new 0 0 512 512;" xml:space="preserve">
<g>
	<rect x="436" y="120.507" width="30" height="30"/>
	<rect x="361" y="181.005" width="30" height="30"/>
	<rect x="361" y="60.005" width="30" height="30"/>
	<rect x="301" y="361.502" width="30" height="30"/>
	<rect x="31" y="361.502" width="30" height="30"/>
	<rect x="226" y="422" width="30" height="30"/>
	<rect x="226" y="301" width="30" height="30"/>
	<rect x="166" y="120.507" width="30" height="30"/>
	<rect x="91" y="181.005" width="30" height="30"/>
	<rect x="91" y="60.005" width="30" height="30"/>
	<path d="M302.886,43.499L302.886,43.499C288.552,29.104,286,25.687,286,15V0h-90v15c0,48.708,25.943,74.762,43.113,92.005
		C253.448,121.399,256,124.816,256,135.502c0,10.687-2.552,14.104-16.889,28.5C221.943,181.243,196,207.297,196,256.005v15h90v-15
		c0-10.687,2.552-14.103,16.889-28.5C320.057,210.265,346,184.211,346,135.502C346,86.896,320.055,60.74,302.886,43.499z
		 M281.629,206.338c-10.951,10.997-20.143,20.227-23.86,34.667h-30.597c4.371-26.885,20.145-42.726,33.199-55.835
		C274.689,170.791,286,159.434,286,135.502c0-23.931-11.311-35.288-25.631-49.668C247.316,72.727,231.543,56.885,227.172,30h30.597
		c3.672,14.26,12.685,23.443,23.456,34.261l-0.001,0.001C296.536,79.639,316,99.184,316,135.502
		C316,171.822,296.943,190.959,281.629,206.338z"/>
	<path d="M151,256.005v-15H61v15c0,48.709,25.945,74.762,43.114,92.002C118.448,362.401,121,365.817,121,376.502
		c0,10.686-2.552,14.102-16.886,28.495C86.945,422.237,61,448.291,61,497v15h90v-15c0-10.686,2.552-14.102,16.886-28.495
		C185.055,451.265,211,425.211,211,376.502c0-48.71-25.946-74.763-43.114-92.002C153.552,270.106,151,266.69,151,256.005z
		 M146.628,447.336c-10.951,10.997-20.142,20.225-23.859,34.664H92.172c4.372-26.885,20.146-42.726,33.2-55.834
		C139.69,411.788,151,400.432,151,376.502c0-23.929-11.31-35.286-25.629-49.664c-13.053-13.107-28.827-28.948-33.199-55.833h30.597
		c3.718,14.438,12.908,23.667,23.859,34.664C161.941,321.045,181,340.182,181,376.502C181,412.821,161.942,431.958,146.628,447.336z
		"/>
	<path d="M437.886,284.5C423.552,270.106,421,266.69,421,256.005v-15h-90v15c0,48.709,25.945,74.762,43.114,92.002
		C388.448,362.401,391,365.817,391,376.502c0,10.686-2.552,14.102-16.886,28.495C356.945,422.237,331,448.291,331,497v15h90v-15
		c0-10.686,2.552-14.102,16.886-28.495C455.055,451.265,481,425.211,481,376.502C481,327.792,455.054,301.739,437.886,284.5z
		 M416.628,447.336c-10.951,10.997-20.142,20.225-23.859,34.664h-30.597c4.372-26.885,20.146-42.726,33.2-55.834
		C409.69,411.788,421,400.432,421,376.502c0-23.929-11.31-35.286-25.629-49.664c-13.053-13.107-28.827-28.948-33.199-55.833h30.597
		c3.718,14.438,12.908,23.667,23.859,34.664C431.941,321.045,451,340.182,451,376.502C451,412.821,431.942,431.958,416.628,447.336z
		"/>
</g>
<g>
</g>
<g>
</g>
<g>
</g>
<g>
</g>
<g>
</g>
<g>
</g>
<g>
</g>
<g>
</g>
<g>
</g>
<g>
</g>
<g>
</g>
<g>
</g>
<g>
</g>
<g>
</g>
<g>
</g>
</svg>
