<?xml version="1.0" encoding="iso-8859-1"?>
<!-- Generator: Adobe Illustrator 24.2.1, SVG Export Plug-In . SVG Version: 6.00 Build 0)  -->
<svg version="1.1" id="Capa_1" xmlns="http://www.w3.org/2000/svg" xmlns:xlink="http://www.w3.org/1999/xlink" x="0px" y="0px"
	 viewBox="0 0 512 512" style="enable-background:new 0 0 512 512;" xml:space="preserve">
<g>
	<path d="M465.183,98.283C482.692,84.217,512,60.674,512,15V0h-90v15c0,0.799-0.067,1.089-0.065,1.089
		c-0.944,2.25-10.105,9.61-13.117,12.029C391.308,42.184,362,65.726,362,111.4c0,45.672,29.307,69.215,46.817,83.282
		c3.012,2.419,12.177,9.782,13.108,12.005c0.001,0.003,0.074,0.284,0.074,1.113c0,0.798-0.067,1.088-0.065,1.088
		c-0.944,2.251-10.106,9.611-13.119,12.032C391.306,234.986,362,258.53,362,304.2c0,45.671,29.307,69.214,46.817,83.281
		c3.012,2.42,12.177,9.783,13.108,12.006c0.001,0.003,0.074,0.284,0.074,1.113c0,0.797-0.067,1.087-0.065,1.087
		c-0.944,2.251-10.106,9.612-13.117,12.031C391.308,427.785,362,451.328,362,497v15h90v-15c0-0.798,0.067-1.088,0.065-1.088
		c0.944-2.251,10.106-9.611,13.119-12.032C482.694,469.813,512,446.27,512,400.6c0-45.672-29.308-69.215-46.817-83.282
		c-3.012-2.419-12.177-9.782-13.108-12.006c-0.001-0.002-0.074-0.283-0.074-1.112c0-0.798,0.067-1.088,0.065-1.088
		c0.944-2.251,10.106-9.611,13.119-12.032C482.694,277.014,512,253.47,512,207.8c0-45.672-29.307-69.215-46.817-83.282
		c-3.012-2.419-12.177-9.782-13.108-12.005c-0.001-0.003-0.074-0.284-0.074-1.113c0-0.798,0.067-1.088,0.065-1.088
		C453.01,108.061,462.171,100.702,465.183,98.283z M446.395,147.906C462.258,160.65,482,176.509,482,207.8
		c0,31.29-19.742,47.149-35.605,59.894C431.27,279.844,422,288.108,422,304.2c0,16.092,9.27,24.355,24.394,36.506
		C462.258,353.45,482,369.31,482,400.6c0,31.289-19.741,47.149-35.605,59.894c-9.63,7.736-16.887,13.897-20.889,21.506H393.67
		c5.084-21.718,20.833-34.368,33.937-44.895C442.73,424.955,452,416.691,452,400.6c0-16.092-9.27-24.355-24.395-36.507
		C411.742,351.35,392,335.49,392,304.2c0-31.29,19.742-47.149,35.605-59.894C442.73,232.156,452,223.892,452,207.8
		c0-16.092-9.27-24.355-24.395-36.506C411.742,158.55,392,142.69,392,111.4c0-31.292,19.742-47.151,35.605-59.894
		C437.236,43.77,444.493,37.61,448.494,30h31.837c-5.085,21.719-20.834,34.369-33.937,44.895C431.27,87.043,422,95.307,422,111.4
		C422,127.492,431.27,135.755,446.395,147.906z"/>
	<path d="M284.183,194.682C301.693,180.615,331,157.072,331,111.4c0-45.674-29.308-69.216-46.818-83.283
		c-3.012-2.419-12.176-9.78-13.107-12.004C271.073,16.111,271,15.83,271,15V0h-90v15c0,45.674,29.308,69.217,46.818,83.283
		c3.012,2.419,12.176,9.78,13.107,12.004c0.001,0.002,0.074,0.283,0.074,1.113c0,0.798-0.067,1.088-0.065,1.088
		c-0.944,2.251-10.105,9.611-13.117,12.03C210.307,138.585,181,162.128,181,207.8c0,45.67,29.306,69.214,46.816,83.282
		c3.012,2.419,12.178,9.783,13.109,12.006c0.001,0.003,0.074,0.284,0.074,1.113c0,0.798-0.067,1.088-0.065,1.088
		c-0.944,2.251-10.105,9.611-13.117,12.03C210.308,331.385,181,354.928,181,400.6c0,45.67,29.306,69.213,46.816,83.281
		c3.012,2.419,12.178,9.783,13.109,12.006C240.927,495.89,241,496.171,241,497v15h90v-15c0-45.672-29.308-69.215-46.817-83.282
		c-3.012-2.419-12.177-9.782-13.108-12.006c-0.001-0.003-0.074-0.284-0.074-1.112c0-0.798,0.067-1.088,0.065-1.088
		c0.944-2.251,10.106-9.612,13.117-12.031C301.693,373.415,331,349.872,331,304.2c0-45.67-29.306-69.214-46.816-83.282
		c-3.012-2.419-12.178-9.783-13.109-12.006c-0.001-0.003-0.074-0.284-0.074-1.113c0-0.798,0.067-1.088,0.065-1.088
		C272.01,204.461,281.171,197.101,284.183,194.682z M265.396,244.307C281.258,257.051,301,272.911,301,304.2
		c0,31.29-19.742,47.149-35.606,59.894C250.27,376.245,241,384.508,241,400.6c0,16.091,9.27,24.355,24.394,36.506
		c13.104,10.526,28.853,23.176,33.937,44.894h-31.837c-4.001-7.609-11.258-13.771-20.89-21.507
		C230.741,447.749,211,431.889,211,400.6c0-31.291,19.742-47.15,35.606-59.894C261.73,328.556,271,320.292,271,304.2
		c0-16.092-9.27-24.356-24.396-36.507C230.742,254.949,211,239.089,211,207.8c0-31.291,19.742-47.15,35.606-59.894
		C261.73,135.755,271,127.492,271,111.4c0-16.093-9.27-24.356-24.395-36.505C233.503,64.369,217.754,51.719,212.669,30h31.837
		c4.001,7.61,11.258,13.77,20.889,21.506C281.258,64.249,301,80.108,301,111.4c0,31.291-19.742,47.15-35.606,59.894
		C250.27,183.444,241,191.708,241,207.8C241,223.892,250.27,232.156,265.396,244.307z"/>
	<rect x="331.5" width="30" height="30"/>
	<rect x="331.5" y="192.8" width="30" height="30"/>
	<rect x="331.5" y="385.6" width="30" height="30"/>
	<rect x="150.5" y="482" width="30" height="30"/>
	<rect x="150.5" y="96.4" width="30" height="30"/>
	<rect x="150.5" y="289.2" width="30" height="30"/>
	<path d="M60,15c0,0.799-0.067,1.089-0.065,1.089c-0.944,2.25-10.105,9.61-13.117,12.029C29.308,42.184,0,65.726,0,111.4
		c0,45.672,29.307,69.215,46.817,83.282c3.012,2.419,12.177,9.782,13.108,12.005C59.927,206.69,60,206.971,60,207.8
		c0,0.798-0.067,1.088-0.065,1.088c-0.944,2.251-10.106,9.611-13.119,12.032C29.306,234.986,0,258.53,0,304.2
		c0,45.671,29.307,69.214,46.817,83.281c3.012,2.42,12.177,9.783,13.108,12.006C59.927,399.49,60,399.771,60,400.6
		c0,0.797-0.067,1.087-0.065,1.087c-0.944,2.251-10.106,9.612-13.117,12.031C29.308,427.785,0,451.328,0,497v15h90v-15
		c0-0.798,0.067-1.088,0.065-1.088c0.944-2.251,10.106-9.611,13.119-12.032C120.694,469.813,150,446.27,150,400.6
		c0-45.672-29.308-69.215-46.817-83.282c-3.012-2.419-12.177-9.782-13.108-12.006C90.073,305.31,90,305.029,90,304.2
		c0-0.798,0.067-1.088,0.065-1.088c0.944-2.251,10.106-9.611,13.119-12.032C120.694,277.014,150,253.47,150,207.8
		c0-45.672-29.307-69.215-46.817-83.282c-3.012-2.419-12.177-9.782-13.108-12.005C90.073,112.51,90,112.229,90,111.4
		c0-0.798,0.067-1.088,0.065-1.088c0.944-2.25,10.105-9.61,13.117-12.029C120.692,84.217,150,60.674,150,15V0H60V15z M86.494,30
		h31.837c-5.085,21.719-20.834,34.369-33.937,44.895C69.27,87.043,60,95.307,60,111.4c0,16.092,9.27,24.355,24.395,36.506
		C100.258,160.65,120,176.509,120,207.8c0,31.29-19.742,47.149-35.605,59.894C69.27,279.844,60,288.108,60,304.2
		c0,16.092,9.27,24.355,24.394,36.506C100.258,353.45,120,369.31,120,400.6c0,31.289-19.741,47.149-35.605,59.894
		c-9.63,7.736-16.887,13.897-20.889,21.506H31.67c5.084-21.718,20.833-34.368,33.937-44.895C80.73,424.955,90,416.691,90,400.6
		c0-16.092-9.27-24.355-24.395-36.507C49.742,351.35,30,335.49,30,304.2c0-31.29,19.742-47.149,35.605-59.894
		C80.73,232.156,90,223.892,90,207.8c0-16.092-9.27-24.355-24.395-36.506C49.742,158.55,30,142.69,30,111.4
		c0-31.292,19.742-47.151,35.605-59.894C75.236,43.77,82.493,37.61,86.494,30z"/>
</g>
<g>
</g>
<g>
</g>
<g>
</g>
<g>
</g>
<g>
</g>
<g>
</g>
<g>
</g>
<g>
</g>
<g>
</g>
<g>
</g>
<g>
</g>
<g>
</g>
<g>
</g>
<g>
</g>
<g>
</g>
</svg>
