<?xml version="1.0" encoding="iso-8859-1"?>
<!-- Generator: Adobe Illustrator 24.2.1, SVG Export Plug-In . SVG Version: 6.00 Build 0)  -->
<svg version="1.1" id="Capa_1" xmlns="http://www.w3.org/2000/svg" xmlns:xlink="http://www.w3.org/1999/xlink" x="0px" y="0px"
	 viewBox="0 0 512 512" style="enable-background:new 0 0 512 512;" xml:space="preserve">
<g>
	<path d="M0,0v30h30v211h15c18.897,0,36.714-7.027,50.333-19.39C108.953,233.973,126.77,241,145.667,241h15V30h30v211h130.667V30h30
		v211h15c18.897,0,36.714-7.027,50.333-19.39C430.286,233.973,448.103,241,467,241h15V30h30V0H0z M130.264,30
		c-2.579,16.961-17.26,30-34.931,30S62.982,46.961,60.403,30H130.264z M130.667,208.438c-9.216-3.254-17.24-9.483-22.755-17.971
		l-12.577-19.354l-12.578,19.354C77.24,198.955,69.216,205.185,60,208.438V79.577C70.195,86.161,82.321,90,95.333,90
		c13.012,0,25.138-3.839,35.333-10.422V208.438z M290.931,30C288.352,46.961,273.67,60,256,60s-32.352-13.039-34.931-30H290.931z
		 M291.333,211h-70.667V79.577C230.862,86.161,242.987,90,256,90s25.138-3.839,35.333-10.423V211z M451.597,30
		c-2.579,16.961-17.26,30-34.931,30s-32.352-13.039-34.931-30H451.597z M452,208.438c-9.216-3.254-17.24-9.483-22.756-17.971
		l-12.578-19.354l-12.577,19.354c-5.515,8.487-13.54,14.717-22.755,17.971V79.578C391.529,86.161,403.654,90,416.667,90
		c13.013,0,25.138-3.839,35.333-10.423V208.438z"/>
	<path d="M0,301h30v211h130.667V301h30v211h15c18.897,0,36.714-7.027,50.333-19.39c13.62,12.362,31.436,19.39,50.333,19.39h15V301
		h30v211H482V301h30v-30H0V301z M451.597,301c-2.579,16.961-17.26,30-34.931,30s-32.352-13.039-34.931-30H451.597z M381.333,350.578
		C391.529,357.161,403.654,361,416.667,361c13.013,0,25.138-3.839,35.333-10.423V482h-70.667V350.578z M290.931,301
		c-2.579,16.961-17.26,30-34.931,30s-32.352-13.039-34.931-30H290.931z M220.667,350.577C230.862,357.161,242.987,361,256,361
		s25.138-3.839,35.333-10.423v128.861c-9.216-3.254-17.241-9.483-22.756-17.971L256,442.113l-12.578,19.354
		c-5.515,8.487-13.54,14.717-22.756,17.971V350.577z M130.264,301c-2.579,16.961-17.26,30-34.931,30s-32.352-13.039-34.931-30
		H130.264z M60,350.577C70.195,357.161,82.321,361,95.333,361c13.012,0,25.138-3.839,35.333-10.422V482H60V350.577z"/>
</g>
<g>
</g>
<g>
</g>
<g>
</g>
<g>
</g>
<g>
</g>
<g>
</g>
<g>
</g>
<g>
</g>
<g>
</g>
<g>
</g>
<g>
</g>
<g>
</g>
<g>
</g>
<g>
</g>
<g>
</g>
</svg>
