<?xml version="1.0" encoding="iso-8859-1"?>
<!-- Generator: Adobe Illustrator 24.2.1, SVG Export Plug-In . SVG Version: 6.00 Build 0)  -->
<svg version="1.1" id="Capa_1" xmlns="http://www.w3.org/2000/svg" xmlns:xlink="http://www.w3.org/1999/xlink" x="0px" y="0px"
	 viewBox="0 0 512 512" style="enable-background:new 0 0 512 512;" xml:space="preserve">
<g>
	<rect y="241" width="30" height="30"/>
	<rect x="60" y="241" width="30" height="30"/>
	<rect x="482" y="241" width="30" height="30"/>
	<rect x="422" y="241" width="30" height="30"/>
	<rect x="362" y="241" width="30" height="30"/>
	<rect x="463.655" y="148.773" transform="matrix(0.9239 -0.3827 0.3827 0.9239 -26.2379 195.6403)" width="30" height="30"/>
	<rect x="408.222" y="171.734" transform="matrix(0.9239 -0.3827 0.3827 0.9239 -39.2442 176.1737)" width="30" height="30"/>
	<rect x="411.413" y="70.587" transform="matrix(0.7071 -0.7071 0.7071 0.7071 64.374 326.5872)" width="30" height="30"/>
	<rect x="368.986" y="113.014" transform="matrix(0.7071 -0.7071 0.7071 0.7071 21.9477 309.0137)" width="30" height="30"/>
	<rect x="284.133" y="197.866" transform="matrix(0.7071 -0.7071 0.7071 0.7071 -62.9052 273.8665)" width="30" height="30"/>
	<rect x="326.56" y="155.44" transform="matrix(0.7071 -0.7071 0.7071 0.7071 -20.4787 291.4401)" width="30" height="30"/>
	<rect x="333.227" y="18.345" transform="matrix(0.3827 -0.9239 0.9239 0.3827 184.159 342.3038)" width="30" height="30"/>
	<rect x="310.266" y="73.778" transform="matrix(0.3827 -0.9239 0.9239 0.3827 118.7721 355.3105)" width="30" height="30"/>
	<rect x="241" y="482" width="30" height="30"/>
	<rect x="241" y="422" width="30" height="30"/>
	<rect x="241" width="30" height="30"/>
	<rect x="241" y="60" width="30" height="30"/>
	<rect x="241" y="120" width="30" height="30"/>
	<rect x="333.227" y="463.655" transform="matrix(0.9239 -0.3827 0.3827 0.9239 -156.6667 169.6969)" width="30" height="30"/>
	<rect x="310.266" y="408.222" transform="matrix(0.9239 -0.3827 0.3827 0.9239 -137.201 156.6901)" width="30" height="30"/>
	<rect x="148.773" y="18.345" transform="matrix(0.9239 -0.3827 0.3827 0.9239 -0.2941 65.2114)" width="30" height="30"/>
	<rect x="171.734" y="73.778" transform="matrix(0.9239 -0.3827 0.3827 0.9239 -19.7595 78.2178)" width="30" height="30"/>
	<rect x="411.413" y="411.413" transform="matrix(0.7071 -0.7071 0.7071 0.7071 -176.6259 426.4119)" width="30" height="30"/>
	<rect x="368.986" y="368.986" transform="matrix(0.7071 -0.7071 0.7071 0.7071 -159.0523 383.9863)" width="30" height="30"/>
	<rect x="326.56" y="326.56" transform="matrix(0.7071 -0.7071 0.7071 0.7071 -141.4788 341.5599)" width="30" height="30"/>
	<rect x="70.587" y="70.587" transform="matrix(0.7071 -0.7071 0.7071 0.7071 -35.4514 85.5873)" width="30" height="30"/>
	<rect x="113.014" y="113.014" transform="matrix(0.7071 -0.7071 0.7071 0.7071 -53.025 128.0137)" width="30" height="30"/>
	<rect x="155.44" y="155.44" transform="matrix(0.7071 -0.7071 0.7071 0.7071 -70.5986 170.4401)" width="30" height="30"/>
	<rect x="463.655" y="333.227" transform="matrix(0.3827 -0.9239 0.9239 0.3827 -26.2376 657.186)" width="30" height="30"/>
	<rect x="408.222" y="310.266" transform="matrix(0.3827 -0.9239 0.9239 0.3827 -39.244 591.7986)" width="30" height="30"/>
	<rect x="18.345" y="148.773" transform="matrix(0.3827 -0.9239 0.9239 0.3827 -130.7224 131.907)" width="30" height="30"/>
	<rect x="73.778" y="171.734" transform="matrix(0.3827 -0.9239 0.9239 0.3827 -117.716 197.2941)" width="30" height="30"/>
	<path d="M213.574,192.36L0,405.934L106.066,512L319.64,298.426L213.574,192.36z M106.066,469.573l-63.64-63.64L63.64,384.72
		l63.64,63.64L106.066,469.573z M148.493,427.147l-63.64-63.64l21.806-21.806c28.472,22.78,64.096,32.346,98.58,28.699
		L148.493,427.147z M265.165,310.474c-37.339,37.339-96.03,40.616-137.125,9.846l85.533-85.533l63.64,63.64L265.165,310.474z"/>
</g>
<g>
</g>
<g>
</g>
<g>
</g>
<g>
</g>
<g>
</g>
<g>
</g>
<g>
</g>
<g>
</g>
<g>
</g>
<g>
</g>
<g>
</g>
<g>
</g>
<g>
</g>
<g>
</g>
<g>
</g>
</svg>
