<?xml version="1.0" encoding="iso-8859-1"?>
<!-- Generator: Adobe Illustrator 24.2.1, SVG Export Plug-In . SVG Version: 6.00 Build 0)  -->
<svg version="1.1" id="Capa_1" xmlns="http://www.w3.org/2000/svg" xmlns:xlink="http://www.w3.org/1999/xlink" x="0px" y="0px"
	 viewBox="0 0 512 512" style="enable-background:new 0 0 512 512;" xml:space="preserve">
<g>
	<path d="M332.076,150H271v362h150V150h-58.491c6.968-34.192,37.271-60,73.491-60V60C383.195,60,339.377,99.183,332.076,150z
		 M391,180v302h-90V180H391z"/>
	<rect x="421" width="30" height="30"/>
	<rect x="472.962" y="90" transform="matrix(0.5 -0.866 0.866 0.5 153.0478 475.0868)" width="30" height="30"/>
	<rect x="472.962" y="30" transform="matrix(0.866 -0.5 0.5 0.866 42.8744 250.0095)" width="30" height="30"/>
	<path d="M76,60v30c36.219,0,66.522,25.808,73.491,60H91v362h150V150h-61.076C172.623,99.183,128.804,60,76,60z M211,482h-90V180h90
		V482z"/>
	<rect x="61" width="30" height="30"/>
	<rect x="9.038" y="90" transform="matrix(0.866 -0.5 0.5 0.866 -49.2794 26.0866)" width="30" height="30"/>
	<rect x="9.038" y="30" transform="matrix(0.5 -0.866 0.866 0.5 -26.9519 43.3179)" width="30" height="30"/>
</g>
<g>
</g>
<g>
</g>
<g>
</g>
<g>
</g>
<g>
</g>
<g>
</g>
<g>
</g>
<g>
</g>
<g>
</g>
<g>
</g>
<g>
</g>
<g>
</g>
<g>
</g>
<g>
</g>
<g>
</g>
</svg>
