<?xml version="1.0" encoding="iso-8859-1"?>
<!-- Generator: Adobe Illustrator 24.2.1, SVG Export Plug-In . SVG Version: 6.00 Build 0)  -->
<svg version="1.1" id="Capa_1" xmlns="http://www.w3.org/2000/svg" xmlns:xlink="http://www.w3.org/1999/xlink" x="0px" y="0px"
	 viewBox="0 0 512 512" style="enable-background:new 0 0 512 512;" xml:space="preserve">
<g>
	<path d="M256,180.999l42.466-121.104C300.147,55.096,301,50.085,301,45c0-24.813-20.187-45-45-45s-45,20.187-45,45
		c0,5.087,0.854,10.099,2.536,14.897L256,180.999z M256,30c8.271,0,15,6.729,15,15c0,1.697-0.285,3.371-0.846,4.971L256,90.337
		l-14.153-40.365C241.284,48.369,241,46.697,241,45C241,36.729,247.729,30,256,30z"/>
	<path d="M256,331.001l-42.464,121.102C211.854,456.901,211,461.913,211,467c0,24.813,20.187,45,45,45s45-20.187,45-45
		c0-5.085-0.853-10.096-2.535-14.898L256,331.001z M256,482c-8.271,0-15-6.729-15-15c0-1.697,0.284-3.369,0.846-4.97L256,421.663
		l14.153,40.363c0.562,1.603,0.847,3.276,0.847,4.974C271,475.271,264.271,482,256,482z"/>
	<path d="M50.769,189.471c4.406,2.543,9.172,4.31,14.17,5.252L191.047,218.5l-83.646-97.328c-3.316-3.856-7.229-7.1-11.633-9.642
		C74.28,99.122,46.704,106.511,34.297,128C21.891,149.489,29.28,177.064,50.769,189.471z M60.278,143
		c4.136-7.163,13.327-9.626,20.49-5.49c1.47,0.849,2.777,1.932,3.882,3.218l27.881,32.441l-42.034-7.925
		c-1.669-0.314-3.259-0.904-4.729-1.753C58.605,159.355,56.143,150.163,60.278,143z"/>
	<path d="M461.231,322.529c-4.404-2.542-9.169-4.31-14.17-5.254L320.953,293.5l83.645,97.326c3.315,3.857,7.228,7.102,11.634,9.645
		c21.489,12.407,49.064,5.018,61.471-16.471C490.109,362.511,482.72,334.936,461.231,322.529z M451.722,369
		c-4.136,7.163-13.327,9.626-20.49,5.49c-1.47-0.849-2.776-1.931-3.881-3.217l-27.882-32.442l42.032,7.924
		c1.669,0.315,3.261,0.905,4.731,1.754C453.395,352.645,455.857,361.837,451.722,369z"/>
	<path d="M64.936,317.276c-4.998,0.944-9.763,2.711-14.167,5.253C29.28,334.936,21.891,362.511,34.297,384
		c12.407,21.489,39.982,28.878,61.471,16.471c4.406-2.543,8.319-5.789,11.634-9.645l83.645-97.326L64.936,317.276z M84.651,371.271
		c-1.107,1.288-2.412,2.37-3.882,3.219c-7.163,4.136-16.354,1.673-20.49-5.49s-1.673-16.355,5.49-20.49
		c1.47-0.849,3.062-1.439,4.728-1.753l42.035-7.925L84.651,371.271z"/>
	<path d="M447.062,194.724c4.997-0.942,9.764-2.709,14.17-5.252c21.489-12.407,28.878-39.982,16.471-61.471
		c-12.407-21.489-39.982-28.878-61.471-16.471c-4.404,2.542-8.317,5.786-11.635,9.645L320.953,218.5L447.062,194.724z
		 M427.347,140.73c1.107-1.288,2.414-2.371,3.884-3.22c7.163-4.136,16.354-1.673,20.49,5.49s1.673,16.355-5.49,20.49
		c-1.47,0.849-3.06,1.438-4.727,1.753l-42.036,7.926L427.347,140.73z"/>
	<polygon points="332,241 281.98,241 306.99,197.682 281.01,182.682 256,226 230.99,182.682 205.01,197.682 230.02,241 180,241 
		180,271 230.02,271 205.01,314.318 230.99,329.318 256,286 281.01,329.318 306.99,314.318 281.98,271 332,271 	"/>
	<rect x="60" y="241" width="30" height="30"/>
	<rect x="120" y="241" width="30" height="30"/>
	<rect y="241" width="30" height="30"/>
	<rect x="482" y="241" width="30" height="30"/>
	<rect x="422" y="241" width="30" height="30"/>
	<rect x="362" y="241" width="30" height="30"/>
	<rect x="150.5" y="397.751" transform="matrix(0.5 -0.866 0.866 0.5 -274.7024 349.7021)" width="30" height="30"/>
	<rect x="180.5" y="345.789" transform="matrix(0.5 -0.866 0.866 0.5 -214.7025 349.7021)" width="30" height="30"/>
	<rect x="120.5" y="449.712" transform="matrix(0.5 -0.866 0.866 0.5 -334.7024 349.7021)" width="30" height="30"/>
	<rect x="361.5" y="32.288" transform="matrix(0.5 -0.866 0.866 0.5 147.2973 349.7023)" width="30" height="30"/>
	<rect x="331.5" y="84.249" transform="matrix(0.5 -0.866 0.866 0.5 87.2973 349.7023)" width="30" height="30"/>
	<rect x="301.5" y="136.211" transform="matrix(0.5 -0.866 0.866 0.5 27.2976 349.7025)" width="30" height="30"/>
	<rect x="331.5" y="397.751" transform="matrix(0.866 -0.5 0.5 0.866 -159.9532 228.5485)" width="30" height="30"/>
	<rect x="301.5" y="345.789" transform="matrix(0.866 -0.5 0.5 0.866 -137.9917 206.5869)" width="30" height="30"/>
	<rect x="361.5" y="449.712" transform="matrix(0.866 -0.5 0.5 0.866 -181.9144 250.5089)" width="30" height="30"/>
	<rect x="120.5" y="32.288" transform="matrix(0.866 -0.5 0.5 0.866 -5.4904 74.0853)" width="30" height="30"/>
	<rect x="150.5" y="84.249" transform="matrix(0.866 -0.5 0.5 0.866 -27.4519 96.0471)" width="30" height="30"/>
	<rect x="180.5" y="136.211" transform="matrix(0.866 -0.5 0.5 0.866 -49.4134 118.0086)" width="30" height="30"/>
</g>
<g>
</g>
<g>
</g>
<g>
</g>
<g>
</g>
<g>
</g>
<g>
</g>
<g>
</g>
<g>
</g>
<g>
</g>
<g>
</g>
<g>
</g>
<g>
</g>
<g>
</g>
<g>
</g>
<g>
</g>
</svg>
