<?xml version="1.0" encoding="iso-8859-1"?>
<!-- Generator: Adobe Illustrator 24.2.1, SVG Export Plug-In . SVG Version: 6.00 Build 0)  -->
<svg version="1.1" id="Capa_1" xmlns="http://www.w3.org/2000/svg" xmlns:xlink="http://www.w3.org/1999/xlink" x="0px" y="0px"
	 viewBox="0 0 512 512" style="enable-background:new 0 0 512 512;" xml:space="preserve">
<g>
	<path d="M437.02,104.98c-36.607-36.607-82.352-60.749-132.087-70.324C311.891,24.86,316,12.904,316,0h-30c0,16.542-13.458,30-30,30
		s-30-13.458-30-30h-30c0,12.904,4.109,24.86,11.067,34.656c-49.735,9.575-95.48,33.717-132.087,70.324
		C26.629,153.333,0,217.62,0,286v76c0,82.71,67.29,150,150,150c28.879,0,56.924-8.23,81.103-23.801
		c15.126-9.736,34.672-9.737,49.794,0C305.076,503.77,333.121,512,362,512c82.71,0,150-67.29,150-150v-76
		C512,217.62,485.371,153.333,437.02,104.98z M256,60c119.736,0,218.005,93.601,225.52,211.474C454.103,235.365,410.731,212,362,212
		H150c-48.732,0-92.103,23.365-119.52,59.474C37.995,153.601,136.264,60,256,60z M362,482c-23.106,0-45.535-6.578-64.862-19.023
		c-12.495-8.046-26.816-12.068-41.138-12.068s-28.644,4.022-41.139,12.068C195.535,475.422,173.106,482,150,482
		c-66.168,0-120-53.832-120-120s53.832-120,120-120h212c66.168,0,120,53.832,120,120S428.168,482,362,482z"/>
	<path d="M150,302c-35.773,0-68.15,21.193-82.485,53.993L64.889,362l2.626,6.007C81.85,400.807,114.227,422,150,422
		s68.15-21.193,82.485-53.993l2.626-6.007l-2.626-6.007C218.15,323.193,185.773,302,150,302z M150,392
		c-21.589,0-41.323-11.58-51.962-30c10.639-18.42,30.373-30,51.962-30s41.323,11.58,51.962,30C191.323,380.42,171.589,392,150,392z"
		/>
	<path d="M362,302c-35.773,0-68.15,21.193-82.485,53.993L276.889,362l2.626,6.007C293.85,400.807,326.227,422,362,422
		s68.15-21.193,82.485-53.993l2.626-6.007l-2.626-6.007C430.15,323.193,397.773,302,362,302z M362,392
		c-21.589,0-41.323-11.58-51.962-30c10.639-18.42,30.373-30,51.962-30s41.323,11.58,51.962,30C403.323,380.42,383.589,392,362,392z"
		/>
</g>
<g>
</g>
<g>
</g>
<g>
</g>
<g>
</g>
<g>
</g>
<g>
</g>
<g>
</g>
<g>
</g>
<g>
</g>
<g>
</g>
<g>
</g>
<g>
</g>
<g>
</g>
<g>
</g>
<g>
</g>
</svg>
