<?xml version="1.0" encoding="iso-8859-1"?>
<!-- Generator: Adobe Illustrator 24.2.1, SVG Export Plug-In . SVG Version: 6.00 Build 0)  -->
<svg version="1.1" id="Capa_1" xmlns="http://www.w3.org/2000/svg" xmlns:xlink="http://www.w3.org/1999/xlink" x="0px" y="0px"
	 viewBox="0 0 512 512" style="enable-background:new 0 0 512 512;" xml:space="preserve">
<g>
	<path d="M332,0c-99.252,0-180,80.748-180,180c0,33.336,9.12,64.578,24.98,91.38L0,448.36L63.64,512l176.98-176.98
		C267.422,350.88,298.664,360,332,360c99.252,0,180-80.748,180-180S431.252,0,332,0z M478.414,147.366
		c-42.161-23.384-94.528-21.869-135.372,4.531c-0.897-43.671,26.669-84.214,69.339-98.489
		C445.386,74.44,469.649,108.015,478.414,147.366z M262.563,47.073C283.337,36.177,306.959,30,332,30
		c15.653,0,30.752,2.414,44.948,6.883c-41.333,24.821-66.206,70.931-63.765,119.503C274.91,135.325,253.58,91.17,262.563,47.073z
		 M230.535,69.629c0.87,48.162,28.355,92.704,71.607,114.859c-37.384,22.62-86.299,19.009-119.998-10.835
		C183.862,132.58,202.171,95.725,230.535,69.629z M63.64,469.574L42.427,448.36l152.195-152.195
		c6.473,7.643,13.57,14.74,21.214,21.214L63.64,469.574z M185.586,212.634c19.803,10.983,41.858,16.478,63.914,16.478
		c24.901,0,49.799-7.009,71.458-21.009c0.897,43.671-26.669,84.214-69.339,98.489C218.614,285.56,194.351,251.985,185.586,212.634z
		 M401.437,312.927C380.663,323.823,357.041,330,332,330c-15.653,0-30.752-2.414-44.948-6.883
		c41.333-24.821,66.206-70.931,63.765-119.503C389.09,224.675,410.42,268.83,401.437,312.927z M433.465,290.371
		c-0.87-48.162-28.355-92.704-71.607-114.859c37.384-22.62,86.299-19.009,119.998,10.835
		C480.138,227.42,461.829,264.275,433.465,290.371z"/>
</g>
<g>
</g>
<g>
</g>
<g>
</g>
<g>
</g>
<g>
</g>
<g>
</g>
<g>
</g>
<g>
</g>
<g>
</g>
<g>
</g>
<g>
</g>
<g>
</g>
<g>
</g>
<g>
</g>
<g>
</g>
</svg>
