<?xml version="1.0" encoding="iso-8859-1"?>
<!-- Generator: Adobe Illustrator 24.2.1, SVG Export Plug-In . SVG Version: 6.00 Build 0)  -->
<svg version="1.1" id="Capa_1" xmlns="http://www.w3.org/2000/svg" xmlns:xlink="http://www.w3.org/1999/xlink" x="0px" y="0px"
	 viewBox="0 0 512 512" style="enable-background:new 0 0 512 512;" xml:space="preserve">
<g>
	<path d="M256,181c-41.355,0-75,33.645-75,75s33.645,75,75,75s75-33.645,75-75S297.355,181,256,181z M256,301
		c-24.813,0-45-20.187-45-45s20.187-45,45-45s45,20.187,45,45S280.813,301,256,301z"/>
	<path d="M397.17,256l73.022-73.32c14.719-14.374,17.811-36.838,7.51-54.68c-10.3-17.84-31.3-26.394-51.107-20.837l-100.01,26.58
		l-26.986-99.901C294.508,13.909,276.6,0,256,0c-20.602,0-38.51,13.909-43.599,33.844l-26.986,99.899l-100.01-26.58
		C65.597,101.606,44.597,110.16,34.297,128c-10.301,17.842-7.209,40.305,7.51,54.68L114.83,256l-73.024,73.322
		C27.089,343.697,23.998,366.16,34.297,384c10.301,17.842,31.301,26.396,51.109,20.836l100.008-26.579l26.986,99.899
		C217.49,498.091,235.398,512,256,512c20.6,0,38.508-13.909,43.599-33.842l26.987-99.901l100.008,26.579
		c19.808,5.56,40.808-2.995,51.109-20.836c10.3-17.84,7.208-40.303-7.509-54.678L397.17,256z M434.411,136.128l0.244-0.067
		c6.607-1.875,13.625,0.978,17.067,6.939s2.404,13.466-2.524,18.25l-14.408,14.466l-19.866-34.409L434.411,136.128z
		 M384.891,149.289l27.97,48.445l-25.793,25.897c-6.211-25.142-19.481-47.532-37.585-64.932L384.891,149.289z M241.393,41.556
		l0.064-0.245C243.136,34.651,249.116,30,256,30s12.864,4.651,14.543,11.311l5.324,19.711h-39.732L241.393,41.556z M228.031,91.021
		h55.94l9.53,35.283C281.59,122.855,269.008,121,256,121c-13.008,0-25.589,1.855-37.5,5.304L228.031,91.021z M77.211,175.715
		l-14.229-14.287l-0.18-0.178c-4.928-4.783-5.966-12.288-2.524-18.25s10.46-8.815,17.067-6.939l19.732,5.245L77.211,175.715z
		 M99.14,197.733l27.97-48.445l35.408,9.411c-18.104,17.4-31.374,39.79-37.585,64.932L99.14,197.733z M77.589,375.872l-0.244,0.067
		c-6.606,1.876-13.625-0.978-17.067-6.939s-2.404-13.466,2.524-18.25l14.408-14.466l19.866,34.409L77.589,375.872z M127.109,362.711
		l-27.97-48.445l25.793-25.897c6.211,25.142,19.48,47.532,37.585,64.932L127.109,362.711z M270.607,470.444l-0.064,0.245
		C268.864,477.349,262.884,482,256,482s-12.864-4.651-14.543-11.311l-5.324-19.711h39.732L270.607,470.444z M283.969,420.979h-55.94
		l-9.53-35.283C230.41,389.145,242.992,391,256,391c13.008,0,25.589-1.855,37.5-5.304L283.969,420.979z M256,361
		c-57.897,0-105-47.103-105-105s47.103-105,105-105s105,47.103,105,105S313.897,361,256,361z M384.89,362.712l-35.408-9.411
		c18.104-17.4,31.374-39.79,37.585-64.932l25.792,25.898L384.89,362.712z M451.722,369c-3.442,5.962-10.46,8.815-17.067,6.939
		l-19.732-5.245l19.866-34.409l14.229,14.287l0.18,0.178C454.125,355.534,455.164,363.038,451.722,369z"/>
</g>
<g>
</g>
<g>
</g>
<g>
</g>
<g>
</g>
<g>
</g>
<g>
</g>
<g>
</g>
<g>
</g>
<g>
</g>
<g>
</g>
<g>
</g>
<g>
</g>
<g>
</g>
<g>
</g>
<g>
</g>
</svg>
