<?xml version="1.0" encoding="iso-8859-1"?>
<!-- Generator: Adobe Illustrator 24.2.1, SVG Export Plug-In . SVG Version: 6.00 Build 0)  -->
<svg version="1.1" id="Capa_1" xmlns="http://www.w3.org/2000/svg" xmlns:xlink="http://www.w3.org/1999/xlink" x="0px" y="0px"
	 viewBox="0 0 512 512" style="enable-background:new 0 0 512 512;" xml:space="preserve">
<g>
	<path d="M348,360c-30.206,0-57.525,12.585-77,32.783v-77.824C283.544,324.397,299.129,330,316,330h75v-15
		c0-34.772-23.789-64.086-55.945-72.54c29.492-23.374,48.445-59.494,48.445-99.96V60h-50.73l-30-60h-93.541l-30,60H128.5v82.5
		c0,40.467,18.953,76.587,48.445,99.96C144.789,250.914,121,280.228,121,315v15h75c16.871,0,32.456-5.603,45-15.041v107.824
		C221.525,402.585,194.206,390,164,390H44v15c0,59,48,107,107,107h120v-30h90c59,0,107-48,107-107v-15H348z M75.467,420h29.59
		c3.293,23.368,14.157,44.335,30.031,60.33C105.073,473.996,81.442,450.143,75.467,420z M211,482c-37.325,0-68.522-26.699-75.522-62
		H164c37.327,0,68.536,26.697,75.533,62H211z M358.43,300H316c-19.557,0-36.239-12.539-42.43-30H316
		C335.557,270,352.239,282.539,358.43,300z M227.771,30h56.459l15,30h-86.459L227.771,30z M196,300h-42.43
		c6.191-17.461,22.874-30,42.43-30h42.43C232.239,287.461,215.556,300,196,300z M256,240c-53.762,0-97.5-43.738-97.5-97.5V90h195
		v52.5C353.5,196.262,309.762,240,256,240z M301,452h-28.533c6.998-35.303,38.206-62,75.533-62h28.522
		C369.522,425.301,338.325,452,301,452z M376.913,450.33c15.873-15.995,26.738-36.963,30.031-60.33h29.59
		C430.558,420.143,406.927,443.996,376.913,450.33z"/>
</g>
<g>
</g>
<g>
</g>
<g>
</g>
<g>
</g>
<g>
</g>
<g>
</g>
<g>
</g>
<g>
</g>
<g>
</g>
<g>
</g>
<g>
</g>
<g>
</g>
<g>
</g>
<g>
</g>
<g>
</g>
</svg>
