<?xml version="1.0" encoding="iso-8859-1"?>
<!-- Generator: Adobe Illustrator 24.2.1, SVG Export Plug-In . SVG Version: 6.00 Build 0)  -->
<svg version="1.1" id="Capa_1" xmlns="http://www.w3.org/2000/svg" xmlns:xlink="http://www.w3.org/1999/xlink" x="0px" y="0px"
	 viewBox="0 0 512 512" style="enable-background:new 0 0 512 512;" xml:space="preserve">
<g>
	<rect x="430.393" y="51.607" transform="matrix(0.7071 -0.7071 0.7071 0.7071 83.3547 334.4497)" width="30" height="30"/>
	<rect x="472.819" y="94.033" transform="matrix(0.7071 -0.7071 0.7071 0.7071 65.7803 376.8749)" width="30" height="30"/>
	<rect x="387.967" y="9.181" transform="matrix(0.7071 -0.7071 0.7071 0.7071 100.9279 292.0227)" width="30" height="30"/>
	<path d="M315.146,0L146.181,281.15L0,449.822L62.178,512l168.671-146.182L512,196.854L315.146,0z M63.639,471.035l-22.674-22.674
		l78.792-90.914l34.796,34.796L63.639,471.035z M177.28,372.545l-37.826-37.826l19.698-22.729l40.857,40.856L177.28,372.545z
		 M224.326,334.738l-47.065-47.065l32.356-53.838c32.47,26.546,72.101,40.862,112.423,42.18L224.326,334.738z M409.365,223.536
		c-58.799,35.336-132.87,28.523-184.097-15.743l63.962-106.429l121.408,121.408L409.365,223.536z M305.156,74.863l15.926-26.5
		l142.556,142.557l-26.5,15.926L305.156,74.863z"/>
</g>
<g>
</g>
<g>
</g>
<g>
</g>
<g>
</g>
<g>
</g>
<g>
</g>
<g>
</g>
<g>
</g>
<g>
</g>
<g>
</g>
<g>
</g>
<g>
</g>
<g>
</g>
<g>
</g>
<g>
</g>
</svg>
