<?xml version="1.0" encoding="iso-8859-1"?>
<!-- Generator: Adobe Illustrator 24.2.1, SVG Export Plug-In . SVG Version: 6.00 Build 0)  -->
<svg version="1.1" id="Capa_1" xmlns="http://www.w3.org/2000/svg" xmlns:xlink="http://www.w3.org/1999/xlink" x="0px" y="0px"
	 viewBox="0 0 512 512" style="enable-background:new 0 0 512 512;" xml:space="preserve">
<g>
	<path d="M256,0L41.551,449.866l11.828,6.978C114.542,492.928,184.608,512,256,512c71.392,0,141.457-19.072,202.621-55.156
		l11.828-6.978L256,0z M256,69.715l53.073,111.337c-31.42-7.538-60.678-22.849-84.895-44.582L256,69.715z M210.798,164.54
		c32.569,27.005,72.237,44.404,114.211,49.941l43.994,92.29c-4.355,0.177-8.717,0.267-13.068,0.267
		c-41.142,0-81.278-7.824-119.295-23.254c-23.245-9.435-45.215-21.563-65.47-36.113L210.798,164.54z M158.071,275.15
		c20.953,14.558,43.513,26.782,67.286,36.431c41.618,16.893,85.55,25.457,130.578,25.457c8.997,0,18.037-0.356,26.998-1.045
		l13.75,28.845c-13.493,1.451-27.13,2.2-40.748,2.2c-48.915,0-96.643-9.306-141.86-27.658
		c-24.303-9.864-47.483-22.226-69.074-36.811L158.071,275.15z M256,482c-61.432,0-121.794-15.263-175.44-44.25l51.394-107.815
		c22.246,14.666,46.002,27.162,70.837,37.241c48.818,19.814,100.342,29.861,153.143,29.861c18.198,0,36.433-1.232,54.367-3.63
		l21.137,44.342C377.794,466.737,317.432,482,256,482z"/>
</g>
<g>
</g>
<g>
</g>
<g>
</g>
<g>
</g>
<g>
</g>
<g>
</g>
<g>
</g>
<g>
</g>
<g>
</g>
<g>
</g>
<g>
</g>
<g>
</g>
<g>
</g>
<g>
</g>
<g>
</g>
</svg>
