<?xml version="1.0" encoding="iso-8859-1"?>
<!-- Generator: Adobe Illustrator 24.2.1, SVG Export Plug-In . SVG Version: 6.00 Build 0)  -->
<svg version="1.1" id="Capa_1" xmlns="http://www.w3.org/2000/svg" xmlns:xlink="http://www.w3.org/1999/xlink" x="0px" y="0px"
	 viewBox="0 0 512 512" style="enable-background:new 0 0 512 512;" xml:space="preserve">
<g>
	<path d="M433.079,124.154L362.134,0H149.866L78.921,124.154L0,171.507V512h512V171.507L433.079,124.154z M319.047,30L256,97.947
		L192.953,30H319.047z M30,482V188.493l45-27v217.436c0,26.286,9.768,51.446,27.504,70.847L131.964,482H30z M151,458.361
		l-26.354-28.828C111.977,415.676,105,397.704,105,378.929v-205.29l46,50.317V458.361z M108.448,132.949l53.016-92.778
		l66.105,71.242c-11.855,5.647-22.047,14.829-29.242,26.795l-34.571,55.238L108.448,132.949z M241,482h-60V256.771l60,65.631V482z
		 M184.764,216.426l39.067-62.421l0.157-0.256C231.012,142.009,242.979,135,256,135c13.021,0,24.988,7.009,32.012,18.748
		l39.225,62.678L256,294.348L184.764,216.426z M331,482h-60V322.403l60-65.631V482z M313.672,138.206
		c-7.195-11.966-17.386-21.147-29.24-26.793l66.104-71.241l53.015,92.777l-55.307,60.497L313.672,138.206z M361,223.956l46-50.317
		v205.29c0,18.775-6.977,36.747-19.646,50.604L361,458.361V223.956z M482,482H380.037l29.46-32.225
		c14.866-16.261,24.13-36.57,26.739-58.196H482V482z M482,361.579h-45v-30h45V361.579z M482,301.579h-45V161.493l45,27V301.579z"/>
	<rect x="241" y="173.434" width="30" height="30"/>
</g>
<g>
</g>
<g>
</g>
<g>
</g>
<g>
</g>
<g>
</g>
<g>
</g>
<g>
</g>
<g>
</g>
<g>
</g>
<g>
</g>
<g>
</g>
<g>
</g>
<g>
</g>
<g>
</g>
<g>
</g>
</svg>
