<?xml version="1.0" encoding="iso-8859-1"?>
<!-- Generator: Adobe Illustrator 24.2.1, SVG Export Plug-In . SVG Version: 6.00 Build 0)  -->
<svg version="1.1" id="Capa_1" xmlns="http://www.w3.org/2000/svg" xmlns:xlink="http://www.w3.org/1999/xlink" x="0px" y="0px"
	 viewBox="0 0 512 512" style="enable-background:new 0 0 512 512;" xml:space="preserve">
<g>
	<path d="M393.682,271.924l-26.951-34.347l34.176-84.354c3.272-7.936,5.094-16.62,5.094-25.724V0h-30v60h-37.5
		c-25.043,0-46.928,13.719-58.578,34.027c-4.99,8.666-13.922,13.849-23.922,13.849s-18.932-5.184-23.894-13.865
		C220.428,73.719,198.543,60,173.5,60H136V0h-30v127.5c0,9.104,1.822,17.788,5.104,25.72c-0.01,0.004,34.166,84.358,34.166,84.358
		l-26.951,34.347c-27.557,35.119-35.971,81.495-22.508,124.056L132.513,512h246.975l36.702-116.021
		C429.652,353.419,421.238,307.043,393.682,271.924z M338.5,90H376v37.5c0,20.678-16.822,37.5-37.5,37.5S301,148.178,301,127.5
		S317.822,90,338.5,90z M136,127.5V90h37.5c20.678,0,37.5,16.822,37.5,37.5S194.178,165,173.5,165S136,148.178,136,127.5z
		 M387.586,386.931L357.513,482H154.487l-30.073-95.069c-10.472-33.103-3.928-69.173,17.506-96.487l37.682-48.021l-19.778-48.818
		c4.418,0.913,8.992,1.395,13.677,1.395c34.41,0,62.868-25.887,66.972-59.205c4.962,1.364,10.171,2.081,15.528,2.081
		s10.566-0.716,15.528-2.081C275.632,169.113,304.09,195,338.5,195c4.685,0,9.259-0.482,13.677-1.395l-19.778,48.818l37.682,48.021
		C391.514,317.758,398.058,353.828,387.586,386.931z"/>
</g>
<g>
</g>
<g>
</g>
<g>
</g>
<g>
</g>
<g>
</g>
<g>
</g>
<g>
</g>
<g>
</g>
<g>
</g>
<g>
</g>
<g>
</g>
<g>
</g>
<g>
</g>
<g>
</g>
<g>
</g>
</svg>
