<?xml version="1.0" encoding="iso-8859-1"?>
<!-- Generator: Adobe Illustrator 24.2.1, SVG Export Plug-In . SVG Version: 6.00 Build 0)  -->
<svg version="1.1" id="Capa_1" xmlns="http://www.w3.org/2000/svg" xmlns:xlink="http://www.w3.org/1999/xlink" x="0px" y="0px"
	 viewBox="0 0 512 512" style="enable-background:new 0 0 512 512;" xml:space="preserve">
<g>
	<path d="M482,272v-90h-15v-68.379c0-23.433-6.628-46.222-19.167-65.903c-12.188-19.13-29.385-34.512-49.732-44.483L391.5,0
		l-6.601,3.234c-20.348,9.972-37.545,25.354-49.732,44.483C322.628,67.399,316,90.188,316,113.621V182h-15v90h-30v240h241V272H482z
		 M346,113.621c0-33.209,17.253-63.18,45.5-79.886c28.247,16.706,45.5,46.677,45.5,79.886V182h-91V113.621z M331,212h121v60H331V212
		z M482,482H301V302h181V482z"/>
	<path d="M181,182H60c-33.084,0-60,26.916-60,60v270h241V242C241,208.916,214.084,182,181,182z M211,482H30V302
		c0-16.542,13.458-30,30-30h121c16.542,0,30,13.458,30,30V482z M211,250.072c-8.833-5.123-19.075-8.072-30-8.072H60
		c-10.925,0-21.167,2.949-30,8.072V242c0-16.542,13.458-30,30-30h121c16.542,0,30,13.458,30,30V250.072z"/>
</g>
<g>
</g>
<g>
</g>
<g>
</g>
<g>
</g>
<g>
</g>
<g>
</g>
<g>
</g>
<g>
</g>
<g>
</g>
<g>
</g>
<g>
</g>
<g>
</g>
<g>
</g>
<g>
</g>
<g>
</g>
</svg>
