<?xml version="1.0" encoding="iso-8859-1"?>
<!-- Generator: Adobe Illustrator 24.2.1, SVG Export Plug-In . SVG Version: 6.00 Build 0)  -->
<svg version="1.1" id="Capa_1" xmlns="http://www.w3.org/2000/svg" xmlns:xlink="http://www.w3.org/1999/xlink" x="0px" y="0px"
	 viewBox="0 0 512 512" style="enable-background:new 0 0 512 512;" xml:space="preserve">
<g>
	<rect x="60" y="75" width="30" height="30"/>
	<rect x="242" y="407" width="30" height="30"/>
	<path d="M452,15H60C26.916,15,0,41.916,0,75v362c0,33.084,26.916,60,60,60h392c33.084,0,60-26.916,60-60V75
		C512,41.916,485.084,15,452,15z M302,437c0,16.542-13.458,30-30,30H60c-16.542,0-30-13.458-30-30V75c0-16.542,13.458-30,30-30h212
		c16.542,0,30,13.458,30,30V437z M422,437c0,16.542-13.458,30-30,30h-68.072c5.123-8.833,8.072-19.075,8.072-30h60V75h-60
		c0-10.925-2.949-21.167-8.072-30H392c16.542,0,30,13.458,30,30V437z M332,407V105h30v302H332z M482,437c0,16.542-13.458,30-30,30
		h-8.072c5.123-8.833,8.072-19.075,8.072-30V75c0-10.925-2.949-21.167-8.072-30H452c16.542,0,30,13.458,30,30V437z"/>
	<path d="M195,160.433c-10.621,0-20.944,2.803-30,8.038c-9.056-5.235-19.379-8.038-30-8.038c-33.084,0-60,26.916-60,60
		c0,13.855,4.839,27.376,13.621,38.063L165,351.566l76.374-93.063C250.161,247.81,255,234.289,255,220.433
		C255,187.349,228.084,160.433,195,160.433z M218.195,239.457L165,304.277l-53.195-64.819c-4.452-5.419-6.805-11.997-6.805-19.025
		c0-16.542,13.458-30,30-30c7.388,0,14.489,2.715,19.995,7.644L165,207.033l10.005-8.957c5.506-4.929,12.607-7.644,19.995-7.644
		c16.542,0,30,13.458,30,30C225,227.461,222.647,234.04,218.195,239.457z"/>
</g>
<g>
</g>
<g>
</g>
<g>
</g>
<g>
</g>
<g>
</g>
<g>
</g>
<g>
</g>
<g>
</g>
<g>
</g>
<g>
</g>
<g>
</g>
<g>
</g>
<g>
</g>
<g>
</g>
<g>
</g>
</svg>
