<?xml version="1.0" encoding="iso-8859-1"?>
<!-- Generator: Adobe Illustrator 24.2.1, SVG Export Plug-In . SVG Version: 6.00 Build 0)  -->
<svg version="1.1" id="Capa_1" xmlns="http://www.w3.org/2000/svg" xmlns:xlink="http://www.w3.org/1999/xlink" x="0px" y="0px"
	 viewBox="0 0 512 512" style="enable-background:new 0 0 512 512;" xml:space="preserve">
<g>
	<path d="M0,0v512h512V0H0z M482,482H30V30h452V482z"/>
	<path d="M452,60H60v392h392V60z M234.8,90h42.4v42.4h-42.4V90z M162.4,90h42.4v42.4h-42.4V90z M132.4,422H90v-42.4h42.4V422z
		 M132.4,349.6H90V307.2h42.4V349.6z M132.4,277.2H90v-42.4h42.4V277.2z M132.4,204.8H90V162.4h42.4V204.8z M132.4,132.4H90V90h42.4
		V132.4z M204.8,422h-42.4v-42.4h42.4V422z M277.2,422h-42.4v-42.4h42.4V422z M349.6,422h-42.4v-42.4h42.4V422z M349.6,349.6H162.4
		V162.4h187.2V349.6z M349.6,132.4h-42.4V90h42.4V132.4z M422,422h-42.4v-42.4H422V422z M422,349.6h-42.4V307.2H422V349.6z
		 M422,277.2h-42.4v-42.4H422V277.2z M422,204.8h-42.4V162.4H422V204.8z M422,132.4h-42.4V90H422V132.4z"/>
	<path d="M256,319.6c35.069,0,63.6-28.53,63.6-63.6s-28.531-63.6-63.6-63.6s-63.6,28.53-63.6,63.6S220.931,319.6,256,319.6z
		 M256,222.4c18.527,0,33.6,15.072,33.6,33.6s-15.073,33.6-33.6,33.6s-33.6-15.072-33.6-33.6S237.473,222.4,256,222.4z"/>
</g>
<g>
</g>
<g>
</g>
<g>
</g>
<g>
</g>
<g>
</g>
<g>
</g>
<g>
</g>
<g>
</g>
<g>
</g>
<g>
</g>
<g>
</g>
<g>
</g>
<g>
</g>
<g>
</g>
<g>
</g>
</svg>
