<?xml version="1.0" encoding="iso-8859-1"?>
<!-- Generator: Adobe Illustrator 24.2.1, SVG Export Plug-In . SVG Version: 6.00 Build 0)  -->
<svg version="1.1" id="Capa_1" xmlns="http://www.w3.org/2000/svg" xmlns:xlink="http://www.w3.org/1999/xlink" x="0px" y="0px"
	 viewBox="0 0 512 512" style="enable-background:new 0 0 512 512;" xml:space="preserve">
<g>
	<rect x="138.149" y="298.851" transform="matrix(0.7071 -0.7071 0.7071 0.7071 -208.8898 213.3978)" width="30" height="120"/>
	<path d="M340.429,235.211L512,63.64L448.36,0L276.789,171.571l-16.268-16.268c-26.536-26.536-69.715-26.536-96.252,0
		c-4.177,4.177-7.796,8.886-10.758,13.996l-21.133,36.461c-37.415-1.053-71.181,11.697-95.902,36.417
		C9.638,269.017-3.09,306.518,0.637,347.774C4.271,388.012,23.24,427.14,54.05,457.949c30.81,30.81,69.937,49.779,110.176,53.414
		c41.255,3.726,78.757-9.002,105.595-35.84c24.72-24.72,37.47-58.488,36.417-95.902l36.463-21.133
		c5.109-2.962,9.817-6.582,13.994-10.759c26.536-26.537,26.537-69.715,0.001-96.251L340.429,235.211z M448.36,42.426l21.214,21.214
		l-42.426,42.427l-21.214-21.214L448.36,42.426z M384.72,106.066l21.214,21.214l-21.213,21.213l-21.214-21.213L384.72,106.066z
		 M342.294,148.492l21.214,21.214l-84.422,84.422c-2.515-4.268-5.603-8.288-9.264-11.95c-3.661-3.661-7.682-6.749-11.949-9.264
		L342.294,148.492z M335.482,326.517c-2.336,2.336-4.97,4.361-7.826,6.017l-52.734,30.564l0.861,9.529
		c2.912,32.239-6.739,61.248-27.175,81.685c-42.946,42.947-120.708,35.063-173.345-17.574S14.743,306.338,57.689,263.392
		c20.436-20.437,49.445-30.088,81.684-27.176l9.529,0.861l30.564-52.733c1.657-2.858,3.681-5.491,6.016-7.826
		c14.84-14.84,38.986-14.84,53.825,0l16.268,16.268l-31.983,31.983c-14.073,0.886-27.893,6.68-38.624,17.411
		c-23.394,23.394-23.394,61.459,0,84.853c23.394,23.394,61.459,23.394,84.853,0c10.731-10.731,16.525-24.55,17.411-38.624
		l31.983-31.983l16.267,16.267C350.323,287.531,350.322,311.677,335.482,326.517z M248.608,305.818
		c-11.697,11.697-30.729,11.697-42.426,0c-11.697-11.697-11.697-30.729,0-42.426c11.697-11.697,30.729-11.697,42.426,0
		C260.305,275.088,260.305,294.121,248.608,305.818z"/>
</g>
<g>
</g>
<g>
</g>
<g>
</g>
<g>
</g>
<g>
</g>
<g>
</g>
<g>
</g>
<g>
</g>
<g>
</g>
<g>
</g>
<g>
</g>
<g>
</g>
<g>
</g>
<g>
</g>
<g>
</g>
</svg>
