<?xml version="1.0" encoding="iso-8859-1"?>
<!-- Generator: Adobe Illustrator 24.2.1, SVG Export Plug-In . SVG Version: 6.00 Build 0)  -->
<svg version="1.1" id="Capa_1" xmlns="http://www.w3.org/2000/svg" xmlns:xlink="http://www.w3.org/1999/xlink" x="0px" y="0px"
	 viewBox="0 0 512 512" style="enable-background:new 0 0 512 512;" xml:space="preserve">
<g>
	<path d="M391.667,107V0H120.333v107H0v405h512V107H391.667z M150.333,30h211.334v77H150.333V30z M150.333,137h211.334v150H150.333
		V137z M30,137h90.333v150H30V137z M422,482H90V377h30.333v75h30v-75h30.334v75h30v-75H241v75h30v-75h30.333v75h30v-75h30.334v75h30
		v-75H422V482z M482,482h-30V347H60v135H30V317h452V482z M482,287h-90.333V137H482V287z"/>
	<path d="M180.667,257h150.666v-90H180.667V257z M210.667,197h90.666v30h-90.666V197z"/>
</g>
<g>
</g>
<g>
</g>
<g>
</g>
<g>
</g>
<g>
</g>
<g>
</g>
<g>
</g>
<g>
</g>
<g>
</g>
<g>
</g>
<g>
</g>
<g>
</g>
<g>
</g>
<g>
</g>
<g>
</g>
</svg>
