<?xml version="1.0" encoding="iso-8859-1"?>
<!-- Generator: Adobe Illustrator 24.2.1, SVG Export Plug-In . SVG Version: 6.00 Build 0)  -->
<svg version="1.1" id="Capa_1" xmlns="http://www.w3.org/2000/svg" xmlns:xlink="http://www.w3.org/1999/xlink" x="0px" y="0px"
	 viewBox="0 0 512 512" style="enable-background:new 0 0 512 512;" xml:space="preserve">
<g>
	<path d="M466,60c-24.813,0-45,20.187-45,45v47.58c-4.695-1.665-9.741-2.58-15-2.58c-11.517,0-22.032,4.354-30,11.495
		C368.032,154.354,357.517,150,346,150c-5.259,0-10.305,0.915-15,2.58V45c0-24.813-20.187-45-45-45
		c-11.517,0-22.032,4.354-30,11.495C248.032,4.354,237.517,0,226,0c-24.813,0-45,20.187-45,45v107.58
		c-4.695-1.665-9.741-2.58-15-2.58c-11.517,0-22.032,4.354-30,11.495C128.032,154.354,117.517,150,106,150
		c-5.259,0-10.305,0.915-15,2.58V105c0-24.813-20.187-45-45-45S1,80.187,1,105v407h510V105C511,80.187,490.813,60,466,60z M151,195
		c0-8.271,6.729-15,15-15s15,6.729,15,15v47c0,8.271-6.729,15-15,15s-15-6.729-15-15V195z M91,195c0-8.271,6.729-15,15-15
		s15,6.729,15,15v47c0,8.271-6.729,15-15,15s-15-6.729-15-15V195z M241,482H31v-30h210V482z M241,422H31V105c0-8.271,6.729-15,15-15
		s15,6.729,15,15v137c0,24.813,20.187,45,45,45c11.517,0,22.032-4.354,30-11.495c7.968,7.141,18.483,11.495,30,11.495
		c5.259,0,10.305-0.915,15-2.58v34.087c-34.19,6.97-60,37.274-60,73.493h30c0-24.813,20.187-45,45-45h15V225c0-8.271,6.729-15,15-15
		s15,6.729,15,15V422z M241,182.58c-4.695-1.665-9.741-2.58-15-2.58s-10.305,0.915-15,2.58V45c0-8.271,6.729-15,15-15
		s15,6.729,15,15V182.58z M391,195c0-8.271,6.729-15,15-15s15,6.729,15,15v47c0,8.271-6.729,15-15,15s-15-6.729-15-15V195z M331,195
		c0-8.271,6.729-15,15-15s15,6.729,15,15v47c0,8.271-6.729,15-15,15s-15-6.729-15-15V195z M271,45c0-8.271,6.729-15,15-15
		s15,6.729,15,15v137.58c-4.695-1.665-9.741-2.58-15-2.58s-10.305,0.915-15,2.58V45z M481,482H271v-30h210V482z M481,422H271V225
		c0-8.271,6.729-15,15-15s15,6.729,15,15v122h15c24.813,0,45,20.187,45,45h30c0-36.219-25.81-66.523-60-73.493V284.42
		c4.695,1.665,9.741,2.58,15,2.58c11.517,0,22.032-4.354,30-11.495c7.968,7.141,18.483,11.495,30,11.495c24.813,0,45-20.187,45-45
		V105c0-8.271,6.729-15,15-15s15,6.729,15,15V422z"/>
</g>
<g>
</g>
<g>
</g>
<g>
</g>
<g>
</g>
<g>
</g>
<g>
</g>
<g>
</g>
<g>
</g>
<g>
</g>
<g>
</g>
<g>
</g>
<g>
</g>
<g>
</g>
<g>
</g>
<g>
</g>
</svg>
