<?xml version="1.0" encoding="iso-8859-1"?>
<!-- Generator: Adobe Illustrator 24.2.1, SVG Export Plug-In . SVG Version: 6.00 Build 0)  -->
<svg version="1.1" id="Capa_1" xmlns="http://www.w3.org/2000/svg" xmlns:xlink="http://www.w3.org/1999/xlink" x="0px" y="0px"
	 viewBox="0 0 512 512" style="enable-background:new 0 0 512 512;" xml:space="preserve">
<g>
	<path d="M476.909,35.091c-46.788-46.788-122.918-46.788-169.706,0l-42.426,42.427c-17.424,17.424-28.803,39.207-33.149,62.892
		c-14.085-2.601-29.18,1.527-40.052,12.398c-14.106,14.106-16.861,35.321-8.285,52.215L0,423.788L88.212,512l218.777-183.3
		c16.887,8.549,38.077,5.787,52.171-8.307c10.862-10.862,14.992-25.941,12.405-40.016c23.695-4.343,45.487-15.723,62.918-33.154
		l42.426-42.427C523.697,158.009,523.697,81.879,476.909,35.091z M90.001,471.363l-49.363-49.364L77.04,378.55l56.409,56.409
		L90.001,471.363z M156.535,415.618l-60.153-60.153l58.024-69.255l71.383,71.383L156.535,415.618z M248.875,338.253l-75.127-75.127
		l29.407-35.099l80.819,80.819L248.875,338.253z M337.947,299.179c-5.849,5.849-15.365,5.849-21.213,0L212.789,195.235
		c-5.848-5.848-5.849-15.364,0-21.213s15.365-5.849,21.213,0l103.945,103.945C343.795,283.815,343.796,293.331,337.947,299.179z
		 M354.613,252.206l-94.819-94.819c0.923-17.14,6.621-33.359,16.48-47.16l125.499,125.499
		C387.972,245.585,371.753,251.283,354.613,252.206z M455.696,183.583l-31.82,31.82L296.597,88.124l31.82-31.82
		c35.091-35.091,92.188-35.091,127.279,0C490.787,91.395,490.787,148.492,455.696,183.583z"/>
	<rect x="143.278" y="338.722" transform="matrix(0.7071 -0.7071 0.7071 0.7071 -203.7606 215.5218)" width="30" height="30"/>
</g>
<g>
</g>
<g>
</g>
<g>
</g>
<g>
</g>
<g>
</g>
<g>
</g>
<g>
</g>
<g>
</g>
<g>
</g>
<g>
</g>
<g>
</g>
<g>
</g>
<g>
</g>
<g>
</g>
<g>
</g>
</svg>
