<?xml version="1.0" encoding="iso-8859-1"?>
<!-- Generator: Adobe Illustrator 24.2.1, SVG Export Plug-In . SVG Version: 6.00 Build 0)  -->
<svg version="1.1" id="Capa_1" xmlns="http://www.w3.org/2000/svg" xmlns:xlink="http://www.w3.org/1999/xlink" x="0px" y="0px"
	 viewBox="0 0 512 512" style="enable-background:new 0 0 512 512;" xml:space="preserve">
<g>
	<path d="M60,0v132.655C21.249,174.526,0,228.626,0,286c0,60.367,23.508,117.12,66.194,159.807C108.879,488.492,165.633,512,226,512
		c57.374,0,111.474-21.248,153.345-60H512V0H60z M226,90c76.196,0,142.371,43.708,174.784,107.366l-84.54,35.018
		C297.909,201.64,264.322,181,226,181c-38.322,0-71.909,20.64-90.244,51.384l-84.54-35.017C83.629,133.708,149.804,90,226,90z
		 M327.761,260.085l84.531-35.014C418.583,244.259,422,264.736,422,286s-3.417,41.741-9.708,60.929l-84.531-35.014
		C329.874,303.623,331,294.94,331,286S329.874,268.377,327.761,260.085z M301,286c0,41.355-33.645,75-75,75
		c-41.355,0-75-33.645-75-75s33.645-75,75-75C267.355,211,301,244.645,301,286z M30,286c0-21.264,3.417-41.741,9.708-60.929
		l84.531,35.014C122.126,268.377,121,277.059,121,286s1.126,17.623,3.239,25.915l-84.531,35.014C33.417,327.741,30,307.264,30,286z
		 M226,482c-76.196,0-142.371-43.708-174.784-107.366l84.54-35.018C154.091,370.36,187.678,391,226,391
		c38.322,0,71.909-20.64,90.244-51.384l84.54,35.018C368.372,438.292,302.197,482,226,482z M482,422h-75.467
		C436.028,383.015,452,335.739,452,286c0-60.367-23.508-117.12-66.193-159.807C343.12,83.508,286.367,60,226,60
		c-49.738,0-97.015,15.972-136,45.468V30h392V422z"/>
	<path d="M226,241c-24.813,0-45,20.187-45,45s20.187,45,45,45s45-20.187,45-45S250.813,241,226,241z M226,301
		c-8.271,0-15-6.729-15-15s6.729-15,15-15s15,6.729,15,15S234.271,301,226,301z"/>
</g>
<g>
</g>
<g>
</g>
<g>
</g>
<g>
</g>
<g>
</g>
<g>
</g>
<g>
</g>
<g>
</g>
<g>
</g>
<g>
</g>
<g>
</g>
<g>
</g>
<g>
</g>
<g>
</g>
<g>
</g>
</svg>
