<?xml version="1.0" encoding="iso-8859-1"?>
<!-- Generator: Adobe Illustrator 24.2.1, SVG Export Plug-In . SVG Version: 6.00 Build 0)  -->
<svg version="1.1" id="Capa_1" xmlns="http://www.w3.org/2000/svg" xmlns:xlink="http://www.w3.org/1999/xlink" x="0px" y="0px"
	 viewBox="0 0 512 512" style="enable-background:new 0 0 512 512;" xml:space="preserve">
<g>
	<path d="M407,60c-24.813,0-45,20.187-45,45s20.187,45,45,45s45-20.187,45-45S431.813,60,407,60z M407,120c-8.271,0-15-6.729-15-15
		s6.729-15,15-15s15,6.729,15,15S415.271,120,407,120z"/>
	<path d="M407,332c24.813,0,45-20.187,45-45s-20.187-45-45-45s-45,20.187-45,45S382.187,332,407,332z M407,272
		c8.271,0,15,6.729,15,15s-6.729,15-15,15s-15-6.729-15-15S398.729,272,407,272z"/>
	<path d="M105,242c-24.813,0-45,20.187-45,45s20.187,45,45,45s45-20.187,45-45S129.813,242,105,242z M105,302
		c-8.271,0-15-6.729-15-15s6.729-15,15-15s15,6.729,15,15S113.271,302,105,302z"/>
	<path d="M105,150c24.813,0,45-20.187,45-45s-20.187-45-45-45s-45,20.187-45,45S80.187,150,105,150z M105,90c8.271,0,15,6.729,15,15
		s-6.729,15-15,15s-15-6.729-15-15S96.729,90,105,90z"/>
	<path d="M302,0v120h-92V0H0v512h512V0H302z M302,362h-92V210h92V362z M302,150v30h-92v-30H302z M30,30h150v183.596
		C160.927,194.113,134.354,182,105,182s-55.927,12.113-75,31.596V30z M180,287c0,41.355-33.645,75-75,75s-75-33.645-75-75
		s33.645-75,75-75S180,245.645,180,287z M105,392c29.354,0,55.927-12.113,75-31.596V422H30v-61.596
		C49.073,379.887,75.646,392,105,392z M30,482v-30h150v30H30z M210,482v-90h92v90H210z M332,482v-30h150v30H332z M482,422H332
		v-61.596C351.073,379.887,377.646,392,407,392s55.927-12.113,75-31.596V422z M332,287c0-41.355,33.645-75,75-75s75,33.645,75,75
		s-33.645,75-75,75S332,328.355,332,287z M407,182c-29.354,0-55.927,12.113-75,31.596V30h150v183.596
		C462.927,194.113,436.354,182,407,182z"/>
</g>
<g>
</g>
<g>
</g>
<g>
</g>
<g>
</g>
<g>
</g>
<g>
</g>
<g>
</g>
<g>
</g>
<g>
</g>
<g>
</g>
<g>
</g>
<g>
</g>
<g>
</g>
<g>
</g>
<g>
</g>
</svg>
