<?xml version="1.0" encoding="iso-8859-1"?>
<!-- Generator: Adobe Illustrator 24.2.1, SVG Export Plug-In . SVG Version: 6.00 Build 0)  -->
<svg version="1.1" id="Capa_1" xmlns="http://www.w3.org/2000/svg" xmlns:xlink="http://www.w3.org/1999/xlink" x="0px" y="0px"
	 viewBox="0 0 512.008 512.008" style="enable-background:new 0 0 512.008 512.008;" xml:space="preserve">
<g>
	<path d="M75.507,0v512.008h360.994V0H75.507z M406.501,482.008H105.507V30h300.994V482.008z"/>
	<path d="M256.427,181.002c33.412-0.234,60.309-27.51,60.075-60.922s-27.51-60.309-60.922-60.075s-60.309,27.51-60.075,60.922
		C195.739,154.34,223.015,181.236,256.427,181.002z M255.791,90.005c16.844-0.118,30.595,13.441,30.713,30.286
		s-13.441,30.595-30.286,30.713c-16.844,0.118-30.595-13.441-30.713-30.286C225.387,103.873,238.946,90.123,255.791,90.005z"/>
	<path d="M256.427,392.005c33.412-0.234,60.309-27.51,60.075-60.922s-27.51-60.309-60.922-60.075s-60.309,27.51-60.075,60.922
		C195.739,365.343,223.015,392.239,256.427,392.005z M255.791,301.007c16.844-0.118,30.595,13.441,30.713,30.286
		s-13.441,30.595-30.286,30.713c-16.844,0.118-30.595-13.441-30.713-30.286C225.387,314.876,238.946,301.125,255.791,301.007z"/>
	<path d="M256.847,452.003c66.549-0.466,120.119-54.792,119.654-121.34c-0.466-66.549-54.792-120.119-121.341-119.654
		c-66.549,0.466-120.119,54.792-119.654,121.341C135.973,398.899,190.299,452.469,256.847,452.003z M255.37,241.009
		c49.98-0.35,90.781,39.884,91.131,89.864s-39.884,90.781-89.864,91.131c-49.98,0.35-90.781-39.884-91.131-89.864
		S205.39,241.359,255.37,241.009z"/>
</g>
<g>
</g>
<g>
</g>
<g>
</g>
<g>
</g>
<g>
</g>
<g>
</g>
<g>
</g>
<g>
</g>
<g>
</g>
<g>
</g>
<g>
</g>
<g>
</g>
<g>
</g>
<g>
</g>
<g>
</g>
</svg>
