<?xml version="1.0" encoding="iso-8859-1"?>
<!-- Generator: Adobe Illustrator 24.2.1, SVG Export Plug-In . SVG Version: 6.00 Build 0)  -->
<svg version="1.1" id="Capa_1" xmlns="http://www.w3.org/2000/svg" xmlns:xlink="http://www.w3.org/1999/xlink" x="0px" y="0px"
	 viewBox="0 0 512 512" style="enable-background:new 0 0 512 512;" xml:space="preserve">
<g>
	<path d="M241,302v15c0,8.271,6.729,15,15,15s15-6.729,15-15v-15h90.666c-2.214-49.191-15.253-76.265-27.904-102.513
		C320.771,172.533,308.5,147.074,308.5,95V52.5C308.5,23.551,284.949,0,256,0s-52.5,23.551-52.5,52.5V95
		c0,52.074-12.271,77.533-25.262,104.487c-12.652,26.248-25.69,53.322-27.904,102.513H241z"/>
	<path d="M298.43,332c-6.191,17.461-22.874,30-42.43,30s-36.239-12.539-42.43-30H150v180h212V332H298.43z"/>
	<polygon points="506.15,242 503.188,182 400.812,182 397.85,242 	"/>
	<path d="M396.37,272l-4.294,87c-0.05,1.01-0.076,2.02-0.076,3c0,27.906,19.151,51.424,45,58.101V482h-45v30h120v-30h-45v-61.899
		c25.849-6.677,45-30.195,45-58.101c0-0.981-0.025-1.99-0.075-2.996L507.63,272H396.37z"/>
	<polygon points="114.15,242 111.188,182 8.812,182 5.85,242 	"/>
	<path d="M4.37,272l-4.294,87C0.025,360.01,0,361.019,0,362c0,27.906,19.151,51.424,45,58.101V482H0v30h120v-30H75v-61.899
		c25.849-6.677,45-30.195,45-58.101c0-0.981-0.025-1.99-0.075-2.996L115.63,272H4.37z"/>
</g>
<g>
</g>
<g>
</g>
<g>
</g>
<g>
</g>
<g>
</g>
<g>
</g>
<g>
</g>
<g>
</g>
<g>
</g>
<g>
</g>
<g>
</g>
<g>
</g>
<g>
</g>
<g>
</g>
<g>
</g>
</svg>
