<?xml version="1.0" encoding="iso-8859-1"?>
<!-- Generator: Adobe Illustrator 24.2.1, SVG Export Plug-In . SVG Version: 6.00 Build 0)  -->
<svg version="1.1" id="Capa_1" xmlns="http://www.w3.org/2000/svg" xmlns:xlink="http://www.w3.org/1999/xlink" x="0px" y="0px"
	 viewBox="0 0 512 512" style="enable-background:new 0 0 512 512;" xml:space="preserve">
<g>
	<path d="M316.646,252.509c-0.088,1.487-0.146,2.982-0.146,4.491c0,36.284,25.767,66.547,60,73.497v63.557
		C340.634,404.574,335.677,452,291,452h201c-44.677,0-49.634-47.426-85.5-57.947v-63.557c34.233-6.949,60-37.213,60-73.497
		c0-1.509-0.058-3.004-0.146-4.491L459.442,135H323.558L316.646,252.509z M421.5,272h-30v-30h30V272z M361.5,182h30v30h-30V182z"/>
	<polygon points="451.5,0 331.5,0 325.323,105 457.677,105 	"/>
	<path d="M45.646,252.509c-0.088,1.487-0.146,2.982-0.146,4.491c0,36.284,25.767,66.547,60,73.497v63.557
		C69.634,404.574,64.677,452,20,452h201c-44.677,0-49.634-47.426-85.5-57.947v-63.557c34.233-6.949,60-37.213,60-73.497
		c0-1.509-0.058-3.004-0.146-4.491L188.442,135H52.558L45.646,252.509z M120.5,182h30v30h-30V182z M90.5,242h30v30h-30V242z"/>
	<polygon points="180.5,0 60.5,0 54.323,105 186.677,105 	"/>
	<rect x="271" y="482" width="241" height="30"/>
	<rect y="482" width="241" height="30"/>
</g>
<g>
</g>
<g>
</g>
<g>
</g>
<g>
</g>
<g>
</g>
<g>
</g>
<g>
</g>
<g>
</g>
<g>
</g>
<g>
</g>
<g>
</g>
<g>
</g>
<g>
</g>
<g>
</g>
<g>
</g>
</svg>
