<?xml version="1.0" encoding="iso-8859-1"?>
<!-- Generator: Adobe Illustrator 24.2.1, SVG Export Plug-In . SVG Version: 6.00 Build 0)  -->
<svg version="1.1" id="Capa_1" xmlns="http://www.w3.org/2000/svg" xmlns:xlink="http://www.w3.org/1999/xlink" x="0px" y="0px"
	 viewBox="0 0 512 512" style="enable-background:new 0 0 512 512;" xml:space="preserve">
<g>
	<rect x="52.5" y="452" width="212" height="60"/>
	<rect x="52.5" y="302" width="212" height="120"/>
	<path d="M264.5,272v-15c0-38.223-20.706-73.377-53.5-92.104V120H106v44.896C73.206,183.623,52.5,218.777,52.5,257v15H264.5z"/>
	<rect x="106" width="105" height="90"/>
	<path d="M296.26,302l-1.656,33.371c-0.069,1.396-0.104,2.785-0.104,4.129c0,40.367,29.15,74.031,67.5,81.108V482h-45v30h120v-30
		h-45v-61.392c38.35-7.077,67.5-40.742,67.5-81.108c0-1.344-0.035-2.734-0.104-4.129L457.74,302H296.26z"/>
	<polygon points="456.251,272 453.274,212 300.726,212 297.749,272 	"/>
</g>
<g>
</g>
<g>
</g>
<g>
</g>
<g>
</g>
<g>
</g>
<g>
</g>
<g>
</g>
<g>
</g>
<g>
</g>
<g>
</g>
<g>
</g>
<g>
</g>
<g>
</g>
<g>
</g>
<g>
</g>
</svg>
