<?xml version="1.0" encoding="iso-8859-1"?>
<!-- Generator: Adobe Illustrator 24.2.1, SVG Export Plug-In . SVG Version: 6.00 Build 0)  -->
<svg version="1.1" id="Capa_1" xmlns="http://www.w3.org/2000/svg" xmlns:xlink="http://www.w3.org/1999/xlink" x="0px" y="0px"
	 viewBox="0 0 512 512" style="enable-background:new 0 0 512 512;" xml:space="preserve">
<g>
	<path d="M512,118.07h-37.469v356.461H172.406V118.07h-37.469v67.469h-15C53.804,185.54,0,239.343,0,305.477v19.116
		c0,66.134,53.804,119.938,119.938,119.938h15v15c0,28.932,23.537,52.469,52.469,52.469h272.125
		C488.463,512,512,488.463,512,459.531V118.07z M134.938,407.062h-15c-45.474,0-82.469-36.995-82.469-82.469v-19.116
		c0-45.474,36.995-82.469,82.469-82.469h15V407.062z"/>
	<rect x="372.203" y="118.07" width="72.328" height="54.336"/>
	<path d="M274.734,240.257v-37.851h-72.328v242.125h242.125V202.407h-72.328v37.851c0,26.872-21.862,48.734-48.734,48.734
		S274.734,267.129,274.734,240.257z M377.062,326.46h30v30h-30V326.46z M338.469,407.062h-30v-30h30V407.062z"/>
	<rect x="202.406" y="118.07" width="72.328" height="54.336"/>
	<path d="M442.664,33.734c-8.752,0-17.314,1.629-25.449,4.842l-9.749,3.851l-6.969-7.831C380.936,12.61,352.86,0,323.469,0
		s-57.467,12.61-77.027,34.596l-6.968,7.832l-9.749-3.851c-8.136-3.213-16.699-4.842-25.451-4.842
		c-33.081,0-60.808,23.294-67.683,54.336h168.144v152.187c0,10.33,8.404,18.734,18.734,18.734s18.734-8.404,18.734-18.734V88.07
		h168.144C503.472,57.028,475.745,33.734,442.664,33.734z"/>
</g>
<g>
</g>
<g>
</g>
<g>
</g>
<g>
</g>
<g>
</g>
<g>
</g>
<g>
</g>
<g>
</g>
<g>
</g>
<g>
</g>
<g>
</g>
<g>
</g>
<g>
</g>
<g>
</g>
<g>
</g>
</svg>
