<?xml version="1.0" encoding="iso-8859-1"?>
<!-- Generator: Adobe Illustrator 24.2.1, SVG Export Plug-In . SVG Version: 6.00 Build 0)  -->
<svg version="1.1" id="Capa_1" xmlns="http://www.w3.org/2000/svg" xmlns:xlink="http://www.w3.org/1999/xlink" x="0px" y="0px"
	 viewBox="0 0 512 512" style="enable-background:new 0 0 512 512;" xml:space="preserve">
<g>
	<path d="M401.31,229.352c-12.898,48.316-27.514,103.065-27.514,211.984v32.133H138.204v-32.133
		c0-108.919-14.615-163.668-27.51-211.972C99.074,185.835,88.07,144.59,86.909,60H48.37c1.165,89.652,12.808,133.267,25.096,179.299
		c12.885,48.264,26.207,98.17,26.207,202.037V512h312.654v-70.664c0-103.867,13.322-153.773,26.207-202.037
		C450.822,193.267,462.465,149.652,463.63,60h-38.539C423.93,144.59,412.926,185.834,401.31,229.352z"/>
	<path d="M343.796,443.469v-2.133c0-112.854,15.154-169.623,28.525-219.709c7.397-27.711,14.534-54.457,18.814-93.096H271v263.467
		h-30V128.531H120.865c4.28,38.638,11.416,65.38,18.811,93.084c13.374,50.098,28.528,106.867,28.528,219.721v2.133H343.796z"/>
	<path d="M118.316,98.531H241V60H116.913C117.114,74.011,117.596,86.782,118.316,98.531z"/>
	<path d="M271,98.531h122.684c0.72-11.749,1.202-24.52,1.403-38.531H271V98.531z"/>
	<rect x="241" width="30" height="30"/>
</g>
<g>
</g>
<g>
</g>
<g>
</g>
<g>
</g>
<g>
</g>
<g>
</g>
<g>
</g>
<g>
</g>
<g>
</g>
<g>
</g>
<g>
</g>
<g>
</g>
<g>
</g>
<g>
</g>
<g>
</g>
</svg>
