<?xml version="1.0" encoding="iso-8859-1"?>
<!-- Generator: Adobe Illustrator 24.2.1, SVG Export Plug-In . SVG Version: 6.00 Build 0)  -->
<svg version="1.1" id="Capa_1" xmlns="http://www.w3.org/2000/svg" xmlns:xlink="http://www.w3.org/1999/xlink" x="0px" y="0px"
	 viewBox="0 0 511.114 511.114" style="enable-background:new 0 0 511.114 511.114;" xml:space="preserve">
<g>
	<path d="M0,263.057c5.06,85.599,53.167,163.96,128.099,207.067l7.52,4.326v29.607h239.876V474.45l7.52-4.326
		c74.932-43.107,123.04-121.468,128.099-207.067h-37.541c-3.551,52.724-25.772,101.806-63.491,139.525
		c-41.275,41.275-96.153,64.006-154.525,64.006s-113.25-22.731-154.525-64.006c-37.719-37.719-59.94-86.801-63.491-139.525H0z"/>
	<path d="M67.623,263.057c1.02,12.895,3.346,25.427,6.84,37.469h147.36v-37.469H67.623z"/>
	<path d="M289.292,263.057v37.469h147.36c3.494-12.041,5.82-24.573,6.84-37.469H289.292z"/>
	<path d="M255.557,436.588c74.399,0,138.864-43.323,169.511-106.063H289.292v19.859c0,18.631-15.103,33.734-33.734,33.734
		c-18.631,0-33.734-15.103-33.734-33.734v-19.859H86.046C116.694,393.266,181.158,436.588,255.557,436.588z"/>
	<polygon points="161.783,97.057 181.839,218.057 329.275,218.057 349.331,97.057 	"/>
	<polygon points="354.303,67.057 364.248,7.057 146.866,7.057 156.811,67.057 	"/>
</g>
<g>
</g>
<g>
</g>
<g>
</g>
<g>
</g>
<g>
</g>
<g>
</g>
<g>
</g>
<g>
</g>
<g>
</g>
<g>
</g>
<g>
</g>
<g>
</g>
<g>
</g>
<g>
</g>
<g>
</g>
</svg>
