<?xml version="1.0" encoding="iso-8859-1"?>
<!-- Generator: Adobe Illustrator 24.2.1, SVG Export Plug-In . SVG Version: 6.00 Build 0)  -->
<svg version="1.1" id="Capa_1" xmlns="http://www.w3.org/2000/svg" xmlns:xlink="http://www.w3.org/1999/xlink" x="0px" y="0px"
	 viewBox="0 0 512 512" style="enable-background:new 0 0 512 512;" xml:space="preserve">
<g>
	<path d="M0,431.465c0,33,27,60,60,60h392c33,0,60-27,60-60H0z"/>
	<path d="M98.119,336.772h40.724l12.03,64.694h210.254l48.52-260.931H98.119C43.929,140.534,0,184.464,0,238.653
		S43.929,336.772,98.119,336.772z M98.119,205.228h16.264l12.431,66.85H98.119c-18.46,0-33.425-14.965-33.425-33.425
		S79.659,205.228,98.119,205.228z"/>
	<path d="M249.628,73.855c7.805-11.708,17.519-26.279,17.519-53.32h-30c0,17.958-5.508,26.22-12.481,36.68
		c-7.805,11.708-17.519,26.279-17.519,53.32h30C237.147,92.576,242.655,84.315,249.628,73.855z"/>
	<path d="M297.147,110.535c0-17.958,5.508-26.22,12.481-36.68c7.805-11.708,17.519-26.279,17.519-53.32h-30
		c0,17.958-5.508,26.22-12.481,36.68c-7.805,11.708-17.519,26.279-17.519,53.32H297.147z"/>
</g>
<g>
</g>
<g>
</g>
<g>
</g>
<g>
</g>
<g>
</g>
<g>
</g>
<g>
</g>
<g>
</g>
<g>
</g>
<g>
</g>
<g>
</g>
<g>
</g>
<g>
</g>
<g>
</g>
<g>
</g>
</svg>
