<?xml version="1.0" encoding="iso-8859-1"?>
<!-- Generator: Adobe Illustrator 24.2.1, SVG Export Plug-In . SVG Version: 6.00 Build 0)  -->
<svg version="1.1" id="Capa_1" xmlns="http://www.w3.org/2000/svg" xmlns:xlink="http://www.w3.org/1999/xlink" x="0px" y="0px"
	 viewBox="0 0 512 512" style="enable-background:new 0 0 512 512;" xml:space="preserve">
<g>
	<polygon points="154.549,512 140.642,371.079 70.719,371.079 98.532,512 	"/>
	<path d="M241,436.176c-19.553-6.342-33.734-24.723-33.734-46.362v-18.735h-36.478L184.694,512H241V436.176z"/>
	<polygon points="371.358,371.079 357.452,512 413.468,512 441.282,371.079 	"/>
	<path d="M341.212,371.079h-36.478v18.735c0,21.639-14.181,40.02-33.734,46.362V512h56.306L341.212,371.079z"/>
	<path d="M52.469,341.079h154.797V236.141H52.469C23.537,236.141,0,259.679,0,288.61C0,317.542,23.537,341.079,52.469,341.079z"/>
	<path d="M459.531,236.141H304.734v104.938h154.797c28.932,0,52.469-23.537,52.469-52.469
		C512,259.679,488.463,236.141,459.531,236.141z"/>
	<path d="M69.665,206.141h167.601v183.672c0,10.33,8.404,18.734,18.734,18.734s18.734-8.404,18.734-18.734V206.141h167.601
		c-6.47-21.643-26.553-37.469-50.272-37.469H119.938C96.218,168.672,76.135,184.498,69.665,206.141z"/>
	<polygon points="397.377,71.203 373.643,35.602 397.377,0 301,0 301,71.203 	"/>
	<rect x="241" width="30" height="138.672"/>
</g>
<g>
</g>
<g>
</g>
<g>
</g>
<g>
</g>
<g>
</g>
<g>
</g>
<g>
</g>
<g>
</g>
<g>
</g>
<g>
</g>
<g>
</g>
<g>
</g>
<g>
</g>
<g>
</g>
<g>
</g>
</svg>
