<?xml version="1.0" encoding="iso-8859-1"?>
<!-- Generator: Adobe Illustrator 24.2.1, SVG Export Plug-In . SVG Version: 6.00 Build 0)  -->
<svg version="1.1" id="Capa_1" xmlns="http://www.w3.org/2000/svg" xmlns:xlink="http://www.w3.org/1999/xlink" x="0px" y="0px"
	 viewBox="0 0 512 512" style="enable-background:new 0 0 512 512;" xml:space="preserve">
<g>
	<path d="M346,451.875H166c-33,0-60,27-60,60h300C406,478.875,379,451.875,346,451.875z"/>
	<rect x="226" y="378.895" width="60" height="42.98"/>
	<rect y="320.04" width="512" height="28.854"/>
	<path d="M256,70.204c24.839,0,45.047-20.208,45.047-45.047c0-13.803-11.229-25.032-25.031-25.032
		c-4.391,0-8.714,1.159-12.503,3.352L256,7.824l-7.513-4.348c-3.789-2.192-8.112-3.352-12.503-3.352
		c-13.803,0-25.031,11.229-25.031,25.032C210.953,49.996,231.161,70.204,256,70.204z"/>
	<path d="M459.531,100.766H52.469c-23.72,0-43.802,15.825-50.272,37.469h100.132v48.734c0,10.33,8.404,18.734,18.734,18.734
		s18.734-8.404,18.734-18.734v-48.734h97.469v65.602c0,10.331,8.404,18.735,18.734,18.735s18.734-8.404,18.734-18.735v-65.602
		h97.469v48.734c0,10.33,8.404,18.734,18.734,18.734s18.734-8.404,18.734-18.734v-48.734h100.132
		C503.334,116.592,483.251,100.766,459.531,100.766z"/>
	<path d="M439.672,168.235v18.734c0,26.872-21.862,48.734-48.734,48.734s-48.734-21.862-48.734-48.734v-18.734h-37.469v35.602
		c0,26.873-21.862,48.735-48.734,48.735s-48.734-21.862-48.734-48.735v-35.602h-37.469v18.734c0,26.872-21.862,48.734-48.734,48.734
		s-48.734-21.862-48.734-48.734v-18.734H0V290.04h512V168.235H439.672z"/>
</g>
<g>
</g>
<g>
</g>
<g>
</g>
<g>
</g>
<g>
</g>
<g>
</g>
<g>
</g>
<g>
</g>
<g>
</g>
<g>
</g>
<g>
</g>
<g>
</g>
<g>
</g>
<g>
</g>
<g>
</g>
</svg>
