<?xml version="1.0" encoding="iso-8859-1"?>
<!-- Generator: Adobe Illustrator 24.2.1, SVG Export Plug-In . SVG Version: 6.00 Build 0)  -->
<svg version="1.1" id="Capa_1" xmlns="http://www.w3.org/2000/svg" xmlns:xlink="http://www.w3.org/1999/xlink" x="0px" y="0px"
	 viewBox="0 0 512 512" style="enable-background:new 0 0 512 512;" xml:space="preserve">
<g>
	<path d="M18.734,178.008h188.531v-37.469H19.437c-10.438,0-19.153,8.164-19.429,18.198c-0.141,5.114,1.741,9.944,5.297,13.599
		C8.863,175.994,13.633,178.008,18.734,178.008z"/>
	<rect x="304.734" y="208.008" width="139.797" height="80.761"/>
	<path d="M444.531,318.769H304.423c-2.716,24.319-23.391,43.292-48.423,43.292s-45.707-18.973-48.423-43.292H33.734v80.761h410.797
		V318.769z"/>
	<path d="M459.531,140.539H304.734v37.469h169.797v221.522H512V193.008C512,164.077,488.463,140.539,459.531,140.539z"/>
	<rect x="33.734" y="208.008" width="173.531" height="80.761"/>
	<path d="M154.598,110.539h82.667v202.788c0,10.33,8.404,18.734,18.734,18.734s18.734-8.404,18.734-18.734V110.539h82.667
		c-5.394-17.829-20.118-32.097-38.913-36.229l-9.255-2.035l-2.138-9.231c-5.533-23.89-26.545-40.576-51.097-40.576
		s-45.563,16.686-51.097,40.576l-2.138,9.231l-9.255,2.035C174.716,78.443,159.992,92.71,154.598,110.539z"/>
	<path d="M60,489.531h392c33,0,60-27,60-60H0C0,462.531,27,489.531,60,489.531z"/>
</g>
<g>
</g>
<g>
</g>
<g>
</g>
<g>
</g>
<g>
</g>
<g>
</g>
<g>
</g>
<g>
</g>
<g>
</g>
<g>
</g>
<g>
</g>
<g>
</g>
<g>
</g>
<g>
</g>
<g>
</g>
</svg>
