<?xml version="1.0" encoding="iso-8859-1"?>
<!-- Generator: Adobe Illustrator 24.2.1, SVG Export Plug-In . SVG Version: 6.00 Build 0)  -->
<svg version="1.1" id="Capa_1" xmlns="http://www.w3.org/2000/svg" xmlns:xlink="http://www.w3.org/1999/xlink" x="0px" y="0px"
	 viewBox="0 0 512 512" style="enable-background:new 0 0 512 512;" xml:space="preserve">
<g>
	<path d="M511.557,265.931H0.443c5.06,85.599,53.167,163.96,128.099,207.067l7.52,4.326v29.607h239.876v-29.607l7.52-4.326
		C458.39,429.891,506.498,351.53,511.557,265.931z"/>
	<path d="M444.531,235.931v-9.739c0-19.631-15.971-35.602-35.602-35.602c-7.841,0-15.279,2.503-21.509,7.238l-9.077,6.899
		l-9.077-6.899c-6.23-4.735-13.668-7.238-21.509-7.238s-15.279,2.503-21.509,7.238l-9.077,6.899l-9.076-6.898
		c-6.231-4.736-13.669-7.239-21.51-7.239c-7.841,0-15.279,2.503-21.509,7.238L256,204.728l-9.077-6.899
		c-6.23-4.735-13.668-7.238-21.509-7.238c-7.841,0-15.279,2.503-21.51,7.239l-9.076,6.898l-9.077-6.899
		c-6.23-4.735-13.668-7.238-21.509-7.238s-15.279,2.503-21.509,7.238l-9.077,6.899l-9.077-6.899
		c-6.23-4.735-13.668-7.238-21.509-7.238c-19.631,0-35.602,15.971-35.602,35.602v9.739H444.531z"/>
	<path d="M71.441,160.591c10.474,0,20.949-3.997,28.94-11.988c15.983-15.983,15.982-41.896-0.001-57.88
		C88.433,78.777,81.853,62.893,81.853,45.996c0-22.603-18.324-40.927-40.927-40.927S0,23.393,0,45.996
		c0,38.761,15.094,75.202,42.502,102.609C50.494,156.595,60.967,160.591,71.441,160.591z"/>
	<path d="M204.652,160.591c10.474,0,20.949-3.997,28.94-11.988c15.983-15.983,15.982-41.896-0.001-57.88
		c-11.948-11.946-18.527-27.831-18.527-44.728c0-22.603-18.324-40.927-40.927-40.927c-22.603,0-40.927,18.324-40.927,40.927
		c0,38.761,15.094,75.202,42.502,102.609C183.704,156.595,194.178,160.591,204.652,160.591z"/>
	<path d="M337.863,160.591c10.474,0,20.949-3.997,28.94-11.988c15.983-15.983,15.982-41.896-0.001-57.88
		c-11.948-11.946-18.527-27.831-18.527-44.728c0-22.603-18.324-40.927-40.927-40.927s-40.927,18.324-40.927,40.927
		c0,38.761,15.094,75.202,42.502,102.609C316.915,156.595,327.388,160.591,337.863,160.591z"/>
	<path d="M471.073,160.591c10.474,0,20.949-3.997,28.94-11.988c15.983-15.983,15.982-41.896-0.001-57.88
		c-11.948-11.946-18.527-27.831-18.527-44.728c0-22.603-18.324-40.927-40.927-40.927c-22.603,0-40.927,18.324-40.927,40.927
		c0,38.761,15.094,75.202,42.502,102.609C450.126,156.595,460.599,160.591,471.073,160.591z"/>
</g>
<g>
</g>
<g>
</g>
<g>
</g>
<g>
</g>
<g>
</g>
<g>
</g>
<g>
</g>
<g>
</g>
<g>
</g>
<g>
</g>
<g>
</g>
<g>
</g>
<g>
</g>
<g>
</g>
<g>
</g>
</svg>
