<?xml version="1.0" encoding="iso-8859-1"?>
<!-- Generator: Adobe Illustrator 24.2.1, SVG Export Plug-In . SVG Version: 6.00 Build 0)  -->
<svg version="1.1" id="Capa_1" xmlns="http://www.w3.org/2000/svg" xmlns:xlink="http://www.w3.org/1999/xlink" x="0px" y="0px"
	 viewBox="0 0 512 512" style="enable-background:new 0 0 512 512;" xml:space="preserve">
<g>
	<path d="M209.473,101.576c-0.221,1.847-0.348,3.723-0.348,5.629c0,25.888,20.987,46.875,46.875,46.875s46.875-20.987,46.875-46.875
		c0-1.906-0.127-3.782-0.348-5.629C319.267,94.422,331,77.81,331,58.455c0-25.888-20.987-46.875-46.875-46.875
		c-10.553,0-20.291,3.489-28.125,9.374c-7.834-5.885-17.572-9.374-28.125-9.374C201.987,11.58,181,32.566,181,58.455
		C181,77.81,192.733,94.422,209.473,101.576z"/>
	<path d="M408.875,154.08c10.553,0,20.291-3.489,28.125-9.374c7.834,5.885,17.572,9.374,28.125,9.374
		c25.888,0,46.875-20.987,46.875-46.875c0-19.355-11.733-35.968-28.473-43.121c0.221-1.847,0.348-3.723,0.348-5.629
		c0-25.888-20.987-46.875-46.875-46.875s-46.875,20.987-46.875,46.875c0,1.906,0.127,3.782,0.348,5.629
		C373.733,71.237,362,87.849,362,107.205C362,133.093,382.987,154.08,408.875,154.08z"/>
	<path d="M46.875,154.08c10.553,0,20.291-3.489,28.125-9.374c7.834,5.885,17.572,9.374,28.125,9.374
		c25.888,0,46.875-20.987,46.875-46.875c0-19.355-11.733-35.968-28.473-43.121c0.221-1.847,0.348-3.723,0.348-5.629
		c0-25.888-20.987-46.875-46.875-46.875S28.125,32.566,28.125,58.455c0,1.906,0.127,3.782,0.348,5.629
		C11.733,71.237,0,87.849,0,107.205C0,133.093,20.987,154.08,46.875,154.08z"/>
	<path d="M511.557,259.42H0.443c5.06,85.599,53.167,163.96,128.099,207.067l7.52,4.326v29.607h239.876v-29.607l7.52-4.326
		C458.39,423.38,506.498,345.019,511.557,259.42z"/>
	<path d="M444.531,229.42v-9.739c0-19.631-15.971-35.602-35.602-35.602c-7.841,0-15.279,2.503-21.509,7.238l-9.077,6.899
		l-9.077-6.899c-6.23-4.735-13.668-7.238-21.509-7.238s-15.279,2.503-21.509,7.238l-9.077,6.899l-9.076-6.898
		c-6.231-4.736-13.669-7.239-21.51-7.239c-7.841,0-15.279,2.503-21.509,7.238L256,198.217l-9.077-6.899
		c-6.23-4.735-13.668-7.238-21.509-7.238c-7.841,0-15.279,2.503-21.51,7.239l-9.076,6.898l-9.077-6.899
		c-6.23-4.735-13.668-7.238-21.509-7.238s-15.279,2.503-21.509,7.238l-9.077,6.899l-9.077-6.899
		c-6.23-4.735-13.668-7.238-21.509-7.238c-19.631,0-35.602,15.971-35.602,35.602v9.739H444.531z"/>
</g>
<g>
</g>
<g>
</g>
<g>
</g>
<g>
</g>
<g>
</g>
<g>
</g>
<g>
</g>
<g>
</g>
<g>
</g>
<g>
</g>
<g>
</g>
<g>
</g>
<g>
</g>
<g>
</g>
<g>
</g>
</svg>
