<?xml version="1.0" encoding="iso-8859-1"?>
<!-- Generator: Adobe Illustrator 24.2.1, SVG Export Plug-In . SVG Version: 6.00 Build 0)  -->
<svg version="1.1" id="Capa_1" xmlns="http://www.w3.org/2000/svg" xmlns:xlink="http://www.w3.org/1999/xlink" x="0px" y="0px"
	 viewBox="0 0 512 512" style="enable-background:new 0 0 512 512;" xml:space="preserve">
<g>
	<path d="M241,191.622c0-7.875-2.077-15.638-6.003-22.449L159.495,38.171c-8.02-13.909-22.962-22.549-38.995-22.549
		s-30.975,8.64-38.997,22.551L6.005,169.171C2.077,175.984,0,183.748,0,191.622c0,24.813,20.187,45,45,45h151
		C220.813,236.622,241,216.435,241,191.622z"/>
	<path d="M467,236.622c24.813,0,45-20.187,45-45c0-7.874-2.076-15.637-6.004-22.449L430.495,38.172
		c-8.02-13.909-22.962-22.549-38.995-22.549s-30.976,8.64-38.996,22.551L277.006,169.17c-3.929,6.813-6.006,14.577-6.006,22.452
		c0,24.813,20.187,45,45,45H467z"/>
	<path d="M474.531,342.705c0,64.075-52.129,116.203-116.203,116.203H153.672c-64.075,0-116.204-52.128-116.204-116.203v-8.614H0
		v8.614c0,84.735,68.937,153.672,153.672,153.672h204.656c84.735,0,153.672-68.937,153.672-153.672v-8.614h-37.469V342.705z"/>
	<path d="M69.665,304.091h167.601v38.614c0,10.33,8.404,18.734,18.734,18.734s18.734-8.404,18.734-18.734v-38.614h167.601
		c-6.47-21.643-26.553-37.469-50.272-37.469H119.938C96.218,266.622,76.135,282.448,69.665,304.091z"/>
	<path d="M67.469,334.091v8.614c0,47.533,38.671,86.203,86.204,86.203h204.656c47.532,0,86.203-38.67,86.203-86.203v-8.614H304.734
		v8.614c0,26.872-21.862,48.734-48.734,48.734s-48.734-21.862-48.734-48.734v-8.614H67.469z"/>
</g>
<g>
</g>
<g>
</g>
<g>
</g>
<g>
</g>
<g>
</g>
<g>
</g>
<g>
</g>
<g>
</g>
<g>
</g>
<g>
</g>
<g>
</g>
<g>
</g>
<g>
</g>
<g>
</g>
<g>
</g>
</svg>
