<?xml version="1.0" encoding="iso-8859-1"?>
<!-- Generator: Adobe Illustrator 24.2.1, SVG Export Plug-In . SVG Version: 6.00 Build 0)  -->
<svg version="1.1" id="Capa_1" xmlns="http://www.w3.org/2000/svg" xmlns:xlink="http://www.w3.org/1999/xlink" x="0px" y="0px"
	 viewBox="0 0 512 512" style="enable-background:new 0 0 512 512;" xml:space="preserve">
<g>
	<path d="M135,55.25V0h-30v55.25c4.881-0.818,9.891-1.25,15-1.25S130.119,54.432,135,55.25z"/>
	<path d="M407,55.25V0h-30v55.25c4.881-0.818,9.891-1.25,15-1.25S402.119,54.432,407,55.25z"/>
	<path d="M60,512h392c33,0,60-27,60-60H0C0,485,27,512,60,512z"/>
	<path d="M241,317v-22c0-33.084-26.916-60-60-60c-10.839,0-21.332,2.903-30.5,8.326C141.332,237.903,130.839,235,120,235
		c-10.621,0-20.944,2.803-30,8.038C80.944,237.803,70.621,235,60,235c-33.084,0-60,26.916-60,60v22H241z"/>
	<path d="M76,347H0v75h151C151,380.645,117.355,347,76,347z"/>
	<path d="M149.404,347C168.887,366.073,181,392.646,181,422h60v-75H149.404z"/>
	<circle cx="120" cy="144.5" r="60.5"/>
	<path d="M436,347c-41.355,0-75,33.645-75,75h151v-75H436z"/>
	<path d="M512,317v-22c0-33.084-26.916-60-60-60c-10.621,0-20.944,2.803-30,8.038c-9.056-5.235-19.379-8.038-30-8.038
		c-10.839,0-21.332,2.903-30.5,8.326C352.332,237.903,341.839,235,331,235c-33.084,0-60,26.916-60,60v22H512z"/>
	<path d="M362.596,347H271v75h60C331,392.646,343.113,366.073,362.596,347z"/>
	<circle cx="392" cy="144.5" r="60.5"/>
</g>
<g>
</g>
<g>
</g>
<g>
</g>
<g>
</g>
<g>
</g>
<g>
</g>
<g>
</g>
<g>
</g>
<g>
</g>
<g>
</g>
<g>
</g>
<g>
</g>
<g>
</g>
<g>
</g>
<g>
</g>
</svg>
