<?xml version="1.0" encoding="iso-8859-1"?>
<!-- Generator: Adobe Illustrator 24.2.1, SVG Export Plug-In . SVG Version: 6.00 Build 0)  -->
<svg version="1.1" id="Capa_1" xmlns="http://www.w3.org/2000/svg" xmlns:xlink="http://www.w3.org/1999/xlink" x="0px" y="0px"
	 viewBox="0 0 506.733 506.733" style="enable-background:new 0 0 506.733 506.733;" xml:space="preserve">
<g>
	<path d="M475.632,356.717L355.619,458.585h33.81c47.532,0,86.203-38.671,86.203-86.204V356.717z"/>
	<path d="M475.632,150.017v-15.665c0-47.533-38.671-86.203-86.203-86.203h-33.811L475.632,150.017z"/>
	<path d="M31.101,150.017L151.114,48.149h-33.811c-47.532,0-86.203,38.67-86.203,86.203V150.017z"/>
	<path d="M31.101,356.717v15.664c0,47.533,38.671,86.204,86.203,86.204h33.81L31.101,356.717z"/>
	<polygon points="411.427,283.367 95.305,283.367 253.366,417.531 	"/>
	<path d="M253.366,456.88L48.945,283.367H0c2.586,7.127,7.006,13.55,12.945,18.589l211.968,179.919
		c7.938,6.734,18.044,10.444,28.453,10.444s20.516-3.71,28.457-10.446l211.961-179.915c5.941-5.04,10.362-11.463,12.948-18.591
		h-48.945L253.366,456.88z"/>
	<path d="M253.366,49.853l204.421,173.514h48.946c-2.586-7.127-7.007-13.55-12.946-18.589L281.819,24.858
		c-7.938-6.734-18.044-10.444-28.453-10.444s-20.516,3.71-28.456,10.446L12.948,204.775C7.007,209.816,2.586,216.239,0,223.367
		h48.945L253.366,49.853z"/>
	<polygon points="95.305,223.367 411.427,223.367 253.366,89.203 	"/>
</g>
<g>
</g>
<g>
</g>
<g>
</g>
<g>
</g>
<g>
</g>
<g>
</g>
<g>
</g>
<g>
</g>
<g>
</g>
<g>
</g>
<g>
</g>
<g>
</g>
<g>
</g>
<g>
</g>
<g>
</g>
</svg>
