<?xml version="1.0" encoding="iso-8859-1"?>
<!-- Generator: Adobe Illustrator 24.2.1, SVG Export Plug-In . SVG Version: 6.00 Build 0)  -->
<svg version="1.1" id="Capa_1" xmlns="http://www.w3.org/2000/svg" xmlns:xlink="http://www.w3.org/1999/xlink" x="0px" y="0px"
	 viewBox="0 0 512 512" style="enable-background:new 0 0 512 512;" xml:space="preserve">
<g>
	<path d="M475.274,303.61h-170.54v73.452h170.54c20.251,0,36.726-16.475,36.726-36.726S495.525,303.61,475.274,303.61z"/>
	<path d="M2.184,474.531C8.653,496.176,28.749,512,52.469,512h407.063c23.72,0,43.815-15.824,50.285-37.469H2.184z"/>
	<path d="M304.734,407.062v18.735c0,6.636-1.338,12.963-3.75,18.734h177.281v-37.469H304.734z"/>
	<path d="M211.016,444.531c-2.412-5.771-3.75-12.099-3.75-18.734v-18.735H33.734v37.469H211.016z"/>
	<path d="M36.726,377.062h170.54V303.61H36.726C16.475,303.61,0,320.085,0,340.336S16.475,377.062,36.726,377.062z"/>
	<path d="M18.734,273.61h218.531v152.187c0,10.33,8.404,18.734,18.734,18.734s18.734-8.404,18.734-18.734V273.61h218.531
		c10.33,0,18.734-8.404,18.734-18.734s-8.404-18.734-18.734-18.734H18.734C8.404,236.141,0,244.545,0,254.875
		S8.404,273.61,18.734,273.61z"/>
	<rect x="33.734" y="168.672" width="207.266" height="37.469"/>
	<rect x="271" y="168.672" width="207.266" height="37.469"/>
	<path d="M0.726,138.672h510.548C503.713,60.947,438.005,0,358.328,0H153.672C73.995,0,8.287,60.947,0.726,138.672z M308.469,37.469
		h30v30h-30V37.469z M241,73.452h30v30h-30V73.452z M173.531,37.469h30v30h-30V37.469z"/>
</g>
<g>
</g>
<g>
</g>
<g>
</g>
<g>
</g>
<g>
</g>
<g>
</g>
<g>
</g>
<g>
</g>
<g>
</g>
<g>
</g>
<g>
</g>
<g>
</g>
<g>
</g>
<g>
</g>
<g>
</g>
</svg>
