<?xml version="1.0" encoding="iso-8859-1"?>
<!-- Generator: Adobe Illustrator 24.2.1, SVG Export Plug-In . SVG Version: 6.00 Build 0)  -->
<svg version="1.1" id="Capa_1" xmlns="http://www.w3.org/2000/svg" xmlns:xlink="http://www.w3.org/1999/xlink" x="0px" y="0px"
	 viewBox="0 0 512 512" style="enable-background:new 0 0 512 512;" xml:space="preserve">
<g>
	<path d="M148.939,411.435L230.019,271H68.064C72.587,328.936,103.102,379.954,148.939,411.435z M143.657,303.541l15,25.981
		l-25.981,15l-15-25.981L143.657,303.541z"/>
	<path d="M68.065,241h161.954L149.08,100.809C103.685,132.181,72.659,182.926,68.065,241z M143.657,208.459l-25.981-15l15-25.981
		l25.981,15L143.657,208.459z"/>
	<path d="M443.936,271H281.981l81.08,140.435C408.898,379.954,439.413,328.936,443.936,271z M353.343,329.521l15-25.981l25.981,15
		l-15,25.981L353.343,329.521z"/>
	<path d="M362.92,100.809L281.981,241h161.954C439.341,182.926,408.315,132.181,362.92,100.809z M368.343,208.459l-15-25.981
		l25.981-15l15,25.981L368.343,208.459z"/>
	<path d="M159.986,452.301l-18.755,32.484c21.233,10.695,44.145,18.521,68.232,22.963c-1.427-4.577-2.197-9.442-2.197-14.483
		v-24.212C190.859,465.307,175,459.658,159.986,452.301z"/>
	<path d="M174.951,426.381c15.462,7.305,32.152,12.614,49.783,15.556l12.532,2.09v49.238c0,10.33,8.404,18.734,18.734,18.734
		s18.734-8.404,18.734-18.734v-49.238l12.532-2.09c17.631-2.941,34.321-8.25,49.783-15.556L256,286L174.951,426.381z M271,407.062
		h-30v-30h30V407.062z"/>
	<path d="M302.537,507.748c24.086-4.442,46.999-12.268,68.232-22.963l-18.755-32.484c-15.014,7.357-30.873,13.006-47.28,16.753
		v24.212C304.734,498.307,303.965,503.171,302.537,507.748z"/>
	<path d="M37.984,241c3.551-52.724,25.772-101.806,63.491-139.525c10.07-10.07,20.956-19.028,32.499-26.83l-18.698-32.386
		C49.799,85.513,5.271,158.011,0.451,241H37.984z"/>
	<path d="M115.276,469.741l18.737-32.454c-16.317-10.988-31.213-24.195-44.178-39.358C59.323,362.244,41.201,317.651,37.989,271
		H0.451C5.271,353.989,49.799,426.487,115.276,469.741z"/>
	<path d="M474.011,271c-3.213,46.651-21.334,91.244-51.847,126.929c-12.965,15.163-27.861,28.37-44.178,39.358l18.737,32.454
		C462.201,426.487,506.729,353.989,511.549,271H474.011z"/>
	<path d="M396.724,42.259l-18.698,32.386c11.543,7.802,22.429,16.76,32.499,26.83c37.719,37.719,59.94,86.801,63.491,139.525h37.533
		C506.729,158.011,462.201,85.513,396.724,42.259z"/>
	<path d="M175.034,85.762L256,226l80.966-140.238C312.421,74.041,284.965,67.469,256,67.469S199.579,74.041,175.034,85.762z
		 M271,134.938h-30v-30h30V134.938z"/>
	<path d="M256,0c-41.241,0-80.228,9.816-114.769,27.214l18.703,32.395c29.534-14.478,62.209-22.14,96.066-22.14
		s66.532,7.662,96.066,22.14l18.703-32.395C336.228,9.816,297.241,0,256,0z"/>
</g>
<g>
</g>
<g>
</g>
<g>
</g>
<g>
</g>
<g>
</g>
<g>
</g>
<g>
</g>
<g>
</g>
<g>
</g>
<g>
</g>
<g>
</g>
<g>
</g>
<g>
</g>
<g>
</g>
<g>
</g>
</svg>
