<?xml version="1.0" encoding="iso-8859-1"?>
<!-- Generator: Adobe Illustrator 24.2.1, SVG Export Plug-In . SVG Version: 6.00 Build 0)  -->
<svg version="1.1" id="Capa_1" xmlns="http://www.w3.org/2000/svg" xmlns:xlink="http://www.w3.org/1999/xlink" x="0px" y="0px"
	 viewBox="0 0 512 512" style="enable-background:new 0 0 512 512;" xml:space="preserve">
<g>
	<polygon points="384.158,320.797 394.528,251.203 117.473,251.203 127.843,320.797 	"/>
	<polygon points="151.306,478.266 156.333,512 355.667,512 360.694,478.266 	"/>
	<polygon points="146.836,448.266 365.164,448.266 370.191,414.531 141.81,414.531 	"/>
	<polygon points="137.339,384.531 374.661,384.531 379.688,350.797 132.313,350.797 	"/>
	<rect x="77.801" width="356.398" height="30"/>
	<polygon points="389.223,95.602 394.528,60 117.473,60 122.778,95.602 77.801,95.602 77.801,125.602 434.199,125.602 
		434.199,95.602 	"/>
	<polygon points="389.223,191.203 394.528,155.602 117.473,155.602 122.778,191.203 77.801,191.203 77.801,221.203 434.199,221.203 
		434.199,191.203 	"/>
</g>
<g>
</g>
<g>
</g>
<g>
</g>
<g>
</g>
<g>
</g>
<g>
</g>
<g>
</g>
<g>
</g>
<g>
</g>
<g>
</g>
<g>
</g>
<g>
</g>
<g>
</g>
<g>
</g>
<g>
</g>
</svg>
