<?xml version="1.0" encoding="iso-8859-1"?>
<!-- Generator: Adobe Illustrator 24.2.1, SVG Export Plug-In . SVG Version: 6.00 Build 0)  -->
<svg version="1.1" id="Capa_1" xmlns="http://www.w3.org/2000/svg" xmlns:xlink="http://www.w3.org/1999/xlink" x="0px" y="0px"
	 viewBox="0 0 512 512" style="enable-background:new 0 0 512 512;" xml:space="preserve">
<g>
	<path d="M145.844,370.313h220.313V149.822H145.844V370.313z M295.313,188.545h30v35.6h-30V188.545z M186.687,188.545h30v35.6h-30
		V188.545z M216.687,259.566c0,21.677,17.636,39.313,39.313,39.313s39.313-17.636,39.313-39.313h30
		c0,38.219-31.094,69.313-69.313,69.313s-69.313-31.094-69.313-69.313H216.687z"/>
	<polygon points="366.156,0 177.481,48.979 366.156,48.979 	"/>
	<path d="M75,512h362V78.979H75V512z M200.157,471.157h-30v-30h30V471.157z M271,471.157h-30v-30h30V471.157z M341.843,471.157h-30
		v-30h30V471.157z M115.844,119.822h280.313v280.492H115.844V119.822z"/>
</g>
<g>
</g>
<g>
</g>
<g>
</g>
<g>
</g>
<g>
</g>
<g>
</g>
<g>
</g>
<g>
</g>
<g>
</g>
<g>
</g>
<g>
</g>
<g>
</g>
<g>
</g>
<g>
</g>
<g>
</g>
</svg>
