<?xml version="1.0" encoding="iso-8859-1"?>
<!-- Generator: Adobe Illustrator 24.2.1, SVG Export Plug-In . SVG Version: 6.00 Build 0)  -->
<svg version="1.1" id="Capa_1" xmlns="http://www.w3.org/2000/svg" xmlns:xlink="http://www.w3.org/1999/xlink" x="0px" y="0px"
	 viewBox="0 0 512 512" style="enable-background:new 0 0 512 512;" xml:space="preserve">
<g>
	<polygon points="405.938,253.008 405.938,472.909 340.336,429.175 274.734,472.909 274.734,253.008 237.266,253.008 
		237.266,472.909 171.664,429.175 106.063,472.909 106.063,253.008 68.594,253.008 68.594,512 443.406,512 443.406,253.008 	"/>
	<path d="M106.063,204.274c0-19.914,7.096-38.202,18.891-52.469H34.859v71.204h71.203V204.274z"/>
	<path d="M405.938,204.274v18.734h71.203v-71.204h-90.094C398.841,166.072,405.938,184.359,405.938,204.274z"/>
	<path d="M274.734,170.54c0-10.33-8.404-18.734-18.734-18.734s-18.734,8.404-18.734,18.734v52.469h37.469V170.54z"/>
	<path d="M350.637,94.637c0-9.711-5.252-18.751-13.706-23.592l-10.063-5.762l3.042-11.19c2.556-9.401-0.123-19.507-6.99-26.375
		c-6.868-6.868-16.976-9.545-26.374-6.991l-11.189,3.042l-5.762-10.063C274.752,5.252,265.712,0,256,0s-18.752,5.252-23.594,13.707
		l-5.762,10.063l-11.189-3.042c-9.398-2.554-19.507,0.124-26.374,6.991s-9.546,16.974-6.99,26.375l3.042,11.19l-10.063,5.762
		c-8.454,4.841-13.706,13.881-13.706,23.592c0,14.974,12.177,27.157,27.149,27.168h134.976
		C338.459,121.794,350.637,109.611,350.637,94.637z"/>
	<path d="M304.734,170.54v246.314l35.602-23.734l35.602,23.734v-212.58c0-28.931-23.537-52.469-52.469-52.469c0,0-22.485,0-22.485,0
		C303.396,157.576,304.734,163.904,304.734,170.54z"/>
	<path d="M188.531,151.805c-28.932,0-52.469,23.538-52.469,52.469v212.58l35.602-23.734l35.602,23.734V170.54
		c0-6.636,1.338-12.964,3.75-18.735H188.531z"/>
</g>
<g>
</g>
<g>
</g>
<g>
</g>
<g>
</g>
<g>
</g>
<g>
</g>
<g>
</g>
<g>
</g>
<g>
</g>
<g>
</g>
<g>
</g>
<g>
</g>
<g>
</g>
<g>
</g>
<g>
</g>
</svg>
