<?xml version="1.0" encoding="iso-8859-1"?>
<!-- Generator: Adobe Illustrator 24.2.1, SVG Export Plug-In . SVG Version: 6.00 Build 0)  -->
<svg version="1.1" id="Capa_1" xmlns="http://www.w3.org/2000/svg" xmlns:xlink="http://www.w3.org/1999/xlink" x="0px" y="0px"
	 viewBox="0 0 512 512" style="enable-background:new 0 0 512 512;" xml:space="preserve">
<g>
	<path d="M33.734,309.593h37.469v-35.602c0-43.801,15.073-85.134,42.789-118.264c-10.05-8.374-17.553-19.693-21.201-32.616
		c-37.853,40.815-59.057,94.227-59.057,150.88V309.593z"/>
	<path d="M398.008,155.728c27.716,33.13,42.789,74.463,42.789,118.264v35.602h37.469v-35.602c0-56.653-21.204-110.065-59.057-150.88
		C415.561,136.035,408.058,147.354,398.008,155.728z"/>
	<circle cx="256" cy="70.46" r="27.168"/>
	<path d="M18.734,377.062h20.126c2.594-14.051,8.739-26.873,17.499-37.469H18.734C8.404,339.593,0,347.998,0,358.328
		S8.404,377.062,18.734,377.062z"/>
	<path d="M190.398,377.062v-37.469h-70.46c-23.72,0-43.803,15.826-50.273,37.469H190.398z"/>
	<path d="M321.602,339.593v37.469h90.587c2.594-14.051,8.739-26.873,17.499-37.469H321.602z"/>
	<path d="M493.266,339.593c-23.719,0-43.802,15.826-50.272,37.469h50.272c10.33,0,18.734-8.404,18.734-18.734
		S503.596,339.593,493.266,339.593z"/>
	<path d="M359.633,425.797v-18.735h-38.031v65.847L271,439.175V512h53.031C338.547,512,359.633,478.419,359.633,425.797z"/>
	<path d="M478.266,425.797v-18.735h-88.633v18.735c0,29.316-5.826,57.112-16.404,78.27c-1.396,2.791-2.863,5.432-4.39,7.934h23.224
		C439.595,512,478.266,473.33,478.266,425.797z"/>
	<path d="M122.367,425.797v-18.735H33.734v18.735c0,47.533,38.671,86.203,86.204,86.203h23.224c-1.527-2.501-2.995-5.142-4.39-7.934
		C128.193,482.909,122.367,455.113,122.367,425.797z"/>
	<path d="M241,439.175l-50.602,33.734v-65.847h-38.031v18.735c0,52.622,21.085,86.203,35.602,86.203H241V439.175z"/>
	<path d="M291.602,144.398c-6.439-5.584-12.7-12.028-18.749-19.307c-5.33,1.648-10.989,2.538-16.853,2.538
		s-11.523-0.89-16.853-2.538c-6.049,7.279-12.31,13.723-18.749,19.307v272.456L256,393.119l35.602,23.734V144.398z"/>
	<path d="M313.168,70.46c0,14.734-5.605,28.182-14.791,38.329c14.368,16.461,34.213,32.132,57.702,32.132
		c19.631,0,35.602-15.971,35.602-35.602c0-9.161-3.484-17.869-9.811-24.521l-9.833-10.338l9.833-10.337
		c6.327-6.651,9.811-15.36,9.811-24.521C391.681,15.971,375.709,0,356.079,0c-23.489,0-43.334,15.67-57.702,32.132
		C307.563,42.279,313.168,55.727,313.168,70.46z"/>
	<path d="M130.13,80.798c-6.327,6.652-9.811,15.36-9.811,24.521c0,19.631,15.971,35.602,35.602,35.602
		c23.489,0,43.334-15.671,57.702-32.132c-9.187-10.147-14.791-23.595-14.791-38.329c0-14.734,5.605-28.181,14.791-38.329
		C199.256,15.67,179.411,0,155.921,0c-19.631,0-35.602,15.971-35.602,35.602c0,9.161,3.484,17.87,9.811,24.521l9.833,10.337
		L130.13,80.798z"/>
</g>
<g>
</g>
<g>
</g>
<g>
</g>
<g>
</g>
<g>
</g>
<g>
</g>
<g>
</g>
<g>
</g>
<g>
</g>
<g>
</g>
<g>
</g>
<g>
</g>
<g>
</g>
<g>
</g>
<g>
</g>
</svg>
