<?xml version="1.0" encoding="iso-8859-1"?>
<!-- Generator: Adobe Illustrator 24.2.1, SVG Export Plug-In . SVG Version: 6.00 Build 0)  -->
<svg version="1.1" id="Capa_1" xmlns="http://www.w3.org/2000/svg" xmlns:xlink="http://www.w3.org/1999/xlink" x="0px" y="0px"
	 viewBox="0 0 512 512" style="enable-background:new 0 0 512 512;" xml:space="preserve">
<g>
	<path d="M342.766,452.415V512h30v-59.585c-4.256,1.139-9.178,1.875-15,1.875C351.944,454.291,347.022,453.554,342.766,452.415z"/>
	<path d="M139.234,452.415V512h30v-59.585c-4.256,1.139-9.178,1.875-15,1.875C148.413,454.291,143.49,453.554,139.234,452.415z"/>
	<path d="M324.421,409.945c7.118,2.267,12.203,5.657,16.364,8.431c5.533,3.688,8.872,5.915,16.98,5.915
		c8.105,0,11.444-2.223,16.976-5.906c4.163-2.771,9.25-6.157,16.367-8.417c-5.067-13.508-18.103-23.146-33.343-23.146
		C342.522,386.822,329.487,396.45,324.421,409.945z"/>
	<path d="M120.89,409.945c7.118,2.267,12.203,5.657,16.364,8.431c5.533,3.688,8.872,5.915,16.98,5.915
		c8.105,0,11.444-2.223,16.976-5.906c4.163-2.771,9.25-6.157,16.367-8.417c-5.067-13.508-18.103-23.146-33.343-23.146
		C138.991,386.822,125.956,396.45,120.89,409.945z"/>
	<path d="M512,154.234C512,69.189,442.811,0,357.766,0c-27.38,0-53.639,7.045-76.931,20.515
		c35.472,33.601,57.634,81.119,57.634,133.72c0,60.488-22.697,116.702-60.947,159.493c23.356,19.845,50.776,34.429,80.246,42.573
		C448.774,331.195,512,248.653,512,154.234z"/>
	<path d="M308.469,154.234C308.469,69.189,239.279,0,154.234,0S0,69.189,0,154.234C0,248.653,63.228,331.195,154.234,356.3
		C245.241,331.195,308.469,248.653,308.469,154.234z M211.306,283.143c-24.712-38.487-37.774-83.063-37.774-128.909
		c0-38.78,11.919-75.887,34.47-107.308l24.373,17.492c-18.869,26.292-28.843,57.349-28.843,89.815
		c0,40.087,11.417,79.058,33.019,112.7L211.306,283.143z"/>
</g>
<g>
</g>
<g>
</g>
<g>
</g>
<g>
</g>
<g>
</g>
<g>
</g>
<g>
</g>
<g>
</g>
<g>
</g>
<g>
</g>
<g>
</g>
<g>
</g>
<g>
</g>
<g>
</g>
<g>
</g>
</svg>
