<?xml version="1.0" encoding="iso-8859-1"?>
<!-- Generator: Adobe Illustrator 24.2.1, SVG Export Plug-In . SVG Version: 6.00 Build 0)  -->
<svg version="1.1" id="Capa_1" xmlns="http://www.w3.org/2000/svg" xmlns:xlink="http://www.w3.org/1999/xlink" x="0px" y="0px"
	 viewBox="0 0 512 512" style="enable-background:new 0 0 512 512;" xml:space="preserve">
<g>
	<path d="M241,442.593V512h30v-69.407c-4.256,1.139-9.178,1.875-15,1.875C250.178,444.469,245.256,443.733,241,442.593z"/>
	<path d="M222.655,400.123c7.118,2.267,12.203,5.657,16.364,8.431c5.533,3.688,8.872,5.915,16.98,5.915
		c8.105,0,11.444-2.223,16.976-5.906c4.163-2.771,9.25-6.157,16.367-8.417C284.275,386.638,271.24,377,256,377
		C240.757,377,227.721,386.628,222.655,400.123z"/>
	<rect x="482" y="166" width="30" height="30"/>
	<rect x="449.833" y="45.468" transform="matrix(0.866 -0.5 0.5 0.866 32.042 240.5176)" width="30" height="30"/>
	<rect x="32.409" y="45.048" transform="matrix(0.5 -0.866 0.866 0.5 -28.2988 71.0814)" width="30" height="30"/>
	<rect y="165.516" width="30" height="30"/>
	<rect x="32.167" y="286.048" transform="matrix(0.866 -0.5 0.5 0.866 -144.2049 63.9162)" width="30" height="30"/>
	<rect x="449.591" y="286.468" transform="matrix(0.5 -0.866 0.866 0.5 -28.7832 553.0811)" width="30" height="30"/>
	<path d="M256,0C156.036,0,75,81.036,75,181c0,87.381,61.921,160.297,144.276,177.269C231.135,360.713,243.417,362,256,362
		c12.58,0,24.859-1.286,36.715-3.729C375.075,341.302,437,268.384,437,181C437,81.036,355.964,0,256,0z M195,121h30v45h-30V121z
		 M256,257c-33.636,0-61-27.364-61-61h30c0,17.093,13.907,31,31,31c17.094,0,31-13.907,31-31h30C317,229.636,289.636,257,256,257z
		 M317,166h-30v-45h30V166z"/>
</g>
<g>
</g>
<g>
</g>
<g>
</g>
<g>
</g>
<g>
</g>
<g>
</g>
<g>
</g>
<g>
</g>
<g>
</g>
<g>
</g>
<g>
</g>
<g>
</g>
<g>
</g>
<g>
</g>
<g>
</g>
</svg>
