<?xml version="1.0" encoding="iso-8859-1"?>
<!-- Generator: Adobe Illustrator 24.2.1, SVG Export Plug-In . SVG Version: 6.00 Build 0)  -->
<svg version="1.1" id="Capa_1" xmlns="http://www.w3.org/2000/svg" xmlns:xlink="http://www.w3.org/1999/xlink" x="0px" y="0px"
	 viewBox="0 0 512 512" style="enable-background:new 0 0 512 512;" xml:space="preserve">
<g>
	<path d="M169.706,448.36l85.524-85.523c-13.983,3.139-28.416,4.751-43.097,4.751c-47.054,0-91.561-16.557-126.876-46.91
		L63.64,342.294L169.706,448.36z"/>
	<rect x="44.246" y="362.753" transform="matrix(0.7071 -0.7071 0.7071 0.7071 -287.7915 180.7146)" width="60" height="150"/>
	<path d="M212.132,337.588c39.724,0,77.301-13.948,107.15-39.518L213.574,192.36L106.547,299.387
		C136.14,324.116,173.098,337.588,212.132,337.588z"/>
	<rect y="241" width="30" height="30"/>
	<rect x="60" y="241" width="30" height="30"/>
	<rect x="482" y="241" width="30" height="30"/>
	<rect x="422" y="241" width="30" height="30"/>
	<rect x="362" y="241" width="30" height="30"/>
	<rect x="463.655" y="148.773" transform="matrix(0.9239 -0.3827 0.3827 0.9239 -26.2379 195.64)" width="30" height="30"/>
	<rect x="408.222" y="171.734" transform="matrix(0.9239 -0.3827 0.3827 0.9239 -39.2442 176.174)" width="30" height="30"/>
	<rect x="411.413" y="70.587" transform="matrix(0.7071 -0.7071 0.7071 0.7071 64.3737 326.5867)" width="30" height="30"/>
	<rect x="368.986" y="113.014" transform="matrix(0.7071 -0.7071 0.7071 0.7071 21.9477 309.0137)" width="30" height="30"/>
	<rect x="284.133" y="197.866" transform="matrix(0.7071 -0.7071 0.7071 0.7071 -62.9051 273.867)" width="30" height="30"/>
	<rect x="326.56" y="155.44" transform="matrix(0.7071 -0.7071 0.7071 0.7071 -20.4787 291.4401)" width="30" height="30"/>
	<rect x="333.227" y="18.345" transform="matrix(0.3827 -0.9239 0.9239 0.3827 184.1596 342.3041)" width="30" height="30"/>
	<rect x="310.266" y="73.778" transform="matrix(0.3827 -0.9239 0.9239 0.3827 118.7717 355.3101)" width="30" height="30"/>
	<rect x="241" y="482" width="30" height="30"/>
	<rect x="241" y="422" width="30" height="30"/>
	<rect x="241" width="30" height="30"/>
	<rect x="241" y="60" width="30" height="30"/>
	<rect x="241" y="120" width="30" height="30"/>
	<rect x="333.227" y="463.655" transform="matrix(0.9239 -0.3827 0.3827 0.9239 -156.6662 169.6962)" width="30" height="30"/>
	<rect x="310.266" y="408.222" transform="matrix(0.9239 -0.3827 0.3827 0.9239 -137.2008 156.6898)" width="30" height="30"/>
	<rect x="148.773" y="18.345" transform="matrix(0.9239 -0.3827 0.3827 0.9239 -0.2941 65.2117)" width="30" height="30"/>
	<rect x="171.734" y="73.778" transform="matrix(0.9239 -0.3827 0.3827 0.9239 -19.7595 78.2176)" width="30" height="30"/>
	<rect x="411.413" y="411.413" transform="matrix(0.7071 -0.7071 0.7071 0.7071 -176.6259 426.4119)" width="30" height="30"/>
	<rect x="368.986" y="368.986" transform="matrix(0.7071 -0.7071 0.7071 0.7071 -159.0523 383.9863)" width="30" height="30"/>
	<rect x="326.56" y="326.56" transform="matrix(0.7071 -0.7071 0.7071 0.7071 -141.4787 341.5592)" width="30" height="30"/>
	<rect x="70.587" y="70.587" transform="matrix(0.7071 -0.7071 0.7071 0.7071 -35.4514 85.5871)" width="30" height="30"/>
	<rect x="113.014" y="113.014" transform="matrix(0.7071 -0.7071 0.7071 0.7071 -53.025 128.0137)" width="30" height="30"/>
	<rect x="155.44" y="155.44" transform="matrix(0.7071 -0.7071 0.7071 0.7071 -70.5986 170.4401)" width="30" height="30"/>
	<rect x="463.655" y="333.227" transform="matrix(0.3827 -0.9239 0.9239 0.3827 -26.2382 657.1851)" width="30" height="30"/>
	<rect x="408.222" y="310.266" transform="matrix(0.3827 -0.9239 0.9239 0.3827 -39.244 591.7986)" width="30" height="30"/>
	<rect x="18.345" y="148.773" transform="matrix(0.3827 -0.9239 0.9239 0.3827 -130.7223 131.9066)" width="30" height="30"/>
	<rect x="73.778" y="171.734" transform="matrix(0.3827 -0.9239 0.9239 0.3827 -117.716 197.2943)" width="30" height="30"/>
</g>
<g>
</g>
<g>
</g>
<g>
</g>
<g>
</g>
<g>
</g>
<g>
</g>
<g>
</g>
<g>
</g>
<g>
</g>
<g>
</g>
<g>
</g>
<g>
</g>
<g>
</g>
<g>
</g>
<g>
</g>
</svg>
