<?xml version="1.0" encoding="iso-8859-1"?>
<!-- Generator: Adobe Illustrator 24.2.1, SVG Export Plug-In . SVG Version: 6.00 Build 0)  -->
<svg version="1.1" id="Capa_1" xmlns="http://www.w3.org/2000/svg" xmlns:xlink="http://www.w3.org/1999/xlink" x="0px" y="0px"
	 viewBox="0 0 512 512" style="enable-background:new 0 0 512 512;" xml:space="preserve">
<g>
	<path d="M331,165h30c0-41.355,33.645-75,75-75V60C378.103,60,331,107.103,331,165z"/>
	<rect x="271" y="195" width="150" height="317"/>
	<rect x="421" width="30" height="30"/>
	<rect x="472.962" y="90" transform="matrix(0.5 -0.866 0.866 0.5 153.0478 475.0868)" width="30" height="30"/>
	<rect x="472.962" y="30" transform="matrix(0.866 -0.5 0.5 0.866 42.8744 250.0095)" width="30" height="30"/>
	<path d="M151,165h30c0-57.897-47.103-105-105-105v30C117.355,90,151,123.645,151,165z"/>
	<rect x="91" y="195" width="150" height="317"/>
	<rect x="61" width="30" height="30"/>
	<rect x="9.038" y="90" transform="matrix(0.866 -0.5 0.5 0.866 -49.2794 26.0866)" width="30" height="30"/>
	<rect x="9.038" y="30" transform="matrix(0.5 -0.866 0.866 0.5 -26.9519 43.3179)" width="30" height="30"/>
</g>
<g>
</g>
<g>
</g>
<g>
</g>
<g>
</g>
<g>
</g>
<g>
</g>
<g>
</g>
<g>
</g>
<g>
</g>
<g>
</g>
<g>
</g>
<g>
</g>
<g>
</g>
<g>
</g>
<g>
</g>
</svg>
