<?xml version="1.0" encoding="iso-8859-1"?>
<!-- Generator: Adobe Illustrator 24.2.1, SVG Export Plug-In . SVG Version: 6.00 Build 0)  -->
<svg version="1.1" id="Capa_1" xmlns="http://www.w3.org/2000/svg" xmlns:xlink="http://www.w3.org/1999/xlink" x="0px" y="0px"
	 viewBox="0 0 512 512" style="enable-background:new 0 0 512 512;" xml:space="preserve">
<g>
	<path d="M256,180.999l42.466-121.104C300.147,55.096,301,50.085,301,45c0-24.813-20.187-45-45-45s-45,20.187-45,45
		c0,5.087,0.854,10.099,2.536,14.897L256,180.999z"/>
	<path d="M256,331.001l-42.464,121.102C211.854,456.901,211,461.913,211,467c0,24.813,20.187,45,45,45s45-20.187,45-45
		c0-5.085-0.853-10.096-2.535-14.898L256,331.001z"/>
	<path d="M50.77,189.472c4.406,2.543,9.173,4.311,14.169,5.252L191.047,218.5l-83.646-97.329c-3.315-3.855-7.229-7.1-11.633-9.642
		c-10.398-6.005-22.524-7.597-34.144-4.482C50.006,110.16,40.301,117.602,34.298,128c-6.004,10.398-7.596,22.524-4.482,34.144
		S40.37,183.468,50.77,189.472z"/>
	<path d="M461.23,322.528c-4.403-2.542-9.17-4.31-14.169-5.253l-126.108-23.774l83.643,97.322c3.314,3.857,7.229,7.104,11.636,9.647
		c6.922,3.997,14.609,6.038,22.403,6.038c3.914,0,7.855-0.515,11.74-1.556c11.619-3.113,21.324-10.555,27.327-20.953
		c6.004-10.398,7.596-22.524,4.482-34.144S471.63,328.532,461.23,322.528z"/>
	<path d="M64.935,317.276c-4.995,0.942-9.762,2.71-14.165,5.253c-10.399,6.003-17.841,15.708-20.954,27.327
		S28.294,373.602,34.298,384c6.003,10.398,15.708,17.84,27.327,20.953c3.885,1.041,7.825,1.556,11.74,1.556
		c7.793,0,15.481-2.041,22.402-6.037c4.407-2.545,8.322-5.791,11.637-9.648l83.643-97.322L64.935,317.276z"/>
	<path d="M447.061,194.724c4.997-0.941,9.764-2.709,14.17-5.253c10.399-6.003,17.841-15.708,20.954-27.327
		s1.521-23.745-4.482-34.144c-6.003-10.398-15.708-17.84-27.327-20.953c-11.618-3.112-23.744-1.522-34.143,4.481
		c-4.404,2.543-8.318,5.787-11.636,9.646L320.953,218.5C320.953,218.5,447.062,194.724,447.061,194.724z"/>
	<polygon points="332,241 281.98,241 306.99,197.682 281.01,182.682 256,226 230.99,182.682 205.01,197.682 230.02,241 180,241 
		180,271 230.02,271 205.01,314.318 230.99,329.318 256,286 281.01,329.318 306.99,314.318 281.98,271 332,271 	"/>
	<rect x="60" y="241" width="30" height="30"/>
	<rect x="120" y="241" width="30" height="30"/>
	<rect y="241" width="30" height="30"/>
	<rect x="482" y="241" width="30" height="30"/>
	<rect x="422" y="241" width="30" height="30"/>
	<rect x="362" y="241" width="30" height="30"/>
	<rect x="150.5" y="397.751" transform="matrix(0.5 -0.866 0.866 0.5 -274.7024 349.7021)" width="30" height="30"/>
	<rect x="180.5" y="345.789" transform="matrix(0.5 -0.866 0.866 0.5 -214.7025 349.7021)" width="30" height="30"/>
	<rect x="120.5" y="449.712" transform="matrix(0.5 -0.866 0.866 0.5 -334.7024 349.7021)" width="30" height="30"/>
	<rect x="361.5" y="32.288" transform="matrix(0.5 -0.866 0.866 0.5 147.2973 349.7023)" width="30" height="30"/>
	<rect x="331.5" y="84.249" transform="matrix(0.5 -0.866 0.866 0.5 87.2973 349.7023)" width="30" height="30"/>
	<rect x="301.5" y="136.211" transform="matrix(0.5 -0.866 0.866 0.5 27.2976 349.7025)" width="30" height="30"/>
	<rect x="331.5" y="397.751" transform="matrix(0.866 -0.5 0.5 0.866 -159.9532 228.5485)" width="30" height="30"/>
	<rect x="301.5" y="345.789" transform="matrix(0.866 -0.5 0.5 0.866 -137.9917 206.5869)" width="30" height="30"/>
	<rect x="361.5" y="449.712" transform="matrix(0.866 -0.5 0.5 0.866 -181.9144 250.5089)" width="30" height="30"/>
	<rect x="120.5" y="32.288" transform="matrix(0.866 -0.5 0.5 0.866 -5.4904 74.0853)" width="30" height="30"/>
	<rect x="150.5" y="84.249" transform="matrix(0.866 -0.5 0.5 0.866 -27.4519 96.0471)" width="30" height="30"/>
	<rect x="180.5" y="136.211" transform="matrix(0.866 -0.5 0.5 0.866 -49.4134 118.0086)" width="30" height="30"/>
</g>
<g>
</g>
<g>
</g>
<g>
</g>
<g>
</g>
<g>
</g>
<g>
</g>
<g>
</g>
<g>
</g>
<g>
</g>
<g>
</g>
<g>
</g>
<g>
</g>
<g>
</g>
<g>
</g>
<g>
</g>
</svg>
