<?xml version="1.0" encoding="iso-8859-1"?>
<!-- Generator: Adobe Illustrator 24.2.1, SVG Export Plug-In . SVG Version: 6.00 Build 0)  -->
<svg version="1.1" id="Capa_1" xmlns="http://www.w3.org/2000/svg" xmlns:xlink="http://www.w3.org/1999/xlink" x="0px" y="0px"
	 viewBox="0 0 513.805 513.805" style="enable-background:new 0 0 513.805 513.805;" xml:space="preserve">
<g>
	<path d="M34.429,246.106C53.324,140.449,145.894,60,256.902,60s203.579,80.449,222.474,186.106
		c12.809,10.128,24.097,22.095,33.473,35.495c-1.117-66.733-27.614-129.307-74.927-176.621
		c-36.607-36.607-82.352-60.749-132.087-70.324C312.793,24.86,316.902,12.904,316.902,0h-30c0,16.542-13.458,30-30,30
		s-30-13.458-30-30h-30c0,12.904,4.109,24.86,11.067,34.656c-49.735,9.575-95.48,33.717-132.087,70.324
		C28.57,152.294,2.073,214.868,0.956,281.601C10.332,268.201,21.62,256.234,34.429,246.106z"/>
	<path d="M376.098,240.195H137.707C62.272,240.195,0.902,301.565,0.902,377s61.37,136.805,136.805,136.805
		c26.343,0,51.913-7.5,73.947-21.688c13.744-8.85,29.496-13.274,45.248-13.274s31.504,4.425,45.247,13.274
		c22.035,14.188,47.605,21.688,73.948,21.688c75.435,0,136.805-61.37,136.805-136.805S451.532,240.195,376.098,240.195z
		 M137.707,427.602c-34.58,0-64.282-20.821-77.298-50.602c13.016-29.781,42.719-50.602,77.298-50.602
		c34.58,0,64.282,20.82,77.299,50.602C201.99,406.781,172.287,427.602,137.707,427.602z M376.097,427.602
		c-34.58,0-64.282-20.821-77.299-50.602c13.016-29.781,42.719-50.602,77.299-50.602c34.58,0,64.282,20.82,77.299,50.602
		C440.38,406.781,410.677,427.602,376.097,427.602z"/>
</g>
<g>
</g>
<g>
</g>
<g>
</g>
<g>
</g>
<g>
</g>
<g>
</g>
<g>
</g>
<g>
</g>
<g>
</g>
<g>
</g>
<g>
</g>
<g>
</g>
<g>
</g>
<g>
</g>
<g>
</g>
</svg>
