<?xml version="1.0" encoding="iso-8859-1"?>
<!-- Generator: Adobe Illustrator 24.2.1, SVG Export Plug-In . SVG Version: 6.00 Build 0)  -->
<svg version="1.1" id="Capa_1" xmlns="http://www.w3.org/2000/svg" xmlns:xlink="http://www.w3.org/1999/xlink" x="0px" y="0px"
	 viewBox="0 0 512 512" style="enable-background:new 0 0 512 512;" xml:space="preserve">
<g>
	<path d="M248.353,194.321c22.742,0,44.493-6.5,63.151-18.611c-26.283-12.636-48.157-32.822-63.043-58.603
		c-13.327-23.083-19.969-48.776-19.638-74.771c-34.277,30.035-56.467,73.531-58.245,122.152
		C191.987,183.77,219.368,194.321,248.353,194.321z"/>
	<path d="M396.408,9.14C379.098,3.219,360.547,0,341.257,0c-28.837,0-56.022,7.194-79.872,19.865
		c-5.985,28.173-1.431,57.149,13.057,82.242c11.371,19.695,27.876,35.282,47.692,45.385c-2.199-29.079,4.345-58.117,19.23-83.898
		C354.713,40.474,373.68,21.852,396.408,9.14z"/>
	<path d="M173.674,203.88c9.235,46.877,37.705,86.927,76.823,111.561c27.38-8.906,50.188-27.334,64.671-52.42
		c11.371-19.695,16.617-41.782,15.458-63.995c-24.084,16.444-52.503,25.295-82.273,25.295
		C221.657,224.321,196.047,217.206,173.674,203.88z"/>
	<path d="M432.018,26.174c-50.427,16.443-82.666,64.843-80.099,116.394c24.078-16.43,52.485-25.274,82.242-25.274
		c26.696,0,52.307,7.115,74.679,20.441C499.604,90.858,471.135,50.809,432.018,26.174z"/>
	<path d="M434.161,147.294c-22.742,0-44.493,6.5-63.151,18.611c26.283,12.636,48.157,32.822,63.043,58.603
		c13.327,23.083,19.969,48.776,19.638,74.771c34.277-30.035,56.467-73.531,58.245-122.152
		C490.526,157.845,463.146,147.294,434.161,147.294z"/>
	<path d="M421.129,321.75c5.985-28.173,1.431-57.149-13.057-82.242c-11.371-19.695-27.876-35.282-47.692-45.384
		c2.199,29.079-4.345,58.116-19.231,83.898c-13.348,23.12-32.316,41.742-55.043,54.454c17.309,5.921,35.861,9.14,55.151,9.14
		C370.094,341.615,397.279,334.422,421.129,321.75z"/>
	<path d="M186.67,298.831L0.065,485.436L26.628,512l186.606-186.605C203.577,317.384,194.681,308.488,186.67,298.831z"/>
</g>
<g>
</g>
<g>
</g>
<g>
</g>
<g>
</g>
<g>
</g>
<g>
</g>
<g>
</g>
<g>
</g>
<g>
</g>
<g>
</g>
<g>
</g>
<g>
</g>
<g>
</g>
<g>
</g>
<g>
</g>
</svg>
