<?xml version="1.0" encoding="iso-8859-1"?>
<!-- Generator: Adobe Illustrator 24.2.1, SVG Export Plug-In . SVG Version: 6.00 Build 0)  -->
<svg version="1.1" id="Capa_1" xmlns="http://www.w3.org/2000/svg" xmlns:xlink="http://www.w3.org/1999/xlink" x="0px" y="0px"
	 viewBox="0 0 512 512" style="enable-background:new 0 0 512 512;" xml:space="preserve">
<g>
	<circle cx="256" cy="256" r="52.469"/>
	<path d="M375.938,256c0-66.134-53.804-119.938-119.938-119.938S136.062,189.866,136.062,256S189.866,375.938,256,375.938
		S375.938,322.134,375.938,256z M256,338.469c-45.474,0-82.469-36.995-82.469-82.469s36.995-82.469,82.469-82.469
		s82.469,36.995,82.469,82.469S301.474,338.469,256,338.469z"/>
	<path d="M280.779,38.618l-6.615-24.489C272.067,5.811,264.597,0,256,0s-16.067,5.811-18.164,14.129l-0.064,0.245l-6.549,24.244
		H280.779z"/>
	<path d="M256,106.063c15.616,0,30.681,2.403,44.847,6.853l-11.965-44.297h-65.763l-11.966,44.297
		C225.32,108.466,240.384,106.063,256,106.063z"/>
	<path d="M109.664,223.299c6.782-30.369,22.8-57.291,44.945-77.653l-44.445-11.813l-32.882,56.952L109.664,223.299z"/>
	<path d="M37.631,150.973l17.722,17.794l24.778-42.917l-24.516-6.516c-8.253-2.341-17.02,1.221-21.318,8.666
		c-4.298,7.445-3.001,16.819,3.154,22.795L37.631,150.973z"/>
	<path d="M109.664,288.701l-32.383,32.514l32.882,56.952l44.445-11.812C132.463,345.991,116.446,319.07,109.664,288.701z"/>
	<path d="M55.352,343.232l-17.901,17.973c-6.156,5.976-7.453,15.35-3.154,22.795c4.299,7.446,13.064,11.006,21.318,8.666
		l0.244-0.067l24.271-6.45L55.352,343.232z"/>
	<path d="M231.221,473.382l6.615,24.489C239.933,506.189,247.403,512,256,512s16.067-5.811,18.164-14.129l0.064-0.245l6.549-24.244
		H231.221z"/>
	<path d="M256,405.938c-15.616,0-30.681-2.403-44.847-6.853l11.965,44.297h65.763l11.966-44.297
		C286.68,403.534,271.616,405.938,256,405.938z"/>
	<path d="M477.703,384c4.298-7.445,3.001-16.819-3.154-22.795l-0.18-0.178l-17.722-17.794l-24.778,42.917l24.516,6.516
		C464.638,395.009,473.404,391.446,477.703,384z"/>
	<path d="M402.336,288.701c-6.782,30.369-22.8,57.291-44.945,77.653l44.445,11.813l32.882-56.952L402.336,288.701z"/>
	<path d="M402.336,223.299l32.383-32.514l-32.882-56.952l-44.445,11.812C379.537,166.009,395.554,192.93,402.336,223.299z"/>
	<path d="M456.648,168.768l17.901-17.973c6.156-5.976,7.453-15.35,3.154-22.795c-4.299-7.446-13.063-11.008-21.318-8.666
		l-0.244,0.067l-24.271,6.45L456.648,168.768z"/>
</g>
<g>
</g>
<g>
</g>
<g>
</g>
<g>
</g>
<g>
</g>
<g>
</g>
<g>
</g>
<g>
</g>
<g>
</g>
<g>
</g>
<g>
</g>
<g>
</g>
<g>
</g>
<g>
</g>
<g>
</g>
</svg>
