<?xml version="1.0" encoding="iso-8859-1"?>
<!-- Generator: Adobe Illustrator 24.2.1, SVG Export Plug-In . SVG Version: 6.00 Build 0)  -->
<svg version="1.1" id="Capa_1" xmlns="http://www.w3.org/2000/svg" xmlns:xlink="http://www.w3.org/1999/xlink" x="0px" y="0px"
	 viewBox="0 0 512 512" style="enable-background:new 0 0 512 512;" xml:space="preserve">
<g>
	<rect x="440.797" y="84.054" width="71.203" height="71.203"/>
	<path d="M101.664,356.178H0v37.469h123.945C114.982,382.25,107.468,369.665,101.664,356.178z"/>
	<path d="M92.003,326.178c-2.567-11.652-3.933-23.749-3.933-36.161c0-39.591,13.781-76.02,36.786-104.76H0v140.921H92.003z"/>
	<path d="M0,84.054v71.203h155.913c27.97-20.827,62.614-33.169,100.087-33.169s72.118,12.342,100.087,33.169h54.709V84.054H0z"/>
	<path d="M410.336,356.178c-5.804,13.487-13.318,26.072-22.281,37.469H512v-37.469H410.336z"/>
	<path d="M387.144,185.257c23.005,28.74,36.786,65.168,36.786,104.76c0,12.412-1.366,24.509-3.933,36.161H512V185.257H387.144z"/>
	<path d="M393.93,290.017c0-76.054-61.875-137.929-137.93-137.929s-137.93,61.875-137.93,137.929
		c0,76.055,61.875,137.93,137.93,137.93S393.93,366.071,393.93,290.017z M155.539,290.017c0-55.394,45.066-100.46,100.461-100.46
		s100.461,45.066,100.461,100.46c0,55.395-45.066,100.461-100.461,100.461S155.539,345.411,155.539,290.017z"/>
	<path d="M326.461,290.017c0-38.852-31.608-70.46-70.461-70.46s-70.461,31.608-70.461,70.46c0,38.853,31.608,70.461,70.461,70.461
		S326.461,328.869,326.461,290.017z"/>
</g>
<g>
</g>
<g>
</g>
<g>
</g>
<g>
</g>
<g>
</g>
<g>
</g>
<g>
</g>
<g>
</g>
<g>
</g>
<g>
</g>
<g>
</g>
<g>
</g>
<g>
</g>
<g>
</g>
<g>
</g>
</svg>
