<?xml version="1.0" encoding="iso-8859-1"?>
<!-- Generator: Adobe Illustrator 24.2.1, SVG Export Plug-In . SVG Version: 6.00 Build 0)  -->
<svg version="1.1" id="Capa_1" xmlns="http://www.w3.org/2000/svg" xmlns:xlink="http://www.w3.org/1999/xlink" x="0px" y="0px"
	 viewBox="0 0 509.55 509.55" style="enable-background:new 0 0 509.55 509.55;" xml:space="preserve">
<g>
	<rect x="430.969" y="48.615" transform="matrix(0.7071 -0.7071 0.7071 0.7071 85.6286 333.9563)" width="29.932" height="30"/>
	<rect x="473.395" y="91.042" transform="matrix(0.7071 -0.7071 0.7071 0.7071 68.0543 376.3816)" width="29.932" height="30"/>
	<rect x="388.542" y="6.189" transform="matrix(0.7071 -0.7071 0.7071 0.7071 103.2018 291.5294)" width="29.932" height="30"/>
	<polygon points="140.807,317.446 114.646,347.632 161.918,394.904 192.104,368.743 	"/>
	<path d="M291.864,71.909l-77.141,128.359c60.478,53.442,148.772,61.976,218.735,19.932l4.183-2.514L291.864,71.909z"/>
	<path d="M337.672,276.848c-49.732,0-98.975-17.216-138.62-50.503l-40.136,66.785l57.505,57.505l122.798-73.799
		C338.703,276.839,338.187,276.848,337.672,276.848z"/>
	<polygon points="139.19,414.602 94.948,370.36 0,479.916 29.634,509.55 	"/>
	<polygon points="464.142,201.76 499.336,180.609 328.941,10.214 307.79,45.409 	"/>
</g>
<g>
</g>
<g>
</g>
<g>
</g>
<g>
</g>
<g>
</g>
<g>
</g>
<g>
</g>
<g>
</g>
<g>
</g>
<g>
</g>
<g>
</g>
<g>
</g>
<g>
</g>
<g>
</g>
<g>
</g>
</svg>
