<?xml version="1.0" encoding="iso-8859-1"?>
<!-- Generator: Adobe Illustrator 24.2.1, SVG Export Plug-In . SVG Version: 6.00 Build 0)  -->
<svg version="1.1" id="Capa_1" xmlns="http://www.w3.org/2000/svg" xmlns:xlink="http://www.w3.org/1999/xlink" x="0px" y="0px"
	 viewBox="0 0 512.001 512.001" style="enable-background:new 0 0 512.001 512.001;" xml:space="preserve">
<g>
	<path d="M148.785,224.917c25.439,18.547,53.123,33.954,82.461,45.862c46.607,18.917,95.814,28.509,146.252,28.509
		c6.961,0,13.944-0.19,20.904-0.559l-56.345-118.2c-52.446-6.57-101.974-28.545-142.129-62.9L148.785,224.917z"/>
	<path d="M377.498,402.234c-63.772,0-126.005-12.135-184.968-36.066c-31.153-12.644-60.893-28.444-88.649-47.05L38.467,456.342
		c66.365,36.455,141.272,55.659,217.534,55.659c76.262,0,151.168-19.204,217.533-55.659l-28.029-58.799
		C423.093,400.65,400.271,402.234,377.498,402.234z"/>
	<path d="M203.812,338.371c55.363,22.47,113.799,33.863,173.686,33.863c18.199,0,36.427-1.081,54.42-3.195l-19.63-41.179
		c-11.535,0.948-23.192,1.428-34.79,1.428c-54.325,0-107.327-10.333-157.535-30.712c-29.864-12.121-58.138-27.617-84.292-46.148
		l-18.737,39.305C144.022,310.274,173.189,325.941,203.812,338.371z"/>
	<path d="M213.35,89.473c31.846,29.166,70.981,49.194,112.963,58.029L256,0L213.35,89.473z"/>
</g>
<g>
</g>
<g>
</g>
<g>
</g>
<g>
</g>
<g>
</g>
<g>
</g>
<g>
</g>
<g>
</g>
<g>
</g>
<g>
</g>
<g>
</g>
<g>
</g>
<g>
</g>
<g>
</g>
<g>
</g>
</svg>
