<?xml version="1.0" encoding="iso-8859-1"?>
<!-- Generator: Adobe Illustrator 24.2.1, SVG Export Plug-In . SVG Version: 6.00 Build 0)  -->
<svg version="1.1" id="Capa_1" xmlns="http://www.w3.org/2000/svg" xmlns:xlink="http://www.w3.org/1999/xlink" x="0px" y="0px"
	 viewBox="0 0 512 512" style="enable-background:new 0 0 512 512;" xml:space="preserve">
<g>
	<polygon points="256,81.017 331.175,0 180.825,0 	"/>
	<path d="M227.161,94.043l-77.825-83.873L87.784,117.886l64.768,70.846l40.186-64.209
		C201.103,110.605,213.157,100.117,227.161,94.043z"/>
	<path d="M362.664,10.171l-77.824,83.872c14.004,6.074,26.059,16.562,34.423,30.481l40.185,64.208l64.767-70.846L362.664,10.171z"/>
	<path d="M139.797,488.361V219.242l-55.461-60.666V394.23c0,21.581,8.019,42.237,22.58,58.164L139.797,488.361z"/>
	<path d="M293.6,140.062c-8.239-13.77-22.295-21.991-37.6-21.991s-29.36,8.221-37.599,21.991l-0.157,0.257l-44.683,71.394
		L256,301.889l82.44-90.177L293.6,140.062z M271,195.023h-30v-30h30V195.023z"/>
	<polygon points="457.664,309.12 512,309.12 512,179.032 457.664,146.431 	"/>
	<polygon points="342.203,252.058 271,329.943 271,512 342.203,512 	"/>
	<rect x="457.664" y="339.12" width="54.336" height="37.469"/>
	<path d="M457.002,406.589c-2.61,24.547-12.949,47.642-29.778,66.048L391.24,512H512V406.589H457.002z"/>
	<path d="M405.083,452.395c14.562-15.927,22.581-36.583,22.581-58.164V158.577l-55.461,60.666v269.118L405.083,452.395z"/>
	<polygon points="241,329.943 169.797,252.057 169.797,512 241,512 	"/>
	<path d="M84.774,472.637c-19.628-21.47-30.438-49.315-30.438-78.406v-247.8L0,179.032V512h120.76L84.774,472.637z"/>
</g>
<g>
</g>
<g>
</g>
<g>
</g>
<g>
</g>
<g>
</g>
<g>
</g>
<g>
</g>
<g>
</g>
<g>
</g>
<g>
</g>
<g>
</g>
<g>
</g>
<g>
</g>
<g>
</g>
<g>
</g>
</svg>
