<?xml version="1.0" encoding="iso-8859-1"?>
<!-- Generator: Adobe Illustrator 24.2.1, SVG Export Plug-In . SVG Version: 6.00 Build 0)  -->
<svg version="1.1" id="Capa_1" xmlns="http://www.w3.org/2000/svg" xmlns:xlink="http://www.w3.org/1999/xlink" x="0px" y="0px"
	 viewBox="0 0 512 512" style="enable-background:new 0 0 512 512;" xml:space="preserve">
<g>
	<path d="M338.047,256.91l21.429-52.893c-5.144,1.196-10.494,1.848-15.996,1.848c-36.386,0-66.429-27.645-70.25-63.033
		c-5.484,1.612-11.269,2.462-17.23,2.462s-11.745-0.849-17.23-2.462c-3.821,35.388-33.863,63.033-70.25,63.033
		c-5.503,0-10.852-0.653-15.996-1.848l21.429,52.893l-39.632,50.507c-22.912,29.199-29.907,67.757-18.713,103.143L147.696,512
		h216.607l32.088-101.44c11.194-35.386,4.199-73.943-18.713-103.143L338.047,256.91z"/>
	<path d="M168.521,175.865c22.425,0,40.669-18.244,40.669-40.669s-18.244-40.669-40.669-40.669h-40.669v40.669
		C127.852,157.621,146.096,175.865,168.521,175.865z"/>
	<path d="M302.811,135.196c0,22.425,18.244,40.669,40.669,40.669s40.669-18.244,40.669-40.669V94.527h-40.669
		C321.055,94.527,302.811,112.771,302.811,135.196z"/>
	<rect x="127.852" width="30" height="64.527"/>
	<rect x="354.148" width="30" height="64.527"/>
</g>
<g>
</g>
<g>
</g>
<g>
</g>
<g>
</g>
<g>
</g>
<g>
</g>
<g>
</g>
<g>
</g>
<g>
</g>
<g>
</g>
<g>
</g>
<g>
</g>
<g>
</g>
<g>
</g>
<g>
</g>
</svg>
