<?xml version="1.0" encoding="iso-8859-1"?>
<!-- Generator: Adobe Illustrator 24.2.1, SVG Export Plug-In . SVG Version: 6.00 Build 0)  -->
<svg version="1.1" id="Capa_1" xmlns="http://www.w3.org/2000/svg" xmlns:xlink="http://www.w3.org/1999/xlink" x="0px" y="0px"
	 viewBox="0 0 512 512" style="enable-background:new 0 0 512 512;" xml:space="preserve">
<g>
	<rect x="304.748" y="204.522" width="139.863" height="71.243"/>
	<rect x="271" y="305.766" width="207.359" height="206.234"/>
	<path d="M205.378,272.019H69.262c-19.642,0-35.621,15.979-35.621,35.621V512H241V307.64
		C241,287.998,225.02,272.019,205.378,272.019z"/>
	<path d="M69.262,242.019h136.116c13.126,0,25.354,3.889,35.621,10.553v-12.427c0-19.642-15.979-35.622-35.621-35.622H69.262
		c-19.642,0-35.621,15.98-35.621,35.622v12.427C43.908,245.907,56.136,242.019,69.262,242.019z"/>
	<path d="M321.622,174.522h106.116V92.035c0-38.402-20.146-73.021-53.059-92.035c-32.912,19.015-53.058,53.633-53.058,92.035
		V174.522z"/>
</g>
<g>
</g>
<g>
</g>
<g>
</g>
<g>
</g>
<g>
</g>
<g>
</g>
<g>
</g>
<g>
</g>
<g>
</g>
<g>
</g>
<g>
</g>
<g>
</g>
<g>
</g>
<g>
</g>
<g>
</g>
</svg>
