<?xml version="1.0" encoding="iso-8859-1"?>
<!-- Generator: Adobe Illustrator 24.2.1, SVG Export Plug-In . SVG Version: 6.00 Build 0)  -->
<svg version="1.1" id="Capa_1" xmlns="http://www.w3.org/2000/svg" xmlns:xlink="http://www.w3.org/1999/xlink" x="0px" y="0px"
	 viewBox="0 0 512 512" style="enable-background:new 0 0 512 512;" xml:space="preserve">
<g>
	<path d="M187.407,180.404c-8.768,0-17.195,3.222-23.729,9.07l-10.005,8.956l-10.005-8.956c-6.534-5.849-14.961-9.07-23.729-9.07
		c-19.631,0-35.602,15.971-35.602,35.602c0,8.34,2.793,16.147,8.077,22.578l61.26,74.646l61.259-74.646
		c5.284-6.431,8.077-14.238,8.077-22.578C223.008,196.375,207.038,180.404,187.407,180.404z"/>
	<path d="M476.398,16.867h-12.411c6.659,10.262,10.544,22.483,10.544,35.602v407.063c0,13.118-3.885,25.339-10.544,35.602h12.411
		c19.631,0,35.602-15.971,35.602-35.602V52.469C512,32.838,496.029,16.867,476.398,16.867z"/>
	<path d="M309.593,459.531V52.469c0-19.631-15.971-35.602-35.602-35.602H35.602C15.971,16.867,0,32.838,0,52.469v407.063
		c0,19.631,15.971,35.602,35.602,35.602h238.39C293.623,495.133,309.593,479.162,309.593,459.531z M37.469,54.336h30v30h-30V54.336z
		 M153.672,360.52L69.228,257.622c-9.601-11.685-14.892-26.467-14.892-41.616c0-36.173,29.429-65.602,65.602-65.602
		c11.979,0,23.611,3.261,33.734,9.339c10.123-6.078,21.756-9.339,33.734-9.339c36.173,0,65.602,29.429,65.602,65.602
		c0,15.146-5.289,29.926-14.892,41.616L153.672,360.52z M272.124,457.664h-30v-30h30V457.664z"/>
	<rect x="339.593" y="84.336" width="37.469" height="343.328"/>
	<path d="M444.531,459.531V52.469c0-19.631-15.971-35.602-35.602-35.602h-79.881c6.659,10.262,10.544,22.483,10.544,35.602v1.867
		h67.469v403.328h-67.469v1.867c0,13.118-3.885,25.339-10.544,35.602h79.881C428.561,495.133,444.531,479.162,444.531,459.531z"/>
</g>
<g>
</g>
<g>
</g>
<g>
</g>
<g>
</g>
<g>
</g>
<g>
</g>
<g>
</g>
<g>
</g>
<g>
</g>
<g>
</g>
<g>
</g>
<g>
</g>
<g>
</g>
<g>
</g>
<g>
</g>
</svg>
