<?xml version="1.0" encoding="iso-8859-1"?>
<!-- Generator: Adobe Illustrator 24.2.1, SVG Export Plug-In . SVG Version: 6.00 Build 0)  -->
<svg version="1.1" id="Capa_1" xmlns="http://www.w3.org/2000/svg" xmlns:xlink="http://www.w3.org/1999/xlink" x="0px" y="0px"
	 viewBox="0 0 512 512" style="enable-background:new 0 0 512 512;" xml:space="preserve">
<g>
	<rect x="230.294" y="67.469" width="51.412" height="51.412"/>
	<rect x="67.469" y="230.294" width="51.413" height="51.412"/>
	<path d="M148.881,148.881v214.238h214.237V148.881H148.881z M256,325.649c-38.405,0-69.65-31.244-69.65-69.649
		s31.245-69.649,69.65-69.649s69.65,31.244,69.65,69.649S294.405,325.649,256,325.649z"/>
	<rect x="67.469" y="311.706" width="51.413" height="51.413"/>
	<rect x="67.469" y="148.881" width="51.413" height="51.413"/>
	<rect x="230.294" y="393.119" width="51.412" height="51.412"/>
	<circle cx="256" cy="256" r="39.65"/>
	<rect x="393.119" y="67.469" width="51.413" height="51.412"/>
	<rect x="311.706" y="393.119" width="51.413" height="51.412"/>
	<rect x="148.881" y="393.119" width="51.413" height="51.412"/>
	<rect x="393.119" y="393.119" width="51.413" height="51.412"/>
	<rect x="67.469" y="393.119" width="51.413" height="51.412"/>
	<path d="M0,512h512V0H0V512z M37.469,37.469h437.063v437.063H37.469V37.469z"/>
	<rect x="311.706" y="67.469" width="51.413" height="51.412"/>
	<rect x="67.469" y="67.469" width="51.413" height="51.412"/>
	<rect x="393.119" y="311.706" width="51.413" height="51.413"/>
	<rect x="393.119" y="230.294" width="51.413" height="51.412"/>
	<rect x="393.119" y="148.881" width="51.413" height="51.413"/>
	<rect x="148.881" y="67.469" width="51.413" height="51.412"/>
</g>
<g>
</g>
<g>
</g>
<g>
</g>
<g>
</g>
<g>
</g>
<g>
</g>
<g>
</g>
<g>
</g>
<g>
</g>
<g>
</g>
<g>
</g>
<g>
</g>
<g>
</g>
<g>
</g>
<g>
</g>
</svg>
