<?xml version="1.0" encoding="iso-8859-1"?>
<!-- Generator: Adobe Illustrator 24.2.1, SVG Export Plug-In . SVG Version: 6.00 Build 0)  -->
<svg version="1.1" id="Capa_1" xmlns="http://www.w3.org/2000/svg" xmlns:xlink="http://www.w3.org/1999/xlink" x="0px" y="0px"
	 viewBox="0 0 512.008 512.008" style="enable-background:new 0 0 512.008 512.008;" xml:space="preserve">
<g>
	<rect x="394.995" y="79.447" transform="matrix(0.7071 -0.7071 0.7071 0.7071 51.7319 321.3549)" width="37.567" height="37.567"/>
	<rect x="437.824" y="19.726" transform="matrix(0.7071 -0.7071 0.7071 0.7071 111.4567 346.0971)" width="71.35" height="37.568"/>
	<path d="M347.23,273.083l-19.657-19.657l-37.851,37.85c-0.814,15.653-7.18,31.068-19.109,42.998
		c-12.404,12.404-28.897,19.236-46.439,19.236c-17.542,0-34.035-6.832-46.439-19.236c-25.606-25.606-25.606-67.271,0-92.878
		c11.598-11.599,26.772-18.322,43.035-19.147l37.813-37.813l-19.657-19.657c-17.448-17.447-45.838-17.447-63.288,0
		c-2.746,2.746-5.126,5.843-7.074,9.204l-33.813,58.339l-9.529-0.86c-36.875-3.336-70.075,7.729-93.492,31.147
		c-23.417,23.417-34.479,56.62-31.148,93.492c3.422,37.891,21.513,74.963,50.938,104.389c33.929,33.929,77.06,51.513,117.007,51.516
		c30.71,0.003,59.534-10.386,80.874-31.726c23.417-23.418,34.479-56.621,31.147-93.492l-0.86-9.529l58.34-33.813
		c3.36-1.948,6.457-4.328,9.203-7.074C364.678,318.923,364.678,290.532,347.23,273.083z M177.735,429.828l-95.553-95.554
		l21.213-21.213l95.553,95.554L177.735,429.828z"/>
	<path d="M198.948,313.061c6.738,6.738,15.697,10.449,25.226,10.449c9.529,0,18.488-3.711,25.226-10.449
		c13.909-13.91,13.909-36.542,0-50.452c-6.738-6.738-15.697-10.449-25.226-10.449c-9.529,0-18.488,3.711-25.226,10.449
		C185.038,276.519,185.038,299.151,198.948,313.061z"/>
	<path d="M255.408,230.037c5.52,2.992,10.641,6.795,15.205,11.359c4.615,4.615,8.385,9.757,11.336,15.227l110.616-110.616
		l-26.564-26.564L255.408,230.037z"/>
</g>
<g>
</g>
<g>
</g>
<g>
</g>
<g>
</g>
<g>
</g>
<g>
</g>
<g>
</g>
<g>
</g>
<g>
</g>
<g>
</g>
<g>
</g>
<g>
</g>
<g>
</g>
<g>
</g>
<g>
</g>
</svg>
