<?xml version="1.0" encoding="iso-8859-1"?>
<!-- Generator: Adobe Illustrator 24.2.1, SVG Export Plug-In . SVG Version: 6.00 Build 0)  -->
<svg version="1.1" id="Capa_1" xmlns="http://www.w3.org/2000/svg" xmlns:xlink="http://www.w3.org/1999/xlink" x="0px" y="0px"
	 viewBox="0 0 512 512" style="enable-background:new 0 0 512 512;" xml:space="preserve">
<g>
	<polygon points="67.469,390.195 67.469,512 444.531,512 444.531,390.195 406.688,390.195 406.688,476.398 376.688,476.398 
		376.688,390.195 338.844,390.195 338.844,476.398 308.844,476.398 308.844,390.195 271,390.195 271,476.398 241,476.398 
		241,390.195 203.156,390.195 203.156,476.398 173.156,476.398 173.156,390.195 135.313,390.195 135.313,476.398 105.313,476.398 
		105.313,390.195 	"/>
	<rect x="406.688" y="120.319" width="105.313" height="172.407"/>
	<polygon points="512,512 512,322.727 0,322.727 0,512 37.469,512 37.469,360.195 474.531,360.195 474.531,512 	"/>
	<rect y="120.319" width="105.313" height="172.407"/>
	<rect x="135.313" width="241.375" height="90.319"/>
	<rect x="203.156" y="187.788" width="105.688" height="37.469"/>
	<path d="M135.313,120.319v172.407h241.375V120.319H135.313z M173.156,255.257v-97.469h165.688v97.469H173.156z"/>
</g>
<g>
</g>
<g>
</g>
<g>
</g>
<g>
</g>
<g>
</g>
<g>
</g>
<g>
</g>
<g>
</g>
<g>
</g>
<g>
</g>
<g>
</g>
<g>
</g>
<g>
</g>
<g>
</g>
<g>
</g>
</svg>
