<?xml version="1.0" encoding="iso-8859-1"?>
<!-- Generator: Adobe Illustrator 24.2.1, SVG Export Plug-In . SVG Version: 6.00 Build 0)  -->
<svg version="1.1" id="Capa_1" xmlns="http://www.w3.org/2000/svg" xmlns:xlink="http://www.w3.org/1999/xlink" x="0px" y="0px"
	 viewBox="0 0 512 512" style="enable-background:new 0 0 512 512;" xml:space="preserve">
<g>
	<path d="M424.672,258.991c10.33,0,18.734-8.404,18.734-18.734v-52.851c0-10.33-8.404-18.734-18.734-18.734
		s-18.734,8.404-18.734,18.734v52.851C405.938,250.587,414.342,258.991,424.672,258.991z"/>
	<path d="M338.469,240.257c0,10.33,8.404,18.734,18.734,18.734s18.734-8.404,18.734-18.734v-52.851
		c0-10.33-8.404-18.734-18.734-18.734s-18.734,8.404-18.734,18.734V240.257z"/>
	<path d="M289.734,172.406c6.636,0,12.963,1.338,18.734,3.75V18.734C308.469,8.404,300.064,0,289.734,0S271,8.404,271,18.734
		v157.422C276.771,173.744,283.099,172.406,289.734,172.406z"/>
	<path d="M222.266,172.406c6.636,0,12.963,1.338,18.734,3.75V18.734C241,8.404,232.596,0,222.266,0s-18.734,8.404-18.734,18.734
		v157.422C209.302,173.744,215.63,172.406,222.266,172.406z"/>
	<path d="M154.797,258.991c10.33,0,18.734-8.404,18.734-18.734v-52.851c0-10.33-8.404-18.734-18.734-18.734
		s-18.734,8.404-18.734,18.734v52.851C136.063,250.587,144.467,258.991,154.797,258.991z"/>
	<path d="M68.594,187.406v52.851c0,10.33,8.404,18.734,18.734,18.734s18.734-8.404,18.734-18.734v-52.851
		c0-10.33-8.404-18.734-18.734-18.734S68.594,177.076,68.594,187.406z"/>
	<path d="M241,444.531V221.141c0-10.33-8.404-18.734-18.734-18.734s-18.734,8.404-18.734,18.734v135.32h-15
		c-28.932,0-52.469,23.537-52.469,52.469h-30c0-40.353,29.132-74.029,67.469-81.102v-42.587c-5.771,2.412-12.099,3.75-18.734,3.75
		c-13.084,0-24.971-5.193-33.734-13.613c-8.763,8.42-20.65,13.613-33.734,13.613c-26.872,0-48.734-21.862-48.734-48.734V86.203
		c0-10.33-8.404-18.734-18.735-18.734c-10.33,0-18.734,8.404-18.734,18.734v358.328H241z"/>
	<rect x="1.124" y="474.531" width="239.876" height="37.469"/>
	<path d="M424.672,288.991c-13.084,0-24.971-5.193-33.734-13.613c-8.763,8.42-20.65,13.613-33.734,13.613
		c-6.636,0-12.963-1.338-18.734-3.75v42.587c38.337,7.072,67.469,40.749,67.469,81.102h-30c0-28.932-23.537-52.469-52.469-52.469
		h-15v-135.32c0-10.33-8.404-18.734-18.734-18.734S271,210.811,271,221.141v223.391h239.875l0.001-358.328
		c0-10.33-8.404-18.734-18.734-18.734c-10.331,0-18.735,8.404-18.735,18.734v154.054
		C473.406,267.129,451.544,288.991,424.672,288.991z"/>
	<rect x="271" y="474.531" width="239.875" height="37.469"/>
</g>
<g>
</g>
<g>
</g>
<g>
</g>
<g>
</g>
<g>
</g>
<g>
</g>
<g>
</g>
<g>
</g>
<g>
</g>
<g>
</g>
<g>
</g>
<g>
</g>
<g>
</g>
<g>
</g>
<g>
</g>
</svg>
