<?xml version="1.0" encoding="iso-8859-1"?>
<!-- Generator: Adobe Illustrator 24.2.1, SVG Export Plug-In . SVG Version: 6.00 Build 0)  -->
<svg version="1.1" id="Capa_1" xmlns="http://www.w3.org/2000/svg" xmlns:xlink="http://www.w3.org/1999/xlink" x="0px" y="0px"
	 viewBox="0 0 512.001 512.001" style="enable-background:new 0 0 512.001 512.001;" xml:space="preserve">
<g>
	<path d="M273.228,90.959c-12.714,16.893-19.98,37.069-20.936,58.42l110.306,110.307c21.353-0.95,41.529-8.221,58.42-20.937
		L273.228,90.959z"/>
	<path d="M481.084,30.892c-41.157-41.157-108.125-41.157-149.284,0L293.694,69l149.283,149.283l38.107-38.106
		c19.938-19.938,30.917-46.446,30.917-74.642C512.001,77.339,501.021,50.83,481.084,30.892z"/>
	<path d="M345.886,285.401L226.539,166.053c-7.582-7.582-19.918-7.582-27.5,0c-7.582,7.582-7.582,19.919,0,27.501l119.347,119.348
		c7.582,7.58,19.917,7.581,27.5,0C353.468,305.32,353.468,292.983,345.886,285.401z"/>
	<polygon points="189.409,226.351 152.778,270.072 241.905,359.198 285.626,322.567 	"/>
	<polygon points="112.798,467.37 44.607,399.179 0,452.421 59.557,511.977 	"/>
	<path d="M133.437,293.157l-69.489,82.938l71.934,71.934l82.938-69.489L133.437,293.157z M116.809,373.955l21.213-21.213
		l21.213,21.213l-21.213,21.213L116.809,373.955z"/>
</g>
<g>
</g>
<g>
</g>
<g>
</g>
<g>
</g>
<g>
</g>
<g>
</g>
<g>
</g>
<g>
</g>
<g>
</g>
<g>
</g>
<g>
</g>
<g>
</g>
<g>
</g>
<g>
</g>
<g>
</g>
</svg>
