<?xml version="1.0" encoding="iso-8859-1"?>
<!-- Generator: Adobe Illustrator 24.2.1, SVG Export Plug-In . SVG Version: 6.00 Build 0)  -->
<svg version="1.1" id="Capa_1" xmlns="http://www.w3.org/2000/svg" xmlns:xlink="http://www.w3.org/1999/xlink" x="0px" y="0px"
	 viewBox="0 0 512 512" style="enable-background:new 0 0 512 512;" xml:space="preserve">
<g>
	<rect x="67.469" y="134.932" width="104.938" height="72.334"/>
	<rect x="101.203" y="237.266" width="37.469" height="207.266"/>
	<rect x="438.548" width="73.452" height="37.469"/>
	<rect x="269.875" y="407.068" width="37.469" height="37.463"/>
	<rect x="101.203" y="67.469" width="37.469" height="37.463"/>
	<rect x="269.875" y="67.469" width="37.469" height="207.266"/>
	<path d="M408.548,0H0v512h408.548V0z M202.407,237.266h-33.734v237.266H71.203V237.266H37.469V104.932h33.734V37.469h97.469v67.463
		h33.734V237.266z M337.344,474.531h-97.469v-67.463h-33.734V274.734h33.734V37.469h97.469v237.266h33.734v132.334h-33.734V474.531z
		"/>
	<rect x="438.548" y="202.406" width="73.452" height="242.125"/>
	<rect x="438.548" y="67.469" width="73.452" height="104.938"/>
	<rect x="438.548" y="474.531" width="73.452" height="37.469"/>
	<rect x="236.141" y="304.734" width="104.938" height="72.334"/>
</g>
<g>
</g>
<g>
</g>
<g>
</g>
<g>
</g>
<g>
</g>
<g>
</g>
<g>
</g>
<g>
</g>
<g>
</g>
<g>
</g>
<g>
</g>
<g>
</g>
<g>
</g>
<g>
</g>
<g>
</g>
</svg>
