<?xml version="1.0" encoding="iso-8859-1"?>
<!-- Generator: Adobe Illustrator 24.2.1, SVG Export Plug-In . SVG Version: 6.00 Build 0)  -->
<svg version="1.1" id="Capa_1" xmlns="http://www.w3.org/2000/svg" xmlns:xlink="http://www.w3.org/1999/xlink" x="0px" y="0px"
	 viewBox="0 0 512 512" style="enable-background:new 0 0 512 512;" xml:space="preserve">
<g>
	<path d="M67.469,90.5c44.076-34.388,98.004-53.031,154.797-53.031c67.383,0,130.732,26.24,178.379,73.887
		s73.887,110.996,73.887,178.379c0,56.794-18.643,110.721-53.031,154.797H512V0H67.469V90.5z"/>
	<path d="M106.062,289.734c0-10.458,1.397-20.594,3.999-30.24l-98.429-40.771C4.092,241.031,0,264.914,0,289.734
		s4.092,48.703,11.633,71.011l98.429-40.771C107.459,310.328,106.062,300.192,106.062,289.734z"/>
	<path d="M222.266,512c87.123,0,162.685-50.395,199.104-123.558l-98.408-40.762c-20.099,34.793-57.709,58.258-100.696,58.258
		c-42.988,0-80.597-23.465-100.697-58.257l-98.408,40.762C59.581,461.605,135.143,512,222.266,512z"/>
	<circle cx="222.266" cy="289.734" r="18.734"/>
	<path d="M432.899,360.745c7.541-22.308,11.633-46.19,11.633-71.011s-4.092-48.703-11.633-71.011l-98.429,40.771
		c2.603,9.646,3.999,19.782,3.999,30.24s-1.397,20.594-3.999,30.24L432.899,360.745z"/>
	<path d="M222.266,203.531c-47.533,0-86.204,38.671-86.204,86.203s38.671,86.203,86.204,86.203
		c47.532,0,86.203-38.671,86.203-86.203S269.798,203.531,222.266,203.531z M222.266,338.469c-26.872,0-48.734-21.862-48.734-48.734
		S195.394,241,222.266,241S271,262.862,271,289.734S249.138,338.469,222.266,338.469z"/>
	<path d="M421.37,191.026C384.95,117.864,309.389,67.469,222.266,67.469S59.581,117.864,23.162,191.027l98.408,40.762
		c20.1-34.792,57.709-58.257,100.697-58.257c42.988,0,80.597,23.465,100.696,58.258L421.37,191.026z"/>
</g>
<g>
</g>
<g>
</g>
<g>
</g>
<g>
</g>
<g>
</g>
<g>
</g>
<g>
</g>
<g>
</g>
<g>
</g>
<g>
</g>
<g>
</g>
<g>
</g>
<g>
</g>
<g>
</g>
<g>
</g>
</svg>
