<?xml version="1.0" encoding="iso-8859-1"?>
<!-- Generator: Adobe Illustrator 24.2.1, SVG Export Plug-In . SVG Version: 6.00 Build 0)  -->
<svg version="1.1" id="Capa_1" xmlns="http://www.w3.org/2000/svg" xmlns:xlink="http://www.w3.org/1999/xlink" x="0px" y="0px"
	 viewBox="0 0 512 512" style="enable-background:new 0 0 512 512;" xml:space="preserve">
<g>
	<path d="M425.797,204.655c-47.532,0-86.203,38.671-86.203,86.204c0,47.532,38.671,86.203,86.203,86.203S512,338.392,512,290.859
		C512,243.326,473.329,204.655,425.797,204.655z M425.797,339.594c-26.872,0-48.734-21.862-48.734-48.734
		c0-26.873,21.862-48.735,48.734-48.735s48.734,21.862,48.734,48.735C474.531,317.731,452.669,339.594,425.797,339.594z"/>
	<circle cx="425.797" cy="86.203" r="18.734"/>
	<path d="M339.594,213.019c21.281-23.545,52.043-38.364,86.203-38.364s64.923,14.819,86.203,38.364V0H339.594V213.019z
		 M425.797,37.469c26.872,0,48.734,21.862,48.734,48.734s-21.862,48.734-48.734,48.734s-48.734-21.862-48.734-48.734
		S398.925,37.469,425.797,37.469z"/>
	<rect x="339.594" y="474.531" width="172.406" height="37.469"/>
	<path d="M425.797,272.124c-10.33,0-18.734,8.404-18.734,18.735c0,10.33,8.404,18.734,18.734,18.734s18.734-8.404,18.734-18.734
		C444.531,280.528,436.127,272.124,425.797,272.124z"/>
	<path d="M425.797,407.063c-34.16,0-64.923-14.819-86.203-38.364v75.832H512v-75.832
		C490.719,392.243,459.957,407.063,425.797,407.063z"/>
	<rect x="202.406" y="134.938" width="107.188" height="37.469"/>
	<rect x="202.406" y="202.406" width="107.188" height="174.656"/>
	<rect x="202.406" y="407.063" width="107.188" height="104.938"/>
	<rect y="474.531" width="172.406" height="37.469"/>
	<circle cx="86.203" cy="86.203" r="18.734"/>
	<path d="M172.406,444.531v-75.832c-21.281,23.544-52.043,38.364-86.203,38.364S21.281,392.243,0,368.699v75.832H172.406z"/>
	<path d="M86.203,377.063c47.532,0,86.203-38.671,86.203-86.203c0-47.533-38.671-86.204-86.203-86.204S0,243.326,0,290.859
		C0,338.392,38.671,377.063,86.203,377.063z M86.203,242.124c26.872,0,48.734,21.862,48.734,48.735
		c0,26.872-21.862,48.734-48.734,48.734s-48.734-21.862-48.734-48.734C37.469,263.986,59.331,242.124,86.203,242.124z"/>
	<path d="M86.203,309.594c10.33,0,18.734-8.404,18.734-18.734c0-10.331-8.404-18.735-18.734-18.735s-18.734,8.404-18.734,18.735
		C67.469,301.189,75.873,309.594,86.203,309.594z"/>
	<path d="M86.203,174.655c34.16,0,64.923,14.819,86.203,38.364V0H0v213.019C21.281,189.474,52.043,174.655,86.203,174.655z
		 M86.203,37.469c26.872,0,48.734,21.862,48.734,48.734s-21.862,48.734-48.734,48.734s-48.734-21.862-48.734-48.734
		S59.331,37.469,86.203,37.469z"/>
</g>
<g>
</g>
<g>
</g>
<g>
</g>
<g>
</g>
<g>
</g>
<g>
</g>
<g>
</g>
<g>
</g>
<g>
</g>
<g>
</g>
<g>
</g>
<g>
</g>
<g>
</g>
<g>
</g>
<g>
</g>
</svg>
