<?xml version="1.0" encoding="iso-8859-1"?>
<!-- Generator: Adobe Illustrator 24.2.1, SVG Export Plug-In . SVG Version: 6.00 Build 0)  -->
<svg version="1.1" id="Capa_1" xmlns="http://www.w3.org/2000/svg" xmlns:xlink="http://www.w3.org/1999/xlink" x="0px" y="0px"
	 viewBox="0 0 512 512" style="enable-background:new 0 0 512 512;" xml:space="preserve">
<g>
	<path d="M255.995,377.064c0.087,0,0.172,0,0.258-0.001c19.94-0.139,36.05-16.475,35.91-36.416
		c-0.139-19.854-16.338-35.91-36.16-35.91c-0.087,0-0.17,0-0.257,0.001c-19.939,0.14-36.049,16.477-35.909,36.417
		C219.976,361.009,236.173,377.064,255.995,377.064z"/>
	<path d="M255.979,444.534c0.25,0,0.496-0.001,0.746-0.003c27.681-0.193,53.63-11.155,73.066-30.865
		c19.436-19.71,30.033-45.81,29.839-73.489c-0.193-27.681-11.155-53.63-30.865-73.066c-19.532-19.261-45.342-29.842-72.743-29.842
		c-0.25,0-0.496,0.001-0.746,0.003c-27.681,0.193-53.63,11.155-73.066,30.865c-19.436,19.71-30.033,45.81-29.839,73.489
		c0.193,27.681,11.155,53.63,30.865,73.066C202.768,433.953,228.577,444.533,255.979,444.534z M255.536,274.738
		c0.156-0.001,0.313-0.001,0.47-0.001c36.27,0,65.902,29.375,66.157,65.7c0.254,36.483-29.219,66.371-65.7,66.626
		c-0.155,0.001-0.315,0.001-0.472,0.001c-36.269,0-65.899-29.373-66.154-65.699C189.583,304.883,219.055,274.994,255.536,274.738z"
		/>
	<path d="M255.995,139.796c0.087,0,0.172,0,0.258-0.001c19.94-0.139,36.05-16.475,35.91-36.416
		c-0.139-19.854-16.338-35.91-36.16-35.91c-0.087,0-0.17,0-0.257,0.001c-19.939,0.14-36.049,16.477-35.909,36.417
		C219.976,123.74,236.173,139.796,255.995,139.796z"/>
	<path d="M85,512h342V0H85V512z M255.536,37.47c0.156-0.001,0.313-0.001,0.47-0.001c36.27,0,65.902,29.375,66.157,65.7
		c0.254,36.483-29.219,66.371-65.7,66.626c-0.155,0.001-0.315,0.001-0.472,0.001c-36.269,0-65.899-29.373-66.154-65.699
		C189.583,67.614,219.055,37.726,255.536,37.47z M160.849,247.072c25.063-25.415,58.522-39.551,94.216-39.801
		c0.32-0.002,0.643-0.003,0.963-0.003c35.336,0,68.613,13.644,93.802,38.481c25.415,25.063,39.551,58.522,39.801,94.216
		s-13.415,69.349-38.479,94.765c-25.063,25.415-58.522,39.551-94.216,39.801c-0.32,0.002-0.643,0.003-0.963,0.003
		c-35.336,0.001-68.613-13.644-93.802-38.481c-25.415-25.063-39.551-58.522-39.801-94.216S135.785,272.488,160.849,247.072z"/>
</g>
<g>
</g>
<g>
</g>
<g>
</g>
<g>
</g>
<g>
</g>
<g>
</g>
<g>
</g>
<g>
</g>
<g>
</g>
<g>
</g>
<g>
</g>
<g>
</g>
<g>
</g>
<g>
</g>
<g>
</g>
</svg>
